<?xml version="1.0" encoding="UTF-8" standalone="no"?>
<svg version="1.1" xmlns="http://www.w3.org/2000/svg" xmlns:xlink="http://www.w3.org/1999/xlink" width="1.0372in" height="0.9671in" viewBox="0 0 74.6798 69.6345" >
<g id="Layer1109" >
<path d=" 
M25.3830,-4528.5922
L5.3063,-4520.3100
L10.9448,-4509.9594
L2.0730,-4500.0893
L11.0647,-4496.1970
L10.9448,-4477.6156
L37.1010,-4467.6312
L63.5385,-4478.3187
L63.9280,-4496.5803
L72.0000,-4500.0893
L63.6848,-4511.3550
L69.0675,-4520.3093
L48.3078,-4529.0682
L45.7020,-4531.6740
L43.3814,-4530.3450
L39.5744,-4532.2407
L38.9235,-4534.5007
L35.7563,-4534.5007
L34.7033,-4530.9037
L31.3927,-4530.2190
L29.4697,-4531.9429
L25.3830,-4528.5922
Z" 
style="stroke-width: 0.7200; stroke-linecap: round; stroke-linejoin: round; fill-rule: evenodd; fill: #ffffff; "/>
<path d=" 
M25.3830,-4528.5922
L5.3063,-4520.3100
L10.9448,-4509.9594
L2.0730,-4500.0893
L11.0647,-4496.1970
L10.9448,-4477.6156
L37.1010,-4467.6312
L63.5385,-4478.3187
L63.9280,-4496.5803
L72.0000,-4500.0893
L63.6848,-4511.3550
L69.0675,-4520.3093
L48.3078,-4529.0682
L45.7020,-4531.6740
L43.3814,-4530.3450
L39.5744,-4532.2407
L38.9235,-4534.5007
L35.7563,-4534.5007
L34.7033,-4530.9037
L31.3927,-4530.2190
L29.4697,-4531.9429
L25.3830,-4528.5922
Z" 
style="stroke-width: 0.7200; stroke: #ffffff; stroke-dasharray: none; stroke-linecap: round; stroke-linejoin: round; fill: none; "/>
</g>
<path d=" 
M73.7460,-4502.0363
L65.9918,-4510.3207
L70.8937,-4518.4935
C71.3707,-4519.2825 71.4802,-4520.2095 71.1983,-4521.0360
C70.9117,-4521.8640 70.2585,-4522.5307 69.3997,-4522.8675
L52.2083,-4529.5965
L51.0795,-4527.6210
L68.5785,-4520.7712
C68.8305,-4520.6775 68.9970,-4520.5125 69.0675,-4520.3093
C69.1343,-4520.1075 69.0998,-4519.8727 68.9670,-4519.6492
L63.9870,-4511.3520
C63.7905,-4511.4968 63.5895,-4511.6242 63.3750,-4511.7097
L52.3290,-4516.1288
L51.4238,-4515.8820
L50.9145,-4514.6618
L51.2055,-4514.1547
L62.3250,-4509.7058
L37.3403,-4499.7127
L12.3503,-4509.7058
L23.5710,-4514.1930
L23.8080,-4514.5897
L23.2425,-4515.9630
L22.4385,-4516.1640
L11.3048,-4511.7097
C11.0872,-4511.6242 10.8847,-4511.4968 10.6897,-4511.3520
L5.7113,-4519.6500
C5.5792,-4519.8735 5.5402,-4520.1083 5.6123,-4520.3100
C5.6745,-4520.5132 5.8530,-4520.6775 6.0952,-4520.7720
L23.6640,-4527.6472
L22.4887,-4529.6033
L5.2770,-4522.8683
C4.4205,-4522.5315 3.7635,-4521.8648 3.4823,-4521.0368
C3.2010,-4520.2095 3.3142,-4519.2833 3.7890,-4518.4942
L8.6880,-4510.3155
L0.9300,-4502.0363
C0.2753,-4501.3327 0.0000,-4500.4500 0.1762,-4499.6160
C0.3577,-4498.7828 0.9683,-4498.0920 1.8608,-4497.7215
L9.2175,-4494.6668
L9.2175,-4479.3855
C9.2175,-4478.1480 10.1580,-4476.7590 11.3048,-4476.2918
L35.2530,-4466.7203
C35.8245,-4466.4802 36.5842,-4466.3655 37.3403,-4466.3655
C38.0993,-4466.3655 38.8545,-4466.4795 39.4290,-4466.7203
L63.3765,-4476.2918
C64.5248,-4476.7590 65.4690,-4478.1480 65.4690,-4479.3855
L65.4690,-4494.6668
L72.8190,-4497.7215
C73.7077,-4498.0920 74.3220,-4498.7828 74.5020,-4499.6160
C74.6798,-4500.4500 74.4053,-4501.3327 73.7460,-4502.0363
Z
M2.7262,-4499.7975
C2.4952,-4499.9047 2.3925,-4500.0120 2.3790,-4500.0922
C2.3662,-4500.1673 2.4135,-4500.3150 2.5763,-4500.4972
L9.8618,-4508.2792
L35.3993,-4498.0657
C35.2433,-4497.9667 35.0940,-4497.8422 34.9522,-4497.7050
L28.0118,-4490.7622
C27.4567,-4490.2087 26.2920,-4489.9897 25.5705,-4490.2778
L2.7262,-4499.7975
Z
M36.5895,-4468.6725
C36.3705,-4468.7182 36.2002,-4468.7685 36.0870,-4468.8120
L12.1410,-4478.3782
C11.8493,-4478.4960 11.4668,-4479.0555 11.4668,-4479.3855
L11.4668,-4493.7188
L24.7042,-4488.2025
C26.2590,-4487.5553 28.4108,-4487.9902 29.6010,-4489.1707
L36.5467,-4496.1150
C36.5580,-4496.1285 36.5737,-4496.1323 36.5895,-4496.1435
L36.5895,-4468.6725
Z
M63.2145,-4479.3855
C63.2145,-4479.0563 62.8365,-4478.4960 62.5432,-4478.3782
L38.5995,-4468.8120
C38.4825,-4468.7685 38.3093,-4468.7182 38.0895,-4468.6725
L38.0895,-4496.1427
C38.1037,-4496.1315 38.1255,-4496.1270 38.1360,-4496.1143
L45.0810,-4489.1700
C45.8910,-4488.3540 47.1540,-4487.8988 48.3683,-4487.8988
C48.9322,-4487.8988 49.4828,-4488.0075 49.9702,-4488.2018
L63.2145,-4493.7180
L63.2145,-4479.3855
Z
M72.3015,-4500.0922
C72.2820,-4500.0127 72.1838,-4499.9047 71.9520,-4499.7975
L49.1137,-4490.2778
C48.3832,-4489.9860 47.2253,-4490.2080 46.6718,-4490.7622
L39.7275,-4497.7050
C39.5872,-4497.8430 39.4388,-4497.9675 39.2835,-4498.0657
L64.8172,-4508.2807
L72.1043,-4500.4988
C72.2738,-4500.3165 72.3180,-4500.1687 72.3015,-4500.0922
Z
M51.1942,-4524.0765
L48.3637,-4524.8497
L47.8545,-4526.0723
L49.3147,-4528.6245
C49.6635,-4529.2283 49.5585,-4529.9932 49.0673,-4530.4868
L46.8277,-4532.7255
C46.5412,-4533.0150 46.1363,-4533.1793 45.7305,-4533.1793
L45.3337,-4533.1793
L44.9617,-4532.9753
L42.4118,-4531.5172
L41.1900,-4532.0228
L40.4197,-4534.8578
C40.2337,-4535.5297 39.6165,-4536.0000 38.9250,-4536.0000
L35.7577,-4536.0000
C35.0595,-4536.0000 34.4543,-4535.5297 34.2637,-4534.8570
L33.4868,-4532.0183
L32.2117,-4531.4813
L29.7487,-4532.9573
L29.3925,-4533.1710
L28.9478,-4533.1777
C28.5383,-4533.1777 28.1422,-4533.0120 27.8535,-4532.7247
L25.6125,-4530.4875
C25.1093,-4529.9820 25.0163,-4529.2035 25.3830,-4528.5922
L26.8643,-4526.1308
L26.3002,-4524.7807
L23.5192,-4524.0840
C22.8158,-4523.9033 22.3433,-4523.2875 22.3433,-4522.5825
L22.3433,-4519.4182
C22.3433,-4518.7140 22.8158,-4518.0967 23.5050,-4517.9190
L26.3002,-4517.2193
L26.8643,-4515.8693
L25.3808,-4513.4040
C25.0177,-4512.7980 25.1115,-4512.0172 25.6147,-4511.5132
L27.8528,-4509.2760
L28.2908,-4508.8365
L28.9470,-4508.8230
C29.2335,-4508.8230 29.5102,-4508.8988 29.7472,-4509.0435
L32.2102,-4510.5352
L33.5543,-4509.9645
L34.2555,-4507.1820
C34.4340,-4506.4762 35.0527,-4506.0000 35.7577,-4506.0000
L38.9250,-4506.0000
C39.6285,-4506.0000 40.2427,-4506.4762 40.4265,-4507.1708
L41.1172,-4509.9600
L42.4072,-4510.4940
L44.9610,-4509.0240
L45.3053,-4508.8275
L45.7298,-4508.8223
C46.1355,-4508.8223 46.5405,-4508.9857 46.8225,-4509.2730
L49.0650,-4511.5125
C49.5578,-4512.0053 49.6627,-4512.7725 49.3140,-4513.3763
L47.8538,-4515.9270
L48.3630,-4517.1578
L51.1935,-4517.9227
C51.8655,-4518.1073 52.3372,-4518.7223 52.3372,-4519.4190
L52.3372,-4522.5825
C52.3380,-4523.2792 51.8663,-4523.8943 51.1942,-4524.0765
Z
M50.8357,-4519.4182
C50.8357,-4519.3988 50.8215,-4519.3777 50.8080,-4519.3718
L47.2928,-4518.4110
C47.2710,-4518.4065 47.2500,-4518.3855 47.2410,-4518.3660
L46.2053,-4515.8588
C46.1970,-4515.8415 46.1978,-4515.8243 46.2053,-4515.8018
L48.0150,-4512.6308
C48.0247,-4512.6135 48.0225,-4512.5880 48.0060,-4512.5738
L45.7665,-4510.3342
C45.7560,-4510.3260 45.7388,-4510.3200 45.7298,-4510.3200
C45.7230,-4510.3200 45.7140,-4510.3223 45.7028,-4510.3253
L42.5505,-4512.1335
C42.5355,-4512.1388 42.5257,-4512.1410 42.5115,-4512.1410
C42.4958,-4512.1410 42.4883,-4512.1388 42.4830,-4512.1357
L39.8857,-4511.0723
C39.8677,-4511.0670 39.8460,-4511.0445 39.8407,-4511.0250
L38.9692,-4507.5375
C38.9648,-4507.5180 38.9445,-4507.5015 38.9242,-4507.5015
L35.7570,-4507.5015
C35.7368,-4507.5015 35.7165,-4507.5180 35.7142,-4507.5375
L34.8352,-4511.0250
C34.8300,-4511.0445 34.8128,-4511.0678 34.7910,-4511.0723
L32.1218,-4512.1800
C32.1172,-4512.1845 32.0992,-4512.1867 32.0902,-4512.1867
C32.0790,-4512.1867 32.0625,-4512.1838 32.0550,-4512.1777
L28.9680,-4510.3253
C28.9657,-4510.3223 28.9568,-4510.3207 28.9463,-4510.3207
C28.9335,-4510.3207 28.9215,-4510.3253 28.9177,-4510.3335
L26.6752,-4512.5730
C26.6655,-4512.5873 26.6655,-4512.6128 26.6752,-4512.6300
L28.5218,-4515.7140
C28.5293,-4515.7313 28.5293,-4515.7605 28.5218,-4515.7897
L27.4155,-4518.4613
C27.4155,-4518.4785 27.3840,-4518.4920 27.3653,-4518.4973
L23.8732,-4519.3702
C23.8590,-4519.3755 23.8380,-4519.3965 23.8380,-4519.4168
L23.8380,-4522.5825
C23.8380,-4522.6020 23.8590,-4522.6230 23.8732,-4522.6290
L27.3653,-4523.5013
C27.3833,-4523.5065 27.4155,-4523.5267 27.4155,-4523.5455
L28.5218,-4526.2177
C28.5293,-4526.2365 28.5293,-4526.2657 28.5218,-4526.2837
L26.6752,-4529.3678
C26.6550,-4529.3850 26.6655,-4529.4127 26.6752,-4529.4270
L28.9177,-4531.6635
C28.9215,-4531.6725 28.9335,-4531.6770 28.9463,-4531.6770
C28.9568,-4531.6770 28.9657,-4531.6762 28.9680,-4531.6718
L32.0550,-4529.8223
C32.0625,-4529.8170 32.0798,-4529.8133 32.0902,-4529.8133
C32.1000,-4529.8133 32.1180,-4529.8155 32.1218,-4529.8200
L34.7033,-4530.9037
C34.7265,-4530.9105 34.7460,-4530.9322 34.7482,-4530.9518
L35.7135,-4534.4648
C35.7157,-4534.4843 35.7360,-4534.5007 35.7563,-4534.5007
L38.9235,-4534.5007
C38.9430,-4534.5007 38.9640,-4534.4843 38.9685,-4534.4648
L39.9255,-4530.9518
C39.9293,-4530.9322 39.9510,-4530.9097 39.9675,-4530.9037
L42.4822,-4529.8665
C42.4890,-4529.8620 42.4950,-4529.8597 42.5108,-4529.8597
C42.5250,-4529.8597 42.5347,-4529.8628 42.5497,-4529.8688
L45.7020,-4531.6740
C45.7133,-4531.6770 45.7223,-4531.6792 45.7290,-4531.6792
C45.7380,-4531.6792 45.7553,-4531.6748 45.7657,-4531.6657
L48.0053,-4529.4270
C48.0210,-4529.4127 48.0233,-4529.3850 48.0143,-4529.3678
L46.2045,-4526.2080
C46.1970,-4526.1907 46.1963,-4526.1615 46.2045,-4526.1427
L47.2403,-4523.6332
C47.2500,-4523.6137 47.2702,-4523.5935 47.2920,-4523.5882
L50.8073,-4522.6313
C50.8215,-4522.6260 50.8350,-4522.6035 50.8350,-4522.5840
L50.8350,-4519.4182
L50.8357,-4519.4182
Z
M37.3403,-4527.3008
C33.8618,-4527.3008 31.0387,-4524.4778 31.0387,-4521.0000
C31.0387,-4517.5207 33.8618,-4514.7000 37.3403,-4514.7000
C40.8233,-4514.7000 43.6403,-4517.5207 43.6403,-4521.0000
C43.6395,-4524.4778 40.8233,-4527.3008 37.3403,-4527.3008
Z
M37.3403,-4516.1993
C34.6935,-4516.1993 32.5388,-4518.3525 32.5388,-4521.0000
C32.5388,-4523.6467 34.6935,-4525.7993 37.3403,-4525.7993
C39.9870,-4525.7993 42.1410,-4523.6460 42.1410,-4521.0000
C42.1403,-4518.3525 39.9862,-4516.1993 37.3403,-4516.1993
Z" 
style="fill-rule: evenodd; fill: #010101; "/>
<text x="0.0000" y="-4466.3655">
<tspan font-family="Arial Narrow" font-weight="bold" font-size="12.0000" fill="#000000" fill-opacity="1.0000" stroke-opacity="1.0000" >
</tspan>
<tspan font-family="Arial Narrow" font-weight="bold" font-size="12.0000" fill="#000000" fill-opacity="1.0000" stroke-opacity="1.0000" >
Add On</tspan>
</text>
</svg>
