<?xml version="1.0" encoding="UTF-8" standalone="no"?>
<svg version="1.1" xmlns="http://www.w3.org/2000/svg" xmlns:xlink="http://www.w3.org/1999/xlink" width="1.0373in" height="0.9932in" viewBox="0 0 74.6828 71.5095" >
<g id="Layer1027" >
<path d=" 
M11.2500,-4508.0843
L5.6115,-4518.4350
L37.4063,-4531.9906
L69.0705,-4518.4358
L63.9900,-4509.4800
L72.3053,-4498.2143
L64.2332,-4494.7052
L63.8438,-4476.4437
L37.4063,-4465.7562
L11.2500,-4475.7406
L11.3699,-4494.3220
L2.3783,-4498.2143
L11.2500,-4508.0843
Z" 
style="stroke-width: 0.7200; stroke-linecap: round; stroke-linejoin: round; fill-rule: evenodd; fill: #ffffff; "/>
<path d=" 
M11.2500,-4508.0843
L5.6115,-4518.4350
L37.4063,-4531.9906
L69.0705,-4518.4358
L63.9900,-4509.4800
L72.3053,-4498.2143
L64.2332,-4494.7052
L63.8438,-4476.4437
L37.4063,-4465.7562
L11.2500,-4475.7406
L11.3699,-4494.3220
L2.3783,-4498.2143
L11.2500,-4508.0843
Z" 
style="stroke-width: 0.7200; stroke: #ffffff; stroke-dasharray: none; stroke-linecap: round; stroke-linejoin: round; fill: none; "/>
</g>
<path d=" 
M73.7498,-4500.1613
L65.9947,-4508.4450
L70.8990,-4516.6170
C71.3723,-4517.4068 71.4832,-4518.3345 71.2005,-4519.1618
C70.9177,-4519.9890 70.2645,-4520.6573 69.4050,-4520.9933
L52.2082,-4527.7223
L51.0802,-4525.7475
L68.5853,-4518.8985
C68.8290,-4518.8033 69.0015,-4518.6390 69.0705,-4518.4358
C69.1387,-4518.2348 69.1020,-4517.9993 68.9685,-4517.7758
L63.9900,-4509.4800
C63.7943,-4509.6240 63.5910,-4509.7508 63.3758,-4509.8370
L52.3290,-4514.2553
L51.4253,-4514.0078
L50.9198,-4512.7860
L51.2092,-4512.2798
L62.3280,-4507.8323
L37.3410,-4497.8363
L12.3547,-4507.8315
L23.5710,-4512.3180
L23.8095,-4512.7163
L23.2418,-4514.0873
L22.4385,-4514.2883
L11.3055,-4509.8355
C11.0903,-4509.7500 10.8870,-4509.6225 10.6912,-4509.4785
L5.7135,-4517.7750
C5.5785,-4517.9993 5.5433,-4518.2340 5.6115,-4518.4350
C5.6805,-4518.6382 5.8530,-4518.8018 6.0968,-4518.8978
L23.6655,-4525.7723
L22.4917,-4527.7290
L5.2763,-4520.9925
C4.4183,-4520.6565 3.7635,-4519.9883 3.4823,-4519.1610
C3.2003,-4518.3338 3.3097,-4517.4068 3.7845,-4516.6163
L8.6903,-4508.4397
L0.9338,-4500.1613
C0.2745,-4499.4570 0.0000,-4498.5757 0.1793,-4497.7425
C0.3585,-4496.9085 0.9713,-4496.2178 1.8615,-4495.8458
L9.2167,-4492.7812
L9.2167,-4477.5000
C9.2167,-4476.2632 10.1573,-4474.8742 11.3062,-4474.4137
L35.2530,-4464.8363
C35.8275,-4464.6045 36.5843,-4464.4905 37.3417,-4464.4905
C38.1000,-4464.4905 38.8568,-4464.6045 39.4312,-4464.8363
L63.3780,-4474.4137
C64.5277,-4474.8742 65.4668,-4476.2632 65.4668,-4477.5000
L65.4668,-4492.7812
L72.8235,-4495.8458
C73.7137,-4496.2178 74.3265,-4496.9085 74.5050,-4497.7425
C74.6828,-4498.5765 74.4090,-4499.4570 73.7498,-4500.1613
Z
M2.3783,-4498.2143
C2.3618,-4498.2923 2.4045,-4498.4400 2.5762,-4498.6230
L9.8655,-4506.4035
L35.3978,-4496.1908
C35.2440,-4496.0813 35.0933,-4495.9672 34.9553,-4495.8300
L28.0118,-4488.8865
C27.4582,-4488.3330 26.2935,-4488.1043 25.5735,-4488.4043
L2.7262,-4497.9233
C2.4945,-4498.0193 2.3948,-4498.1370 2.3783,-4498.2143
Z
M36.0877,-4466.9243
L12.1410,-4476.5040
C11.8455,-4476.6225 11.4668,-4477.1805 11.4668,-4477.5000
L11.4668,-4491.8438
L24.7080,-4486.3268
C26.2613,-4485.6810 28.4138,-4486.1048 29.6033,-4487.2958
L36.5467,-4494.2392
C36.5603,-4494.2528 36.5790,-4494.2565 36.5933,-4494.2685
L36.5933,-4466.7975
C36.3735,-4466.8328 36.2010,-4466.8792 36.0877,-4466.9243
Z
M63.2160,-4477.5000
C63.2160,-4477.1805 62.8380,-4476.6225 62.5417,-4476.5040
L38.5957,-4466.9243
C38.4825,-4466.8785 38.3092,-4466.8328 38.0910,-4466.7975
L38.0910,-4494.2678
C38.1052,-4494.2550 38.1232,-4494.2520 38.1367,-4494.2385
L45.0802,-4487.2950
C45.8955,-4486.4805 47.1578,-4486.0238 48.3735,-4486.0238
C48.9345,-4486.0238 49.4850,-4486.1220 49.9778,-4486.3260
L63.2167,-4491.8423
L63.2167,-4477.5000
L63.2160,-4477.5000
Z
M72.3053,-4498.2143
C72.2887,-4498.1363 72.1875,-4498.0193 71.9565,-4497.9233
L49.1107,-4488.4043
C48.3870,-4488.1020 47.2252,-4488.3323 46.6702,-4488.8865
L39.7267,-4495.8300
C39.5887,-4495.9680 39.4380,-4496.0820 39.2842,-4496.1908
L64.8225,-4506.4058
L72.1072,-4498.6230
C72.2790,-4498.4415 72.3217,-4498.2930 72.3053,-4498.2143
Z" 
style="fill-rule: evenodd; fill: #000000; "/>
<path d=" 
M53.8545,-4517.0025
C54.0540,-4517.0572 54.2160,-4517.2703 54.2160,-4517.4765
L54.2160,-4520.7735
C54.2160,-4520.9798 54.0533,-4521.1928 53.8545,-4521.2475
L50.0985,-4522.2728
C49.8990,-4522.3275 49.6830,-4522.5315 49.6170,-4522.7272
L48.5700,-4525.2585
C48.4785,-4525.4430 48.4868,-4525.7407 48.5888,-4525.9200
L50.5193,-4529.3010
C50.6220,-4529.4803 50.5860,-4529.7458 50.4405,-4529.8920
L48.1065,-4532.2260
C47.9610,-4532.3715 47.6948,-4532.4075 47.5163,-4532.3048
L44.1368,-4530.3720
C43.9583,-4530.2700 43.6605,-4530.2610 43.4760,-4530.3533
L40.9448,-4531.4003
C40.7490,-4531.4663 40.5450,-4531.6830 40.4910,-4531.8818
L39.4673,-4535.6393
C39.4133,-4535.8373 39.2003,-4536.0000 38.9933,-4536.0000
L35.6925,-4536.0000
C35.4863,-4536.0000 35.2733,-4535.8373 35.2193,-4535.6385
L34.1948,-4531.8810
C34.1408,-4531.6822 33.9368,-4531.4648 33.7410,-4531.3988
L31.1130,-4530.2977
C30.9293,-4530.2040 30.6338,-4530.2153 30.4568,-4530.3210
L27.1635,-4532.2950
C26.9865,-4532.4015 26.7225,-4532.3685 26.5770,-4532.2230
L24.2430,-4529.8913
C24.0975,-4529.7458 24.0645,-4529.4817 24.1710,-4529.3048
L26.1473,-4526.0115
C26.2538,-4525.8345 26.2643,-4525.5397 26.1713,-4525.3553
L25.0388,-4522.6193
C24.9735,-4522.4235 24.7568,-4522.2225 24.5565,-4522.1723
L20.8298,-4521.2400
C20.6295,-4521.1905 20.4660,-4520.9805 20.4660,-4520.7743
L20.4660,-4517.4773
C20.4660,-4517.2710 20.6295,-4517.0610 20.8298,-4517.0115
L24.5565,-4516.0793
C24.7568,-4516.0298 24.9735,-4515.8288 25.0388,-4515.6322
L26.1713,-4512.8962
C26.2643,-4512.7118 26.2530,-4512.4170 26.1473,-4512.2400
L24.1733,-4508.9468
C24.0668,-4508.7698 24.0998,-4508.5058 24.2453,-4508.3602
L26.5770,-4506.0263
C26.7225,-4505.8808 26.9865,-4505.8478 27.1635,-4505.9542
L30.4568,-4507.9305
C30.6338,-4508.0370 30.9285,-4508.0475 31.1130,-4507.9545
L33.8475,-4506.8220
C34.0433,-4506.7567 34.2443,-4506.5400 34.2945,-4506.3398
L35.2268,-4502.6145
C35.2763,-4502.4135 35.4863,-4502.2500 35.6925,-4502.2500
L38.9933,-4502.2500
C39.1995,-4502.2500 39.4095,-4502.4135 39.4590,-4502.6137
L40.3898,-4506.3390
C40.4393,-4506.5392 40.6410,-4506.7553 40.8368,-4506.8205
L43.4753,-4507.8975
C43.6605,-4507.9890 43.9583,-4507.9800 44.1368,-4507.8780
L47.5163,-4505.9460
C47.6955,-4505.8440 47.9618,-4505.8792 48.1073,-4506.0248
L50.4413,-4508.3588
C50.5868,-4508.5042 50.6228,-4508.7705 50.5200,-4508.9497
L48.5895,-4512.3308
C48.4868,-4512.5100 48.4793,-4512.8077 48.5708,-4512.9923
L49.6178,-4515.5235
C49.6838,-4515.7193 49.8998,-4515.9232 50.0993,-4515.9780
L53.8545,-4517.0025
Z
M37.3425,-4511.2500
C32.9933,-4511.2500 29.4668,-4514.7757 29.4668,-4519.1250
C29.4668,-4523.4743 32.9925,-4527.0000 37.3425,-4527.0000
C41.6903,-4527.0000 45.2175,-4523.4743 45.2175,-4519.1250
C45.2175,-4514.7757 41.6903,-4511.2500 37.3425,-4511.2500
Z" 
style="fill-rule: evenodd; fill: #000000; "/>
<text x="0.0000" y="-4464.4905">
<tspan font-family="Arial Narrow" font-weight="bold" font-size="12.0000" fill="#000000" fill-opacity="1.0000" stroke-opacity="1.0000" >
App</tspan>
</text>
</svg>
