<?xml version="1.0" encoding="UTF-8" standalone="no"?>
<svg version="1.1" xmlns="http://www.w3.org/2000/svg" xmlns:xlink="http://www.w3.org/1999/xlink" width="0.8438in" height="1.0938in" viewBox="0 0 60.7500 78.7500" >
<g id="Layer1114" >
<path d=" 
M6.0000,-4533.7501
C3.9323,-4533.7501 2.2500,-4532.0679 2.2500,-4530.0001
L2.2500,-4479.3751
C2.2500,-4476.2724 4.7738,-4473.7501 7.8750,-4473.7501
L52.8750,-4473.7501
C55.9763,-4473.7501 58.5000,-4476.2724 58.5000,-4479.3751
L58.5000,-4530.0001
C58.5000,-4532.0679 56.8185,-4533.7501 54.7500,-4533.7501
L6.0000,-4533.7501
Z
M54.7500,-4459.5001
C56.8185,-4459.5001 58.5000,-4461.1816 58.5000,-4463.2501
L58.5000,-4476.3811
C57.4260,-4474.3711 55.3080,-4473.0001 52.8750,-4473.0001
L7.8750,-4473.0001
C5.4413,-4473.0001 3.3240,-4474.3711 2.2500,-4476.3811
L2.2500,-4463.2501
C2.2500,-4461.1816 3.9323,-4459.5001 6.0000,-4459.5001
L54.7500,-4459.5001
Z" 
style="stroke-width: 0.7200; stroke-linecap: round; stroke-linejoin: round; fill-rule: evenodd; fill: #ffffff; "/>
<path d=" 
M6.0000,-4533.7501
C3.9323,-4533.7501 2.2500,-4532.0679 2.2500,-4530.0001
L2.2500,-4479.3751
C2.2500,-4476.2724 4.7738,-4473.7501 7.8750,-4473.7501
L52.8750,-4473.7501
C55.9763,-4473.7501 58.5000,-4476.2724 58.5000,-4479.3751
L58.5000,-4530.0001
C58.5000,-4532.0679 56.8185,-4533.7501 54.7500,-4533.7501
L6.0000,-4533.7501
Z
M54.7500,-4459.5001
C56.8185,-4459.5001 58.5000,-4461.1816 58.5000,-4463.2501
L58.5000,-4476.3811
C57.4260,-4474.3711 55.3080,-4473.0001 52.8750,-4473.0001
L7.8750,-4473.0001
C5.4413,-4473.0001 3.3240,-4474.3711 2.2500,-4476.3811
L2.2500,-4463.2501
C2.2500,-4461.1816 3.9323,-4459.5001 6.0000,-4459.5001
L54.7500,-4459.5001
Z" 
style="stroke-width: 0.7200; stroke: #ffffff; stroke-dasharray: none; stroke-linecap: round; stroke-linejoin: round; fill: none; "/>
</g>
<path d=" 
M54.7500,-4536.0000
L6.0000,-4536.0000
C2.7008,-4536.0000 0.0000,-4533.2993 0.0000,-4530.0000
L0.0000,-4463.2500
C0.0000,-4459.9507 2.7008,-4457.2500 6.0000,-4457.2500
L54.7500,-4457.2500
C58.0492,-4457.2500 60.7500,-4459.9507 60.7500,-4463.2500
L60.7500,-4530.0000
C60.7500,-4533.2993 58.0492,-4536.0000 54.7500,-4536.0000
Z
M2.2500,-4530.0000
C2.2500,-4532.0678 3.9322,-4533.7500 6.0000,-4533.7500
L54.7500,-4533.7500
C56.8185,-4533.7500 58.5000,-4532.0678 58.5000,-4530.0000
L58.5000,-4479.3750
C58.5000,-4476.2722 55.9763,-4473.7500 52.8750,-4473.7500
L7.8750,-4473.7500
C4.7737,-4473.7500 2.2500,-4476.2722 2.2500,-4479.3750
L2.2500,-4530.0000
Z
M54.7500,-4459.5000
L6.0000,-4459.5000
C3.9322,-4459.5000 2.2500,-4461.1815 2.2500,-4463.2500
L2.2500,-4476.3818
C3.3233,-4474.3710 5.4413,-4473.0000 7.8750,-4473.0000
L52.8750,-4473.0000
C55.3080,-4473.0000 57.4260,-4474.3710 58.5000,-4476.3818
L58.5000,-4463.2500
C58.5000,-4461.1815 56.8185,-4459.5000 54.7500,-4459.5000
Z
M11.2500,-4466.2500
C11.2500,-4465.0095 10.2427,-4464.0000 9.0000,-4464.0000
C9.8273,-4464.0000 10.5000,-4464.6735 10.5000,-4465.5000
C10.5000,-4466.3287 9.8280,-4467.0000 9.0000,-4467.0000
C8.1720,-4467.0000 7.5000,-4466.3287 7.5000,-4465.5000
C7.5000,-4464.6735 8.1720,-4464.0000 9.0000,-4464.0000
C7.7572,-4464.0000 6.7500,-4465.0095 6.7500,-4466.2500
C6.7500,-4467.4935 7.7572,-4468.5000 9.0000,-4468.5000
C10.2427,-4468.5000 11.2500,-4467.4935 11.2500,-4466.2500
Z
M51.0337,-4505.1382
L47.4675,-4508.9482
L49.6140,-4512.5258
C50.0888,-4513.3170 50.1983,-4514.2440 49.9155,-4515.0712
C49.6335,-4515.8985 48.9795,-4516.5652 48.1215,-4516.9012
L39.1470,-4520.4135
C39.1237,-4520.3595 39.1163,-4520.3017 39.0863,-4520.2500
L38.1923,-4518.6825
L38.3460,-4518.3112
L47.3017,-4514.8065
C47.5448,-4514.7113 47.7173,-4514.5470 47.7862,-4514.3453
C47.8538,-4514.1427 47.8177,-4513.9080 47.6835,-4513.6838
L45.3210,-4509.7463
C45.2655,-4509.7725 45.2122,-4509.8070 45.1567,-4509.8287
L39.0570,-4512.2437
L38.4825,-4512.0877
L38.1907,-4511.3858
L39.0855,-4509.8183
C39.0870,-4509.8160 39.0870,-4509.8138 39.0885,-4509.8115
L42.9000,-4508.3017
L30.3750,-4503.2918
L17.8470,-4508.3025
L21.6690,-4509.8153
C21.6735,-4509.8228 21.6757,-4509.8317 21.6810,-4509.8408
L22.5832,-4511.3438
L22.2570,-4512.1328
L21.7388,-4512.2625
L15.5917,-4509.8287
C15.5355,-4509.8070 15.4830,-4509.7725 15.4282,-4509.7463
L13.0650,-4513.6838
C12.9307,-4513.9080 12.8948,-4514.1427 12.9638,-4514.3453
C13.0320,-4514.5477 13.2045,-4514.7113 13.4483,-4514.8065
L22.4153,-4518.3158
L22.5832,-4518.7222
L21.6810,-4520.2283
C21.6458,-4520.2868 21.6187,-4520.3483 21.5918,-4520.4105
L12.6277,-4516.9012
C11.7683,-4516.5652 11.1150,-4515.8985 10.8323,-4515.0712
C10.5495,-4514.2440 10.6605,-4513.3170 11.1345,-4512.5258
L13.2825,-4508.9468
L9.7163,-4505.1390
C9.0570,-4504.4348 8.7810,-4503.5535 8.9602,-4502.7195
C9.1395,-4501.8855 9.7522,-4501.1947 10.6425,-4500.8235
L13.5000,-4499.6332
L13.5000,-4492.2818
C13.5000,-4491.0442 14.4405,-4489.6568 15.5895,-4489.1970
L28.2855,-4484.1292
C28.8600,-4483.8997 29.6182,-4483.7857 30.3750,-4483.7857
C31.1325,-4483.7857 31.8900,-4483.8997 32.4645,-4484.1292
L45.1605,-4489.1970
C46.3095,-4489.6568 47.2500,-4491.0442 47.2500,-4492.2818
L47.2500,-4499.6332
L50.1067,-4500.8227
C50.9962,-4501.1940 51.6097,-4501.8855 51.7882,-4502.7188
C51.9675,-4503.5527 51.6930,-4504.4355 51.0337,-4505.1382
Z
M11.1622,-4503.1912
C11.1450,-4503.2693 11.1885,-4503.4163 11.3588,-4503.6000
L14.6797,-4507.1453
L28.4310,-4501.6455
C28.2773,-4501.5368 28.1258,-4501.4213 27.9885,-4501.2840
L25.3395,-4498.6350
C24.7860,-4498.0822 23.6235,-4497.8505 22.9005,-4498.1528
L11.5087,-4502.9002
C11.2785,-4502.9963 11.1787,-4503.1133 11.1622,-4503.1912
Z
M16.4235,-4491.2873
C16.1280,-4491.4057 15.7500,-4491.9637 15.7500,-4492.2818
L15.7500,-4498.6950
L22.0350,-4496.0775
C22.5262,-4495.8720 23.0775,-4495.7752 23.6392,-4495.7752
C24.8535,-4495.7752 26.1165,-4496.2312 26.9310,-4497.0450
L29.5800,-4499.6940
C29.7023,-4499.8162 29.8470,-4499.8965 30.0008,-4499.9497
L30.0008,-4486.0500
C29.5995,-4486.0800 29.2920,-4486.1512 29.1195,-4486.2195
L16.4235,-4491.2873
Z
M45.0000,-4492.2818
C45.0000,-4491.9637 44.6220,-4491.4057 44.3265,-4491.2873
L31.6305,-4486.2188
C31.4588,-4486.1505 31.1505,-4486.0792 30.7500,-4486.0493
L30.7500,-4499.9497
C30.9045,-4499.8957 31.0493,-4499.8155 31.1708,-4499.6940
L33.8190,-4497.0450
C35.0115,-4495.8548 37.1618,-4495.4280 38.7142,-4496.0775
L45.0000,-4498.6950
L45.0000,-4492.2818
Z
M49.5892,-4503.1912
C49.5720,-4503.1133 49.4715,-4502.9955 49.2405,-4502.9002
L37.8487,-4498.1528
C37.1273,-4497.8505 35.9633,-4498.0822 35.4098,-4498.6350
L32.7615,-4501.2840
C32.6235,-4501.4213 32.4735,-4501.5368 32.3197,-4501.6455
L46.0725,-4507.1460
L49.3920,-4503.6007
C49.5630,-4503.4177 49.6058,-4503.2693 49.5892,-4503.1912
Z
M39.7298,-4513.7692
C39.9292,-4513.8240 40.0913,-4514.0370 40.0913,-4514.2440
L40.0913,-4515.8235
C40.0913,-4516.0297 39.9285,-4516.2435 39.7298,-4516.2982
L37.8742,-4516.8038
C37.6755,-4516.8585 37.4587,-4517.0633 37.3928,-4517.2582
L36.9105,-4518.4215
C36.8190,-4518.6060 36.8273,-4518.9037 36.9293,-4519.0830
L37.8825,-4520.7540
C37.9852,-4520.9333 37.9485,-4521.1987 37.8037,-4521.3450
L36.6863,-4522.4632
C36.5400,-4522.6095 36.2738,-4522.6447 36.0945,-4522.5420
L34.4250,-4521.5880
C34.2465,-4521.4860 33.9488,-4521.4770 33.7642,-4521.5692
L32.6003,-4522.0493
C32.4045,-4522.1152 32.2005,-4522.3313 32.1472,-4522.5307
L31.6403,-4524.3885
C31.5855,-4524.5873 31.3725,-4524.7500 31.1678,-4524.7500
L29.5845,-4524.7500
C29.3790,-4524.7500 29.1660,-4524.5873 29.1113,-4524.3885
L28.6058,-4522.5307
C28.5510,-4522.3320 28.3478,-4522.1145 28.1520,-4522.0485
L26.9303,-4521.5377
C26.7465,-4521.4440 26.4510,-4521.4552 26.2740,-4521.5617
L24.6510,-4522.5352
C24.4740,-4522.6410 24.2107,-4522.6088 24.0645,-4522.4625
L22.9463,-4521.3450
C22.8000,-4521.1987 22.7670,-4520.9355 22.8735,-4520.7585
L23.8478,-4519.1348
C23.9535,-4518.9578 23.9640,-4518.6623 23.8717,-4518.4785
L23.3408,-4517.1952
C23.2747,-4516.9995 23.0588,-4516.7985 22.8585,-4516.7482
L21.0218,-4516.2892
C20.8215,-4516.2397 20.6580,-4516.0297 20.6580,-4515.8235
L20.6580,-4514.2440
C20.6580,-4514.0378 20.8215,-4513.8278 21.0218,-4513.7783
L22.8585,-4513.3193
C23.0588,-4513.2690 23.2747,-4513.0680 23.3408,-4512.8723
L23.8717,-4511.5905
C23.9640,-4511.4060 23.9527,-4511.1105 23.8478,-4510.9335
L22.8735,-4509.3105
C22.7678,-4509.1335 22.8000,-4508.8687 22.9463,-4508.7240
L24.0645,-4507.6043
C24.2107,-4507.4580 24.4740,-4507.4265 24.6510,-4507.5315
L26.2740,-4508.5072
C26.4510,-4508.6130 26.7465,-4508.6235 26.9310,-4508.5312
L28.2120,-4507.9995
C28.4085,-4507.9350 28.6095,-4507.7182 28.6590,-4507.5180
L29.1180,-4505.6813
C29.1683,-4505.4810 29.3782,-4505.3175 29.5838,-4505.3175
L31.1670,-4505.3175
C31.3718,-4505.3175 31.5817,-4505.4810 31.6327,-4505.6813
L32.0902,-4507.5180
C32.1405,-4507.7182 32.3415,-4507.9343 32.5380,-4507.9995
L33.7628,-4508.4998
C33.9472,-4508.5913 34.2450,-4508.5823 34.4242,-4508.4802
L36.0952,-4507.5255
C36.2745,-4507.4235 36.5407,-4507.4587 36.6870,-4507.6043
L37.8045,-4508.7240
C37.9493,-4508.8687 37.9860,-4509.1350 37.8832,-4509.3142
L36.9300,-4510.9852
C36.8280,-4511.1645 36.8198,-4511.4622 36.9112,-4511.6467
L37.3935,-4512.8100
C37.4595,-4513.0057 37.6763,-4513.2097 37.8750,-4513.2645
L39.7298,-4513.7692
Z
M30.3750,-4510.5000
C27.8700,-4510.5000 25.8398,-4512.5302 25.8398,-4515.0337
C25.8398,-4517.5372 27.8700,-4519.5690 30.3750,-4519.5690
C32.8785,-4519.5690 34.9088,-4517.5380 34.9087,-4515.0337
C34.9088,-4512.5295 32.8785,-4510.5000 30.3750,-4510.5000
Z" 
style="fill-rule: evenodd; fill: #010101; "/>
<text x="0.0000" y="-4457.2500">
<tspan font-family="Arial Narrow" font-weight="bold" font-size="12.0000" fill="#000000" fill-opacity="1.0000" stroke-opacity="1.0000" >
</tspan>
<tspan font-family="Arial Narrow" font-weight="bold" font-size="12.0000" fill="#000000" fill-opacity="1.0000" stroke-opacity="1.0000" >
App on Server</tspan>
</text>
</svg>
