<?xml version="1.0" encoding="UTF-8" standalone="no"?>
<svg version="1.1" xmlns="http://www.w3.org/2000/svg" xmlns:xlink="http://www.w3.org/1999/xlink" width="1.0999in" height="1.0938in" viewBox="0 0 79.1895 78.7500" >
<g id="Layer1026" >
<path d=" 
M51.7500,-4509.0001
A24.6797,24.7500 180.0000 1,1 27.0703,-4533.7501
A24.6797,24.7500 180.0000 0,1 51.7500,-4509.0001
Z" 
style="stroke-width: 0.7200; stroke-linecap: round; stroke-linejoin: round; fill-rule: evenodd; fill: #ffffff; "/>
<path d=" 
M51.7500,-4509.0001
A24.6797,24.7500 180.0000 1,1 27.0703,-4533.7501
A24.6797,24.7500 180.0000 0,1 51.7500,-4509.0001
Z" 
style="stroke-width: 0.7200; stroke: #000000; stroke-dasharray: none; stroke-linecap: round; stroke-linejoin: round; fill: none; "/>
</g>
<path d=" 
M77.4315,-4464.9315
L54.9315,-4487.4315
C53.7570,-4488.6060 52.0987,-4488.9780 50.6003,-4488.5813
L47.6130,-4491.5685
C51.5947,-4496.2733 54.0000,-4502.3542 54.0000,-4509.0000
C54.0000,-4523.9115 41.9122,-4536.0000 27.0000,-4536.0000
C12.0885,-4536.0000 0.0000,-4523.9115 0.0000,-4509.0000
C0.0000,-4494.0877 12.0885,-4482.0000 27.0000,-4482.0000
C33.6457,-4482.0000 39.7267,-4484.4052 44.4308,-4488.3877
L47.4180,-4485.4005
C47.0220,-4483.9020 47.3932,-4482.2437 48.5677,-4481.0693
L71.0677,-4458.5693
C71.9460,-4457.6895 73.0987,-4457.2500 74.2500,-4457.2500
C75.4012,-4457.2500 76.5540,-4457.6895 77.4315,-4458.5685
C79.1895,-4460.3250 79.1895,-4463.1750 77.4315,-4464.9315
Z
M27.0000,-4486.5000
C14.5935,-4486.5000 4.5000,-4496.5935 4.5000,-4509.0000
C4.5000,-4521.4065 14.5935,-4531.5000 27.0000,-4531.5000
C39.4065,-4531.5000 49.5000,-4521.4065 49.5000,-4509.0000
C49.5000,-4496.5935 39.4065,-4486.5000 27.0000,-4486.5000
Z" 
style="fill-rule: evenodd; fill: #000000; "/>
<text x="0.0000" y="-4457.2500">
<tspan font-family="Arial Narrow" font-weight="bold" font-size="12.0000" fill="#000000" fill-opacity="1.0000" stroke-opacity="1.0000" >
Search</tspan>
</text>
</svg>
