<?xml version="1.0" encoding="UTF-8" standalone="no"?>
<svg version="1.1" xmlns="http://www.w3.org/2000/svg" xmlns:xlink="http://www.w3.org/1999/xlink" width="0.8438in" height="1.5625in" viewBox="0 0 60.7500 112.5000" >
<g id="Layer1105" >
<path d=" 
M54.7500,-4459.5001
C56.8185,-4459.5001 58.5000,-4461.1816 58.5000,-4463.2501
L58.5000,-4476.3811
C57.4260,-4474.3711 55.3080,-4473.0001 52.8750,-4473.0001
L7.8750,-4473.0001
C5.4413,-4473.0001 3.3240,-4474.3711 2.2500,-4476.3811
L2.2500,-4463.2501
C2.2500,-4461.1816 3.9323,-4459.5001 6.0000,-4459.5001
L11.2500,-4459.5001
L11.2500,-4427.2501
C11.2500,-4426.4371 11.9370,-4425.7501 12.7500,-4425.7501
L48.0000,-4425.7501
C48.8130,-4425.7501 49.5000,-4426.4371 49.5000,-4427.2501
L49.5000,-4459.5001
L54.7500,-4459.5001
Z
M52.8750,-4473.7501
C55.9763,-4473.7501 58.5000,-4476.2724 58.5000,-4479.3751
L58.5000,-4530.0001
C58.5000,-4532.0679 56.8185,-4533.7501 54.7500,-4533.7501
L6.0000,-4533.7501
C3.9323,-4533.7501 2.2500,-4532.0679 2.2500,-4530.0001
L2.2500,-4479.3751
C2.2500,-4476.2724 4.7738,-4473.7501 7.8750,-4473.7501
L52.8750,-4473.7501
Z" 
style="stroke-width: 0.7200; stroke-linecap: round; stroke-linejoin: round; fill-rule: evenodd; fill: #ffffff; "/>
<path d=" 
M54.7500,-4459.5001
C56.8185,-4459.5001 58.5000,-4461.1816 58.5000,-4463.2501
L58.5000,-4476.3811
C57.4260,-4474.3711 55.3080,-4473.0001 52.8750,-4473.0001
L7.8750,-4473.0001
C5.4413,-4473.0001 3.3240,-4474.3711 2.2500,-4476.3811
L2.2500,-4463.2501
C2.2500,-4461.1816 3.9323,-4459.5001 6.0000,-4459.5001
L11.2500,-4459.5001
L11.2500,-4427.2501
C11.2500,-4426.4371 11.9370,-4425.7501 12.7500,-4425.7501
L48.0000,-4425.7501
C48.8130,-4425.7501 49.5000,-4426.4371 49.5000,-4427.2501
L49.5000,-4459.5001
L54.7500,-4459.5001
Z
M52.8750,-4473.7501
C55.9763,-4473.7501 58.5000,-4476.2724 58.5000,-4479.3751
L58.5000,-4530.0001
C58.5000,-4532.0679 56.8185,-4533.7501 54.7500,-4533.7501
L6.0000,-4533.7501
C3.9323,-4533.7501 2.2500,-4532.0679 2.2500,-4530.0001
L2.2500,-4479.3751
C2.2500,-4476.2724 4.7738,-4473.7501 7.8750,-4473.7501
L52.8750,-4473.7501
Z" 
style="stroke-width: 0.7200; stroke: #ffffff; stroke-dasharray: none; stroke-linecap: round; stroke-linejoin: round; fill: none; "/>
</g>
<path d=" 
M24.7500,-4450.5000
L36.0000,-4450.5000
L36.0000,-4461.7500
L24.7500,-4461.7500
L24.7500,-4450.5000
Z" 
style="fill-rule: evenodd; fill: #070808; "/>
<path d=" 
M28.5000,-4428.7508
L32.2500,-4428.7508
L32.2500,-4432.5000
L28.5000,-4432.5000
L28.5000,-4428.7508
Z" 
style="fill-rule: evenodd; fill: #070808; "/>
<path d=" 
M14.2500,-4431.0008
L18.0000,-4431.0008
L18.0000,-4434.7500
L14.2500,-4434.7500
L14.2500,-4431.0008
Z" 
style="fill-rule: evenodd; fill: #070808; "/>
<path d=" 
M42.7500,-4431.0008
L46.5000,-4431.0008
L46.5000,-4434.7500
L42.7500,-4434.7500
L42.7500,-4431.0008
Z" 
style="fill-rule: evenodd; fill: #070808; "/>
<path d=" 
M29.2500,-4437.0000
L31.5000,-4437.0000
L31.5000,-4448.2500
L29.2500,-4448.2500
L29.2500,-4437.0000
Z" 
style="fill-rule: evenodd; fill: #070808; "/>
<path d=" 
M22.1707,-4437.3292
L20.5800,-4438.9200
L24.0195,-4442.3602
C24.3952,-4442.7360 24.7500,-4443.5940 24.7500,-4444.1258
L24.7500,-4448.2500
L27.0000,-4448.2500
L27.0000,-4444.1258
C27.0000,-4443.0045 26.4022,-4441.5615 25.6102,-4440.7695
L22.1707,-4437.3292
Z" 
style="fill-rule: evenodd; fill: #070808; "/>
<path d=" 
M38.5793,-4437.3292
L35.1398,-4440.7695
C34.3470,-4441.5615 33.7493,-4443.0037 33.7493,-4444.1258
L33.7493,-4448.2500
L35.9993,-4448.2500
L35.9993,-4444.1258
C35.9993,-4443.5940 36.3540,-4442.7360 36.7305,-4442.3602
L40.1700,-4438.9200
L38.5793,-4437.3292
Z" 
style="fill-rule: evenodd; fill: #070808; "/>
<path d=" 
M20.2500,-4441.5000
L20.2500,-4437.0000
L24.7500,-4437.0000
L20.2500,-4441.5000
Z" 
style="fill-rule: evenodd; fill: #000000; "/>
<path d=" 
M36.0000,-4437.0000
L40.5000,-4437.0000
L40.5000,-4441.5000
L36.0000,-4437.0000
Z" 
style="fill-rule: evenodd; fill: #000000; "/>
<path d=" 
M27.0000,-4438.1250
L30.3750,-4434.7500
L33.7500,-4438.1250
L27.0000,-4438.1250
Z" 
style="fill-rule: evenodd; fill: #000000; "/>
<path d=" 
M12.0375,-4518.0000
L6.7500,-4518.0000
L6.7500,-4515.7500
L11.4472,-4515.7500
C11.5815,-4516.5233 11.7802,-4517.2755 12.0375,-4518.0000
Z" 
style="fill-rule: evenodd; fill: #000000; "/>
<path d=" 
M6.7500,-4488.7500
L15.7500,-4488.7500
L15.7500,-4491.0000
L6.7500,-4491.0000
L6.7500,-4488.7500
Z" 
style="fill-rule: evenodd; fill: #000000; "/>
<path d=" 
M20.2500,-4488.7500
L38.2500,-4488.7500
L38.2500,-4491.0000
L20.2500,-4491.0000
L20.2500,-4488.7500
Z" 
style="fill-rule: evenodd; fill: #000000; "/>
<path d=" 
M6.7500,-4495.5000
L27.0000,-4495.5000
L27.0000,-4497.7500
L6.7500,-4497.7500
L6.7500,-4495.5000
Z" 
style="fill-rule: evenodd; fill: #000000; "/>
<path d=" 
M31.5000,-4495.5000
L36.3870,-4495.5000
L34.1370,-4497.7500
L31.5000,-4497.7500
L31.5000,-4495.5000
Z" 
style="fill-rule: evenodd; fill: #000000; "/>
<path d=" 
M48.1815,-4496.4315
C48.4642,-4496.1488 48.6855,-4495.8308 48.8775,-4495.5000
L54.0000,-4495.5000
L54.0000,-4497.7500
L46.8630,-4497.7500
L48.1815,-4496.4315
Z" 
style="fill-rule: evenodd; fill: #000000; "/>
<path d=" 
M14.7165,-4504.5000
L6.7500,-4504.5000
L6.7500,-4502.2500
L17.3040,-4502.2500
C16.3463,-4502.8860 15.4822,-4503.6472 14.7165,-4504.5000
Z" 
style="fill-rule: evenodd; fill: #000000; "/>
<path d=" 
M42.3630,-4502.2500
L54.0000,-4502.2500
L54.0000,-4504.5000
L40.1130,-4504.5000
L42.3630,-4502.2500
Z" 
style="fill-rule: evenodd; fill: #000000; "/>
<path d=" 
M42.7500,-4511.2500
L38.0520,-4511.2500
C37.9192,-4510.4760 37.7250,-4509.7230 37.4662,-4509.0000
L42.7500,-4509.0000
L42.7500,-4511.2500
Z" 
style="fill-rule: evenodd; fill: #000000; "/>
<path d=" 
M6.7500,-4509.0000
L9.0000,-4509.0000
L9.0000,-4511.2500
L6.7500,-4511.2500
L6.7500,-4509.0000
Z" 
style="fill-rule: evenodd; fill: #000000; "/>
<path d=" 
M47.2500,-4509.0000
L54.0000,-4509.0000
L54.0000,-4511.2500
L47.2500,-4511.2500
L47.2500,-4509.0000
Z" 
style="fill-rule: evenodd; fill: #000000; "/>
<path d=" 
M51.7500,-4488.7500
L54.0000,-4488.7500
L54.0000,-4491.0000
L51.7500,-4491.0000
L51.7500,-4488.7500
Z" 
style="fill-rule: evenodd; fill: #000000; "/>
<path d=" 
M40.5000,-4515.7500
L54.0000,-4515.7500
L54.0000,-4518.0000
L40.5000,-4518.0000
L40.5000,-4515.7500
Z" 
style="fill-rule: evenodd; fill: #000000; "/>
<path d=" 
M46.5907,-4494.8408
L37.5908,-4503.8407
C37.0043,-4504.4280 36.1740,-4504.6140 35.4248,-4504.4160
L33.4590,-4506.3817
C35.0468,-4508.3212 36.0000,-4510.7985 36.0000,-4513.5000
C36.0000,-4519.7130 30.9623,-4524.7500 24.7500,-4524.7500
C18.5370,-4524.7500 13.5000,-4519.7130 13.5000,-4513.5000
C13.5000,-4507.2870 18.5370,-4502.2500 24.7500,-4502.2500
C27.4515,-4502.2500 29.9288,-4503.2040 31.8683,-4504.7910
L33.8340,-4502.8253
C33.6353,-4502.0760 33.8212,-4501.2473 34.4093,-4500.6593
L43.4093,-4491.6592
C43.8487,-4491.2198 44.4240,-4491.0000 45.0000,-4491.0000
C45.5760,-4491.0000 46.1512,-4491.2198 46.5907,-4491.6592
C47.4698,-4492.5382 47.4698,-4493.9618 46.5907,-4494.8408
Z
M15.7500,-4513.5000
C15.7500,-4518.4628 19.7873,-4522.5000 24.7500,-4522.5000
C29.7128,-4522.5000 33.7500,-4518.4628 33.7500,-4513.5000
C33.7500,-4508.5372 29.7128,-4504.5000 24.7500,-4504.5000
C19.7873,-4504.5000 15.7500,-4508.5372 15.7500,-4513.5000
Z" 
style="fill-rule: evenodd; fill: #000000; "/>
<path d=" 
M20.2500,-4511.2500
L20.2500,-4506.7500
L29.4788,-4506.7500
C31.0095,-4507.8255 32.1563,-4509.4065 32.6805,-4511.2500
L20.2500,-4511.2500
Z" 
style="fill-rule: evenodd; fill: #000000; "/>
<path d=" 
M27.0000,-4515.7500
L27.0000,-4520.2500
L20.0213,-4520.2500
C18.4905,-4519.1745 17.3438,-4517.5935 16.8195,-4515.7500
L27.0000,-4515.7500
Z" 
style="fill-rule: evenodd; fill: #000000; "/>
<path d=" 
M54.7500,-4536.0000
L6.0000,-4536.0000
C2.7008,-4536.0000 0.0000,-4533.2992 0.0000,-4530.0000
L0.0000,-4463.2500
C0.0000,-4459.9515 2.7008,-4457.2500 6.0000,-4457.2500
L9.0000,-4457.2500
L9.0000,-4427.2508
C9.0000,-4425.1875 10.6875,-4423.5000 12.7500,-4423.5000
L48.0000,-4423.5000
C50.0625,-4423.5000 51.7500,-4425.1875 51.7500,-4427.2508
L51.7500,-4457.2500
L54.7500,-4457.2500
C58.0492,-4457.2500 60.7500,-4459.9515 60.7500,-4463.2500
L60.7500,-4530.0000
C60.7500,-4533.2992 58.0492,-4536.0000 54.7500,-4536.0000
Z
M49.5000,-4427.2508
C49.5000,-4426.4378 48.8130,-4425.7500 48.0000,-4425.7500
L12.7500,-4425.7500
C11.9370,-4425.7500 11.2500,-4426.4378 11.2500,-4427.2508
L11.2500,-4462.5007
C11.2500,-4463.3138 11.9370,-4464.0000 12.7500,-4464.0000
L48.0000,-4464.0000
C48.8130,-4464.0000 49.5000,-4463.3138 49.5000,-4462.5007
L49.5000,-4427.2508
Z
M58.5000,-4463.2500
C58.5000,-4461.1822 56.8185,-4459.5000 54.7500,-4459.5000
L51.7500,-4459.5000
L51.7500,-4462.5007
C51.7500,-4464.5625 50.0625,-4466.2500 48.0000,-4466.2500
L12.7500,-4466.2500
C10.6875,-4466.2500 9.0000,-4464.5625 9.0000,-4462.5007
L9.0000,-4459.5000
L6.0000,-4459.5000
C3.9322,-4459.5000 2.2500,-4461.1822 2.2500,-4463.2500
L2.2500,-4476.3810
C3.3240,-4474.3717 5.4413,-4473.0000 7.8750,-4473.0000
L52.8750,-4473.0000
C55.3080,-4473.0000 57.4260,-4474.3717 58.5000,-4476.3810
L58.5000,-4463.2500
Z
M58.5000,-4479.3757
C58.5000,-4476.2730 55.9763,-4473.7507 52.8750,-4473.7507
L7.8750,-4473.7507
C4.7737,-4473.7507 2.2500,-4476.2730 2.2500,-4479.3757
L2.2500,-4530.0000
C2.2500,-4532.0678 3.9322,-4533.7500 6.0000,-4533.7500
L54.7500,-4533.7500
C56.8185,-4533.7500 58.5000,-4532.0678 58.5000,-4530.0000
L58.5000,-4479.3757
Z" 
style="fill-rule: evenodd; fill: #000000; "/>
<text x="-23.4207" y="-4423.5000">
<tspan font-family="Arial Narrow" font-weight="bold" font-size="12.0000" fill="#000000" fill-opacity="1.0000" stroke-opacity="1.0000" >
Search Head With Load Balancer</tspan>
</text>
</svg>
