<?xml version="1.0" encoding="UTF-8" standalone="no"?>
<svg version="1.1" xmlns="http://www.w3.org/2000/svg" xmlns:xlink="http://www.w3.org/1999/xlink" width="0.8438in" height="1.0938in" viewBox="0 0 60.7500 78.7500" >
<g id="Layer1068" >
<path d=" 
M6.0000,-4533.7499
C3.9322,-4533.7499 2.2500,-4532.0676 2.2500,-4529.9999
L2.2500,-4479.3749
C2.2500,-4476.2721 4.7737,-4473.7499 7.8750,-4473.7499
L52.8750,-4473.7499
C55.9762,-4473.7499 58.5000,-4476.2721 58.5000,-4479.3749
L58.5000,-4529.9999
C58.5000,-4532.0676 56.8185,-4533.7499 54.7500,-4533.7499
L6.0000,-4533.7499
Z
M54.7500,-4459.4999
C56.8185,-4459.4999 58.5000,-4461.1814 58.5000,-4463.2499
L58.5000,-4476.3809
C57.4260,-4474.3709 55.3080,-4472.9999 52.8750,-4472.9999
L7.8750,-4472.9999
C5.4412,-4472.9999 3.3240,-4474.3709 2.2500,-4476.3809
L2.2500,-4463.2499
C2.2500,-4461.1814 3.9322,-4459.4999 6.0000,-4459.4999
L54.7500,-4459.4999
Z" 
style="stroke-width: 0.7200; stroke-linecap: round; stroke-linejoin: round; fill-rule: evenodd; fill: #ffffff; "/>
<path d=" 
M6.0000,-4533.7499
C3.9322,-4533.7499 2.2500,-4532.0676 2.2500,-4529.9999
L2.2500,-4479.3749
C2.2500,-4476.2721 4.7737,-4473.7499 7.8750,-4473.7499
L52.8750,-4473.7499
C55.9762,-4473.7499 58.5000,-4476.2721 58.5000,-4479.3749
L58.5000,-4529.9999
C58.5000,-4532.0676 56.8185,-4533.7499 54.7500,-4533.7499
L6.0000,-4533.7499
Z
M54.7500,-4459.4999
C56.8185,-4459.4999 58.5000,-4461.1814 58.5000,-4463.2499
L58.5000,-4476.3809
C57.4260,-4474.3709 55.3080,-4472.9999 52.8750,-4472.9999
L7.8750,-4472.9999
C5.4412,-4472.9999 3.3240,-4474.3709 2.2500,-4476.3809
L2.2500,-4463.2499
C2.2500,-4461.1814 3.9322,-4459.4999 6.0000,-4459.4999
L54.7500,-4459.4999
Z" 
style="stroke-width: 0.7200; stroke: #ffffff; stroke-dasharray: none; stroke-linecap: round; stroke-linejoin: round; fill: none; "/>
</g>
<path d=" 
M54.7500,-4536.0000
L6.0000,-4536.0000
C2.7008,-4536.0000 0.0000,-4533.2993 0.0000,-4530.0000
L0.0000,-4463.2500
C0.0000,-4459.9507 2.7008,-4457.2500 6.0000,-4457.2500
L54.7500,-4457.2500
C58.0492,-4457.2500 60.7500,-4459.9507 60.7500,-4463.2500
L60.7500,-4530.0000
C60.7500,-4533.2993 58.0492,-4536.0000 54.7500,-4536.0000
Z
M2.2500,-4530.0000
C2.2500,-4532.0678 3.9322,-4533.7500 6.0000,-4533.7500
L54.7500,-4533.7500
C56.8185,-4533.7500 58.5000,-4532.0678 58.5000,-4530.0000
L58.5000,-4479.3750
C58.5000,-4476.2722 55.9763,-4473.7500 52.8750,-4473.7500
L7.8750,-4473.7500
C4.7737,-4473.7500 2.2500,-4476.2722 2.2500,-4479.3750
L2.2500,-4530.0000
Z
M54.7500,-4459.5000
L6.0000,-4459.5000
C3.9322,-4459.5000 2.2500,-4461.1815 2.2500,-4463.2500
L2.2500,-4476.3810
C3.3240,-4474.3710 5.4413,-4473.0000 7.8750,-4473.0000
L52.8750,-4473.0000
C55.3080,-4473.0000 57.4260,-4474.3710 58.5000,-4476.3810
L58.5000,-4463.2500
C58.5000,-4461.1815 56.8185,-4459.5000 54.7500,-4459.5000
Z" 
style="fill-rule: evenodd; fill: #000000; "/>
<path d=" 
M9.0000,-4468.5000
C7.7573,-4468.5000 6.7500,-4467.4920 6.7500,-4466.2500
C6.7500,-4465.0080 7.7573,-4464.0000 9.0000,-4464.0000
C8.1728,-4464.0000 7.5000,-4464.6720 7.5000,-4465.5000
C7.5000,-4466.3280 8.1720,-4467.0000 9.0000,-4467.0000
C9.8280,-4467.0000 10.5000,-4466.3280 10.5000,-4465.5000
C10.5000,-4464.6720 9.8280,-4464.0000 9.0000,-4464.0000
C10.2428,-4464.0000 11.2500,-4465.0080 11.2500,-4466.2500
C11.2500,-4467.4920 10.2428,-4468.5000 9.0000,-4468.5000
Z" 
style="fill-rule: evenodd; fill: #000000; "/>
<path d=" 
M12.0375,-4518.0000
L6.7500,-4518.0000
L6.7500,-4515.7500
L11.4472,-4515.7500
C11.5815,-4516.5233 11.7802,-4517.2755 12.0375,-4518.0000
Z" 
style="fill-rule: evenodd; fill: #000000; "/>
<path d=" 
M6.7500,-4488.7500
L15.7500,-4488.7500
L15.7500,-4491.0000
L6.7500,-4491.0000
L6.7500,-4488.7500
Z" 
style="fill-rule: evenodd; fill: #000000; "/>
<path d=" 
M20.2500,-4488.7500
L38.2500,-4488.7500
L38.2500,-4491.0000
L20.2500,-4491.0000
L20.2500,-4488.7500
Z" 
style="fill-rule: evenodd; fill: #000000; "/>
<path d=" 
M6.7500,-4495.5000
L27.0000,-4495.5000
L27.0000,-4497.7500
L6.7500,-4497.7500
L6.7500,-4495.5000
Z" 
style="fill-rule: evenodd; fill: #000000; "/>
<path d=" 
M31.5000,-4495.5000
L36.3870,-4495.5000
L34.1370,-4497.7500
L31.5000,-4497.7500
L31.5000,-4495.5000
Z" 
style="fill-rule: evenodd; fill: #000000; "/>
<path d=" 
M48.1815,-4496.4315
C48.4642,-4496.1488 48.6855,-4495.8308 48.8775,-4495.5000
L54.0000,-4495.5000
L54.0000,-4497.7500
L46.8630,-4497.7500
L48.1815,-4496.4315
Z" 
style="fill-rule: evenodd; fill: #000000; "/>
<path d=" 
M14.7165,-4504.5000
L6.7500,-4504.5000
L6.7500,-4502.2500
L17.3040,-4502.2500
C16.3463,-4502.8860 15.4822,-4503.6472 14.7165,-4504.5000
Z" 
style="fill-rule: evenodd; fill: #000000; "/>
<path d=" 
M42.3630,-4502.2500
L54.0000,-4502.2500
L54.0000,-4504.5000
L40.1130,-4504.5000
L42.3630,-4502.2500
Z" 
style="fill-rule: evenodd; fill: #000000; "/>
<path d=" 
M42.7500,-4511.2500
L38.0520,-4511.2500
C37.9192,-4510.4760 37.7250,-4509.7230 37.4662,-4509.0000
L42.7500,-4509.0000
L42.7500,-4511.2500
Z" 
style="fill-rule: evenodd; fill: #000000; "/>
<path d=" 
M6.7500,-4509.0000
L9.0000,-4509.0000
L9.0000,-4511.2500
L6.7500,-4511.2500
L6.7500,-4509.0000
Z" 
style="fill-rule: evenodd; fill: #000000; "/>
<path d=" 
M47.2500,-4509.0000
L54.0000,-4509.0000
L54.0000,-4511.2500
L47.2500,-4511.2500
L47.2500,-4509.0000
Z" 
style="fill-rule: evenodd; fill: #000000; "/>
<path d=" 
M51.7500,-4488.7500
L54.0000,-4488.7500
L54.0000,-4491.0000
L51.7500,-4491.0000
L51.7500,-4488.7500
Z" 
style="fill-rule: evenodd; fill: #000000; "/>
<path d=" 
M40.5000,-4515.7500
L54.0000,-4515.7500
L54.0000,-4518.0000
L40.5000,-4518.0000
L40.5000,-4515.7500
Z" 
style="fill-rule: evenodd; fill: #000000; "/>
<path d=" 
M46.5907,-4494.8407
L37.5908,-4503.8407
C37.0043,-4504.4280 36.1740,-4504.6140 35.4248,-4504.4160
L33.4590,-4506.3817
C35.0468,-4508.3212 36.0000,-4510.7985 36.0000,-4513.5000
C36.0000,-4519.7130 30.9623,-4524.7500 24.7500,-4524.7500
C18.5370,-4524.7500 13.5000,-4519.7130 13.5000,-4513.5000
C13.5000,-4507.2870 18.5370,-4502.2500 24.7500,-4502.2500
C27.4515,-4502.2500 29.9288,-4503.2040 31.8683,-4504.7910
L33.8340,-4502.8252
C33.6353,-4502.0760 33.8212,-4501.2472 34.4093,-4500.6592
L43.4093,-4491.6592
C43.8487,-4491.2198 44.4240,-4491.0000 45.0000,-4491.0000
C45.5760,-4491.0000 46.1512,-4491.2198 46.5907,-4491.6592
C47.4698,-4492.5382 47.4698,-4493.9617 46.5907,-4494.8407
Z
M15.7500,-4513.5000
C15.7500,-4518.4627 19.7873,-4522.5000 24.7500,-4522.5000
C29.7128,-4522.5000 33.7500,-4518.4627 33.7500,-4513.5000
C33.7500,-4508.5372 29.7128,-4504.5000 24.7500,-4504.5000
C19.7873,-4504.5000 15.7500,-4508.5372 15.7500,-4513.5000
Z" 
style="fill-rule: evenodd; fill: #000000; "/>
<path d=" 
M20.2500,-4511.2500
L20.2500,-4506.7500
L29.4788,-4506.7500
C31.0095,-4507.8255 32.1563,-4509.4065 32.6805,-4511.2500
L20.2500,-4511.2500
Z" 
style="fill-rule: evenodd; fill: #000000; "/>
<path d=" 
M27.0000,-4515.7500
L27.0000,-4520.2500
L20.0213,-4520.2500
C18.4905,-4519.1745 17.3438,-4517.5935 16.8195,-4515.7500
L27.0000,-4515.7500
Z" 
style="fill-rule: evenodd; fill: #000000; "/>
<text x="0.0000" y="-4457.2500">
<tspan font-family="Arial Narrow" font-weight="bold" font-size="12.0000" fill="#000000" fill-opacity="1.0000" stroke-opacity="1.0000" >
Search Head</tspan>
</text>
</svg>
