<?xml version="1.0" encoding="UTF-8" standalone="no"?>
<svg version="1.1" xmlns="http://www.w3.org/2000/svg" xmlns:xlink="http://www.w3.org/1999/xlink" width="0.9375in" height="1.1875in" viewBox="0 0 67.5000 85.5000" >
<g id="Layer1069" >
<path d=" 
M61.5000,-4459.5001
C63.5685,-4459.5001 65.2500,-4461.1816 65.2500,-4463.2501
L65.2500,-4476.3811
C64.1760,-4474.3711 62.0580,-4473.0001 59.6250,-4473.0001
L58.5000,-4473.0001
L58.5000,-4473.7501
L59.6250,-4473.7501
C62.7263,-4473.7501 65.2500,-4476.2724 65.2500,-4479.3751
L65.2500,-4530.0001
C65.2500,-4532.0679 63.5685,-4533.7501 61.5000,-4533.7501
L12.7500,-4533.7501
C10.6823,-4533.7501 9.0000,-4532.0679 9.0000,-4530.0001
L9.0000,-4527.0001
L6.0000,-4527.0001
C3.9323,-4527.0001 2.2500,-4525.3179 2.2500,-4523.2501
L2.2500,-4472.6251
C2.2500,-4469.5224 4.7738,-4467.0001 7.8750,-4467.0001
L9.0000,-4467.0001
L9.0000,-4466.2501
L7.8750,-4466.2501
C5.4413,-4466.2501 3.3240,-4467.6211 2.2500,-4469.6311
L2.2500,-4456.5001
C2.2500,-4454.4316 3.9323,-4452.7501 6.0000,-4452.7501
L54.7500,-4452.7501
C56.8185,-4452.7501 58.5000,-4454.4316 58.5000,-4456.5001
L58.5000,-4459.5001
L61.5000,-4459.5001
Z" 
style="stroke-width: 0.7200; stroke-linecap: round; stroke-linejoin: round; fill-rule: evenodd; fill: #ffffff; "/>
<path d=" 
M61.5000,-4459.5001
C63.5685,-4459.5001 65.2500,-4461.1816 65.2500,-4463.2501
L65.2500,-4476.3811
C64.1760,-4474.3711 62.0580,-4473.0001 59.6250,-4473.0001
L58.5000,-4473.0001
L58.5000,-4473.7501
L59.6250,-4473.7501
C62.7263,-4473.7501 65.2500,-4476.2724 65.2500,-4479.3751
L65.2500,-4530.0001
C65.2500,-4532.0679 63.5685,-4533.7501 61.5000,-4533.7501
L12.7500,-4533.7501
C10.6823,-4533.7501 9.0000,-4532.0679 9.0000,-4530.0001
L9.0000,-4527.0001
L6.0000,-4527.0001
C3.9323,-4527.0001 2.2500,-4525.3179 2.2500,-4523.2501
L2.2500,-4472.6251
C2.2500,-4469.5224 4.7738,-4467.0001 7.8750,-4467.0001
L9.0000,-4467.0001
L9.0000,-4466.2501
L7.8750,-4466.2501
C5.4413,-4466.2501 3.3240,-4467.6211 2.2500,-4469.6311
L2.2500,-4456.5001
C2.2500,-4454.4316 3.9323,-4452.7501 6.0000,-4452.7501
L54.7500,-4452.7501
C56.8185,-4452.7501 58.5000,-4454.4316 58.5000,-4456.5001
L58.5000,-4459.5001
L61.5000,-4459.5001
Z" 
style="stroke-width: 0.7200; stroke: #ffffff; stroke-dasharray: none; stroke-linecap: round; stroke-linejoin: round; fill: none; "/>
</g>
<path d=" 
M9.0000,-4461.7500
C7.7572,-4461.7500 6.7500,-4460.7420 6.7500,-4459.5000
C6.7500,-4458.2580 7.7572,-4457.2500 9.0000,-4457.2500
C8.1727,-4457.2500 7.5000,-4457.9220 7.5000,-4458.7500
C7.5000,-4459.5780 8.1720,-4460.2500 9.0000,-4460.2500
C9.8280,-4460.2500 10.5000,-4459.5780 10.5000,-4458.7500
C10.5000,-4457.9220 9.8280,-4457.2500 9.0000,-4457.2500
C10.2427,-4457.2500 11.2500,-4458.2580 11.2500,-4459.5000
C11.2500,-4460.7420 10.2427,-4461.7500 9.0000,-4461.7500
Z" 
style="fill-rule: evenodd; fill: #000000; "/>
<path d=" 
M12.0375,-4511.2500
L6.7500,-4511.2500
L6.7500,-4509.0000
L11.4472,-4509.0000
C11.5815,-4509.7733 11.7802,-4510.5255 12.0375,-4511.2500
Z" 
style="fill-rule: evenodd; fill: #000000; "/>
<path d=" 
M6.7500,-4482.0000
L15.7500,-4482.0000
L15.7500,-4484.2500
L6.7500,-4484.2500
L6.7500,-4482.0000
Z" 
style="fill-rule: evenodd; fill: #000000; "/>
<path d=" 
M20.2500,-4482.0000
L38.2500,-4482.0000
L38.2500,-4484.2500
L20.2500,-4484.2500
L20.2500,-4482.0000
Z" 
style="fill-rule: evenodd; fill: #000000; "/>
<path d=" 
M6.7500,-4488.7500
L27.0000,-4488.7500
L27.0000,-4491.0000
L6.7500,-4491.0000
L6.7500,-4488.7500
Z" 
style="fill-rule: evenodd; fill: #000000; "/>
<path d=" 
M31.5000,-4488.7500
L36.3870,-4488.7500
L34.1370,-4491.0000
L31.5000,-4491.0000
L31.5000,-4488.7500
Z" 
style="fill-rule: evenodd; fill: #000000; "/>
<path d=" 
M48.1815,-4489.6815
C48.4642,-4489.3988 48.6855,-4489.0808 48.8775,-4488.7500
L54.0000,-4488.7500
L54.0000,-4491.0000
L46.8630,-4491.0000
L48.1815,-4489.6815
Z" 
style="fill-rule: evenodd; fill: #000000; "/>
<path d=" 
M14.7165,-4497.7500
L6.7500,-4497.7500
L6.7500,-4495.5000
L17.3040,-4495.5000
C16.3463,-4496.1360 15.4822,-4496.8972 14.7165,-4497.7500
Z" 
style="fill-rule: evenodd; fill: #000000; "/>
<path d=" 
M42.3630,-4495.5000
L54.0000,-4495.5000
L54.0000,-4497.7500
L40.1130,-4497.7500
L42.3630,-4495.5000
Z" 
style="fill-rule: evenodd; fill: #000000; "/>
<path d=" 
M42.7500,-4504.5000
L38.0520,-4504.5000
C37.9192,-4503.7260 37.7250,-4502.9730 37.4662,-4502.2500
L42.7500,-4502.2500
L42.7500,-4504.5000
Z" 
style="fill-rule: evenodd; fill: #000000; "/>
<path d=" 
M6.7500,-4502.2500
L9.0000,-4502.2500
L9.0000,-4504.5000
L6.7500,-4504.5000
L6.7500,-4502.2500
Z" 
style="fill-rule: evenodd; fill: #000000; "/>
<path d=" 
M47.2500,-4502.2500
L54.0000,-4502.2500
L54.0000,-4504.5000
L47.2500,-4504.5000
L47.2500,-4502.2500
Z" 
style="fill-rule: evenodd; fill: #000000; "/>
<path d=" 
M51.7500,-4482.0000
L54.0000,-4482.0000
L54.0000,-4484.2500
L51.7500,-4484.2500
L51.7500,-4482.0000
Z" 
style="fill-rule: evenodd; fill: #000000; "/>
<path d=" 
M40.5000,-4509.0000
L54.0000,-4509.0000
L54.0000,-4511.2500
L40.5000,-4511.2500
L40.5000,-4509.0000
Z" 
style="fill-rule: evenodd; fill: #000000; "/>
<path d=" 
M46.5908,-4488.0907
L37.5908,-4497.0907
C37.0043,-4497.6780 36.1740,-4497.8640 35.4248,-4497.6660
L33.4590,-4499.6317
C35.0468,-4501.5712 36.0000,-4504.0485 36.0000,-4506.7500
C36.0000,-4512.9630 30.9630,-4518.0000 24.7500,-4518.0000
C18.5370,-4518.0000 13.5000,-4512.9630 13.5000,-4506.7500
C13.5000,-4500.5370 18.5370,-4495.5000 24.7500,-4495.5000
C27.4515,-4495.5000 29.9288,-4496.4540 31.8683,-4498.0410
L33.8340,-4496.0752
C33.6360,-4495.3260 33.8213,-4494.4972 34.4093,-4493.9092
L43.4093,-4484.9092
C43.8488,-4484.4698 44.4240,-4484.2500 45.0000,-4484.2500
C45.5760,-4484.2500 46.1513,-4484.4698 46.5908,-4484.9092
C47.4698,-4485.7882 47.4698,-4487.2117 46.5908,-4488.0907
Z
M15.7500,-4506.7500
C15.7500,-4511.7127 19.7873,-4515.7500 24.7500,-4515.7500
C29.7128,-4515.7500 33.7500,-4511.7127 33.7500,-4506.7500
C33.7500,-4501.7872 29.7128,-4497.7500 24.7500,-4497.7500
C19.7873,-4497.7500 15.7500,-4501.7872 15.7500,-4506.7500
Z" 
style="fill-rule: evenodd; fill: #000000; "/>
<path d=" 
M20.2500,-4504.5000
L20.2500,-4500.0000
L29.4788,-4500.0000
C31.0095,-4501.0755 32.1563,-4502.6565 32.6805,-4504.5000
L20.2500,-4504.5000
Z" 
style="fill-rule: evenodd; fill: #000000; "/>
<path d=" 
M27.0000,-4509.0000
L27.0000,-4513.5000
L20.0213,-4513.5000
C18.4905,-4512.4245 17.3438,-4510.8435 16.8195,-4509.0000
L27.0000,-4509.0000
Z" 
style="fill-rule: evenodd; fill: #000000; "/>
<path d=" 
M61.5000,-4536.0000
L12.7500,-4536.0000
C9.4507,-4536.0000 6.7500,-4533.2992 6.7500,-4530.0000
L6.7500,-4529.2500
L6.0000,-4529.2500
C2.7007,-4529.2500 0.0000,-4526.5493 0.0000,-4523.2500
L0.0000,-4456.5000
C0.0000,-4453.2007 2.7007,-4450.5000 6.0000,-4450.5000
L54.7500,-4450.5000
C58.0493,-4450.5000 60.7500,-4453.2007 60.7500,-4456.5000
L60.7500,-4457.2500
L61.5000,-4457.2500
C64.7993,-4457.2500 67.5000,-4459.9507 67.5000,-4463.2500
L67.5000,-4530.0000
C67.5000,-4533.2992 64.7993,-4536.0000 61.5000,-4536.0000
Z
M58.5000,-4456.5000
C58.5000,-4454.4315 56.8185,-4452.7500 54.7500,-4452.7500
L6.0000,-4452.7500
C3.9323,-4452.7500 2.2500,-4454.4315 2.2500,-4456.5000
L2.2500,-4469.6310
C3.3240,-4467.6210 5.4412,-4466.2500 7.8750,-4466.2500
L52.8750,-4466.2500
C55.3080,-4466.2500 57.4260,-4467.6210 58.5000,-4469.6310
L58.5000,-4456.5000
Z
M58.5000,-4472.6250
C58.5000,-4469.5222 55.9763,-4467.0000 52.8750,-4467.0000
L7.8750,-4467.0000
C4.7737,-4467.0000 2.2500,-4469.5222 2.2500,-4472.6250
L2.2500,-4523.2500
C2.2500,-4525.3178 3.9323,-4527.0000 6.0000,-4527.0000
L54.7500,-4527.0000
C56.8185,-4527.0000 58.5000,-4525.3178 58.5000,-4523.2500
L58.5000,-4472.6250
Z
M65.2500,-4463.2500
C65.2500,-4461.1815 63.5685,-4459.5000 61.5000,-4459.5000
L60.7500,-4459.5000
L60.7500,-4473.1110
C62.6985,-4473.4613 64.3463,-4474.6890 65.2500,-4476.3803
L65.2500,-4463.2500
Z
M65.2500,-4479.3750
C65.2500,-4476.6578 63.3143,-4474.3860 60.7500,-4473.8633
L60.7500,-4523.2500
C60.7500,-4526.5493 58.0493,-4529.2500 54.7500,-4529.2500
L9.0000,-4529.2500
L9.0000,-4530.0000
C9.0000,-4532.0678 10.6823,-4533.7500 12.7500,-4533.7500
L61.5000,-4533.7500
C63.5685,-4533.7500 65.2500,-4532.0678 65.2500,-4530.0000
L65.2500,-4479.3750
Z" 
style="fill-rule: evenodd; fill: #000000; "/>
<text x="0.0000" y="-4450.5000">
<tspan font-family="Arial Narrow" font-weight="bold" font-size="12.0000" fill="#000000" fill-opacity="1.0000" stroke-opacity="1.0000" >
Search Heads</tspan>
</text>
</svg>
