<?xml version="1.0" encoding="UTF-8" standalone="no"?>
<svg version="1.1" xmlns="http://www.w3.org/2000/svg" xmlns:xlink="http://www.w3.org/1999/xlink" width="1.4062in" height="1.4688in" viewBox="0 0 101.2500 105.7500" >
<g id="Layer1137" >
<path d=" 
M2.2553,-4435.1720
C2.3601,-4433.1967 3.9997,-4431.6230 6.0000,-4431.6230
L96.3750,-4431.6230
C98.4435,-4431.6230 100.1250,-4433.3045 100.1250,-4435.3730
L100.1250,-4448.5040
C99.9985,-4448.2672 99.8574,-4448.0393 99.7031,-4447.8214
L99.7031,-4449.3602
C99.9750,-4450.0195 100.1250,-4450.7415 100.1250,-4451.4980
L100.1250,-4531.3730
C100.1250,-4533.4408 98.4435,-4535.1230 96.3750,-4535.1230
L6.0000,-4535.1230
C4.2175,-4535.1230 2.7214,-4533.8729 2.3426,-4532.2033
L1.6470,-4532.2033
L1.6470,-4525.3126
L1.6780,-4525.3126
L1.6780,-4435.1720
L2.2553,-4435.1720
Z" 
style="stroke-width: 0.7200; stroke-linecap: round; stroke-linejoin: round; fill-rule: evenodd; fill: #ffffff; "/>
<path d=" 
M2.2553,-4435.1720
C2.3601,-4433.1967 3.9997,-4431.6230 6.0000,-4431.6230
L96.3750,-4431.6230
C98.4435,-4431.6230 100.1250,-4433.3045 100.1250,-4435.3730
L100.1250,-4448.5040
C99.9985,-4448.2672 99.8574,-4448.0393 99.7031,-4447.8214
L99.7031,-4449.3602
C99.9750,-4450.0195 100.1250,-4450.7415 100.1250,-4451.4980
L100.1250,-4531.3730
C100.1250,-4533.4408 98.4435,-4535.1230 96.3750,-4535.1230
L6.0000,-4535.1230
C4.2175,-4535.1230 2.7214,-4533.8729 2.3426,-4532.2033
L1.6470,-4532.2033
L1.6470,-4525.3126
L1.6780,-4525.3126
L1.6780,-4435.1720
L2.2553,-4435.1720
Z" 
style="stroke-width: 0.7200; stroke: #ffffff; stroke-dasharray: none; stroke-linecap: round; stroke-linejoin: round; fill: none; "/>
</g>
<path d=" 
M95.2500,-4536.0000
L81.0000,-4536.0000
L81.0000,-4534.5000
L95.2500,-4534.5000
C97.7317,-4534.5000 99.7500,-4532.4817 99.7500,-4530.0000
L99.7500,-4436.2500
C99.7500,-4433.7683 97.7317,-4431.7500 95.2500,-4431.7500
L6.0000,-4431.7500
C3.5182,-4431.7500 1.5000,-4433.7683 1.5000,-4436.2500
L1.5000,-4530.0000
C1.5000,-4532.4817 3.5182,-4534.5000 6.0000,-4534.5000
L20.2500,-4534.5000
L20.2500,-4536.0000
L6.0000,-4536.0000
C2.7000,-4536.0000 0.0000,-4533.3000 0.0000,-4530.0000
L0.0000,-4436.2500
C0.0000,-4432.9500 2.7000,-4430.2500 6.0000,-4430.2500
L95.2500,-4430.2500
C98.5500,-4430.2500 101.2500,-4432.9500 101.2500,-4436.2500
L101.2500,-4530.0000
C101.2500,-4533.3000 98.5500,-4536.0000 95.2500,-4536.0000
Z" 
style="fill-rule: evenodd; fill: #231f20; "/>
</svg>
