<?xml version="1.0" encoding="UTF-8" standalone="no"?>
<svg version="1.1" xmlns="http://www.w3.org/2000/svg" xmlns:xlink="http://www.w3.org/1999/xlink" width="0.8438in" height="0.6458in" viewBox="0 0 60.7500 46.5000" >
<g id="Layer1135" >
<path d=" 
M45.1332,-4490.6250
L55.1793,-4490.6250
C57.1212,-4490.6250 58.7221,-4492.1071 58.9107,-4494.0000
L59.4918,-4494.0000
L59.4918,-4501.8750
L59.4844,-4501.8750
L59.4844,-4533.0938
L1.1250,-4533.0938
L1.1250,-4499.6250
L1.4211,-4499.6250
L1.4211,-4494.3516
L2.5646,-4494.3516
C2.7533,-4492.4586 4.3548,-4490.9766 6.2961,-4490.9766
L22.5000,-4490.9766
L22.5000,-4490.9062
L45.1332,-4490.9062
L45.1332,-4490.6250
Z" 
style="stroke-width: 0.7200; stroke-linecap: round; stroke-linejoin: round; fill-rule: evenodd; fill: #ffffff; "/>
<path d=" 
M45.1332,-4490.6250
L55.1793,-4490.6250
C57.1212,-4490.6250 58.7221,-4492.1071 58.9107,-4494.0000
L59.4918,-4494.0000
L59.4918,-4501.8750
L59.4844,-4501.8750
L59.4844,-4533.0938
L1.1250,-4533.0938
L1.1250,-4499.6250
L1.4211,-4499.6250
L1.4211,-4494.3516
L2.5646,-4494.3516
C2.7533,-4492.4586 4.3548,-4490.9766 6.2961,-4490.9766
L22.5000,-4490.9766
L22.5000,-4490.9062
L45.1332,-4490.9062
L45.1332,-4490.6250
Z" 
style="stroke-width: 0.7200; stroke: #ffffff; stroke-dasharray: none; stroke-linecap: round; stroke-linejoin: round; fill: none; "/>
</g>
<path d=" 
M59.2500,-4495.5000
C59.2500,-4493.0183 57.2318,-4491.0000 54.7500,-4491.0000
L6.0000,-4491.0000
C3.5183,-4491.0000 1.5000,-4493.0183 1.5000,-4495.5000
L1.5000,-4532.0512
C0.5700,-4533.1087 0.0000,-4534.4895 0.0000,-4536.0000
L0.0000,-4495.5000
C0.0000,-4492.2000 2.7000,-4489.5000 6.0000,-4489.5000
L54.7500,-4489.5000
C58.0500,-4489.5000 60.7500,-4492.2000 60.7500,-4495.5000
L60.7500,-4536.0000
C60.7500,-4534.4895 60.1800,-4533.1087 59.2500,-4532.0512
L59.2500,-4495.5000
Z" 
style="fill-rule: evenodd; fill: #231f20; "/>
</svg>
