<?xml version="1.0" encoding="UTF-8" standalone="no"?>
<svg version="1.1" xmlns="http://www.w3.org/2000/svg" xmlns:xlink="http://www.w3.org/1999/xlink" width="1.2188in" height="1.4688in" viewBox="0 0 87.7500 105.7500" >
<g id="Layer1136" >
<path d=" 
M81.7500,-4431.3751
C83.6920,-4431.3751 85.2928,-4432.8572 85.4814,-4434.7501
L86.0625,-4434.7501
L86.0625,-4531.5001
L85.4814,-4531.5001
C85.2927,-4533.3925 83.6919,-4534.8751 81.7500,-4534.8751
L6.0000,-4534.8751
C4.3587,-4534.8751 2.9603,-4533.8152 2.4533,-4532.3439
L1.1250,-4532.3439
L1.1250,-4434.7501
L2.2686,-4434.7501
C2.4573,-4432.8572 4.0588,-4431.3751 6.0000,-4431.3751
L81.7500,-4431.3751
Z" 
style="stroke-width: 0.7200; stroke-linecap: round; stroke-linejoin: round; fill-rule: evenodd; fill: #ffffff; "/>
<path d=" 
M81.7500,-4431.3751
C83.6920,-4431.3751 85.2928,-4432.8572 85.4814,-4434.7501
L86.0625,-4434.7501
L86.0625,-4531.5001
L85.4814,-4531.5001
C85.2927,-4533.3925 83.6919,-4534.8751 81.7500,-4534.8751
L6.0000,-4534.8751
C4.3587,-4534.8751 2.9603,-4533.8152 2.4533,-4532.3439
L1.1250,-4532.3439
L1.1250,-4434.7501
L2.2686,-4434.7501
C2.4573,-4432.8572 4.0588,-4431.3751 6.0000,-4431.3751
L81.7500,-4431.3751
Z" 
style="stroke-width: 0.7200; stroke: #ffffff; stroke-dasharray: none; stroke-linecap: round; stroke-linejoin: round; fill: none; "/>
</g>
<path d=" 
M81.7500,-4536.0000
L74.2500,-4536.0000
L74.2500,-4534.5000
L81.7500,-4534.5000
C84.2317,-4534.5000 86.2500,-4532.4817 86.2500,-4530.0000
L86.2500,-4436.2500
C86.2500,-4433.7683 84.2317,-4431.7500 81.7500,-4431.7500
L6.0000,-4431.7500
C3.5182,-4431.7500 1.5000,-4433.7683 1.5000,-4436.2500
L1.5000,-4530.0000
C1.5000,-4532.4817 3.5182,-4534.5000 6.0000,-4534.5000
L13.5000,-4534.5000
L13.5000,-4536.0000
L6.0000,-4536.0000
C2.7000,-4536.0000 0.0000,-4533.3000 0.0000,-4530.0000
L0.0000,-4436.2500
C0.0000,-4432.9500 2.7000,-4430.2500 6.0000,-4430.2500
L81.7500,-4430.2500
C85.0492,-4430.2500 87.7500,-4432.9500 87.7500,-4436.2500
L87.7500,-4530.0000
C87.7500,-4533.3000 85.0492,-4536.0000 81.7500,-4536.0000
Z" 
style="fill-rule: evenodd; fill: #231f20; "/>
</svg>
