<?xml version="1.0" encoding="UTF-8" standalone="no"?>
<svg version="1.1" xmlns="http://www.w3.org/2000/svg" xmlns:xlink="http://www.w3.org/1999/xlink" width="1.0625in" height="1.0208in" viewBox="0 0 76.5007 73.5000" >
<g id="Layer1013" >
<path d=" 
M56.2500,-4474.5999
L4.5000,-4474.5999
C4.0875,-4474.5999 3.7500,-4474.2624 3.7500,-4473.8499
L3.7500,-4464.0001
L57.0000,-4464.0001
L57.0000,-4473.7501
L57.0000,-4473.8499
C57.0000,-4474.2624 56.6633,-4474.5999 56.2500,-4474.5999
Z
M6.7500,-4470.3751
C6.7500,-4470.5814 6.9188,-4470.7501 7.1250,-4470.7501
L10.8750,-4470.7501
C11.0813,-4470.7501 11.2500,-4470.5814 11.2500,-4470.3751
L11.2500,-4469.6251
C11.2500,-4469.4196 11.0813,-4469.2501 10.8750,-4469.2501
L7.1250,-4469.2501
C6.9188,-4469.2501 6.7500,-4469.4196 6.7500,-4469.6251
L6.7500,-4470.3751
Z
M13.5000,-4470.3751
C13.5000,-4470.5814 13.6688,-4470.7501 13.8750,-4470.7501
L15.3750,-4470.7501
C15.5813,-4470.7501 15.7500,-4470.5814 15.7500,-4470.3751
L15.7500,-4469.6251
C15.7500,-4469.4196 15.5813,-4469.2501 15.3750,-4469.2501
L13.8750,-4469.2501
C13.6688,-4469.2501 13.5000,-4469.4196 13.5000,-4469.6251
L13.5000,-4470.3751
Z
M18.0000,-4470.3751
C18.0000,-4470.5814 18.1688,-4470.7501 18.3750,-4470.7501
L19.8750,-4470.7501
C20.0813,-4470.7501 20.2500,-4470.5814 20.2500,-4470.3751
L20.2500,-4469.6251
C20.2500,-4469.4196 20.0813,-4469.2501 19.8750,-4469.2501
L18.3750,-4469.2501
C18.1688,-4469.2501 18.0000,-4469.4196 18.0000,-4469.6251
L18.0000,-4470.3751
Z
M22.5000,-4470.3751
C22.5000,-4470.5814 22.6688,-4470.7501 22.8750,-4470.7501
L24.3750,-4470.7501
C24.5813,-4470.7501 24.7500,-4470.5814 24.7500,-4470.3751
L24.7500,-4469.6251
C24.7500,-4469.4196 24.5813,-4469.2501 24.3750,-4469.2501
L22.8750,-4469.2501
C22.6688,-4469.2501 22.5000,-4469.4196 22.5000,-4469.6251
L22.5000,-4470.3751
Z
M27.0000,-4470.3751
C27.0000,-4470.5814 27.1688,-4470.7501 27.3750,-4470.7501
L28.8750,-4470.7501
C29.0813,-4470.7501 29.2500,-4470.5814 29.2500,-4470.3751
L29.2500,-4469.6251
C29.2500,-4469.4196 29.0813,-4469.2501 28.8750,-4469.2501
L27.3750,-4469.2501
C27.1688,-4469.2501 27.0000,-4469.4196 27.0000,-4469.6251
L27.0000,-4470.3751
Z
M31.5000,-4470.3751
C31.5000,-4470.5814 31.6688,-4470.7501 31.8750,-4470.7501
L33.3750,-4470.7501
C33.5813,-4470.7501 33.7500,-4470.5814 33.7500,-4470.3751
L33.7500,-4469.6251
C33.7500,-4469.4196 33.5813,-4469.2501 33.3750,-4469.2501
L31.8750,-4469.2501
C31.6688,-4469.2501 31.5000,-4469.4196 31.5000,-4469.6251
L31.5000,-4470.3751
Z
M36.0000,-4470.3751
C36.0000,-4470.5814 36.1688,-4470.7501 36.3750,-4470.7501
L37.8750,-4470.7501
C38.0813,-4470.7501 38.2500,-4470.5814 38.2500,-4470.3751
L38.2500,-4469.6251
C38.2500,-4469.4196 38.0813,-4469.2501 37.8750,-4469.2501
L36.3750,-4469.2501
C36.1688,-4469.2501 36.0000,-4469.4196 36.0000,-4469.6251
L36.0000,-4470.3751
Z
M40.5000,-4470.3751
C40.5000,-4470.5814 40.6688,-4470.7501 40.8750,-4470.7501
L42.3750,-4470.7501
C42.5813,-4470.7501 42.7500,-4470.5814 42.7500,-4470.3751
L42.7500,-4469.6251
C42.7500,-4469.4196 42.5813,-4469.2501 42.3750,-4469.2501
L40.8750,-4469.2501
C40.6688,-4469.2501 40.5000,-4469.4196 40.5000,-4469.6251
L40.5000,-4470.3751
Z
M45.0000,-4470.3751
C45.0000,-4470.5814 45.1688,-4470.7501 45.3750,-4470.7501
L46.8750,-4470.7501
C47.0813,-4470.7501 47.2500,-4470.5814 47.2500,-4470.3751
L47.2500,-4469.6251
C47.2500,-4469.4196 47.0813,-4469.2501 46.8750,-4469.2501
L45.3750,-4469.2501
C45.1688,-4469.2501 45.0000,-4469.4196 45.0000,-4469.6251
L45.0000,-4470.3751
Z
M49.5000,-4470.3751
C49.5000,-4470.5814 49.6688,-4470.7501 49.8750,-4470.7501
L53.6250,-4470.7501
C53.8313,-4470.7501 54.0000,-4470.5814 54.0000,-4470.3751
L54.0000,-4469.6251
C54.0000,-4469.4196 53.8313,-4469.2501 53.6250,-4469.2501
L49.8750,-4469.2501
C49.6688,-4469.2501 49.5000,-4469.4196 49.5000,-4469.6251
L49.5000,-4470.3751
Z
M6.7500,-4473.2199
C6.7500,-4473.5116 6.9885,-4473.7501 7.2803,-4473.7501
L8.4698,-4473.7501
C8.7615,-4473.7501 9.0000,-4473.5116 9.0000,-4473.2199
L9.0000,-4472.7804
C9.0000,-4472.4886 8.7615,-4472.2501 8.4698,-4472.2501
L7.2803,-4472.2501
C6.9885,-4472.2501 6.7500,-4472.4886 6.7500,-4472.7804
L6.7500,-4473.2199
Z
M11.2500,-4473.2199
C11.2500,-4473.5116 11.4885,-4473.7501 11.7803,-4473.7501
L12.9698,-4473.7501
C13.2615,-4473.7501 13.5000,-4473.5116 13.5000,-4473.2199
L13.5000,-4472.7804
C13.5000,-4472.4886 13.2615,-4472.2501 12.9698,-4472.2501
L11.7803,-4472.2501
C11.4885,-4472.2501 11.2500,-4472.4886 11.2500,-4472.7804
L11.2500,-4473.2199
Z
M15.7500,-4473.2199
C15.7500,-4473.5116 15.9885,-4473.7501 16.2803,-4473.7501
L17.4698,-4473.7501
C17.7615,-4473.7501 18.0000,-4473.5116 18.0000,-4473.2199
L18.0000,-4472.7804
C18.0000,-4472.4886 17.7615,-4472.2501 17.4698,-4472.2501
L16.2803,-4472.2501
C15.9885,-4472.2501 15.7500,-4472.4886 15.7500,-4472.7804
L15.7500,-4473.2199
Z
M20.2500,-4473.2199
C20.2500,-4473.5116 20.4885,-4473.7501 20.7803,-4473.7501
L21.9698,-4473.7501
C22.2615,-4473.7501 22.5000,-4473.5116 22.5000,-4473.2199
L22.5000,-4472.7804
C22.5000,-4472.4886 22.2615,-4472.2501 21.9698,-4472.2501
L20.7803,-4472.2501
C20.4885,-4472.2501 20.2500,-4472.4886 20.2500,-4472.7804
L20.2500,-4473.2199
Z
M24.7500,-4473.2199
C24.7500,-4473.5116 24.9885,-4473.7501 25.2803,-4473.7501
L26.4698,-4473.7501
C26.7615,-4473.7501 27.0000,-4473.5116 27.0000,-4473.2199
L27.0000,-4472.7804
C27.0000,-4472.4886 26.7615,-4472.2501 26.4698,-4472.2501
L25.2803,-4472.2501
C24.9885,-4472.2501 24.7500,-4472.4886 24.7500,-4472.7804
L24.7500,-4473.2199
Z
M29.2500,-4473.2199
C29.2500,-4473.5116 29.4885,-4473.7501 29.7803,-4473.7501
L30.9698,-4473.7501
C31.2615,-4473.7501 31.5000,-4473.5116 31.5000,-4473.2199
L31.5000,-4472.7804
C31.5000,-4472.4886 31.2615,-4472.2501 30.9698,-4472.2501
L29.7803,-4472.2501
C29.4885,-4472.2501 29.2500,-4472.4886 29.2500,-4472.7804
L29.2500,-4473.2199
Z
M33.7500,-4473.2199
C33.7500,-4473.5116 33.9885,-4473.7501 34.2803,-4473.7501
L35.4698,-4473.7501
C35.7615,-4473.7501 36.0000,-4473.5116 36.0000,-4473.2199
L36.0000,-4472.7804
C36.0000,-4472.4886 35.7615,-4472.2501 35.4698,-4472.2501
L34.2803,-4472.2501
C33.9885,-4472.2501 33.7500,-4472.4886 33.7500,-4472.7804
L33.7500,-4473.2199
Z
M38.2500,-4473.2199
C38.2500,-4473.5116 38.4885,-4473.7501 38.7803,-4473.7501
L39.9698,-4473.7501
C40.2615,-4473.7501 40.5000,-4473.5116 40.5000,-4473.2199
L40.5000,-4472.7804
C40.5000,-4472.4886 40.2615,-4472.2501 39.9698,-4472.2501
L38.7803,-4472.2501
C38.4885,-4472.2501 38.2500,-4472.4886 38.2500,-4472.7804
L38.2500,-4473.2199
Z
M42.7500,-4473.2199
C42.7500,-4473.5116 42.9885,-4473.7501 43.2803,-4473.7501
L44.4698,-4473.7501
C44.7615,-4473.7501 45.0000,-4473.5116 45.0000,-4473.2199
L45.0000,-4472.7804
C45.0000,-4472.4886 44.7615,-4472.2501 44.4698,-4472.2501
L43.2803,-4472.2501
C42.9885,-4472.2501 42.7500,-4472.4886 42.7500,-4472.7804
L42.7500,-4473.2199
Z
M47.2500,-4473.2199
C47.2500,-4473.5116 47.4885,-4473.7501 47.7803,-4473.7501
L48.9698,-4473.7501
C49.2615,-4473.7501 49.5000,-4473.5116 49.5000,-4473.2199
L49.5000,-4472.7804
C49.5000,-4472.4886 49.2615,-4472.2501 48.9698,-4472.2501
L47.7803,-4472.2501
C47.4885,-4472.2501 47.2500,-4472.4886 47.2500,-4472.7804
L47.2500,-4473.2199
Z
M51.7500,-4473.2199
C51.7500,-4473.5116 51.9885,-4473.7501 52.2803,-4473.7501
L53.4698,-4473.7501
C53.7615,-4473.7501 54.0000,-4473.5116 54.0000,-4473.2199
L54.0000,-4472.7804
C54.0000,-4472.4886 53.7615,-4472.2501 53.4698,-4472.2501
L52.2803,-4472.2501
C51.9885,-4472.2501 51.7500,-4472.4886 51.7500,-4472.7804
L51.7500,-4473.2199
Z
M11.2500,-4467.4441
C11.2500,-4467.6121 11.3880,-4467.7501 11.5560,-4467.7501
L13.1940,-4467.7501
C13.3620,-4467.7501 13.5000,-4467.6121 13.5000,-4467.4441
L13.5000,-4466.5561
C13.5000,-4466.3881 13.3620,-4466.2501 13.1940,-4466.2501
L11.5560,-4466.2501
C11.3880,-4466.2501 11.2500,-4466.3881 11.2500,-4466.5561
L11.2500,-4467.4441
Z
M15.7500,-4467.4441
C15.7500,-4467.6121 15.8880,-4467.7501 16.0560,-4467.7501
L17.6940,-4467.7501
C17.8620,-4467.7501 18.0000,-4467.6121 18.0000,-4467.4441
L18.0000,-4466.5561
C18.0000,-4466.3881 17.8620,-4466.2501 17.6940,-4466.2501
L16.0560,-4466.2501
C15.8880,-4466.2501 15.7500,-4466.3881 15.7500,-4466.5561
L15.7500,-4467.4441
Z
M42.7500,-4467.4441
C42.7500,-4467.6121 42.8880,-4467.7501 43.0560,-4467.7501
L44.6940,-4467.7501
C44.8620,-4467.7501 45.0000,-4467.6121 45.0000,-4467.4441
L45.0000,-4466.5561
C45.0000,-4466.3881 44.8620,-4466.2501 44.6940,-4466.2501
L43.0560,-4466.2501
C42.8880,-4466.2501 42.7500,-4466.3881 42.7500,-4466.5561
L42.7500,-4467.4441
Z
M47.2500,-4467.4441
C47.2500,-4467.6121 47.3880,-4467.7501 47.5560,-4467.7501
L49.1940,-4467.7501
C49.3620,-4467.7501 49.5000,-4467.6121 49.5000,-4467.4441
L49.5000,-4466.5561
C49.5000,-4466.3881 49.3620,-4466.2501 49.1940,-4466.2501
L47.5560,-4466.2501
C47.3880,-4466.2501 47.2500,-4466.3881 47.2500,-4466.5561
L47.2500,-4467.4441
Z
M51.7500,-4467.4441
C51.7500,-4467.6121 51.8880,-4467.7501 52.0560,-4467.7501
L53.6940,-4467.7501
C53.8620,-4467.7501 54.0000,-4467.6121 54.0000,-4467.4441
L54.0000,-4466.5561
C54.0000,-4466.3881 53.8620,-4466.2501 53.6940,-4466.2501
L52.0560,-4466.2501
C51.8880,-4466.2501 51.7500,-4466.3881 51.7500,-4466.5561
L51.7500,-4467.4441
Z
M20.2500,-4467.4441
C20.2500,-4467.6121 20.3880,-4467.7501 20.5560,-4467.7501
L40.1940,-4467.7501
C40.3620,-4467.7501 40.5000,-4467.6121 40.5000,-4467.4441
L40.5000,-4466.5561
C40.5000,-4466.3881 40.3620,-4466.2501 40.1940,-4466.2501
L20.5560,-4466.2501
C20.3880,-4466.2501 20.2500,-4466.3881 20.2500,-4466.5561
L20.2500,-4467.4441
Z
M6.7500,-4467.4441
C6.7500,-4467.6121 6.8880,-4467.7501 7.0560,-4467.7501
L8.6940,-4467.7501
C8.8620,-4467.7501 9.0000,-4467.6121 9.0000,-4467.4441
L9.0000,-4466.5561
C9.0000,-4466.3881 8.8620,-4466.2501 8.6940,-4466.2501
L7.0560,-4466.2501
C6.8880,-4466.2501 6.7500,-4466.3881 6.7500,-4466.5561
L6.7500,-4467.4441
Z" 
style="stroke-width: 0.7200; stroke-linecap: round; stroke-linejoin: round; fill-rule: evenodd; fill: #ffffff; "/>
<path d=" 
M56.2500,-4474.5999
L4.5000,-4474.5999
C4.0875,-4474.5999 3.7500,-4474.2624 3.7500,-4473.8499
L3.7500,-4464.0001
L57.0000,-4464.0001
L57.0000,-4473.7501
L57.0000,-4473.8499
C57.0000,-4474.2624 56.6633,-4474.5999 56.2500,-4474.5999
Z
M6.7500,-4470.3751
C6.7500,-4470.5814 6.9188,-4470.7501 7.1250,-4470.7501
L10.8750,-4470.7501
C11.0813,-4470.7501 11.2500,-4470.5814 11.2500,-4470.3751
L11.2500,-4469.6251
C11.2500,-4469.4196 11.0813,-4469.2501 10.8750,-4469.2501
L7.1250,-4469.2501
C6.9188,-4469.2501 6.7500,-4469.4196 6.7500,-4469.6251
L6.7500,-4470.3751
Z
M13.5000,-4470.3751
C13.5000,-4470.5814 13.6688,-4470.7501 13.8750,-4470.7501
L15.3750,-4470.7501
C15.5813,-4470.7501 15.7500,-4470.5814 15.7500,-4470.3751
L15.7500,-4469.6251
C15.7500,-4469.4196 15.5813,-4469.2501 15.3750,-4469.2501
L13.8750,-4469.2501
C13.6688,-4469.2501 13.5000,-4469.4196 13.5000,-4469.6251
L13.5000,-4470.3751
Z
M18.0000,-4470.3751
C18.0000,-4470.5814 18.1688,-4470.7501 18.3750,-4470.7501
L19.8750,-4470.7501
C20.0813,-4470.7501 20.2500,-4470.5814 20.2500,-4470.3751
L20.2500,-4469.6251
C20.2500,-4469.4196 20.0813,-4469.2501 19.8750,-4469.2501
L18.3750,-4469.2501
C18.1688,-4469.2501 18.0000,-4469.4196 18.0000,-4469.6251
L18.0000,-4470.3751
Z
M22.5000,-4470.3751
C22.5000,-4470.5814 22.6688,-4470.7501 22.8750,-4470.7501
L24.3750,-4470.7501
C24.5813,-4470.7501 24.7500,-4470.5814 24.7500,-4470.3751
L24.7500,-4469.6251
C24.7500,-4469.4196 24.5813,-4469.2501 24.3750,-4469.2501
L22.8750,-4469.2501
C22.6688,-4469.2501 22.5000,-4469.4196 22.5000,-4469.6251
L22.5000,-4470.3751
Z
M27.0000,-4470.3751
C27.0000,-4470.5814 27.1688,-4470.7501 27.3750,-4470.7501
L28.8750,-4470.7501
C29.0813,-4470.7501 29.2500,-4470.5814 29.2500,-4470.3751
L29.2500,-4469.6251
C29.2500,-4469.4196 29.0813,-4469.2501 28.8750,-4469.2501
L27.3750,-4469.2501
C27.1688,-4469.2501 27.0000,-4469.4196 27.0000,-4469.6251
L27.0000,-4470.3751
Z
M31.5000,-4470.3751
C31.5000,-4470.5814 31.6688,-4470.7501 31.8750,-4470.7501
L33.3750,-4470.7501
C33.5813,-4470.7501 33.7500,-4470.5814 33.7500,-4470.3751
L33.7500,-4469.6251
C33.7500,-4469.4196 33.5813,-4469.2501 33.3750,-4469.2501
L31.8750,-4469.2501
C31.6688,-4469.2501 31.5000,-4469.4196 31.5000,-4469.6251
L31.5000,-4470.3751
Z
M36.0000,-4470.3751
C36.0000,-4470.5814 36.1688,-4470.7501 36.3750,-4470.7501
L37.8750,-4470.7501
C38.0813,-4470.7501 38.2500,-4470.5814 38.2500,-4470.3751
L38.2500,-4469.6251
C38.2500,-4469.4196 38.0813,-4469.2501 37.8750,-4469.2501
L36.3750,-4469.2501
C36.1688,-4469.2501 36.0000,-4469.4196 36.0000,-4469.6251
L36.0000,-4470.3751
Z
M40.5000,-4470.3751
C40.5000,-4470.5814 40.6688,-4470.7501 40.8750,-4470.7501
L42.3750,-4470.7501
C42.5813,-4470.7501 42.7500,-4470.5814 42.7500,-4470.3751
L42.7500,-4469.6251
C42.7500,-4469.4196 42.5813,-4469.2501 42.3750,-4469.2501
L40.8750,-4469.2501
C40.6688,-4469.2501 40.5000,-4469.4196 40.5000,-4469.6251
L40.5000,-4470.3751
Z
M45.0000,-4470.3751
C45.0000,-4470.5814 45.1688,-4470.7501 45.3750,-4470.7501
L46.8750,-4470.7501
C47.0813,-4470.7501 47.2500,-4470.5814 47.2500,-4470.3751
L47.2500,-4469.6251
C47.2500,-4469.4196 47.0813,-4469.2501 46.8750,-4469.2501
L45.3750,-4469.2501
C45.1688,-4469.2501 45.0000,-4469.4196 45.0000,-4469.6251
L45.0000,-4470.3751
Z
M49.5000,-4470.3751
C49.5000,-4470.5814 49.6688,-4470.7501 49.8750,-4470.7501
L53.6250,-4470.7501
C53.8313,-4470.7501 54.0000,-4470.5814 54.0000,-4470.3751
L54.0000,-4469.6251
C54.0000,-4469.4196 53.8313,-4469.2501 53.6250,-4469.2501
L49.8750,-4469.2501
C49.6688,-4469.2501 49.5000,-4469.4196 49.5000,-4469.6251
L49.5000,-4470.3751
Z
M6.7500,-4473.2199
C6.7500,-4473.5116 6.9885,-4473.7501 7.2803,-4473.7501
L8.4698,-4473.7501
C8.7615,-4473.7501 9.0000,-4473.5116 9.0000,-4473.2199
L9.0000,-4472.7804
C9.0000,-4472.4886 8.7615,-4472.2501 8.4698,-4472.2501
L7.2803,-4472.2501
C6.9885,-4472.2501 6.7500,-4472.4886 6.7500,-4472.7804
L6.7500,-4473.2199
Z
M11.2500,-4473.2199
C11.2500,-4473.5116 11.4885,-4473.7501 11.7803,-4473.7501
L12.9698,-4473.7501
C13.2615,-4473.7501 13.5000,-4473.5116 13.5000,-4473.2199
L13.5000,-4472.7804
C13.5000,-4472.4886 13.2615,-4472.2501 12.9698,-4472.2501
L11.7803,-4472.2501
C11.4885,-4472.2501 11.2500,-4472.4886 11.2500,-4472.7804
L11.2500,-4473.2199
Z
M15.7500,-4473.2199
C15.7500,-4473.5116 15.9885,-4473.7501 16.2803,-4473.7501
L17.4698,-4473.7501
C17.7615,-4473.7501 18.0000,-4473.5116 18.0000,-4473.2199
L18.0000,-4472.7804
C18.0000,-4472.4886 17.7615,-4472.2501 17.4698,-4472.2501
L16.2803,-4472.2501
C15.9885,-4472.2501 15.7500,-4472.4886 15.7500,-4472.7804
L15.7500,-4473.2199
Z
M20.2500,-4473.2199
C20.2500,-4473.5116 20.4885,-4473.7501 20.7803,-4473.7501
L21.9698,-4473.7501
C22.2615,-4473.7501 22.5000,-4473.5116 22.5000,-4473.2199
L22.5000,-4472.7804
C22.5000,-4472.4886 22.2615,-4472.2501 21.9698,-4472.2501
L20.7803,-4472.2501
C20.4885,-4472.2501 20.2500,-4472.4886 20.2500,-4472.7804
L20.2500,-4473.2199
Z
M24.7500,-4473.2199
C24.7500,-4473.5116 24.9885,-4473.7501 25.2803,-4473.7501
L26.4698,-4473.7501
C26.7615,-4473.7501 27.0000,-4473.5116 27.0000,-4473.2199
L27.0000,-4472.7804
C27.0000,-4472.4886 26.7615,-4472.2501 26.4698,-4472.2501
L25.2803,-4472.2501
C24.9885,-4472.2501 24.7500,-4472.4886 24.7500,-4472.7804
L24.7500,-4473.2199
Z
M29.2500,-4473.2199
C29.2500,-4473.5116 29.4885,-4473.7501 29.7803,-4473.7501
L30.9698,-4473.7501
C31.2615,-4473.7501 31.5000,-4473.5116 31.5000,-4473.2199
L31.5000,-4472.7804
C31.5000,-4472.4886 31.2615,-4472.2501 30.9698,-4472.2501
L29.7803,-4472.2501
C29.4885,-4472.2501 29.2500,-4472.4886 29.2500,-4472.7804
L29.2500,-4473.2199
Z
M33.7500,-4473.2199
C33.7500,-4473.5116 33.9885,-4473.7501 34.2803,-4473.7501
L35.4698,-4473.7501
C35.7615,-4473.7501 36.0000,-4473.5116 36.0000,-4473.2199
L36.0000,-4472.7804
C36.0000,-4472.4886 35.7615,-4472.2501 35.4698,-4472.2501
L34.2803,-4472.2501
C33.9885,-4472.2501 33.7500,-4472.4886 33.7500,-4472.7804
L33.7500,-4473.2199
Z
M38.2500,-4473.2199
C38.2500,-4473.5116 38.4885,-4473.7501 38.7803,-4473.7501
L39.9698,-4473.7501
C40.2615,-4473.7501 40.5000,-4473.5116 40.5000,-4473.2199
L40.5000,-4472.7804
C40.5000,-4472.4886 40.2615,-4472.2501 39.9698,-4472.2501
L38.7803,-4472.2501
C38.4885,-4472.2501 38.2500,-4472.4886 38.2500,-4472.7804
L38.2500,-4473.2199
Z
M42.7500,-4473.2199
C42.7500,-4473.5116 42.9885,-4473.7501 43.2803,-4473.7501
L44.4698,-4473.7501
C44.7615,-4473.7501 45.0000,-4473.5116 45.0000,-4473.2199
L45.0000,-4472.7804
C45.0000,-4472.4886 44.7615,-4472.2501 44.4698,-4472.2501
L43.2803,-4472.2501
C42.9885,-4472.2501 42.7500,-4472.4886 42.7500,-4472.7804
L42.7500,-4473.2199
Z
M47.2500,-4473.2199
C47.2500,-4473.5116 47.4885,-4473.7501 47.7803,-4473.7501
L48.9698,-4473.7501
C49.2615,-4473.7501 49.5000,-4473.5116 49.5000,-4473.2199
L49.5000,-4472.7804
C49.5000,-4472.4886 49.2615,-4472.2501 48.9698,-4472.2501
L47.7803,-4472.2501
C47.4885,-4472.2501 47.2500,-4472.4886 47.2500,-4472.7804
L47.2500,-4473.2199
Z
M51.7500,-4473.2199
C51.7500,-4473.5116 51.9885,-4473.7501 52.2803,-4473.7501
L53.4698,-4473.7501
C53.7615,-4473.7501 54.0000,-4473.5116 54.0000,-4473.2199
L54.0000,-4472.7804
C54.0000,-4472.4886 53.7615,-4472.2501 53.4698,-4472.2501
L52.2803,-4472.2501
C51.9885,-4472.2501 51.7500,-4472.4886 51.7500,-4472.7804
L51.7500,-4473.2199
Z
M11.2500,-4467.4441
C11.2500,-4467.6121 11.3880,-4467.7501 11.5560,-4467.7501
L13.1940,-4467.7501
C13.3620,-4467.7501 13.5000,-4467.6121 13.5000,-4467.4441
L13.5000,-4466.5561
C13.5000,-4466.3881 13.3620,-4466.2501 13.1940,-4466.2501
L11.5560,-4466.2501
C11.3880,-4466.2501 11.2500,-4466.3881 11.2500,-4466.5561
L11.2500,-4467.4441
Z
M15.7500,-4467.4441
C15.7500,-4467.6121 15.8880,-4467.7501 16.0560,-4467.7501
L17.6940,-4467.7501
C17.8620,-4467.7501 18.0000,-4467.6121 18.0000,-4467.4441
L18.0000,-4466.5561
C18.0000,-4466.3881 17.8620,-4466.2501 17.6940,-4466.2501
L16.0560,-4466.2501
C15.8880,-4466.2501 15.7500,-4466.3881 15.7500,-4466.5561
L15.7500,-4467.4441
Z
M42.7500,-4467.4441
C42.7500,-4467.6121 42.8880,-4467.7501 43.0560,-4467.7501
L44.6940,-4467.7501
C44.8620,-4467.7501 45.0000,-4467.6121 45.0000,-4467.4441
L45.0000,-4466.5561
C45.0000,-4466.3881 44.8620,-4466.2501 44.6940,-4466.2501
L43.0560,-4466.2501
C42.8880,-4466.2501 42.7500,-4466.3881 42.7500,-4466.5561
L42.7500,-4467.4441
Z
M47.2500,-4467.4441
C47.2500,-4467.6121 47.3880,-4467.7501 47.5560,-4467.7501
L49.1940,-4467.7501
C49.3620,-4467.7501 49.5000,-4467.6121 49.5000,-4467.4441
L49.5000,-4466.5561
C49.5000,-4466.3881 49.3620,-4466.2501 49.1940,-4466.2501
L47.5560,-4466.2501
C47.3880,-4466.2501 47.2500,-4466.3881 47.2500,-4466.5561
L47.2500,-4467.4441
Z
M51.7500,-4467.4441
C51.7500,-4467.6121 51.8880,-4467.7501 52.0560,-4467.7501
L53.6940,-4467.7501
C53.8620,-4467.7501 54.0000,-4467.6121 54.0000,-4467.4441
L54.0000,-4466.5561
C54.0000,-4466.3881 53.8620,-4466.2501 53.6940,-4466.2501
L52.0560,-4466.2501
C51.8880,-4466.2501 51.7500,-4466.3881 51.7500,-4466.5561
L51.7500,-4467.4441
Z
M20.2500,-4467.4441
C20.2500,-4467.6121 20.3880,-4467.7501 20.5560,-4467.7501
L40.1940,-4467.7501
C40.3620,-4467.7501 40.5000,-4467.6121 40.5000,-4467.4441
L40.5000,-4466.5561
C40.5000,-4466.3881 40.3620,-4466.2501 40.1940,-4466.2501
L20.5560,-4466.2501
C20.3880,-4466.2501 20.2500,-4466.3881 20.2500,-4466.5561
L20.2500,-4467.4441
Z
M6.7500,-4467.4441
C6.7500,-4467.6121 6.8880,-4467.7501 7.0560,-4467.7501
L8.6940,-4467.7501
C8.8620,-4467.7501 9.0000,-4467.6121 9.0000,-4467.4441
L9.0000,-4466.5561
C9.0000,-4466.3881 8.8620,-4466.2501 8.6940,-4466.2501
L7.0560,-4466.2501
C6.8880,-4466.2501 6.7500,-4466.3881 6.7500,-4466.5561
L6.7500,-4467.4441
Z" 
style="stroke-width: 0.7200; stroke: #ffffff; stroke-dasharray: none; stroke-linecap: round; stroke-linejoin: round; fill: none; "/>
</g>
<g id="Layer1014" >
<path d=" 
M2.4662,-4494.5626
L58.0026,-4494.5626
C58.9758,-4494.5626 59.7656,-4495.3957 59.7656,-4496.4202
L59.7656,-4532.6425
C59.7656,-4533.6679 58.9758,-4534.5001 58.0026,-4534.5001
L2.4662,-4534.5001
C1.4930,-4534.5001 0.7031,-4533.6670 0.7031,-4532.6425
L0.7031,-4496.4202
C0.7031,-4495.3948 1.4939,-4494.5626 2.4662,-4494.5626
Z" 
style="stroke-width: 0.7200; stroke-linecap: round; stroke-linejoin: round; fill-rule: evenodd; fill: #ffffff; "/>
<path d=" 
M2.4662,-4494.5626
L58.0026,-4494.5626
C58.9758,-4494.5626 59.7656,-4495.3957 59.7656,-4496.4202
L59.7656,-4532.6425
C59.7656,-4533.6679 58.9758,-4534.5001 58.0026,-4534.5001
L2.4662,-4534.5001
C1.4930,-4534.5001 0.7031,-4533.6670 0.7031,-4532.6425
L0.7031,-4496.4202
C0.7031,-4495.3948 1.4939,-4494.5626 2.4662,-4494.5626
Z" 
style="stroke-width: 0.7200; stroke: #ffffff; stroke-dasharray: none; stroke-linecap: round; stroke-linejoin: round; fill: none; "/>
</g>
<g id="Layer1015" >
<path d=" 
M33.3750,-4482.3751
C33.3750,-4482.5821 33.5423,-4482.7501 33.7500,-4482.7501
L36.6818,-4482.7501
C34.4055,-4484.4271 33.1125,-4488.7209 32.8800,-4493.2501
L31.7505,-4493.2501
C31.7505,-4491.8716 30.6285,-4490.7496 29.2500,-4490.7496
C27.8715,-4490.7496 26.7495,-4491.8716 26.7495,-4493.2501
L25.4618,-4493.2501
C25.2285,-4488.7209 23.9355,-4484.4271 21.6593,-4482.7501
L24.7500,-4482.7501
C24.9578,-4482.7501 25.1250,-4482.5821 25.1250,-4482.3751
C25.1250,-4482.1689 24.9578,-4482.0001 24.7500,-4482.0001
L19.8758,-4482.0001
C19.6680,-4482.0001 19.5000,-4481.8314 19.5000,-4481.6251
L19.5000,-4480.5001
L39.0000,-4480.5001
L39.0000,-4481.6251
C39.0000,-4481.8314 38.8328,-4482.0001 38.6250,-4482.0001
L33.7500,-4482.0001
C33.5423,-4482.0001 33.3750,-4482.1689 33.3750,-4482.3751
Z" 
style="stroke-width: 0.7200; stroke-linecap: round; stroke-linejoin: round; fill-rule: evenodd; fill: #ffffff; "/>
<path d=" 
M33.3750,-4482.3751
C33.3750,-4482.5821 33.5423,-4482.7501 33.7500,-4482.7501
L36.6818,-4482.7501
C34.4055,-4484.4271 33.1125,-4488.7209 32.8800,-4493.2501
L31.7505,-4493.2501
C31.7505,-4491.8716 30.6285,-4490.7496 29.2500,-4490.7496
C27.8715,-4490.7496 26.7495,-4491.8716 26.7495,-4493.2501
L25.4618,-4493.2501
C25.2285,-4488.7209 23.9355,-4484.4271 21.6593,-4482.7501
L24.7500,-4482.7501
C24.9578,-4482.7501 25.1250,-4482.5821 25.1250,-4482.3751
C25.1250,-4482.1689 24.9578,-4482.0001 24.7500,-4482.0001
L19.8758,-4482.0001
C19.6680,-4482.0001 19.5000,-4481.8314 19.5000,-4481.6251
L19.5000,-4480.5001
L39.0000,-4480.5001
L39.0000,-4481.6251
C39.0000,-4481.8314 38.8328,-4482.0001 38.6250,-4482.0001
L33.7500,-4482.0001
C33.5423,-4482.0001 33.3750,-4482.1689 33.3750,-4482.3751
Z" 
style="stroke-width: 0.7200; stroke: #ffffff; stroke-dasharray: none; stroke-linecap: round; stroke-linejoin: round; fill: none; "/>
</g>
<g id="Layer1016" >
<path d=" 
M63.7500,-4467.7501
C63.7500,-4466.5126 64.7963,-4465.5001 66.0735,-4465.5001
L73.4258,-4465.5001
C74.7038,-4465.5001 75.7500,-4466.5126 75.7500,-4467.7501
C75.7500,-4469.9799 73.4588,-4471.2864 70.5000,-4471.4739
L70.5000,-4470.3751
C70.5000,-4469.9611 70.1648,-4469.6251 69.7500,-4469.6251
C69.3353,-4469.6251 69.0000,-4469.9611 69.0000,-4470.3751
L69.0000,-4471.4739
C66.0413,-4471.2864 63.7500,-4469.9799 63.7500,-4467.7501
Z" 
style="stroke-width: 0.7200; stroke-linecap: round; stroke-linejoin: round; fill-rule: evenodd; fill: #ffffff; "/>
<path d=" 
M63.7500,-4467.7501
C63.7500,-4466.5126 64.7963,-4465.5001 66.0735,-4465.5001
L73.4258,-4465.5001
C74.7038,-4465.5001 75.7500,-4466.5126 75.7500,-4467.7501
C75.7500,-4469.9799 73.4588,-4471.2864 70.5000,-4471.4739
L70.5000,-4470.3751
C70.5000,-4469.9611 70.1648,-4469.6251 69.7500,-4469.6251
C69.3353,-4469.6251 69.0000,-4469.9611 69.0000,-4470.3751
L69.0000,-4471.4739
C66.0413,-4471.2864 63.7500,-4469.9799 63.7500,-4467.7501
Z" 
style="stroke-width: 0.7200; stroke: #ffffff; stroke-dasharray: none; stroke-linecap: round; stroke-linejoin: round; fill: none; "/>
</g>
<path d=" 
M11.2500,-4469.6250
C11.2500,-4469.4195 11.0813,-4469.2500 10.8750,-4469.2500
L7.1250,-4469.2500
C6.9188,-4469.2500 6.7500,-4469.4195 6.7500,-4469.6250
L6.7500,-4470.3750
C6.7500,-4470.5812 6.9188,-4470.7500 7.1250,-4470.7500
L10.8750,-4470.7500
C11.0813,-4470.7500 11.2500,-4470.5812 11.2500,-4470.3750
L11.2500,-4469.6250
Z" 
style="fill-rule: evenodd; fill: #0c0c0c; "/>
<path d=" 
M15.7500,-4469.6250
C15.7500,-4469.4195 15.5813,-4469.2500 15.3750,-4469.2500
L13.8750,-4469.2500
C13.6688,-4469.2500 13.5000,-4469.4195 13.5000,-4469.6250
L13.5000,-4470.3750
C13.5000,-4470.5812 13.6688,-4470.7500 13.8750,-4470.7500
L15.3750,-4470.7500
C15.5813,-4470.7500 15.7500,-4470.5812 15.7500,-4470.3750
L15.7500,-4469.6250
Z" 
style="fill-rule: evenodd; fill: #0c0c0c; "/>
<path d=" 
M20.2500,-4469.6250
C20.2500,-4469.4195 20.0813,-4469.2500 19.8750,-4469.2500
L18.3750,-4469.2500
C18.1688,-4469.2500 18.0000,-4469.4195 18.0000,-4469.6250
L18.0000,-4470.3750
C18.0000,-4470.5812 18.1688,-4470.7500 18.3750,-4470.7500
L19.8750,-4470.7500
C20.0813,-4470.7500 20.2500,-4470.5812 20.2500,-4470.3750
L20.2500,-4469.6250
Z" 
style="fill-rule: evenodd; fill: #0c0c0c; "/>
<path d=" 
M24.7500,-4469.6250
C24.7500,-4469.4195 24.5813,-4469.2500 24.3750,-4469.2500
L22.8750,-4469.2500
C22.6688,-4469.2500 22.5000,-4469.4195 22.5000,-4469.6250
L22.5000,-4470.3750
C22.5000,-4470.5812 22.6688,-4470.7500 22.8750,-4470.7500
L24.3750,-4470.7500
C24.5813,-4470.7500 24.7500,-4470.5812 24.7500,-4470.3750
L24.7500,-4469.6250
Z" 
style="fill-rule: evenodd; fill: #0c0c0c; "/>
<path d=" 
M29.2500,-4469.6250
C29.2500,-4469.4195 29.0813,-4469.2500 28.8750,-4469.2500
L27.3750,-4469.2500
C27.1688,-4469.2500 27.0000,-4469.4195 27.0000,-4469.6250
L27.0000,-4470.3750
C27.0000,-4470.5812 27.1688,-4470.7500 27.3750,-4470.7500
L28.8750,-4470.7500
C29.0813,-4470.7500 29.2500,-4470.5812 29.2500,-4470.3750
L29.2500,-4469.6250
Z" 
style="fill-rule: evenodd; fill: #0c0c0c; "/>
<path d=" 
M33.7500,-4469.6250
C33.7500,-4469.4195 33.5813,-4469.2500 33.3750,-4469.2500
L31.8750,-4469.2500
C31.6688,-4469.2500 31.5000,-4469.4195 31.5000,-4469.6250
L31.5000,-4470.3750
C31.5000,-4470.5812 31.6688,-4470.7500 31.8750,-4470.7500
L33.3750,-4470.7500
C33.5813,-4470.7500 33.7500,-4470.5812 33.7500,-4470.3750
L33.7500,-4469.6250
Z" 
style="fill-rule: evenodd; fill: #0c0c0c; "/>
<path d=" 
M38.2500,-4469.6250
C38.2500,-4469.4195 38.0813,-4469.2500 37.8750,-4469.2500
L36.3750,-4469.2500
C36.1688,-4469.2500 36.0000,-4469.4195 36.0000,-4469.6250
L36.0000,-4470.3750
C36.0000,-4470.5812 36.1688,-4470.7500 36.3750,-4470.7500
L37.8750,-4470.7500
C38.0813,-4470.7500 38.2500,-4470.5812 38.2500,-4470.3750
L38.2500,-4469.6250
Z" 
style="fill-rule: evenodd; fill: #0c0c0c; "/>
<path d=" 
M42.7500,-4469.6250
C42.7500,-4469.4195 42.5813,-4469.2500 42.3750,-4469.2500
L40.8750,-4469.2500
C40.6688,-4469.2500 40.5000,-4469.4195 40.5000,-4469.6250
L40.5000,-4470.3750
C40.5000,-4470.5812 40.6688,-4470.7500 40.8750,-4470.7500
L42.3750,-4470.7500
C42.5813,-4470.7500 42.7500,-4470.5812 42.7500,-4470.3750
L42.7500,-4469.6250
Z" 
style="fill-rule: evenodd; fill: #0c0c0c; "/>
<path d=" 
M47.2500,-4469.6250
C47.2500,-4469.4195 47.0813,-4469.2500 46.8750,-4469.2500
L45.3750,-4469.2500
C45.1688,-4469.2500 45.0000,-4469.4195 45.0000,-4469.6250
L45.0000,-4470.3750
C45.0000,-4470.5812 45.1688,-4470.7500 45.3750,-4470.7500
L46.8750,-4470.7500
C47.0813,-4470.7500 47.2500,-4470.5812 47.2500,-4470.3750
L47.2500,-4469.6250
Z" 
style="fill-rule: evenodd; fill: #0c0c0c; "/>
<path d=" 
M54.0000,-4469.6250
C54.0000,-4469.4195 53.8313,-4469.2500 53.6250,-4469.2500
L49.8750,-4469.2500
C49.6688,-4469.2500 49.5000,-4469.4195 49.5000,-4469.6250
L49.5000,-4470.3750
C49.5000,-4470.5812 49.6688,-4470.7500 49.8750,-4470.7500
L53.6250,-4470.7500
C53.8313,-4470.7500 54.0000,-4470.5812 54.0000,-4470.3750
L54.0000,-4469.6250
Z" 
style="fill-rule: evenodd; fill: #0c0c0c; "/>
<path d=" 
M9.0000,-4472.7802
C9.0000,-4472.4885 8.7615,-4472.2500 8.4698,-4472.2500
L7.2803,-4472.2500
C6.9885,-4472.2500 6.7500,-4472.4885 6.7500,-4472.7802
L6.7500,-4473.2197
C6.7500,-4473.5115 6.9885,-4473.7500 7.2803,-4473.7500
L8.4698,-4473.7500
C8.7615,-4473.7500 9.0000,-4473.5115 9.0000,-4473.2197
L9.0000,-4472.7802
Z" 
style="fill-rule: evenodd; fill: #0c0c0c; "/>
<path d=" 
M13.5000,-4472.7802
C13.5000,-4472.4885 13.2615,-4472.2500 12.9698,-4472.2500
L11.7803,-4472.2500
C11.4885,-4472.2500 11.2500,-4472.4885 11.2500,-4472.7802
L11.2500,-4473.2197
C11.2500,-4473.5115 11.4885,-4473.7500 11.7803,-4473.7500
L12.9698,-4473.7500
C13.2615,-4473.7500 13.5000,-4473.5115 13.5000,-4473.2197
L13.5000,-4472.7802
Z" 
style="fill-rule: evenodd; fill: #0c0c0c; "/>
<path d=" 
M18.0000,-4472.7802
C18.0000,-4472.4885 17.7615,-4472.2500 17.4698,-4472.2500
L16.2803,-4472.2500
C15.9885,-4472.2500 15.7500,-4472.4885 15.7500,-4472.7802
L15.7500,-4473.2197
C15.7500,-4473.5115 15.9885,-4473.7500 16.2803,-4473.7500
L17.4698,-4473.7500
C17.7615,-4473.7500 18.0000,-4473.5115 18.0000,-4473.2197
L18.0000,-4472.7802
Z" 
style="fill-rule: evenodd; fill: #0c0c0c; "/>
<path d=" 
M22.5000,-4472.7802
C22.5000,-4472.4885 22.2615,-4472.2500 21.9698,-4472.2500
L20.7803,-4472.2500
C20.4885,-4472.2500 20.2500,-4472.4885 20.2500,-4472.7802
L20.2500,-4473.2197
C20.2500,-4473.5115 20.4885,-4473.7500 20.7803,-4473.7500
L21.9698,-4473.7500
C22.2615,-4473.7500 22.5000,-4473.5115 22.5000,-4473.2197
L22.5000,-4472.7802
Z" 
style="fill-rule: evenodd; fill: #0c0c0c; "/>
<path d=" 
M27.0000,-4472.7802
C27.0000,-4472.4885 26.7615,-4472.2500 26.4698,-4472.2500
L25.2803,-4472.2500
C24.9885,-4472.2500 24.7500,-4472.4885 24.7500,-4472.7802
L24.7500,-4473.2197
C24.7500,-4473.5115 24.9885,-4473.7500 25.2803,-4473.7500
L26.4698,-4473.7500
C26.7615,-4473.7500 27.0000,-4473.5115 27.0000,-4473.2197
L27.0000,-4472.7802
Z" 
style="fill-rule: evenodd; fill: #0c0c0c; "/>
<path d=" 
M31.5000,-4472.7802
C31.5000,-4472.4885 31.2615,-4472.2500 30.9698,-4472.2500
L29.7803,-4472.2500
C29.4885,-4472.2500 29.2500,-4472.4885 29.2500,-4472.7802
L29.2500,-4473.2197
C29.2500,-4473.5115 29.4885,-4473.7500 29.7803,-4473.7500
L30.9698,-4473.7500
C31.2615,-4473.7500 31.5000,-4473.5115 31.5000,-4473.2197
L31.5000,-4472.7802
Z" 
style="fill-rule: evenodd; fill: #0c0c0c; "/>
<path d=" 
M36.0000,-4472.7802
C36.0000,-4472.4885 35.7615,-4472.2500 35.4698,-4472.2500
L34.2803,-4472.2500
C33.9885,-4472.2500 33.7500,-4472.4885 33.7500,-4472.7802
L33.7500,-4473.2197
C33.7500,-4473.5115 33.9885,-4473.7500 34.2803,-4473.7500
L35.4698,-4473.7500
C35.7615,-4473.7500 36.0000,-4473.5115 36.0000,-4473.2197
L36.0000,-4472.7802
Z" 
style="fill-rule: evenodd; fill: #0c0c0c; "/>
<path d=" 
M40.5000,-4472.7802
C40.5000,-4472.4885 40.2615,-4472.2500 39.9698,-4472.2500
L38.7803,-4472.2500
C38.4885,-4472.2500 38.2500,-4472.4885 38.2500,-4472.7802
L38.2500,-4473.2197
C38.2500,-4473.5115 38.4885,-4473.7500 38.7803,-4473.7500
L39.9698,-4473.7500
C40.2615,-4473.7500 40.5000,-4473.5115 40.5000,-4473.2197
L40.5000,-4472.7802
Z" 
style="fill-rule: evenodd; fill: #0c0c0c; "/>
<path d=" 
M45.0000,-4472.7802
C45.0000,-4472.4885 44.7615,-4472.2500 44.4698,-4472.2500
L43.2803,-4472.2500
C42.9885,-4472.2500 42.7500,-4472.4885 42.7500,-4472.7802
L42.7500,-4473.2197
C42.7500,-4473.5115 42.9885,-4473.7500 43.2803,-4473.7500
L44.4698,-4473.7500
C44.7615,-4473.7500 45.0000,-4473.5115 45.0000,-4473.2197
L45.0000,-4472.7802
Z" 
style="fill-rule: evenodd; fill: #0c0c0c; "/>
<path d=" 
M49.5000,-4472.7802
C49.5000,-4472.4885 49.2615,-4472.2500 48.9698,-4472.2500
L47.7803,-4472.2500
C47.4885,-4472.2500 47.2500,-4472.4885 47.2500,-4472.7802
L47.2500,-4473.2197
C47.2500,-4473.5115 47.4885,-4473.7500 47.7803,-4473.7500
L48.9698,-4473.7500
C49.2615,-4473.7500 49.5000,-4473.5115 49.5000,-4473.2197
L49.5000,-4472.7802
Z" 
style="fill-rule: evenodd; fill: #0c0c0c; "/>
<path d=" 
M54.0000,-4472.7802
C54.0000,-4472.4885 53.7615,-4472.2500 53.4698,-4472.2500
L52.2803,-4472.2500
C51.9885,-4472.2500 51.7500,-4472.4885 51.7500,-4472.7802
L51.7500,-4473.2197
C51.7500,-4473.5115 51.9885,-4473.7500 52.2803,-4473.7500
L53.4698,-4473.7500
C53.7615,-4473.7500 54.0000,-4473.5115 54.0000,-4473.2197
L54.0000,-4472.7802
Z" 
style="fill-rule: evenodd; fill: #0c0c0c; "/>
<path d=" 
M13.5000,-4466.5560
C13.5000,-4466.3880 13.3620,-4466.2500 13.1940,-4466.2500
L11.5560,-4466.2500
C11.3880,-4466.2500 11.2500,-4466.3880 11.2500,-4466.5560
L11.2500,-4467.4440
C11.2500,-4467.6120 11.3880,-4467.7500 11.5560,-4467.7500
L13.1940,-4467.7500
C13.3620,-4467.7500 13.5000,-4467.6120 13.5000,-4467.4440
L13.5000,-4466.5560
Z" 
style="fill-rule: evenodd; fill: #0c0c0c; "/>
<path d=" 
M18.0000,-4466.5560
C18.0000,-4466.3880 17.8620,-4466.2500 17.6940,-4466.2500
L16.0560,-4466.2500
C15.8880,-4466.2500 15.7500,-4466.3880 15.7500,-4466.5560
L15.7500,-4467.4440
C15.7500,-4467.6120 15.8880,-4467.7500 16.0560,-4467.7500
L17.6940,-4467.7500
C17.8620,-4467.7500 18.0000,-4467.6120 18.0000,-4467.4440
L18.0000,-4466.5560
Z" 
style="fill-rule: evenodd; fill: #0c0c0c; "/>
<path d=" 
M45.0000,-4466.5560
C45.0000,-4466.3880 44.8620,-4466.2500 44.6940,-4466.2500
L43.0560,-4466.2500
C42.8880,-4466.2500 42.7500,-4466.3880 42.7500,-4466.5560
L42.7500,-4467.4440
C42.7500,-4467.6120 42.8880,-4467.7500 43.0560,-4467.7500
L44.6940,-4467.7500
C44.8620,-4467.7500 45.0000,-4467.6120 45.0000,-4467.4440
L45.0000,-4466.5560
Z" 
style="fill-rule: evenodd; fill: #0c0c0c; "/>
<path d=" 
M49.5000,-4466.5560
C49.5000,-4466.3880 49.3620,-4466.2500 49.1940,-4466.2500
L47.5560,-4466.2500
C47.3880,-4466.2500 47.2500,-4466.3880 47.2500,-4466.5560
L47.2500,-4467.4440
C47.2500,-4467.6120 47.3880,-4467.7500 47.5560,-4467.7500
L49.1940,-4467.7500
C49.3620,-4467.7500 49.5000,-4467.6120 49.5000,-4467.4440
L49.5000,-4466.5560
Z" 
style="fill-rule: evenodd; fill: #0c0c0c; "/>
<path d=" 
M54.0000,-4466.5560
C54.0000,-4466.3880 53.8620,-4466.2500 53.6940,-4466.2500
L52.0560,-4466.2500
C51.8880,-4466.2500 51.7500,-4466.3880 51.7500,-4466.5560
L51.7500,-4467.4440
C51.7500,-4467.6120 51.8880,-4467.7500 52.0560,-4467.7500
L53.6940,-4467.7500
C53.8620,-4467.7500 54.0000,-4467.6120 54.0000,-4467.4440
L54.0000,-4466.5560
Z" 
style="fill-rule: evenodd; fill: #0c0c0c; "/>
<path d=" 
M40.5000,-4466.5560
C40.5000,-4466.3880 40.3620,-4466.2500 40.1940,-4466.2500
L20.5560,-4466.2500
C20.3880,-4466.2500 20.2500,-4466.3880 20.2500,-4466.5560
L20.2500,-4467.4440
C20.2500,-4467.6120 20.3880,-4467.7500 20.5560,-4467.7500
L40.1940,-4467.7500
C40.3620,-4467.7500 40.5000,-4467.6120 40.5000,-4467.4440
L40.5000,-4466.5560
Z" 
style="fill-rule: evenodd; fill: #0c0c0c; "/>
<path d=" 
M9.0000,-4466.5560
C9.0000,-4466.3880 8.8620,-4466.2500 8.6940,-4466.2500
L7.0560,-4466.2500
C6.8880,-4466.2500 6.7500,-4466.3880 6.7500,-4466.5560
L6.7500,-4467.4440
C6.7500,-4467.6120 6.8880,-4467.7500 7.0560,-4467.7500
L8.6940,-4467.7500
C8.8620,-4467.7500 9.0000,-4467.6120 9.0000,-4467.4440
L9.0000,-4466.5560
Z" 
style="fill-rule: evenodd; fill: #0c0c0c; "/>
<path d=" 
M57.0000,-4536.0000
L3.7500,-4536.0000
C1.6875,-4536.0000 0.0000,-4534.3125 0.0000,-4532.2500
L0.0000,-4497.0000
C0.0000,-4494.9375 1.6875,-4493.2500 3.7500,-4493.2500
L23.9550,-4493.2500
C23.6610,-4487.7472 21.7808,-4483.5000 19.5000,-4483.5000
L19.5165,-4483.5000
C18.4680,-4483.5000 18.0000,-4482.7230 18.0000,-4482.0000
L18.0000,-4479.0000
L40.5000,-4479.0000
L40.5000,-4482.0000
C40.5000,-4482.7230 40.0313,-4483.5000 38.8260,-4483.5000
L38.8418,-4483.5000
C36.5602,-4483.5000 34.6800,-4487.7472 34.3868,-4493.2500
L57.0000,-4493.2500
C59.0625,-4493.2500 60.7500,-4494.9375 60.7500,-4497.0000
L60.7500,-4532.2500
C60.7500,-4534.3125 59.0625,-4536.0000 57.0000,-4536.0000
Z
M36.6817,-4482.7500
L33.7500,-4482.7500
C33.5423,-4482.7500 33.3750,-4482.5820 33.3750,-4482.3750
C33.3750,-4482.1687 33.5423,-4482.0000 33.7500,-4482.0000
L38.6250,-4482.0000
C38.8328,-4482.0000 39.0000,-4481.8312 39.0000,-4481.6250
L39.0000,-4480.5000
L19.5000,-4480.5000
L19.5000,-4481.6250
C19.5000,-4481.8312 19.6680,-4482.0000 19.8758,-4482.0000
L24.7500,-4482.0000
C24.9578,-4482.0000 25.1250,-4482.1687 25.1250,-4482.3750
C25.1250,-4482.5820 24.9578,-4482.7500 24.7500,-4482.7500
L21.6593,-4482.7500
C23.9355,-4484.4270 25.2285,-4488.7207 25.4618,-4493.2500
L26.7495,-4493.2500
C26.7495,-4491.8715 27.8715,-4490.7495 29.2500,-4490.7495
C30.6285,-4490.7495 31.7505,-4491.8715 31.7505,-4493.2500
L32.8800,-4493.2500
C33.1125,-4488.7207 34.4055,-4484.4270 36.6817,-4482.7500
Z
M27.3750,-4493.2500
L31.1250,-4493.2500
C31.1250,-4492.2142 30.2858,-4491.3750 29.2500,-4491.3750
C28.2143,-4491.3750 27.3750,-4492.2142 27.3750,-4493.2500
Z
M59.2500,-4497.0000
C59.2500,-4495.7595 58.2405,-4494.7500 57.0000,-4494.7500
L3.7500,-4494.7500
C2.5095,-4494.7500 1.5000,-4495.7595 1.5000,-4497.0000
L1.5000,-4532.2500
C1.5000,-4533.4905 2.5095,-4534.5000 3.7500,-4534.5000
L57.0000,-4534.5000
C58.2405,-4534.5000 59.2500,-4533.4905 59.2500,-4532.2500
L59.2500,-4497.0000
Z" 
style="fill-rule: evenodd; fill: #0c0c0c; "/>
<path d=" 
M54.0000,-4530.7500
C54.8280,-4530.7500 55.5000,-4530.0780 55.5000,-4529.2500
L55.5000,-4500.0000
C55.5000,-4499.1727 54.8280,-4498.5000 54.0000,-4498.5000
L6.7500,-4498.5000
C5.9228,-4498.5000 5.2500,-4499.1720 5.2500,-4500.0000
L5.2500,-4529.2500
C5.2500,-4530.0772 5.9220,-4530.7500 6.7500,-4530.7500
L54.0000,-4530.7500
Z
M54.0000,-4531.5000
L6.7500,-4531.5000
C5.5133,-4531.5000 4.5000,-4530.4867 4.5000,-4529.2500
L4.5000,-4500.0000
C4.5000,-4498.7632 5.5133,-4497.7500 6.7500,-4497.7500
L54.0000,-4497.7500
C55.2367,-4497.7500 56.2500,-4498.7632 56.2500,-4500.0000
L56.2500,-4529.2500
C56.2500,-4530.4867 55.2367,-4531.5000 54.0000,-4531.5000
Z" 
style="fill-rule: evenodd; fill: #0c0c0c; "/>
<path d=" 
M69.7500,-4472.2500
C65.7128,-4472.2500 63.0000,-4470.4410 63.0000,-4467.7500
C63.0000,-4466.0962 64.3785,-4464.7500 66.0743,-4464.7500
L73.4265,-4464.7500
C75.1223,-4464.7500 76.5008,-4466.0962 76.5008,-4467.7500
C76.5000,-4470.4410 73.7873,-4472.2500 69.7500,-4472.2500
Z
M73.4258,-4465.5000
L66.0735,-4465.5000
C64.7963,-4465.5000 63.7500,-4466.5125 63.7500,-4467.7500
C63.7500,-4469.9797 66.0413,-4471.2862 69.0000,-4471.4737
L69.0000,-4470.3750
C69.0000,-4469.9610 69.3353,-4469.6250 69.7500,-4469.6250
C70.1648,-4469.6250 70.5000,-4469.9610 70.5000,-4470.3750
L70.5000,-4471.4737
C73.4588,-4471.2862 75.7500,-4469.9797 75.7500,-4467.7500
C75.7500,-4466.5125 74.7038,-4465.5000 73.4258,-4465.5000
Z" 
style="fill-rule: evenodd; fill: #0c0c0c; "/>
<path d=" 
M57.0000,-4475.2500
L3.7500,-4475.2500
C2.9250,-4475.2500 2.2500,-4474.5757 2.2500,-4473.7500
L2.2500,-4464.0000
C2.2500,-4463.1750 2.9243,-4462.5000 3.7500,-4462.5000
L57.0000,-4462.5000
C57.8257,-4462.5000 58.5000,-4463.1750 58.5000,-4464.0000
L58.5000,-4473.7500
C58.5000,-4474.5757 57.8257,-4475.2500 57.0000,-4475.2500
Z
M57.0000,-4473.7500
L57.0000,-4472.1502
L57.0000,-4464.0000
L3.7500,-4464.0000
L3.7500,-4472.1502
L3.7500,-4473.7500
L3.7500,-4473.8497
C3.7500,-4474.2622 4.0875,-4474.5997 4.5000,-4474.5997
L56.2500,-4474.5997
C56.6633,-4474.5997 57.0000,-4474.2622 57.0000,-4473.8497
L57.0000,-4473.7500
Z" 
style="fill-rule: evenodd; fill: #0c0c0c; "/>
<text x="0.0000" y="-4462.5000">
<tspan font-family="Arial Narrow" font-weight="bold" font-size="12.0000" fill="#000000" fill-opacity="1.0000" stroke-opacity="1.0000" >
Desktop</tspan>
</text>
<g id="Layer1017" >
<path d=" 
M29.2500,-4491.3751
C30.2858,-4491.3751 31.1250,-4492.2144 31.1250,-4493.2501
L27.3750,-4493.2501
C27.3750,-4492.2144 28.2143,-4491.3751 29.2500,-4491.3751
Z" 
style="stroke-width: 0.7200; stroke-linecap: round; stroke-linejoin: round; fill-rule: evenodd; fill: #ffffff; "/>
<path d=" 
M29.2500,-4491.3751
C30.2858,-4491.3751 31.1250,-4492.2144 31.1250,-4493.2501
L27.3750,-4493.2501
C27.3750,-4492.2144 28.2143,-4491.3751 29.2500,-4491.3751
Z" 
style="stroke-width: 0.7200; stroke: #ffffff; stroke-dasharray: none; stroke-linecap: round; stroke-linejoin: round; fill: none; "/>
</g>
<g id="Layer1018" >
<path d=" 
M4.5000,-4500.0001
C4.5000,-4498.7634 5.5133,-4497.7501 6.7500,-4497.7501
L54.0000,-4497.7501
C55.2368,-4497.7501 56.2500,-4498.7634 56.2500,-4500.0001
L56.2500,-4529.2501
C56.2500,-4530.4869 55.2368,-4531.5001 54.0000,-4531.5001
L6.7500,-4531.5001
C5.5133,-4531.5001 4.5000,-4530.4869 4.5000,-4529.2501
L4.5000,-4500.0001
Z
M6.7500,-4498.5001
C5.9228,-4498.5001 5.2500,-4499.1721 5.2500,-4500.0001
L5.2500,-4529.2501
C5.2500,-4530.0774 5.9220,-4530.7501 6.7500,-4530.7501
L54.0000,-4530.7501
C54.8280,-4530.7501 55.5000,-4530.0781 55.5000,-4529.2501
L55.5000,-4500.0001
C55.5000,-4499.1729 54.8280,-4498.5001 54.0000,-4498.5001
L6.7500,-4498.5001
Z" 
style="stroke-width: 0.7200; stroke-linecap: round; stroke-linejoin: round; fill-rule: evenodd; fill: #ffffff; "/>
<path d=" 
M4.5000,-4500.0001
C4.5000,-4498.7634 5.5133,-4497.7501 6.7500,-4497.7501
L54.0000,-4497.7501
C55.2368,-4497.7501 56.2500,-4498.7634 56.2500,-4500.0001
L56.2500,-4529.2501
C56.2500,-4530.4869 55.2368,-4531.5001 54.0000,-4531.5001
L6.7500,-4531.5001
C5.5133,-4531.5001 4.5000,-4530.4869 4.5000,-4529.2501
L4.5000,-4500.0001
Z
M6.7500,-4498.5001
C5.9228,-4498.5001 5.2500,-4499.1721 5.2500,-4500.0001
L5.2500,-4529.2501
C5.2500,-4530.0774 5.9220,-4530.7501 6.7500,-4530.7501
L54.0000,-4530.7501
C54.8280,-4530.7501 55.5000,-4530.0781 55.5000,-4529.2501
L55.5000,-4500.0001
C55.5000,-4499.1729 54.8280,-4498.5001 54.0000,-4498.5001
L6.7500,-4498.5001
Z" 
style="stroke-width: 0.7200; stroke: #000000; stroke-dasharray: none; stroke-linecap: round; stroke-linejoin: round; fill: none; "/>
</g>
</svg>
