<?xml version="1.0" encoding="UTF-8" standalone="no"?>
<svg version="1.1" xmlns="http://www.w3.org/2000/svg" xmlns:xlink="http://www.w3.org/1999/xlink" width="1.0938in" height="0.8438in" viewBox="0 0 78.7500 60.7500" >
<g id="Layer1019" >
<path d=" 
M75.0000,-4476.7498
C76.2405,-4476.7498 77.2500,-4477.7593 77.2500,-4478.9998
L77.2500,-4482.7498
L47.2500,-4482.7498
L47.2500,-4481.6248
C47.2500,-4480.5913 46.4085,-4479.7498 45.3750,-4479.7498
L33.3750,-4479.7498
C32.3415,-4479.7498 31.5000,-4480.5913 31.5000,-4481.6248
L31.5000,-4482.7498
L1.5000,-4482.7498
L1.5000,-4478.9998
C1.5000,-4477.7593 2.5095,-4476.7498 3.7500,-4476.7498
L75.0000,-4476.7498
Z
M32.2500,-4481.6248
C32.2500,-4481.0046 32.7540,-4480.4998 33.3750,-4480.4998
L45.3750,-4480.4998
C45.9952,-4480.4998 46.5000,-4481.0046 46.5000,-4481.6248
L46.5000,-4482.7498
L32.2500,-4482.7498
L32.2500,-4481.6248
Z
M6.0000,-4534.4998
C4.7595,-4534.4998 3.7500,-4533.4903 3.7500,-4532.2498
L3.7500,-4484.2498
L75.0000,-4484.2498
L75.0000,-4532.2498
C75.0000,-4533.4903 73.9905,-4534.4998 72.7500,-4534.4998
L6.0000,-4534.4998
Z" 
style="stroke-width: 0.7200; stroke-linecap: round; stroke-linejoin: round; fill-rule: evenodd; fill: #ffffff; "/>
<path d=" 
M75.0000,-4476.7498
C76.2405,-4476.7498 77.2500,-4477.7593 77.2500,-4478.9998
L77.2500,-4482.7498
L47.2500,-4482.7498
L47.2500,-4481.6248
C47.2500,-4480.5913 46.4085,-4479.7498 45.3750,-4479.7498
L33.3750,-4479.7498
C32.3415,-4479.7498 31.5000,-4480.5913 31.5000,-4481.6248
L31.5000,-4482.7498
L1.5000,-4482.7498
L1.5000,-4478.9998
C1.5000,-4477.7593 2.5095,-4476.7498 3.7500,-4476.7498
L75.0000,-4476.7498
Z
M32.2500,-4481.6248
C32.2500,-4481.0046 32.7540,-4480.4998 33.3750,-4480.4998
L45.3750,-4480.4998
C45.9952,-4480.4998 46.5000,-4481.0046 46.5000,-4481.6248
L46.5000,-4482.7498
L32.2500,-4482.7498
L32.2500,-4481.6248
Z
M6.0000,-4534.4998
C4.7595,-4534.4998 3.7500,-4533.4903 3.7500,-4532.2498
L3.7500,-4484.2498
L75.0000,-4484.2498
L75.0000,-4532.2498
C75.0000,-4533.4903 73.9905,-4534.4998 72.7500,-4534.4998
L6.0000,-4534.4998
Z" 
style="stroke-width: 0.7200; stroke: #ffffff; stroke-dasharray: none; stroke-linecap: round; stroke-linejoin: round; fill: none; "/>
</g>
<path d=" 
M69.7500,-4530.7500
C70.5780,-4530.7500 71.2500,-4530.0780 71.2500,-4529.2500
L71.2500,-4491.0000
C71.2500,-4490.1720 70.5780,-4489.5000 69.7500,-4489.5000
L9.0000,-4489.5000
C8.1727,-4489.5000 7.5000,-4490.1720 7.5000,-4491.0000
L7.5000,-4529.2500
C7.5000,-4530.0772 8.1720,-4530.7500 9.0000,-4530.7500
L69.7500,-4530.7500
Z
M69.7500,-4531.5000
L9.0000,-4531.5000
C7.7632,-4531.5000 6.7500,-4530.4868 6.7500,-4529.2500
L6.7500,-4491.0000
C6.7500,-4489.7632 7.7632,-4488.7500 9.0000,-4488.7500
L69.7500,-4488.7500
C70.9868,-4488.7500 72.0000,-4489.7632 72.0000,-4491.0000
L72.0000,-4529.2500
C72.0000,-4530.4868 70.9868,-4531.5000 69.7500,-4531.5000
Z" 
style="fill-rule: evenodd; fill: #0c0c0c; "/>
<path d=" 
M65.2500,-4479.7500
L72.0000,-4479.7500
L72.0000,-4480.5000
L65.2500,-4480.5000
L65.2500,-4479.7500
Z" 
style="fill-rule: evenodd; fill: #0c0c0c; "/>
<path d=" 
M76.5000,-4484.2500
L76.5000,-4532.2500
C76.5000,-4534.3125 74.8125,-4536.0000 72.7500,-4536.0000
L6.0000,-4536.0000
C3.9375,-4536.0000 2.2500,-4534.3125 2.2500,-4532.2500
L2.2500,-4484.2500
L0.0000,-4484.2500
L0.0000,-4479.7500
L0.0000,-4479.0000
C0.0000,-4476.9375 1.6875,-4475.2500 3.7500,-4475.2500
L75.0000,-4475.2500
C77.0625,-4475.2500 78.7500,-4476.9375 78.7500,-4479.0000
L78.7500,-4479.7500
L78.7500,-4484.2500
L76.5000,-4484.2500
Z
M3.7500,-4532.2500
C3.7500,-4533.4905 4.7595,-4534.5000 6.0000,-4534.5000
L72.7500,-4534.5000
C73.9905,-4534.5000 75.0000,-4533.4905 75.0000,-4532.2500
L75.0000,-4484.2500
L32.2500,-4484.2500
L31.5000,-4484.2500
L3.7500,-4484.2500
L3.7500,-4532.2500
Z
M32.2500,-4482.7500
L46.5000,-4482.7500
L46.5000,-4481.6250
C46.5000,-4481.0048 45.9953,-4480.5000 45.3750,-4480.5000
L33.3750,-4480.5000
C32.7540,-4480.5000 32.2500,-4481.0048 32.2500,-4481.6250
L32.2500,-4482.7500
Z
M77.2500,-4479.0000
C77.2500,-4477.7595 76.2405,-4476.7500 75.0000,-4476.7500
L3.7500,-4476.7500
C2.5095,-4476.7500 1.5000,-4477.7595 1.5000,-4479.0000
L1.5000,-4479.7500
L1.5000,-4482.7500
L31.5000,-4482.7500
L31.5000,-4481.6250
C31.5000,-4480.5915 32.3415,-4479.7500 33.3750,-4479.7500
L45.3750,-4479.7500
C46.4085,-4479.7500 47.2500,-4480.5915 47.2500,-4481.6250
L47.2500,-4482.7500
L77.2500,-4482.7500
L77.2500,-4479.7500
L77.2500,-4479.0000
Z" 
style="fill-rule: evenodd; fill: #0c0c0c; "/>
<text x="0.0000" y="-4475.2500">
<tspan font-family="Arial Narrow" font-weight="bold" font-size="12.0000" fill="#000000" fill-opacity="1.0000" stroke-opacity="1.0000" >
Laptop</tspan>
</text>
</svg>
