<?xml version="1.0" encoding="UTF-8" standalone="no"?>
<svg version="1.1" xmlns="http://www.w3.org/2000/svg" xmlns:xlink="http://www.w3.org/1999/xlink" width="0.4375in" height="0.4375in" viewBox="0 0 31.5000 31.5000" >
<g id="Layer1138" >
<path d=" 
M30.0938,-4520.2502
A14.3438,14.3438 180.0000 1,1 15.7500,-4534.5939
A14.3438,14.3438 180.0000 0,1 30.0938,-4520.2502
Z" 
style="stroke-width: 0.7200; stroke-linecap: round; stroke-linejoin: round; fill-rule: evenodd; fill: #ffffff; "/>
<path d=" 
M30.0938,-4520.2502
A14.3438,14.3438 180.0000 1,1 15.7500,-4534.5939
A14.3438,14.3438 180.0000 0,1 30.0938,-4520.2502
Z" 
style="stroke-width: 0.7200; stroke: #ffffff; stroke-dasharray: none; stroke-linecap: round; stroke-linejoin: round; fill: none; "/>
</g>
<path d=" 
M15.7500,-4533.7500
C23.1945,-4533.7500 29.2500,-4527.6938 29.2500,-4520.2500
C29.2500,-4512.8055 23.1945,-4506.7500 15.7500,-4506.7500
C8.3063,-4506.7500 2.2500,-4512.8055 2.2500,-4520.2500
C2.2500,-4527.6938 8.3063,-4533.7500 15.7500,-4533.7500
Z
M15.7500,-4536.0000
C7.0515,-4536.0000 0.0000,-4528.9485 0.0000,-4520.2500
C0.0000,-4511.5515 7.0515,-4504.5000 15.7500,-4504.5000
C24.4485,-4504.5000 31.5000,-4511.5515 31.5000,-4520.2500
C31.5000,-4528.9485 24.4485,-4536.0000 15.7500,-4536.0000
Z
M18.7500,-4515.3750
C18.7500,-4515.9833 17.7322,-4516.6770 16.0260,-4517.2312
C14.4818,-4517.7338 12.7710,-4518.0000 12.1298,-4518.0000
C11.5455,-4518.0000 8.5927,-4517.2020 7.4048,-4515.8745
C6.9300,-4515.3443 6.8423,-4514.7660 7.1370,-4514.1083
C7.3088,-4513.7227 7.6012,-4513.3432 7.9598,-4512.9833
C8.0550,-4513.1002 8.2147,-4513.1557 8.3663,-4513.1070
C8.3760,-4513.1033 9.3870,-4512.7837 11.2575,-4512.7500
C13.1273,-4512.7133 15.2122,-4513.2683 16.6747,-4514.1923
C16.8502,-4514.3018 17.0820,-4514.2500 17.1922,-4514.0760
C17.3025,-4513.9005 17.2500,-4513.6687 17.0760,-4513.5585
C15.5415,-4512.5903 13.3890,-4511.9992 11.4188,-4511.9992
C11.3603,-4511.9992 11.3017,-4511.9992 11.2440,-4512.0008
C10.1648,-4512.0203 9.3667,-4512.1298 8.8447,-4512.2280
C10.2090,-4511.2200 11.9482,-4510.5000 12.7500,-4510.5000
C14.9213,-4510.5000 18.7485,-4513.3185 18.7500,-4515.3750
Z
M21.3750,-4510.1250
C21.6165,-4509.7440 21.7297,-4509.3922 21.8280,-4509.0450
C23.4315,-4509.9180 24.8212,-4511.1292 25.9170,-4512.5760
C25.5023,-4513.5495 25.1490,-4514.6138 24.8708,-4515.8422
C23.7780,-4520.6573 25.1430,-4519.2667 24.1762,-4523.4712
C23.7060,-4525.5653 22.8698,-4527.2265 21.9398,-4528.3207
C21.0113,-4529.4390 19.7363,-4530.0458 19.1243,-4530.3750
C17.7007,-4531.1400 14.1247,-4532.4990 9.8153,-4530.2640
C5.7742,-4528.1573 5.8178,-4523.8567 6.4020,-4515.6915
C6.5070,-4515.9285 6.6510,-4516.1587 6.8445,-4516.3755
C7.2053,-4516.7782 7.6995,-4517.1345 8.2403,-4517.4420
C7.0552,-4519.5750 7.0507,-4523.9423 9.7500,-4523.2500
C11.4510,-4522.8135 12.0315,-4520.5320 11.6550,-4518.6938
C11.8537,-4518.7298 12.0188,-4518.7500 12.1298,-4518.7500
C12.6323,-4518.7500 13.5435,-4518.6255 14.5327,-4518.4073
C14.0198,-4519.9860 14.3302,-4522.0087 15.4868,-4522.9778
C18.8617,-4525.8053 22.3012,-4518.5745 18.8032,-4516.6672
C19.2600,-4516.2667 19.5000,-4515.8363 19.5000,-4515.3750
C19.5000,-4514.8620 19.3305,-4514.3377 19.0470,-4513.8247
C20.3370,-4513.6057 20.0932,-4512.1642 21.3750,-4510.1250
Z
M7.9920,-4510.1550
C7.9972,-4510.9702 8.0257,-4511.2733 8.1000,-4511.8387
C7.4393,-4512.3705 6.8888,-4512.9765 6.5543,-4513.6170
C6.5782,-4513.2915 6.6015,-4512.9765 6.6262,-4512.6405
C6.6547,-4512.2340 6.6158,-4511.8485 6.5325,-4511.4727
C6.9848,-4510.9987 7.4715,-4510.5555 7.9920,-4510.1550
Z
M10.6620,-4520.2238
C10.5645,-4520.0235 10.3635,-4519.8825 10.1250,-4519.8825
C9.7927,-4519.8825 9.5227,-4520.1517 9.5227,-4520.4847
C9.5227,-4520.7548 9.7035,-4520.9745 9.9487,-4521.0510
C9.7920,-4521.1327 9.6225,-4521.1920 9.4275,-4521.1920
C7.9305,-4521.1920 8.0932,-4518.7148 8.9475,-4517.7480
C9.4380,-4517.9617 10.2540,-4518.2280 10.7963,-4518.3967
C10.9478,-4518.9653 10.8975,-4519.6658 10.6620,-4520.2238
Z
M18.6270,-4520.2590
C18.5378,-4520.0385 18.3233,-4519.8825 18.0705,-4519.8825
C17.7383,-4519.8825 17.4683,-4520.1517 17.4683,-4520.4847
C17.4683,-4520.7712 17.6715,-4521.0000 17.9400,-4521.0607
C17.7405,-4521.1718 17.5102,-4521.2377 17.2455,-4521.2377
C15.6495,-4521.2377 15.0885,-4518.9203 16.0088,-4517.8898
C16.4033,-4517.7487 16.8502,-4517.5830 17.2688,-4517.4128
C18.7035,-4517.4952 19.1063,-4519.1528 18.6270,-4520.2590
Z" 
style="fill-rule: evenodd; fill: #010101; "/>
</svg>
