<?xml version="1.0" encoding="UTF-8" standalone="no"?>
<svg version="1.1" xmlns="http://www.w3.org/2000/svg" xmlns:xlink="http://www.w3.org/1999/xlink" width="0.4375in" height="0.4375in" viewBox="0 0 31.5000 31.5000" >
<g id="Layer1139" >
<path d=" 
M30.0938,-4520.2502
A14.3438,14.3438 180.0000 1,1 15.7500,-4534.5939
A14.3438,14.3438 180.0000 0,1 30.0938,-4520.2502
Z" 
style="stroke-width: 0.7200; stroke-linecap: round; stroke-linejoin: round; fill-rule: evenodd; fill: #ffffff; "/>
<path d=" 
M30.0938,-4520.2502
A14.3438,14.3438 180.0000 1,1 15.7500,-4534.5939
A14.3438,14.3438 180.0000 0,1 30.0938,-4520.2502
Z" 
style="stroke-width: 0.7200; stroke: #ffffff; stroke-dasharray: none; stroke-linecap: round; stroke-linejoin: round; fill: none; "/>
</g>
<path d=" 
M15.7500,-4533.7500
C23.1945,-4533.7500 29.2500,-4527.6938 29.2500,-4520.2500
C29.2500,-4512.8055 23.1945,-4506.7500 15.7500,-4506.7500
C8.3063,-4506.7500 2.2500,-4512.8055 2.2500,-4520.2500
C2.2500,-4527.6938 8.3063,-4533.7500 15.7500,-4533.7500
Z
M15.7500,-4536.0000
C7.0515,-4536.0000 0.0000,-4528.9485 0.0000,-4520.2500
C0.0000,-4511.5515 7.0515,-4504.5000 15.7500,-4504.5000
C24.4485,-4504.5000 31.5000,-4511.5515 31.5000,-4520.2500
C31.5000,-4528.9485 24.4485,-4536.0000 15.7500,-4536.0000
Z
M21.9832,-4524.4628
C21.3030,-4525.3110 20.3873,-4526.1592 18.9788,-4526.1592
C17.9933,-4526.1592 17.1713,-4525.1940 15.8085,-4525.1940
C14.7293,-4525.1940 14.2837,-4526.1128 13.1093,-4526.1128
C10.6673,-4526.1128 8.2500,-4523.9213 8.2500,-4521.0690
C8.2500,-4519.5608 8.7428,-4517.2275 9.8468,-4515.2010
C10.6447,-4513.7160 11.6310,-4512.7500 12.7342,-4512.7500
C13.5323,-4512.7500 14.4712,-4513.4813 15.5978,-4513.4813
C16.5832,-4513.4813 17.4990,-4512.8212 18.3915,-4512.8212
C20.5290,-4512.8212 22.5007,-4515.6022 22.5007,-4517.4637
C22.5007,-4517.5575 22.4775,-4517.6280 22.4775,-4517.6977
L22.4775,-4517.8162
C21.0915,-4518.5707 20.3408,-4519.6777 20.3408,-4521.2805
C20.3408,-4522.5773 20.9040,-4523.7075 21.9375,-4524.4380
L21.9832,-4524.4628
Z
M15.7612,-4525.4985
C17.3573,-4525.9935 18.8362,-4527.1957 18.8362,-4529.2935
C18.8362,-4529.4585 18.8130,-4529.6708 18.7898,-4529.9055
L18.7658,-4530.0000
C17.1457,-4529.5515 15.6893,-4528.2795 15.6893,-4526.2762
C15.6893,-4526.0872 15.7125,-4525.8525 15.7605,-4525.5930
L15.7605,-4525.4985
L15.7612,-4525.4985
Z" 
style="fill-rule: evenodd; fill: #010101; "/>
</svg>
