<?xml version="1.0" encoding="UTF-8" standalone="no"?>
<svg version="1.1" xmlns="http://www.w3.org/2000/svg" xmlns:xlink="http://www.w3.org/1999/xlink" width="0.4375in" height="0.4375in" viewBox="0 0 31.5000 31.5000" >
<g id="Layer1140" >
<path d=" 
M30.0938,-4520.2502
A14.3438,14.3438 180.0000 1,1 15.7500,-4534.5939
A14.3438,14.3438 180.0000 0,1 30.0938,-4520.2502
Z" 
style="stroke-width: 0.7200; stroke-linecap: round; stroke-linejoin: round; fill-rule: evenodd; fill: #ffffff; "/>
<path d=" 
M30.0938,-4520.2502
A14.3438,14.3438 180.0000 1,1 15.7500,-4534.5939
A14.3438,14.3438 180.0000 0,1 30.0938,-4520.2502
Z" 
style="stroke-width: 0.7200; stroke: #ffffff; stroke-dasharray: none; stroke-linecap: round; stroke-linejoin: round; fill: none; "/>
</g>
<path d=" 
M18.5467,-4522.0973
C18.5467,-4522.0973 18.1717,-4520.9835 18.7170,-4519.9245
C17.8950,-4520.4277 16.9897,-4520.8117 16.0282,-4521.0480
L15.9952,-4521.0615
C15.9952,-4521.0615 15.7508,-4522.0328 16.5608,-4522.8240
C16.5608,-4522.8240 17.1383,-4523.3805 17.4907,-4523.6145
C17.4907,-4523.6145 18.8632,-4524.4237 18.3510,-4525.8382
C18.3510,-4525.8382 18.1290,-4526.4285 18.0930,-4526.4555
C18.0930,-4526.4555 18.8235,-4525.7175 19.0778,-4524.7733
C19.0778,-4524.7733 19.3515,-4524.0780 18.9203,-4523.1060
C18.9210,-4523.1067 18.5730,-4522.2413 18.5467,-4522.0973
Z
M21.3600,-4517.5163
C21.2707,-4518.6818 22.0162,-4519.5548 22.0162,-4519.5548
C22.0927,-4519.6785 22.7370,-4520.3505 22.7370,-4520.3505
C23.5005,-4521.0908 23.5065,-4521.8400 23.5065,-4521.8400
C23.6242,-4522.8112 23.2215,-4523.7668 23.2215,-4523.7668
C23.2425,-4523.7300 23.2290,-4523.0985 23.2290,-4523.0985
C23.1765,-4521.5970 21.6015,-4521.3555 21.6015,-4521.3555
C21.1853,-4521.2693 20.4412,-4520.9685 20.4412,-4520.9685
C19.4715,-4520.5673 19.2855,-4519.6867 19.2645,-4519.5600
C20.0647,-4518.9900 20.7705,-4518.3000 21.3600,-4517.5163
Z
M27.0000,-4519.4475
C27.0067,-4519.4025 26.7570,-4518.8220 26.7570,-4518.8220
C26.1510,-4517.4473 24.6000,-4517.8095 24.6000,-4517.8095
C24.1830,-4517.8845 23.3805,-4517.8815 23.3805,-4517.8800
C22.2487,-4517.8680 21.7560,-4516.9980 21.7560,-4516.9980
L21.8153,-4516.8540
C22.3073,-4516.0665 22.6875,-4515.2025 22.9328,-4514.2830
C23.2673,-4515.4312 24.3150,-4515.9840 24.3165,-4515.9840
C24.4350,-4516.0665 25.2810,-4516.4543 25.2810,-4516.4543
C26.2650,-4516.8592 26.5485,-4517.5500 26.5485,-4517.5500
C27.0165,-4518.4087 27.0000,-4519.4475 27.0000,-4519.4475
Z
M15.2783,-4521.1987
C14.4195,-4521.9810 14.3572,-4523.1202 14.3572,-4523.1202
C14.3243,-4523.2635 14.3287,-4524.1928 14.3302,-4524.1928
C14.3700,-4525.2548 13.8577,-4525.8015 13.8577,-4525.8015
C13.2742,-4526.5853 12.3203,-4527.0000 12.3203,-4527.0000
C12.3637,-4526.9880 12.7898,-4526.5207 12.7898,-4526.5207
C13.7873,-4525.3995 12.8137,-4524.1357 12.8137,-4524.1357
C12.5723,-4523.7877 12.2415,-4523.0572 12.2415,-4523.0572
C11.8087,-4522.0800 12.3075,-4521.3038 12.3637,-4521.2205
C12.8497,-4521.2933 13.3500,-4521.3263 13.8562,-4521.3202
C14.3407,-4521.3165 14.8162,-4521.2753 15.2783,-4521.1987
Z
M10.0830,-4522.5390
C10.0043,-4522.6597 9.6578,-4523.5245 9.6578,-4523.5245
C9.3000,-4524.5258 8.6228,-4524.8415 8.6228,-4524.8415
C7.7865,-4525.3500 6.7500,-4525.3815 6.7500,-4525.3815
C6.7935,-4525.3860 7.3628,-4525.1107 7.3628,-4525.1107
C8.7082,-4524.4402 8.2740,-4522.9073 8.2740,-4522.9073
C8.1803,-4522.4940 8.1450,-4521.6923 8.1450,-4521.6923
C8.1030,-4520.5628 8.9505,-4520.0273 8.9505,-4520.0273
L8.9910,-4520.0415
C9.8138,-4520.5207 10.7160,-4520.8785 11.6723,-4521.0908
C10.5713,-4521.4943 10.0830,-4522.5390 10.0830,-4522.5390
Z
M15.7500,-4533.7500
C8.3063,-4533.7500 2.2500,-4527.6938 2.2500,-4520.2500
C2.2500,-4512.8055 8.3063,-4506.7500 15.7500,-4506.7500
C23.1945,-4506.7500 29.2500,-4512.8055 29.2500,-4520.2500
C29.2500,-4527.6938 23.1945,-4533.7500 15.7500,-4533.7500
Z
M15.7500,-4536.0000
C24.4485,-4536.0000 31.5000,-4528.9478 31.5000,-4520.2500
C31.5000,-4511.5515 24.4485,-4504.5000 15.7500,-4504.5000
C7.0515,-4504.5000 0.0000,-4511.5515 0.0000,-4520.2500
C0.0000,-4528.9478 7.0515,-4536.0000 15.7500,-4536.0000
Z" 
style="fill-rule: evenodd; fill: #010101; "/>
</svg>
