<?xml version="1.0" encoding="UTF-8" standalone="no"?>
<svg version="1.1" xmlns="http://www.w3.org/2000/svg" xmlns:xlink="http://www.w3.org/1999/xlink" width="0.4375in" height="0.4375in" viewBox="0 0 31.5000 31.5000" >
<g id="Layer1141" >
<path d=" 
M30.0938,-4520.2502
A14.3438,14.3438 180.0000 1,1 15.7500,-4534.5939
A14.3438,14.3438 180.0000 0,1 30.0938,-4520.2502
Z" 
style="stroke-width: 0.7200; stroke-linecap: round; stroke-linejoin: round; fill-rule: evenodd; fill: #ffffff; "/>
<path d=" 
M30.0938,-4520.2502
A14.3438,14.3438 180.0000 1,1 15.7500,-4534.5939
A14.3438,14.3438 180.0000 0,1 30.0938,-4520.2502
Z" 
style="stroke-width: 0.7200; stroke: #ffffff; stroke-dasharray: none; stroke-linecap: round; stroke-linejoin: round; fill: none; "/>
</g>
<path d=" 
M15.7500,-4533.7500
C23.1945,-4533.7500 29.2500,-4527.6938 29.2500,-4520.2500
C29.2500,-4512.8055 23.1945,-4506.7500 15.7500,-4506.7500
C8.3063,-4506.7500 2.2500,-4512.8055 2.2500,-4520.2500
C2.2500,-4527.6938 8.3063,-4533.7500 15.7500,-4533.7500
Z
M15.7500,-4536.0000
C7.0515,-4536.0000 0.0000,-4528.9485 0.0000,-4520.2500
C0.0000,-4511.5515 7.0515,-4504.5000 15.7500,-4504.5000
C24.4485,-4504.5000 31.5000,-4511.5515 31.5000,-4520.2500
C31.5000,-4528.9485 24.4485,-4536.0000 15.7500,-4536.0000
Z
M16.7303,-4527.1973
C15.8392,-4527.8130 14.8185,-4528.1250 13.6943,-4528.1250
C12.3255,-4528.1250 11.1855,-4527.6547 10.8045,-4527.4785
L9.3263,-4522.4047
C10.0193,-4522.6215 11.1142,-4522.9260 12.0450,-4523.0183
C12.1313,-4523.0273 12.2190,-4523.0310 12.3090,-4523.0310
C13.3815,-4523.0310 14.5913,-4522.4182 15.2220,-4522.0500
L16.7303,-4527.1973
Z
M14.7210,-4520.2410
C14.2283,-4520.5530 13.1970,-4521.1050 11.9723,-4521.1935
C11.8845,-4521.1995 11.7975,-4521.2025 11.7083,-4521.2025
C10.5315,-4521.2025 9.2168,-4520.6992 8.7743,-4520.5155
L7.3245,-4515.5025
C8.0198,-4515.7238 8.9175,-4515.8760 10.0777,-4515.9728
C10.1475,-4515.9780 10.2180,-4515.9810 10.2893,-4515.9810
C11.3325,-4515.9810 12.5580,-4515.3840 13.1940,-4515.0292
L14.7210,-4520.2410
Z
M17.6512,-4513.1250
C18.9188,-4513.1250 20.2627,-4513.6372 20.7082,-4513.8240
C21.5048,-4516.5863 21.9225,-4518.0383 22.1565,-4518.8100
C20.9737,-4518.4073 20.1930,-4518.3180 19.0590,-4518.2895
C18.1230,-4518.2895 16.9147,-4518.8955 16.2817,-4519.2525
L14.7877,-4514.1150
C14.8110,-4514.0993 14.8365,-4514.0835 14.8627,-4514.0670
C15.3270,-4513.7610 16.1902,-4513.1925 17.4277,-4513.1310
C17.5020,-4513.1265 17.5770,-4513.1250 17.6512,-4513.1250
Z
M19.7063,-4520.0093
C21.2925,-4520.0993 22.2743,-4520.5312 22.6942,-4520.7150
C22.7055,-4520.7203 22.7160,-4520.7248 22.7265,-4520.7300
L24.1823,-4525.7378
C23.4675,-4525.4970 22.3388,-4525.1782 21.3697,-4525.1782
C21.2235,-4525.1782 21.0795,-4525.1858 20.9437,-4525.2000
C19.7108,-4525.3395 18.8332,-4525.7828 18.2880,-4526.1255
L16.7775,-4521.0105
C17.1630,-4520.7015 18.1800,-4520.0025 19.4843,-4520.0025
C19.5577,-4520.0025 19.6313,-4520.0048 19.7063,-4520.0093
Z" 
style="fill-rule: evenodd; fill: #010101; "/>
</svg>
