<?xml version="1.0" encoding="UTF-8" standalone="no"?>
<svg version="1.1" xmlns="http://www.w3.org/2000/svg" xmlns:xlink="http://www.w3.org/1999/xlink" width="0.9688in" height="1.2188in" viewBox="0 0 69.7500 87.7500" >
<g id="Layer1073" >
<path d=" 
M41.6298,-4473.7501
C44.5141,-4477.4045 48.9831,-4479.7501 54.0000,-4479.7501
C55.5600,-4479.7501 57.0630,-4479.5154 58.4850,-4479.0924
C58.4903,-4479.1869 58.5000,-4479.2799 58.5000,-4479.3751
L58.5000,-4530.0001
C58.5000,-4532.0679 56.8185,-4533.7501 54.7500,-4533.7501
L6.0000,-4533.7501
C3.9323,-4533.7501 2.2500,-4532.0679 2.2500,-4530.0001
L2.2500,-4479.3751
C2.2500,-4476.2724 4.7738,-4473.7501 7.8750,-4473.7501
L41.6298,-4473.7501
Z
M38.2500,-4464.0001
C38.2500,-4467.3464 39.2936,-4470.4490 41.0730,-4473.0001
L7.8750,-4473.0001
C5.4413,-4473.0001 3.3240,-4474.3711 2.2500,-4476.3811
L2.2500,-4463.2501
C2.2500,-4461.1816 3.9323,-4459.5001 6.0000,-4459.5001
L38.9108,-4459.5001
C38.4855,-4460.9266 38.2500,-4462.4356 38.2500,-4464.0001
Z
M67.5000,-4464.0002
A13.5000,13.5000 180.0000 1,1 54.0000,-4477.5002
A13.5000,13.5000 180.0000 0,1 67.5000,-4464.0002
Z" 
style="stroke-width: 0.7200; stroke-linecap: round; stroke-linejoin: round; fill-rule: evenodd; fill: #ffffff; "/>
<path d=" 
M41.6298,-4473.7501
C44.5141,-4477.4045 48.9831,-4479.7501 54.0000,-4479.7501
C55.5600,-4479.7501 57.0630,-4479.5154 58.4850,-4479.0924
C58.4903,-4479.1869 58.5000,-4479.2799 58.5000,-4479.3751
L58.5000,-4530.0001
C58.5000,-4532.0679 56.8185,-4533.7501 54.7500,-4533.7501
L6.0000,-4533.7501
C3.9323,-4533.7501 2.2500,-4532.0679 2.2500,-4530.0001
L2.2500,-4479.3751
C2.2500,-4476.2724 4.7738,-4473.7501 7.8750,-4473.7501
L41.6298,-4473.7501
Z
M38.2500,-4464.0001
C38.2500,-4467.3464 39.2936,-4470.4490 41.0730,-4473.0001
L7.8750,-4473.0001
C5.4413,-4473.0001 3.3240,-4474.3711 2.2500,-4476.3811
L2.2500,-4463.2501
C2.2500,-4461.1816 3.9323,-4459.5001 6.0000,-4459.5001
L38.9108,-4459.5001
C38.4855,-4460.9266 38.2500,-4462.4356 38.2500,-4464.0001
Z
M67.5000,-4464.0002
A13.5000,13.5000 180.0000 1,1 54.0000,-4477.5002
A13.5000,13.5000 180.0000 0,1 67.5000,-4464.0002
Z" 
style="stroke-width: 0.7200; stroke: #ffffff; stroke-dasharray: none; stroke-linecap: round; stroke-linejoin: round; fill: none; "/>
</g>
<path d=" 
M60.7417,-4478.2177
C60.7440,-4478.2163 60.7470,-4478.2148 60.7500,-4478.2140
L60.7500,-4530.0000
C60.7500,-4533.2993 58.0493,-4536.0000 54.7500,-4536.0000
L6.0000,-4536.0000
C2.7008,-4536.0000 0.0000,-4533.2993 0.0000,-4530.0000
L0.0000,-4463.2500
C0.0000,-4459.9507 2.7008,-4457.2500 6.0000,-4457.2500
L39.7860,-4457.2500
C39.7853,-4457.2530 39.7837,-4457.2560 39.7823,-4457.2582
C42.3105,-4451.9378 47.7180,-4448.2500 54.0000,-4448.2500
C62.6985,-4448.2500 69.7500,-4455.3015 69.7500,-4464.0000
C69.7500,-4470.2820 66.0622,-4475.6895 60.7417,-4478.2177
Z
M6.0000,-4459.5000
C3.9323,-4459.5000 2.2500,-4461.1815 2.2500,-4463.2500
L2.2500,-4476.3810
C3.3240,-4474.3710 5.4412,-4473.0000 7.8750,-4473.0000
L41.0850,-4473.0000
C41.2642,-4473.2565 41.4525,-4473.5055 41.6460,-4473.7500
L7.8750,-4473.7500
C4.7738,-4473.7500 2.2500,-4476.2722 2.2500,-4479.3750
L2.2500,-4492.1250
L2.2500,-4530.0000
C2.2500,-4532.0678 3.9323,-4533.7500 6.0000,-4533.7500
L54.7500,-4533.7500
C56.8185,-4533.7500 58.5000,-4532.0678 58.5000,-4530.0000
L58.5000,-4492.1250
L58.5000,-4479.3750
C58.5000,-4479.2797 58.4903,-4479.1868 58.4850,-4479.0922
C57.0630,-4479.5153 55.5600,-4479.7500 54.0000,-4479.7500
C45.3015,-4479.7500 38.2500,-4472.6985 38.2500,-4464.0000
C38.2500,-4462.4355 38.4855,-4460.9265 38.9107,-4459.5000
L6.0000,-4459.5000
Z
M54.0000,-4450.5000
C46.5555,-4450.5000 40.5000,-4456.5555 40.5000,-4464.0000
C40.5000,-4471.4445 46.5555,-4477.5000 54.0000,-4477.5000
C61.4445,-4477.5000 67.5000,-4471.4445 67.5000,-4464.0000
C67.5000,-4456.5555 61.4445,-4450.5000 54.0000,-4450.5000
Z" 
style="fill-rule: evenodd; fill: #000000; "/>
<path d=" 
M9.0000,-4468.5000
C7.7573,-4468.5000 6.7500,-4467.4920 6.7500,-4466.2500
C6.7500,-4465.0080 7.7573,-4464.0000 9.0000,-4464.0000
C8.1728,-4464.0000 7.5000,-4464.6720 7.5000,-4465.5000
C7.5000,-4466.3280 8.1720,-4467.0000 9.0000,-4467.0000
C9.8280,-4467.0000 10.5000,-4466.3280 10.5000,-4465.5000
C10.5000,-4464.6720 9.8280,-4464.0000 9.0000,-4464.0000
C10.2428,-4464.0000 11.2500,-4465.0080 11.2500,-4466.2500
C11.2500,-4467.4920 10.2428,-4468.5000 9.0000,-4468.5000
Z" 
style="fill-rule: evenodd; fill: #000000; "/>
<path d=" 
M53.4713,-4465.8000
C52.8413,-4466.1675 51.6315,-4466.7802 50.5590,-4466.7802
C50.4698,-4466.7802 50.3820,-4466.7772 50.2950,-4466.7683
C49.3650,-4466.6760 48.2693,-4466.3715 47.5763,-4466.1547
L49.0545,-4471.2278
C49.4355,-4471.4047 50.5748,-4471.8750 51.9450,-4471.8750
C53.0685,-4471.8750 54.0893,-4471.5630 54.9803,-4470.9465
L53.4713,-4465.8000
Z" 
style="fill-rule: evenodd; fill: #000000; "/>
<path d=" 
M51.4440,-4458.7792
C50.8080,-4459.1340 49.5825,-4459.7310 48.5393,-4459.7310
C48.4673,-4459.7310 48.3975,-4459.7272 48.3285,-4459.7227
C47.1683,-4459.6260 46.2690,-4459.4738 45.5745,-4459.2525
L47.0250,-4464.2655
C47.4675,-4464.4500 48.7823,-4464.9525 49.9590,-4464.9525
C50.0475,-4464.9525 50.1345,-4464.9495 50.2230,-4464.9435
C51.4478,-4464.8557 52.4790,-4464.3030 52.9710,-4463.9910
L51.4440,-4458.7792
Z" 
style="fill-rule: evenodd; fill: #000000; "/>
<path d=" 
M55.6770,-4456.8810
C54.4395,-4456.9425 53.5763,-4457.5110 53.1120,-4457.8170
C53.0873,-4457.8327 53.0610,-4457.8500 53.0370,-4457.8650
L54.5310,-4463.0025
C55.1640,-4462.6447 56.3723,-4462.0387 57.3083,-4462.0387
C58.4423,-4462.0680 59.2230,-4462.1572 60.4050,-4462.5600
C60.1718,-4461.7882 59.7540,-4460.3362 58.9575,-4457.5740
C58.5120,-4457.3880 57.1688,-4456.8750 55.9005,-4456.8750
C55.8270,-4456.8750 55.7520,-4456.8765 55.6770,-4456.8810
Z" 
style="fill-rule: evenodd; fill: #000000; "/>
<path d=" 
M57.7350,-4463.7525
C56.4315,-4463.7525 55.4130,-4464.4515 55.0283,-4464.7605
L56.5388,-4469.8755
C57.0840,-4469.5327 57.9615,-4469.0887 59.1945,-4468.9500
C59.3310,-4468.9350 59.4743,-4468.9282 59.6205,-4468.9282
C60.5895,-4468.9282 61.7183,-4469.2462 62.4330,-4469.4877
L60.9773,-4464.4807
C60.9668,-4464.4747 60.9555,-4464.4702 60.9450,-4464.4650
C60.5243,-4464.2820 59.5433,-4463.8500 57.9570,-4463.7607
C57.8820,-4463.7555 57.8078,-4463.7525 57.7350,-4463.7525
Z" 
style="fill-rule: evenodd; fill: #000000; "/>
<text x="0.0000" y="-4448.2500">
<tspan font-family="Arial Narrow" font-weight="bold" font-size="12.0000" fill="#000000" fill-opacity="1.0000" stroke-opacity="1.0000" >
System, Windows</tspan>
</text>
</svg>
