<?xml version="1.0" encoding="UTF-8" standalone="no"?>
<svg version="1.1" xmlns="http://www.w3.org/2000/svg" xmlns:xlink="http://www.w3.org/1999/xlink" width="0.8438in" height="1.0938in" viewBox="0 0 60.7500 78.7500" >
<g id="Layer1070" >
<path d=" 
M6.0000,-4533.7501
C3.9323,-4533.7501 2.2500,-4532.0679 2.2500,-4530.0001
L2.2500,-4479.3751
C2.2500,-4476.2724 4.7738,-4473.7501 7.8750,-4473.7501
L52.8750,-4473.7501
C55.9763,-4473.7501 58.5000,-4476.2724 58.5000,-4479.3751
L58.5000,-4530.0001
C58.5000,-4532.0679 56.8185,-4533.7501 54.7500,-4533.7501
L6.0000,-4533.7501
Z
M54.7500,-4459.5001
C56.8185,-4459.5001 58.5000,-4461.1816 58.5000,-4463.2501
L58.5000,-4476.3811
C57.4260,-4474.3711 55.3080,-4473.0001 52.8750,-4473.0001
L7.8750,-4473.0001
C5.4413,-4473.0001 3.3240,-4474.3711 2.2500,-4476.3811
L2.2500,-4463.2501
C2.2500,-4461.1816 3.9323,-4459.5001 6.0000,-4459.5001
L54.7500,-4459.5001
Z" 
style="stroke-width: 0.7200; stroke-linecap: round; stroke-linejoin: round; fill-rule: evenodd; fill: #ffffff; "/>
<path d=" 
M6.0000,-4533.7501
C3.9323,-4533.7501 2.2500,-4532.0679 2.2500,-4530.0001
L2.2500,-4479.3751
C2.2500,-4476.2724 4.7738,-4473.7501 7.8750,-4473.7501
L52.8750,-4473.7501
C55.9763,-4473.7501 58.5000,-4476.2724 58.5000,-4479.3751
L58.5000,-4530.0001
C58.5000,-4532.0679 56.8185,-4533.7501 54.7500,-4533.7501
L6.0000,-4533.7501
Z
M54.7500,-4459.5001
C56.8185,-4459.5001 58.5000,-4461.1816 58.5000,-4463.2501
L58.5000,-4476.3811
C57.4260,-4474.3711 55.3080,-4473.0001 52.8750,-4473.0001
L7.8750,-4473.0001
C5.4413,-4473.0001 3.3240,-4474.3711 2.2500,-4476.3811
L2.2500,-4463.2501
C2.2500,-4461.1816 3.9323,-4459.5001 6.0000,-4459.5001
L54.7500,-4459.5001
Z" 
style="stroke-width: 0.7200; stroke: #ffffff; stroke-dasharray: none; stroke-linecap: round; stroke-linejoin: round; fill: none; "/>
</g>
<path d=" 
M54.7500,-4536.0000
L6.0000,-4536.0000
C2.7008,-4536.0000 0.0000,-4533.2993 0.0000,-4530.0000
L0.0000,-4463.2500
C0.0000,-4459.9507 2.7008,-4457.2500 6.0000,-4457.2500
L54.7500,-4457.2500
C58.0492,-4457.2500 60.7500,-4459.9507 60.7500,-4463.2500
L60.7500,-4530.0000
C60.7500,-4533.2993 58.0492,-4536.0000 54.7500,-4536.0000
Z
M2.2500,-4530.0000
C2.2500,-4532.0678 3.9322,-4533.7500 6.0000,-4533.7500
L54.7500,-4533.7500
C56.8185,-4533.7500 58.5000,-4532.0678 58.5000,-4530.0000
L58.5000,-4479.3750
C58.5000,-4476.2722 55.9763,-4473.7500 52.8750,-4473.7500
L7.8750,-4473.7500
C4.7737,-4473.7500 2.2500,-4476.2722 2.2500,-4479.3750
L2.2500,-4530.0000
Z
M54.7500,-4459.5000
L6.0000,-4459.5000
C3.9322,-4459.5000 2.2500,-4461.1815 2.2500,-4463.2500
L2.2500,-4476.3810
C3.3240,-4474.3710 5.4413,-4473.0000 7.8750,-4473.0000
L52.8750,-4473.0000
C55.3080,-4473.0000 57.4260,-4474.3710 58.5000,-4476.3810
L58.5000,-4463.2500
C58.5000,-4461.1815 56.8185,-4459.5000 54.7500,-4459.5000
Z" 
style="fill-rule: evenodd; fill: #000000; "/>
<path d=" 
M9.0000,-4468.5000
C7.7573,-4468.5000 6.7500,-4467.4920 6.7500,-4466.2500
C6.7500,-4465.0080 7.7573,-4464.0000 9.0000,-4464.0000
C8.1728,-4464.0000 7.5000,-4464.6720 7.5000,-4465.5000
C7.5000,-4466.3280 8.1720,-4467.0000 9.0000,-4467.0000
C9.8280,-4467.0000 10.5000,-4466.3280 10.5000,-4465.5000
C10.5000,-4464.6720 9.8280,-4464.0000 9.0000,-4464.0000
C10.2428,-4464.0000 11.2500,-4465.0080 11.2500,-4466.2500
C11.2500,-4467.4920 10.2428,-4468.5000 9.0000,-4468.5000
Z" 
style="fill-rule: evenodd; fill: #000000; "/>
<text x="0.0000" y="-4457.2500">
<tspan font-family="Arial Narrow" font-weight="bold" font-size="12.0000" fill="#000000" fill-opacity="1.0000" stroke-opacity="1.0000" >
System</tspan>
</text>
</svg>
