<?xml version="1.0" encoding="UTF-8" standalone="no"?>
<svg version="1.1" xmlns="http://www.w3.org/2000/svg" xmlns:xlink="http://www.w3.org/1999/xlink" width="0.9688in" height="1.3125in" viewBox="0 0 69.7500 94.5000" >
<g id="Layer1075" >
<path d=" 
M65.2500,-4467.1573
L65.2500,-4476.9434
C64.1760,-4474.9334 62.0580,-4473.5624 59.6250,-4473.5624
L58.5000,-4473.5624
L58.5000,-4474.3124
L59.6250,-4474.3124
C62.7262,-4474.3124 65.2500,-4476.8346 65.2500,-4479.9374
L65.2500,-4530.5624
C65.2500,-4532.6301 63.5685,-4534.3124 61.5000,-4534.3124
L12.7500,-4534.3124
C10.6822,-4534.3124 9.0000,-4532.6301 9.0000,-4530.5624
L9.0000,-4527.5624
L6.0000,-4527.5624
C3.9322,-4527.5624 2.2500,-4525.8801 2.2500,-4523.8124
L2.2500,-4473.1874
C2.2500,-4470.0846 4.7737,-4467.5624 7.8750,-4467.5624
L9.0000,-4467.5624
L9.0000,-4466.8124
L7.8750,-4466.8124
C5.4412,-4466.8124 3.3240,-4468.1834 2.2500,-4470.1934
L2.2500,-4457.0624
C2.2500,-4454.9939 3.9322,-4453.3124 6.0000,-4453.3124
L40.0845,-4453.3124
A14.6250,14.6250 0.0000 1,0 65.2500,-4467.1573
Z" 
style="stroke-width: 0.7200; stroke-linecap: round; stroke-linejoin: round; fill-rule: evenodd; fill: #ffffff; "/>
<path d=" 
M65.2500,-4467.1573
L65.2500,-4476.9434
C64.1760,-4474.9334 62.0580,-4473.5624 59.6250,-4473.5624
L58.5000,-4473.5624
L58.5000,-4474.3124
L59.6250,-4474.3124
C62.7262,-4474.3124 65.2500,-4476.8346 65.2500,-4479.9374
L65.2500,-4530.5624
C65.2500,-4532.6301 63.5685,-4534.3124 61.5000,-4534.3124
L12.7500,-4534.3124
C10.6822,-4534.3124 9.0000,-4532.6301 9.0000,-4530.5624
L9.0000,-4527.5624
L6.0000,-4527.5624
C3.9322,-4527.5624 2.2500,-4525.8801 2.2500,-4523.8124
L2.2500,-4473.1874
C2.2500,-4470.0846 4.7737,-4467.5624 7.8750,-4467.5624
L9.0000,-4467.5624
L9.0000,-4466.8124
L7.8750,-4466.8124
C5.4412,-4466.8124 3.3240,-4468.1834 2.2500,-4470.1934
L2.2500,-4457.0624
C2.2500,-4454.9939 3.9322,-4453.3124 6.0000,-4453.3124
L40.0845,-4453.3124
A14.6250,14.6250 0.0000 1,0 65.2500,-4467.1573
Z" 
style="stroke-width: 0.7200; stroke: #ffffff; stroke-dasharray: none; stroke-linecap: round; stroke-linejoin: round; fill: none; "/>
</g>
<path d=" 
M9.0000,-4461.7500
C7.7573,-4461.7500 6.7500,-4460.7420 6.7500,-4459.5000
C6.7500,-4458.2580 7.7573,-4457.2500 9.0000,-4457.2500
C8.1728,-4457.2500 7.5000,-4457.9220 7.5000,-4458.7500
C7.5000,-4459.5780 8.1720,-4460.2500 9.0000,-4460.2500
C9.8280,-4460.2500 10.5000,-4459.5780 10.5000,-4458.7500
C10.5000,-4457.9220 9.8280,-4457.2500 9.0000,-4457.2500
C10.2428,-4457.2500 11.2500,-4458.2580 11.2500,-4459.5000
C11.2500,-4460.7420 10.2428,-4461.7500 9.0000,-4461.7500
Z" 
style="fill-rule: evenodd; fill: #000000; "/>
<path d=" 
M67.4993,-4465.3327
C67.5000,-4465.3320 67.5000,-4465.3313 67.5000,-4465.3313
L67.5000,-4530.0000
C67.5000,-4533.2992 64.7992,-4536.0000 61.5000,-4536.0000
L12.7500,-4536.0000
C9.4507,-4536.0000 6.7500,-4533.2992 6.7500,-4530.0000
L6.7500,-4529.2500
L6.0000,-4529.2500
C2.7008,-4529.2500 0.0000,-4526.5492 0.0000,-4523.2500
L0.0000,-4456.5000
C0.0000,-4453.2007 2.7008,-4450.5000 6.0000,-4450.5000
L39.7860,-4450.5000
C39.7853,-4450.5030 39.7837,-4450.5060 39.7823,-4450.5082
C42.3105,-4445.1878 47.7180,-4441.5000 54.0000,-4441.5000
C62.6985,-4441.5000 69.7500,-4448.5515 69.7500,-4457.2500
C69.7500,-4460.2087 68.9190,-4462.9673 67.4993,-4465.3327
Z
M60.7417,-4471.4678
C60.7440,-4471.4662 60.7470,-4471.4648 60.7500,-4471.4640
L60.7500,-4473.1110
C62.6985,-4473.4613 64.3462,-4474.6890 65.2500,-4476.3802
L65.2500,-4468.2615
C63.9570,-4469.5823 62.4300,-4470.6653 60.7417,-4471.4678
Z
M9.0000,-4530.0000
C9.0000,-4532.0678 10.6823,-4533.7500 12.7500,-4533.7500
L61.5000,-4533.7500
C63.5685,-4533.7500 65.2500,-4532.0678 65.2500,-4530.0000
L65.2500,-4479.3750
C65.2500,-4476.6577 63.3143,-4474.3860 60.7500,-4473.8633
L60.7500,-4523.2500
C60.7500,-4526.5492 58.0493,-4529.2500 54.7500,-4529.2500
L9.0000,-4529.2500
L9.0000,-4530.0000
Z
M6.0000,-4452.7500
C3.9323,-4452.7500 2.2500,-4454.4315 2.2500,-4456.5000
L2.2500,-4469.6310
C3.3240,-4467.6210 5.4412,-4466.2500 7.8750,-4466.2500
L41.0850,-4466.2500
C41.2642,-4466.5065 41.4525,-4466.7555 41.6460,-4467.0000
L7.8750,-4467.0000
C4.7738,-4467.0000 2.2500,-4469.5223 2.2500,-4472.6250
L2.2500,-4523.2500
C2.2500,-4525.3178 3.9323,-4527.0000 6.0000,-4527.0000
L54.7500,-4527.0000
C56.8185,-4527.0000 58.5000,-4525.3178 58.5000,-4523.2500
L58.5000,-4472.6250
C58.5000,-4472.5297 58.4903,-4472.4368 58.4850,-4472.3423
C57.0630,-4472.7653 55.5600,-4473.0000 54.0000,-4473.0000
C45.3015,-4473.0000 38.2500,-4465.9485 38.2500,-4457.2500
C38.2500,-4455.6855 38.4855,-4454.1765 38.9107,-4452.7500
L6.0000,-4452.7500
Z
M54.0000,-4443.7500
C46.5555,-4443.7500 40.5000,-4449.8055 40.5000,-4457.2500
C40.5000,-4464.6945 46.5555,-4470.7500 54.0000,-4470.7500
C61.4445,-4470.7500 67.5000,-4464.6945 67.5000,-4457.2500
C67.5000,-4449.8055 61.4445,-4443.7500 54.0000,-4443.7500
Z" 
style="fill-rule: evenodd; fill: #000000; "/>
<path d=" 
M57.0000,-4452.3750
C57.0000,-4452.9833 55.9822,-4453.6770 54.2752,-4454.2312
C52.7310,-4454.7337 51.0202,-4455.0000 50.3805,-4455.0000
C49.7963,-4455.0000 46.8427,-4454.2020 45.6547,-4452.8753
C45.1800,-4452.3443 45.0922,-4451.7667 45.3870,-4451.1082
C45.5595,-4450.7220 45.8505,-4450.3432 46.2105,-4449.9832
C46.3057,-4450.1002 46.4655,-4450.1550 46.6162,-4450.1070
C46.6267,-4450.1032 47.6370,-4449.7837 49.5067,-4449.7500
C51.3765,-4449.7132 53.4615,-4450.2683 54.9255,-4451.1923
C55.1010,-4451.3017 55.3320,-4451.2500 55.4430,-4451.0760
C55.5525,-4450.9005 55.5007,-4450.6687 55.3253,-4450.5593
C53.7915,-4449.5895 51.6390,-4448.9992 49.6687,-4448.9992
C49.6102,-4448.9992 49.5518,-4449.0000 49.4940,-4449.0007
C48.4155,-4449.0210 47.6167,-4449.1298 47.0947,-4449.2280
C48.4597,-4448.2207 50.1975,-4447.5000 51.0000,-4447.5000
C53.1720,-4447.5000 56.9985,-4450.3185 57.0000,-4452.3750
Z" 
style="fill-rule: evenodd; fill: #010101; "/>
<path d=" 
M59.6250,-4447.1250
C59.8665,-4446.7447 59.9798,-4446.3922 60.0788,-4446.0457
C61.6815,-4446.9172 63.0720,-4448.1292 64.1663,-4449.5760
C63.7530,-4450.5502 63.3982,-4451.6137 63.1208,-4452.8422
C62.0280,-4457.6572 63.3930,-4456.2667 62.4262,-4460.4712
C61.9560,-4462.5652 61.1197,-4464.2265 60.1897,-4465.3207
C59.2613,-4466.4390 57.9863,-4467.0457 57.3743,-4467.3750
C55.9507,-4468.1400 52.3748,-4469.4990 48.0652,-4467.2640
C44.0235,-4465.1573 44.0677,-4460.8567 44.6520,-4452.6915
C44.7562,-4452.9285 44.9002,-4453.1587 45.0945,-4453.3755
C45.4560,-4453.7782 45.9502,-4454.1345 46.4910,-4454.4420
C45.3045,-4456.5757 45.3000,-4460.9430 47.9992,-4460.2500
C49.7002,-4459.8142 50.2800,-4457.5327 49.9035,-4455.6930
C50.1030,-4455.7297 50.2680,-4455.7500 50.3797,-4455.7500
C50.8815,-4455.7500 51.7920,-4455.6255 52.7820,-4455.4072
C52.2690,-4456.9860 52.5787,-4459.0095 53.7353,-4459.9778
C57.1103,-4462.8052 60.5498,-4455.5745 57.0517,-4453.6665
C57.5085,-4453.2667 57.7500,-4452.8370 57.7493,-4452.3742
C57.7493,-4451.8620 57.5790,-4451.3377 57.2963,-4450.8240
C58.5863,-4450.6057 58.3433,-4449.1642 59.6250,-4447.1250
Z" 
style="fill-rule: evenodd; fill: #010101; "/>
<path d=" 
M46.2412,-4447.1542
C46.2465,-4447.9702 46.2757,-4448.2732 46.3492,-4448.8387
C45.6885,-4449.3705 45.1387,-4449.9757 44.8035,-4450.6170
C44.8267,-4450.2915 44.8500,-4449.9765 44.8755,-4449.6405
C44.9032,-4449.2340 44.8650,-4448.8485 44.7817,-4448.4720
C45.2347,-4447.9980 45.7222,-4447.5555 46.2412,-4447.1542
Z" 
style="fill-rule: evenodd; fill: #010101; "/>
<path d=" 
M48.9128,-4457.2238
C48.8145,-4457.0235 48.6143,-4456.8825 48.3750,-4456.8825
C48.0428,-4456.8825 47.7728,-4457.1518 47.7728,-4457.4848
C47.7728,-4457.7540 47.9543,-4457.9738 48.1988,-4458.0518
C48.0420,-4458.1320 47.8718,-4458.1928 47.6775,-4458.1928
C46.1805,-4458.1928 46.3433,-4455.7148 47.1983,-4454.7480
C47.6873,-4454.9625 48.5040,-4455.2280 49.0470,-4455.3975
C49.1985,-4455.9645 49.1468,-4456.6658 48.9128,-4457.2238
Z" 
style="fill-rule: evenodd; fill: #010101; "/>
<path d=" 
M56.8770,-4457.2590
C56.7877,-4457.0377 56.5732,-4456.8825 56.3205,-4456.8825
C55.9882,-4456.8825 55.7182,-4457.1517 55.7182,-4457.4847
C55.7182,-4457.7712 55.9222,-4458.0000 56.1907,-4458.0607
C55.9905,-4458.1710 55.7602,-4458.2377 55.4955,-4458.2377
C53.9002,-4458.2377 53.3385,-4455.9203 54.2595,-4454.8890
C54.6532,-4454.7480 55.1002,-4454.5830 55.5195,-4454.4127
C56.9535,-4454.4960 57.3562,-4456.1535 56.8770,-4457.2590
Z" 
style="fill-rule: evenodd; fill: #010101; "/>
<text x="0.0000" y="-4441.5000">
<tspan font-family="Arial Narrow" font-weight="bold" font-size="12.0000" fill="#000000" fill-opacity="1.0000" stroke-opacity="1.0000" >
Systems, Linux</tspan>
</text>
</svg>
