<?xml version="1.0" encoding="UTF-8" standalone="no"?>
<svg version="1.1" xmlns="http://www.w3.org/2000/svg" xmlns:xlink="http://www.w3.org/1999/xlink" width="0.9688in" height="1.2188in" viewBox="0 0 69.7500 87.7500" >
<g id="Layer1071" >
<path d=" 
M42.2254,-4473.7501
C45.1097,-4477.4045 49.5787,-4479.7501 54.5956,-4479.7501
C56.1556,-4479.7501 57.6586,-4479.5154 59.0806,-4479.0924
C59.0858,-4479.1869 59.0956,-4479.2799 59.0956,-4479.3751
L59.0956,-4530.0001
C59.0956,-4532.0679 57.4141,-4533.7501 55.3456,-4533.7501
L6.5956,-4533.7501
C4.5278,-4533.7501 2.8456,-4532.0679 2.8456,-4530.0001
L2.8456,-4479.3751
C2.8456,-4476.2724 5.3693,-4473.7501 8.4706,-4473.7501
L42.2254,-4473.7501
Z
M38.8456,-4464.0001
C38.8456,-4467.3464 39.8892,-4470.4490 41.6686,-4473.0001
L8.4706,-4473.0001
C6.0368,-4473.0001 3.9196,-4474.3711 2.8456,-4476.3811
L2.8456,-4463.2501
C2.8456,-4461.1816 4.5278,-4459.5001 6.5956,-4459.5001
L39.5063,-4459.5001
C39.0811,-4460.9266 38.8456,-4462.4356 38.8456,-4464.0001
Z
M68.0956,-4464.0002
A13.5000,13.5000 180.0000 1,1 54.5956,-4477.5002
A13.5000,13.5000 180.0000 0,1 68.0956,-4464.0002
Z" 
style="stroke-width: 0.7200; stroke-linecap: round; stroke-linejoin: round; fill-rule: evenodd; fill: #ffffff; "/>
<path d=" 
M42.2254,-4473.7501
C45.1097,-4477.4045 49.5787,-4479.7501 54.5956,-4479.7501
C56.1556,-4479.7501 57.6586,-4479.5154 59.0806,-4479.0924
C59.0858,-4479.1869 59.0956,-4479.2799 59.0956,-4479.3751
L59.0956,-4530.0001
C59.0956,-4532.0679 57.4141,-4533.7501 55.3456,-4533.7501
L6.5956,-4533.7501
C4.5278,-4533.7501 2.8456,-4532.0679 2.8456,-4530.0001
L2.8456,-4479.3751
C2.8456,-4476.2724 5.3693,-4473.7501 8.4706,-4473.7501
L42.2254,-4473.7501
Z
M38.8456,-4464.0001
C38.8456,-4467.3464 39.8892,-4470.4490 41.6686,-4473.0001
L8.4706,-4473.0001
C6.0368,-4473.0001 3.9196,-4474.3711 2.8456,-4476.3811
L2.8456,-4463.2501
C2.8456,-4461.1816 4.5278,-4459.5001 6.5956,-4459.5001
L39.5063,-4459.5001
C39.0811,-4460.9266 38.8456,-4462.4356 38.8456,-4464.0001
Z
M68.0956,-4464.0002
A13.5000,13.5000 180.0000 1,1 54.5956,-4477.5002
A13.5000,13.5000 180.0000 0,1 68.0956,-4464.0002
Z" 
style="stroke-width: 0.7200; stroke: #ffffff; stroke-dasharray: none; stroke-linecap: round; stroke-linejoin: round; fill: none; "/>
</g>
<path d=" 
M9.0000,-4468.5000
C7.7573,-4468.5000 6.7500,-4467.4920 6.7500,-4466.2500
C6.7500,-4465.0080 7.7573,-4464.0000 9.0000,-4464.0000
C8.1728,-4464.0000 7.5000,-4464.6720 7.5000,-4465.5000
C7.5000,-4466.3280 8.1720,-4467.0000 9.0000,-4467.0000
C9.8280,-4467.0000 10.5000,-4466.3280 10.5000,-4465.5000
C10.5000,-4464.6720 9.8280,-4464.0000 9.0000,-4464.0000
C10.2428,-4464.0000 11.2500,-4465.0080 11.2500,-4466.2500
C11.2500,-4467.4920 10.2428,-4468.5000 9.0000,-4468.5000
Z" 
style="fill-rule: evenodd; fill: #000000; "/>
<path d=" 
M60.7417,-4478.2177
C60.7440,-4478.2163 60.7470,-4478.2148 60.7500,-4478.2140
L60.7500,-4530.0000
C60.7500,-4533.2993 58.0493,-4536.0000 54.7500,-4536.0000
L6.0000,-4536.0000
C2.7008,-4536.0000 0.0000,-4533.2993 0.0000,-4530.0000
L0.0000,-4463.2500
C0.0000,-4459.9507 2.7008,-4457.2500 6.0000,-4457.2500
L39.7860,-4457.2500
C39.7853,-4457.2530 39.7837,-4457.2560 39.7823,-4457.2582
C42.3105,-4451.9378 47.7180,-4448.2500 54.0000,-4448.2500
C62.6985,-4448.2500 69.7500,-4455.3015 69.7500,-4464.0000
C69.7500,-4470.2820 66.0622,-4475.6895 60.7417,-4478.2177
Z
M6.0000,-4459.5000
C3.9323,-4459.5000 2.2500,-4461.1815 2.2500,-4463.2500
L2.2500,-4476.3810
C3.3240,-4474.3710 5.4412,-4473.0000 7.8750,-4473.0000
L41.0850,-4473.0000
C41.2642,-4473.2565 41.4525,-4473.5055 41.6460,-4473.7500
L7.8750,-4473.7500
C4.7738,-4473.7500 2.2500,-4476.2722 2.2500,-4479.3750
L2.2500,-4530.0000
C2.2500,-4532.0678 3.9323,-4533.7500 6.0000,-4533.7500
L54.7500,-4533.7500
C56.8185,-4533.7500 58.5000,-4532.0678 58.5000,-4530.0000
L58.5000,-4479.3750
C58.5000,-4479.2797 58.4903,-4479.1868 58.4850,-4479.0922
C57.0630,-4479.5153 55.5600,-4479.7500 54.0000,-4479.7500
C45.3015,-4479.7500 38.2500,-4472.6985 38.2500,-4464.0000
C38.2500,-4462.4355 38.4855,-4460.9265 38.9107,-4459.5000
L6.0000,-4459.5000
Z
M54.0000,-4450.5000
C46.5555,-4450.5000 40.5000,-4456.5555 40.5000,-4464.0000
C40.5000,-4471.4445 46.5555,-4477.5000 54.0000,-4477.5000
C61.4445,-4477.5000 67.5000,-4471.4445 67.5000,-4464.0000
C67.5000,-4456.5555 61.4445,-4450.5000 54.0000,-4450.5000
Z" 
style="fill-rule: evenodd; fill: #000000; "/>
<path d=" 
M57.0000,-4459.1250
C57.0000,-4459.7332 55.9823,-4460.4270 54.2753,-4460.9812
C52.7318,-4461.4837 51.0203,-4461.7500 50.3805,-4461.7500
C49.7963,-4461.7500 46.8428,-4460.9520 45.6547,-4459.6252
C45.1800,-4459.0942 45.0922,-4458.5167 45.3870,-4457.8582
C45.5595,-4457.4720 45.8505,-4457.0932 46.2105,-4456.7332
C46.3057,-4456.8502 46.4655,-4456.9050 46.6162,-4456.8570
C46.6267,-4456.8532 47.6370,-4456.5337 49.5068,-4456.5000
C51.3765,-4456.4632 53.4615,-4457.0182 54.9255,-4457.9422
C55.1010,-4458.0517 55.3320,-4458.0000 55.4430,-4457.8260
C55.5525,-4457.6505 55.5008,-4457.4187 55.3253,-4457.3092
C53.7915,-4456.3395 51.6390,-4455.7492 49.6687,-4455.7492
C49.6102,-4455.7492 49.5518,-4455.7500 49.4940,-4455.7507
C48.4155,-4455.7710 47.6167,-4455.8798 47.0948,-4455.9780
C48.4598,-4454.9707 50.1975,-4454.2500 51.0000,-4454.2500
C53.1720,-4454.2500 56.9985,-4457.0685 57.0000,-4459.1250
Z" 
style="fill-rule: evenodd; fill: #010101; "/>
<path d=" 
M49.8458,-4451.1607
C50.0423,-4451.0962 50.2410,-4451.0437 50.4420,-4450.9897
C50.2410,-4451.0437 50.0423,-4451.0977 49.8458,-4451.1607
Z" 
style="fill-rule: evenodd; fill: #010101; "/>
<path d=" 
M64.2803,-4455.2677
C64.1190,-4455.0787 63.9533,-4454.8927 63.7823,-4454.7127
C63.9533,-4454.8927 64.1190,-4455.0787 64.2803,-4455.2677
Z" 
style="fill-rule: evenodd; fill: #010101; "/>
<path d=" 
M51.5588,-4450.7317
C51.3855,-4450.7640 51.2138,-4450.7977 51.0427,-4450.8367
C51.2948,-4450.7805 51.5498,-4450.7362 51.8055,-4450.6957
C51.7222,-4450.7077 51.6405,-4450.7167 51.5588,-4450.7317
Z" 
style="fill-rule: evenodd; fill: #010101; "/>
<path d=" 
M59.6250,-4453.8750
C59.8665,-4453.4947 59.9798,-4453.1422 60.0788,-4452.7957
C61.6815,-4453.6672 63.0720,-4454.8792 64.1663,-4456.3260
C63.7530,-4457.3002 63.3983,-4458.3637 63.1208,-4459.5922
C62.0280,-4464.4072 63.3930,-4463.0167 62.4263,-4467.2212
C61.9560,-4469.3152 61.1198,-4470.9765 60.1898,-4472.0707
C59.2613,-4473.1890 57.9863,-4473.7957 57.3743,-4474.1250
C55.9508,-4474.8900 52.3748,-4476.2490 48.0652,-4474.0140
C44.0235,-4471.9073 44.0677,-4467.6067 44.6520,-4459.4415
C44.7562,-4459.6785 44.9002,-4459.9087 45.0945,-4460.1255
C45.4560,-4460.5282 45.9502,-4460.8845 46.4910,-4461.1920
C45.3052,-4463.3257 45.3007,-4467.6930 48.0000,-4467.0000
C49.7010,-4466.5642 50.2807,-4464.2827 49.9042,-4462.4430
C50.1037,-4462.4797 50.2688,-4462.5000 50.3805,-4462.5000
C50.8823,-4462.5000 51.7928,-4462.3755 52.7827,-4462.1572
C52.2697,-4463.7360 52.5795,-4465.7595 53.7360,-4466.7278
C57.1110,-4469.5552 60.5505,-4462.3245 57.0525,-4460.4165
C57.5093,-4460.0167 57.7508,-4459.5870 57.7500,-4459.1242
C57.7500,-4458.6120 57.5798,-4458.0877 57.2970,-4457.5740
C58.5863,-4457.3557 58.3433,-4455.9142 59.6250,-4453.8750
Z" 
style="fill-rule: evenodd; fill: #010101; "/>
<path d=" 
M46.2413,-4453.9042
C46.2465,-4454.7202 46.2758,-4455.0232 46.3493,-4455.5887
C45.6885,-4456.1205 45.1387,-4456.7257 44.8035,-4457.3670
C44.8267,-4457.0415 44.8500,-4456.7265 44.8755,-4456.3905
C44.9032,-4455.9840 44.8650,-4455.5985 44.7817,-4455.2220
C45.2347,-4454.7480 45.7223,-4454.3055 46.2413,-4453.9042
Z" 
style="fill-rule: evenodd; fill: #010101; "/>
<path d=" 
M46.2405,-4452.9698
C46.4130,-4452.8467 46.5907,-4452.7283 46.7707,-4452.6135
C46.5907,-4452.7283 46.4137,-4452.8482 46.2405,-4452.9698
Z" 
style="fill-rule: evenodd; fill: #010101; "/>
<path d=" 
M45.3307,-4453.6657
C45.4800,-4453.5397 45.6345,-4453.4227 45.7890,-4453.3042
C45.6352,-4453.4220 45.4807,-4453.5397 45.3307,-4453.6657
Z" 
style="fill-rule: evenodd; fill: #010101; "/>
<path d=" 
M48.0540,-4451.8950
C48.5445,-4451.6527 49.0530,-4451.4405 49.5758,-4451.2575
C49.0530,-4451.4405 48.5453,-4451.6535 48.0540,-4451.8950
Z" 
style="fill-rule: evenodd; fill: #010101; "/>
<path d=" 
M64.3958,-4455.4057
C64.4355,-4455.4522 64.4775,-4455.4980 64.5173,-4455.5467
C64.5158,-4455.5497 64.5143,-4455.5520 64.5128,-4455.5543
C64.4738,-4455.5055 64.4370,-4455.4537 64.3958,-4455.4057
Z" 
style="fill-rule: evenodd; fill: #010101; "/>
<path d=" 
M55.4925,-4450.5862
C55.4048,-4450.5765 55.3163,-4450.5705 55.2263,-4450.5615
C54.8220,-4450.5247 54.4148,-4450.5000 54.0000,-4450.5000
C54.8910,-4450.5000 55.7603,-4450.5907 56.6033,-4450.7565
C56.2380,-4450.6845 55.8675,-4450.6290 55.4925,-4450.5862
Z" 
style="fill-rule: evenodd; fill: #010101; "/>
<path d=" 
M60.0623,-4451.9505
C59.8733,-4451.8552 59.6843,-4451.7615 59.4908,-4451.6752
C59.3280,-4451.6017 59.1653,-4451.5342 58.9995,-4451.4690
C58.7355,-4451.3632 58.4693,-4451.2642 58.1985,-4451.1750
C58.0575,-4451.1285 57.9143,-4451.0865 57.7725,-4451.0437
C57.4943,-4450.9642 57.2130,-4450.8915 56.9288,-4450.8277
C56.8305,-4450.8060 56.7323,-4450.7827 56.6340,-4450.7625
C59.3865,-4451.3092 61.8360,-4452.6915 63.7103,-4454.6377
C62.6588,-4453.5495 61.4265,-4452.6382 60.0623,-4451.9505
Z" 
style="fill-rule: evenodd; fill: #010101; "/>
<path d=" 
M52.3343,-4450.6125
C52.8818,-4450.5465 53.4345,-4450.5000 54.0000,-4450.5000
C53.5793,-4450.5000 53.1653,-4450.5247 52.7543,-4450.5630
C52.6125,-4450.5765 52.4738,-4450.5967 52.3343,-4450.6125
Z" 
style="fill-rule: evenodd; fill: #010101; "/>
<path d=" 
M47.1870,-4452.3615
C47.3888,-4452.2445 47.5883,-4452.1275 47.7953,-4452.0187
C47.5883,-4452.1260 47.3888,-4452.2445 47.1870,-4452.3615
Z" 
style="fill-rule: evenodd; fill: #010101; "/>
<path d=" 
M44.5230,-4454.3977
C44.5222,-4454.3962 44.5222,-4454.3947 44.5207,-4454.3917
C44.6107,-4454.3032 44.7112,-4454.2245 44.8042,-4454.1382
C44.7112,-4454.2252 44.6130,-4454.3085 44.5230,-4454.3977
Z" 
style="fill-rule: evenodd; fill: #010101; "/>
<path d=" 
M48.9128,-4463.9738
C48.8145,-4463.7735 48.6143,-4463.6325 48.3750,-4463.6325
C48.0428,-4463.6325 47.7728,-4463.9017 47.7728,-4464.2347
C47.7728,-4464.5040 47.9543,-4464.7237 48.1988,-4464.8017
C48.0420,-4464.8820 47.8718,-4464.9428 47.6775,-4464.9428
C46.1805,-4464.9428 46.3433,-4462.4648 47.1983,-4461.4980
C47.6873,-4461.7125 48.5040,-4461.9780 49.0470,-4462.1475
C49.1985,-4462.7145 49.1468,-4463.4158 48.9128,-4463.9738
Z" 
style="fill-rule: evenodd; fill: #010101; "/>
<path d=" 
M56.8770,-4464.0090
C56.7877,-4463.7878 56.5732,-4463.6325 56.3205,-4463.6325
C55.9882,-4463.6325 55.7182,-4463.9018 55.7182,-4464.2348
C55.7182,-4464.5213 55.9222,-4464.7500 56.1907,-4464.8108
C55.9905,-4464.9210 55.7602,-4464.9878 55.4955,-4464.9878
C53.9002,-4464.9878 53.3385,-4462.6703 54.2595,-4461.6390
C54.6532,-4461.4980 55.1002,-4461.3330 55.5195,-4461.1628
C56.9535,-4461.2460 57.3562,-4462.9035 56.8770,-4464.0090
Z" 
style="fill-rule: evenodd; fill: #010101; "/>
<text x="0.0000" y="-4448.2500">
<tspan font-family="Arial Narrow" font-weight="bold" font-size="12.0000" fill="#000000" fill-opacity="1.0000" stroke-opacity="1.0000" >
System, Linux</tspan>
</text>
</svg>
