<?xml version="1.0" encoding="UTF-8" standalone="no"?>
<svg version="1.1" xmlns="http://www.w3.org/2000/svg" xmlns:xlink="http://www.w3.org/1999/xlink" width="0.9375in" height="1.1875in" viewBox="0 0 67.5000 85.5000" >
<g id="Layer1074" >
<path d=" 
M61.5000,-4459.4999
C63.5685,-4459.4999 65.2500,-4461.1814 65.2500,-4463.2499
L65.2500,-4476.3809
C64.1760,-4474.3709 62.0580,-4472.9999 59.6250,-4472.9999
L58.5000,-4472.9999
L58.5000,-4473.7499
L59.6250,-4473.7499
C62.7262,-4473.7499 65.2500,-4476.2721 65.2500,-4479.3749
L65.2500,-4529.9999
C65.2500,-4532.0676 63.5685,-4533.7499 61.5000,-4533.7499
L12.7500,-4533.7499
C10.6822,-4533.7499 9.0000,-4532.0676 9.0000,-4529.9999
L9.0000,-4526.9999
L6.0000,-4526.9999
C3.9322,-4526.9999 2.2500,-4525.3176 2.2500,-4523.2499
L2.2500,-4472.6249
C2.2500,-4469.5221 4.7737,-4466.9999 7.8750,-4466.9999
L9.0000,-4466.9999
L9.0000,-4466.2499
L7.8750,-4466.2499
C5.4412,-4466.2499 3.3240,-4467.6209 2.2500,-4469.6309
L2.2500,-4456.4999
C2.2500,-4454.4314 3.9322,-4452.7499 6.0000,-4452.7499
L54.7500,-4452.7499
C56.8185,-4452.7499 58.5000,-4454.4314 58.5000,-4456.4999
L58.5000,-4459.4999
L61.5000,-4459.4999
Z" 
style="stroke-width: 0.7200; stroke-linecap: round; stroke-linejoin: round; fill-rule: evenodd; fill: #ffffff; "/>
<path d=" 
M61.5000,-4459.4999
C63.5685,-4459.4999 65.2500,-4461.1814 65.2500,-4463.2499
L65.2500,-4476.3809
C64.1760,-4474.3709 62.0580,-4472.9999 59.6250,-4472.9999
L58.5000,-4472.9999
L58.5000,-4473.7499
L59.6250,-4473.7499
C62.7262,-4473.7499 65.2500,-4476.2721 65.2500,-4479.3749
L65.2500,-4529.9999
C65.2500,-4532.0676 63.5685,-4533.7499 61.5000,-4533.7499
L12.7500,-4533.7499
C10.6822,-4533.7499 9.0000,-4532.0676 9.0000,-4529.9999
L9.0000,-4526.9999
L6.0000,-4526.9999
C3.9322,-4526.9999 2.2500,-4525.3176 2.2500,-4523.2499
L2.2500,-4472.6249
C2.2500,-4469.5221 4.7737,-4466.9999 7.8750,-4466.9999
L9.0000,-4466.9999
L9.0000,-4466.2499
L7.8750,-4466.2499
C5.4412,-4466.2499 3.3240,-4467.6209 2.2500,-4469.6309
L2.2500,-4456.4999
C2.2500,-4454.4314 3.9322,-4452.7499 6.0000,-4452.7499
L54.7500,-4452.7499
C56.8185,-4452.7499 58.5000,-4454.4314 58.5000,-4456.4999
L58.5000,-4459.4999
L61.5000,-4459.4999
Z" 
style="stroke-width: 0.7200; stroke: #ffffff; stroke-dasharray: none; stroke-linecap: round; stroke-linejoin: round; fill: none; "/>
</g>
<path d=" 
M61.5000,-4536.0000
L12.7500,-4536.0000
C9.4507,-4536.0000 6.7500,-4533.2992 6.7500,-4530.0000
L6.7500,-4529.2500
L6.0000,-4529.2500
C2.7007,-4529.2500 0.0000,-4526.5493 0.0000,-4523.2500
L0.0000,-4456.5000
C0.0000,-4453.2007 2.7007,-4450.5000 6.0000,-4450.5000
L54.7500,-4450.5000
C58.0493,-4450.5000 60.7500,-4453.2007 60.7500,-4456.5000
L60.7500,-4457.2500
L61.5000,-4457.2500
C64.7993,-4457.2500 67.5000,-4459.9507 67.5000,-4463.2500
L67.5000,-4530.0000
C67.5000,-4533.2992 64.7993,-4536.0000 61.5000,-4536.0000
Z
M58.5000,-4456.5000
C58.5000,-4454.4315 56.8185,-4452.7500 54.7500,-4452.7500
L6.0000,-4452.7500
C3.9323,-4452.7500 2.2500,-4454.4315 2.2500,-4456.5000
L2.2500,-4469.6310
C3.3240,-4467.6210 5.4412,-4466.2500 7.8750,-4466.2500
L52.8750,-4466.2500
C55.3080,-4466.2500 57.4260,-4467.6210 58.5000,-4469.6310
L58.5000,-4456.5000
Z
M58.5000,-4472.6250
C58.5000,-4469.5222 55.9763,-4467.0000 52.8750,-4467.0000
L7.8750,-4467.0000
C4.7737,-4467.0000 2.2500,-4469.5222 2.2500,-4472.6250
L2.2500,-4523.2500
C2.2500,-4525.3178 3.9323,-4527.0000 6.0000,-4527.0000
L54.7500,-4527.0000
C56.8185,-4527.0000 58.5000,-4525.3178 58.5000,-4523.2500
L58.5000,-4472.6250
Z
M65.2500,-4463.2500
C65.2500,-4461.1815 63.5685,-4459.5000 61.5000,-4459.5000
L60.7500,-4459.5000
L60.7500,-4473.1058
C62.7000,-4473.4552 64.3455,-4474.6890 65.2500,-4476.3810
L65.2500,-4463.2500
Z
M65.2500,-4479.3750
C65.2500,-4476.6578 63.3143,-4474.3860 60.7500,-4473.8633
L60.7500,-4523.2500
C60.7500,-4526.5493 58.0493,-4529.2500 54.7500,-4529.2500
L9.0000,-4529.2500
L9.0000,-4530.0000
C9.0000,-4532.0678 10.6823,-4533.7500 12.7500,-4533.7500
L61.5000,-4533.7500
C63.5685,-4533.7500 65.2500,-4532.0678 65.2500,-4530.0000
L65.2500,-4479.3750
Z" 
style="fill-rule: evenodd; fill: #000000; "/>
<path d=" 
M9.0000,-4461.7500
C7.7572,-4461.7500 6.7500,-4460.7420 6.7500,-4459.5000
C6.7500,-4458.2580 7.7572,-4457.2500 9.0000,-4457.2500
C8.1727,-4457.2500 7.5000,-4457.9220 7.5000,-4458.7500
C7.5000,-4459.5780 8.1720,-4460.2500 9.0000,-4460.2500
C9.8280,-4460.2500 10.5000,-4459.5780 10.5000,-4458.7500
C10.5000,-4457.9220 9.8280,-4457.2500 9.0000,-4457.2500
C10.2427,-4457.2500 11.2500,-4458.2580 11.2500,-4459.5000
C11.2500,-4460.7420 10.2427,-4461.7500 9.0000,-4461.7500
Z" 
style="fill-rule: evenodd; fill: #000000; "/>
<text x="0.0000" y="-4450.5000">
<tspan font-family="Arial Narrow" font-weight="bold" font-size="12.0000" fill="#000000" fill-opacity="1.0000" stroke-opacity="1.0000" >
Systems</tspan>
</text>
</svg>
