<?xml version="1.0" encoding="UTF-8" standalone="no"?>
<svg version="1.1" xmlns="http://www.w3.org/2000/svg" xmlns:xlink="http://www.w3.org/1999/xlink" width="0.8438in" height="1.6562in" viewBox="0 0 60.7500 119.2500" >
<g id="Layer1131" >
<path d=" 
M58.5000,-4438.4506
L58.5000,-4442.2006
L58.5000,-4489.0756
C58.5000,-4491.1434 56.8185,-4492.8256 54.7500,-4492.8256
L6.0000,-4492.8256
C3.9323,-4492.8256 2.2500,-4491.1434 2.2500,-4489.0756
L2.2500,-4445.7163
L2.2500,-4438.4506
L2.2500,-4435.4566
L2.2500,-4426.4506
L2.2500,-4422.3256
C2.2500,-4420.2571 3.9323,-4418.5756 6.0000,-4418.5756
L54.7500,-4418.5756
C56.8185,-4418.5756 58.5000,-4420.2571 58.5000,-4422.3256
L58.5000,-4429.4038
L58.5000,-4435.4566
L58.5000,-4438.4506
Z
M52.8750,-4432.0756
L10.2656,-4432.0756
L10.2656,-4432.8256
L52.8750,-4432.8256
L52.8750,-4432.0756
Z" 
style="stroke-width: 0.7200; stroke-linecap: round; stroke-linejoin: round; fill-rule: evenodd; fill: #ffffff; "/>
<path d=" 
M58.5000,-4438.4506
L58.5000,-4442.2006
L58.5000,-4489.0756
C58.5000,-4491.1434 56.8185,-4492.8256 54.7500,-4492.8256
L6.0000,-4492.8256
C3.9323,-4492.8256 2.2500,-4491.1434 2.2500,-4489.0756
L2.2500,-4445.7163
L2.2500,-4438.4506
L2.2500,-4435.4566
L2.2500,-4426.4506
L2.2500,-4422.3256
C2.2500,-4420.2571 3.9323,-4418.5756 6.0000,-4418.5756
L54.7500,-4418.5756
C56.8185,-4418.5756 58.5000,-4420.2571 58.5000,-4422.3256
L58.5000,-4429.4038
L58.5000,-4435.4566
L58.5000,-4438.4506
Z
M52.8750,-4432.0756
L10.2656,-4432.0756
L10.2656,-4432.8256
L52.8750,-4432.8256
L52.8750,-4432.0756
Z" 
style="stroke-width: 0.7200; stroke: #ffffff; stroke-dasharray: none; stroke-linecap: round; stroke-linejoin: round; fill: none; "/>
</g>
<g id="Layer1132" >
<path d=" 
M6.0000,-4533.7502
C3.9323,-4533.7502 2.2500,-4532.0679 2.2500,-4530.0002
L2.2500,-4479.3752
C2.2500,-4476.2724 4.7738,-4473.7502 7.8750,-4473.7502
L52.8750,-4473.7502
C55.9763,-4473.7502 58.5000,-4476.2724 58.5000,-4479.3752
L58.5000,-4530.0002
C58.5000,-4532.0679 56.8185,-4533.7502 54.7500,-4533.7502
L6.0000,-4533.7502
Z
M54.7500,-4459.5002
C56.8185,-4459.5002 58.5000,-4461.1817 58.5000,-4463.2502
L58.5000,-4476.3812
C57.4260,-4474.3712 55.3080,-4473.0002 52.8750,-4473.0002
L7.8750,-4473.0002
C5.4413,-4473.0002 3.3240,-4474.3712 2.2500,-4476.3812
L2.2500,-4463.2502
C2.2500,-4461.1817 3.9323,-4459.5002 6.0000,-4459.5002
L54.7500,-4459.5002
Z" 
style="stroke-width: 0.7200; stroke-linecap: round; stroke-linejoin: round; fill-rule: evenodd; fill: #ffffff; "/>
<path d=" 
M6.0000,-4533.7502
C3.9323,-4533.7502 2.2500,-4532.0679 2.2500,-4530.0002
L2.2500,-4479.3752
C2.2500,-4476.2724 4.7738,-4473.7502 7.8750,-4473.7502
L52.8750,-4473.7502
C55.9763,-4473.7502 58.5000,-4476.2724 58.5000,-4479.3752
L58.5000,-4530.0002
C58.5000,-4532.0679 56.8185,-4533.7502 54.7500,-4533.7502
L6.0000,-4533.7502
Z
M54.7500,-4459.5002
C56.8185,-4459.5002 58.5000,-4461.1817 58.5000,-4463.2502
L58.5000,-4476.3812
C57.4260,-4474.3712 55.3080,-4473.0002 52.8750,-4473.0002
L7.8750,-4473.0002
C5.4413,-4473.0002 3.3240,-4474.3712 2.2500,-4476.3812
L2.2500,-4463.2502
C2.2500,-4461.1817 3.9323,-4459.5002 6.0000,-4459.5002
L54.7500,-4459.5002
Z" 
style="stroke-width: 0.7200; stroke: #ffffff; stroke-dasharray: none; stroke-linecap: round; stroke-linejoin: round; fill: none; "/>
</g>
<path d=" 
M11.2500,-4466.2500
C11.2500,-4465.0080 10.2427,-4464.0000 9.0000,-4464.0000
C9.8273,-4464.0000 10.5000,-4464.6735 10.5000,-4465.5000
C10.5000,-4466.3280 9.8280,-4467.0000 9.0000,-4467.0000
C8.1720,-4467.0000 7.5000,-4466.3280 7.5000,-4465.5000
C7.5000,-4464.6735 8.1720,-4464.0000 9.0000,-4464.0000
C7.7572,-4464.0000 6.7500,-4465.0080 6.7500,-4466.2500
C6.7500,-4467.4920 7.7572,-4468.5000 9.0000,-4468.5000
C10.2427,-4468.5000 11.2500,-4467.4920 11.2500,-4466.2500
Z
M60.7500,-4530.0000
L60.7500,-4467.7500
L60.7500,-4463.2500
L60.7500,-4422.7500
C60.7500,-4419.4507 58.0492,-4416.7500 54.7500,-4416.7500
L6.0000,-4416.7500
C2.7008,-4416.7500 0.0000,-4419.4507 0.0000,-4422.7500
L0.0000,-4463.2500
L0.0000,-4467.7500
L0.0000,-4530.0000
C0.0000,-4533.2993 2.7008,-4536.0000 6.0000,-4536.0000
L54.7500,-4536.0000
C58.0492,-4536.0000 60.7500,-4533.2993 60.7500,-4530.0000
Z
M2.2500,-4463.2500
C2.2500,-4461.1815 3.9322,-4459.5000 6.0000,-4459.5000
L54.7500,-4459.5000
C56.8185,-4459.5000 58.5000,-4461.1815 58.5000,-4463.2500
L58.5000,-4476.3817
C57.4252,-4474.3710 55.3080,-4473.0000 52.8750,-4473.0000
L7.8750,-4473.0000
C5.4413,-4473.0000 3.3247,-4474.3710 2.2500,-4476.3817
L2.2500,-4463.2500
Z
M2.2500,-4492.1250
L2.2500,-4479.3750
C2.2500,-4476.2722 4.7737,-4473.7500 7.8750,-4473.7500
L52.8750,-4473.7500
C55.9763,-4473.7500 58.5000,-4476.2730 58.5000,-4479.3750
L58.5000,-4492.1250
L58.5000,-4530.0000
C58.5000,-4532.0677 56.8185,-4533.7500 54.7500,-4533.7500
L6.0000,-4533.7500
C3.9322,-4533.7500 2.2500,-4532.0677 2.2500,-4530.0000
L2.2500,-4492.1250
Z
M59.2500,-4459.3005
C58.1482,-4458.0473 56.5402,-4457.2500 54.7500,-4457.2500
L6.0000,-4457.2500
C4.2105,-4457.2500 2.6017,-4458.0473 1.5000,-4459.3005
L1.5000,-4422.7500
C1.5000,-4420.2683 3.5190,-4418.2500 6.0000,-4418.2500
L54.7500,-4418.2500
C57.2318,-4418.2500 59.2500,-4420.2683 59.2500,-4422.7500
L59.2500,-4459.3005
Z" 
style="fill-rule: evenodd; fill: #010101; "/>
</svg>
