<?xml version="1.0" encoding="UTF-8" standalone="no"?>
<svg version="1.1" xmlns="http://www.w3.org/2000/svg" xmlns:xlink="http://www.w3.org/1999/xlink" width="1.4062in" height="1.6562in" viewBox="0 0 101.2500 119.2500" >
<g id="Layer1134" >
<path d=" 
M54.7500,-4419.0002
L95.2500,-4419.0002
C97.3185,-4419.0002 99.0000,-4420.6817 99.0000,-4422.7502
L99.0000,-4435.8812
C97.9260,-4433.8712 95.8080,-4432.5002 93.3750,-4432.5002
L58.5000,-4432.5002
L58.5000,-4433.2502
L93.3750,-4433.2502
C96.4763,-4433.2502 99.0000,-4435.7724 99.0000,-4438.8752
L99.0000,-4450.2981
L99.0000,-4463.4331
L99.0000,-4466.4271
L99.0000,-4489.5002
L99.0000,-4517.0521
C99.0000,-4519.1198 97.3185,-4520.8021 95.2500,-4520.8021
L78.7500,-4520.8021
L78.7500,-4530.0002
C78.7500,-4532.0679 77.0685,-4533.7502 75.0000,-4533.7502
L26.2500,-4533.7502
C24.1823,-4533.7502 22.5000,-4532.0679 22.5000,-4530.0002
L22.5000,-4520.8021
L6.0000,-4520.8021
C3.9323,-4520.8021 2.2500,-4519.1198 2.2500,-4517.0521
L2.2500,-4489.5002
L2.2500,-4466.4271
L2.2500,-4463.4331
L2.2500,-4450.3021
L2.2500,-4438.8752
C2.2500,-4435.7724 4.7738,-4433.2502 7.8750,-4433.2502
L42.7500,-4433.2502
L42.7500,-4432.5002
L7.8750,-4432.5002
C5.4413,-4432.5002 3.3240,-4433.8712 2.2500,-4435.8812
L2.2500,-4422.7502
C2.2500,-4420.6817 3.9323,-4419.0002 6.0000,-4419.0002
L46.4955,-4419.0002
L54.7500,-4419.0002
Z
M52.8750,-4433.2502
L55.8717,-4433.2502
C54.9780,-4432.7717 53.9577,-4432.5002 52.8750,-4432.5002
L48.3750,-4432.5002
C47.2920,-4432.5002 46.2716,-4432.7717 45.3780,-4433.2502
L48.3750,-4433.2502
L52.8750,-4433.2502
Z" 
style="stroke-width: 0.7200; stroke-linecap: round; stroke-linejoin: round; fill-rule: evenodd; fill: #ffffff; "/>
<path d=" 
M54.7500,-4419.0002
L95.2500,-4419.0002
C97.3185,-4419.0002 99.0000,-4420.6817 99.0000,-4422.7502
L99.0000,-4435.8812
C97.9260,-4433.8712 95.8080,-4432.5002 93.3750,-4432.5002
L58.5000,-4432.5002
L58.5000,-4433.2502
L93.3750,-4433.2502
C96.4763,-4433.2502 99.0000,-4435.7724 99.0000,-4438.8752
L99.0000,-4450.2981
L99.0000,-4463.4331
L99.0000,-4466.4271
L99.0000,-4489.5002
L99.0000,-4517.0521
C99.0000,-4519.1198 97.3185,-4520.8021 95.2500,-4520.8021
L78.7500,-4520.8021
L78.7500,-4530.0002
C78.7500,-4532.0679 77.0685,-4533.7502 75.0000,-4533.7502
L26.2500,-4533.7502
C24.1823,-4533.7502 22.5000,-4532.0679 22.5000,-4530.0002
L22.5000,-4520.8021
L6.0000,-4520.8021
C3.9323,-4520.8021 2.2500,-4519.1198 2.2500,-4517.0521
L2.2500,-4489.5002
L2.2500,-4466.4271
L2.2500,-4463.4331
L2.2500,-4450.3021
L2.2500,-4438.8752
C2.2500,-4435.7724 4.7738,-4433.2502 7.8750,-4433.2502
L42.7500,-4433.2502
L42.7500,-4432.5002
L7.8750,-4432.5002
C5.4413,-4432.5002 3.3240,-4433.8712 2.2500,-4435.8812
L2.2500,-4422.7502
C2.2500,-4420.6817 3.9323,-4419.0002 6.0000,-4419.0002
L46.4955,-4419.0002
L54.7500,-4419.0002
Z
M52.8750,-4433.2502
L55.8717,-4433.2502
C54.9780,-4432.7717 53.9577,-4432.5002 52.8750,-4432.5002
L48.3750,-4432.5002
C47.2920,-4432.5002 46.2716,-4432.7717 45.3780,-4433.2502
L48.3750,-4433.2502
L52.8750,-4433.2502
Z" 
style="stroke-width: 0.7200; stroke: #ffffff; stroke-dasharray: none; stroke-linecap: round; stroke-linejoin: round; fill: none; "/>
</g>
<path d=" 
M31.5000,-4466.2500
C31.5000,-4465.0080 30.4927,-4464.0000 29.2500,-4464.0000
C30.0780,-4464.0000 30.7507,-4464.6735 30.7507,-4465.5000
C30.7507,-4466.3280 30.0787,-4467.0000 29.2500,-4467.0000
C28.4228,-4467.0000 27.7500,-4466.3280 27.7500,-4465.5000
C27.7500,-4464.6735 28.4220,-4464.0000 29.2500,-4464.0000
C28.0088,-4464.0000 27.0000,-4465.0080 27.0000,-4466.2500
C27.0000,-4467.4920 28.0088,-4468.5000 29.2500,-4468.5000
C30.4927,-4468.5000 31.5000,-4467.4920 31.5000,-4466.2500
Z
M101.2500,-4516.5000
L101.2500,-4422.7500
C101.2500,-4419.4507 98.5507,-4416.7500 95.2500,-4416.7500
L6.0000,-4416.7500
C2.7007,-4416.7500 0.0000,-4419.4507 0.0000,-4422.7500
L0.0000,-4516.5000
C0.0000,-4519.7993 2.7007,-4522.5000 6.0000,-4522.5000
L20.2500,-4522.5000
L20.2500,-4530.0000
C20.2500,-4533.2993 22.9507,-4536.0000 26.2508,-4536.0000
L75.0008,-4536.0000
C78.3007,-4536.0000 81.0000,-4533.2993 81.0000,-4530.0000
L81.0000,-4522.5000
L95.2500,-4522.5000
C98.5507,-4522.5000 101.2500,-4519.7993 101.2500,-4516.5000
Z
M22.5000,-4463.2500
C22.5000,-4461.1815 24.1830,-4459.5000 26.2508,-4459.5000
L75.0008,-4459.5000
C77.0685,-4459.5000 78.7500,-4461.1815 78.7500,-4463.2500
L78.7500,-4476.3817
C77.6768,-4474.3725 75.5588,-4473.0000 73.1250,-4473.0000
L28.1250,-4473.0000
C25.6928,-4473.0000 23.5748,-4474.3725 22.5000,-4476.3817
L22.5000,-4463.2500
Z
M22.5000,-4492.1250
L22.5000,-4479.3750
C22.5000,-4476.2722 25.0238,-4473.7500 28.1250,-4473.7500
L73.1250,-4473.7500
C76.2278,-4473.7500 78.7500,-4476.2730 78.7500,-4479.3750
L78.7500,-4492.1250
L78.7500,-4530.0000
C78.7500,-4532.0677 77.0685,-4533.7500 75.0008,-4533.7500
L26.2508,-4533.7500
C24.1830,-4533.7500 22.5000,-4532.0677 22.5000,-4530.0000
L22.5000,-4492.1250
Z
M99.7507,-4516.5000
C99.7507,-4518.9810 97.7325,-4521.0000 95.2500,-4521.0000
L81.0000,-4521.0000
L81.0000,-4463.2500
C81.0000,-4459.9507 78.3007,-4457.2500 75.0008,-4457.2500
L26.2508,-4457.2500
C22.9507,-4457.2500 20.2500,-4459.9507 20.2500,-4463.2500
L20.2500,-4521.0000
L6.0000,-4521.0000
C3.5190,-4521.0000 1.5000,-4518.9810 1.5000,-4516.5000
L1.5000,-4422.7500
C1.5000,-4420.2683 3.5190,-4418.2500 6.0000,-4418.2500
L95.2500,-4418.2500
C97.7325,-4418.2500 99.7507,-4420.2683 99.7507,-4422.7500
L99.7507,-4516.5000
Z" 
style="fill-rule: evenodd; fill: #010101; "/>
</svg>
