<?xml version="1.0" encoding="UTF-8" standalone="no"?>
<svg version="1.1" xmlns="http://www.w3.org/2000/svg" xmlns:xlink="http://www.w3.org/1999/xlink" width="1.2188in" height="1.6562in" viewBox="0 0 87.7500 119.2500" >
<g id="Layer1133" >
<path d=" 
M85.5000,-4516.5002
C85.5000,-4518.5679 83.8185,-4520.2502 81.7500,-4520.2502
L72.0000,-4520.2502
L72.0000,-4530.0002
C72.0000,-4532.0679 70.3185,-4533.7502 68.2500,-4533.7502
L19.5000,-4533.7502
C17.4323,-4533.7502 15.7500,-4532.0679 15.7500,-4530.0002
L15.7500,-4520.8021
L6.0000,-4520.8021
C3.9323,-4520.8021 2.2500,-4519.1198 2.2500,-4517.0521
L2.2500,-4488.8673
L2.2500,-4466.4271
L2.2500,-4463.4331
L2.2500,-4450.3021
L2.2500,-4438.2384
C2.2500,-4435.1356 4.7738,-4432.6134 7.8750,-4432.6134
L29.2500,-4432.6134
L29.2500,-4431.8634
L7.8750,-4431.8634
C5.4413,-4431.8634 3.3240,-4433.2344 2.2500,-4435.2444
L2.2500,-4422.1134
C2.2500,-4420.0449 3.9323,-4418.3634 6.0000,-4418.3634
L33.0000,-4418.3634
L54.7500,-4418.3634
L81.7500,-4418.3634
C83.8185,-4418.3634 85.5000,-4420.0449 85.5000,-4422.1134
L85.5000,-4435.2444
C84.4260,-4433.2344 82.3080,-4431.8634 79.8750,-4431.8634
L58.5000,-4431.8634
L58.5000,-4432.6134
L79.8750,-4432.6134
C82.9763,-4432.6134 85.5000,-4435.1356 85.5000,-4438.2384
L85.5000,-4449.7502
L85.5000,-4462.8812
L85.5000,-4465.8752
L85.5000,-4488.8634
L85.5000,-4516.5002
Z
M55.8717,-4432.6134
C54.9780,-4432.1349 53.9577,-4431.8634 52.8750,-4431.8634
L34.8750,-4431.8634
C33.7920,-4431.8634 32.7716,-4432.1349 31.8780,-4432.6134
L34.8750,-4432.6134
L52.8750,-4432.6134
L55.8717,-4432.6134
Z" 
style="stroke-width: 0.7200; stroke-linecap: round; stroke-linejoin: round; fill-rule: evenodd; fill: #ffffff; "/>
<path d=" 
M85.5000,-4516.5002
C85.5000,-4518.5679 83.8185,-4520.2502 81.7500,-4520.2502
L72.0000,-4520.2502
L72.0000,-4530.0002
C72.0000,-4532.0679 70.3185,-4533.7502 68.2500,-4533.7502
L19.5000,-4533.7502
C17.4323,-4533.7502 15.7500,-4532.0679 15.7500,-4530.0002
L15.7500,-4520.8021
L6.0000,-4520.8021
C3.9323,-4520.8021 2.2500,-4519.1198 2.2500,-4517.0521
L2.2500,-4488.8673
L2.2500,-4466.4271
L2.2500,-4463.4331
L2.2500,-4450.3021
L2.2500,-4438.2384
C2.2500,-4435.1356 4.7738,-4432.6134 7.8750,-4432.6134
L29.2500,-4432.6134
L29.2500,-4431.8634
L7.8750,-4431.8634
C5.4413,-4431.8634 3.3240,-4433.2344 2.2500,-4435.2444
L2.2500,-4422.1134
C2.2500,-4420.0449 3.9323,-4418.3634 6.0000,-4418.3634
L33.0000,-4418.3634
L54.7500,-4418.3634
L81.7500,-4418.3634
C83.8185,-4418.3634 85.5000,-4420.0449 85.5000,-4422.1134
L85.5000,-4435.2444
C84.4260,-4433.2344 82.3080,-4431.8634 79.8750,-4431.8634
L58.5000,-4431.8634
L58.5000,-4432.6134
L79.8750,-4432.6134
C82.9763,-4432.6134 85.5000,-4435.1356 85.5000,-4438.2384
L85.5000,-4449.7502
L85.5000,-4462.8812
L85.5000,-4465.8752
L85.5000,-4488.8634
L85.5000,-4516.5002
Z
M55.8717,-4432.6134
C54.9780,-4432.1349 53.9577,-4431.8634 52.8750,-4431.8634
L34.8750,-4431.8634
C33.7920,-4431.8634 32.7716,-4432.1349 31.8780,-4432.6134
L34.8750,-4432.6134
L52.8750,-4432.6134
L55.8717,-4432.6134
Z" 
style="stroke-width: 0.7200; stroke: #ffffff; stroke-dasharray: none; stroke-linecap: round; stroke-linejoin: round; fill: none; "/>
</g>
<path d=" 
M81.7500,-4522.5000
L74.2500,-4522.5000
L74.2500,-4530.0000
C74.2500,-4533.2993 71.5493,-4536.0000 68.2500,-4536.0000
L19.5000,-4536.0000
C16.2007,-4536.0000 13.5000,-4533.2993 13.5000,-4530.0000
L13.5000,-4522.5000
L6.0000,-4522.5000
C2.7008,-4522.5000 0.0000,-4519.7993 0.0000,-4516.5000
L0.0000,-4422.7500
C0.0000,-4419.4507 2.7008,-4416.7500 6.0000,-4416.7500
L81.7500,-4416.7500
C85.0492,-4416.7500 87.7500,-4419.4507 87.7500,-4422.7500
L87.7500,-4516.5000
C87.7500,-4519.7993 85.0492,-4522.5000 81.7500,-4522.5000
Z
M15.7500,-4476.3817
C16.8247,-4474.3710 18.9412,-4473.0000 21.3750,-4473.0000
L66.3750,-4473.0000
C68.8080,-4473.0000 70.9253,-4474.3710 72.0000,-4476.3817
L72.0000,-4463.2500
C72.0000,-4461.1815 70.3185,-4459.5000 68.2500,-4459.5000
L19.5000,-4459.5000
C17.4323,-4459.5000 15.7500,-4461.1815 15.7500,-4463.2500
L15.7500,-4476.3817
Z
M15.7500,-4530.0000
C15.7500,-4532.0677 17.4323,-4533.7500 19.5000,-4533.7500
L68.2500,-4533.7500
C70.3185,-4533.7500 72.0000,-4532.0677 72.0000,-4530.0000
L72.0000,-4492.1250
L72.0000,-4479.3750
C72.0000,-4476.2722 69.4763,-4473.7500 66.3750,-4473.7500
L21.3750,-4473.7500
C18.2737,-4473.7500 15.7500,-4476.2730 15.7500,-4479.3750
L15.7500,-4492.1250
L15.7500,-4530.0000
Z
M86.2500,-4422.7500
C86.2500,-4420.2683 84.2317,-4418.2500 81.7500,-4418.2500
L6.0000,-4418.2500
C3.5190,-4418.2500 1.5000,-4420.2683 1.5000,-4422.7500
L1.5000,-4516.5000
C1.5000,-4518.9810 3.5190,-4521.0000 6.0000,-4521.0000
L13.5000,-4521.0000
L13.5000,-4463.2500
C13.5000,-4459.9507 16.2007,-4457.2500 19.5000,-4457.2500
L68.2500,-4457.2500
C71.5493,-4457.2500 74.2500,-4459.9507 74.2500,-4463.2500
L74.2500,-4521.0000
L81.7500,-4521.0000
C84.2317,-4521.0000 86.2500,-4518.9810 86.2500,-4516.5000
L86.2500,-4422.7500
Z
M24.7500,-4466.2500
C24.7500,-4465.0080 23.7428,-4464.0000 22.5000,-4464.0000
C23.3273,-4464.0000 24.0000,-4464.6735 24.0000,-4465.5000
C24.0000,-4466.3280 23.3280,-4467.0000 22.5000,-4467.0000
C21.6720,-4467.0000 21.0000,-4466.3280 21.0000,-4465.5000
C21.0000,-4464.6735 21.6720,-4464.0000 22.5000,-4464.0000
C21.2572,-4464.0000 20.2500,-4465.0080 20.2500,-4466.2500
C20.2500,-4467.4920 21.2572,-4468.5000 22.5000,-4468.5000
C23.7428,-4468.5000 24.7500,-4467.4920 24.7500,-4466.2500
Z" 
style="fill-rule: evenodd; fill: #010101; "/>
</svg>
