<?xml version="1.0" encoding="UTF-8" standalone="no"?>
<svg version="1.1" xmlns="http://www.w3.org/2000/svg" xmlns:xlink="http://www.w3.org/1999/xlink" width="1.0940in" height="0.6096in" viewBox="0 0 78.7650 43.8915" >
<g id="Layer1001" >
<path d=" 
M11.4103,-4532.8113
C11.1929,-4532.6742 10.8647,-4532.4664 10.7721,-4532.2975
C10.6287,-4532.0379 10.3967,-4531.6874 10.1919,-4531.3781
C10.0781,-4531.2068 9.9742,-4531.0505 9.9051,-4530.9377
C9.9061,-4530.9347 9.9071,-4530.9313 9.9081,-4530.9284
C9.9529,-4530.7820 10.0276,-4530.5370 9.9094,-4530.1826
C9.7976,-4529.8477 9.5663,-4528.0444 9.7737,-4526.7407
C9.9370,-4525.7181 10.0950,-4525.2401 10.2224,-4524.8567
C10.2736,-4524.7027 10.3187,-4524.5650 10.3565,-4524.4206
C10.4216,-4524.1757 10.3369,-4523.9994 10.2805,-4523.9168
C10.1348,-4523.7020 9.9071,-4523.6582 9.7515,-4523.6383
C9.7757,-4523.5314 9.8026,-4523.3947 9.8338,-4523.2397
C10.0618,-4522.0873 10.2679,-4521.3906 10.4478,-4521.1626
C10.4720,-4521.1865 10.5032,-4521.2210 10.5407,-4521.2705
C10.6337,-4521.3919 10.7764,-4521.4616 10.9264,-4521.4616
C10.9526,-4521.4616 10.9789,-4521.4593 11.0057,-4521.4547
C11.1827,-4521.4255 11.3290,-4521.3007 11.3854,-4521.1297
C11.6321,-4520.3879 12.3433,-4518.3341 12.6719,-4517.7492
C13.1153,-4516.9599 14.0681,-4515.7605 15.3001,-4515.2102
C15.7108,-4515.0267 16.1525,-4514.9154 16.6167,-4514.9154
C18.5079,-4514.9154 19.8634,-4516.9251 20.3576,-4517.7897
C20.5432,-4518.1137 20.7677,-4518.7647 20.9673,-4519.4221
C21.1669,-4520.0796 21.3416,-4520.7434 21.4274,-4521.0929
C21.4610,-4521.2288 21.5506,-4521.3410 21.6702,-4521.4047
C21.7100,-4521.4260 21.7532,-4521.4418 21.7988,-4521.4514
C21.9823,-4521.4899 22.1695,-4521.4188 22.2824,-4521.2705
C22.3199,-4521.2210 22.3511,-4521.1865 22.3756,-4521.1626
C22.4205,-4521.2194 22.4671,-4521.3055 22.5152,-4521.4208
C22.6597,-4521.7668 22.8186,-4522.3751 22.9903,-4523.2397
C23.0132,-4523.3559 23.0343,-4523.4619 23.0534,-4523.5527
C23.0598,-4523.5830 23.0660,-4523.6116 23.0720,-4523.6383
C22.9555,-4523.6532 22.7985,-4523.6812 22.6655,-4523.7851
C22.6212,-4523.8197 22.5795,-4523.8627 22.5429,-4523.9164
C22.5147,-4523.9579 22.4793,-4524.0227 22.4592,-4524.1079
C22.4492,-4524.1504 22.4429,-4524.1981 22.4433,-4524.2505
C22.4436,-4524.3028 22.4506,-4524.3599 22.4669,-4524.4213
C22.5044,-4524.5653 22.5499,-4524.7027 22.6010,-4524.8567
C22.6646,-4525.0486 22.7358,-4525.2640 22.8118,-4525.5593
C22.8877,-4525.8546 22.9683,-4526.2299 23.0504,-4526.7413
C23.2585,-4528.0437 23.0272,-4529.8477 22.9150,-4530.1816
C22.8546,-4530.3628 22.9070,-4530.5626 23.0471,-4530.6917
C23.1430,-4530.7797 23.2665,-4530.8231 23.3939,-4530.8182
C23.3899,-4530.8318 23.3863,-4530.8464 23.3816,-4530.8613
C23.3634,-4530.9270 23.3133,-4530.9795 23.2197,-4531.0747
C23.1301,-4531.1650 23.0189,-4531.2775 22.9326,-4531.4322
L22.8184,-4531.6370
C22.7314,-4531.7937 22.6518,-4531.9394 22.5920,-4532.0280
C22.5914,-4532.0293 22.5751,-4532.0549 22.5741,-4532.0562
C22.1745,-4532.6699 21.7128,-4533.0307 21.2734,-4533.0718
C20.6968,-4533.1259 20.4061,-4533.2947 20.1771,-4533.5369
C20.1008,-4533.6176 20.0313,-4533.7065 19.9603,-4533.8020
C19.8445,-4533.9580 19.7250,-4534.1190 19.4990,-4534.3115
C19.2199,-4534.5492 18.9054,-4534.6117 18.5328,-4534.6310
C18.4087,-4534.6374 18.2780,-4534.6390 18.1401,-4534.6408
C17.9888,-4534.6424 17.8348,-4534.6443 17.6777,-4534.6531
C17.5992,-4534.6576 17.5199,-4534.6638 17.4397,-4534.6726
C17.3596,-4534.6814 17.2787,-4534.6929 17.1968,-4534.7078
C16.9487,-4534.7528 16.6341,-4534.7905 16.3016,-4534.8169
C15.9692,-4534.8433 15.6190,-4534.8585 15.2997,-4534.8585
C14.6007,-4534.8585 14.3530,-4534.7891 14.2936,-4534.7682
C13.8429,-4534.6069 13.7247,-4534.5203 13.3733,-4534.2641
L13.2780,-4534.1947
C12.7997,-4533.8455 11.9862,-4533.2394 11.7678,-4533.0569
C11.6706,-4532.9756 11.5501,-4532.8999 11.4103,-4532.8113
Z
M11.5716,-4514.3206
C11.4605,-4513.8357 10.6679,-4513.3568 6.5837,-4511.3075
C5.2458,-4510.6358 3.7283,-4509.8744 3.4458,-4509.6414
L3.3476,-4509.5604
C2.6091,-4508.9576 1.3863,-4507.9596 1.6688,-4504.8118
C2.4283,-4504.4082 5.3016,-4503.0449 10.5344,-4502.3884
C12.2787,-4502.1696 14.2852,-4502.0294 16.5629,-4502.0294
C21.1371,-4502.0294 24.6083,-4502.5908 27.0611,-4503.2194
C29.5139,-4503.8480 30.9483,-4504.5437 31.4490,-4504.8124
C31.7577,-4507.8856 30.5954,-4508.8206 29.8194,-4509.4452
L29.6697,-4509.5667
C29.3733,-4509.8110 27.7828,-4510.6364 26.3804,-4511.3643
C24.2751,-4512.4569 23.1004,-4513.0882 22.4369,-4513.4963
C21.7735,-4513.9044 21.6215,-4514.0894 21.5618,-4514.2898
C21.4993,-4514.5023 21.5844,-4514.7228 21.7572,-4514.8417
L20.5280,-4516.2861
C19.6806,-4515.1553 18.3666,-4513.9482 16.6167,-4513.9482
C14.8079,-4513.9482 13.4368,-4515.1626 12.6309,-4516.1310
L11.3527,-4514.8528
C11.5262,-4514.7430 11.6204,-4514.5320 11.5716,-4514.3206
Z" 
style="stroke-width: 0.7200; stroke-linecap: round; stroke-linejoin: round; fill-rule: evenodd; fill: #ffffff; "/>
<path d=" 
M11.4103,-4532.8113
C11.1929,-4532.6742 10.8647,-4532.4664 10.7721,-4532.2975
C10.6287,-4532.0379 10.3967,-4531.6874 10.1919,-4531.3781
C10.0781,-4531.2068 9.9742,-4531.0505 9.9051,-4530.9377
C9.9061,-4530.9347 9.9071,-4530.9313 9.9081,-4530.9284
C9.9529,-4530.7820 10.0276,-4530.5370 9.9094,-4530.1826
C9.7976,-4529.8477 9.5663,-4528.0444 9.7737,-4526.7407
C9.9370,-4525.7181 10.0950,-4525.2401 10.2224,-4524.8567
C10.2736,-4524.7027 10.3187,-4524.5650 10.3565,-4524.4206
C10.4216,-4524.1757 10.3369,-4523.9994 10.2805,-4523.9168
C10.1348,-4523.7020 9.9071,-4523.6582 9.7515,-4523.6383
C9.7757,-4523.5314 9.8026,-4523.3947 9.8338,-4523.2397
C10.0618,-4522.0873 10.2679,-4521.3906 10.4478,-4521.1626
C10.4720,-4521.1865 10.5032,-4521.2210 10.5407,-4521.2705
C10.6337,-4521.3919 10.7764,-4521.4616 10.9264,-4521.4616
C10.9526,-4521.4616 10.9789,-4521.4593 11.0057,-4521.4547
C11.1827,-4521.4255 11.3290,-4521.3007 11.3854,-4521.1297
C11.6321,-4520.3879 12.3433,-4518.3341 12.6719,-4517.7492
C13.1153,-4516.9599 14.0681,-4515.7605 15.3001,-4515.2102
C15.7108,-4515.0267 16.1525,-4514.9154 16.6167,-4514.9154
C18.5079,-4514.9154 19.8634,-4516.9251 20.3576,-4517.7897
C20.5432,-4518.1137 20.7677,-4518.7647 20.9673,-4519.4221
C21.1669,-4520.0796 21.3416,-4520.7434 21.4274,-4521.0929
C21.4610,-4521.2288 21.5506,-4521.3410 21.6702,-4521.4047
C21.7100,-4521.4260 21.7532,-4521.4418 21.7988,-4521.4514
C21.9823,-4521.4899 22.1695,-4521.4188 22.2824,-4521.2705
C22.3199,-4521.2210 22.3511,-4521.1865 22.3756,-4521.1626
C22.4205,-4521.2194 22.4671,-4521.3055 22.5152,-4521.4208
C22.6597,-4521.7668 22.8186,-4522.3751 22.9903,-4523.2397
C23.0132,-4523.3559 23.0343,-4523.4619 23.0534,-4523.5527
C23.0598,-4523.5830 23.0660,-4523.6116 23.0720,-4523.6383
C22.9555,-4523.6532 22.7985,-4523.6812 22.6655,-4523.7851
C22.6212,-4523.8197 22.5795,-4523.8627 22.5429,-4523.9164
C22.5147,-4523.9579 22.4793,-4524.0227 22.4592,-4524.1079
C22.4492,-4524.1504 22.4429,-4524.1981 22.4433,-4524.2505
C22.4436,-4524.3028 22.4506,-4524.3599 22.4669,-4524.4213
C22.5044,-4524.5653 22.5499,-4524.7027 22.6010,-4524.8567
C22.6646,-4525.0486 22.7358,-4525.2640 22.8118,-4525.5593
C22.8877,-4525.8546 22.9683,-4526.2299 23.0504,-4526.7413
C23.2585,-4528.0437 23.0272,-4529.8477 22.9150,-4530.1816
C22.8546,-4530.3628 22.9070,-4530.5626 23.0471,-4530.6917
C23.1430,-4530.7797 23.2665,-4530.8231 23.3939,-4530.8182
C23.3899,-4530.8318 23.3863,-4530.8464 23.3816,-4530.8613
C23.3634,-4530.9270 23.3133,-4530.9795 23.2197,-4531.0747
C23.1301,-4531.1650 23.0189,-4531.2775 22.9326,-4531.4322
L22.8184,-4531.6370
C22.7314,-4531.7937 22.6518,-4531.9394 22.5920,-4532.0280
C22.5914,-4532.0293 22.5751,-4532.0549 22.5741,-4532.0562
C22.1745,-4532.6699 21.7128,-4533.0307 21.2734,-4533.0718
C20.6968,-4533.1259 20.4061,-4533.2947 20.1771,-4533.5369
C20.1008,-4533.6176 20.0313,-4533.7065 19.9603,-4533.8020
C19.8445,-4533.9580 19.7250,-4534.1190 19.4990,-4534.3115
C19.2199,-4534.5492 18.9054,-4534.6117 18.5328,-4534.6310
C18.4087,-4534.6374 18.2780,-4534.6390 18.1401,-4534.6408
C17.9888,-4534.6424 17.8348,-4534.6443 17.6777,-4534.6531
C17.5992,-4534.6576 17.5199,-4534.6638 17.4397,-4534.6726
C17.3596,-4534.6814 17.2787,-4534.6929 17.1968,-4534.7078
C16.9487,-4534.7528 16.6341,-4534.7905 16.3016,-4534.8169
C15.9692,-4534.8433 15.6190,-4534.8585 15.2997,-4534.8585
C14.6007,-4534.8585 14.3530,-4534.7891 14.2936,-4534.7682
C13.8429,-4534.6069 13.7247,-4534.5203 13.3733,-4534.2641
L13.2780,-4534.1947
C12.7997,-4533.8455 11.9862,-4533.2394 11.7678,-4533.0569
C11.6706,-4532.9756 11.5501,-4532.8999 11.4103,-4532.8113
Z
M11.5716,-4514.3206
C11.4605,-4513.8357 10.6679,-4513.3568 6.5837,-4511.3075
C5.2458,-4510.6358 3.7283,-4509.8744 3.4458,-4509.6414
L3.3476,-4509.5604
C2.6091,-4508.9576 1.3863,-4507.9596 1.6688,-4504.8118
C2.4283,-4504.4082 5.3016,-4503.0449 10.5344,-4502.3884
C12.2787,-4502.1696 14.2852,-4502.0294 16.5629,-4502.0294
C21.1371,-4502.0294 24.6083,-4502.5908 27.0611,-4503.2194
C29.5139,-4503.8480 30.9483,-4504.5437 31.4490,-4504.8124
C31.7577,-4507.8856 30.5954,-4508.8206 29.8194,-4509.4452
L29.6697,-4509.5667
C29.3733,-4509.8110 27.7828,-4510.6364 26.3804,-4511.3643
C24.2751,-4512.4569 23.1004,-4513.0882 22.4369,-4513.4963
C21.7735,-4513.9044 21.6215,-4514.0894 21.5618,-4514.2898
C21.4993,-4514.5023 21.5844,-4514.7228 21.7572,-4514.8417
L20.5280,-4516.2861
C19.6806,-4515.1553 18.3666,-4513.9482 16.6167,-4513.9482
C14.8079,-4513.9482 13.4368,-4515.1626 12.6309,-4516.1310
L11.3527,-4514.8528
C11.5262,-4514.7430 11.6204,-4514.5320 11.5716,-4514.3206
Z" 
style="stroke-width: 0.7200; stroke: #ffffff; stroke-dasharray: none; stroke-linecap: round; stroke-linejoin: round; fill: none; "/>
</g>
<g id="Layer1002" >
<path d=" 
M32.8736,-4532.0680
C32.5994,-4531.8951 32.1852,-4531.6329 32.0684,-4531.4198
C31.8875,-4531.0923 31.5948,-4530.6502 31.3364,-4530.2599
C31.1928,-4530.0438 31.0617,-4529.8466 30.9747,-4529.7042
C30.9759,-4529.7005 30.9772,-4529.6963 30.9784,-4529.6925
C31.0349,-4529.5078 31.1292,-4529.1988 30.9801,-4528.7516
C30.8390,-4528.3291 30.5471,-4526.0541 30.8088,-4524.4093
C31.0149,-4523.1192 31.2142,-4522.5162 31.3750,-4522.0325
C31.4394,-4521.8383 31.4964,-4521.6645 31.5441,-4521.4823
C31.6262,-4521.1733 31.5194,-4520.9510 31.4482,-4520.8467
C31.2644,-4520.5758 30.9772,-4520.5205 30.7808,-4520.4954
C30.8113,-4520.3605 30.8453,-4520.1880 30.8846,-4519.9925
C31.1723,-4518.5386 31.4323,-4517.6597 31.6593,-4517.3720
C31.6899,-4517.4022 31.7292,-4517.4457 31.7765,-4517.5081
C31.8938,-4517.6614 32.0738,-4517.7493 32.2631,-4517.7493
C32.2962,-4517.7493 32.3293,-4517.7464 32.3632,-4517.7405
C32.5864,-4517.7036 32.7710,-4517.5462 32.8422,-4517.3306
C33.1533,-4516.3947 34.0507,-4513.8035 34.4652,-4513.0657
C35.0246,-4512.0699 36.2267,-4510.5568 37.7810,-4509.8624
C38.2991,-4509.6310 38.8563,-4509.4905 39.4419,-4509.4905
C41.8279,-4509.4905 43.5380,-4512.0260 44.1615,-4513.1168
C44.3956,-4513.5255 44.6789,-4514.3468 44.9307,-4515.1763
C45.1825,-4516.0057 45.4029,-4516.8431 45.5111,-4517.2841
C45.5535,-4517.4555 45.6666,-4517.5971 45.8174,-4517.6775
C45.8677,-4517.7043 45.9222,-4517.7243 45.9797,-4517.7363
C46.2112,-4517.7849 46.4474,-4517.6953 46.5898,-4517.5081
C46.6371,-4517.4457 46.6764,-4517.4022 46.7074,-4517.3720
C46.7641,-4517.4436 46.8228,-4517.5523 46.8835,-4517.6978
C47.0658,-4518.1342 47.2662,-4518.9018 47.4829,-4519.9925
C47.5118,-4520.1391 47.5384,-4520.2728 47.5625,-4520.3874
C47.5706,-4520.4256 47.5784,-4520.4617 47.5859,-4520.4954
C47.4390,-4520.5142 47.2409,-4520.5495 47.0731,-4520.6805
C47.0172,-4520.7242 46.9646,-4520.7784 46.9185,-4520.8463
C46.8829,-4520.8986 46.8383,-4520.9804 46.8129,-4521.0878
C46.8002,-4521.1415 46.7923,-4521.2016 46.7928,-4521.2676
C46.7932,-4521.3337 46.8020,-4521.4057 46.8226,-4521.4832
C46.8699,-4521.6649 46.9273,-4521.8383 46.9918,-4522.0325
C47.0719,-4522.2746 47.1619,-4522.5463 47.2577,-4522.9189
C47.3534,-4523.2915 47.4551,-4523.7649 47.5587,-4524.4101
C47.8213,-4526.0533 47.5294,-4528.3291 47.3879,-4528.7503
C47.3117,-4528.9790 47.3778,-4529.2311 47.5545,-4529.3939
C47.6756,-4529.5049 47.8313,-4529.5598 47.9921,-4529.5535
C47.9871,-4529.5707 47.9825,-4529.5891 47.9766,-4529.6079
C47.9536,-4529.6908 47.8904,-4529.7570 47.7723,-4529.8772
C47.6592,-4529.9911 47.5189,-4530.1330 47.4101,-4530.3281
L47.2660,-4530.5865
C47.1563,-4530.7842 47.0558,-4530.9680 46.9805,-4531.0798
C46.9796,-4531.0815 46.9591,-4531.1137 46.9578,-4531.1154
C46.4537,-4531.8896 45.8712,-4532.3448 45.3168,-4532.3967
C44.5895,-4532.4649 44.2227,-4532.6779 43.9338,-4532.9834
C43.8375,-4533.0853 43.7498,-4533.1974 43.6603,-4533.3179
C43.5141,-4533.5147 43.3634,-4533.7178 43.0782,-4533.9607
C42.7262,-4534.2606 42.3294,-4534.3394 41.8594,-4534.3637
C41.7027,-4534.3718 41.5379,-4534.3739 41.3639,-4534.3761
C41.1730,-4534.3782 40.9787,-4534.3805 40.7805,-4534.3917
C40.6814,-4534.3973 40.5814,-4534.4051 40.4803,-4534.4162
C40.3792,-4534.4274 40.2771,-4534.4418 40.1739,-4534.4607
C39.8609,-4534.5174 39.4639,-4534.5649 39.0445,-4534.5983
C38.6251,-4534.6316 38.1832,-4534.6508 37.7804,-4534.6508
C36.8985,-4534.6508 36.5861,-4534.5633 36.5112,-4534.5369
C35.9425,-4534.3334 35.7935,-4534.2241 35.3500,-4533.9008
L35.2299,-4533.8133
C34.6265,-4533.3728 33.6001,-4532.6082 33.3246,-4532.3779
C33.2019,-4532.2753 33.0499,-4532.1798 32.8736,-4532.0680
Z
M33.0771,-4508.7402
C32.9369,-4508.1284 31.9369,-4507.5242 26.7844,-4504.9389
C25.0964,-4504.0913 23.1820,-4503.1308 22.8256,-4502.8368
L22.7017,-4502.7346
C21.7700,-4501.9742 20.2274,-4500.7151 20.5837,-4496.7438
C21.5419,-4496.2347 25.1668,-4494.5147 31.7686,-4493.6865
C33.9692,-4493.4105 36.5005,-4493.2335 39.3741,-4493.2335
C45.1449,-4493.2335 49.5242,-4493.9418 52.6186,-4494.7348
C55.7131,-4495.5279 57.5228,-4496.4056 58.1544,-4496.7446
C58.5439,-4500.6217 57.0775,-4501.8013 56.0984,-4502.5893
L55.9096,-4502.7426
C55.5357,-4503.0508 53.5291,-4504.0922 51.7599,-4505.0105
C49.1039,-4506.3890 47.6217,-4507.1853 46.7848,-4507.7002
C45.9478,-4508.2151 45.7561,-4508.4485 45.6807,-4508.7012
C45.6019,-4508.9694 45.7092,-4509.2475 45.9273,-4509.3975
L44.3765,-4511.2199
C43.3074,-4509.7932 41.6497,-4508.2703 39.4419,-4508.2703
C37.1600,-4508.2703 35.4301,-4509.8024 34.4135,-4511.0241
L32.8009,-4509.4115
C33.0198,-4509.2731 33.1386,-4509.0069 33.0771,-4508.7402
Z" 
style="stroke-width: 0.7200; stroke-linecap: round; stroke-linejoin: round; fill-rule: evenodd; fill: #ffffff; "/>
<path d=" 
M32.8736,-4532.0680
C32.5994,-4531.8951 32.1852,-4531.6329 32.0684,-4531.4198
C31.8875,-4531.0923 31.5948,-4530.6502 31.3364,-4530.2599
C31.1928,-4530.0438 31.0617,-4529.8466 30.9747,-4529.7042
C30.9759,-4529.7005 30.9772,-4529.6963 30.9784,-4529.6925
C31.0349,-4529.5078 31.1292,-4529.1988 30.9801,-4528.7516
C30.8390,-4528.3291 30.5471,-4526.0541 30.8088,-4524.4093
C31.0149,-4523.1192 31.2142,-4522.5162 31.3750,-4522.0325
C31.4394,-4521.8383 31.4964,-4521.6645 31.5441,-4521.4823
C31.6262,-4521.1733 31.5194,-4520.9510 31.4482,-4520.8467
C31.2644,-4520.5758 30.9772,-4520.5205 30.7808,-4520.4954
C30.8113,-4520.3605 30.8453,-4520.1880 30.8846,-4519.9925
C31.1723,-4518.5386 31.4323,-4517.6597 31.6593,-4517.3720
C31.6899,-4517.4022 31.7292,-4517.4457 31.7765,-4517.5081
C31.8938,-4517.6614 32.0738,-4517.7493 32.2631,-4517.7493
C32.2962,-4517.7493 32.3293,-4517.7464 32.3632,-4517.7405
C32.5864,-4517.7036 32.7710,-4517.5462 32.8422,-4517.3306
C33.1533,-4516.3947 34.0507,-4513.8035 34.4652,-4513.0657
C35.0246,-4512.0699 36.2267,-4510.5568 37.7810,-4509.8624
C38.2991,-4509.6310 38.8563,-4509.4905 39.4419,-4509.4905
C41.8279,-4509.4905 43.5380,-4512.0260 44.1615,-4513.1168
C44.3956,-4513.5255 44.6789,-4514.3468 44.9307,-4515.1763
C45.1825,-4516.0057 45.4029,-4516.8431 45.5111,-4517.2841
C45.5535,-4517.4555 45.6666,-4517.5971 45.8174,-4517.6775
C45.8677,-4517.7043 45.9222,-4517.7243 45.9797,-4517.7363
C46.2112,-4517.7849 46.4474,-4517.6953 46.5898,-4517.5081
C46.6371,-4517.4457 46.6764,-4517.4022 46.7074,-4517.3720
C46.7641,-4517.4436 46.8228,-4517.5523 46.8835,-4517.6978
C47.0658,-4518.1342 47.2662,-4518.9018 47.4829,-4519.9925
C47.5118,-4520.1391 47.5384,-4520.2728 47.5625,-4520.3874
C47.5706,-4520.4256 47.5784,-4520.4617 47.5859,-4520.4954
C47.4390,-4520.5142 47.2409,-4520.5495 47.0731,-4520.6805
C47.0172,-4520.7242 46.9646,-4520.7784 46.9185,-4520.8463
C46.8829,-4520.8986 46.8383,-4520.9804 46.8129,-4521.0878
C46.8002,-4521.1415 46.7923,-4521.2016 46.7928,-4521.2676
C46.7932,-4521.3337 46.8020,-4521.4057 46.8226,-4521.4832
C46.8699,-4521.6649 46.9273,-4521.8383 46.9918,-4522.0325
C47.0719,-4522.2746 47.1619,-4522.5463 47.2577,-4522.9189
C47.3534,-4523.2915 47.4551,-4523.7649 47.5587,-4524.4101
C47.8213,-4526.0533 47.5294,-4528.3291 47.3879,-4528.7503
C47.3117,-4528.9790 47.3778,-4529.2311 47.5545,-4529.3939
C47.6756,-4529.5049 47.8313,-4529.5598 47.9921,-4529.5535
C47.9871,-4529.5707 47.9825,-4529.5891 47.9766,-4529.6079
C47.9536,-4529.6908 47.8904,-4529.7570 47.7723,-4529.8772
C47.6592,-4529.9911 47.5189,-4530.1330 47.4101,-4530.3281
L47.2660,-4530.5865
C47.1563,-4530.7842 47.0558,-4530.9680 46.9805,-4531.0798
C46.9796,-4531.0815 46.9591,-4531.1137 46.9578,-4531.1154
C46.4537,-4531.8896 45.8712,-4532.3448 45.3168,-4532.3967
C44.5895,-4532.4649 44.2227,-4532.6779 43.9338,-4532.9834
C43.8375,-4533.0853 43.7498,-4533.1974 43.6603,-4533.3179
C43.5141,-4533.5147 43.3634,-4533.7178 43.0782,-4533.9607
C42.7262,-4534.2606 42.3294,-4534.3394 41.8594,-4534.3637
C41.7027,-4534.3718 41.5379,-4534.3739 41.3639,-4534.3761
C41.1730,-4534.3782 40.9787,-4534.3805 40.7805,-4534.3917
C40.6814,-4534.3973 40.5814,-4534.4051 40.4803,-4534.4162
C40.3792,-4534.4274 40.2771,-4534.4418 40.1739,-4534.4607
C39.8609,-4534.5174 39.4639,-4534.5649 39.0445,-4534.5983
C38.6251,-4534.6316 38.1832,-4534.6508 37.7804,-4534.6508
C36.8985,-4534.6508 36.5861,-4534.5633 36.5112,-4534.5369
C35.9425,-4534.3334 35.7935,-4534.2241 35.3500,-4533.9008
L35.2299,-4533.8133
C34.6265,-4533.3728 33.6001,-4532.6082 33.3246,-4532.3779
C33.2019,-4532.2753 33.0499,-4532.1798 32.8736,-4532.0680
Z
M33.0771,-4508.7402
C32.9369,-4508.1284 31.9369,-4507.5242 26.7844,-4504.9389
C25.0964,-4504.0913 23.1820,-4503.1308 22.8256,-4502.8368
L22.7017,-4502.7346
C21.7700,-4501.9742 20.2274,-4500.7151 20.5837,-4496.7438
C21.5419,-4496.2347 25.1668,-4494.5147 31.7686,-4493.6865
C33.9692,-4493.4105 36.5005,-4493.2335 39.3741,-4493.2335
C45.1449,-4493.2335 49.5242,-4493.9418 52.6186,-4494.7348
C55.7131,-4495.5279 57.5228,-4496.4056 58.1544,-4496.7446
C58.5439,-4500.6217 57.0775,-4501.8013 56.0984,-4502.5893
L55.9096,-4502.7426
C55.5357,-4503.0508 53.5291,-4504.0922 51.7599,-4505.0105
C49.1039,-4506.3890 47.6217,-4507.1853 46.7848,-4507.7002
C45.9478,-4508.2151 45.7561,-4508.4485 45.6807,-4508.7012
C45.6019,-4508.9694 45.7092,-4509.2475 45.9273,-4509.3975
L44.3765,-4511.2199
C43.3074,-4509.7932 41.6497,-4508.2703 39.4419,-4508.2703
C37.1600,-4508.2703 35.4301,-4509.8024 34.4135,-4511.0241
L32.8009,-4509.4115
C33.0198,-4509.2731 33.1386,-4509.0069 33.0771,-4508.7402
Z" 
style="stroke-width: 0.7200; stroke: #ffffff; stroke-dasharray: none; stroke-linecap: round; stroke-linejoin: round; fill: none; "/>
</g>
<g id="Layer1003" >
<path d=" 
M57.0331,-4532.8113
C56.8157,-4532.6742 56.4874,-4532.4664 56.3948,-4532.2975
C56.2515,-4532.0379 56.0195,-4531.6874 55.8147,-4531.3781
C55.7008,-4531.2068 55.5969,-4531.0505 55.5279,-4530.9377
C55.5289,-4530.9347 55.5299,-4530.9313 55.5309,-4530.9284
C55.5757,-4530.7820 55.6504,-4530.5370 55.5322,-4530.1826
C55.4204,-4529.8477 55.1890,-4528.0444 55.3965,-4526.7407
C55.5598,-4525.7181 55.7178,-4525.2401 55.8452,-4524.8567
C55.8963,-4524.7027 55.9415,-4524.5650 55.9793,-4524.4206
C56.0443,-4524.1757 55.9597,-4523.9994 55.9033,-4523.9168
C55.7576,-4523.7020 55.5299,-4523.6582 55.3742,-4523.6383
C55.3985,-4523.5314 55.4253,-4523.3947 55.4565,-4523.2397
C55.6846,-4522.0873 55.8907,-4521.3906 56.0706,-4521.1626
C56.0948,-4521.1865 56.1260,-4521.2210 56.1635,-4521.2705
C56.2564,-4521.3919 56.3992,-4521.4616 56.5492,-4521.4616
C56.5754,-4521.4616 56.6016,-4521.4593 56.6285,-4521.4547
C56.8054,-4521.4255 56.9518,-4521.3007 57.0082,-4521.1297
C57.2548,-4520.3879 57.9661,-4518.3341 58.2947,-4517.7492
C58.7380,-4516.9599 59.6909,-4515.7605 60.9229,-4515.2102
C61.3336,-4515.0267 61.7753,-4514.9154 62.2394,-4514.9154
C64.1307,-4514.9154 65.4862,-4516.9251 65.9804,-4517.7897
C66.1659,-4518.1137 66.3905,-4518.7647 66.5901,-4519.4221
C66.7897,-4520.0796 66.9643,-4520.7434 67.0501,-4521.0929
C67.0837,-4521.2288 67.1733,-4521.3410 67.2929,-4521.4047
C67.3328,-4521.4260 67.3760,-4521.4418 67.4215,-4521.4514
C67.6051,-4521.4899 67.7923,-4521.4188 67.9051,-4521.2705
C67.9426,-4521.2210 67.9738,-4521.1865 67.9984,-4521.1626
C68.0433,-4521.2194 68.0898,-4521.3055 68.1380,-4521.4208
C68.2824,-4521.7668 68.4413,-4522.3751 68.6131,-4523.2397
C68.6360,-4523.3559 68.6570,-4523.4619 68.6762,-4523.5527
C68.6826,-4523.5830 68.6888,-4523.6116 68.6947,-4523.6383
C68.5782,-4523.6532 68.4212,-4523.6812 68.2882,-4523.7851
C68.2439,-4523.8197 68.2023,-4523.8627 68.1657,-4523.9164
C68.1375,-4523.9579 68.1021,-4524.0227 68.0820,-4524.1079
C68.0719,-4524.1504 68.0657,-4524.1981 68.0660,-4524.2505
C68.0664,-4524.3028 68.0733,-4524.3599 68.0897,-4524.4213
C68.1272,-4524.5653 68.1726,-4524.7027 68.2238,-4524.8567
C68.2873,-4525.0486 68.3586,-4525.2640 68.4345,-4525.5593
C68.5104,-4525.8546 68.5910,-4526.2299 68.6732,-4526.7413
C68.8813,-4528.0437 68.6499,-4529.8477 68.5377,-4530.1816
C68.4773,-4530.3628 68.5298,-4530.5626 68.6698,-4530.6917
C68.7658,-4530.7797 68.8892,-4530.8231 69.0167,-4530.8182
C69.0127,-4530.8318 69.0091,-4530.8464 69.0044,-4530.8613
C68.9862,-4530.9270 68.9360,-4530.9795 68.8424,-4531.0747
C68.7528,-4531.1650 68.6416,-4531.2775 68.5553,-4531.4322
L68.4412,-4531.6370
C68.3542,-4531.7937 68.2745,-4531.9394 68.2148,-4532.0280
C68.2141,-4532.0293 68.1979,-4532.0549 68.1969,-4532.0562
C67.7973,-4532.6699 67.3356,-4533.0307 66.8961,-4533.0718
C66.3196,-4533.1259 66.0289,-4533.2947 65.7999,-4533.5369
C65.7235,-4533.6176 65.6540,-4533.7065 65.5831,-4533.8020
C65.4673,-4533.9580 65.3478,-4534.1190 65.1217,-4534.3115
C64.8427,-4534.5492 64.5282,-4534.6117 64.1556,-4534.6310
C64.0314,-4534.6374 63.9008,-4534.6390 63.7629,-4534.6408
C63.6115,-4534.6424 63.4575,-4534.6443 63.3005,-4534.6531
C63.2219,-4534.6576 63.1426,-4534.6638 63.0625,-4534.6726
C62.9824,-4534.6814 62.9014,-4534.6929 62.8196,-4534.7078
C62.5715,-4534.7528 62.2569,-4534.7905 61.9244,-4534.8169
C61.5920,-4534.8433 61.2417,-4534.8585 60.9224,-4534.8585
C60.2234,-4534.8585 59.9758,-4534.7891 59.9164,-4534.7682
C59.4657,-4534.6069 59.3475,-4534.5203 58.9960,-4534.2641
L58.9008,-4534.1947
C58.4225,-4533.8455 57.6090,-4533.2394 57.3906,-4533.0569
C57.2933,-4532.9756 57.1728,-4532.8999 57.0331,-4532.8113
Z
M57.1944,-4514.3206
C57.0832,-4513.8357 56.2906,-4513.3568 52.2065,-4511.3075
C50.8686,-4510.6358 49.3511,-4509.8744 49.0686,-4509.6414
L48.9704,-4509.5604
C48.2319,-4508.9576 47.0091,-4507.9596 47.2916,-4504.8118
C48.0511,-4504.4082 50.9244,-4503.0449 56.1572,-4502.3884
C57.9015,-4502.1696 59.9079,-4502.0294 62.1857,-4502.0294
C66.7599,-4502.0294 70.2311,-4502.5908 72.6839,-4503.2194
C75.1367,-4503.8480 76.5711,-4504.5437 77.0718,-4504.8124
C77.3805,-4507.8856 76.2181,-4508.8206 75.4421,-4509.4452
L75.2924,-4509.5667
C74.9960,-4509.8110 73.4055,-4510.6364 72.0032,-4511.3643
C69.8979,-4512.4569 68.7231,-4513.0882 68.0597,-4513.4963
C67.3963,-4513.9044 67.2443,-4514.0894 67.1846,-4514.2898
C67.1221,-4514.5023 67.2072,-4514.7228 67.3800,-4514.8417
L66.1508,-4516.2861
C65.3034,-4515.1553 63.9894,-4513.9482 62.2394,-4513.9482
C60.4307,-4513.9482 59.0595,-4515.1626 58.2537,-4516.1310
L56.9754,-4514.8528
C57.1490,-4514.7430 57.2431,-4514.5320 57.1944,-4514.3206
Z" 
style="stroke-width: 0.7200; stroke-linecap: round; stroke-linejoin: round; fill-rule: evenodd; fill: #ffffff; "/>
<path d=" 
M57.0331,-4532.8113
C56.8157,-4532.6742 56.4874,-4532.4664 56.3948,-4532.2975
C56.2515,-4532.0379 56.0195,-4531.6874 55.8147,-4531.3781
C55.7008,-4531.2068 55.5969,-4531.0505 55.5279,-4530.9377
C55.5289,-4530.9347 55.5299,-4530.9313 55.5309,-4530.9284
C55.5757,-4530.7820 55.6504,-4530.5370 55.5322,-4530.1826
C55.4204,-4529.8477 55.1890,-4528.0444 55.3965,-4526.7407
C55.5598,-4525.7181 55.7178,-4525.2401 55.8452,-4524.8567
C55.8963,-4524.7027 55.9415,-4524.5650 55.9793,-4524.4206
C56.0443,-4524.1757 55.9597,-4523.9994 55.9033,-4523.9168
C55.7576,-4523.7020 55.5299,-4523.6582 55.3742,-4523.6383
C55.3985,-4523.5314 55.4253,-4523.3947 55.4565,-4523.2397
C55.6846,-4522.0873 55.8907,-4521.3906 56.0706,-4521.1626
C56.0948,-4521.1865 56.1260,-4521.2210 56.1635,-4521.2705
C56.2564,-4521.3919 56.3992,-4521.4616 56.5492,-4521.4616
C56.5754,-4521.4616 56.6016,-4521.4593 56.6285,-4521.4547
C56.8054,-4521.4255 56.9518,-4521.3007 57.0082,-4521.1297
C57.2548,-4520.3879 57.9661,-4518.3341 58.2947,-4517.7492
C58.7380,-4516.9599 59.6909,-4515.7605 60.9229,-4515.2102
C61.3336,-4515.0267 61.7753,-4514.9154 62.2394,-4514.9154
C64.1307,-4514.9154 65.4862,-4516.9251 65.9804,-4517.7897
C66.1659,-4518.1137 66.3905,-4518.7647 66.5901,-4519.4221
C66.7897,-4520.0796 66.9643,-4520.7434 67.0501,-4521.0929
C67.0837,-4521.2288 67.1733,-4521.3410 67.2929,-4521.4047
C67.3328,-4521.4260 67.3760,-4521.4418 67.4215,-4521.4514
C67.6051,-4521.4899 67.7923,-4521.4188 67.9051,-4521.2705
C67.9426,-4521.2210 67.9738,-4521.1865 67.9984,-4521.1626
C68.0433,-4521.2194 68.0898,-4521.3055 68.1380,-4521.4208
C68.2824,-4521.7668 68.4413,-4522.3751 68.6131,-4523.2397
C68.6360,-4523.3559 68.6570,-4523.4619 68.6762,-4523.5527
C68.6826,-4523.5830 68.6888,-4523.6116 68.6947,-4523.6383
C68.5782,-4523.6532 68.4212,-4523.6812 68.2882,-4523.7851
C68.2439,-4523.8197 68.2023,-4523.8627 68.1657,-4523.9164
C68.1375,-4523.9579 68.1021,-4524.0227 68.0820,-4524.1079
C68.0719,-4524.1504 68.0657,-4524.1981 68.0660,-4524.2505
C68.0664,-4524.3028 68.0733,-4524.3599 68.0897,-4524.4213
C68.1272,-4524.5653 68.1726,-4524.7027 68.2238,-4524.8567
C68.2873,-4525.0486 68.3586,-4525.2640 68.4345,-4525.5593
C68.5104,-4525.8546 68.5910,-4526.2299 68.6732,-4526.7413
C68.8813,-4528.0437 68.6499,-4529.8477 68.5377,-4530.1816
C68.4773,-4530.3628 68.5298,-4530.5626 68.6698,-4530.6917
C68.7658,-4530.7797 68.8892,-4530.8231 69.0167,-4530.8182
C69.0127,-4530.8318 69.0091,-4530.8464 69.0044,-4530.8613
C68.9862,-4530.9270 68.9360,-4530.9795 68.8424,-4531.0747
C68.7528,-4531.1650 68.6416,-4531.2775 68.5553,-4531.4322
L68.4412,-4531.6370
C68.3542,-4531.7937 68.2745,-4531.9394 68.2148,-4532.0280
C68.2141,-4532.0293 68.1979,-4532.0549 68.1969,-4532.0562
C67.7973,-4532.6699 67.3356,-4533.0307 66.8961,-4533.0718
C66.3196,-4533.1259 66.0289,-4533.2947 65.7999,-4533.5369
C65.7235,-4533.6176 65.6540,-4533.7065 65.5831,-4533.8020
C65.4673,-4533.9580 65.3478,-4534.1190 65.1217,-4534.3115
C64.8427,-4534.5492 64.5282,-4534.6117 64.1556,-4534.6310
C64.0314,-4534.6374 63.9008,-4534.6390 63.7629,-4534.6408
C63.6115,-4534.6424 63.4575,-4534.6443 63.3005,-4534.6531
C63.2219,-4534.6576 63.1426,-4534.6638 63.0625,-4534.6726
C62.9824,-4534.6814 62.9014,-4534.6929 62.8196,-4534.7078
C62.5715,-4534.7528 62.2569,-4534.7905 61.9244,-4534.8169
C61.5920,-4534.8433 61.2417,-4534.8585 60.9224,-4534.8585
C60.2234,-4534.8585 59.9758,-4534.7891 59.9164,-4534.7682
C59.4657,-4534.6069 59.3475,-4534.5203 58.9960,-4534.2641
L58.9008,-4534.1947
C58.4225,-4533.8455 57.6090,-4533.2394 57.3906,-4533.0569
C57.2933,-4532.9756 57.1728,-4532.8999 57.0331,-4532.8113
Z
M57.1944,-4514.3206
C57.0832,-4513.8357 56.2906,-4513.3568 52.2065,-4511.3075
C50.8686,-4510.6358 49.3511,-4509.8744 49.0686,-4509.6414
L48.9704,-4509.5604
C48.2319,-4508.9576 47.0091,-4507.9596 47.2916,-4504.8118
C48.0511,-4504.4082 50.9244,-4503.0449 56.1572,-4502.3884
C57.9015,-4502.1696 59.9079,-4502.0294 62.1857,-4502.0294
C66.7599,-4502.0294 70.2311,-4502.5908 72.6839,-4503.2194
C75.1367,-4503.8480 76.5711,-4504.5437 77.0718,-4504.8124
C77.3805,-4507.8856 76.2181,-4508.8206 75.4421,-4509.4452
L75.2924,-4509.5667
C74.9960,-4509.8110 73.4055,-4510.6364 72.0032,-4511.3643
C69.8979,-4512.4569 68.7231,-4513.0882 68.0597,-4513.4963
C67.3963,-4513.9044 67.2443,-4514.0894 67.1846,-4514.2898
C67.1221,-4514.5023 67.2072,-4514.7228 67.3800,-4514.8417
L66.1508,-4516.2861
C65.3034,-4515.1553 63.9894,-4513.9482 62.2394,-4513.9482
C60.4307,-4513.9482 59.0595,-4515.1626 58.2537,-4516.1310
L56.9754,-4514.8528
C57.1490,-4514.7430 57.2431,-4514.5320 57.1944,-4514.3206
Z" 
style="stroke-width: 0.7200; stroke: #ffffff; stroke-dasharray: none; stroke-linecap: round; stroke-linejoin: round; fill: none; "/>
</g>
<path d=" 
M39.5647,-4492.1085
C26.1397,-4492.1085 20.0497,-4495.8128 19.7970,-4495.9703
C19.6027,-4496.0918 19.4752,-4496.2958 19.4497,-4496.5238
C18.8970,-4501.4910 20.9370,-4503.1560 22.0335,-4504.0500
L22.1497,-4504.1453
C22.6252,-4504.5375 24.1095,-4505.2305 26.6940,-4506.4215
C28.7332,-4507.3613 31.7895,-4508.7713 32.3265,-4509.2430
C32.4832,-4509.5280 32.8162,-4509.6870 33.1492,-4509.6113
C33.5535,-4509.5190 33.8062,-4509.1170 33.7140,-4508.7128
C33.5587,-4508.0340 32.6625,-4507.5218 27.3225,-4505.0595
C25.5990,-4504.2653 23.4532,-4503.2768 23.1045,-4502.9888
L22.9815,-4502.8875
C22.0155,-4502.1000 20.5710,-4500.9210 20.9017,-4497.0698
C22.2795,-4496.3490 28.2660,-4493.6070 39.5640,-4493.6070
C50.8725,-4493.6070 56.8485,-4496.3535 58.2187,-4497.0728
C58.5780,-4500.8265 57.1537,-4501.9725 56.2027,-4502.7390
L56.0107,-4502.8943
C55.6447,-4503.1958 53.4750,-4504.2593 51.7305,-4505.1135
C46.3837,-4507.7310 45.8445,-4508.1000 45.6765,-4508.6663
C45.5595,-4509.0638 45.7852,-4509.4800 46.1835,-4509.5985
C46.5142,-4509.6945 46.8600,-4509.5543 47.0332,-4509.2730
C47.5387,-4508.8365 50.4510,-4507.4100 52.3920,-4506.4598
C54.9172,-4505.2245 56.4877,-4504.4460 56.9670,-4504.0508
L57.1455,-4503.9068
C58.2337,-4503.0285 60.2595,-4501.3965 59.6677,-4496.5155
C59.6400,-4496.2905 59.5125,-4496.0903 59.3205,-4495.9703
C59.0692,-4495.8128 52.9927,-4492.1085 39.5647,-4492.1085
Z" 
style="fill-rule: evenodd; fill: #000000; "/>
<path d=" 
M39.5003,-4508.5875
C36.0210,-4508.5875 33.7898,-4512.2400 33.3773,-4512.9735
C33.0105,-4513.6275 32.3963,-4515.1403 32.0138,-4516.1145
C31.9305,-4516.0958 31.8458,-4516.0868 31.7603,-4516.0868
C30.4185,-4516.0868 30.0068,-4518.1643 29.6760,-4519.8330
C29.6355,-4520.0385 29.6003,-4520.2155 29.5703,-4520.3453
C29.4683,-4520.7833 29.5178,-4521.1515 29.7195,-4521.4403
C29.8478,-4521.6225 30.0098,-4521.7350 30.1688,-4521.8063
C30.0075,-4522.2960 29.7983,-4522.9778 29.5920,-4524.2648
C29.2913,-4526.1465 29.6153,-4528.6200 29.8125,-4529.2163
C29.8193,-4529.2800 29.8095,-4529.3040 29.8013,-4529.3280
C29.7428,-4529.5193 29.6220,-4529.9160 29.9070,-4530.3893
C29.9985,-4530.5430 30.1500,-4530.7718 30.3180,-4531.0253
C30.5633,-4531.3935 30.8400,-4531.8105 30.9915,-4532.0880
C31.2773,-4532.6078 31.8420,-4532.9648 32.2553,-4533.2265
C32.3775,-4533.3038 32.4870,-4533.3690 32.5575,-4533.4290
C32.8883,-4533.7050 33.9953,-4534.5263 34.5218,-4534.9088
L34.6403,-4534.9958
C35.1203,-4535.3475 35.3850,-4535.5410 36.1335,-4535.8080
C36.2678,-4535.8560 36.6720,-4536.0000 37.8488,-4536.0000
C38.7390,-4536.0000 39.7673,-4535.9168 40.4685,-4535.7893
C40.7655,-4535.7353 41.0835,-4535.7308 41.4218,-4535.7270
C42.2318,-4535.7173 43.1490,-4535.7060 43.9883,-4534.9920
C44.3880,-4534.6515 44.6123,-4534.3493 44.7765,-4534.1288
C45.0038,-4533.8235 45.0210,-4533.7980 45.4575,-4533.7575
C46.4288,-4533.6653 47.3663,-4532.9970 48.0960,-4531.8735
C48.1988,-4531.7183 48.3218,-4531.5000 48.4538,-4531.2630
L48.5903,-4531.0178
C48.6075,-4530.9848 48.6735,-4530.9203 48.7313,-4530.8625
C48.9000,-4530.6908 49.1573,-4530.4328 49.2765,-4530.0113
C49.3808,-4529.6490 49.4025,-4529.5058 49.4685,-4529.0820
L49.4993,-4528.8878
C49.5300,-4528.8068 49.5458,-4528.7183 49.5458,-4528.6260
C49.5458,-4528.2510 49.2720,-4527.9413 48.9128,-4527.8858
C49.0313,-4526.8230 49.0770,-4525.4010 48.8940,-4524.2670
C48.6893,-4522.9793 48.4793,-4522.2983 48.3180,-4521.8085
C48.4778,-4521.7373 48.6390,-4521.6248 48.7665,-4521.4425
C48.9690,-4521.1538 49.0200,-4520.7855 48.9173,-4520.3475
C48.8850,-4520.2148 48.8498,-4520.0355 48.8100,-4519.8278
C48.4793,-4518.1620 48.0675,-4516.0890 46.7273,-4516.0890
C46.6658,-4516.0890 46.6073,-4516.0935 46.5473,-4516.1025
C46.2525,-4515.1530 45.7785,-4513.7400 45.3623,-4513.0148
C43.2608,-4509.3563 41.0130,-4508.5875 39.5003,-4508.5875
Z
M32.3745,-4518.0135
C32.4098,-4518.0135 32.4458,-4518.0113 32.4825,-4518.0060
C32.7525,-4517.9678 32.9805,-4517.7840 33.0765,-4517.5290
C33.3840,-4516.7153 34.2728,-4514.4420 34.6853,-4513.7085
C34.8938,-4513.3380 36.8003,-4510.0868 39.5003,-4510.0868
C41.1045,-4510.0868 42.6803,-4511.3565 44.0588,-4513.7588
C44.5200,-4514.5643 45.1763,-4516.7093 45.3900,-4517.4668
C45.4665,-4517.7405 45.6915,-4517.9468 45.9713,-4517.9993
C46.2390,-4518.0495 46.5165,-4517.9513 46.6905,-4517.7398
C46.9748,-4518.2970 47.2395,-4519.6313 47.3363,-4520.1173
C47.3625,-4520.2493 47.3858,-4520.3700 47.4083,-4520.4765
C47.2103,-4520.5185 46.9688,-4520.6115 46.8000,-4520.8613
C46.6538,-4521.0765 46.6125,-4521.3428 46.6845,-4521.6113
C46.7325,-4521.7950 46.7903,-4521.9698 46.8563,-4522.1648
C47.0130,-4522.6403 47.2095,-4523.2313 47.4113,-4524.5003
C47.6708,-4526.1105 47.3865,-4528.3298 47.2485,-4528.7408
C47.1548,-4529.0213 47.2350,-4529.3310 47.4533,-4529.5305
C47.5425,-4529.6130 47.6483,-4529.6715 47.7623,-4529.7023
C47.7360,-4529.7308 47.7023,-4529.7638 47.6640,-4529.8035
C47.5470,-4529.9220 47.3985,-4530.0690 47.2815,-4530.2783
L47.1383,-4530.5340
C47.0325,-4530.7275 46.9350,-4530.9075 46.8615,-4531.0178
C46.3695,-4531.7745 45.8153,-4532.2155 45.3158,-4532.2613
C44.2935,-4532.3580 43.9478,-4532.7248 43.5698,-4533.2333
C43.4288,-4533.4223 43.2855,-4533.6180 43.0148,-4533.8483
C42.6090,-4534.1933 42.1373,-4534.2165 41.4038,-4534.2248
C41.0183,-4534.2293 40.6215,-4534.2345 40.2000,-4534.3103
C39.5880,-4534.4243 38.6430,-4534.5000 37.8488,-4534.5000
C37.1723,-4534.5000 36.7733,-4534.4430 36.6390,-4534.3958
C36.0953,-4534.2015 35.9633,-4534.1048 35.5253,-4533.7853
L35.4045,-4533.6960
C34.8368,-4533.2828 33.7943,-4532.5065 33.5190,-4532.2763
C33.4103,-4532.1848 33.2453,-4532.0775 33.0578,-4531.9590
C32.8140,-4531.8053 32.4060,-4531.5473 32.3078,-4531.3665
C32.1255,-4531.0350 31.8300,-4530.5895 31.5698,-4530.1965
C31.4490,-4530.0143 31.3365,-4529.8448 31.2533,-4529.7143
C31.3193,-4529.4803 31.3785,-4529.1630 31.2368,-4528.7423
C31.1003,-4528.3313 30.8168,-4526.1098 31.0740,-4524.5018
C31.2773,-4523.2350 31.4730,-4522.6425 31.6298,-4522.1670
C31.6943,-4521.9705 31.7528,-4521.7958 31.8015,-4521.6113
C31.8728,-4521.3435 31.8315,-4521.0773 31.6860,-4520.8620
C31.5165,-4520.6123 31.2750,-4520.5193 31.0770,-4520.4773
C31.0988,-4520.3730 31.1220,-4520.2545 31.1475,-4520.1248
C31.2443,-4519.6380 31.5098,-4518.2985 31.7955,-4517.7405
C31.9395,-4517.9145 32.1518,-4518.0135 32.3745,-4518.0135
Z" 
style="fill-rule: evenodd; fill: #000000; "/>
<path d=" 
M16.4632,-4514.0018
C13.6252,-4514.0018 11.8170,-4516.9583 11.4833,-4517.5508
C11.1997,-4518.0563 10.7475,-4519.1625 10.4415,-4519.9395
C10.4085,-4519.9365 10.3747,-4519.9350 10.3417,-4519.9350
C9.1508,-4519.9350 8.8110,-4521.6503 8.5388,-4523.0280
C8.5073,-4523.1870 8.4795,-4523.3250 8.4563,-4523.4255
C8.3648,-4523.8163 8.4120,-4524.1508 8.5988,-4524.4178
C8.6843,-4524.5400 8.7863,-4524.6285 8.8920,-4524.6938
C8.7690,-4525.0770 8.6198,-4525.6110 8.4713,-4526.5373
C8.2253,-4528.0740 8.4870,-4530.0323 8.6528,-4530.5288
C8.5935,-4530.6803 8.4803,-4531.0538 8.7420,-4531.4880
C8.8155,-4531.6110 8.9363,-4531.7955 9.0713,-4531.9988
C9.2573,-4532.2793 9.4725,-4532.6010 9.5963,-4532.8268
C9.8415,-4533.2730 10.3080,-4533.5670 10.6500,-4533.7823
C10.7392,-4533.8393 10.8202,-4533.8865 10.8720,-4533.9308
C11.1323,-4534.1483 12.0135,-4534.8030 12.4343,-4535.1083
L12.5235,-4535.1728
C12.9353,-4535.4735 13.1595,-4535.6288 13.7497,-4535.8388
C13.8600,-4535.8778 14.1990,-4536.0000 15.1590,-4536.0000
C15.8685,-4536.0000 16.6927,-4535.9340 17.2575,-4535.8305
C17.4802,-4535.7900 17.7262,-4535.7878 17.9880,-4535.7840
C18.6217,-4535.7750 19.4100,-4535.7653 20.1157,-4535.1645
C20.4465,-4534.8833 20.6287,-4534.6358 20.7630,-4534.4558
C20.9160,-4534.2495 20.9160,-4534.2495 21.1912,-4534.2240
C22.0177,-4534.1460 22.7790,-4533.6075 23.3932,-4532.6663
C23.4780,-4532.5388 23.5777,-4532.3595 23.6842,-4532.1675
L23.7907,-4531.9778
C23.8125,-4531.9470 23.8455,-4531.9185 23.8762,-4531.8878
C24.0210,-4531.7415 24.2407,-4531.5195 24.3465,-4531.1498
C24.4290,-4530.8618 24.4455,-4530.7628 24.5025,-4530.3938
L24.5220,-4530.2708
C24.5520,-4530.1898 24.5685,-4530.1013 24.5685,-4530.0090
C24.5685,-4529.6858 24.3652,-4529.4113 24.0787,-4529.3048
C24.1635,-4528.4925 24.1942,-4527.4418 24.0487,-4526.5365
C23.9017,-4525.6103 23.7502,-4525.0755 23.6280,-4524.6923
C23.7337,-4524.6278 23.8357,-4524.5393 23.9212,-4524.4163
C24.1080,-4524.1508 24.1552,-4523.8163 24.0637,-4523.4240
C24.0397,-4523.3228 24.0135,-4523.1855 23.9812,-4523.0250
C23.7090,-4521.6473 23.3692,-4519.9343 22.1797,-4519.9343
C22.1700,-4519.9343 22.1602,-4519.9343 22.1512,-4519.9343
C21.9142,-4519.1805 21.5572,-4518.1425 21.2347,-4517.5808
C19.5405,-4514.6228 17.7045,-4514.0018 16.4632,-4514.0018
Z
M10.8270,-4521.7718
C10.8622,-4521.7718 10.8983,-4521.7695 10.9350,-4521.7643
C11.2050,-4521.7245 11.4330,-4521.5423 11.5290,-4521.2873
C11.7705,-4520.6460 12.4695,-4518.8573 12.7905,-4518.2873
C12.9510,-4518.0015 14.4173,-4515.5025 16.4632,-4515.5025
C17.6752,-4515.5025 18.8745,-4516.4805 19.9350,-4518.3285
C20.2920,-4518.9525 20.8050,-4520.6310 20.9730,-4521.2258
C21.0502,-4521.5003 21.2752,-4521.7073 21.5542,-4521.7598
C21.7440,-4521.7958 21.9352,-4521.7575 22.0927,-4521.6585
C22.2787,-4522.1423 22.4452,-4522.9890 22.5105,-4523.3175
C22.5202,-4523.3655 22.5292,-4523.4120 22.5390,-4523.4563
C22.3830,-4523.5110 22.2292,-4523.6070 22.1092,-4523.7818
C21.9682,-4523.9895 21.9277,-4524.2468 21.9960,-4524.5033
C22.0357,-4524.6503 22.0815,-4524.7935 22.1347,-4524.9525
C22.2577,-4525.3230 22.4107,-4525.7843 22.5690,-4526.7743
C22.7692,-4528.0223 22.5517,-4529.7383 22.4460,-4530.0548
C22.3522,-4530.3353 22.4317,-4530.6450 22.6500,-4530.8445
C22.6777,-4530.8685 22.7062,-4530.8918 22.7355,-4530.9113
C22.6545,-4530.9968 22.5622,-4531.1055 22.4842,-4531.2443
L22.3732,-4531.4423
C22.2907,-4531.5930 22.2142,-4531.7333 22.1565,-4531.8188
C21.7920,-4532.3783 21.3960,-4532.7000 21.0525,-4532.7315
C20.1787,-4532.8140 19.8705,-4533.1425 19.5585,-4533.5640
C19.4490,-4533.7125 19.3440,-4533.8528 19.1430,-4534.0230
C18.8625,-4534.2623 18.5325,-4534.2780 17.9700,-4534.2848
C17.6730,-4534.2893 17.3362,-4534.2938 16.9890,-4534.3560
C16.5120,-4534.4423 15.7777,-4534.5000 15.1590,-4534.5000
C14.4682,-4534.5000 14.2628,-4534.4288 14.2545,-4534.4265
C13.8427,-4534.2795 13.7505,-4534.2120 13.4100,-4533.9615
L13.3162,-4533.8948
C12.8655,-4533.5670 12.0450,-4532.9558 11.8328,-4532.7788
C11.7412,-4532.7015 11.6055,-4532.6130 11.4502,-4532.5140
C11.2950,-4532.4165 10.9732,-4532.2133 10.9095,-4532.1030
C10.7700,-4531.8480 10.5308,-4531.4858 10.3215,-4531.1693
C10.2413,-4531.0493 10.1678,-4530.9375 10.1070,-4530.8438
C10.1535,-4530.6540 10.1858,-4530.3878 10.0740,-4530.0525
C9.9682,-4529.7360 9.7508,-4528.0200 9.9510,-4526.7720
C10.1092,-4525.7813 10.2630,-4525.3185 10.3852,-4524.9480
C10.4378,-4524.7898 10.4842,-4524.6480 10.5240,-4524.4995
C10.5922,-4524.2423 10.5517,-4523.9865 10.4100,-4523.7788
C10.2892,-4523.5995 10.1295,-4523.5050 9.9825,-4523.4510
C9.9915,-4523.4083 9.9998,-4523.3633 10.0087,-4523.3168
C10.0733,-4522.9883 10.2420,-4522.1393 10.4272,-4521.6548
C10.5465,-4521.7313 10.6853,-4521.7718 10.8270,-4521.7718
Z" 
style="fill-rule: evenodd; fill: #000000; "/>
<path d=" 
M62.1758,-4514.0018
C59.3340,-4514.0018 57.5295,-4516.9583 57.1965,-4517.5515
C56.9123,-4518.0555 56.4600,-4519.1618 56.1533,-4519.9388
C56.1210,-4519.9358 56.0858,-4519.9343 56.0520,-4519.9343
C54.8640,-4519.9343 54.5243,-4521.6458 54.2520,-4523.0213
C54.2198,-4523.1825 54.1920,-4523.3213 54.1688,-4523.4233
C54.0765,-4523.8155 54.1245,-4524.1493 54.3105,-4524.4155
C54.3968,-4524.5385 54.4995,-4524.6278 54.6053,-4524.6923
C54.4823,-4525.0755 54.3330,-4525.6110 54.1838,-4526.5358
C53.9378,-4528.0740 54.2010,-4530.0308 54.3653,-4530.5273
C54.3068,-4530.6788 54.1928,-4531.0515 54.4545,-4531.4865
C54.5280,-4531.6095 54.6510,-4531.7978 54.7883,-4532.0040
C54.9728,-4532.2830 55.1850,-4532.6018 55.3095,-4532.8268
C55.5540,-4533.2708 56.0198,-4533.5663 56.3625,-4533.7823
C56.4503,-4533.8385 56.5328,-4533.8858 56.5853,-4533.9293
C56.8508,-4534.1498 57.7470,-4534.8158 58.1453,-4535.1060
L58.2390,-4535.1750
C58.6493,-4535.4750 58.8735,-4535.6280 59.4608,-4535.8373
C59.5733,-4535.8778 59.9130,-4536.0000 60.8723,-4536.0000
C61.5810,-4536.0000 62.4060,-4535.9340 62.9700,-4535.8305
C63.1928,-4535.7900 63.4403,-4535.7878 63.7013,-4535.7840
C64.3358,-4535.7750 65.1225,-4535.7653 65.8283,-4535.1645
C66.1590,-4534.8833 66.3428,-4534.6358 66.4755,-4534.4558
C66.6293,-4534.2495 66.6293,-4534.2495 66.9045,-4534.2240
C67.7325,-4534.1460 68.4952,-4533.6068 69.1080,-4532.6640
C69.1912,-4532.5365 69.2940,-4532.3550 69.4028,-4532.1608
L69.5040,-4531.9770
C69.5258,-4531.9455 69.5595,-4531.9178 69.5903,-4531.8870
C69.7350,-4531.7400 69.9548,-4531.5188 70.0605,-4531.1490
C70.1422,-4530.8610 70.1587,-4530.7635 70.2157,-4530.3930
L70.2360,-4530.2700
C70.2667,-4530.1890 70.2825,-4530.1005 70.2825,-4530.0083
C70.2825,-4529.6850 70.0792,-4529.4105 69.7920,-4529.3040
C69.8768,-4528.4918 69.9075,-4527.4410 69.7627,-4526.5358
C69.6150,-4525.6095 69.4643,-4525.0748 69.3412,-4524.6915
C69.4485,-4524.6270 69.5490,-4524.5385 69.6360,-4524.4170
C69.8220,-4524.1515 69.8700,-4523.8170 69.7777,-4523.4240
C69.7545,-4523.3228 69.7282,-4523.1848 69.6960,-4523.0243
C69.4238,-4521.6480 69.0840,-4519.9350 67.8945,-4519.9350
C67.8840,-4519.9350 67.8743,-4519.9350 67.8653,-4519.9350
C67.6283,-4519.1813 67.2720,-4518.1440 66.9495,-4517.5815
C65.2538,-4514.6228 63.4178,-4514.0018 62.1758,-4514.0018
Z
M56.5395,-4521.7718
C56.5748,-4521.7718 56.6115,-4521.7695 56.6483,-4521.7643
C56.9175,-4521.7245 57.1448,-4521.5423 57.2415,-4521.2873
C57.4845,-4520.6460 58.1835,-4518.8573 58.5045,-4518.2858
C58.6658,-4518.0015 60.1290,-4515.5018 62.1765,-4515.5018
C63.3893,-4515.5018 64.5893,-4516.4783 65.6483,-4518.3278
C66.0045,-4518.9510 66.5183,-4520.6303 66.6855,-4521.2258
C66.7635,-4521.4995 66.9885,-4521.7058 67.2667,-4521.7583
C67.4603,-4521.7935 67.6493,-4521.7553 67.8060,-4521.6570
C67.9920,-4522.1408 68.1593,-4522.9860 68.2238,-4523.3145
C68.2343,-4523.3625 68.2425,-4523.4098 68.2515,-4523.4540
C68.0978,-4523.5088 67.9425,-4523.6048 67.8225,-4523.7795
C67.6815,-4523.9880 67.6425,-4524.2445 67.7115,-4524.5025
C67.7498,-4524.6488 67.7948,-4524.7905 67.8480,-4524.9488
C67.9710,-4525.3193 68.1248,-4525.7813 68.2830,-4526.7728
C68.4825,-4528.0208 68.2657,-4529.7368 68.1600,-4530.0533
C68.0663,-4530.3338 68.1465,-4530.6435 68.3633,-4530.8430
C68.3910,-4530.8670 68.4188,-4530.8903 68.4495,-4530.9098
C68.3677,-4530.9953 68.2740,-4531.1040 68.1960,-4531.2435
L68.0902,-4531.4348
C68.0055,-4531.5878 67.9275,-4531.7303 67.8690,-4531.8173
C67.5075,-4532.3768 67.1100,-4532.6985 66.7643,-4532.7300
C65.8913,-4532.8125 65.5838,-4533.1410 65.2718,-4533.5618
C65.1623,-4533.7110 65.0565,-4533.8520 64.8555,-4534.0223
C64.5758,-4534.2615 64.2450,-4534.2773 63.6825,-4534.2840
C63.3863,-4534.2885 63.0480,-4534.2930 62.7023,-4534.3553
C62.2260,-4534.4423 61.4903,-4534.5000 60.8723,-4534.5000
C60.1808,-4534.5000 59.9760,-4534.4288 59.9670,-4534.4265
C59.5568,-4534.2795 59.4660,-4534.2135 59.1248,-4533.9638
L59.0280,-4533.8933
C58.5653,-4533.5550 57.7568,-4532.9520 57.5453,-4532.7773
C57.4545,-4532.7015 57.3195,-4532.6123 57.1628,-4532.5133
C57.0090,-4532.4158 56.6865,-4532.2125 56.6235,-4532.1023
C56.4825,-4531.8488 56.2470,-4531.4895 56.0378,-4531.1753
C55.9590,-4531.0530 55.8825,-4530.9390 55.8210,-4530.8438
C55.8675,-4530.6540 55.8998,-4530.3878 55.7888,-4530.0525
C55.6830,-4529.7360 55.4663,-4528.0200 55.6643,-4526.7720
C55.8225,-4525.7820 55.9763,-4525.3208 56.0993,-4524.9503
C56.1518,-4524.7913 56.1975,-4524.6480 56.2373,-4524.4995
C56.3063,-4524.2438 56.2650,-4523.9865 56.1248,-4523.7788
C56.0033,-4523.5995 55.8435,-4523.5043 55.6958,-4523.4510
C55.7048,-4523.4060 55.7130,-4523.3595 55.7235,-4523.3115
C55.7880,-4522.9838 55.9568,-4522.1385 56.1413,-4521.6555
C56.2598,-4521.7313 56.3970,-4521.7718 56.5395,-4521.7718
Z" 
style="fill-rule: evenodd; fill: #000000; "/>
<path d=" 
M18.8070,-4502.5193
C18.0728,-4502.4870 17.3168,-4502.4653 16.5143,-4502.4653
C7.8000,-4502.4653 3.1013,-4504.5338 1.9005,-4505.1473
C1.6755,-4508.0415 2.7638,-4508.9303 3.4935,-4509.5273
L3.5925,-4509.6075
C3.8685,-4509.8303 5.5470,-4510.6035 6.8963,-4511.2245
C11.4503,-4513.3245 11.9085,-4513.6463 12.0398,-4514.2223
C12.1320,-4514.6258 11.8793,-4515.0278 11.4765,-4515.1200
C11.1548,-4515.1973 10.8330,-4515.0488 10.6688,-4514.7818
C10.2000,-4514.4008 7.8428,-4513.3133 6.2685,-4512.5873
C4.2120,-4511.6408 3.0300,-4511.0880 2.6378,-4510.7648
L2.5455,-4510.6883
C1.6553,-4509.9630 0.0000,-4508.6100 0.4463,-4504.5975
C0.4718,-4504.3695 0.6000,-4504.1663 0.7943,-4504.0448
C0.9953,-4503.9188 5.8493,-4500.9660 16.5143,-4500.9660
C17.1015,-4500.9660 17.6640,-4500.9788 18.2160,-4500.9953
C18.3750,-4501.5765 18.5798,-4502.0745 18.8070,-4502.5193
Z" 
style="fill-rule: evenodd; fill: #000000; "/>
<path d=" 
M30.3802,-4510.6920
C29.9872,-4511.0160 28.7985,-4511.6048 26.7315,-4512.6165
C25.2285,-4513.3515 22.9807,-4514.4533 22.5412,-4514.8080
C22.3635,-4515.0728 22.0260,-4515.2048 21.7050,-4515.1088
C21.3082,-4514.9903 21.0817,-4514.5740 21.1995,-4514.1758
C21.3502,-4513.6658 21.7552,-4513.3815 26.0707,-4511.2680
C27.3705,-4510.6320 29.1487,-4509.7598 29.4262,-4509.5325
L29.5582,-4509.4253
C30.1417,-4509.7110 30.6517,-4509.9713 30.9997,-4510.1693
C30.8272,-4510.3275 30.6622,-4510.4625 30.5175,-4510.5780
L30.3802,-4510.6920
Z" 
style="fill-rule: evenodd; fill: #000000; "/>
<path d=" 
M57.1898,-4515.1208
C56.8688,-4515.1965 56.5470,-4515.0495 56.3828,-4514.7825
C55.9140,-4514.4015 53.5583,-4513.3155 51.9840,-4512.5895
C49.9260,-4511.6415 48.7440,-4511.0888 48.3525,-4510.7655
L48.2588,-4510.6890
C48.1740,-4510.6200 48.0803,-4510.5428 47.9835,-4510.4588
C48.0173,-4510.4258 48.0570,-4510.4018 48.0878,-4510.3665
C48.3368,-4510.2008 48.8040,-4509.9450 49.3695,-4509.6488
C49.7550,-4509.9083 51.3263,-4510.6335 52.6125,-4511.2268
C57.1635,-4513.3253 57.6210,-4513.6470 57.7530,-4514.2223
C57.8460,-4514.6258 57.5940,-4515.0285 57.1898,-4515.1208
Z" 
style="fill-rule: evenodd; fill: #000000; "/>
<path d=" 
M76.2307,-4510.5788
L76.0927,-4510.6913
C75.6990,-4511.0153 74.5110,-4511.6040 72.4440,-4512.6158
C70.9425,-4513.3508 68.6940,-4514.4525 68.2545,-4514.8073
C68.0760,-4515.0720 67.7385,-4515.2040 67.4197,-4515.1080
C67.0215,-4514.9895 66.7957,-4514.5733 66.9128,-4514.1750
C67.0635,-4513.6650 67.4692,-4513.3808 71.7832,-4511.2673
C73.0838,-4510.6313 74.8620,-4509.7590 75.1395,-4509.5318
L75.2902,-4509.4088
C76.0095,-4508.8305 77.0820,-4507.9673 76.8360,-4505.1472
C75.6405,-4504.5353 70.9485,-4502.4638 62.2282,-4502.4638
C61.5630,-4502.4638 60.9307,-4502.4795 60.3120,-4502.5020
C60.5452,-4502.0610 60.7545,-4501.5660 60.9157,-4500.9863
C61.3477,-4500.9758 61.7752,-4500.9638 62.2282,-4500.9638
C72.8940,-4500.9638 77.7382,-4503.9173 77.9370,-4504.0425
C78.1290,-4504.1625 78.2565,-4504.3635 78.2843,-4504.5878
C78.7650,-4508.5403 77.1172,-4509.8663 76.2307,-4510.5788
Z" 
style="fill-rule: evenodd; fill: #000000; "/>
<text x="0.0000" y="-4492.1085">
<tspan font-family="Arial Narrow" font-weight="bold" font-size="12.0000" fill="#000000" fill-opacity="1.0000" stroke-opacity="1.0000" >
People</tspan>
</text>
</svg>
