<?xml version="1.0" encoding="UTF-8" standalone="no"?>
<svg version="1.1" xmlns="http://www.w3.org/2000/svg" xmlns:xlink="http://www.w3.org/1999/xlink" width="1.0232in" height="1.0919in" viewBox="0 0 73.6703 78.6180" >
<g id="Layer1000" >
<path d=" 
M25.2564,-4529.1887
C24.7652,-4528.8789 24.0234,-4528.4094 23.8142,-4528.0277
C23.4902,-4527.4412 22.9659,-4526.6492 22.5032,-4525.9502
C22.2459,-4525.5632 22.0112,-4525.2099 21.8552,-4524.9549
C21.8574,-4524.9482 21.8597,-4524.9407 21.8619,-4524.9339
C21.9632,-4524.6032 22.1319,-4524.0497 21.8649,-4523.2487
C21.6122,-4522.4919 21.0894,-4518.4172 21.5582,-4515.4712
C21.9272,-4513.1604 22.2842,-4512.0804 22.5722,-4511.2142
C22.6877,-4510.8662 22.7897,-4510.5549 22.8752,-4510.2287
C23.0222,-4509.6752 22.8309,-4509.2769 22.7034,-4509.0902
C22.3742,-4508.6049 21.8597,-4508.5059 21.5079,-4508.4609
C21.5627,-4508.2194 21.6234,-4507.9104 21.6939,-4507.5602
C22.2092,-4504.9562 22.6749,-4503.3819 23.0814,-4502.8667
C23.1362,-4502.9207 23.2067,-4502.9987 23.2914,-4503.1104
C23.5014,-4503.3849 23.8239,-4503.5424 24.1629,-4503.5424
C24.2222,-4503.5424 24.2814,-4503.5372 24.3422,-4503.5267
C24.7419,-4503.4607 25.0727,-4503.1787 25.2002,-4502.7924
C25.7574,-4501.1162 27.3647,-4496.4752 28.1072,-4495.1537
C29.1090,-4493.3700 31.2621,-4490.6599 34.0460,-4489.4163
C34.9740,-4489.0018 35.9721,-4488.7502 37.0209,-4488.7502
C41.2944,-4488.7502 44.3574,-4493.2914 45.4742,-4495.2452
C45.8934,-4495.9772 46.4008,-4497.4483 46.8518,-4498.9339
C47.3029,-4500.4194 47.6976,-4501.9194 47.8914,-4502.7092
C47.9674,-4503.0163 48.1699,-4503.2698 48.4401,-4503.4138
C48.5302,-4503.4618 48.6277,-4503.4976 48.7307,-4503.5192
C49.1454,-4503.6062 49.5684,-4503.4457 49.8234,-4503.1104
C49.9082,-4502.9987 49.9787,-4502.9207 50.0342,-4502.8667
C50.1356,-4502.9949 50.2408,-4503.1896 50.3496,-4503.4502
C50.6760,-4504.2319 51.0351,-4505.6066 51.4232,-4507.5602
C51.4749,-4507.8229 51.5225,-4508.0623 51.5658,-4508.2676
C51.5802,-4508.3360 51.5942,-4508.4005 51.6077,-4508.4609
C51.3444,-4508.4947 50.9896,-4508.5580 50.6892,-4508.7925
C50.5890,-4508.8707 50.4949,-4508.9679 50.4122,-4509.0894
C50.3484,-4509.1832 50.2686,-4509.3296 50.2231,-4509.5220
C50.2004,-4509.6182 50.1862,-4509.7258 50.1870,-4509.8442
C50.1878,-4509.9625 50.2035,-4510.0914 50.2404,-4510.2302
C50.3252,-4510.5557 50.4279,-4510.8662 50.5434,-4511.2142
C50.6871,-4511.6477 50.8481,-4512.1344 51.0197,-4512.8017
C51.1912,-4513.4690 51.3733,-4514.3169 51.5589,-4515.4727
C52.0292,-4518.4157 51.5064,-4522.4919 51.2529,-4523.2464
C51.1164,-4523.6559 51.2349,-4524.1074 51.5514,-4524.3992
C51.7682,-4524.5979 52.0472,-4524.6962 52.3352,-4524.6849
C52.3262,-4524.7157 52.3179,-4524.7487 52.3074,-4524.7824
C52.2662,-4524.9309 52.1529,-4525.0494 51.9414,-4525.2647
C51.7389,-4525.4687 51.4877,-4525.7229 51.2927,-4526.0724
L51.0347,-4526.5352
C50.8382,-4526.8892 50.6582,-4527.2184 50.5232,-4527.4187
C50.5217,-4527.4217 50.4849,-4527.4794 50.4827,-4527.4824
C49.5797,-4528.8692 48.5364,-4529.6844 47.5434,-4529.7774
C46.2407,-4529.8995 45.5838,-4530.2810 45.0663,-4530.8283
C44.8938,-4531.0108 44.7367,-4531.2116 44.5764,-4531.4274
C44.3147,-4531.7799 44.0447,-4532.1437 43.5339,-4532.5787
C42.9034,-4533.1159 42.1927,-4533.2569 41.3508,-4533.3005
C41.0702,-4533.3150 40.7751,-4533.3187 40.4634,-4533.3227
C40.1214,-4533.3264 39.7734,-4533.3305 39.4185,-4533.3506
C39.2410,-4533.3606 39.0618,-4533.3747 38.8808,-4533.3946
C38.6997,-4533.4145 38.5168,-4533.4404 38.3319,-4533.4742
C37.7713,-4533.5758 37.0603,-4533.6609 36.3091,-4533.7206
C35.5579,-4533.7804 34.7664,-4533.8147 34.0449,-4533.8147
C32.4654,-4533.8147 31.9059,-4533.6579 31.7717,-4533.6107
C30.7532,-4533.2462 30.4862,-4533.0504 29.6919,-4532.4714
L29.4767,-4532.3147
C28.3959,-4531.5257 26.5577,-4530.1562 26.0642,-4529.7437
C25.8444,-4529.5599 25.5722,-4529.3889 25.2564,-4529.1887
Z
M25.6209,-4487.4062
C25.3697,-4486.3104 23.5787,-4485.2282 14.3499,-4480.5977
C11.3267,-4479.0797 7.8977,-4477.3592 7.2594,-4476.8327
L7.0374,-4476.6497
C5.3687,-4475.2877 2.6057,-4473.0324 3.2439,-4465.9194
C4.9601,-4465.0076 11.4528,-4461.9269 23.2772,-4460.4436
C27.2187,-4459.9491 31.7526,-4459.6322 36.8994,-4459.6322
C47.2356,-4459.6322 55.0792,-4460.9008 60.6217,-4462.3212
C66.1642,-4463.7416 69.4056,-4465.3138 70.5369,-4465.9209
C71.2344,-4472.8652 68.6079,-4474.9779 66.8544,-4476.3894
L66.5162,-4476.6639
C65.8464,-4477.2159 62.2524,-4479.0812 59.0837,-4480.7259
C54.3264,-4483.1949 51.6718,-4484.6212 50.1727,-4485.5435
C48.6737,-4486.4657 48.3302,-4486.8838 48.1952,-4487.3364
C48.0540,-4487.8167 48.2463,-4488.3149 48.6369,-4488.5835
L45.8593,-4491.8476
C43.9444,-4489.2923 40.9752,-4486.5647 37.0209,-4486.5647
C32.9338,-4486.5647 29.8354,-4489.3087 28.0145,-4491.4969
L25.1261,-4488.6086
C25.5183,-4488.3607 25.7310,-4487.8839 25.6209,-4487.4062
Z" 
style="stroke-width: 0.7200; stroke-linecap: round; stroke-linejoin: round; fill-rule: evenodd; fill: #ffffff; "/>
<path d=" 
M25.2564,-4529.1887
C24.7652,-4528.8789 24.0234,-4528.4094 23.8142,-4528.0277
C23.4902,-4527.4412 22.9659,-4526.6492 22.5032,-4525.9502
C22.2459,-4525.5632 22.0112,-4525.2099 21.8552,-4524.9549
C21.8574,-4524.9482 21.8597,-4524.9407 21.8619,-4524.9339
C21.9632,-4524.6032 22.1319,-4524.0497 21.8649,-4523.2487
C21.6122,-4522.4919 21.0894,-4518.4172 21.5582,-4515.4712
C21.9272,-4513.1604 22.2842,-4512.0804 22.5722,-4511.2142
C22.6877,-4510.8662 22.7897,-4510.5549 22.8752,-4510.2287
C23.0222,-4509.6752 22.8309,-4509.2769 22.7034,-4509.0902
C22.3742,-4508.6049 21.8597,-4508.5059 21.5079,-4508.4609
C21.5627,-4508.2194 21.6234,-4507.9104 21.6939,-4507.5602
C22.2092,-4504.9562 22.6749,-4503.3819 23.0814,-4502.8667
C23.1362,-4502.9207 23.2067,-4502.9987 23.2914,-4503.1104
C23.5014,-4503.3849 23.8239,-4503.5424 24.1629,-4503.5424
C24.2222,-4503.5424 24.2814,-4503.5372 24.3422,-4503.5267
C24.7419,-4503.4607 25.0727,-4503.1787 25.2002,-4502.7924
C25.7574,-4501.1162 27.3647,-4496.4752 28.1072,-4495.1537
C29.1090,-4493.3700 31.2621,-4490.6599 34.0460,-4489.4163
C34.9740,-4489.0018 35.9721,-4488.7502 37.0209,-4488.7502
C41.2944,-4488.7502 44.3574,-4493.2914 45.4742,-4495.2452
C45.8934,-4495.9772 46.4008,-4497.4483 46.8518,-4498.9339
C47.3029,-4500.4194 47.6976,-4501.9194 47.8914,-4502.7092
C47.9674,-4503.0163 48.1699,-4503.2698 48.4401,-4503.4138
C48.5302,-4503.4618 48.6277,-4503.4976 48.7307,-4503.5192
C49.1454,-4503.6062 49.5684,-4503.4457 49.8234,-4503.1104
C49.9082,-4502.9987 49.9787,-4502.9207 50.0342,-4502.8667
C50.1356,-4502.9949 50.2408,-4503.1896 50.3496,-4503.4502
C50.6760,-4504.2319 51.0351,-4505.6066 51.4232,-4507.5602
C51.4749,-4507.8229 51.5225,-4508.0623 51.5658,-4508.2676
C51.5802,-4508.3360 51.5942,-4508.4005 51.6077,-4508.4609
C51.3444,-4508.4947 50.9896,-4508.5580 50.6892,-4508.7925
C50.5890,-4508.8707 50.4949,-4508.9679 50.4122,-4509.0894
C50.3484,-4509.1832 50.2686,-4509.3296 50.2231,-4509.5220
C50.2004,-4509.6182 50.1862,-4509.7258 50.1870,-4509.8442
C50.1878,-4509.9625 50.2035,-4510.0914 50.2404,-4510.2302
C50.3252,-4510.5557 50.4279,-4510.8662 50.5434,-4511.2142
C50.6871,-4511.6477 50.8481,-4512.1344 51.0197,-4512.8017
C51.1912,-4513.4690 51.3733,-4514.3169 51.5589,-4515.4727
C52.0292,-4518.4157 51.5064,-4522.4919 51.2529,-4523.2464
C51.1164,-4523.6559 51.2349,-4524.1074 51.5514,-4524.3992
C51.7682,-4524.5979 52.0472,-4524.6962 52.3352,-4524.6849
C52.3262,-4524.7157 52.3179,-4524.7487 52.3074,-4524.7824
C52.2662,-4524.9309 52.1529,-4525.0494 51.9414,-4525.2647
C51.7389,-4525.4687 51.4877,-4525.7229 51.2927,-4526.0724
L51.0347,-4526.5352
C50.8382,-4526.8892 50.6582,-4527.2184 50.5232,-4527.4187
C50.5217,-4527.4217 50.4849,-4527.4794 50.4827,-4527.4824
C49.5797,-4528.8692 48.5364,-4529.6844 47.5434,-4529.7774
C46.2407,-4529.8995 45.5838,-4530.2810 45.0663,-4530.8283
C44.8938,-4531.0108 44.7367,-4531.2116 44.5764,-4531.4274
C44.3147,-4531.7799 44.0447,-4532.1437 43.5339,-4532.5787
C42.9034,-4533.1159 42.1927,-4533.2569 41.3508,-4533.3005
C41.0702,-4533.3150 40.7751,-4533.3187 40.4634,-4533.3227
C40.1214,-4533.3264 39.7734,-4533.3305 39.4185,-4533.3506
C39.2410,-4533.3606 39.0618,-4533.3747 38.8808,-4533.3946
C38.6997,-4533.4145 38.5168,-4533.4404 38.3319,-4533.4742
C37.7713,-4533.5758 37.0603,-4533.6609 36.3091,-4533.7206
C35.5579,-4533.7804 34.7664,-4533.8147 34.0449,-4533.8147
C32.4654,-4533.8147 31.9059,-4533.6579 31.7717,-4533.6107
C30.7532,-4533.2462 30.4862,-4533.0504 29.6919,-4532.4714
L29.4767,-4532.3147
C28.3959,-4531.5257 26.5577,-4530.1562 26.0642,-4529.7437
C25.8444,-4529.5599 25.5722,-4529.3889 25.2564,-4529.1887
Z
M25.6209,-4487.4062
C25.3697,-4486.3104 23.5787,-4485.2282 14.3499,-4480.5977
C11.3267,-4479.0797 7.8977,-4477.3592 7.2594,-4476.8327
L7.0374,-4476.6497
C5.3687,-4475.2877 2.6057,-4473.0324 3.2439,-4465.9194
C4.9601,-4465.0076 11.4528,-4461.9269 23.2772,-4460.4436
C27.2187,-4459.9491 31.7526,-4459.6322 36.8994,-4459.6322
C47.2356,-4459.6322 55.0792,-4460.9008 60.6217,-4462.3212
C66.1642,-4463.7416 69.4056,-4465.3138 70.5369,-4465.9209
C71.2344,-4472.8652 68.6079,-4474.9779 66.8544,-4476.3894
L66.5162,-4476.6639
C65.8464,-4477.2159 62.2524,-4479.0812 59.0837,-4480.7259
C54.3264,-4483.1949 51.6718,-4484.6212 50.1727,-4485.5435
C48.6737,-4486.4657 48.3302,-4486.8838 48.1952,-4487.3364
C48.0540,-4487.8167 48.2463,-4488.3149 48.6369,-4488.5835
L45.8593,-4491.8476
C43.9444,-4489.2923 40.9752,-4486.5647 37.0209,-4486.5647
C32.9338,-4486.5647 29.8354,-4489.3087 28.0145,-4491.4969
L25.1261,-4488.6086
C25.5183,-4488.3607 25.7310,-4487.8839 25.6209,-4487.4062
Z" 
style="stroke-width: 0.7200; stroke: #ffffff; stroke-dasharray: none; stroke-linecap: round; stroke-linejoin: round; fill: none; "/>
</g>
<path d=" 
M36.8122,-4457.3820
C12.8108,-4457.3820 1.9507,-4463.9887 1.5000,-4464.2700
C1.2090,-4464.4530 1.0162,-4464.7590 0.9780,-4465.1002
C0.0000,-4473.8797 3.5947,-4476.8152 5.5260,-4478.3925
L5.7405,-4478.5680
C6.5348,-4479.2227 9.1133,-4480.5292 13.2540,-4482.6075
C16.9762,-4484.4750 22.5668,-4487.2807 23.4255,-4488.1492
C23.6483,-4488.6105 24.1702,-4488.8722 24.6892,-4488.7537
C25.2945,-4488.6150 25.6732,-4488.0112 25.5337,-4487.4060
C25.2825,-4486.3102 23.4915,-4485.2280 14.2628,-4480.5975
C11.2395,-4479.0795 7.8105,-4477.3590 7.1722,-4476.8325
L6.9502,-4476.6495
C5.2815,-4475.2875 2.5185,-4473.0322 3.1568,-4465.9192
C5.4450,-4464.7035 16.2247,-4459.6320 36.8122,-4459.6320
C57.4845,-4459.6320 68.1870,-4464.7065 70.4497,-4465.9207
C71.1473,-4472.8650 68.5208,-4474.9777 66.7672,-4476.3892
L66.4290,-4476.6637
C65.7593,-4477.2157 62.1652,-4479.0810 58.9965,-4480.7257
C49.4820,-4485.6637 48.3780,-4486.4310 48.1080,-4487.3362
C47.9325,-4487.9332 48.2723,-4488.5580 48.8678,-4488.7350
C49.3823,-4488.8872 49.9170,-4488.6562 50.1682,-4488.2092
C50.9985,-4487.4105 56.4217,-4484.5972 60.0330,-4482.7222
C64.3560,-4480.4782 67.0477,-4479.0697 67.8608,-4478.3992
L68.1780,-4478.1412
C70.0980,-4476.5955 73.6703,-4473.7200 72.6210,-4465.0897
C72.5805,-4464.7522 72.3893,-4464.4507 72.1020,-4464.2707
C71.6520,-4463.9895 60.8138,-4457.3820 36.8122,-4457.3820
Z" 
style="fill-rule: evenodd; fill: #000000; "/>
<path d=" 
M36.9337,-4486.5645
C30.5242,-4486.5645 26.5462,-4493.3130 26.1135,-4494.0832
C25.4070,-4495.3417 24.1972,-4498.7235 23.5252,-4500.6720
C23.3415,-4500.6150 23.1562,-4500.5865 22.9672,-4500.5865
C20.9272,-4500.5865 20.1735,-4503.5520 19.4640,-4507.1340
C19.3890,-4507.5097 19.3252,-4507.8330 19.2705,-4508.0692
C19.1025,-4508.7855 19.1805,-4509.3810 19.5000,-4509.8377
C19.7572,-4510.2045 20.1007,-4510.3912 20.4217,-4510.4940
C20.4187,-4510.5052 20.4150,-4510.5150 20.4105,-4510.5255
C20.1150,-4511.4187 19.7107,-4512.6405 19.3132,-4515.1267
C18.7785,-4518.4860 19.3515,-4522.8817 19.7055,-4523.9392
C19.7520,-4524.0780 19.7452,-4524.0982 19.6845,-4524.2955
C19.5832,-4524.6285 19.3942,-4525.2480 19.8495,-4526.0047
C20.0145,-4526.2807 20.2897,-4526.6970 20.5942,-4527.1575
C21.0337,-4527.8212 21.5325,-4528.5750 21.8130,-4529.0812
C22.2930,-4529.9565 23.2410,-4530.5557 24.0037,-4531.0365
C24.2325,-4531.1812 24.4695,-4531.3312 24.5775,-4531.4212
C25.1565,-4531.9050 27.1590,-4533.3930 28.1040,-4534.0822
L28.3170,-4534.2375
C29.1660,-4534.8570 29.6340,-4535.1990 30.9495,-4535.6692
C31.5645,-4535.8890 32.5770,-4536.0000 33.9577,-4536.0000
C35.5192,-4536.0000 37.3987,-4535.8492 38.6362,-4535.6242
C39.1950,-4535.5222 39.7830,-4535.5155 40.4040,-4535.5080
C41.8207,-4535.4907 43.4242,-4535.4705 44.8642,-4534.2420
C45.5647,-4533.6465 45.9585,-4533.1162 46.2457,-4532.7277
C46.6702,-4532.1555 46.7587,-4532.0370 47.6625,-4531.9522
C49.3575,-4531.7932 50.9362,-4530.6592 52.2285,-4528.6717
C52.4130,-4528.3935 52.6290,-4528.0095 52.8585,-4527.5940
L53.1120,-4527.1410
C53.1645,-4527.0472 53.2837,-4526.9280 53.4082,-4526.8005
C53.7112,-4526.4937 54.1275,-4526.0745 54.3240,-4525.3807
C54.5085,-4524.7395 54.5482,-4524.4845 54.6667,-4523.7247
L54.7342,-4523.2965
C54.7702,-4523.1877 54.7897,-4523.0715 54.7897,-4522.9507
C54.7897,-4522.3477 54.3000,-4521.8572 53.6970,-4521.8572
C53.6910,-4521.8572 53.6865,-4521.8572 53.6812,-4521.8572
C53.6640,-4521.8572 53.6452,-4521.8580 53.6280,-4521.8580
C53.8567,-4519.9972 53.9850,-4517.3362 53.6317,-4515.1245
C53.2335,-4512.6397 52.8292,-4511.4180 52.5337,-4510.5255
C52.5300,-4510.5142 52.5255,-4510.5037 52.5225,-4510.4925
C52.8435,-4510.3905 53.1862,-4510.2037 53.4435,-4509.8377
C53.7645,-4509.3810 53.8425,-4508.7862 53.6760,-4508.0692
C53.6197,-4507.8322 53.5560,-4507.5090 53.4825,-4507.1332
C52.7722,-4503.5505 52.0192,-4500.5857 49.9770,-4500.5857
C49.8262,-4500.5857 49.6777,-4500.6045 49.5300,-4500.6405
C49.0132,-4498.7167 48.0975,-4495.5735 47.2867,-4494.1567
C45.6600,-4491.3217 42.1560,-4486.5645 36.9337,-4486.5645
Z
M24.0757,-4503.5422
C24.1350,-4503.5422 24.1942,-4503.5370 24.2550,-4503.5265
C24.6547,-4503.4605 24.9855,-4503.1785 25.1130,-4502.7922
C25.6702,-4501.1160 27.2775,-4496.4750 28.0200,-4495.1535
C29.3557,-4492.7752 32.7382,-4488.7500 36.9337,-4488.7500
C41.2072,-4488.7500 44.2702,-4493.2912 45.3870,-4495.2450
C46.2255,-4496.7090 47.4165,-4501.1295 47.8042,-4502.7090
C47.9055,-4503.1185 48.2317,-4503.4327 48.6435,-4503.5190
C49.0582,-4503.6060 49.4812,-4503.4455 49.7362,-4503.1102
C49.8210,-4502.9985 49.8915,-4502.9205 49.9470,-4502.8665
C50.3527,-4503.3795 50.8185,-4504.9552 51.3360,-4507.5600
C51.4050,-4507.9102 51.4665,-4508.2192 51.5205,-4508.4607
C51.1695,-4508.5057 50.6557,-4508.6032 50.3250,-4509.0892
C50.1975,-4509.2767 50.0055,-4509.6750 50.1532,-4510.2300
C50.2380,-4510.5555 50.3407,-4510.8660 50.4562,-4511.2140
C50.7435,-4512.0810 51.1005,-4513.1610 51.4717,-4515.4725
C51.9420,-4518.4155 51.4192,-4522.4917 51.1657,-4523.2462
C51.0292,-4523.6557 51.1477,-4524.1072 51.4642,-4524.3990
C51.6810,-4524.5977 51.9600,-4524.6960 52.2480,-4524.6847
C52.2390,-4524.7155 52.2307,-4524.7485 52.2202,-4524.7822
C52.1790,-4524.9307 52.0657,-4525.0492 51.8542,-4525.2645
C51.6517,-4525.4685 51.4005,-4525.7227 51.2055,-4526.0722
L50.9475,-4526.5350
C50.7510,-4526.8890 50.5710,-4527.2182 50.4360,-4527.4185
C50.4345,-4527.4215 50.3977,-4527.4792 50.3955,-4527.4822
C49.4925,-4528.8690 48.4492,-4529.6842 47.4562,-4529.7772
C45.7192,-4529.9400 45.1305,-4530.5640 44.4892,-4531.4272
C44.2275,-4531.7797 43.9575,-4532.1435 43.4467,-4532.5785
C42.6060,-4533.2948 41.6227,-4533.3067 40.3762,-4533.3225
C39.6922,-4533.3300 38.9842,-4533.3390 38.2447,-4533.4740
C37.1235,-4533.6772 35.4007,-4533.8145 33.9577,-4533.8145
C32.3782,-4533.8145 31.8187,-4533.6577 31.6845,-4533.6105
C30.6660,-4533.2460 30.3990,-4533.0502 29.6047,-4532.4712
L29.3895,-4532.3145
C28.3087,-4531.5255 26.4705,-4530.1560 25.9770,-4529.7435
C25.7572,-4529.5597 25.4850,-4529.3887 25.1692,-4529.1885
C24.6780,-4528.8787 23.9362,-4528.4092 23.7270,-4528.0275
C23.4030,-4527.4410 22.8787,-4526.6490 22.4160,-4525.9500
C22.1587,-4525.5630 21.9240,-4525.2097 21.7680,-4524.9547
C21.7702,-4524.9480 21.7725,-4524.9405 21.7747,-4524.9337
C21.8760,-4524.6030 22.0447,-4524.0495 21.7777,-4523.2485
C21.5250,-4522.4917 21.0022,-4518.4170 21.4710,-4515.4710
C21.8400,-4513.1602 22.1970,-4512.0802 22.4850,-4511.2140
C22.6005,-4510.8660 22.7025,-4510.5547 22.7880,-4510.2285
C22.9350,-4509.6750 22.7437,-4509.2767 22.6162,-4509.0900
C22.2870,-4508.6047 21.7725,-4508.5057 21.4207,-4508.4607
C21.4755,-4508.2192 21.5362,-4507.9102 21.6067,-4507.5600
C22.1220,-4504.9560 22.5877,-4503.3817 22.9942,-4502.8665
C23.0490,-4502.9205 23.1195,-4502.9985 23.2042,-4503.1102
C23.4142,-4503.3847 23.7367,-4503.5422 24.0757,-4503.5422
Z" 
style="fill-rule: evenodd; fill: #000000; "/>
<text x="0.0000" y="-4457.3820">
<tspan font-family="Arial Narrow" font-weight="bold" font-size="12.0000" fill="#000000" fill-opacity="1.0000" stroke-opacity="1.0000" >
Person</tspan>
</text>
</svg>
