<?xml version="1.0" encoding="UTF-8" standalone="no"?>
<svg version="1.1" xmlns="http://www.w3.org/2000/svg" xmlns:xlink="http://www.w3.org/1999/xlink" width="1.0938in" height="0.9688in" viewBox="0 0 78.7500 69.7500" >
<g id="Layer1088" >
<path d=" 
M65.8714,-4521.3751
C65.8714,-4521.9961 65.3674,-4522.5001 64.7464,-4522.5001
L3.9964,-4522.5001
C3.3754,-4522.5001 2.8714,-4521.9961 2.8714,-4521.3751
L2.8714,-4480.8751
C2.8714,-4480.2541 3.3754,-4479.7501 3.9964,-4479.7501
L48.5133,-4479.7501
A14.3437,14.3437 0.0000 1,0 65.8714,-4495.9842
L65.8714,-4521.3751
Z
M65.8714,-4528.1251
C65.8714,-4528.7461 65.3674,-4529.2501 64.7464,-4529.2501
L18.9971,-4529.2501
C17.5489,-4529.2501 16.3714,-4530.4276 16.3714,-4531.8751
L16.3714,-4533.3751
C16.3714,-4533.5784 16.1996,-4533.7501 15.9971,-4533.7501
L3.2471,-4533.7501
C3.0439,-4533.7501 2.8714,-4533.5784 2.8714,-4533.3751
L2.8714,-4524.5431
C3.2254,-4524.6691 3.6004,-4524.7501 3.9964,-4524.7501
L64.7464,-4524.7501
C65.1431,-4524.7501 65.5181,-4524.6691 65.8714,-4524.5431
L65.8714,-4528.1251
Z" 
style="stroke-width: 0.7200; stroke-linecap: round; stroke-linejoin: round; fill-rule: evenodd; fill: #ffffff; "/>
<path d=" 
M65.8714,-4521.3751
C65.8714,-4521.9961 65.3674,-4522.5001 64.7464,-4522.5001
L3.9964,-4522.5001
C3.3754,-4522.5001 2.8714,-4521.9961 2.8714,-4521.3751
L2.8714,-4480.8751
C2.8714,-4480.2541 3.3754,-4479.7501 3.9964,-4479.7501
L48.5133,-4479.7501
A14.3437,14.3437 0.0000 1,0 65.8714,-4495.9842
L65.8714,-4521.3751
Z
M65.8714,-4528.1251
C65.8714,-4528.7461 65.3674,-4529.2501 64.7464,-4529.2501
L18.9971,-4529.2501
C17.5489,-4529.2501 16.3714,-4530.4276 16.3714,-4531.8751
L16.3714,-4533.3751
C16.3714,-4533.5784 16.1996,-4533.7501 15.9971,-4533.7501
L3.2471,-4533.7501
C3.0439,-4533.7501 2.8714,-4533.5784 2.8714,-4533.3751
L2.8714,-4524.5431
C3.2254,-4524.6691 3.6004,-4524.7501 3.9964,-4524.7501
L64.7464,-4524.7501
C65.1431,-4524.7501 65.5181,-4524.6691 65.8714,-4524.5431
L65.8714,-4528.1251
Z" 
style="stroke-width: 0.7200; stroke: #ffffff; stroke-dasharray: none; stroke-linecap: round; stroke-linejoin: round; fill: none; "/>
</g>
<path d=" 
M78.7500,-4513.5000
L36.0000,-4513.5000
L33.7500,-4515.7500
L78.7500,-4515.7500
L78.7500,-4513.5000
Z" 
style="fill-rule: evenodd; fill: #000000; "/>
<path d=" 
M78.7500,-4506.7500
L36.0000,-4506.7500
L33.7500,-4509.0000
L78.7500,-4509.0000
L78.7500,-4506.7500
Z" 
style="fill-rule: evenodd; fill: #000000; "/>
<path d=" 
M78.7500,-4500.0000
L36.0000,-4500.0000
L33.7500,-4502.2500
L78.7500,-4502.2500
L78.7500,-4500.0000
Z" 
style="fill-rule: evenodd; fill: #000000; "/>
<path d=" 
M69.6090,-4486.2128
C68.9288,-4487.0610 68.0130,-4487.9092 66.6038,-4487.9092
C65.6190,-4487.9092 64.7970,-4486.9440 63.4343,-4486.9440
C62.3543,-4486.9440 61.9095,-4487.8628 60.7350,-4487.8628
C58.2930,-4487.8628 55.8758,-4485.6713 55.8758,-4482.8190
C55.8758,-4481.3115 56.3685,-4478.9783 57.4718,-4476.9510
C58.2705,-4475.4668 59.2560,-4474.5000 60.3593,-4474.5000
C61.1580,-4474.5000 62.0978,-4475.2313 63.2235,-4475.2313
C64.2083,-4475.2313 65.1255,-4474.5712 66.0180,-4474.5712
C68.1548,-4474.5712 70.1273,-4477.3522 70.1273,-4479.2137
C70.1273,-4479.3075 70.1025,-4479.3780 70.1025,-4479.4478
L70.1025,-4479.5663
C68.7173,-4480.3207 67.9665,-4481.4277 67.9665,-4483.0305
C67.9665,-4484.3273 68.5290,-4485.4575 69.5633,-4486.1888
L69.6090,-4486.2128
Z" 
style="fill-rule: evenodd; fill: #000000; "/>
<path d=" 
M63.3870,-4487.2485
C64.9823,-4487.7435 66.4620,-4488.9457 66.4620,-4491.0427
C66.4620,-4491.2085 66.4388,-4491.4208 66.4155,-4491.6562
L66.3915,-4491.7500
C64.7708,-4491.3015 63.3150,-4490.0302 63.3150,-4488.0262
C63.3150,-4487.8373 63.3375,-4487.6017 63.3863,-4487.3423
L63.3863,-4487.2485
L63.3870,-4487.2485
Z" 
style="fill-rule: evenodd; fill: #000000; "/>
<path d=" 
M63.0000,-4497.7500
C54.3022,-4497.7500 47.2500,-4490.6985 47.2500,-4482.0000
C47.2500,-4481.0797 47.4375,-4479.6008 47.4157,-4479.7500
L3.3750,-4479.7500
C2.7540,-4479.7500 2.2500,-4480.2540 2.2500,-4480.8750
L2.2500,-4509.0000
L2.2500,-4521.3750
C2.2500,-4521.9960 2.7540,-4522.5000 3.3750,-4522.5000
L64.1250,-4522.5000
C64.7460,-4522.5000 65.2500,-4521.9960 65.2500,-4521.3750
L65.2500,-4520.2500
L67.5000,-4520.2500
L67.5000,-4521.3750
L67.5000,-4528.1250
C67.5000,-4529.9857 65.9865,-4531.5000 64.1250,-4531.5000
L21.0000,-4531.5000
L18.3750,-4531.5000
C18.1725,-4531.5000 18.0000,-4531.6718 18.0000,-4531.8750
L18.0000,-4533.3750
C18.0000,-4534.8225 16.8225,-4536.0000 15.3750,-4536.0000
L2.6250,-4536.0000
C1.1775,-4536.0000 0.0000,-4534.8225 0.0000,-4533.3750
L0.0000,-4530.3750
L0.0000,-4525.5630
L0.0000,-4521.3750
L0.0000,-4509.0000
L0.0000,-4480.8750
C0.0000,-4479.0143 1.5142,-4477.5000 3.3750,-4477.5000
L47.9115,-4477.5000
C49.8488,-4470.9960 55.8675,-4466.2500 63.0000,-4466.2500
C71.7000,-4466.2500 78.7500,-4473.3015 78.7500,-4482.0000
C78.7500,-4490.6985 71.7000,-4497.7500 63.0000,-4497.7500
Z
M2.2500,-4525.5630
L2.2500,-4530.3750
L2.2500,-4533.3750
C2.2500,-4533.5782 2.4225,-4533.7500 2.6257,-4533.7500
L15.3758,-4533.7500
C15.5783,-4533.7500 15.7500,-4533.5782 15.7500,-4533.3750
L15.7500,-4531.8750
C15.7500,-4530.4275 16.9275,-4529.2500 18.3758,-4529.2500
L21.0000,-4529.2500
L64.1250,-4529.2500
C64.7460,-4529.2500 65.2500,-4528.7460 65.2500,-4528.1250
L65.2500,-4524.5430
C64.8967,-4524.6690 64.5218,-4524.7500 64.1250,-4524.7500
L3.3750,-4524.7500
C2.9790,-4524.7500 2.6040,-4524.6690 2.2500,-4524.5430
L2.2500,-4525.5630
Z
M63.0000,-4468.5000
C55.5570,-4468.5000 49.5000,-4474.5555 49.5000,-4482.0000
C49.5000,-4489.4445 55.5570,-4495.5000 63.0000,-4495.5000
C70.4445,-4495.5000 76.5000,-4489.4445 76.5000,-4482.0000
C76.5000,-4474.5555 70.4445,-4468.5000 63.0000,-4468.5000
Z" 
style="fill-rule: evenodd; fill: #000000; "/>
<text x="-9.9681" y="-4466.2500">
<tspan font-family="Arial Narrow" font-weight="bold" font-size="12.0000" fill="#000000" fill-opacity="1.0000" stroke-opacity="1.0000" >
Directory Input, Mac</tspan>
</text>
</svg>
