<?xml version="1.0" encoding="UTF-8" standalone="no"?>
<svg version="1.1" xmlns="http://www.w3.org/2000/svg" xmlns:xlink="http://www.w3.org/1999/xlink" width="1.0938in" height="0.9688in" viewBox="0 0 78.7500 69.7500" >
<g id="Layer1089" >
<path d=" 
M65.9760,-4521.3751
C65.9760,-4521.9961 65.4720,-4522.5001 64.8510,-4522.5001
L4.1010,-4522.5001
C3.4800,-4522.5001 2.9760,-4521.9961 2.9760,-4521.3751
L2.9760,-4480.8751
C2.9760,-4480.2541 3.4800,-4479.7501 4.1010,-4479.7501
L48.6180,-4479.7501
A14.3438,14.3438 0.0000 1,0 65.9760,-4495.9842
L65.9760,-4521.3751
Z
M65.9760,-4528.1251
C65.9760,-4528.7461 65.4720,-4529.2501 64.8510,-4529.2501
L19.1018,-4529.2501
C17.6535,-4529.2501 16.4760,-4530.4276 16.4760,-4531.8751
L16.4760,-4533.3751
C16.4760,-4533.5784 16.3043,-4533.7501 16.1018,-4533.7501
L3.3518,-4533.7501
C3.1485,-4533.7501 2.9760,-4533.5784 2.9760,-4533.3751
L2.9760,-4524.5431
C3.3300,-4524.6691 3.7050,-4524.7501 4.1010,-4524.7501
L64.8510,-4524.7501
C65.2478,-4524.7501 65.6228,-4524.6691 65.9760,-4524.5431
L65.9760,-4528.1251
Z" 
style="stroke-width: 0.7200; stroke-linecap: round; stroke-linejoin: round; fill-rule: evenodd; fill: #ffffff; "/>
<path d=" 
M65.9760,-4521.3751
C65.9760,-4521.9961 65.4720,-4522.5001 64.8510,-4522.5001
L4.1010,-4522.5001
C3.4800,-4522.5001 2.9760,-4521.9961 2.9760,-4521.3751
L2.9760,-4480.8751
C2.9760,-4480.2541 3.4800,-4479.7501 4.1010,-4479.7501
L48.6180,-4479.7501
A14.3438,14.3438 0.0000 1,0 65.9760,-4495.9842
L65.9760,-4521.3751
Z
M65.9760,-4528.1251
C65.9760,-4528.7461 65.4720,-4529.2501 64.8510,-4529.2501
L19.1018,-4529.2501
C17.6535,-4529.2501 16.4760,-4530.4276 16.4760,-4531.8751
L16.4760,-4533.3751
C16.4760,-4533.5784 16.3043,-4533.7501 16.1018,-4533.7501
L3.3518,-4533.7501
C3.1485,-4533.7501 2.9760,-4533.5784 2.9760,-4533.3751
L2.9760,-4524.5431
C3.3300,-4524.6691 3.7050,-4524.7501 4.1010,-4524.7501
L64.8510,-4524.7501
C65.2478,-4524.7501 65.6228,-4524.6691 65.9760,-4524.5431
L65.9760,-4528.1251
Z" 
style="stroke-width: 0.7200; stroke: #ffffff; stroke-dasharray: none; stroke-linecap: round; stroke-linejoin: round; fill: none; "/>
</g>
<path d=" 
M78.7500,-4513.5000
L36.0000,-4513.5000
L33.7500,-4515.7500
L78.7500,-4515.7500
L78.7500,-4513.5000
Z" 
style="fill-rule: evenodd; fill: #000000; "/>
<path d=" 
M78.7500,-4506.7500
L36.0000,-4506.7500
L33.7500,-4509.0000
L78.7500,-4509.0000
L78.7500,-4506.7500
Z" 
style="fill-rule: evenodd; fill: #000000; "/>
<path d=" 
M78.7500,-4500.0000
L36.0000,-4500.0000
L33.7500,-4502.2500
L78.7500,-4502.2500
L78.7500,-4500.0000
Z" 
style="fill-rule: evenodd; fill: #000000; "/>
<path d=" 
M47.4157,-4479.7500
L3.3750,-4479.7500
C2.7540,-4479.7500 2.2500,-4480.2540 2.2500,-4480.8750
L2.2500,-4509.0000
L2.2500,-4521.3750
C2.2500,-4521.9960 2.7540,-4522.5000 3.3750,-4522.5000
L64.1250,-4522.5000
C64.7460,-4522.5000 65.2500,-4521.9960 65.2500,-4521.3750
L65.2500,-4520.2500
L67.5000,-4520.2500
L67.5000,-4521.3750
L67.5000,-4528.1250
C67.5000,-4529.9857 65.9865,-4531.5000 64.1250,-4531.5000
L21.0000,-4531.5000
L18.3750,-4531.5000
C18.1725,-4531.5000 18.0000,-4531.6718 18.0000,-4531.8750
L18.0000,-4533.3750
C18.0000,-4534.8225 16.8225,-4536.0000 15.3750,-4536.0000
L2.6250,-4536.0000
C1.1775,-4536.0000 0.0000,-4534.8225 0.0000,-4533.3750
L0.0000,-4530.3750
L0.0000,-4525.5630
L0.0000,-4521.3750
L0.0000,-4509.0000
L0.0000,-4480.8750
C0.0000,-4479.0143 1.5142,-4477.5000 3.3750,-4477.5000
L47.9115,-4477.5000
C49.8488,-4470.9960 55.8675,-4466.2500 63.0000,-4466.2500
C71.7000,-4466.2500 78.7500,-4473.3015 78.7500,-4482.0000
C78.7500,-4490.6985 71.7000,-4497.7500 63.0000,-4497.7500
C54.3022,-4497.7500 47.2500,-4490.6985 47.2500,-4482.0000
Z
M2.2500,-4525.5630
L2.2500,-4530.3750
L2.2500,-4533.3750
C2.2500,-4533.5782 2.4225,-4533.7500 2.6257,-4533.7500
L15.3758,-4533.7500
C15.5783,-4533.7500 15.7500,-4533.5782 15.7500,-4533.3750
L15.7500,-4531.8750
C15.7500,-4530.4275 16.9275,-4529.2500 18.3758,-4529.2500
L21.0000,-4529.2500
L64.1250,-4529.2500
C64.7460,-4529.2500 65.2500,-4528.7460 65.2500,-4528.1250
L65.2500,-4524.5430
C64.8967,-4524.6690 64.5218,-4524.7500 64.1250,-4524.7500
L3.3750,-4524.7500
C2.9790,-4524.7500 2.6040,-4524.6690 2.2500,-4524.5430
L2.2500,-4525.5630
Z
M63.0000,-4468.5000
C55.5570,-4468.5000 49.5000,-4474.5555 49.5000,-4482.0000
C49.5000,-4489.4445 55.5570,-4495.5000 63.0000,-4495.5000
C70.4445,-4495.5000 76.5000,-4489.4445 76.5000,-4482.0000
C76.5000,-4474.5555 70.4445,-4468.5000 63.0000,-4468.5000
Z" 
style="fill-rule: evenodd; fill: #000000; "/>
<path d=" 
M62.4728,-4483.8000
C61.8428,-4484.1675 60.6315,-4484.7802 59.5590,-4484.7802
C59.4705,-4484.7802 59.3828,-4484.7773 59.2950,-4484.7683
C58.3650,-4484.6760 57.2693,-4484.3715 56.5778,-4484.1547
L58.0553,-4489.2278
C58.4370,-4489.4047 59.5755,-4489.8750 60.9450,-4489.8750
C62.0685,-4489.8750 63.0893,-4489.5630 63.9803,-4488.9465
L62.4728,-4483.8000
Z" 
style="fill-rule: evenodd; fill: #000000; "/>
<path d=" 
M60.4455,-4476.7792
C59.8087,-4477.1340 58.5832,-4477.7310 57.5407,-4477.7310
C57.4672,-4477.7310 57.3975,-4477.7272 57.3285,-4477.7227
C56.1682,-4477.6260 55.2705,-4477.4738 54.5752,-4477.2525
L56.0257,-4482.2655
C56.4690,-4482.4500 57.7830,-4482.9525 58.9605,-4482.9525
C59.0482,-4482.9525 59.1360,-4482.9495 59.2245,-4482.9435
C60.4477,-4482.8557 61.4797,-4482.3030 61.9725,-4481.9910
L60.4455,-4476.7792
Z" 
style="fill-rule: evenodd; fill: #000000; "/>
<path d=" 
M64.6777,-4474.8810
C63.4395,-4474.9425 62.5770,-4475.5110 62.1120,-4475.8170
C62.0872,-4475.8327 62.0625,-4475.8500 62.0370,-4475.8650
L63.5310,-4481.0025
C64.1640,-4480.6448 65.3722,-4480.0387 66.3082,-4480.0387
C67.4422,-4480.0680 68.2237,-4480.1573 69.4065,-4480.5600
C69.1725,-4479.7883 68.7547,-4478.3363 67.9590,-4475.5740
C67.5120,-4475.3880 66.1687,-4474.8750 64.9012,-4474.8750
C64.8277,-4474.8750 64.7527,-4474.8765 64.6777,-4474.8810
Z" 
style="fill-rule: evenodd; fill: #000000; "/>
<path d=" 
M66.7350,-4481.7525
C65.4315,-4481.7525 64.4138,-4482.4515 64.0283,-4482.7605
L65.5395,-4487.8755
C66.0848,-4487.5328 66.9623,-4487.0887 68.1945,-4486.9500
C68.3310,-4486.9350 68.4750,-4486.9282 68.6205,-4486.9282
C69.5903,-4486.9282 70.7198,-4487.2463 71.4330,-4487.4878
L69.9780,-4482.4808
C69.9683,-4482.4748 69.9570,-4482.4703 69.9465,-4482.4650
C69.5250,-4482.2820 68.5448,-4481.8500 66.9585,-4481.7607
C66.8820,-4481.7555 66.8085,-4481.7525 66.7350,-4481.7525
Z" 
style="fill-rule: evenodd; fill: #000000; "/>
<text x="-11.2344" y="-4466.2500">
<tspan font-family="Arial Narrow" font-weight="bold" font-size="12.0000" fill="#000000" fill-opacity="1.0000" stroke-opacity="1.0000" >
Directory Input, Windows</tspan>
</text>
</svg>
