<?xml version="1.0" encoding="UTF-8" standalone="no"?>
<svg version="1.1" xmlns="http://www.w3.org/2000/svg" xmlns:xlink="http://www.w3.org/1999/xlink" width="1.0938in" height="0.9688in" viewBox="0 0 78.7500 69.7500" >
<g id="Layer1087" >
<path d=" 
M65.8779,-4521.3751
C65.8779,-4521.9961 65.3739,-4522.5001 64.7529,-4522.5001
L4.0029,-4522.5001
C3.3819,-4522.5001 2.8779,-4521.9961 2.8779,-4521.3751
L2.8779,-4480.8751
C2.8779,-4480.2541 3.3819,-4479.7501 4.0029,-4479.7501
L48.5199,-4479.7501
A14.3437,14.3437 0.0000 1,0 65.8779,-4495.9842
L65.8779,-4521.3751
Z
M65.8779,-4528.1251
C65.8779,-4528.7461 65.3739,-4529.2501 64.7529,-4529.2501
L19.0037,-4529.2501
C17.5554,-4529.2501 16.3779,-4530.4276 16.3779,-4531.8751
L16.3779,-4533.3751
C16.3779,-4533.5784 16.2062,-4533.7501 16.0037,-4533.7501
L3.2537,-4533.7501
C3.0504,-4533.7501 2.8779,-4533.5784 2.8779,-4533.3751
L2.8779,-4524.5431
C3.2319,-4524.6691 3.6069,-4524.7501 4.0029,-4524.7501
L64.7529,-4524.7501
C65.1497,-4524.7501 65.5247,-4524.6691 65.8779,-4524.5431
L65.8779,-4528.1251
Z" 
style="stroke-width: 0.7200; stroke-linecap: round; stroke-linejoin: round; fill-rule: evenodd; fill: #ffffff; "/>
<path d=" 
M65.8779,-4521.3751
C65.8779,-4521.9961 65.3739,-4522.5001 64.7529,-4522.5001
L4.0029,-4522.5001
C3.3819,-4522.5001 2.8779,-4521.9961 2.8779,-4521.3751
L2.8779,-4480.8751
C2.8779,-4480.2541 3.3819,-4479.7501 4.0029,-4479.7501
L48.5199,-4479.7501
A14.3437,14.3437 0.0000 1,0 65.8779,-4495.9842
L65.8779,-4521.3751
Z
M65.8779,-4528.1251
C65.8779,-4528.7461 65.3739,-4529.2501 64.7529,-4529.2501
L19.0037,-4529.2501
C17.5554,-4529.2501 16.3779,-4530.4276 16.3779,-4531.8751
L16.3779,-4533.3751
C16.3779,-4533.5784 16.2062,-4533.7501 16.0037,-4533.7501
L3.2537,-4533.7501
C3.0504,-4533.7501 2.8779,-4533.5784 2.8779,-4533.3751
L2.8779,-4524.5431
C3.2319,-4524.6691 3.6069,-4524.7501 4.0029,-4524.7501
L64.7529,-4524.7501
C65.1497,-4524.7501 65.5247,-4524.6691 65.8779,-4524.5431
L65.8779,-4528.1251
Z" 
style="stroke-width: 0.7200; stroke: #ffffff; stroke-dasharray: none; stroke-linecap: round; stroke-linejoin: round; fill: none; "/>
</g>
<path d=" 
M78.7500,-4513.5000
L36.0000,-4513.5000
L33.7500,-4515.7500
L78.7500,-4515.7500
L78.7500,-4513.5000
Z" 
style="fill-rule: evenodd; fill: #000000; "/>
<path d=" 
M78.7500,-4506.7500
L36.0000,-4506.7500
L33.7500,-4509.0000
L78.7500,-4509.0000
L78.7500,-4506.7500
Z" 
style="fill-rule: evenodd; fill: #000000; "/>
<path d=" 
M78.7500,-4500.0000
L36.0000,-4500.0000
L33.7500,-4502.2500
L78.7500,-4502.2500
L78.7500,-4500.0000
Z" 
style="fill-rule: evenodd; fill: #000000; "/>
<path d=" 
M63.0000,-4497.7500
C54.3022,-4497.7500 47.2500,-4490.6985 47.2500,-4482.0000
C47.2500,-4481.0797 47.3452,-4480.1827 47.4975,-4479.3060
C47.4712,-4479.4537 47.4375,-4479.6008 47.4157,-4479.7500
L3.3750,-4479.7500
C2.7540,-4479.7500 2.2500,-4480.2540 2.2500,-4480.8750
L2.2500,-4509.0000
L2.2500,-4521.3750
C2.2500,-4521.9960 2.7540,-4522.5000 3.3750,-4522.5000
L64.1250,-4522.5000
C64.7460,-4522.5000 65.2500,-4521.9960 65.2500,-4521.3750
L65.2500,-4520.2500
L67.5000,-4520.2500
L67.5000,-4521.3750
L67.5000,-4528.1250
C67.5000,-4529.9857 65.9865,-4531.5000 64.1250,-4531.5000
L21.0000,-4531.5000
L18.3750,-4531.5000
C18.1725,-4531.5000 18.0000,-4531.6718 18.0000,-4531.8750
L18.0000,-4533.3750
C18.0000,-4534.8225 16.8225,-4536.0000 15.3750,-4536.0000
L2.6250,-4536.0000
C1.1775,-4536.0000 0.0000,-4534.8225 0.0000,-4533.3750
L0.0000,-4530.3750
L0.0000,-4525.5630
L0.0000,-4521.3750
L0.0000,-4509.0000
L0.0000,-4480.8750
C0.0000,-4479.0143 1.5142,-4477.5000 3.3750,-4477.5000
L47.9115,-4477.5000
C49.8488,-4470.9960 55.8675,-4466.2500 63.0000,-4466.2500
C71.7000,-4466.2500 78.7500,-4473.3015 78.7500,-4482.0000
C78.7500,-4490.6985 71.7000,-4497.7500 63.0000,-4497.7500
Z
M2.2500,-4525.5630
L2.2500,-4530.3750
L2.2500,-4533.3750
C2.2500,-4533.5782 2.4225,-4533.7500 2.6257,-4533.7500
L15.3758,-4533.7500
C15.5783,-4533.7500 15.7500,-4533.5782 15.7500,-4533.3750
L15.7500,-4531.8750
C15.7500,-4530.4275 16.9275,-4529.2500 18.3758,-4529.2500
L21.0000,-4529.2500
L64.1250,-4529.2500
C64.7460,-4529.2500 65.2500,-4528.7460 65.2500,-4528.1250
L65.2500,-4524.5430
C64.8967,-4524.6690 64.5218,-4524.7500 64.1250,-4524.7500
L3.3750,-4524.7500
C2.9790,-4524.7500 2.6040,-4524.6690 2.2500,-4524.5430
L2.2500,-4525.5630
Z
M47.6205,-4478.6295
C47.6880,-4478.3235 47.7698,-4478.0213 47.8545,-4477.7213
C47.7698,-4478.0213 47.6880,-4478.3235 47.6205,-4478.6295
Z
M63.0000,-4468.5000
C55.5570,-4468.5000 49.5000,-4474.5555 49.5000,-4482.0000
C49.5000,-4489.4445 55.5570,-4495.5000 63.0000,-4495.5000
C70.4445,-4495.5000 76.5000,-4489.4445 76.5000,-4482.0000
C76.5000,-4474.5555 70.4445,-4468.5000 63.0000,-4468.5000
Z" 
style="fill-rule: evenodd; fill: #000000; "/>
<path d=" 
M66.0008,-4477.1250
C66.0008,-4477.7333 64.9838,-4478.4270 63.2760,-4478.9812
C61.7333,-4479.4838 60.0218,-4479.7500 59.3805,-4479.7500
C58.7963,-4479.7500 55.8428,-4478.9520 54.6548,-4477.6253
C54.1800,-4477.0943 54.0923,-4476.5167 54.3870,-4475.8583
C54.5595,-4475.4720 54.8520,-4475.0932 55.2105,-4474.7333
C55.3058,-4474.8502 55.4670,-4474.9050 55.6170,-4474.8570
C55.6268,-4474.8533 56.6370,-4474.5337 58.5083,-4474.5000
C60.3780,-4474.4632 62.4623,-4475.0183 63.9263,-4475.9423
C64.1018,-4476.0518 64.3335,-4476.0000 64.4430,-4475.8260
C64.5540,-4475.6505 64.5015,-4475.4187 64.3268,-4475.3093
C62.7923,-4474.3395 60.6398,-4473.7492 58.6703,-4473.7492
C58.6103,-4473.7492 58.5525,-4473.7500 58.4948,-4473.7508
C57.4155,-4473.7710 56.6183,-4473.8798 56.0963,-4473.9780
C57.4598,-4472.9707 59.1990,-4472.2500 60.0015,-4472.2500
C62.1720,-4472.2500 66.0000,-4475.0685 66.0008,-4477.1250
Z" 
style="fill-rule: evenodd; fill: #010101; "/>
<path d=" 
M68.6250,-4471.8750
C68.8680,-4471.4947 68.9805,-4471.1422 69.0787,-4470.7957
C70.6815,-4471.6672 72.0727,-4472.8792 73.1677,-4474.3260
C72.7537,-4475.3003 72.3997,-4476.3637 72.1215,-4477.5922
C71.0280,-4482.4073 72.3937,-4481.0168 71.4270,-4485.2212
C70.9567,-4487.3152 70.1212,-4488.9765 69.1905,-4490.0707
C68.2628,-4491.1890 66.9870,-4491.7958 66.3743,-4492.1250
C64.9508,-4492.8900 61.3763,-4494.2490 57.0660,-4492.0140
C53.0250,-4489.9073 53.0693,-4485.6067 53.6520,-4477.4415
C53.7578,-4477.6785 53.9018,-4477.9087 54.0953,-4478.1255
C54.4560,-4478.5282 54.9503,-4478.8845 55.4918,-4479.1920
C54.3053,-4481.3257 54.3008,-4485.6930 57.0000,-4485.0000
C58.7010,-4484.5643 59.2815,-4482.2827 58.9050,-4480.4430
C59.1053,-4480.4797 59.2688,-4480.5000 59.3805,-4480.5000
C59.8838,-4480.5000 60.7943,-4480.3755 61.7828,-4480.1573
C61.2698,-4481.7360 61.5803,-4483.7595 62.7360,-4484.7278
C66.1110,-4487.5553 69.5512,-4480.3245 66.0532,-4478.4165
C66.5100,-4478.0167 66.7515,-4477.5870 66.7515,-4477.1242
C66.7500,-4476.6120 66.5813,-4476.0877 66.2985,-4475.5740
C67.5878,-4475.3557 67.3448,-4473.9142 68.6250,-4471.8750
Z" 
style="fill-rule: evenodd; fill: #010101; "/>
<path d=" 
M55.2428,-4471.9042
C55.2473,-4472.7202 55.2773,-4473.0232 55.3508,-4473.5887
C54.6893,-4474.1205 54.1395,-4474.7257 53.8050,-4475.3670
C53.8283,-4475.0415 53.8515,-4474.7265 53.8763,-4474.3905
C53.9048,-4473.9840 53.8650,-4473.5985 53.7833,-4473.2220
C54.2355,-4472.7480 54.7223,-4472.3055 55.2428,-4471.9042
Z" 
style="fill-rule: evenodd; fill: #010101; "/>
<path d=" 
M57.9128,-4481.9738
C57.8145,-4481.7735 57.6143,-4481.6325 57.3750,-4481.6325
C57.0443,-4481.6325 56.7728,-4481.9017 56.7728,-4482.2347
C56.7728,-4482.5040 56.9543,-4482.7237 57.1988,-4482.8017
C57.0420,-4482.8820 56.8725,-4482.9428 56.6790,-4482.9428
C55.1813,-4482.9428 55.3440,-4480.4648 56.1983,-4479.4980
C56.6880,-4479.7125 57.5048,-4479.9780 58.0470,-4480.1475
C58.1985,-4480.7145 58.1475,-4481.4158 57.9128,-4481.9738
Z" 
style="fill-rule: evenodd; fill: #010101; "/>
<path d=" 
M65.8778,-4482.0090
C65.7893,-4481.7877 65.5740,-4481.6325 65.3205,-4481.6325
C64.9898,-4481.6325 64.7183,-4481.9017 64.7183,-4482.2347
C64.7183,-4482.5212 64.9230,-4482.7500 65.1915,-4482.8107
C64.9905,-4482.9210 64.7610,-4482.9877 64.4970,-4482.9877
C62.9003,-4482.9877 62.3393,-4480.6703 63.2595,-4479.6390
C63.6540,-4479.4980 64.1003,-4479.3330 64.5203,-4479.1627
C65.9535,-4479.2460 66.3570,-4480.9035 65.8778,-4482.0090
Z" 
style="fill-rule: evenodd; fill: #010101; "/>
<text x="-7.3929" y="-4466.2500">
<tspan font-family="Arial Narrow" font-weight="bold" font-size="12.0000" fill="#000000" fill-opacity="1.0000" stroke-opacity="1.0000" >
Directory Input, Linux</tspan>
</text>
</svg>
