<?xml version="1.0" encoding="UTF-8" standalone="no"?>
<svg version="1.1" xmlns="http://www.w3.org/2000/svg" xmlns:xlink="http://www.w3.org/1999/xlink" width="1.0938in" height="0.8750in" viewBox="0 0 78.7500 63.0000" >
<g id="Layer1090" >
<path d=" 
M70.2733,-4521.3751
C70.2733,-4521.3759 70.2733,-4521.3766 70.2733,-4521.3774
L70.2733,-4524.5431
L70.2733,-4527.0001
L70.2733,-4528.1251
C70.2733,-4528.7461 69.7693,-4529.2501 69.1483,-4529.2501
L23.3990,-4529.2501
C21.9508,-4529.2501 20.7733,-4530.4276 20.7733,-4531.8751
L20.7733,-4533.3751
C20.7733,-4533.5784 20.6015,-4533.7501 20.3990,-4533.7501
L7.6490,-4533.7501
C7.4458,-4533.7501 7.2733,-4533.5784 7.2733,-4533.3751
L7.2733,-4529.2501
L3.1490,-4529.2501
C2.9458,-4529.2501 2.7733,-4529.0784 2.7733,-4528.8751
L2.7733,-4520.0431
C3.1273,-4520.1691 3.5023,-4520.2501 3.8983,-4520.2501
L7.2733,-4520.2501
L7.2733,-4518.0001
L3.8983,-4518.0001
C3.2773,-4518.0001 2.7733,-4517.4961 2.7733,-4516.8751
L2.7733,-4476.3751
C2.7733,-4475.7541 3.2773,-4475.2501 3.8983,-4475.2501
L64.6483,-4475.2501
C65.2693,-4475.2501 65.7733,-4475.7541 65.7733,-4476.3751
L65.7733,-4479.7501
L69.1483,-4479.7501
C69.7693,-4479.7501 70.2733,-4480.2541 70.2733,-4480.8751
L70.2733,-4520.2501
L70.2733,-4521.3751
Z
M61.2733,-4524.7501
L18.8990,-4524.7501
L61.2733,-4524.7501
Z
M70.2733,-4524.5431
Z" 
style="stroke-width: 0.7200; stroke-linecap: round; stroke-linejoin: round; fill-rule: evenodd; fill: #ffffff; "/>
<path d=" 
M70.2733,-4521.3751
C70.2733,-4521.3759 70.2733,-4521.3766 70.2733,-4521.3774
L70.2733,-4524.5431
L70.2733,-4527.0001
L70.2733,-4528.1251
C70.2733,-4528.7461 69.7693,-4529.2501 69.1483,-4529.2501
L23.3990,-4529.2501
C21.9508,-4529.2501 20.7733,-4530.4276 20.7733,-4531.8751
L20.7733,-4533.3751
C20.7733,-4533.5784 20.6015,-4533.7501 20.3990,-4533.7501
L7.6490,-4533.7501
C7.4458,-4533.7501 7.2733,-4533.5784 7.2733,-4533.3751
L7.2733,-4529.2501
L3.1490,-4529.2501
C2.9458,-4529.2501 2.7733,-4529.0784 2.7733,-4528.8751
L2.7733,-4520.0431
C3.1273,-4520.1691 3.5023,-4520.2501 3.8983,-4520.2501
L7.2733,-4520.2501
L7.2733,-4518.0001
L3.8983,-4518.0001
C3.2773,-4518.0001 2.7733,-4517.4961 2.7733,-4516.8751
L2.7733,-4476.3751
C2.7733,-4475.7541 3.2773,-4475.2501 3.8983,-4475.2501
L64.6483,-4475.2501
C65.2693,-4475.2501 65.7733,-4475.7541 65.7733,-4476.3751
L65.7733,-4479.7501
L69.1483,-4479.7501
C69.7693,-4479.7501 70.2733,-4480.2541 70.2733,-4480.8751
L70.2733,-4520.2501
L70.2733,-4521.3751
Z
M61.2733,-4524.7501
L18.8990,-4524.7501
L61.2733,-4524.7501
Z
M70.2733,-4524.5431
Z" 
style="stroke-width: 0.7200; stroke: #ffffff; stroke-dasharray: none; stroke-linecap: round; stroke-linejoin: round; fill: none; "/>
</g>
<path d=" 
M78.7500,-4509.0000
L36.0000,-4509.0000
L33.7500,-4511.2500
L78.7500,-4511.2500
L78.7500,-4509.0000
Z" 
style="fill-rule: evenodd; fill: #000000; "/>
<path d=" 
M78.7500,-4502.2500
L36.0000,-4502.2500
L33.7500,-4504.5000
L78.7500,-4504.5000
L78.7500,-4502.2500
Z" 
style="fill-rule: evenodd; fill: #000000; "/>
<path d=" 
M78.7500,-4495.5000
L36.0000,-4495.5000
L33.7500,-4497.7500
L78.7500,-4497.7500
L78.7500,-4495.5000
Z" 
style="fill-rule: evenodd; fill: #000000; "/>
<path d=" 
M69.7515,-4515.7500
L72.0000,-4515.7500
L72.0000,-4528.1362
C71.9940,-4529.9917 70.4843,-4531.5000 68.6265,-4531.5000
L25.5000,-4531.5000
L22.8750,-4531.5000
C22.6718,-4531.5000 22.5000,-4531.6718 22.5000,-4531.8750
L22.5000,-4533.3750
C22.5000,-4534.8218 21.3225,-4536.0000 19.8743,-4536.0000
C16.4610,-4536.0000 10.5382,-4536.0000 7.1243,-4536.0000
C5.6775,-4536.0000 4.4993,-4534.8225 4.4993,-4533.3750
L4.4993,-4531.5000
L2.6243,-4531.5000
C1.1775,-4531.5000 0.0000,-4530.3225 0.0000,-4528.8750
L0.0000,-4525.8750
L0.0000,-4521.0630
L0.0000,-4516.8750
L0.0000,-4504.5000
L0.0000,-4476.3750
C0.0000,-4474.5143 1.5143,-4473.0000 3.3750,-4473.0000
L64.1250,-4473.0000
C65.9865,-4473.0000 67.5000,-4474.5143 67.5000,-4476.3750
L67.5000,-4477.5000
L68.6265,-4477.5000
C70.4843,-4477.5000 71.9940,-4479.0082 72.0000,-4480.8638
L72.0000,-4491.0000
L69.7515,-4491.0000
L69.7515,-4480.8750
C69.7515,-4480.2540 69.2460,-4479.7500 68.6265,-4479.7500
L67.5000,-4479.7500
L67.5000,-4491.0000
L65.2500,-4491.0000
L65.2500,-4476.3750
C65.2500,-4475.7540 64.7460,-4475.2500 64.1250,-4475.2500
L3.3750,-4475.2500
C2.7540,-4475.2500 2.2500,-4475.7540 2.2500,-4476.3750
L2.2500,-4504.5000
L2.2500,-4516.8750
C2.2500,-4517.4960 2.7540,-4518.0000 3.3750,-4518.0000
L64.1250,-4518.0000
C64.7460,-4518.0000 65.2500,-4517.4960 65.2500,-4516.8750
L65.2500,-4515.7500
L67.5000,-4515.7500
L67.5000,-4516.8750
L67.5000,-4523.6250
C67.5000,-4525.4857 65.9865,-4527.0000 64.1250,-4527.0000
L21.0000,-4527.0000
L18.3750,-4527.0000
C18.1725,-4527.0000 18.0000,-4527.1718 18.0000,-4527.3750
L18.0000,-4528.8750
C18.0000,-4530.3225 16.8225,-4531.5000 15.3750,-4531.5000
L6.7508,-4531.5000
L6.7508,-4533.3750
C6.7508,-4533.5782 6.9225,-4533.7500 7.1258,-4533.7500
L19.8757,-4533.7500
C20.0790,-4533.7500 20.2515,-4533.5782 20.2515,-4533.3750
L20.2515,-4531.8750
C20.2515,-4530.4282 21.4290,-4529.2500 22.8765,-4529.2500
L25.5000,-4529.2500
L68.6258,-4529.2500
C69.2452,-4529.2500 69.7508,-4528.7460 69.7508,-4528.1250
L69.7508,-4524.7500
L69.7508,-4515.7500
L69.7515,-4515.7500
Z
M15.7500,-4528.8750
L15.7500,-4527.3750
C15.7500,-4525.9282 16.9275,-4524.7500 18.3758,-4524.7500
L21.0000,-4524.7500
L64.1250,-4524.7500
C64.7460,-4524.7500 65.2500,-4524.2460 65.2500,-4523.6250
L65.2500,-4520.0430
C64.8967,-4520.1690 64.5218,-4520.2500 64.1250,-4520.2500
L3.3750,-4520.2500
C2.9790,-4520.2500 2.6040,-4520.1690 2.2500,-4520.0430
L2.2500,-4521.0630
L2.2500,-4525.8750
L2.2500,-4528.8750
C2.2500,-4529.0782 2.4225,-4529.2500 2.6258,-4529.2500
L15.3757,-4529.2500
C15.5782,-4529.2500 15.7500,-4529.0782 15.7500,-4528.8750
Z" 
style="fill-rule: evenodd; fill: #000000; "/>
<text x="-7.3929" y="-4473.0000">
<tspan font-family="Arial Narrow" font-weight="bold" font-size="12.0000" fill="#000000" fill-opacity="1.0000" stroke-opacity="1.0000" >
Directory Inputs</tspan>
</text>
</svg>
