<?xml version="1.0" encoding="UTF-8" standalone="no"?>
<svg version="1.1" xmlns="http://www.w3.org/2000/svg" xmlns:xlink="http://www.w3.org/1999/xlink" width="1.0938in" height="1.0312in" viewBox="0 0 78.7500 74.2500" >
<g id="Layer1093" >
<path d=" 
M70.4629,-4521.3751
C70.4629,-4521.3759 70.4629,-4521.3766 70.4629,-4521.3774
Z
M70.4629,-4489.3019
L70.4629,-4521.3751
L70.4629,-4528.1251
C70.4629,-4528.7461 69.9589,-4529.2501 69.3379,-4529.2501
L23.5887,-4529.2501
C22.1404,-4529.2501 20.9629,-4530.4276 20.9629,-4531.8751
L20.9629,-4533.3751
C20.9629,-4533.5784 20.7912,-4533.7501 20.5887,-4533.7501
L7.8387,-4533.7501
C7.6354,-4533.7501 7.4629,-4533.5784 7.4629,-4533.3751
L7.4629,-4529.2501
L3.3387,-4529.2501
C3.1354,-4529.2501 2.9629,-4529.0784 2.9629,-4528.8751
L2.9629,-4520.0431
C3.3169,-4520.1691 3.6919,-4520.2501 4.0879,-4520.2501
L7.4629,-4520.2501
L7.4629,-4518.0001
L4.0879,-4518.0001
C3.4669,-4518.0001 2.9629,-4517.4961 2.9629,-4516.8751
L2.9629,-4476.3751
C2.9629,-4475.7541 3.4669,-4475.2501 4.0879,-4475.2501
L49.7503,-4475.2501
A13.7813,13.7813 0.0000 1,0 70.4629,-4489.3019
Z" 
style="stroke-width: 0.7200; stroke-linecap: round; stroke-linejoin: round; fill-rule: evenodd; fill: #ffffff; "/>
<path d=" 
M70.4629,-4521.3751
C70.4629,-4521.3759 70.4629,-4521.3766 70.4629,-4521.3774
M70.4629,-4489.3019
L70.4629,-4521.3751
L70.4629,-4528.1251
C70.4629,-4528.7461 69.9589,-4529.2501 69.3379,-4529.2501
L23.5887,-4529.2501
C22.1404,-4529.2501 20.9629,-4530.4276 20.9629,-4531.8751
L20.9629,-4533.3751
C20.9629,-4533.5784 20.7912,-4533.7501 20.5887,-4533.7501
L7.8387,-4533.7501
C7.6354,-4533.7501 7.4629,-4533.5784 7.4629,-4533.3751
L7.4629,-4529.2501
L3.3387,-4529.2501
C3.1354,-4529.2501 2.9629,-4529.0784 2.9629,-4528.8751
L2.9629,-4520.0431
C3.3169,-4520.1691 3.6919,-4520.2501 4.0879,-4520.2501
L7.4629,-4520.2501
L7.4629,-4518.0001
L4.0879,-4518.0001
C3.4669,-4518.0001 2.9629,-4517.4961 2.9629,-4516.8751
L2.9629,-4476.3751
C2.9629,-4475.7541 3.4669,-4475.2501 4.0879,-4475.2501
L49.7503,-4475.2501
A13.7813,13.7813 0.0000 1,0 70.4629,-4489.3019
Z" 
style="stroke-width: 0.7200; stroke: #ffffff; stroke-dasharray: none; stroke-linecap: round; stroke-linejoin: round; fill: none; "/>
</g>
<path d=" 
M78.7500,-4509.0000
L36.0000,-4509.0000
L33.7500,-4511.2500
L78.7500,-4511.2500
L78.7500,-4509.0000
Z" 
style="fill-rule: evenodd; fill: #000000; "/>
<path d=" 
M78.7500,-4502.2500
L36.0000,-4502.2500
L33.7500,-4504.5000
L78.7500,-4504.5000
L78.7500,-4502.2500
Z" 
style="fill-rule: evenodd; fill: #000000; "/>
<path d=" 
M78.7500,-4495.5000
L36.0000,-4495.5000
L33.7500,-4497.7500
L78.7500,-4497.7500
L78.7500,-4495.5000
Z" 
style="fill-rule: evenodd; fill: #000000; "/>
<path d=" 
M62.4727,-4479.3000
C61.8427,-4479.6675 60.6315,-4480.2802 59.5590,-4480.2802
C59.4705,-4480.2802 59.3827,-4480.2773 59.2950,-4480.2683
C58.3650,-4480.1760 57.2692,-4479.8715 56.5777,-4479.6547
L58.0552,-4484.7278
C58.4370,-4484.9048 59.5755,-4485.3750 60.9450,-4485.3750
C62.0685,-4485.3750 63.0892,-4485.0630 63.9802,-4484.4465
L62.4727,-4479.3000
Z" 
style="fill-rule: evenodd; fill: #000000; "/>
<path d=" 
M60.4455,-4472.2793
C59.8087,-4472.6340 58.5832,-4473.2310 57.5407,-4473.2310
C57.4672,-4473.2310 57.3975,-4473.2272 57.3285,-4473.2228
C56.1682,-4473.1260 55.2705,-4472.9738 54.5752,-4472.7525
L56.0257,-4477.7655
C56.4690,-4477.9500 57.7830,-4478.4525 58.9605,-4478.4525
C59.0482,-4478.4525 59.1360,-4478.4495 59.2245,-4478.4435
C60.4477,-4478.3558 61.4797,-4477.8030 61.9725,-4477.4910
L60.4455,-4472.2793
Z" 
style="fill-rule: evenodd; fill: #000000; "/>
<path d=" 
M64.6777,-4470.3810
C63.4395,-4470.4425 62.5770,-4471.0110 62.1120,-4471.3170
C62.0872,-4471.3328 62.0625,-4471.3500 62.0370,-4471.3650
L63.5310,-4476.5025
C64.1640,-4476.1448 65.3722,-4475.5387 66.3082,-4475.5387
C67.4422,-4475.5680 68.2238,-4475.6573 69.4065,-4476.0600
C69.1725,-4475.2883 68.7547,-4473.8363 67.9590,-4471.0740
C67.5120,-4470.8880 66.1687,-4470.3750 64.9012,-4470.3750
C64.8277,-4470.3750 64.7527,-4470.3765 64.6777,-4470.3810
Z" 
style="fill-rule: evenodd; fill: #000000; "/>
<path d=" 
M66.7350,-4477.2525
C65.4315,-4477.2525 64.4137,-4477.9515 64.0282,-4478.2605
L65.5395,-4483.3755
C66.0847,-4483.0328 66.9622,-4482.5887 68.1945,-4482.4500
C68.3310,-4482.4350 68.4750,-4482.4282 68.6205,-4482.4282
C69.5902,-4482.4282 70.7197,-4482.7463 71.4330,-4482.9878
L69.9780,-4477.9808
C69.9682,-4477.9748 69.9570,-4477.9703 69.9465,-4477.9650
C69.5250,-4477.7820 68.5447,-4477.3500 66.9585,-4477.2608
C66.8820,-4477.2555 66.8085,-4477.2525 66.7350,-4477.2525
Z" 
style="fill-rule: evenodd; fill: #000000; "/>
<path d=" 
M63.0000,-4493.2500
C54.3022,-4493.2500 47.2500,-4486.1985 47.2500,-4477.5000
C47.2500,-4476.5797 47.4375,-4475.1007 47.4157,-4475.2500
L3.3750,-4475.2500
C2.7540,-4475.2500 2.2500,-4475.7540 2.2500,-4476.3750
L2.2500,-4504.5000
L2.2500,-4516.8750
C2.2500,-4517.4960 2.7540,-4518.0000 3.3750,-4518.0000
L64.1250,-4518.0000
C64.7460,-4518.0000 65.2500,-4517.4960 65.2500,-4516.8750
L65.2500,-4515.7500
L67.5000,-4515.7500
L67.5000,-4516.8750
L67.5000,-4523.6250
C67.5000,-4525.4857 65.9865,-4527.0000 64.1250,-4527.0000
L21.0000,-4527.0000
L18.3750,-4527.0000
C18.1725,-4527.0000 18.0000,-4527.1718 18.0000,-4527.3750
L18.0000,-4528.8750
C18.0000,-4530.3225 16.8225,-4531.5000 15.3750,-4531.5000
L6.7508,-4531.5000
L6.7508,-4533.3750
C6.7508,-4533.5783 6.9225,-4533.7500 7.1257,-4533.7500
L19.8758,-4533.7500
C20.0790,-4533.7500 20.2515,-4533.5783 20.2515,-4533.3750
L20.2515,-4531.8750
C20.2515,-4530.4282 21.4290,-4529.2500 22.8765,-4529.2500
L25.5000,-4529.2500
L68.6258,-4529.2500
C69.2452,-4529.2500 69.7508,-4528.7460 69.7508,-4528.1250
L69.7508,-4524.7500
L69.7508,-4515.7500
L72.0000,-4515.7500
L72.0000,-4528.1363
C71.9940,-4529.9918 70.4843,-4531.5000 68.6265,-4531.5000
L25.5000,-4531.5000
L22.8750,-4531.5000
C22.6718,-4531.5000 22.5000,-4531.6718 22.5000,-4531.8750
L22.5000,-4533.3750
C22.5000,-4534.8217 21.3225,-4536.0000 19.8743,-4536.0000
C16.4610,-4536.0000 10.5383,-4536.0000 7.1243,-4536.0000
C5.6775,-4536.0000 4.4992,-4534.8225 4.4992,-4533.3750
L4.4992,-4531.5000
L2.6243,-4531.5000
C1.1775,-4531.5000 0.0000,-4530.3225 0.0000,-4528.8750
L0.0000,-4525.8750
L0.0000,-4521.0630
L0.0000,-4516.8750
L0.0000,-4504.5000
L0.0000,-4476.3750
C0.0000,-4474.5143 1.5142,-4473.0000 3.3750,-4473.0000
L47.9115,-4473.0000
C49.8488,-4466.4960 55.8675,-4461.7500 63.0000,-4461.7500
C71.7000,-4461.7500 78.7500,-4468.8015 78.7500,-4477.5000
C78.7500,-4486.1985 71.7000,-4493.2500 63.0000,-4493.2500
Z
M2.2500,-4521.0630
L2.2500,-4525.8750
L2.2500,-4528.8750
C2.2500,-4529.0783 2.4225,-4529.2500 2.6257,-4529.2500
L15.3758,-4529.2500
C15.5783,-4529.2500 15.7500,-4529.0783 15.7500,-4528.8750
L15.7500,-4527.3750
C15.7500,-4525.9282 16.9275,-4524.7500 18.3758,-4524.7500
L21.0000,-4524.7500
L64.1250,-4524.7500
C64.7460,-4524.7500 65.2500,-4524.2460 65.2500,-4523.6250
L65.2500,-4520.0430
C64.8967,-4520.1690 64.5218,-4520.2500 64.1250,-4520.2500
L3.3750,-4520.2500
C2.9790,-4520.2500 2.6040,-4520.1690 2.2500,-4520.0430
L2.2500,-4521.0630
Z
M63.0000,-4464.0000
C55.5570,-4464.0000 49.5000,-4470.0555 49.5000,-4477.5000
C49.5000,-4484.9445 55.5570,-4491.0000 63.0000,-4491.0000
C70.4445,-4491.0000 76.5000,-4484.9445 76.5000,-4477.5000
C76.5000,-4470.0555 70.4445,-4464.0000 63.0000,-4464.0000
Z" 
style="fill-rule: evenodd; fill: #000000; "/>
<text x="-14.5304" y="-4461.7500">
<tspan font-family="Arial Narrow" font-weight="bold" font-size="12.0000" fill="#000000" fill-opacity="1.0000" stroke-opacity="1.0000" >
Directory Inputs, Windows</tspan>
</text>
</svg>
