<?xml version="1.0" encoding="UTF-8" standalone="no"?>
<svg version="1.1" xmlns="http://www.w3.org/2000/svg" xmlns:xlink="http://www.w3.org/1999/xlink" width="1.0938in" height="1.0312in" viewBox="0 0 78.7500 74.2500" >
<g id="Layer1091" >
<path d=" 
M70.1163,-4521.3751
C70.1163,-4521.3759 70.1163,-4521.3766 70.1163,-4521.3774
Z
M70.1163,-4489.3019
L70.1163,-4521.3751
L70.1163,-4528.1251
C70.1163,-4528.7461 69.6123,-4529.2501 68.9913,-4529.2501
L23.2420,-4529.2501
C21.7938,-4529.2501 20.6163,-4530.4276 20.6163,-4531.8751
L20.6163,-4533.3751
C20.6163,-4533.5784 20.4445,-4533.7501 20.2420,-4533.7501
L7.4920,-4533.7501
C7.2888,-4533.7501 7.1163,-4533.5784 7.1163,-4533.3751
L7.1163,-4529.2501
L2.9920,-4529.2501
C2.7888,-4529.2501 2.6163,-4529.0784 2.6163,-4528.8751
L2.6163,-4520.0431
C2.9703,-4520.1691 3.3453,-4520.2501 3.7413,-4520.2501
L7.1163,-4520.2501
L7.1163,-4518.0001
L3.7413,-4518.0001
C3.1203,-4518.0001 2.6163,-4517.4961 2.6163,-4516.8751
L2.6163,-4476.3751
C2.6163,-4475.7541 3.1203,-4475.2501 3.7413,-4475.2501
L49.4037,-4475.2501
A13.7812,13.7812 0.0000 1,0 70.1163,-4489.3019
Z" 
style="stroke-width: 0.7200; stroke-linecap: round; stroke-linejoin: round; fill-rule: evenodd; fill: #ffffff; "/>
<path d=" 
M70.1163,-4521.3751
C70.1163,-4521.3759 70.1163,-4521.3766 70.1163,-4521.3774
M70.1163,-4489.3019
L70.1163,-4521.3751
L70.1163,-4528.1251
C70.1163,-4528.7461 69.6123,-4529.2501 68.9913,-4529.2501
L23.2420,-4529.2501
C21.7938,-4529.2501 20.6163,-4530.4276 20.6163,-4531.8751
L20.6163,-4533.3751
C20.6163,-4533.5784 20.4445,-4533.7501 20.2420,-4533.7501
L7.4920,-4533.7501
C7.2888,-4533.7501 7.1163,-4533.5784 7.1163,-4533.3751
L7.1163,-4529.2501
L2.9920,-4529.2501
C2.7888,-4529.2501 2.6163,-4529.0784 2.6163,-4528.8751
L2.6163,-4520.0431
C2.9703,-4520.1691 3.3453,-4520.2501 3.7413,-4520.2501
L7.1163,-4520.2501
L7.1163,-4518.0001
L3.7413,-4518.0001
C3.1203,-4518.0001 2.6163,-4517.4961 2.6163,-4516.8751
L2.6163,-4476.3751
C2.6163,-4475.7541 3.1203,-4475.2501 3.7413,-4475.2501
L49.4037,-4475.2501
A13.7812,13.7812 0.0000 1,0 70.1163,-4489.3019
Z" 
style="stroke-width: 0.7200; stroke: #ffffff; stroke-dasharray: none; stroke-linecap: round; stroke-linejoin: round; fill: none; "/>
</g>
<path d=" 
M78.7500,-4509.0000
L36.0000,-4509.0000
L33.7500,-4511.2500
L78.7500,-4511.2500
L78.7500,-4509.0000
Z" 
style="fill-rule: evenodd; fill: #000000; "/>
<path d=" 
M78.7500,-4502.2500
L36.0000,-4502.2500
L33.7500,-4504.5000
L78.7500,-4504.5000
L78.7500,-4502.2500
Z" 
style="fill-rule: evenodd; fill: #000000; "/>
<path d=" 
M78.7500,-4495.5000
L36.0000,-4495.5000
L33.7500,-4497.7500
L78.7500,-4497.7500
L78.7500,-4495.5000
Z" 
style="fill-rule: evenodd; fill: #000000; "/>
<path d=" 
M66.0008,-4472.6250
C66.0008,-4473.2333 64.9838,-4473.9270 63.2760,-4474.4813
C61.7333,-4474.9838 60.0218,-4475.2500 59.3805,-4475.2500
C58.7963,-4475.2500 55.8428,-4474.4520 54.6548,-4473.1253
C54.1800,-4472.5943 54.0923,-4472.0168 54.3870,-4471.3583
C54.5595,-4470.9720 54.8520,-4470.5932 55.2105,-4470.2333
C55.3058,-4470.3503 55.4670,-4470.4050 55.6170,-4470.3570
C55.6268,-4470.3533 56.6370,-4470.0338 58.5083,-4470.0000
C60.3780,-4469.9633 62.4623,-4470.5183 63.9263,-4471.4423
C64.1018,-4471.5518 64.3335,-4471.5000 64.4430,-4471.3260
C64.5540,-4471.1505 64.5015,-4470.9187 64.3268,-4470.8093
C62.7923,-4469.8395 60.6398,-4469.2492 58.6703,-4469.2492
C58.6103,-4469.2492 58.5525,-4469.2500 58.4948,-4469.2508
C57.4155,-4469.2710 56.6183,-4469.3798 56.0963,-4469.4780
C57.4598,-4468.4708 59.1990,-4467.7500 60.0015,-4467.7500
C62.1720,-4467.7500 66.0000,-4470.5685 66.0008,-4472.6250
Z" 
style="fill-rule: evenodd; fill: #010101; "/>
<path d=" 
M68.6250,-4467.3750
C68.8680,-4466.9947 68.9805,-4466.6422 69.0787,-4466.2958
C70.6815,-4467.1673 72.0727,-4468.3793 73.1677,-4469.8260
C72.7537,-4470.8003 72.3997,-4471.8638 72.1215,-4473.0923
C71.0280,-4477.9073 72.3937,-4476.5168 71.4270,-4480.7213
C70.9567,-4482.8153 70.1212,-4484.4765 69.1905,-4485.5708
C68.2628,-4486.6890 66.9870,-4487.2958 66.3743,-4487.6250
C64.9508,-4488.3900 61.3763,-4489.7490 57.0660,-4487.5140
C53.0250,-4485.4073 53.0693,-4481.1068 53.6520,-4472.9415
C53.7578,-4473.1785 53.9018,-4473.4088 54.0953,-4473.6255
C54.4560,-4474.0283 54.9503,-4474.3845 55.4918,-4474.6920
C54.3053,-4476.8257 54.3008,-4481.1930 57.0000,-4480.5000
C58.7010,-4480.0643 59.2815,-4477.7828 58.9050,-4475.9430
C59.1053,-4475.9798 59.2688,-4476.0000 59.3805,-4476.0000
C59.8838,-4476.0000 60.7943,-4475.8755 61.7828,-4475.6573
C61.2698,-4477.2360 61.5803,-4479.2595 62.7360,-4480.2278
C66.1110,-4483.0553 69.5512,-4475.8245 66.0532,-4473.9165
C66.5100,-4473.5168 66.7515,-4473.0870 66.7515,-4472.6242
C66.7500,-4472.1120 66.5813,-4471.5878 66.2985,-4471.0740
C67.5878,-4470.8557 67.3448,-4469.4142 68.6250,-4467.3750
Z" 
style="fill-rule: evenodd; fill: #010101; "/>
<path d=" 
M55.2428,-4467.4043
C55.2473,-4468.2203 55.2773,-4468.5233 55.3508,-4469.0887
C54.6893,-4469.6205 54.1395,-4470.2258 53.8050,-4470.8670
C53.8283,-4470.5415 53.8515,-4470.2265 53.8763,-4469.8905
C53.9048,-4469.4840 53.8650,-4469.0985 53.7833,-4468.7220
C54.2355,-4468.2480 54.7223,-4467.8055 55.2428,-4467.4043
Z" 
style="fill-rule: evenodd; fill: #010101; "/>
<path d=" 
M57.9128,-4477.4738
C57.8145,-4477.2735 57.6143,-4477.1325 57.3750,-4477.1325
C57.0443,-4477.1325 56.7728,-4477.4018 56.7728,-4477.7348
C56.7728,-4478.0040 56.9543,-4478.2238 57.1988,-4478.3018
C57.0420,-4478.3820 56.8725,-4478.4428 56.6790,-4478.4428
C55.1812,-4478.4428 55.3440,-4475.9648 56.1982,-4474.9980
C56.6880,-4475.2125 57.5048,-4475.4780 58.0470,-4475.6475
C58.1985,-4476.2145 58.1475,-4476.9158 57.9128,-4477.4738
Z" 
style="fill-rule: evenodd; fill: #010101; "/>
<path d=" 
M65.8778,-4477.5090
C65.7893,-4477.2878 65.5740,-4477.1325 65.3205,-4477.1325
C64.9898,-4477.1325 64.7183,-4477.4018 64.7183,-4477.7348
C64.7183,-4478.0213 64.9230,-4478.2500 65.1915,-4478.3108
C64.9905,-4478.4210 64.7610,-4478.4878 64.4970,-4478.4878
C62.9003,-4478.4878 62.3393,-4476.1703 63.2595,-4475.1390
C63.6540,-4474.9980 64.1003,-4474.8330 64.5203,-4474.6628
C65.9535,-4474.7460 66.3570,-4476.4035 65.8778,-4477.5090
Z" 
style="fill-rule: evenodd; fill: #010101; "/>
<path d=" 
M63.0000,-4493.2500
C54.3022,-4493.2500 47.2500,-4486.1985 47.2500,-4477.5000
C47.2500,-4476.5797 47.4375,-4475.1007 47.4157,-4475.2500
L3.3750,-4475.2500
C2.7540,-4475.2500 2.2500,-4475.7540 2.2500,-4476.3750
L2.2500,-4504.5000
L2.2500,-4516.8750
C2.2500,-4517.4960 2.7540,-4518.0000 3.3750,-4518.0000
L64.1250,-4518.0000
C64.7460,-4518.0000 65.2500,-4517.4960 65.2500,-4516.8750
L65.2500,-4515.7500
L67.5000,-4515.7500
L67.5000,-4516.8750
L67.5000,-4523.6250
C67.5000,-4525.4857 65.9865,-4527.0000 64.1250,-4527.0000
L21.0000,-4527.0000
L18.3750,-4527.0000
C18.1725,-4527.0000 18.0000,-4527.1718 18.0000,-4527.3750
L18.0000,-4528.8750
C18.0000,-4530.3225 16.8225,-4531.5000 15.3750,-4531.5000
L6.7508,-4531.5000
L6.7508,-4533.3750
C6.7508,-4533.5783 6.9225,-4533.7500 7.1257,-4533.7500
L19.8758,-4533.7500
C20.0790,-4533.7500 20.2515,-4533.5783 20.2515,-4533.3750
L20.2515,-4531.8750
C20.2515,-4530.4282 21.4290,-4529.2500 22.8765,-4529.2500
L25.5000,-4529.2500
L68.6258,-4529.2500
C69.2452,-4529.2500 69.7508,-4528.7460 69.7508,-4528.1250
L69.7508,-4524.7500
L69.7508,-4515.7500
L72.0000,-4515.7500
L72.0000,-4528.1363
C71.9940,-4529.9918 70.4843,-4531.5000 68.6265,-4531.5000
L25.5000,-4531.5000
L22.8750,-4531.5000
C22.6718,-4531.5000 22.5000,-4531.6718 22.5000,-4531.8750
L22.5000,-4533.3750
C22.5000,-4534.8217 21.3225,-4536.0000 19.8743,-4536.0000
C16.4610,-4536.0000 10.5383,-4536.0000 7.1243,-4536.0000
C5.6775,-4536.0000 4.4992,-4534.8225 4.4992,-4533.3750
L4.4992,-4531.5000
L2.6243,-4531.5000
C1.1775,-4531.5000 0.0000,-4530.3225 0.0000,-4528.8750
L0.0000,-4525.8750
L0.0000,-4521.0630
L0.0000,-4516.8750
L0.0000,-4504.5000
L0.0000,-4476.3750
C0.0000,-4474.5143 1.5142,-4473.0000 3.3750,-4473.0000
L47.9115,-4473.0000
C49.8488,-4466.4960 55.8675,-4461.7500 63.0000,-4461.7500
C71.7000,-4461.7500 78.7500,-4468.8015 78.7500,-4477.5000
C78.7500,-4486.1985 71.7000,-4493.2500 63.0000,-4493.2500
Z
M2.2500,-4521.0630
L2.2500,-4525.8750
L2.2500,-4528.8750
C2.2500,-4529.0783 2.4225,-4529.2500 2.6257,-4529.2500
L15.3758,-4529.2500
C15.5783,-4529.2500 15.7500,-4529.0783 15.7500,-4528.8750
L15.7500,-4527.3750
C15.7500,-4525.9282 16.9275,-4524.7500 18.3758,-4524.7500
L21.0000,-4524.7500
L64.1250,-4524.7500
C64.7460,-4524.7500 65.2500,-4524.2460 65.2500,-4523.6250
L65.2500,-4520.0430
C64.8967,-4520.1690 64.5218,-4520.2500 64.1250,-4520.2500
L3.3750,-4520.2500
C2.9790,-4520.2500 2.6040,-4520.1690 2.2500,-4520.0430
L2.2500,-4521.0630
Z
M63.0000,-4464.0000
C55.5570,-4464.0000 49.5000,-4470.0555 49.5000,-4477.5000
C49.5000,-4484.9445 55.5570,-4491.0000 63.0000,-4491.0000
C70.4445,-4491.0000 76.5000,-4484.9445 76.5000,-4477.5000
C76.5000,-4470.0555 70.4445,-4464.0000 63.0000,-4464.0000
Z" 
style="fill-rule: evenodd; fill: #000000; "/>
<text x="-10.1723" y="-4461.7500">
<tspan font-family="Arial Narrow" font-weight="bold" font-size="12.0000" fill="#000000" fill-opacity="1.0000" stroke-opacity="1.0000" >
Directory Inputs, Linux</tspan>
</text>
</svg>
