<?xml version="1.0" encoding="UTF-8" standalone="no"?>
<svg version="1.1" xmlns="http://www.w3.org/2000/svg" xmlns:xlink="http://www.w3.org/1999/xlink" width="1.0938in" height="1.0312in" viewBox="0 0 78.7500 74.2500" >
<g id="Layer1092" >
<path d=" 
M70.1490,-4521.4470
C70.1490,-4521.4478 70.1490,-4521.4486 70.1490,-4521.4494
Z
M70.1490,-4489.3738
L70.1490,-4521.4470
L70.1490,-4528.1970
C70.1490,-4528.8180 69.6450,-4529.3220 69.0240,-4529.3220
L23.2747,-4529.3220
C21.8265,-4529.3220 20.6490,-4530.4995 20.6490,-4531.9470
L20.6490,-4533.4470
C20.6490,-4533.6503 20.4772,-4533.8220 20.2747,-4533.8220
L7.5247,-4533.8220
C7.3215,-4533.8220 7.1490,-4533.6503 7.1490,-4533.4470
L7.1490,-4529.3220
L3.0247,-4529.3220
C2.8215,-4529.3220 2.6490,-4529.1503 2.6490,-4528.9470
L2.6490,-4520.1150
C3.0030,-4520.2410 3.3780,-4520.3220 3.7740,-4520.3220
L7.1490,-4520.3220
L7.1490,-4518.0720
L3.7740,-4518.0720
C3.1530,-4518.0720 2.6490,-4517.5680 2.6490,-4516.9470
L2.6490,-4476.4470
C2.6490,-4475.8260 3.1530,-4475.3220 3.7740,-4475.3220
L49.4364,-4475.3220
A13.7812,13.7812 0.0000 1,0 70.1490,-4489.3738
Z" 
style="stroke-width: 0.7200; stroke-linecap: round; stroke-linejoin: round; fill-rule: evenodd; fill: #ffffff; "/>
<path d=" 
M70.1490,-4521.4470
C70.1490,-4521.4478 70.1490,-4521.4486 70.1490,-4521.4494
M70.1490,-4489.3738
L70.1490,-4521.4470
L70.1490,-4528.1970
C70.1490,-4528.8180 69.6450,-4529.3220 69.0240,-4529.3220
L23.2747,-4529.3220
C21.8265,-4529.3220 20.6490,-4530.4995 20.6490,-4531.9470
L20.6490,-4533.4470
C20.6490,-4533.6503 20.4772,-4533.8220 20.2747,-4533.8220
L7.5247,-4533.8220
C7.3215,-4533.8220 7.1490,-4533.6503 7.1490,-4533.4470
L7.1490,-4529.3220
L3.0247,-4529.3220
C2.8215,-4529.3220 2.6490,-4529.1503 2.6490,-4528.9470
L2.6490,-4520.1150
C3.0030,-4520.2410 3.3780,-4520.3220 3.7740,-4520.3220
L7.1490,-4520.3220
L7.1490,-4518.0720
L3.7740,-4518.0720
C3.1530,-4518.0720 2.6490,-4517.5680 2.6490,-4516.9470
L2.6490,-4476.4470
C2.6490,-4475.8260 3.1530,-4475.3220 3.7740,-4475.3220
L49.4364,-4475.3220
A13.7812,13.7812 0.0000 1,0 70.1490,-4489.3738
Z" 
style="stroke-width: 0.7200; stroke: #ffffff; stroke-dasharray: none; stroke-linecap: round; stroke-linejoin: round; fill: none; "/>
</g>
<path d=" 
M78.7500,-4509.0000
L36.0000,-4509.0000
L33.7500,-4511.2500
L78.7500,-4511.2500
L78.7500,-4509.0000
Z" 
style="fill-rule: evenodd; fill: #000000; "/>
<path d=" 
M78.7500,-4502.2500
L36.0000,-4502.2500
L33.7500,-4504.5000
L78.7500,-4504.5000
L78.7500,-4502.2500
Z" 
style="fill-rule: evenodd; fill: #000000; "/>
<path d=" 
M78.7500,-4495.5000
L36.0000,-4495.5000
L33.7500,-4497.7500
L78.7500,-4497.7500
L78.7500,-4495.5000
Z" 
style="fill-rule: evenodd; fill: #000000; "/>
<path d=" 
M69.6090,-4481.7128
C68.9288,-4482.5610 68.0130,-4483.4092 66.6038,-4483.4092
C65.6190,-4483.4092 64.7970,-4482.4440 63.4343,-4482.4440
C62.3543,-4482.4440 61.9095,-4483.3628 60.7350,-4483.3628
C58.2930,-4483.3628 55.8758,-4481.1713 55.8758,-4478.3190
C55.8758,-4476.8115 56.3685,-4474.4783 57.4718,-4472.4510
C58.2705,-4470.9668 59.2560,-4470.0000 60.3593,-4470.0000
C61.1580,-4470.0000 62.0978,-4470.7313 63.2235,-4470.7313
C64.2083,-4470.7313 65.1255,-4470.0712 66.0180,-4470.0712
C68.1548,-4470.0712 70.1273,-4472.8522 70.1273,-4474.7137
C70.1273,-4474.8075 70.1025,-4474.8780 70.1025,-4474.9478
L70.1025,-4475.0663
C68.7173,-4475.8207 67.9665,-4476.9277 67.9665,-4478.5305
C67.9665,-4479.8273 68.5290,-4480.9575 69.5633,-4481.6888
L69.6090,-4481.7128
Z" 
style="fill-rule: evenodd; fill: #000000; "/>
<path d=" 
M63.3870,-4482.7485
C64.9823,-4483.2435 66.4620,-4484.4457 66.4620,-4486.5427
C66.4620,-4486.7085 66.4388,-4486.9207 66.4155,-4487.1562
L66.3915,-4487.2500
C64.7708,-4486.8015 63.3150,-4485.5302 63.3150,-4483.5262
C63.3150,-4483.3373 63.3375,-4483.1017 63.3863,-4482.8423
L63.3863,-4482.7485
L63.3870,-4482.7485
Z" 
style="fill-rule: evenodd; fill: #000000; "/>
<path d=" 
M63.0000,-4493.2500
C54.3022,-4493.2500 47.2500,-4486.1985 47.2500,-4477.5000
C47.2500,-4476.5797 47.4375,-4475.1007 47.4157,-4475.2500
L3.3750,-4475.2500
C2.7540,-4475.2500 2.2500,-4475.7540 2.2500,-4476.3750
L2.2500,-4504.5000
L2.2500,-4516.8750
C2.2500,-4517.4960 2.7540,-4518.0000 3.3750,-4518.0000
L64.1250,-4518.0000
C64.7460,-4518.0000 65.2500,-4517.4960 65.2500,-4516.8750
L65.2500,-4515.7500
L67.5000,-4515.7500
L67.5000,-4516.8750
L67.5000,-4523.6250
C67.5000,-4525.4857 65.9865,-4527.0000 64.1250,-4527.0000
L21.0000,-4527.0000
L18.3750,-4527.0000
C18.1725,-4527.0000 18.0000,-4527.1718 18.0000,-4527.3750
L18.0000,-4528.8750
C18.0000,-4530.3225 16.8225,-4531.5000 15.3750,-4531.5000
L6.7508,-4531.5000
L6.7508,-4533.3750
C6.7508,-4533.5783 6.9225,-4533.7500 7.1257,-4533.7500
L19.8758,-4533.7500
C20.0790,-4533.7500 20.2515,-4533.5783 20.2515,-4533.3750
L20.2515,-4531.8750
C20.2515,-4530.4282 21.4290,-4529.2500 22.8765,-4529.2500
L25.5000,-4529.2500
L68.6258,-4529.2500
C69.2452,-4529.2500 69.7508,-4528.7460 69.7508,-4528.1250
L69.7508,-4524.7500
L69.7508,-4515.7500
L72.0000,-4515.7500
L72.0000,-4528.1363
C71.9940,-4529.9918 70.4843,-4531.5000 68.6265,-4531.5000
L25.5000,-4531.5000
L22.8750,-4531.5000
C22.6718,-4531.5000 22.5000,-4531.6718 22.5000,-4531.8750
L22.5000,-4533.3750
C22.5000,-4534.8217 21.3225,-4536.0000 19.8743,-4536.0000
C16.4610,-4536.0000 10.5383,-4536.0000 7.1243,-4536.0000
C5.6775,-4536.0000 4.4992,-4534.8225 4.4992,-4533.3750
L4.4992,-4531.5000
L2.6243,-4531.5000
C1.1775,-4531.5000 0.0000,-4530.3225 0.0000,-4528.8750
L0.0000,-4525.8750
L0.0000,-4521.0630
L0.0000,-4516.8750
L0.0000,-4504.5000
L0.0000,-4476.3750
C0.0000,-4474.5143 1.5142,-4473.0000 3.3750,-4473.0000
L47.9115,-4473.0000
C49.8488,-4466.4960 55.8675,-4461.7500 63.0000,-4461.7500
C71.7000,-4461.7500 78.7500,-4468.8015 78.7500,-4477.5000
C78.7500,-4486.1985 71.7000,-4493.2500 63.0000,-4493.2500
Z
M2.2500,-4521.0630
L2.2500,-4525.8750
L2.2500,-4528.8750
C2.2500,-4529.0783 2.4225,-4529.2500 2.6257,-4529.2500
L15.3758,-4529.2500
C15.5783,-4529.2500 15.7500,-4529.0783 15.7500,-4528.8750
L15.7500,-4527.3750
C15.7500,-4525.9282 16.9275,-4524.7500 18.3758,-4524.7500
L21.0000,-4524.7500
L64.1250,-4524.7500
C64.7460,-4524.7500 65.2500,-4524.2460 65.2500,-4523.6250
L65.2500,-4520.0430
C64.8967,-4520.1690 64.5218,-4520.2500 64.1250,-4520.2500
L3.3750,-4520.2500
C2.9790,-4520.2500 2.6040,-4520.1690 2.2500,-4520.0430
L2.2500,-4521.0630
Z
M63.0000,-4464.0000
C55.5570,-4464.0000 49.5000,-4470.0555 49.5000,-4477.5000
C49.5000,-4484.9445 55.5570,-4491.0000 63.0000,-4491.0000
C70.4445,-4491.0000 76.5000,-4484.9445 76.5000,-4477.5000
C76.5000,-4470.0555 70.4445,-4464.0000 63.0000,-4464.0000
Z" 
style="fill-rule: evenodd; fill: #000000; "/>
<text x="-7.8514" y="-4461.7500">
<tspan font-family="Arial Narrow" font-weight="bold" font-size="12.0000" fill="#000000" fill-opacity="1.0000" stroke-opacity="1.0000" >
Directory Inputs, Mac</tspan>
</text>
</svg>
