<?xml version="1.0" encoding="UTF-8" standalone="no"?>
<svg version="1.1" xmlns="http://www.w3.org/2000/svg" xmlns:xlink="http://www.w3.org/1999/xlink" width="0.9688in" height="1.0938in" viewBox="0 0 69.7500 78.7500" >
<g id="Layer1081" >
<path d=" 
M32.7965,-4504.8517
L53.0465,-4504.8517
L53.0465,-4509.3517
L27.1715,-4509.3517
L24.9215,-4511.6017
L53.0465,-4511.6017
L53.0465,-4516.1017
L51.9215,-4516.1017
L51.9215,-4518.3517
L38.0465,-4518.3517
C37.0130,-4518.3517 36.1715,-4519.1932 36.1715,-4520.2267
L36.1715,-4534.1017
L2.4215,-4534.1017
L2.4215,-4471.1017
L35.5698,-4471.1017
A14.2820,14.2031 0.0000 1,0 51.9215,-4487.3774
L51.9215,-4491.3517
L53.0465,-4491.3517
L53.0465,-4495.8517
L27.1715,-4495.8517
L24.9215,-4498.1017
L53.0465,-4498.1017
L53.0465,-4502.6017
L27.1715,-4502.6017
L24.9215,-4504.8517
L32.7965,-4504.8517
Z
M38.4215,-4520.6017
L50.9900,-4520.6017
L38.4215,-4533.1702
L38.4215,-4520.6017
Z" 
style="stroke-width: 0.7200; stroke-linecap: round; stroke-linejoin: round; fill-rule: evenodd; fill: #ffffff; "/>
<path d=" 
M32.7965,-4504.8517
L53.0465,-4504.8517
L53.0465,-4509.3517
L27.1715,-4509.3517
L24.9215,-4511.6017
L53.0465,-4511.6017
L53.0465,-4516.1017
L51.9215,-4516.1017
L51.9215,-4518.3517
L38.0465,-4518.3517
C37.0130,-4518.3517 36.1715,-4519.1932 36.1715,-4520.2267
L36.1715,-4534.1017
L2.4215,-4534.1017
L2.4215,-4471.1017
L35.5698,-4471.1017
A14.2820,14.2031 0.0000 1,0 51.9215,-4487.3774
L51.9215,-4491.3517
L53.0465,-4491.3517
L53.0465,-4495.8517
L27.1715,-4495.8517
L24.9215,-4498.1017
L53.0465,-4498.1017
L53.0465,-4502.6017
L27.1715,-4502.6017
L24.9215,-4504.8517
L32.7965,-4504.8517
Z
M38.4215,-4520.6017
L50.9900,-4520.6017
L38.4215,-4533.1702
L38.4215,-4520.6017
Z" 
style="stroke-width: 0.7200; stroke: #ffffff; stroke-dasharray: none; stroke-linecap: round; stroke-linejoin: round; fill: none; "/>
</g>
<path d=" 
M69.7500,-4509.0000
L27.0000,-4509.0000
L24.7500,-4511.2500
L69.7500,-4511.2500
L69.7500,-4509.0000
Z" 
style="fill-rule: evenodd; fill: #000000; "/>
<path d=" 
M69.7500,-4502.2500
L27.0000,-4502.2500
L24.7500,-4504.5000
L69.7500,-4504.5000
L69.7500,-4502.2500
Z" 
style="fill-rule: evenodd; fill: #000000; "/>
<path d=" 
M69.7500,-4495.5000
L27.0000,-4495.5000
L24.7500,-4497.7500
L69.7500,-4497.7500
L69.7500,-4495.5000
Z" 
style="fill-rule: evenodd; fill: #000000; "/>
<path d=" 
M54.0000,-4488.0892
L54.0000,-4491.0000
L51.7500,-4491.0000
L51.7500,-4488.5842
C51.9000,-4488.5625 50.4217,-4488.7500 49.5000,-4488.7500
C40.8015,-4488.7500 33.7500,-4481.6985 33.7500,-4473.0000
C33.7500,-4472.0782 33.9375,-4470.6000 33.9157,-4470.7500
L2.2500,-4470.7500
L2.2500,-4533.7500
L36.0000,-4533.7500
L36.0000,-4519.8750
C36.0000,-4518.8415 36.8415,-4518.0000 37.8750,-4518.0000
L51.7500,-4518.0000
L51.7500,-4515.7500
L54.0000,-4515.7500
L54.0000,-4518.0000
C54.0000,-4519.2368 53.2837,-4520.9663 52.4092,-4521.8408
L39.8407,-4534.4093
C38.9663,-4535.2837 37.2367,-4536.0000 36.0000,-4536.0000
L2.2500,-4536.0000
C1.0133,-4536.0000 0.0000,-4534.9867 0.0000,-4533.7500
L0.0000,-4470.7500
C0.0000,-4469.5132 1.0133,-4468.5000 2.2500,-4468.5000
L34.4107,-4468.5000
C36.3480,-4461.9960 42.3667,-4457.2500 49.5000,-4457.2500
C58.1985,-4457.2500 65.2500,-4464.3015 65.2500,-4473.0000
C65.2500,-4480.1332 60.5040,-4486.1512 54.0000,-4488.0892
Z
M38.2500,-4532.8185
L50.8185,-4520.2500
L38.2500,-4520.2500
L38.2500,-4532.8185
Z
M34.1197,-4469.6317
C34.1880,-4469.3190 34.2712,-4469.0122 34.3575,-4468.7070
C34.2712,-4469.0115 34.1887,-4469.3190 34.1197,-4469.6317
Z
M49.5000,-4459.5000
C42.0555,-4459.5000 36.0000,-4465.5555 36.0000,-4473.0000
C36.0000,-4480.4445 42.0555,-4486.5000 49.5000,-4486.5000
C56.9445,-4486.5000 63.0000,-4480.4445 63.0000,-4473.0000
C63.0000,-4465.5555 56.9445,-4459.5000 49.5000,-4459.5000
Z" 
style="fill-rule: evenodd; fill: #000000; "/>
<path d=" 
M48.9712,-4474.8000
C48.3412,-4475.1675 47.1315,-4475.7802 46.0590,-4475.7802
C45.9697,-4475.7802 45.8820,-4475.7773 45.7950,-4475.7683
C44.8650,-4475.6760 43.7692,-4475.3715 43.0762,-4475.1547
L44.5545,-4480.2278
C44.9355,-4480.4047 46.0747,-4480.8750 47.4450,-4480.8750
C48.5685,-4480.8750 49.5892,-4480.5630 50.4802,-4479.9465
L48.9712,-4474.8000
Z" 
style="fill-rule: evenodd; fill: #000000; "/>
<path d=" 
M46.9440,-4467.7792
C46.3080,-4468.1340 45.0825,-4468.7310 44.0392,-4468.7310
C43.9672,-4468.7310 43.8975,-4468.7272 43.8285,-4468.7227
C42.6682,-4468.6260 41.7690,-4468.4738 41.0745,-4468.2525
L42.5250,-4473.2655
C42.9675,-4473.4500 44.2822,-4473.9525 45.4590,-4473.9525
C45.5475,-4473.9525 45.6345,-4473.9495 45.7230,-4473.9435
C46.9477,-4473.8557 47.9790,-4473.3030 48.4710,-4472.9910
L46.9440,-4467.7792
Z" 
style="fill-rule: evenodd; fill: #000000; "/>
<path d=" 
M51.1770,-4465.8810
C49.9395,-4465.9425 49.0762,-4466.5110 48.6120,-4466.8170
C48.5872,-4466.8327 48.5610,-4466.8500 48.5370,-4466.8650
L50.0310,-4472.0025
C50.6640,-4471.6447 51.8722,-4471.0387 52.8082,-4471.0387
C53.9422,-4471.0680 54.7230,-4471.1573 55.9050,-4471.5600
C55.6718,-4470.7883 55.2540,-4469.3363 54.4575,-4466.5740
C54.0120,-4466.3880 52.6687,-4465.8750 51.4005,-4465.8750
C51.3270,-4465.8750 51.2520,-4465.8765 51.1770,-4465.8810
Z" 
style="fill-rule: evenodd; fill: #000000; "/>
<path d=" 
M53.2350,-4472.7525
C51.9315,-4472.7525 50.9130,-4473.4515 50.5282,-4473.7605
L52.0387,-4478.8755
C52.5840,-4478.5327 53.4615,-4478.0887 54.6945,-4477.9500
C54.8310,-4477.9350 54.9742,-4477.9282 55.1205,-4477.9282
C56.0895,-4477.9282 57.2182,-4478.2462 57.9330,-4478.4877
L56.4772,-4473.4807
C56.4667,-4473.4747 56.4555,-4473.4702 56.4450,-4473.4650
C56.0242,-4473.2820 55.0432,-4472.8500 53.4570,-4472.7607
C53.3820,-4472.7555 53.3077,-4472.7525 53.2350,-4472.7525
Z" 
style="fill-rule: evenodd; fill: #000000; "/>
<text x="-4.3431" y="-4457.2500">
<tspan font-family="Arial Narrow" font-weight="bold" font-size="12.0000" fill="#000000" fill-opacity="1.0000" stroke-opacity="1.0000" >
File Input, Windows</tspan>
</text>
</svg>
