<?xml version="1.0" encoding="UTF-8" standalone="no"?>
<svg version="1.1" xmlns="http://www.w3.org/2000/svg" xmlns:xlink="http://www.w3.org/1999/xlink" width="0.9688in" height="1.0938in" viewBox="0 0 69.7500 78.7500" >
<g id="Layer1079" >
<path d=" 
M32.6250,-4504.5001
L52.8750,-4504.5001
L52.8750,-4509.0001
L27.0000,-4509.0001
L24.7500,-4511.2501
L52.8750,-4511.2501
L52.8750,-4515.7501
L51.7500,-4515.7501
L51.7500,-4518.0001
L37.8750,-4518.0001
C36.8415,-4518.0001 36.0000,-4518.8416 36.0000,-4519.8751
L36.0000,-4533.7501
L2.2500,-4533.7501
L2.2500,-4470.7501
L35.3983,-4470.7501
A14.2820,14.2031 0.0000 1,0 51.7500,-4487.0259
L51.7500,-4491.0001
L52.8750,-4491.0001
L52.8750,-4495.5001
L27.0000,-4495.5001
L24.7500,-4497.7501
L52.8750,-4497.7501
L52.8750,-4502.2501
L27.0000,-4502.2501
L24.7500,-4504.5001
L32.6250,-4504.5001
Z
M38.2500,-4520.2501
L50.8185,-4520.2501
L38.2500,-4532.8186
L38.2500,-4520.2501
Z" 
style="stroke-width: 0.7200; stroke-linecap: round; stroke-linejoin: round; fill-rule: evenodd; fill: #ffffff; "/>
<path d=" 
M32.6250,-4504.5001
L52.8750,-4504.5001
L52.8750,-4509.0001
L27.0000,-4509.0001
L24.7500,-4511.2501
L52.8750,-4511.2501
L52.8750,-4515.7501
L51.7500,-4515.7501
L51.7500,-4518.0001
L37.8750,-4518.0001
C36.8415,-4518.0001 36.0000,-4518.8416 36.0000,-4519.8751
L36.0000,-4533.7501
L2.2500,-4533.7501
L2.2500,-4470.7501
L35.3983,-4470.7501
A14.2820,14.2031 0.0000 1,0 51.7500,-4487.0259
L51.7500,-4491.0001
L52.8750,-4491.0001
L52.8750,-4495.5001
L27.0000,-4495.5001
L24.7500,-4497.7501
L52.8750,-4497.7501
L52.8750,-4502.2501
L27.0000,-4502.2501
L24.7500,-4504.5001
L32.6250,-4504.5001
Z
M38.2500,-4520.2501
L50.8185,-4520.2501
L38.2500,-4532.8186
L38.2500,-4520.2501
Z" 
style="stroke-width: 0.7200; stroke: #ffffff; stroke-dasharray: none; stroke-linecap: round; stroke-linejoin: round; fill: none; "/>
</g>
<path d=" 
M69.7500,-4509.0000
L27.0000,-4509.0000
L24.7500,-4511.2500
L69.7500,-4511.2500
L69.7500,-4509.0000
Z" 
style="fill-rule: evenodd; fill: #000000; "/>
<path d=" 
M69.7500,-4502.2500
L27.0000,-4502.2500
L24.7500,-4504.5000
L69.7500,-4504.5000
L69.7500,-4502.2500
Z" 
style="fill-rule: evenodd; fill: #000000; "/>
<path d=" 
M69.7500,-4495.5000
L27.0000,-4495.5000
L24.7500,-4497.7500
L69.7500,-4497.7500
L69.7500,-4495.5000
Z" 
style="fill-rule: evenodd; fill: #000000; "/>
<path d=" 
M52.5000,-4468.1250
C52.5000,-4468.7333 51.4822,-4469.4270 49.7752,-4469.9812
C48.2317,-4470.4838 46.5202,-4470.7500 45.8805,-4470.7500
C45.2962,-4470.7500 42.3427,-4469.9520 41.1547,-4468.6253
C40.6800,-4468.0943 40.5922,-4467.5167 40.8870,-4466.8582
C41.0595,-4466.4720 41.3505,-4466.0932 41.7105,-4465.7332
C41.8057,-4465.8502 41.9655,-4465.9050 42.1162,-4465.8570
C42.1267,-4465.8533 43.1370,-4465.5337 45.0067,-4465.5000
C46.8765,-4465.4632 48.9615,-4466.0183 50.4255,-4466.9423
C50.6010,-4467.0517 50.8320,-4467.0000 50.9430,-4466.8260
C51.0525,-4466.6505 51.0007,-4466.4187 50.8252,-4466.3093
C49.2915,-4465.3395 47.1390,-4464.7492 45.1687,-4464.7492
C45.1102,-4464.7492 45.0517,-4464.7500 44.9940,-4464.7508
C43.9155,-4464.7710 43.1167,-4464.8798 42.5947,-4464.9780
C43.9597,-4463.9707 45.6975,-4463.2500 46.5000,-4463.2500
C48.6720,-4463.2500 52.4985,-4466.0685 52.5000,-4468.1250
Z" 
style="fill-rule: evenodd; fill: #010101; "/>
<path d=" 
M55.1250,-4462.8750
C55.3665,-4462.4947 55.4797,-4462.1422 55.5787,-4461.7957
C57.1815,-4462.6672 58.5720,-4463.8792 59.6662,-4465.3260
C59.2530,-4466.3002 58.8982,-4467.3637 58.6207,-4468.5922
C57.5280,-4473.4072 58.8930,-4472.0167 57.9262,-4476.2212
C57.4560,-4478.3152 56.6197,-4479.9765 55.6897,-4481.0707
C54.7612,-4482.1890 53.4862,-4482.7958 52.8742,-4483.1250
C51.4507,-4483.8900 47.8747,-4485.2490 43.5652,-4483.0140
C39.5235,-4480.9073 39.5677,-4476.6067 40.1520,-4468.4415
C40.2562,-4468.6785 40.4002,-4468.9087 40.5945,-4469.1255
C40.9560,-4469.5282 41.4502,-4469.8845 41.9910,-4470.1920
C40.8052,-4472.3257 40.8007,-4476.6930 43.5000,-4476.0000
C45.2010,-4475.5642 45.7807,-4473.2827 45.4042,-4471.4430
C45.6037,-4471.4797 45.7687,-4471.5000 45.8805,-4471.5000
C46.3822,-4471.5000 47.2927,-4471.3755 48.2827,-4471.1572
C47.7697,-4472.7360 48.0795,-4474.7595 49.2360,-4475.7278
C52.6110,-4478.5552 56.0505,-4471.3245 52.5525,-4469.4165
C53.0092,-4469.0167 53.2507,-4468.5870 53.2500,-4468.1242
C53.2500,-4467.6120 53.0797,-4467.0877 52.7970,-4466.5740
C54.0862,-4466.3557 53.8432,-4464.9142 55.1250,-4462.8750
Z" 
style="fill-rule: evenodd; fill: #010101; "/>
<path d=" 
M41.7412,-4462.9042
C41.7465,-4463.7202 41.7757,-4464.0232 41.8492,-4464.5887
C41.1885,-4465.1205 40.6387,-4465.7257 40.3035,-4466.3670
C40.3267,-4466.0415 40.3500,-4465.7265 40.3755,-4465.3905
C40.4032,-4464.9840 40.3650,-4464.5985 40.2817,-4464.2220
C40.7347,-4463.7480 41.2222,-4463.3055 41.7412,-4462.9042
Z" 
style="fill-rule: evenodd; fill: #010101; "/>
<path d=" 
M44.4127,-4472.9738
C44.3145,-4472.7735 44.1142,-4472.6325 43.8750,-4472.6325
C43.5427,-4472.6325 43.2727,-4472.9017 43.2727,-4473.2347
C43.2727,-4473.5040 43.4542,-4473.7237 43.6987,-4473.8017
C43.5420,-4473.8820 43.3717,-4473.9428 43.1775,-4473.9428
C41.6805,-4473.9428 41.8432,-4471.4648 42.6982,-4470.4980
C43.1872,-4470.7125 44.0040,-4470.9780 44.5470,-4471.1475
C44.6985,-4471.7145 44.6467,-4472.4158 44.4127,-4472.9738
Z" 
style="fill-rule: evenodd; fill: #010101; "/>
<path d=" 
M52.3770,-4473.0090
C52.2877,-4472.7877 52.0732,-4472.6325 51.8205,-4472.6325
C51.4882,-4472.6325 51.2182,-4472.9017 51.2182,-4473.2347
C51.2182,-4473.5212 51.4222,-4473.7500 51.6907,-4473.8107
C51.4905,-4473.9210 51.2602,-4473.9877 50.9955,-4473.9877
C49.4002,-4473.9877 48.8385,-4471.6703 49.7595,-4470.6390
C50.1532,-4470.4980 50.6002,-4470.3330 51.0195,-4470.1627
C52.4535,-4470.2460 52.8562,-4471.9035 52.3770,-4473.0090
Z" 
style="fill-rule: evenodd; fill: #010101; "/>
<path d=" 
M54.0000,-4488.0892
L54.0000,-4491.0000
L51.7500,-4491.0000
L51.7500,-4488.5842
C51.9000,-4488.5625 50.4217,-4488.7500 49.5000,-4488.7500
C40.8015,-4488.7500 33.7500,-4481.6985 33.7500,-4473.0000
C33.7500,-4472.0782 33.9375,-4470.6000 33.9157,-4470.7500
L2.2500,-4470.7500
L2.2500,-4533.7500
L36.0000,-4533.7500
L36.0000,-4519.8750
C36.0000,-4518.8415 36.8415,-4518.0000 37.8750,-4518.0000
L51.7500,-4518.0000
L51.7500,-4515.7500
L54.0000,-4515.7500
L54.0000,-4518.0000
C54.0000,-4519.2368 53.2837,-4520.9663 52.4092,-4521.8408
L39.8407,-4534.4093
C38.9663,-4535.2837 37.2367,-4536.0000 36.0000,-4536.0000
L2.2500,-4536.0000
C1.0133,-4536.0000 0.0000,-4534.9867 0.0000,-4533.7500
L0.0000,-4470.7500
C0.0000,-4469.5132 1.0133,-4468.5000 2.2500,-4468.5000
L34.4107,-4468.5000
C36.3480,-4461.9960 42.3667,-4457.2500 49.5000,-4457.2500
C58.1985,-4457.2500 65.2500,-4464.3015 65.2500,-4473.0000
C65.2500,-4480.1332 60.5040,-4486.1512 54.0000,-4488.0892
Z
M38.2500,-4532.8185
L50.8185,-4520.2500
L38.2500,-4520.2500
L38.2500,-4532.8185
Z
M34.1197,-4469.6317
C34.1880,-4469.3190 34.2712,-4469.0122 34.3575,-4468.7070
C34.2712,-4469.0115 34.1887,-4469.3190 34.1197,-4469.6317
Z
M49.5000,-4459.5000
C42.0555,-4459.5000 36.0000,-4465.5555 36.0000,-4473.0000
C36.0000,-4480.4445 42.0555,-4486.5000 49.5000,-4486.5000
C56.9445,-4486.5000 63.0000,-4480.4445 63.0000,-4473.0000
C63.0000,-4465.5555 56.9445,-4459.5000 49.5000,-4459.5000
Z" 
style="fill-rule: evenodd; fill: #000000; "/>
<text x="0.0000" y="-4457.2500">
<tspan font-family="Arial Narrow" font-weight="bold" font-size="12.0000" fill="#000000" fill-opacity="1.0000" stroke-opacity="1.0000" >
File Input, Linux</tspan>
</text>
</svg>
