<?xml version="1.0" encoding="UTF-8" standalone="no"?>
<svg version="1.1" xmlns="http://www.w3.org/2000/svg" xmlns:xlink="http://www.w3.org/1999/xlink" width="0.9688in" height="1.0000in" viewBox="0 0 69.7500 72.0000" >
<g id="Layer1082" >
<path d=" 
M56.2500,-4484.2501
L57.3750,-4484.2501
L57.3750,-4491.0001
L57.3750,-4495.5001
L57.3750,-4497.7501
L57.3750,-4502.2501
L57.3750,-4504.5001
L57.3750,-4509.0001
L57.3750,-4511.2501
L57.3750,-4513.5001
L57.3750,-4515.7501
L56.2500,-4515.7501
L56.2500,-4533.7501
L6.7500,-4533.7501
L6.7500,-4529.2501
L2.2500,-4529.2501
L2.2500,-4466.2501
L51.7500,-4466.2501
L51.7500,-4470.7501
L56.2500,-4470.7501
L56.2500,-4484.2501
Z" 
style="stroke-width: 0.7200; stroke-linecap: round; stroke-linejoin: round; fill-rule: evenodd; fill: #ffffff; "/>
<path d=" 
M56.2500,-4484.2501
L57.3750,-4484.2501
L57.3750,-4491.0001
L57.3750,-4495.5001
L57.3750,-4497.7501
L57.3750,-4502.2501
L57.3750,-4504.5001
L57.3750,-4509.0001
L57.3750,-4511.2501
L57.3750,-4513.5001
L57.3750,-4515.7501
L56.2500,-4515.7501
L56.2500,-4533.7501
L6.7500,-4533.7501
L6.7500,-4529.2501
L2.2500,-4529.2501
L2.2500,-4466.2501
L51.7500,-4466.2501
L51.7500,-4470.7501
L56.2500,-4470.7501
L56.2500,-4484.2501
Z" 
style="stroke-width: 0.7200; stroke: #ffffff; stroke-dasharray: none; stroke-linecap: round; stroke-linejoin: round; fill: none; "/>
</g>
<path d=" 
M69.7500,-4504.5000
L27.0000,-4504.5000
L24.7500,-4506.7500
L69.7500,-4506.7500
L69.7500,-4504.5000
Z" 
style="fill-rule: evenodd; fill: #000000; "/>
<path d=" 
M69.7500,-4497.7500
L27.0000,-4497.7500
L24.7500,-4500.0000
L69.7500,-4500.0000
L69.7500,-4497.7500
Z" 
style="fill-rule: evenodd; fill: #000000; "/>
<path d=" 
M69.7500,-4491.0000
L27.0000,-4491.0000
L24.7500,-4493.2500
L69.7500,-4493.2500
L69.7500,-4491.0000
Z" 
style="fill-rule: evenodd; fill: #000000; "/>
<path d=" 
M58.5000,-4511.2500
L58.5000,-4533.7500
C58.5000,-4534.9868 57.4868,-4536.0000 56.2500,-4536.0000
L6.7500,-4536.0000
C5.5133,-4536.0000 4.5000,-4534.9868 4.5000,-4533.7500
L4.5000,-4531.5000
L2.2500,-4531.5000
C1.0133,-4531.5000 0.0000,-4530.4868 0.0000,-4529.2500
L0.0000,-4466.2500
C0.0000,-4465.0132 1.0133,-4464.0000 2.2500,-4464.0000
L51.7500,-4464.0000
C52.9868,-4464.0000 54.0000,-4465.0132 54.0000,-4466.2500
L54.0000,-4468.5000
L56.2500,-4468.5000
C57.4868,-4468.5000 58.5000,-4469.5132 58.5000,-4470.7500
L58.5000,-4486.5000
L56.2500,-4486.5000
L56.2500,-4470.7500
L54.0000,-4470.7500
L54.0000,-4486.5000
L51.7500,-4486.5000
L51.7500,-4466.2500
L2.2500,-4466.2500
L2.2500,-4529.2500
L36.0000,-4529.2500
L36.0000,-4515.3750
C36.0000,-4514.3415 36.8415,-4513.5000 37.8750,-4513.5000
L51.7500,-4513.5000
L51.7500,-4511.2500
L54.0000,-4511.2500
L54.0000,-4513.5000
C54.0000,-4514.7368 53.2837,-4516.4663 52.4093,-4517.3408
L39.8408,-4529.9092
C38.9662,-4530.7837 37.2368,-4531.5000 36.0000,-4531.5000
L6.7500,-4531.5000
L6.7500,-4533.7500
L56.2500,-4533.7500
L56.2500,-4511.2500
L58.5000,-4511.2500
Z
M38.2500,-4528.3185
L50.8185,-4515.7500
L38.2500,-4515.7500
L38.2500,-4528.3185
Z" 
style="fill-rule: evenodd; fill: #000000; "/>
<text x="0.0000" y="-4464.0000">
<tspan font-family="Arial Narrow" font-weight="bold" font-size="12.0000" fill="#000000" fill-opacity="1.0000" stroke-opacity="1.0000" >
File Inputs</tspan>
</text>
</svg>
