<?xml version="1.0" encoding="UTF-8" standalone="no"?>
<svg version="1.1" xmlns="http://www.w3.org/2000/svg" xmlns:xlink="http://www.w3.org/1999/xlink" width="0.9688in" height="1.1562in" viewBox="0 0 69.7500 83.2500" >
<g id="Layer1085" >
<path d=" 
M56.2500,-4484.2501
L57.3750,-4484.2501
L57.3750,-4515.7501
L56.2500,-4515.7501
L56.2500,-4533.7501
L6.7500,-4533.7501
L6.7500,-4529.2501
L2.2500,-4529.2501
L2.2500,-4466.2501
L35.2626,-4466.2501
A14.4141,14.4140 0.0000 1,0 56.2500,-4481.2359
L56.2500,-4484.2501
Z" 
style="stroke-width: 0.7200; stroke-linecap: round; stroke-linejoin: round; fill-rule: evenodd; fill: #ffffff; "/>
<path d=" 
M56.2500,-4484.2501
L57.3750,-4484.2501
L57.3750,-4515.7501
L56.2500,-4515.7501
L56.2500,-4533.7501
L6.7500,-4533.7501
L6.7500,-4529.2501
L2.2500,-4529.2501
L2.2500,-4466.2501
L35.2626,-4466.2501
A14.4141,14.4140 0.0000 1,0 56.2500,-4481.2359
L56.2500,-4484.2501
Z" 
style="stroke-width: 0.7200; stroke: #ffffff; stroke-dasharray: none; stroke-linecap: round; stroke-linejoin: round; fill: none; "/>
</g>
<path d=" 
M69.7500,-4504.5000
L27.0000,-4504.5000
L24.7500,-4506.7500
L69.7500,-4506.7500
L69.7500,-4504.5000
Z" 
style="fill-rule: evenodd; fill: #000000; "/>
<path d=" 
M69.7500,-4497.7500
L27.0000,-4497.7500
L24.7500,-4500.0000
L69.7500,-4500.0000
L69.7500,-4497.7500
Z" 
style="fill-rule: evenodd; fill: #000000; "/>
<path d=" 
M69.7500,-4491.0000
L27.0000,-4491.0000
L24.7500,-4493.2500
L69.7500,-4493.2500
L69.7500,-4491.0000
Z" 
style="fill-rule: evenodd; fill: #000000; "/>
<path d=" 
M58.5000,-4481.4150
L58.5000,-4486.5000
L56.2500,-4486.5000
L56.2500,-4482.7200
C56.2980,-4482.6975 54.8295,-4483.3418 54.0000,-4483.5892
L54.0000,-4486.5000
L51.7500,-4486.5000
L51.7500,-4484.0842
C51.9000,-4484.0625 50.4217,-4484.2500 49.5000,-4484.2500
C40.8015,-4484.2500 33.7500,-4477.1985 33.7500,-4468.5000
C33.7500,-4467.5783 33.9375,-4466.1000 33.9157,-4466.2500
L2.2500,-4466.2500
L2.2500,-4529.2500
L36.0000,-4529.2500
L36.0000,-4515.3750
C36.0000,-4514.3415 36.8415,-4513.5000 37.8750,-4513.5000
L51.7500,-4513.5000
L51.7500,-4511.2500
L54.0000,-4511.2500
L54.0000,-4513.5000
C54.0000,-4514.7368 53.2837,-4516.4663 52.4092,-4517.3407
L39.8407,-4529.9093
C38.9663,-4530.7837 37.2367,-4531.5000 36.0000,-4531.5000
L6.7500,-4531.5000
L6.7500,-4533.7500
L56.2500,-4533.7500
L56.2500,-4511.2500
L58.5000,-4511.2500
L58.5000,-4533.7500
C58.5000,-4534.9868 57.4868,-4536.0000 56.2500,-4536.0000
L6.7500,-4536.0000
C5.5132,-4536.0000 4.5000,-4534.9868 4.5000,-4533.7500
L4.5000,-4531.5000
L2.2500,-4531.5000
C1.0133,-4531.5000 0.0000,-4530.4867 0.0000,-4529.2500
L0.0000,-4466.2500
C0.0000,-4465.0132 1.0133,-4464.0000 2.2500,-4464.0000
L34.4107,-4464.0000
C36.3480,-4457.4960 42.3667,-4452.7500 49.5000,-4452.7500
C58.1985,-4452.7500 65.2500,-4459.8015 65.2500,-4468.5000
C65.2500,-4473.8490 62.5770,-4478.5680 58.5000,-4481.4150
Z
M38.2500,-4528.3185
L50.8185,-4515.7500
L38.2500,-4515.7500
L38.2500,-4528.3185
Z
M49.5000,-4455.0000
C42.0555,-4455.0000 36.0000,-4461.0555 36.0000,-4468.5000
C36.0000,-4475.9445 42.0555,-4482.0000 49.5000,-4482.0000
C56.9445,-4482.0000 63.0000,-4475.9445 63.0000,-4468.5000
C63.0000,-4461.0555 56.9445,-4455.0000 49.5000,-4455.0000
Z" 
style="fill-rule: evenodd; fill: #000000; "/>
<path d=" 
M48.9712,-4470.3000
C48.3412,-4470.6675 47.1315,-4471.2802 46.0590,-4471.2802
C45.9697,-4471.2802 45.8820,-4471.2773 45.7950,-4471.2683
C44.8650,-4471.1760 43.7692,-4470.8715 43.0762,-4470.6547
L44.5545,-4475.7278
C44.9355,-4475.9048 46.0747,-4476.3750 47.4450,-4476.3750
C48.5685,-4476.3750 49.5892,-4476.0630 50.4802,-4475.4465
L48.9712,-4470.3000
Z" 
style="fill-rule: evenodd; fill: #000000; "/>
<path d=" 
M46.9440,-4463.2792
C46.3080,-4463.6340 45.0825,-4464.2310 44.0392,-4464.2310
C43.9672,-4464.2310 43.8975,-4464.2272 43.8285,-4464.2227
C42.6682,-4464.1260 41.7690,-4463.9738 41.0745,-4463.7525
L42.5250,-4468.7655
C42.9675,-4468.9500 44.2822,-4469.4525 45.4590,-4469.4525
C45.5475,-4469.4525 45.6345,-4469.4495 45.7230,-4469.4435
C46.9477,-4469.3557 47.9790,-4468.8030 48.4710,-4468.4910
L46.9440,-4463.2792
Z" 
style="fill-rule: evenodd; fill: #000000; "/>
<path d=" 
M51.1770,-4461.3810
C49.9395,-4461.4425 49.0762,-4462.0110 48.6120,-4462.3170
C48.5872,-4462.3328 48.5610,-4462.3500 48.5370,-4462.3650
L50.0310,-4467.5025
C50.6640,-4467.1448 51.8722,-4466.5388 52.8082,-4466.5388
C53.9422,-4466.5680 54.7230,-4466.6573 55.9050,-4467.0600
C55.6718,-4466.2883 55.2540,-4464.8363 54.4575,-4462.0740
C54.0120,-4461.8880 52.6687,-4461.3750 51.4005,-4461.3750
C51.3270,-4461.3750 51.2520,-4461.3765 51.1770,-4461.3810
Z" 
style="fill-rule: evenodd; fill: #000000; "/>
<path d=" 
M53.2350,-4468.2525
C51.9315,-4468.2525 50.9130,-4468.9515 50.5282,-4469.2605
L52.0387,-4474.3755
C52.5840,-4474.0328 53.4615,-4473.5887 54.6945,-4473.4500
C54.8310,-4473.4350 54.9742,-4473.4282 55.1205,-4473.4282
C56.0895,-4473.4282 57.2182,-4473.7463 57.9330,-4473.9877
L56.4772,-4468.9807
C56.4667,-4468.9748 56.4555,-4468.9703 56.4450,-4468.9650
C56.0242,-4468.7820 55.0432,-4468.3500 53.4570,-4468.2607
C53.3820,-4468.2555 53.3077,-4468.2525 53.2350,-4468.2525
Z" 
style="fill-rule: evenodd; fill: #000000; "/>
<text x="0.0000" y="-4452.7500">
<tspan font-family="Arial Narrow" font-weight="bold" font-size="12.0000" fill="#000000" fill-opacity="1.0000" stroke-opacity="1.0000" >
File Inputs, Windows</tspan>
</text>
</svg>
