<?xml version="1.0" encoding="UTF-8" standalone="no"?>
<svg version="1.1" xmlns="http://www.w3.org/2000/svg" xmlns:xlink="http://www.w3.org/1999/xlink" width="0.9688in" height="0.9375in" viewBox="0 0 69.7500 67.5000" >
<g id="Layer1078" >
<path d=" 
M32.6250,-4504.4999
L52.8750,-4504.4999
L52.8750,-4508.9999
L27.0000,-4508.9999
L24.7500,-4511.2499
L52.8750,-4511.2499
L52.8750,-4515.7499
L51.7500,-4515.7499
L51.7500,-4517.9999
L37.8750,-4517.9999
C36.8415,-4517.9999 36.0000,-4518.8414 36.0000,-4519.8749
L36.0000,-4533.7499
L2.2500,-4533.7499
L2.2500,-4470.7499
L51.7500,-4470.7499
L51.7500,-4490.9999
L52.8750,-4490.9999
L52.8750,-4495.4999
L27.0000,-4495.4999
L24.7500,-4497.7499
L52.8750,-4497.7499
L52.8750,-4502.2499
L27.0000,-4502.2499
L24.7500,-4504.4999
L32.6250,-4504.4999
Z
M38.2500,-4520.2499
L50.8185,-4520.2499
L38.2500,-4532.8184
L38.2500,-4520.2499
Z" 
style="stroke-width: 0.7200; stroke-linecap: round; stroke-linejoin: round; fill-rule: evenodd; fill: #ffffff; "/>
<path d=" 
M32.6250,-4504.4999
L52.8750,-4504.4999
L52.8750,-4508.9999
L27.0000,-4508.9999
L24.7500,-4511.2499
L52.8750,-4511.2499
L52.8750,-4515.7499
L51.7500,-4515.7499
L51.7500,-4517.9999
L37.8750,-4517.9999
C36.8415,-4517.9999 36.0000,-4518.8414 36.0000,-4519.8749
L36.0000,-4533.7499
L2.2500,-4533.7499
L2.2500,-4470.7499
L51.7500,-4470.7499
L51.7500,-4490.9999
L52.8750,-4490.9999
L52.8750,-4495.4999
L27.0000,-4495.4999
L24.7500,-4497.7499
L52.8750,-4497.7499
L52.8750,-4502.2499
L27.0000,-4502.2499
L24.7500,-4504.4999
L32.6250,-4504.4999
Z
M38.2500,-4520.2499
L50.8185,-4520.2499
L38.2500,-4532.8184
L38.2500,-4520.2499
Z" 
style="stroke-width: 0.7200; stroke: #ffffff; stroke-dasharray: none; stroke-linecap: round; stroke-linejoin: round; fill: none; "/>
</g>
<path d=" 
M69.7500,-4509.0000
L27.0000,-4509.0000
L24.7500,-4511.2500
L69.7500,-4511.2500
L69.7500,-4509.0000
Z" 
style="fill-rule: evenodd; fill: #000000; "/>
<path d=" 
M69.7500,-4502.2500
L27.0000,-4502.2500
L24.7500,-4504.5000
L69.7500,-4504.5000
L69.7500,-4502.2500
Z" 
style="fill-rule: evenodd; fill: #000000; "/>
<path d=" 
M69.7500,-4495.5000
L27.0000,-4495.5000
L24.7500,-4497.7500
L69.7500,-4497.7500
L69.7500,-4495.5000
Z" 
style="fill-rule: evenodd; fill: #000000; "/>
<path d=" 
M39.8408,-4534.4092
C38.9663,-4535.2837 37.2367,-4536.0000 36.0000,-4536.0000
L2.2500,-4536.0000
C1.0133,-4536.0000 0.0000,-4534.9868 0.0000,-4533.7500
L0.0000,-4470.7500
C0.0000,-4469.5132 1.0133,-4468.5000 2.2500,-4468.5000
L51.7500,-4468.5000
C52.9868,-4468.5000 54.0000,-4469.5132 54.0000,-4470.7500
L54.0000,-4491.0000
L51.7500,-4491.0000
L51.7500,-4470.7500
L2.2500,-4470.7500
L2.2500,-4533.7500
L36.0000,-4533.7500
L36.0000,-4519.8750
C36.0000,-4518.8415 36.8415,-4518.0000 37.8750,-4518.0000
L51.7500,-4518.0000
L51.7500,-4515.7500
L54.0000,-4515.7500
L54.0000,-4518.0000
C54.0000,-4519.2368 53.2838,-4520.9663 52.4093,-4521.8407
L39.8408,-4534.4092
Z
M38.2500,-4520.2500
L38.2500,-4532.8185
L50.8185,-4520.2500
L38.2500,-4520.2500
Z" 
style="fill-rule: evenodd; fill: #000000; "/>
<text x="0.0000" y="-4468.5000">
<tspan font-family="Arial Narrow" font-weight="bold" font-size="12.0000" fill="#000000" fill-opacity="1.0000" stroke-opacity="1.0000" >
File Input</tspan>
</text>
</svg>
