<?xml version="1.0" encoding="UTF-8" standalone="no"?>
<svg version="1.1" xmlns="http://www.w3.org/2000/svg" xmlns:xlink="http://www.w3.org/1999/xlink" width="0.9688in" height="1.0938in" viewBox="0 0 69.7500 78.7500" >
<g id="Layer1080" >
<path d=" 
M32.6250,-4504.6407
L52.8750,-4504.6407
L52.8750,-4509.1407
L27.0000,-4509.1407
L24.7500,-4511.3907
L52.8750,-4511.3907
L52.8750,-4515.8907
L51.7500,-4515.8907
L51.7500,-4518.1407
L37.8750,-4518.1407
C36.8415,-4518.1407 36.0000,-4518.9822 36.0000,-4520.0157
L36.0000,-4533.8907
L2.2500,-4533.8907
L2.2500,-4470.8907
L35.3983,-4470.8907
A14.2820,14.2031 0.0000 1,0 51.7500,-4487.1665
L51.7500,-4491.1407
L52.8750,-4491.1407
L52.8750,-4495.6407
L27.0000,-4495.6407
L24.7500,-4497.8907
L52.8750,-4497.8907
L52.8750,-4502.3907
L27.0000,-4502.3907
L24.7500,-4504.6407
L32.6250,-4504.6407
Z
M38.2500,-4520.3907
L50.8185,-4520.3907
L38.2500,-4532.9592
L38.2500,-4520.3907
Z" 
style="stroke-width: 0.7200; stroke-linecap: round; stroke-linejoin: round; fill-rule: evenodd; fill: #ffffff; "/>
<path d=" 
M32.6250,-4504.6407
L52.8750,-4504.6407
L52.8750,-4509.1407
L27.0000,-4509.1407
L24.7500,-4511.3907
L52.8750,-4511.3907
L52.8750,-4515.8907
L51.7500,-4515.8907
L51.7500,-4518.1407
L37.8750,-4518.1407
C36.8415,-4518.1407 36.0000,-4518.9822 36.0000,-4520.0157
L36.0000,-4533.8907
L2.2500,-4533.8907
L2.2500,-4470.8907
L35.3983,-4470.8907
A14.2820,14.2031 0.0000 1,0 51.7500,-4487.1665
L51.7500,-4491.1407
L52.8750,-4491.1407
L52.8750,-4495.6407
L27.0000,-4495.6407
L24.7500,-4497.8907
L52.8750,-4497.8907
L52.8750,-4502.3907
L27.0000,-4502.3907
L24.7500,-4504.6407
L32.6250,-4504.6407
Z
M38.2500,-4520.3907
L50.8185,-4520.3907
L38.2500,-4532.9592
L38.2500,-4520.3907
Z" 
style="stroke-width: 0.7200; stroke: #ffffff; stroke-dasharray: none; stroke-linecap: round; stroke-linejoin: round; fill: none; "/>
</g>
<path d=" 
M69.7500,-4509.0000
L27.0000,-4509.0000
L24.7500,-4511.2500
L69.7500,-4511.2500
L69.7500,-4509.0000
Z" 
style="fill-rule: evenodd; fill: #000000; "/>
<path d=" 
M69.7500,-4502.2500
L27.0000,-4502.2500
L24.7500,-4504.5000
L69.7500,-4504.5000
L69.7500,-4502.2500
Z" 
style="fill-rule: evenodd; fill: #000000; "/>
<path d=" 
M69.7500,-4495.5000
L27.0000,-4495.5000
L24.7500,-4497.7500
L69.7500,-4497.7500
L69.7500,-4495.5000
Z" 
style="fill-rule: evenodd; fill: #000000; "/>
<path d=" 
M54.0000,-4488.0892
L54.0000,-4491.0000
L51.7500,-4491.0000
L51.7500,-4488.5842
C51.9000,-4488.5625 50.4217,-4488.7500 49.5000,-4488.7500
C40.8015,-4488.7500 33.7500,-4481.6985 33.7500,-4473.0000
C33.7500,-4472.0782 33.8453,-4471.1820 33.9975,-4470.3045
C33.9713,-4470.4530 33.9375,-4470.6000 33.9157,-4470.7500
L2.2500,-4470.7500
L2.2500,-4533.7500
L36.0000,-4533.7500
L36.0000,-4519.8750
C36.0000,-4518.8415 36.8415,-4518.0000 37.8750,-4518.0000
L51.7500,-4518.0000
L51.7500,-4515.7500
L54.0000,-4515.7500
L54.0000,-4518.0000
C54.0000,-4519.2368 53.2837,-4520.9663 52.4092,-4521.8408
L39.8407,-4534.4093
C38.9663,-4535.2837 37.2367,-4536.0000 36.0000,-4536.0000
L2.2500,-4536.0000
C1.0133,-4536.0000 0.0000,-4534.9867 0.0000,-4533.7500
L0.0000,-4470.7500
C0.0000,-4469.5132 1.0133,-4468.5000 2.2500,-4468.5000
L34.4107,-4468.5000
C36.3480,-4461.9960 42.3667,-4457.2500 49.5000,-4457.2500
C58.1985,-4457.2500 65.2500,-4464.3015 65.2500,-4473.0000
C65.2500,-4480.1332 60.5040,-4486.1512 54.0000,-4488.0892
Z
M38.2500,-4532.8185
L50.8185,-4520.2500
L38.2500,-4520.2500
L38.2500,-4532.8185
Z
M34.1197,-4469.6317
C34.1880,-4469.3190 34.2712,-4469.0122 34.3575,-4468.7070
C34.2712,-4469.0115 34.1887,-4469.3190 34.1197,-4469.6317
Z
M49.5000,-4459.5000
C42.0555,-4459.5000 36.0000,-4465.5555 36.0000,-4473.0000
C36.0000,-4480.4445 42.0555,-4486.5000 49.5000,-4486.5000
C56.9445,-4486.5000 63.0000,-4480.4445 63.0000,-4473.0000
C63.0000,-4465.5555 56.9445,-4459.5000 49.5000,-4459.5000
Z" 
style="fill-rule: evenodd; fill: #000000; "/>
<path d=" 
M56.1082,-4477.2127
C55.4272,-4478.0610 54.5122,-4478.9092 53.1037,-4478.9092
C52.1182,-4478.9092 51.2962,-4477.9440 49.9335,-4477.9440
C48.8542,-4477.9440 48.4087,-4478.8628 47.2342,-4478.8628
C44.7915,-4478.8628 42.3750,-4476.6712 42.3750,-4473.8190
C42.3750,-4472.3115 42.8670,-4469.9783 43.9717,-4467.9510
C44.7697,-4466.4667 45.7560,-4465.5000 46.8592,-4465.5000
C47.6572,-4465.5000 48.5962,-4466.2312 49.7227,-4466.2312
C50.7082,-4466.2312 51.6240,-4465.5712 52.5165,-4465.5712
C54.6540,-4465.5712 56.6257,-4468.3522 56.6257,-4470.2137
C56.6257,-4470.3075 56.6025,-4470.3780 56.6025,-4470.4477
L56.6025,-4470.5662
C55.2165,-4471.3207 54.4650,-4472.4277 54.4650,-4474.0305
C54.4650,-4475.3273 55.0290,-4476.4575 56.0632,-4477.1887
L56.1082,-4477.2127
Z" 
style="fill-rule: evenodd; fill: #000000; "/>
<path d=" 
M49.8855,-4478.2485
C51.4822,-4478.7435 52.9612,-4479.9457 52.9612,-4482.0427
C52.9612,-4482.2085 52.9387,-4482.4207 52.9147,-4482.6562
L52.8907,-4482.7500
C51.2707,-4482.3015 49.8142,-4481.0302 49.8142,-4479.0262
C49.8142,-4478.8372 49.8375,-4478.6017 49.8847,-4478.3422
L49.8847,-4478.2485
L49.8855,-4478.2485
Z" 
style="fill-rule: evenodd; fill: #000000; "/>
<text x="0.0000" y="-4457.2500">
<tspan font-family="Arial Narrow" font-weight="bold" font-size="12.0000" fill="#000000" fill-opacity="1.0000" stroke-opacity="1.0000" >
File Input, Mac</tspan>
</text>
</svg>
