<?xml version="1.0" encoding="UTF-8" standalone="no"?>
<svg version="1.1" xmlns="http://www.w3.org/2000/svg" xmlns:xlink="http://www.w3.org/1999/xlink" width="0.9688in" height="1.1562in" viewBox="0 0 69.7500 83.2500" >
<g id="Layer1084" >
<path d=" 
M56.2500,-4484.0389
L57.3750,-4484.0389
L57.3750,-4515.5389
L56.2500,-4515.5389
L56.2500,-4533.5389
L6.7500,-4533.5389
L6.7500,-4529.0389
L2.2500,-4529.0389
L2.2500,-4466.0389
L35.2626,-4466.0389
A14.4141,14.4140 0.0000 1,0 56.2500,-4481.0247
L56.2500,-4484.0389
Z" 
style="stroke-width: 0.7200; stroke-linecap: round; stroke-linejoin: round; fill-rule: evenodd; fill: #ffffff; "/>
<path d=" 
M56.2500,-4484.0389
L57.3750,-4484.0389
L57.3750,-4515.5389
L56.2500,-4515.5389
L56.2500,-4533.5389
L6.7500,-4533.5389
L6.7500,-4529.0389
L2.2500,-4529.0389
L2.2500,-4466.0389
L35.2626,-4466.0389
A14.4141,14.4140 0.0000 1,0 56.2500,-4481.0247
L56.2500,-4484.0389
Z" 
style="stroke-width: 0.7200; stroke: #ffffff; stroke-dasharray: none; stroke-linecap: round; stroke-linejoin: round; fill: none; "/>
</g>
<path d=" 
M69.7500,-4504.5000
L27.0000,-4504.5000
L24.7500,-4506.7500
L69.7500,-4506.7500
L69.7500,-4504.5000
Z" 
style="fill-rule: evenodd; fill: #000000; "/>
<path d=" 
M69.7500,-4497.7500
L27.0000,-4497.7500
L24.7500,-4500.0000
L69.7500,-4500.0000
L69.7500,-4497.7500
Z" 
style="fill-rule: evenodd; fill: #000000; "/>
<path d=" 
M69.7500,-4491.0000
L27.0000,-4491.0000
L24.7500,-4493.2500
L69.7500,-4493.2500
L69.7500,-4491.0000
Z" 
style="fill-rule: evenodd; fill: #000000; "/>
<path d=" 
M58.5000,-4481.4150
L58.5000,-4486.5000
L56.2500,-4486.5000
L56.2500,-4482.7200
C56.2980,-4482.6975 54.8295,-4483.3418 54.0000,-4483.5892
L54.0000,-4486.5000
L51.7500,-4486.5000
L51.7500,-4484.0842
C51.9000,-4484.0625 50.4217,-4484.2500 49.5000,-4484.2500
C40.8015,-4484.2500 33.7500,-4477.1985 33.7500,-4468.5000
C33.7500,-4467.5783 33.9375,-4466.1000 33.9157,-4466.2500
L2.2500,-4466.2500
L2.2500,-4529.2500
L36.0000,-4529.2500
L36.0000,-4515.3750
C36.0000,-4514.3415 36.8415,-4513.5000 37.8750,-4513.5000
L51.7500,-4513.5000
L51.7500,-4511.2500
L54.0000,-4511.2500
L54.0000,-4513.5000
C54.0000,-4514.7368 53.2837,-4516.4663 52.4092,-4517.3407
L39.8407,-4529.9093
C38.9663,-4530.7837 37.2367,-4531.5000 36.0000,-4531.5000
L6.7500,-4531.5000
L6.7500,-4533.7500
L56.2500,-4533.7500
L56.2500,-4511.2500
L58.5000,-4511.2500
L58.5000,-4533.7500
C58.5000,-4534.9868 57.4868,-4536.0000 56.2500,-4536.0000
L6.7500,-4536.0000
C5.5132,-4536.0000 4.5000,-4534.9868 4.5000,-4533.7500
L4.5000,-4531.5000
L2.2500,-4531.5000
C1.0133,-4531.5000 0.0000,-4530.4867 0.0000,-4529.2500
L0.0000,-4466.2500
C0.0000,-4465.0132 1.0133,-4464.0000 2.2500,-4464.0000
L34.4107,-4464.0000
C36.3480,-4457.4960 42.3667,-4452.7500 49.5000,-4452.7500
C58.1985,-4452.7500 65.2500,-4459.8015 65.2500,-4468.5000
C65.2500,-4473.8490 62.5770,-4478.5680 58.5000,-4481.4150
Z
M38.2500,-4528.3185
L50.8185,-4515.7500
L38.2500,-4515.7500
L38.2500,-4528.3185
Z
M34.1197,-4465.1317
C34.1880,-4464.8190 34.2712,-4464.5122 34.3575,-4464.2070
C34.2712,-4464.5115 34.1887,-4464.8190 34.1197,-4465.1317
Z
M49.5000,-4455.0000
C42.0555,-4455.0000 36.0000,-4461.0555 36.0000,-4468.5000
C36.0000,-4475.9445 42.0555,-4482.0000 49.5000,-4482.0000
C56.9445,-4482.0000 63.0000,-4475.9445 63.0000,-4468.5000
C63.0000,-4461.0555 56.9445,-4455.0000 49.5000,-4455.0000
Z" 
style="fill-rule: evenodd; fill: #000000; "/>
<path d=" 
M56.1082,-4472.7127
C55.4272,-4473.5610 54.5122,-4474.4092 53.1037,-4474.4092
C52.1182,-4474.4092 51.2962,-4473.4440 49.9335,-4473.4440
C48.8542,-4473.4440 48.4087,-4474.3628 47.2342,-4474.3628
C44.7915,-4474.3628 42.3750,-4472.1713 42.3750,-4469.3190
C42.3750,-4467.8115 42.8670,-4465.4783 43.9717,-4463.4510
C44.7697,-4461.9667 45.7560,-4461.0000 46.8592,-4461.0000
C47.6572,-4461.0000 48.5962,-4461.7312 49.7227,-4461.7312
C50.7082,-4461.7312 51.6240,-4461.0712 52.5165,-4461.0712
C54.6540,-4461.0712 56.6257,-4463.8522 56.6257,-4465.7137
C56.6257,-4465.8075 56.6025,-4465.8780 56.6025,-4465.9477
L56.6025,-4466.0662
C55.2165,-4466.8207 54.4650,-4467.9277 54.4650,-4469.5305
C54.4650,-4470.8273 55.0290,-4471.9575 56.0632,-4472.6888
L56.1082,-4472.7127
Z" 
style="fill-rule: evenodd; fill: #000000; "/>
<path d=" 
M49.8855,-4473.7485
C51.4822,-4474.2435 52.9612,-4475.4457 52.9612,-4477.5427
C52.9612,-4477.7085 52.9387,-4477.9207 52.9147,-4478.1562
L52.8907,-4478.2500
C51.2707,-4477.8015 49.8142,-4476.5302 49.8142,-4474.5262
C49.8142,-4474.3372 49.8375,-4474.1017 49.8847,-4473.8422
L49.8847,-4473.7485
L49.8855,-4473.7485
Z" 
style="fill-rule: evenodd; fill: #000000; "/>
<text x="0.0000" y="-4452.7500">
<tspan font-family="Arial Narrow" font-weight="bold" font-size="12.0000" fill="#000000" fill-opacity="1.0000" stroke-opacity="1.0000" >
File Inputs, Mac</tspan>
</text>
</svg>
