<?xml version="1.0" encoding="UTF-8" standalone="no"?>
<svg version="1.1" xmlns="http://www.w3.org/2000/svg" xmlns:xlink="http://www.w3.org/1999/xlink" width="0.9688in" height="1.1562in" viewBox="0 0 69.7500 83.2500" >
<g id="Layer1083" >
<path d=" 
M56.2500,-4484.2499
L57.3750,-4484.2499
L57.3750,-4515.7499
L56.2500,-4515.7499
L56.2500,-4533.7499
L6.7500,-4533.7499
L6.7500,-4529.2499
L2.2500,-4529.2499
L2.2500,-4466.2499
L35.2626,-4466.2499
A14.4141,14.4140 0.0000 1,0 56.2500,-4481.2357
L56.2500,-4484.2499
Z" 
style="stroke-width: 0.7200; stroke-linecap: round; stroke-linejoin: round; fill-rule: evenodd; fill: #ffffff; "/>
<path d=" 
M56.2500,-4484.2499
L57.3750,-4484.2499
L57.3750,-4515.7499
L56.2500,-4515.7499
L56.2500,-4533.7499
L6.7500,-4533.7499
L6.7500,-4529.2499
L2.2500,-4529.2499
L2.2500,-4466.2499
L35.2626,-4466.2499
A14.4141,14.4140 0.0000 1,0 56.2500,-4481.2357
L56.2500,-4484.2499
Z" 
style="stroke-width: 0.7200; stroke: #ffffff; stroke-dasharray: none; stroke-linecap: round; stroke-linejoin: round; fill: none; "/>
</g>
<path d=" 
M69.7500,-4504.5000
L27.0000,-4504.5000
L24.7500,-4506.7500
L69.7500,-4506.7500
L69.7500,-4504.5000
Z" 
style="fill-rule: evenodd; fill: #000000; "/>
<path d=" 
M69.7500,-4497.7500
L27.0000,-4497.7500
L24.7500,-4500.0000
L69.7500,-4500.0000
L69.7500,-4497.7500
Z" 
style="fill-rule: evenodd; fill: #000000; "/>
<path d=" 
M69.7500,-4491.0000
L27.0000,-4491.0000
L24.7500,-4493.2500
L69.7500,-4493.2500
L69.7500,-4491.0000
Z" 
style="fill-rule: evenodd; fill: #000000; "/>
<path d=" 
M52.5000,-4463.6250
C52.5000,-4464.2333 51.4822,-4464.9270 49.7752,-4465.4812
C48.2317,-4465.9838 46.5202,-4466.2500 45.8805,-4466.2500
C45.2962,-4466.2500 42.3427,-4465.4520 41.1547,-4464.1253
C40.6800,-4463.5943 40.5922,-4463.0167 40.8870,-4462.3582
C41.0595,-4461.9720 41.3505,-4461.5932 41.7105,-4461.2332
C41.8057,-4461.3502 41.9655,-4461.4050 42.1162,-4461.3570
C42.1267,-4461.3533 43.1370,-4461.0337 45.0067,-4461.0000
C46.8765,-4460.9632 48.9615,-4461.5183 50.4255,-4462.4423
C50.6010,-4462.5517 50.8320,-4462.5000 50.9430,-4462.3260
C51.0525,-4462.1505 51.0007,-4461.9187 50.8252,-4461.8093
C49.2915,-4460.8395 47.1390,-4460.2492 45.1687,-4460.2492
C45.1102,-4460.2492 45.0517,-4460.2500 44.9940,-4460.2508
C43.9155,-4460.2710 43.1167,-4460.3798 42.5947,-4460.4780
C43.9597,-4459.4707 45.6975,-4458.7500 46.5000,-4458.7500
C48.6720,-4458.7500 52.4985,-4461.5685 52.5000,-4463.6250
Z" 
style="fill-rule: evenodd; fill: #010101; "/>
<path d=" 
M55.1250,-4458.3750
C55.3665,-4457.9947 55.4797,-4457.6422 55.5787,-4457.2957
C57.1815,-4458.1672 58.5720,-4459.3792 59.6662,-4460.8260
C59.2530,-4461.8002 58.8982,-4462.8637 58.6207,-4464.0922
C57.5280,-4468.9072 58.8930,-4467.5167 57.9262,-4471.7212
C57.4560,-4473.8152 56.6197,-4475.4765 55.6897,-4476.5707
C54.7612,-4477.6890 53.4862,-4478.2957 52.8742,-4478.6250
C51.4507,-4479.3900 47.8747,-4480.7490 43.5652,-4478.5140
C39.5235,-4476.4073 39.5677,-4472.1067 40.1520,-4463.9415
C40.2562,-4464.1785 40.4002,-4464.4087 40.5945,-4464.6255
C40.9560,-4465.0282 41.4502,-4465.3845 41.9910,-4465.6920
C40.8052,-4467.8257 40.8007,-4472.1930 43.5000,-4471.5000
C45.2010,-4471.0642 45.7807,-4468.7827 45.4042,-4466.9430
C45.6037,-4466.9797 45.7687,-4467.0000 45.8805,-4467.0000
C46.3822,-4467.0000 47.2927,-4466.8755 48.2827,-4466.6572
C47.7697,-4468.2360 48.0795,-4470.2595 49.2360,-4471.2278
C52.6110,-4474.0552 56.0505,-4466.8245 52.5525,-4464.9165
C53.0092,-4464.5167 53.2507,-4464.0870 53.2500,-4463.6242
C53.2500,-4463.1120 53.0797,-4462.5877 52.7970,-4462.0740
C54.0862,-4461.8557 53.8432,-4460.4142 55.1250,-4458.3750
Z" 
style="fill-rule: evenodd; fill: #010101; "/>
<path d=" 
M41.7412,-4458.4042
C41.7465,-4459.2202 41.7757,-4459.5232 41.8492,-4460.0887
C41.1885,-4460.6205 40.6387,-4461.2257 40.3035,-4461.8670
C40.3267,-4461.5415 40.3500,-4461.2265 40.3755,-4460.8905
C40.4032,-4460.4840 40.3650,-4460.0985 40.2817,-4459.7220
C40.7347,-4459.2480 41.2222,-4458.8055 41.7412,-4458.4042
Z" 
style="fill-rule: evenodd; fill: #010101; "/>
<path d=" 
M44.4128,-4468.4738
C44.3145,-4468.2735 44.1143,-4468.1325 43.8750,-4468.1325
C43.5428,-4468.1325 43.2728,-4468.4017 43.2728,-4468.7347
C43.2728,-4469.0040 43.4543,-4469.2237 43.6988,-4469.3017
C43.5420,-4469.3820 43.3718,-4469.4428 43.1775,-4469.4428
C41.6805,-4469.4428 41.8433,-4466.9648 42.6983,-4465.9980
C43.1873,-4466.2125 44.0040,-4466.4780 44.5470,-4466.6475
C44.6985,-4467.2145 44.6468,-4467.9158 44.4128,-4468.4738
Z" 
style="fill-rule: evenodd; fill: #010101; "/>
<path d=" 
M52.3770,-4468.5090
C52.2877,-4468.2877 52.0732,-4468.1325 51.8205,-4468.1325
C51.4882,-4468.1325 51.2182,-4468.4017 51.2182,-4468.7347
C51.2182,-4469.0212 51.4222,-4469.2500 51.6907,-4469.3107
C51.4905,-4469.4210 51.2602,-4469.4877 50.9955,-4469.4877
C49.4002,-4469.4877 48.8385,-4467.1703 49.7595,-4466.1390
C50.1532,-4465.9980 50.6002,-4465.8330 51.0195,-4465.6628
C52.4535,-4465.7460 52.8562,-4467.4035 52.3770,-4468.5090
Z" 
style="fill-rule: evenodd; fill: #010101; "/>
<path d=" 
M58.5000,-4481.4150
L58.5000,-4486.5000
L56.2500,-4486.5000
L56.2500,-4482.7200
C56.2980,-4482.6975 54.8295,-4483.3418 54.0000,-4483.5892
L54.0000,-4486.5000
L51.7500,-4486.5000
L51.7500,-4484.0842
C51.9000,-4484.0625 50.4217,-4484.2500 49.5000,-4484.2500
C40.8015,-4484.2500 33.7500,-4477.1985 33.7500,-4468.5000
C33.7500,-4467.5783 33.9375,-4466.1000 33.9157,-4466.2500
L2.2500,-4466.2500
L2.2500,-4529.2500
L36.0000,-4529.2500
L36.0000,-4515.3750
C36.0000,-4514.3415 36.8415,-4513.5000 37.8750,-4513.5000
L51.7500,-4513.5000
L51.7500,-4511.2500
L54.0000,-4511.2500
L54.0000,-4513.5000
C54.0000,-4514.7368 53.2837,-4516.4663 52.4092,-4517.3407
L39.8407,-4529.9093
C38.9663,-4530.7837 37.2367,-4531.5000 36.0000,-4531.5000
L6.7500,-4531.5000
L6.7500,-4533.7500
L56.2500,-4533.7500
L56.2500,-4511.2500
L58.5000,-4511.2500
L58.5000,-4533.7500
C58.5000,-4534.9868 57.4868,-4536.0000 56.2500,-4536.0000
L6.7500,-4536.0000
C5.5132,-4536.0000 4.5000,-4534.9868 4.5000,-4533.7500
L4.5000,-4531.5000
L2.2500,-4531.5000
C1.0133,-4531.5000 0.0000,-4530.4867 0.0000,-4529.2500
L0.0000,-4466.2500
C0.0000,-4465.0132 1.0133,-4464.0000 2.2500,-4464.0000
L34.4107,-4464.0000
C36.3480,-4457.4960 42.3667,-4452.7500 49.5000,-4452.7500
C58.1985,-4452.7500 65.2500,-4459.8015 65.2500,-4468.5000
C65.2500,-4473.8490 62.5770,-4478.5680 58.5000,-4481.4150
Z
M38.2500,-4528.3185
L50.8185,-4515.7500
L38.2500,-4515.7500
L38.2500,-4528.3185
Z
M49.5000,-4455.0000
C42.0555,-4455.0000 36.0000,-4461.0555 36.0000,-4468.5000
C36.0000,-4475.9445 42.0555,-4482.0000 49.5000,-4482.0000
C56.9445,-4482.0000 63.0000,-4475.9445 63.0000,-4468.5000
C63.0000,-4461.0555 56.9445,-4455.0000 49.5000,-4455.0000
Z" 
style="fill-rule: evenodd; fill: #000000; "/>
<text x="0.0000" y="-4452.7500">
<tspan font-family="Arial Narrow" font-weight="bold" font-size="12.0000" fill="#000000" fill-opacity="1.0000" stroke-opacity="1.0000" >
File Inputs, Linux</tspan>
</text>
</svg>
