<?xml version="1.0" encoding="UTF-8" standalone="no"?>
<svg version="1.1" xmlns="http://www.w3.org/2000/svg" xmlns:xlink="http://www.w3.org/1999/xlink" width="1.0625in" height="1.2188in" viewBox="0 0 76.5000 87.7500" >
<g id="Layer1095" >
<path d=" 
M14.6250,-4473.0001
C12.1913,-4473.0001 10.0740,-4474.3711 9.0000,-4476.3811
L9.0000,-4463.2501
C9.0000,-4461.1816 10.6823,-4459.5001 12.7500,-4459.5001
L37.9787,-4459.5001
A14.5547,14.5547 0.0000 1,0 56.0602,-4477.9236
C56.1840,-4478.3868 56.2500,-4478.8734 56.2500,-4479.3751
L56.2500,-4484.2501
L57.3750,-4484.2501
L57.3750,-4488.7501
L33.7500,-4488.7501
L31.5000,-4491.0001
L57.3750,-4491.0001
L57.3750,-4495.5001
L33.7500,-4495.5001
L31.5000,-4497.7501
L57.3750,-4497.7501
L57.3750,-4502.2501
L33.7500,-4502.2501
L31.5000,-4504.5001
L57.3750,-4504.5001
L57.3750,-4509.0001
L56.2500,-4509.0001
L56.2500,-4514.2501
C56.2500,-4516.3179 54.5685,-4518.0001 52.5000,-4518.0001
L12.7500,-4518.0001
C10.6823,-4518.0001 9.0000,-4516.3179 9.0000,-4514.2501
L9.0000,-4479.3751
C9.0000,-4476.2724 11.5238,-4473.7501 14.6250,-4473.7501
L41.0140,-4473.7501
A14.5547,14.5547 0.0000 0,0 40.3818,-4473.0001
L14.6250,-4473.0001
Z
M2.2500,-4529.2501
L22.5000,-4529.2501
L22.5000,-4531.5001
L2.2500,-4531.5001
L2.2500,-4529.2501
Z
M31.5000,-4520.2501
L33.7500,-4520.2501
L33.7500,-4524.7501
L31.5000,-4524.7501
L31.5000,-4520.2501
Z
M63.0000,-4529.2501
L63.0000,-4531.5001
L42.7500,-4531.5001
L42.7500,-4529.2501
L63.0000,-4529.2501
Z" 
style="stroke-width: 0.7200; stroke-linecap: round; stroke-linejoin: round; fill-rule: evenodd; fill: #ffffff; "/>
<path d=" 
M14.6250,-4473.0001
C12.1913,-4473.0001 10.0740,-4474.3711 9.0000,-4476.3811
L9.0000,-4463.2501
C9.0000,-4461.1816 10.6823,-4459.5001 12.7500,-4459.5001
L37.9787,-4459.5001
A14.5547,14.5547 0.0000 1,0 56.0602,-4477.9236
C56.1840,-4478.3868 56.2500,-4478.8734 56.2500,-4479.3751
L56.2500,-4484.2501
L57.3750,-4484.2501
L57.3750,-4488.7501
L33.7500,-4488.7501
L31.5000,-4491.0001
L57.3750,-4491.0001
L57.3750,-4495.5001
L33.7500,-4495.5001
L31.5000,-4497.7501
L57.3750,-4497.7501
L57.3750,-4502.2501
L33.7500,-4502.2501
L31.5000,-4504.5001
L57.3750,-4504.5001
L57.3750,-4509.0001
L56.2500,-4509.0001
L56.2500,-4514.2501
C56.2500,-4516.3179 54.5685,-4518.0001 52.5000,-4518.0001
L12.7500,-4518.0001
C10.6823,-4518.0001 9.0000,-4516.3179 9.0000,-4514.2501
L9.0000,-4479.3751
C9.0000,-4476.2724 11.5238,-4473.7501 14.6250,-4473.7501
L41.0140,-4473.7501
A14.5547,14.5547 0.0000 0,0 40.3818,-4473.0001
L14.6250,-4473.0001
Z
M2.2500,-4529.2501
L22.5000,-4529.2501
L22.5000,-4531.5001
L2.2500,-4531.5001
L2.2500,-4529.2501
Z
M31.5000,-4520.2501
L33.7500,-4520.2501
L33.7500,-4524.7501
L31.5000,-4524.7501
L31.5000,-4520.2501
Z
M63.0000,-4529.2501
L63.0000,-4531.5001
L42.7500,-4531.5001
L42.7500,-4529.2501
L63.0000,-4529.2501
Z" 
style="stroke-width: 0.7200; stroke: #ffffff; stroke-dasharray: none; stroke-linecap: round; stroke-linejoin: round; fill: none; "/>
</g>
<path d=" 
M76.5000,-4502.2500
L33.7500,-4502.2500
L31.5000,-4504.5000
L76.5000,-4504.5000
L76.5000,-4502.2500
Z" 
style="fill-rule: evenodd; fill: #000000; "/>
<path d=" 
M76.5000,-4495.5000
L33.7500,-4495.5000
L31.5000,-4497.7500
L76.5000,-4497.7500
L76.5000,-4495.5000
Z" 
style="fill-rule: evenodd; fill: #000000; "/>
<path d=" 
M76.5000,-4488.7500
L33.7500,-4488.7500
L31.5000,-4491.0000
L76.5000,-4491.0000
L76.5000,-4488.7500
Z" 
style="fill-rule: evenodd; fill: #000000; "/>
<path d=" 
M63.7500,-4533.7500
L42.7500,-4533.7500
L42.7500,-4534.5000
C42.7500,-4535.3250 42.0750,-4536.0000 41.2500,-4536.0000
L24.0000,-4536.0000
C23.1750,-4536.0000 22.5000,-4535.3250 22.5000,-4534.5000
L22.5000,-4533.7500
L1.5000,-4533.7500
C0.6750,-4533.7500 0.0000,-4533.0758 0.0000,-4532.2500
L0.0000,-4528.5000
C0.0000,-4527.6750 0.6742,-4527.0000 1.5000,-4527.0000
L22.5000,-4527.0000
L22.5000,-4526.2500
C22.5000,-4525.4250 23.1750,-4524.7500 24.0000,-4524.7500
L28.5000,-4524.7500
L28.5000,-4525.5000
C28.5000,-4526.7405 29.5095,-4527.7500 30.7500,-4527.7500
L34.5000,-4527.7500
C35.7405,-4527.7500 36.7500,-4526.7405 36.7500,-4525.5000
L36.7500,-4524.7500
L41.2500,-4524.7500
C42.0750,-4524.7500 42.7500,-4525.4250 42.7500,-4526.2500
L42.7500,-4527.0000
L63.7500,-4527.0000
C64.5757,-4527.0000 65.2500,-4527.6743 65.2500,-4528.5000
L65.2500,-4532.2500
C65.2500,-4533.0758 64.5757,-4533.7500 63.7500,-4533.7500
Z
M2.2500,-4529.2500
L2.2500,-4531.5000
L22.5000,-4531.5000
L22.5000,-4529.2500
L2.2500,-4529.2500
Z
M63.0000,-4529.2500
L42.7500,-4529.2500
L42.7500,-4531.5000
L63.0000,-4531.5000
L63.0000,-4529.2500
Z" 
style="fill-rule: evenodd; fill: #000000; "/>
<path d=" 
M15.7500,-4468.5000
C14.5073,-4468.5000 13.5000,-4467.4920 13.5000,-4466.2500
C13.5000,-4465.0080 14.5073,-4464.0000 15.7500,-4464.0000
C14.9228,-4464.0000 14.2500,-4464.6720 14.2500,-4465.5000
C14.2500,-4466.3280 14.9220,-4467.0000 15.7500,-4467.0000
C16.5780,-4467.0000 17.2500,-4466.3280 17.2500,-4465.5000
C17.2500,-4464.6720 16.5780,-4464.0000 15.7500,-4464.0000
C16.9928,-4464.0000 18.0000,-4465.0080 18.0000,-4466.2500
C18.0000,-4467.4920 16.9928,-4468.5000 15.7500,-4468.5000
Z" 
style="fill-rule: evenodd; fill: #000000; "/>
<path d=" 
M58.4918,-4478.2178
C58.4940,-4478.2163 58.4970,-4478.2148 58.5000,-4478.2140
L58.5000,-4484.2500
L56.2500,-4484.2500
L56.2500,-4479.3750
C56.2500,-4479.2797 56.2402,-4479.1867 56.2350,-4479.0922
C54.8130,-4479.5153 53.3100,-4479.7500 51.7500,-4479.7500
C43.0515,-4479.7500 36.0000,-4472.6985 36.0000,-4464.0000
C36.0000,-4462.4355 36.2355,-4460.9265 36.6608,-4459.5000
L12.7500,-4459.5000
C10.6823,-4459.5000 9.0000,-4461.1815 9.0000,-4463.2500
L9.0000,-4476.3810
C10.0740,-4474.3710 12.1913,-4473.0000 14.6250,-4473.0000
L38.8350,-4473.0000
C39.0143,-4473.2565 39.2025,-4473.5055 39.3960,-4473.7500
L14.6250,-4473.7500
C11.5238,-4473.7500 9.0000,-4476.2723 9.0000,-4479.3750
L9.0000,-4514.2500
C9.0000,-4516.3178 10.6823,-4518.0000 12.7500,-4518.0000
L30.7500,-4518.0000
L34.5000,-4518.0000
L52.5000,-4518.0000
C54.5685,-4518.0000 56.2500,-4516.3178 56.2500,-4514.2500
L56.2500,-4509.0000
L58.5000,-4509.0000
L58.5000,-4514.2500
C58.5000,-4517.5493 55.7993,-4520.2500 52.5000,-4520.2500
L36.0000,-4520.2500
L36.0000,-4525.5000
C36.0000,-4526.3250 35.3257,-4527.0000 34.5000,-4527.0000
L30.7500,-4527.0000
C29.9250,-4527.0000 29.2500,-4526.3258 29.2500,-4525.5000
L29.2500,-4520.2500
L12.7500,-4520.2500
C9.4508,-4520.2500 6.7500,-4517.5493 6.7500,-4514.2500
L6.7500,-4463.2500
C6.7500,-4459.9507 9.4508,-4457.2500 12.7500,-4457.2500
L37.5360,-4457.2500
C37.5352,-4457.2530 37.5338,-4457.2560 37.5330,-4457.2582
C40.0605,-4451.9378 45.4680,-4448.2500 51.7500,-4448.2500
C60.4485,-4448.2500 67.5000,-4455.3015 67.5000,-4464.0000
C67.5000,-4470.2820 63.8123,-4475.6895 58.4918,-4478.2178
Z
M31.5000,-4524.7500
L33.7500,-4524.7500
L33.7500,-4520.2500
L31.5000,-4520.2500
L31.5000,-4524.7500
Z
M51.7500,-4450.5000
C44.3055,-4450.5000 38.2500,-4456.5555 38.2500,-4464.0000
C38.2500,-4471.4445 44.3055,-4477.5000 51.7500,-4477.5000
C59.1945,-4477.5000 65.2500,-4471.4445 65.2500,-4464.0000
C65.2500,-4456.5555 59.1945,-4450.5000 51.7500,-4450.5000
Z" 
style="fill-rule: evenodd; fill: #000000; "/>
<path d=" 
M54.7500,-4459.1250
C54.7500,-4459.7332 53.7322,-4460.4270 52.0252,-4460.9812
C50.4817,-4461.4837 48.7702,-4461.7500 48.1305,-4461.7500
C47.5462,-4461.7500 44.5927,-4460.9520 43.4047,-4459.6252
C42.9300,-4459.0942 42.8422,-4458.5167 43.1370,-4457.8582
C43.3095,-4457.4720 43.6005,-4457.0932 43.9605,-4456.7332
C44.0557,-4456.8502 44.2155,-4456.9050 44.3662,-4456.8570
C44.3767,-4456.8532 45.3870,-4456.5337 47.2567,-4456.5000
C49.1265,-4456.4632 51.2115,-4457.0182 52.6755,-4457.9422
C52.8510,-4458.0517 53.0820,-4458.0000 53.1930,-4457.8260
C53.3025,-4457.6505 53.2507,-4457.4187 53.0752,-4457.3092
C51.5415,-4456.3395 49.3890,-4455.7492 47.4187,-4455.7492
C47.3602,-4455.7492 47.3017,-4455.7500 47.2440,-4455.7507
C46.1655,-4455.7710 45.3667,-4455.8798 44.8447,-4455.9780
C46.2097,-4454.9707 47.9475,-4454.2500 48.7500,-4454.2500
C50.9220,-4454.2500 54.7485,-4457.0685 54.7500,-4459.1250
Z" 
style="fill-rule: evenodd; fill: #010101; "/>
<path d=" 
M47.5957,-4451.1607
C47.7922,-4451.0962 47.9910,-4451.0437 48.1920,-4450.9897
C47.9910,-4451.0437 47.7922,-4451.0977 47.5957,-4451.1607
Z" 
style="fill-rule: evenodd; fill: #010101; "/>
<path d=" 
M62.0302,-4455.2677
C61.8690,-4455.0787 61.7032,-4454.8927 61.5322,-4454.7127
C61.7032,-4454.8927 61.8690,-4455.0787 62.0302,-4455.2677
Z" 
style="fill-rule: evenodd; fill: #010101; "/>
<path d=" 
M49.3087,-4450.7317
C49.1355,-4450.7640 48.9637,-4450.7977 48.7927,-4450.8367
C49.0447,-4450.7805 49.2997,-4450.7362 49.5555,-4450.6957
C49.4722,-4450.7077 49.3905,-4450.7167 49.3087,-4450.7317
Z" 
style="fill-rule: evenodd; fill: #010101; "/>
<path d=" 
M57.3750,-4453.8750
C57.6165,-4453.4947 57.7297,-4453.1422 57.8287,-4452.7957
C59.4315,-4453.6672 60.8220,-4454.8792 61.9162,-4456.3260
C61.5030,-4457.3002 61.1482,-4458.3637 60.8707,-4459.5922
C59.7780,-4464.4072 61.1430,-4463.0167 60.1762,-4467.2212
C59.7060,-4469.3152 58.8697,-4470.9765 57.9397,-4472.0707
C57.0112,-4473.1890 55.7362,-4473.7957 55.1242,-4474.1250
C53.7007,-4474.8900 50.1247,-4476.2490 45.8152,-4474.0140
C41.7735,-4471.9073 41.8177,-4467.6067 42.4020,-4459.4415
C42.5062,-4459.6785 42.6502,-4459.9087 42.8445,-4460.1255
C43.2060,-4460.5282 43.7002,-4460.8845 44.2410,-4461.1920
C43.0552,-4463.3257 43.0507,-4467.6930 45.7500,-4467.0000
C47.4510,-4466.5642 48.0307,-4464.2827 47.6542,-4462.4430
C47.8537,-4462.4797 48.0187,-4462.5000 48.1305,-4462.5000
C48.6322,-4462.5000 49.5427,-4462.3755 50.5327,-4462.1572
C50.0197,-4463.7360 50.3295,-4465.7595 51.4860,-4466.7278
C54.8610,-4469.5552 58.3005,-4462.3245 54.8025,-4460.4165
C55.2592,-4460.0167 55.5007,-4459.5870 55.5000,-4459.1242
C55.5000,-4458.6120 55.3297,-4458.0877 55.0470,-4457.5740
C56.3362,-4457.3557 56.0932,-4455.9142 57.3750,-4453.8750
Z" 
style="fill-rule: evenodd; fill: #010101; "/>
<path d=" 
M43.9912,-4453.9042
C43.9965,-4454.7202 44.0257,-4455.0232 44.0992,-4455.5887
C43.4385,-4456.1205 42.8887,-4456.7257 42.5535,-4457.3670
C42.5767,-4457.0415 42.6000,-4456.7265 42.6255,-4456.3905
C42.6532,-4455.9840 42.6150,-4455.5985 42.5317,-4455.2220
C42.9847,-4454.7480 43.4722,-4454.3055 43.9912,-4453.9042
Z" 
style="fill-rule: evenodd; fill: #010101; "/>
<path d=" 
M43.9905,-4452.9698
C44.1630,-4452.8467 44.3407,-4452.7283 44.5207,-4452.6135
C44.3407,-4452.7283 44.1637,-4452.8482 43.9905,-4452.9698
Z" 
style="fill-rule: evenodd; fill: #010101; "/>
<path d=" 
M43.0807,-4453.6657
C43.2300,-4453.5397 43.3845,-4453.4227 43.5390,-4453.3042
C43.3852,-4453.4220 43.2307,-4453.5397 43.0807,-4453.6657
Z" 
style="fill-rule: evenodd; fill: #010101; "/>
<path d=" 
M45.8040,-4451.8950
C46.2945,-4451.6527 46.8030,-4451.4405 47.3257,-4451.2575
C46.8030,-4451.4405 46.2952,-4451.6535 45.8040,-4451.8950
Z" 
style="fill-rule: evenodd; fill: #010101; "/>
<path d=" 
M62.1457,-4455.4057
C62.1855,-4455.4522 62.2275,-4455.4980 62.2672,-4455.5467
C62.2657,-4455.5497 62.2642,-4455.5520 62.2627,-4455.5543
C62.2237,-4455.5055 62.1870,-4455.4537 62.1457,-4455.4057
Z" 
style="fill-rule: evenodd; fill: #010101; "/>
<path d=" 
M53.2425,-4450.5862
C53.1547,-4450.5765 53.0662,-4450.5705 52.9762,-4450.5615
C52.5720,-4450.5247 52.1647,-4450.5000 51.7500,-4450.5000
C52.6410,-4450.5000 53.5102,-4450.5907 54.3532,-4450.7565
C53.9880,-4450.6845 53.6175,-4450.6290 53.2425,-4450.5862
Z" 
style="fill-rule: evenodd; fill: #010101; "/>
<path d=" 
M57.8122,-4451.9505
C57.6232,-4451.8552 57.4342,-4451.7615 57.2407,-4451.6752
C57.0780,-4451.6017 56.9152,-4451.5342 56.7495,-4451.4690
C56.4855,-4451.3632 56.2192,-4451.2642 55.9485,-4451.1750
C55.8075,-4451.1285 55.6642,-4451.0865 55.5225,-4451.0437
C55.2442,-4450.9642 54.9630,-4450.8915 54.6787,-4450.8277
C54.5805,-4450.8060 54.4822,-4450.7827 54.3840,-4450.7625
C57.1365,-4451.3092 59.5860,-4452.6915 61.4602,-4454.6377
C60.4087,-4453.5495 59.1765,-4452.6382 57.8122,-4451.9505
Z" 
style="fill-rule: evenodd; fill: #010101; "/>
<path d=" 
M50.0842,-4450.6125
C50.6317,-4450.5465 51.1845,-4450.5000 51.7500,-4450.5000
C51.3292,-4450.5000 50.9152,-4450.5247 50.5042,-4450.5630
C50.3625,-4450.5765 50.2237,-4450.5967 50.0842,-4450.6125
Z" 
style="fill-rule: evenodd; fill: #010101; "/>
<path d=" 
M44.9370,-4452.3615
C45.1387,-4452.2445 45.3382,-4452.1275 45.5452,-4452.0187
C45.3382,-4452.1260 45.1387,-4452.2445 44.9370,-4452.3615
Z" 
style="fill-rule: evenodd; fill: #010101; "/>
<path d=" 
M42.2730,-4454.3977
C42.2722,-4454.3962 42.2722,-4454.3947 42.2707,-4454.3917
C42.3607,-4454.3032 42.4612,-4454.2245 42.5542,-4454.1382
C42.4612,-4454.2252 42.3630,-4454.3085 42.2730,-4454.3977
Z" 
style="fill-rule: evenodd; fill: #010101; "/>
<path d=" 
M46.6627,-4463.9738
C46.5645,-4463.7735 46.3642,-4463.6325 46.1250,-4463.6325
C45.7927,-4463.6325 45.5227,-4463.9017 45.5227,-4464.2347
C45.5227,-4464.5040 45.7042,-4464.7237 45.9487,-4464.8017
C45.7920,-4464.8820 45.6217,-4464.9428 45.4275,-4464.9428
C43.9305,-4464.9428 44.0932,-4462.4648 44.9482,-4461.4980
C45.4372,-4461.7125 46.2540,-4461.9780 46.7970,-4462.1475
C46.9485,-4462.7145 46.8967,-4463.4158 46.6627,-4463.9738
Z" 
style="fill-rule: evenodd; fill: #010101; "/>
<path d=" 
M54.6270,-4464.0090
C54.5377,-4463.7878 54.3232,-4463.6325 54.0705,-4463.6325
C53.7382,-4463.6325 53.4682,-4463.9018 53.4682,-4464.2348
C53.4682,-4464.5213 53.6722,-4464.7500 53.9407,-4464.8108
C53.7405,-4464.9210 53.5102,-4464.9878 53.2455,-4464.9878
C51.6502,-4464.9878 51.0885,-4462.6703 52.0095,-4461.6390
C52.4032,-4461.4980 52.8502,-4461.3330 53.2695,-4461.1628
C54.7035,-4461.2460 55.1062,-4462.9035 54.6270,-4464.0090
Z" 
style="fill-rule: evenodd; fill: #010101; "/>
<text x="-12.6828" y="-4448.2500">
<tspan font-family="Arial Narrow" font-weight="bold" font-size="12.0000" fill="#000000" fill-opacity="1.0000" stroke-opacity="1.0000" >
Network Input, Linux</tspan>
</text>
</svg>
