<?xml version="1.0" encoding="UTF-8" standalone="no"?>
<svg version="1.1" xmlns="http://www.w3.org/2000/svg" xmlns:xlink="http://www.w3.org/1999/xlink" width="1.0625in" height="1.2188in" viewBox="0 0 76.5000 87.7500" >
<g id="Layer1096" >
<path d=" 
M14.6250,-4473.0001
C12.1912,-4473.0001 10.0740,-4474.3711 9.0000,-4476.3811
L9.0000,-4463.2501
C9.0000,-4461.1816 10.6822,-4459.5001 12.7500,-4459.5001
L37.9787,-4459.5001
A14.5547,14.5547 0.0000 1,0 56.0602,-4477.9236
C56.1840,-4478.3868 56.2500,-4478.8734 56.2500,-4479.3751
L56.2500,-4484.2501
L57.3750,-4484.2501
L57.3750,-4488.7501
L33.7500,-4488.7501
L31.5000,-4491.0001
L57.3750,-4491.0001
L57.3750,-4495.5001
L33.7500,-4495.5001
L31.5000,-4497.7501
L57.3750,-4497.7501
L57.3750,-4502.2501
L33.7500,-4502.2501
L31.5000,-4504.5001
L57.3750,-4504.5001
L57.3750,-4509.0001
L56.2500,-4509.0001
L56.2500,-4514.2501
C56.2500,-4516.3179 54.5685,-4518.0001 52.5000,-4518.0001
L12.7500,-4518.0001
C10.6822,-4518.0001 9.0000,-4516.3179 9.0000,-4514.2501
L9.0000,-4479.3751
C9.0000,-4476.2724 11.5237,-4473.7501 14.6250,-4473.7501
L41.0140,-4473.7501
A14.5547,14.5547 0.0000 0,0 40.3818,-4473.0001
L14.6250,-4473.0001
Z
M2.2500,-4529.2501
L22.5000,-4529.2501
L22.5000,-4531.5001
L2.2500,-4531.5001
L2.2500,-4529.2501
Z
M31.5000,-4520.2501
L33.7500,-4520.2501
L33.7500,-4524.7501
L31.5000,-4524.7501
L31.5000,-4520.2501
Z
M63.0000,-4529.2501
L63.0000,-4531.5001
L42.7500,-4531.5001
L42.7500,-4529.2501
L63.0000,-4529.2501
Z" 
style="stroke-width: 0.7200; stroke-linecap: round; stroke-linejoin: round; fill-rule: evenodd; fill: #ffffff; "/>
<path d=" 
M14.6250,-4473.0001
C12.1912,-4473.0001 10.0740,-4474.3711 9.0000,-4476.3811
L9.0000,-4463.2501
C9.0000,-4461.1816 10.6822,-4459.5001 12.7500,-4459.5001
L37.9787,-4459.5001
A14.5547,14.5547 0.0000 1,0 56.0602,-4477.9236
C56.1840,-4478.3868 56.2500,-4478.8734 56.2500,-4479.3751
L56.2500,-4484.2501
L57.3750,-4484.2501
L57.3750,-4488.7501
L33.7500,-4488.7501
L31.5000,-4491.0001
L57.3750,-4491.0001
L57.3750,-4495.5001
L33.7500,-4495.5001
L31.5000,-4497.7501
L57.3750,-4497.7501
L57.3750,-4502.2501
L33.7500,-4502.2501
L31.5000,-4504.5001
L57.3750,-4504.5001
L57.3750,-4509.0001
L56.2500,-4509.0001
L56.2500,-4514.2501
C56.2500,-4516.3179 54.5685,-4518.0001 52.5000,-4518.0001
L12.7500,-4518.0001
C10.6822,-4518.0001 9.0000,-4516.3179 9.0000,-4514.2501
L9.0000,-4479.3751
C9.0000,-4476.2724 11.5237,-4473.7501 14.6250,-4473.7501
L41.0140,-4473.7501
A14.5547,14.5547 0.0000 0,0 40.3818,-4473.0001
L14.6250,-4473.0001
Z
M2.2500,-4529.2501
L22.5000,-4529.2501
L22.5000,-4531.5001
L2.2500,-4531.5001
L2.2500,-4529.2501
Z
M31.5000,-4520.2501
L33.7500,-4520.2501
L33.7500,-4524.7501
L31.5000,-4524.7501
L31.5000,-4520.2501
Z
M63.0000,-4529.2501
L63.0000,-4531.5001
L42.7500,-4531.5001
L42.7500,-4529.2501
L63.0000,-4529.2501
Z" 
style="stroke-width: 0.7200; stroke: #ffffff; stroke-dasharray: none; stroke-linecap: round; stroke-linejoin: round; fill: none; "/>
</g>
<path d=" 
M76.5000,-4502.2500
L33.7500,-4502.2500
L31.5000,-4504.5000
L76.5000,-4504.5000
L76.5000,-4502.2500
Z" 
style="fill-rule: evenodd; fill: #000000; "/>
<path d=" 
M76.5000,-4495.5000
L33.7500,-4495.5000
L31.5000,-4497.7500
L76.5000,-4497.7500
L76.5000,-4495.5000
Z" 
style="fill-rule: evenodd; fill: #000000; "/>
<path d=" 
M76.5000,-4488.7500
L33.7500,-4488.7500
L31.5000,-4491.0000
L76.5000,-4491.0000
L76.5000,-4488.7500
Z" 
style="fill-rule: evenodd; fill: #000000; "/>
<path d=" 
M63.7500,-4533.7500
L42.7500,-4533.7500
L42.7500,-4534.5000
C42.7500,-4535.3250 42.0750,-4536.0000 41.2500,-4536.0000
L24.0000,-4536.0000
C23.1750,-4536.0000 22.5000,-4535.3250 22.5000,-4534.5000
L22.5000,-4533.7500
L1.5000,-4533.7500
C0.6750,-4533.7500 0.0000,-4533.0758 0.0000,-4532.2500
L0.0000,-4528.5000
C0.0000,-4527.6750 0.6742,-4527.0000 1.5000,-4527.0000
L22.5000,-4527.0000
L22.5000,-4526.2500
C22.5000,-4525.4250 23.1750,-4524.7500 24.0000,-4524.7500
L28.5000,-4524.7500
L28.5000,-4525.5000
C28.5000,-4526.7405 29.5095,-4527.7500 30.7500,-4527.7500
L34.5000,-4527.7500
C35.7405,-4527.7500 36.7500,-4526.7405 36.7500,-4525.5000
L36.7500,-4524.7500
L41.2500,-4524.7500
C42.0750,-4524.7500 42.7500,-4525.4250 42.7500,-4526.2500
L42.7500,-4527.0000
L63.7500,-4527.0000
C64.5757,-4527.0000 65.2500,-4527.6743 65.2500,-4528.5000
L65.2500,-4532.2500
C65.2500,-4533.0758 64.5757,-4533.7500 63.7500,-4533.7500
Z
M2.2500,-4529.2500
L2.2500,-4531.5000
L22.5000,-4531.5000
L22.5000,-4529.2500
L2.2500,-4529.2500
Z
M63.0000,-4529.2500
L42.7500,-4529.2500
L42.7500,-4531.5000
L63.0000,-4531.5000
L63.0000,-4529.2500
Z" 
style="fill-rule: evenodd; fill: #000000; "/>
<path d=" 
M15.7500,-4468.5000
C14.5073,-4468.5000 13.5000,-4467.4920 13.5000,-4466.2500
C13.5000,-4465.0080 14.5073,-4464.0000 15.7500,-4464.0000
C14.9228,-4464.0000 14.2500,-4464.6720 14.2500,-4465.5000
C14.2500,-4466.3280 14.9220,-4467.0000 15.7500,-4467.0000
C16.5780,-4467.0000 17.2500,-4466.3280 17.2500,-4465.5000
C17.2500,-4464.6720 16.5780,-4464.0000 15.7500,-4464.0000
C16.9928,-4464.0000 18.0000,-4465.0080 18.0000,-4466.2500
C18.0000,-4467.4920 16.9928,-4468.5000 15.7500,-4468.5000
Z" 
style="fill-rule: evenodd; fill: #000000; "/>
<path d=" 
M58.4918,-4478.2178
C58.4940,-4478.2163 58.4970,-4478.2148 58.5000,-4478.2140
L58.5000,-4484.2500
L56.2500,-4484.2500
L56.2500,-4479.3750
C56.2500,-4479.2797 56.2402,-4479.1867 56.2350,-4479.0922
C54.8130,-4479.5153 53.3100,-4479.7500 51.7500,-4479.7500
C43.0515,-4479.7500 36.0000,-4472.6985 36.0000,-4464.0000
C36.0000,-4462.4355 36.2355,-4460.9265 36.6608,-4459.5000
L12.7500,-4459.5000
C10.6823,-4459.5000 9.0000,-4461.1815 9.0000,-4463.2500
L9.0000,-4476.3810
C10.0740,-4474.3710 12.1913,-4473.0000 14.6250,-4473.0000
L38.8350,-4473.0000
C39.0143,-4473.2565 39.2025,-4473.5055 39.3960,-4473.7500
L14.6250,-4473.7500
C11.5238,-4473.7500 9.0000,-4476.2723 9.0000,-4479.3750
L9.0000,-4514.2500
C9.0000,-4516.3178 10.6823,-4518.0000 12.7500,-4518.0000
L30.7500,-4518.0000
L34.5000,-4518.0000
L52.5000,-4518.0000
C54.5685,-4518.0000 56.2500,-4516.3178 56.2500,-4514.2500
L56.2500,-4509.0000
L58.5000,-4509.0000
L58.5000,-4514.2500
C58.5000,-4517.5493 55.7993,-4520.2500 52.5000,-4520.2500
L36.0000,-4520.2500
L36.0000,-4525.5000
C36.0000,-4526.3250 35.3257,-4527.0000 34.5000,-4527.0000
L30.7500,-4527.0000
C29.9250,-4527.0000 29.2500,-4526.3258 29.2500,-4525.5000
L29.2500,-4520.2500
L12.7500,-4520.2500
C9.4508,-4520.2500 6.7500,-4517.5493 6.7500,-4514.2500
L6.7500,-4463.2500
C6.7500,-4459.9507 9.4508,-4457.2500 12.7500,-4457.2500
L37.5360,-4457.2500
C37.5352,-4457.2530 37.5338,-4457.2560 37.5330,-4457.2582
C40.0605,-4451.9378 45.4680,-4448.2500 51.7500,-4448.2500
C60.4485,-4448.2500 67.5000,-4455.3015 67.5000,-4464.0000
C67.5000,-4470.2820 63.8123,-4475.6895 58.4918,-4478.2178
Z
M31.5000,-4524.7500
L33.7500,-4524.7500
L33.7500,-4520.2500
L31.5000,-4520.2500
L31.5000,-4524.7500
Z
M51.7500,-4450.5000
C44.3055,-4450.5000 38.2500,-4456.5555 38.2500,-4464.0000
C38.2500,-4471.4445 44.3055,-4477.5000 51.7500,-4477.5000
C59.1945,-4477.5000 65.2500,-4471.4445 65.2500,-4464.0000
C65.2500,-4456.5555 59.1945,-4450.5000 51.7500,-4450.5000
Z" 
style="fill-rule: evenodd; fill: #000000; "/>
<path d=" 
M57.9832,-4468.2127
C57.3030,-4469.0610 56.3880,-4469.9092 54.9787,-4469.9092
C53.9932,-4469.9092 53.1712,-4468.9440 51.8085,-4468.9440
C50.7292,-4468.9440 50.2837,-4469.8628 49.1100,-4469.8628
C46.6672,-4469.8628 44.2500,-4467.6713 44.2500,-4464.8190
C44.2500,-4463.3115 44.7427,-4460.9783 45.8467,-4458.9510
C46.6447,-4457.4667 47.6310,-4456.5000 48.7342,-4456.5000
C49.5322,-4456.5000 50.4712,-4457.2312 51.5977,-4457.2312
C52.5832,-4457.2312 53.4990,-4456.5712 54.3915,-4456.5712
C56.5290,-4456.5712 58.5007,-4459.3522 58.5007,-4461.2137
C58.5007,-4461.3075 58.4775,-4461.3780 58.4775,-4461.4477
L58.4775,-4461.5662
C57.0915,-4462.3207 56.3407,-4463.4277 56.3407,-4465.0305
C56.3407,-4466.3273 56.9040,-4467.4575 57.9367,-4468.1888
L57.9832,-4468.2127
Z" 
style="fill-rule: evenodd; fill: #000000; "/>
<path d=" 
M51.7612,-4469.2485
C53.3572,-4469.7435 54.8370,-4470.9457 54.8370,-4473.0427
C54.8370,-4473.2085 54.8122,-4473.4207 54.7905,-4473.6562
L54.7657,-4473.7500
C53.1457,-4473.3015 51.6892,-4472.0302 51.6892,-4470.0262
C51.6892,-4469.8372 51.7125,-4469.6017 51.7605,-4469.3422
L51.7605,-4469.2485
L51.7612,-4469.2485
Z" 
style="fill-rule: evenodd; fill: #000000; "/>
<text x="-7.8759" y="-4448.2500">
<tspan font-family="Arial Narrow" font-weight="bold" font-size="12.0000" fill="#000000" fill-opacity="1.0000" stroke-opacity="1.0000" >
Network Input, Mac</tspan>
</text>
</svg>
