<?xml version="1.0" encoding="UTF-8" standalone="no"?>
<svg version="1.1" xmlns="http://www.w3.org/2000/svg" xmlns:xlink="http://www.w3.org/1999/xlink" width="1.0625in" height="1.0938in" viewBox="0 0 76.5000 78.7500" >
<g id="Layer1094" >
<path d=" 
M63.0000,-4529.2499
L63.0000,-4531.4999
L42.7500,-4531.4999
L42.7500,-4529.2499
L63.0000,-4529.2499
Z
M31.5000,-4520.2499
L33.7500,-4520.2499
L33.7500,-4524.7499
L31.5000,-4524.7499
L31.5000,-4520.2499
Z
M12.7500,-4517.9999
C10.6822,-4517.9999 9.0000,-4516.3176 9.0000,-4514.2499
L9.0000,-4479.3749
C9.0000,-4476.2721 11.5237,-4473.7499 14.6250,-4473.7499
L50.6250,-4473.7499
C53.7262,-4473.7499 56.2500,-4476.2721 56.2500,-4479.3749
L56.2500,-4484.2499
L57.3750,-4484.2499
L57.3750,-4488.7499
L33.7500,-4488.7499
L31.5000,-4490.9999
L57.3750,-4490.9999
L57.3750,-4495.4999
L33.7500,-4495.4999
L31.5000,-4497.7499
L57.3750,-4497.7499
L57.3750,-4502.2499
L33.7500,-4502.2499
L31.5000,-4504.4999
L57.3750,-4504.4999
L57.3750,-4508.9999
L56.2500,-4508.9999
L56.2500,-4514.2499
C56.2500,-4516.3176 54.5685,-4517.9999 52.5000,-4517.9999
L12.7500,-4517.9999
Z
M14.6250,-4472.9999
C12.1912,-4472.9999 10.0740,-4474.3709 9.0000,-4476.3809
L9.0000,-4463.2499
C9.0000,-4461.1814 10.6822,-4459.4999 12.7500,-4459.4999
L52.5000,-4459.4999
C54.5685,-4459.4999 56.2500,-4461.1814 56.2500,-4463.2499
L56.2500,-4476.3809
C55.1760,-4474.3709 53.0580,-4472.9999 50.6250,-4472.9999
L14.6250,-4472.9999
Z
M2.2500,-4529.2499
L22.5000,-4529.2499
L22.5000,-4531.4999
L2.2500,-4531.4999
L2.2500,-4529.2499
Z" 
style="stroke-width: 0.7200; stroke-linecap: round; stroke-linejoin: round; fill-rule: evenodd; fill: #ffffff; "/>
<path d=" 
M63.0000,-4529.2499
L63.0000,-4531.4999
L42.7500,-4531.4999
L42.7500,-4529.2499
L63.0000,-4529.2499
Z
M31.5000,-4520.2499
L33.7500,-4520.2499
L33.7500,-4524.7499
L31.5000,-4524.7499
L31.5000,-4520.2499
Z
M12.7500,-4517.9999
C10.6822,-4517.9999 9.0000,-4516.3176 9.0000,-4514.2499
L9.0000,-4479.3749
C9.0000,-4476.2721 11.5237,-4473.7499 14.6250,-4473.7499
L50.6250,-4473.7499
C53.7262,-4473.7499 56.2500,-4476.2721 56.2500,-4479.3749
L56.2500,-4484.2499
L57.3750,-4484.2499
L57.3750,-4488.7499
L33.7500,-4488.7499
L31.5000,-4490.9999
L57.3750,-4490.9999
L57.3750,-4495.4999
L33.7500,-4495.4999
L31.5000,-4497.7499
L57.3750,-4497.7499
L57.3750,-4502.2499
L33.7500,-4502.2499
L31.5000,-4504.4999
L57.3750,-4504.4999
L57.3750,-4508.9999
L56.2500,-4508.9999
L56.2500,-4514.2499
C56.2500,-4516.3176 54.5685,-4517.9999 52.5000,-4517.9999
L12.7500,-4517.9999
Z
M14.6250,-4472.9999
C12.1912,-4472.9999 10.0740,-4474.3709 9.0000,-4476.3809
L9.0000,-4463.2499
C9.0000,-4461.1814 10.6822,-4459.4999 12.7500,-4459.4999
L52.5000,-4459.4999
C54.5685,-4459.4999 56.2500,-4461.1814 56.2500,-4463.2499
L56.2500,-4476.3809
C55.1760,-4474.3709 53.0580,-4472.9999 50.6250,-4472.9999
L14.6250,-4472.9999
Z
M2.2500,-4529.2499
L22.5000,-4529.2499
L22.5000,-4531.4999
L2.2500,-4531.4999
L2.2500,-4529.2499
Z" 
style="stroke-width: 0.7200; stroke: #ffffff; stroke-dasharray: none; stroke-linecap: round; stroke-linejoin: round; fill: none; "/>
</g>
<path d=" 
M76.5000,-4502.2500
L33.7500,-4502.2500
L31.5000,-4504.5000
L76.5000,-4504.5000
L76.5000,-4502.2500
Z" 
style="fill-rule: evenodd; fill: #000000; "/>
<path d=" 
M76.5000,-4495.5000
L33.7500,-4495.5000
L31.5000,-4497.7500
L76.5000,-4497.7500
L76.5000,-4495.5000
Z" 
style="fill-rule: evenodd; fill: #000000; "/>
<path d=" 
M76.5000,-4488.7500
L33.7500,-4488.7500
L31.5000,-4491.0000
L76.5000,-4491.0000
L76.5000,-4488.7500
Z" 
style="fill-rule: evenodd; fill: #000000; "/>
<path d=" 
M63.7500,-4533.7500
L42.7500,-4533.7500
L42.7500,-4534.5000
C42.7500,-4535.3250 42.0750,-4536.0000 41.2500,-4536.0000
L24.0000,-4536.0000
C23.1750,-4536.0000 22.5000,-4535.3250 22.5000,-4534.5000
L22.5000,-4533.7500
L1.5000,-4533.7500
C0.6750,-4533.7500 0.0000,-4533.0757 0.0000,-4532.2500
L0.0000,-4528.5000
C0.0000,-4527.6750 0.6742,-4527.0000 1.5000,-4527.0000
L22.5000,-4527.0000
L22.5000,-4526.2500
C22.5000,-4525.4250 23.1750,-4524.7500 24.0000,-4524.7500
L28.5000,-4524.7500
L28.5000,-4525.5000
C28.5000,-4526.7405 29.5095,-4527.7500 30.7500,-4527.7500
L34.5000,-4527.7500
C35.7405,-4527.7500 36.7500,-4526.7405 36.7500,-4525.5000
L36.7500,-4524.7500
L41.2500,-4524.7500
C42.0750,-4524.7500 42.7500,-4525.4250 42.7500,-4526.2500
L42.7500,-4527.0000
L63.7500,-4527.0000
C64.5757,-4527.0000 65.2500,-4527.6743 65.2500,-4528.5000
L65.2500,-4532.2500
C65.2500,-4533.0757 64.5757,-4533.7500 63.7500,-4533.7500
Z
M2.2500,-4529.2500
L2.2500,-4531.5000
L22.5000,-4531.5000
L22.5000,-4529.2500
L2.2500,-4529.2500
Z
M63.0000,-4529.2500
L42.7500,-4529.2500
L42.7500,-4531.5000
L63.0000,-4531.5000
L63.0000,-4529.2500
Z" 
style="fill-rule: evenodd; fill: #000000; "/>
<path d=" 
M58.5000,-4509.0000
L58.5000,-4514.2500
C58.5000,-4517.5493 55.7992,-4520.2500 52.5000,-4520.2500
L36.0000,-4520.2500
L36.0000,-4525.5000
C36.0000,-4526.3250 35.3257,-4527.0000 34.5000,-4527.0000
L30.7500,-4527.0000
C29.9250,-4527.0000 29.2500,-4526.3257 29.2500,-4525.5000
L29.2500,-4520.2500
L12.7500,-4520.2500
C9.4507,-4520.2500 6.7500,-4517.5493 6.7500,-4514.2500
L6.7500,-4463.2500
C6.7500,-4459.9507 9.4507,-4457.2500 12.7500,-4457.2500
L52.5000,-4457.2500
C55.7992,-4457.2500 58.5000,-4459.9507 58.5000,-4463.2500
L58.5000,-4484.2500
L56.2500,-4484.2500
L56.2500,-4479.3750
C56.2500,-4476.2722 53.7262,-4473.7500 50.6250,-4473.7500
L14.6250,-4473.7500
C11.5237,-4473.7500 9.0000,-4476.2722 9.0000,-4479.3750
L9.0000,-4514.2500
C9.0000,-4516.3178 10.6822,-4518.0000 12.7500,-4518.0000
L30.7500,-4518.0000
L34.5000,-4518.0000
L52.5000,-4518.0000
C54.5685,-4518.0000 56.2500,-4516.3178 56.2500,-4514.2500
L56.2500,-4509.0000
L58.5000,-4509.0000
Z
M14.6250,-4473.0000
L50.6250,-4473.0000
C53.0580,-4473.0000 55.1760,-4474.3710 56.2500,-4476.3810
L56.2500,-4463.2500
C56.2500,-4461.1815 54.5685,-4459.5000 52.5000,-4459.5000
L12.7500,-4459.5000
C10.6822,-4459.5000 9.0000,-4461.1815 9.0000,-4463.2500
L9.0000,-4476.3810
C10.0740,-4474.3710 12.1912,-4473.0000 14.6250,-4473.0000
Z
M31.5000,-4520.2500
L31.5000,-4524.7500
L33.7500,-4524.7500
L33.7500,-4520.2500
L31.5000,-4520.2500
Z" 
style="fill-rule: evenodd; fill: #000000; "/>
<path d=" 
M15.7500,-4464.0000
C14.9228,-4464.0000 14.2500,-4464.6720 14.2500,-4465.5000
C14.2500,-4466.3280 14.9220,-4467.0000 15.7500,-4467.0000
C16.5780,-4467.0000 17.2500,-4466.3280 17.2500,-4465.5000
C17.2500,-4464.6720 16.5773,-4464.0000 15.7500,-4464.0000
C16.9928,-4464.0000 18.0000,-4465.0080 18.0000,-4466.2500
C18.0000,-4467.4920 16.9928,-4468.5000 15.7500,-4468.5000
C14.5073,-4468.5000 13.5000,-4467.4920 13.5000,-4466.2500
C13.5000,-4465.0080 14.5073,-4464.0000 15.7500,-4464.0000
Z" 
style="fill-rule: evenodd; fill: #000000; "/>
<text x="-11.6450" y="-4457.2500">
<tspan font-family="Arial Narrow" font-weight="bold" font-size="12.0000" fill="#000000" fill-opacity="1.0000" stroke-opacity="1.0000" >
Network Input</tspan>
</text>
</svg>
