<?xml version="1.0" encoding="UTF-8" standalone="no"?>
<svg version="1.1" xmlns="http://www.w3.org/2000/svg" xmlns:xlink="http://www.w3.org/1999/xlink" width="1.0625in" height="1.2188in" viewBox="0 0 76.5000 87.7500" >
<g id="Layer1097" >
<path d=" 
M14.0625,-4473.0001
C11.6288,-4473.0001 9.5115,-4474.3711 8.4375,-4476.3811
L8.4375,-4463.2501
C8.4375,-4461.1816 10.1198,-4459.5001 12.1875,-4459.5001
L37.4162,-4459.5001
A14.5547,14.5547 0.0000 1,0 55.4977,-4477.9236
C55.6215,-4478.3868 55.6875,-4478.8734 55.6875,-4479.3751
L55.6875,-4484.2501
L56.8125,-4484.2501
L56.8125,-4488.7501
L33.1875,-4488.7501
L30.9375,-4491.0001
L56.8125,-4491.0001
L56.8125,-4495.5001
L33.1875,-4495.5001
L30.9375,-4497.7501
L56.8125,-4497.7501
L56.8125,-4502.2501
L33.1875,-4502.2501
L30.9375,-4504.5001
L56.8125,-4504.5001
L56.8125,-4509.0001
L55.6875,-4509.0001
L55.6875,-4514.2501
C55.6875,-4516.3179 54.0060,-4518.0001 51.9375,-4518.0001
L12.1875,-4518.0001
C10.1198,-4518.0001 8.4375,-4516.3179 8.4375,-4514.2501
L8.4375,-4479.3751
C8.4375,-4476.2724 10.9613,-4473.7501 14.0625,-4473.7501
L40.4515,-4473.7501
A14.5547,14.5547 0.0000 0,0 39.8193,-4473.0001
L14.0625,-4473.0001
Z
M1.6875,-4529.2501
L21.9375,-4529.2501
L21.9375,-4531.5001
L1.6875,-4531.5001
L1.6875,-4529.2501
Z
M30.9375,-4520.2501
L33.1875,-4520.2501
L33.1875,-4524.7501
L30.9375,-4524.7501
L30.9375,-4520.2501
Z
M62.4375,-4529.2501
L62.4375,-4531.5001
L42.1875,-4531.5001
L42.1875,-4529.2501
L62.4375,-4529.2501
Z" 
style="stroke-width: 0.7200; stroke-linecap: round; stroke-linejoin: round; fill-rule: evenodd; fill: #ffffff; "/>
<path d=" 
M14.0625,-4473.0001
C11.6288,-4473.0001 9.5115,-4474.3711 8.4375,-4476.3811
L8.4375,-4463.2501
C8.4375,-4461.1816 10.1198,-4459.5001 12.1875,-4459.5001
L37.4162,-4459.5001
A14.5547,14.5547 0.0000 1,0 55.4977,-4477.9236
C55.6215,-4478.3868 55.6875,-4478.8734 55.6875,-4479.3751
L55.6875,-4484.2501
L56.8125,-4484.2501
L56.8125,-4488.7501
L33.1875,-4488.7501
L30.9375,-4491.0001
L56.8125,-4491.0001
L56.8125,-4495.5001
L33.1875,-4495.5001
L30.9375,-4497.7501
L56.8125,-4497.7501
L56.8125,-4502.2501
L33.1875,-4502.2501
L30.9375,-4504.5001
L56.8125,-4504.5001
L56.8125,-4509.0001
L55.6875,-4509.0001
L55.6875,-4514.2501
C55.6875,-4516.3179 54.0060,-4518.0001 51.9375,-4518.0001
L12.1875,-4518.0001
C10.1198,-4518.0001 8.4375,-4516.3179 8.4375,-4514.2501
L8.4375,-4479.3751
C8.4375,-4476.2724 10.9613,-4473.7501 14.0625,-4473.7501
L40.4515,-4473.7501
A14.5547,14.5547 0.0000 0,0 39.8193,-4473.0001
L14.0625,-4473.0001
Z
M1.6875,-4529.2501
L21.9375,-4529.2501
L21.9375,-4531.5001
L1.6875,-4531.5001
L1.6875,-4529.2501
Z
M30.9375,-4520.2501
L33.1875,-4520.2501
L33.1875,-4524.7501
L30.9375,-4524.7501
L30.9375,-4520.2501
Z
M62.4375,-4529.2501
L62.4375,-4531.5001
L42.1875,-4531.5001
L42.1875,-4529.2501
L62.4375,-4529.2501
Z" 
style="stroke-width: 0.7200; stroke: #ffffff; stroke-dasharray: none; stroke-linecap: round; stroke-linejoin: round; fill: none; "/>
</g>
<path d=" 
M76.5000,-4502.2500
L33.7500,-4502.2500
L31.5000,-4504.5000
L76.5000,-4504.5000
L76.5000,-4502.2500
Z" 
style="fill-rule: evenodd; fill: #000000; "/>
<path d=" 
M76.5000,-4495.5000
L33.7500,-4495.5000
L31.5000,-4497.7500
L76.5000,-4497.7500
L76.5000,-4495.5000
Z" 
style="fill-rule: evenodd; fill: #000000; "/>
<path d=" 
M76.5000,-4488.7500
L33.7500,-4488.7500
L31.5000,-4491.0000
L76.5000,-4491.0000
L76.5000,-4488.7500
Z" 
style="fill-rule: evenodd; fill: #000000; "/>
<path d=" 
M63.7500,-4533.7500
L42.7500,-4533.7500
L42.7500,-4534.5000
C42.7500,-4535.3250 42.0750,-4536.0000 41.2500,-4536.0000
L24.0000,-4536.0000
C23.1750,-4536.0000 22.5000,-4535.3250 22.5000,-4534.5000
L22.5000,-4533.7500
L1.5000,-4533.7500
C0.6750,-4533.7500 0.0000,-4533.0758 0.0000,-4532.2500
L0.0000,-4528.5000
C0.0000,-4527.6750 0.6742,-4527.0000 1.5000,-4527.0000
L22.5000,-4527.0000
L22.5000,-4526.2500
C22.5000,-4525.4250 23.1750,-4524.7500 24.0000,-4524.7500
L28.5000,-4524.7500
L28.5000,-4525.5000
C28.5000,-4526.7405 29.5095,-4527.7500 30.7500,-4527.7500
L34.5000,-4527.7500
C35.7405,-4527.7500 36.7500,-4526.7405 36.7500,-4525.5000
L36.7500,-4524.7500
L41.2500,-4524.7500
C42.0750,-4524.7500 42.7500,-4525.4250 42.7500,-4526.2500
L42.7500,-4527.0000
L63.7500,-4527.0000
C64.5757,-4527.0000 65.2500,-4527.6743 65.2500,-4528.5000
L65.2500,-4532.2500
C65.2500,-4533.0758 64.5757,-4533.7500 63.7500,-4533.7500
Z
M2.2500,-4529.2500
L2.2500,-4531.5000
L22.5000,-4531.5000
L22.5000,-4529.2500
L2.2500,-4529.2500
Z
M63.0000,-4529.2500
L42.7500,-4529.2500
L42.7500,-4531.5000
L63.0000,-4531.5000
L63.0000,-4529.2500
Z" 
style="fill-rule: evenodd; fill: #000000; "/>
<path d=" 
M15.7500,-4468.5000
C14.5073,-4468.5000 13.5000,-4467.4920 13.5000,-4466.2500
C13.5000,-4465.0080 14.5073,-4464.0000 15.7500,-4464.0000
C14.9228,-4464.0000 14.2500,-4464.6720 14.2500,-4465.5000
C14.2500,-4466.3280 14.9220,-4467.0000 15.7500,-4467.0000
C16.5780,-4467.0000 17.2500,-4466.3280 17.2500,-4465.5000
C17.2500,-4464.6720 16.5780,-4464.0000 15.7500,-4464.0000
C16.9928,-4464.0000 18.0000,-4465.0080 18.0000,-4466.2500
C18.0000,-4467.4920 16.9928,-4468.5000 15.7500,-4468.5000
Z" 
style="fill-rule: evenodd; fill: #000000; "/>
<path d=" 
M58.4918,-4478.2178
C58.4940,-4478.2163 58.4970,-4478.2148 58.5000,-4478.2140
L58.5000,-4484.2500
L56.2500,-4484.2500
L56.2500,-4479.3750
C56.2500,-4479.2797 56.2402,-4479.1867 56.2350,-4479.0922
C54.8130,-4479.5153 53.3100,-4479.7500 51.7500,-4479.7500
C43.0515,-4479.7500 36.0000,-4472.6985 36.0000,-4464.0000
C36.0000,-4462.4355 36.2355,-4460.9265 36.6608,-4459.5000
L12.7500,-4459.5000
C10.6823,-4459.5000 9.0000,-4461.1815 9.0000,-4463.2500
L9.0000,-4476.3810
C10.0740,-4474.3710 12.1913,-4473.0000 14.6250,-4473.0000
L38.8350,-4473.0000
C39.0143,-4473.2565 39.2025,-4473.5055 39.3960,-4473.7500
L14.6250,-4473.7500
C11.5238,-4473.7500 9.0000,-4476.2723 9.0000,-4479.3750
L9.0000,-4514.2500
C9.0000,-4516.3178 10.6823,-4518.0000 12.7500,-4518.0000
L30.7500,-4518.0000
L34.5000,-4518.0000
L52.5000,-4518.0000
C54.5685,-4518.0000 56.2500,-4516.3178 56.2500,-4514.2500
L56.2500,-4509.0000
L58.5000,-4509.0000
L58.5000,-4514.2500
C58.5000,-4517.5493 55.7993,-4520.2500 52.5000,-4520.2500
L36.0000,-4520.2500
L36.0000,-4525.5000
C36.0000,-4526.3250 35.3257,-4527.0000 34.5000,-4527.0000
L30.7500,-4527.0000
C29.9250,-4527.0000 29.2500,-4526.3258 29.2500,-4525.5000
L29.2500,-4520.2500
L12.7500,-4520.2500
C9.4508,-4520.2500 6.7500,-4517.5493 6.7500,-4514.2500
L6.7500,-4463.2500
C6.7500,-4459.9507 9.4508,-4457.2500 12.7500,-4457.2500
L37.5360,-4457.2500
C37.5352,-4457.2530 37.5338,-4457.2560 37.5330,-4457.2582
C40.0605,-4451.9378 45.4680,-4448.2500 51.7500,-4448.2500
C60.4485,-4448.2500 67.5000,-4455.3015 67.5000,-4464.0000
C67.5000,-4470.2820 63.8123,-4475.6895 58.4918,-4478.2178
Z
M31.5000,-4524.7500
L33.7500,-4524.7500
L33.7500,-4520.2500
L31.5000,-4520.2500
L31.5000,-4524.7500
Z
M51.7500,-4450.5000
C44.3055,-4450.5000 38.2500,-4456.5555 38.2500,-4464.0000
C38.2500,-4471.4445 44.3055,-4477.5000 51.7500,-4477.5000
C59.1945,-4477.5000 65.2500,-4471.4445 65.2500,-4464.0000
C65.2500,-4456.5555 59.1945,-4450.5000 51.7500,-4450.5000
Z" 
style="fill-rule: evenodd; fill: #000000; "/>
<path d=" 
M51.2213,-4465.8000
C50.5913,-4466.1675 49.3815,-4466.7802 48.3090,-4466.7802
C48.2198,-4466.7802 48.1320,-4466.7773 48.0450,-4466.7683
C47.1150,-4466.6760 46.0193,-4466.3715 45.3263,-4466.1547
L46.8045,-4471.2278
C47.1855,-4471.4047 48.3248,-4471.8750 49.6950,-4471.8750
C50.8185,-4471.8750 51.8393,-4471.5630 52.7303,-4470.9465
L51.2213,-4465.8000
Z" 
style="fill-rule: evenodd; fill: #000000; "/>
<path d=" 
M49.1940,-4458.7792
C48.5580,-4459.1340 47.3325,-4459.7310 46.2893,-4459.7310
C46.2173,-4459.7310 46.1475,-4459.7272 46.0785,-4459.7227
C44.9183,-4459.6260 44.0190,-4459.4738 43.3245,-4459.2525
L44.7750,-4464.2655
C45.2175,-4464.4500 46.5323,-4464.9525 47.7090,-4464.9525
C47.7975,-4464.9525 47.8845,-4464.9495 47.9730,-4464.9435
C49.1978,-4464.8557 50.2290,-4464.3030 50.7210,-4463.9910
L49.1940,-4458.7792
Z" 
style="fill-rule: evenodd; fill: #000000; "/>
<path d=" 
M53.4270,-4456.8810
C52.1895,-4456.9425 51.3263,-4457.5110 50.8620,-4457.8170
C50.8373,-4457.8327 50.8110,-4457.8500 50.7870,-4457.8650
L52.2810,-4463.0025
C52.9140,-4462.6448 54.1222,-4462.0387 55.0582,-4462.0387
C56.1922,-4462.0680 56.9730,-4462.1573 58.1550,-4462.5600
C57.9217,-4461.7883 57.5040,-4460.3363 56.7075,-4457.5740
C56.2620,-4457.3880 54.9187,-4456.8750 53.6505,-4456.8750
C53.5770,-4456.8750 53.5020,-4456.8765 53.4270,-4456.8810
Z" 
style="fill-rule: evenodd; fill: #000000; "/>
<path d=" 
M55.4850,-4463.7525
C54.1815,-4463.7525 53.1630,-4464.4515 52.7782,-4464.7605
L54.2887,-4469.8755
C54.8340,-4469.5327 55.7115,-4469.0887 56.9445,-4468.9500
C57.0810,-4468.9350 57.2242,-4468.9282 57.3705,-4468.9282
C58.3395,-4468.9282 59.4682,-4469.2462 60.1830,-4469.4877
L58.7272,-4464.4807
C58.7167,-4464.4748 58.7055,-4464.4702 58.6950,-4464.4650
C58.2742,-4464.2820 57.2932,-4463.8500 55.7070,-4463.7607
C55.6320,-4463.7555 55.5577,-4463.7525 55.4850,-4463.7525
Z" 
style="fill-rule: evenodd; fill: #000000; "/>
<text x="-21.0690" y="-4448.2500">
<tspan font-family="Arial Narrow" font-weight="bold" font-size="12.0000" fill="#000000" fill-opacity="1.0000" stroke-opacity="1.0000" >
Network Input, Windows</tspan>
</text>
</svg>
