<?xml version="1.0" encoding="UTF-8" standalone="no"?>
<svg version="1.1" xmlns="http://www.w3.org/2000/svg" xmlns:xlink="http://www.w3.org/1999/xlink" width="1.0312in" height="1.0938in" viewBox="0 0 74.2500 78.7500" >
<g id="Layer1120" >
<path d=" 
M69.7500,-4529.2501
C69.7500,-4531.7319 67.7318,-4533.7501 65.2500,-4533.7501
L20.7773,-4533.7501
C21.8475,-4532.5546 22.5000,-4530.9774 22.5000,-4529.2501
L22.5000,-4515.7501
L69.7500,-4515.7501
L69.7500,-4529.2501
Z
M11.2500,-4462.4244
C11.1690,-4461.3736 10.7603,-4460.3416 10.1228,-4459.5001
L57.3750,-4459.5001
C59.2358,-4459.5001 60.7500,-4461.0144 60.7500,-4462.8751
L60.7500,-4513.5001
L20.2500,-4513.5001
L20.2500,-4529.2501
C20.2500,-4531.7004 18.2003,-4533.7501 15.7500,-4533.7501
C13.2998,-4533.7501 11.2500,-4531.7004 11.2500,-4529.2501
L11.2500,-4462.4244
Z" 
style="stroke-width: 2.2500; stroke-linecap: round; stroke-linejoin: round; fill-rule: evenodd; fill: #ffffff; "/>
<path d=" 
M69.7500,-4529.2501
C69.7500,-4531.7319 67.7318,-4533.7501 65.2500,-4533.7501
L20.7773,-4533.7501
C21.8475,-4532.5546 22.5000,-4530.9774 22.5000,-4529.2501
L22.5000,-4515.7501
L69.7500,-4515.7501
L69.7500,-4529.2501
Z
M11.2500,-4462.4244
C11.1690,-4461.3736 10.7603,-4460.3416 10.1228,-4459.5001
L57.3750,-4459.5001
C59.2358,-4459.5001 60.7500,-4461.0144 60.7500,-4462.8751
L60.7500,-4513.5001
L20.2500,-4513.5001
L20.2500,-4529.2501
C20.2500,-4531.7004 18.2003,-4533.7501 15.7500,-4533.7501
C13.2998,-4533.7501 11.2500,-4531.7004 11.2500,-4529.2501
L11.2500,-4462.4244
Z" 
style="stroke-width: 2.2500; stroke: #ffffff; stroke-dasharray: none; stroke-linecap: round; stroke-linejoin: round; fill: none; "/>
</g>
<path d=" 
M11.2500,-4462.4243
L11.2500,-4529.2500
C11.2500,-4531.7002 13.2997,-4533.7500 15.7500,-4533.7500
C18.2002,-4533.7500 20.2500,-4531.7002 20.2500,-4529.2500
L20.2500,-4513.5000
L60.7500,-4513.5000
L60.7500,-4504.5000
L63.0000,-4504.5000
L63.0000,-4513.5000
L72.0000,-4513.5000
L72.0000,-4529.2500
C72.0000,-4532.9722 68.9722,-4536.0000 65.2500,-4536.0000
L15.7500,-4536.0000
C12.0278,-4536.0000 9.0000,-4532.9722 9.0000,-4529.2500
L9.0000,-4479.7500
L0.0000,-4479.7500
L0.0000,-4462.8750
C0.0000,-4459.7738 2.5237,-4457.2500 5.6250,-4457.2500
L57.3750,-4457.2500
C60.4808,-4457.2500 63.0000,-4459.7677 63.0000,-4462.8750
L63.0000,-4479.7500
L60.7500,-4479.7500
L60.7500,-4462.8750
C60.7500,-4461.0143 59.2358,-4459.5000 57.3750,-4459.5000
L10.1227,-4459.5000
C10.7602,-4460.3415 11.1690,-4461.3735 11.2500,-4462.4243
Z
M69.7500,-4515.7500
L63.0000,-4515.7500
L60.7500,-4515.7500
L22.5000,-4515.7500
L22.5000,-4529.2500
C22.5000,-4530.9772 21.8475,-4532.5545 20.7772,-4533.7500
L65.2500,-4533.7500
C67.7317,-4533.7500 69.7500,-4531.7317 69.7500,-4529.2500
L69.7500,-4515.7500
Z
M74.2500,-4497.7500
L31.5000,-4497.7500
L29.2500,-4500.0000
L74.2500,-4500.0000
L74.2500,-4497.7500
Z
M74.2500,-4491.0000
L31.5000,-4491.0000
L29.2500,-4493.2500
L74.2500,-4493.2500
L74.2500,-4491.0000
Z
M74.2500,-4484.2500
L31.5000,-4484.2500
L29.2500,-4486.5000
L74.2500,-4486.5000
L74.2500,-4484.2500
Z" 
style="fill-rule: evenodd; fill: #010101; "/>
<text x="0.0000" y="-4457.2500">
<tspan font-family="Arial Narrow" font-weight="bold" font-size="12.0000" fill="#000000" fill-opacity="1.0000" stroke-opacity="1.0000" >
</tspan>
<tspan font-family="Arial Narrow" font-weight="bold" font-size="12.0000" fill="#000000" fill-opacity="1.0000" stroke-opacity="1.0000" >
Scripted Input</tspan>
</text>
</svg>
