<?xml version="1.0" encoding="UTF-8" standalone="no"?>
<svg version="1.1" xmlns="http://www.w3.org/2000/svg" xmlns:xlink="http://www.w3.org/1999/xlink" width="0.9375in" height="0.9562in" viewBox="0 0 67.5000 68.8478" >
<g id="Layer1127" >
<path d=" 
M40.7565,-4533.7492
L64.6560,-4526.0272
L65.2500,-4477.9507
L40.7558,-4469.4022
L20.2500,-4477.9507
L20.9257,-4526.1967
L40.7565,-4533.7492
Z" 
style="stroke-width: 3.0000; stroke-linecap: round; stroke-linejoin: round; fill-rule: evenodd; fill: #ffffff; "/>
<path d=" 
M40.7565,-4533.7492
L64.6560,-4526.0272
L65.2500,-4477.9507
L40.7558,-4469.4022
L20.2500,-4477.9507
L20.9257,-4526.1967
L40.7565,-4533.7492
Z" 
style="stroke-width: 3.0000; stroke: #ffffff; stroke-dasharray: none; stroke-linecap: round; stroke-linejoin: round; fill: none; "/>
</g>
<path d=" 
M47.2500,-4520.7007
L40.5000,-4520.7007
L40.5000,-4522.9500
L47.2500,-4522.9500
L47.2500,-4520.7007
Z
M60.7500,-4522.9500
L49.5000,-4522.9500
L49.5000,-4520.7007
L60.7500,-4520.7007
L60.7500,-4522.9500
Z
M63.0015,-4509.4478
L56.2500,-4509.4478
L56.2500,-4507.2007
L63.0015,-4507.2007
L63.0015,-4509.4478
Z
M45.0000,-4509.4478
L40.5000,-4509.4478
L40.5000,-4507.2007
L45.0000,-4507.2007
L45.0000,-4509.4478
Z
M54.0000,-4509.4478
L47.2500,-4509.4478
L47.2500,-4507.2007
L54.0000,-4507.2007
L54.0000,-4509.4478
Z
M49.5000,-4495.9403
L40.5000,-4495.9403
L40.5000,-4493.7015
L49.5000,-4493.7015
L49.5000,-4495.9403
Z
M60.7500,-4495.9403
L51.7515,-4495.9403
L51.7515,-4493.7015
L60.7500,-4493.7015
L60.7500,-4495.9403
Z
M45.0000,-4482.4395
L40.5000,-4482.4395
L40.5000,-4480.2007
L45.0000,-4480.2007
L45.0000,-4482.4395
Z
M63.0000,-4482.4395
L58.5000,-4482.4395
L58.5000,-4480.2007
L63.0000,-4480.2007
L63.0000,-4482.4395
Z
M56.2500,-4482.4395
L47.2500,-4482.4395
L47.2500,-4480.2007
L56.2500,-4480.2007
L56.2500,-4482.4395
Z
M18.0000,-4511.7000
L18.0000,-4504.9500
L20.2500,-4504.9500
L20.2500,-4511.7000
L18.0000,-4511.7000
Z
M18.0000,-4498.2000
L18.0000,-4491.4507
L20.2500,-4491.4507
L20.2500,-4498.2000
L18.0000,-4498.2000
Z
M65.3655,-4528.1625
L42.6352,-4535.7397
C42.1095,-4535.9145 41.4397,-4536.0000 40.7565,-4536.0000
C39.9113,-4536.0000 39.0473,-4535.8687 38.4120,-4535.6152
L20.0895,-4528.2870
C18.9405,-4527.8280 18.0000,-4526.4383 18.0000,-4525.2000
L18.0000,-4518.4507
L20.2500,-4518.4507
L20.2500,-4525.2000
C20.2500,-4525.5202 20.6287,-4526.0797 20.9257,-4526.1967
L39.2467,-4533.5243
C39.5055,-4533.6292 40.0552,-4533.7492 40.7565,-4533.7492
C41.2148,-4533.7492 41.6505,-4533.6960 41.9243,-4533.6045
L64.6560,-4526.0273
C64.9110,-4525.9417 65.2500,-4525.4700 65.2500,-4525.2000
L65.2500,-4515.4507
L40.5000,-4515.4507
L40.5000,-4516.2000
L0.0000,-4516.2000
L2.2500,-4513.9500
L40.5000,-4513.9500
L40.5000,-4514.7000
L65.2500,-4514.7000
L65.2500,-4501.9500
L40.5000,-4501.9500
L40.5000,-4502.6992
L0.0000,-4502.6992
L0.0000,-4502.6880
L2.2500,-4500.4500
L40.5000,-4500.4500
L40.5000,-4501.2007
L65.2500,-4501.2007
L65.2500,-4488.4515
L40.5000,-4488.4515
L40.5000,-4489.2007
L0.0000,-4489.2007
L2.2500,-4486.9500
L40.5000,-4486.9500
L40.5000,-4487.7007
L65.2500,-4487.7007
L65.2500,-4477.9507
C65.2500,-4477.6822 64.9110,-4477.2090 64.6553,-4477.1235
L41.9228,-4469.5470
C41.6505,-4469.4443 41.2148,-4469.4022 40.7558,-4469.4022
C40.0545,-4469.4022 39.5048,-4469.5148 39.2460,-4469.6265
L20.9250,-4476.9540
C20.6287,-4477.0650 20.2500,-4477.6320 20.2500,-4477.9507
L20.2500,-4484.6992
L18.0000,-4484.6992
L18.0000,-4477.9507
C18.0000,-4476.7125 18.9405,-4475.3145 20.0895,-4474.8652
L38.4120,-4467.5370
C39.0473,-4467.2835 39.9113,-4467.1522 40.7565,-4467.1522
C41.4397,-4467.1522 42.1103,-4467.2377 42.6352,-4467.4125
L65.3663,-4474.9800
C66.5408,-4475.3805 67.5000,-4476.7117 67.5000,-4477.9507
L67.5000,-4525.2007
C67.5000,-4526.4383 66.5408,-4527.7710 65.3655,-4528.1625
Z" 
style="fill-rule: evenodd; fill: #010101; "/>
<text x="0.0000" y="-4467.1522">
<tspan font-family="Arial Narrow" font-weight="bold" font-size="12.0000" fill="#000000" fill-opacity="1.0000" stroke-opacity="1.0000" >
</tspan>
<tspan font-family="Arial Narrow" font-weight="bold" font-size="12.0000" fill="#000000" fill-opacity="1.0000" stroke-opacity="1.0000" >
Indexing Queue</tspan>
</text>
</svg>
