<?xml version="1.0" encoding="UTF-8" standalone="no"?>
<svg version="1.1" xmlns="http://www.w3.org/2000/svg" xmlns:xlink="http://www.w3.org/1999/xlink" width="0.8438in" height="1.6562in" viewBox="0 0 60.7500 119.2500" >
<g id="Layer1108" >
<path d=" 
M12.7500,-4533.7502
C11.9370,-4533.7502 11.2500,-4533.0632 11.2500,-4532.2502
L11.2500,-4495.5002
L49.5000,-4495.5002
L49.5000,-4532.2502
C49.5000,-4533.0632 48.8130,-4533.7502 48.0000,-4533.7502
L12.7500,-4533.7502
Z
M7.8750,-4432.5002
C5.4413,-4432.5002 3.3240,-4433.8712 2.2500,-4435.8812
L2.2500,-4422.7502
C2.2500,-4420.6817 3.9323,-4419.0002 6.0000,-4419.0002
L54.7500,-4419.0002
C56.8185,-4419.0002 58.5000,-4420.6817 58.5000,-4422.7502
L58.5000,-4435.8812
C57.4260,-4433.8712 55.3080,-4432.5002 52.8750,-4432.5002
L7.8750,-4432.5002
Z
M6.0000,-4493.2502
C3.9323,-4493.2502 2.2500,-4491.5679 2.2500,-4489.5002
L2.2500,-4438.8752
C2.2500,-4435.7724 4.7738,-4433.2502 7.8750,-4433.2502
L52.8750,-4433.2502
C55.9763,-4433.2502 58.5000,-4435.7724 58.5000,-4438.8752
L58.5000,-4489.5002
C58.5000,-4491.5679 56.8185,-4493.2502 54.7500,-4493.2502
L6.0000,-4493.2502
Z" 
style="stroke-width: 0.7200; stroke-linecap: round; stroke-linejoin: round; fill-rule: evenodd; fill: #ffffff; "/>
<path d=" 
M12.7500,-4533.7502
C11.9370,-4533.7502 11.2500,-4533.0632 11.2500,-4532.2502
L11.2500,-4495.5002
L49.5000,-4495.5002
L49.5000,-4532.2502
C49.5000,-4533.0632 48.8130,-4533.7502 48.0000,-4533.7502
L12.7500,-4533.7502
Z
M7.8750,-4432.5002
C5.4413,-4432.5002 3.3240,-4433.8712 2.2500,-4435.8812
L2.2500,-4422.7502
C2.2500,-4420.6817 3.9323,-4419.0002 6.0000,-4419.0002
L54.7500,-4419.0002
C56.8185,-4419.0002 58.5000,-4420.6817 58.5000,-4422.7502
L58.5000,-4435.8812
C57.4260,-4433.8712 55.3080,-4432.5002 52.8750,-4432.5002
L7.8750,-4432.5002
Z
M6.0000,-4493.2502
C3.9323,-4493.2502 2.2500,-4491.5679 2.2500,-4489.5002
L2.2500,-4438.8752
C2.2500,-4435.7724 4.7738,-4433.2502 7.8750,-4433.2502
L52.8750,-4433.2502
C55.9763,-4433.2502 58.5000,-4435.7724 58.5000,-4438.8752
L58.5000,-4489.5002
C58.5000,-4491.5679 56.8185,-4493.2502 54.7500,-4493.2502
L6.0000,-4493.2502
Z" 
style="stroke-width: 0.7200; stroke: #ffffff; stroke-dasharray: none; stroke-linecap: round; stroke-linejoin: round; fill: none; "/>
</g>
<path d=" 
M11.2500,-4425.7485
C11.2500,-4424.5072 10.2427,-4423.5000 9.0000,-4423.5000
C9.8273,-4423.5000 10.5000,-4424.1720 10.5000,-4424.9992
C10.5000,-4425.8273 9.8280,-4426.4992 9.0000,-4426.4992
C8.1720,-4426.4992 7.5000,-4425.8273 7.5000,-4424.9992
C7.5000,-4424.1720 8.1720,-4423.5000 9.0000,-4423.5000
C7.7572,-4423.5000 6.7500,-4424.5072 6.7500,-4425.7485
C6.7500,-4426.9913 7.7572,-4428.0000 9.0000,-4428.0000
C10.2427,-4428.0000 11.2500,-4426.9913 11.2500,-4425.7485
Z
M22.5000,-4473.0000
L18.0000,-4473.0000
L18.0000,-4470.7500
L22.5000,-4470.7500
L22.5000,-4473.0000
Z
M31.5000,-4473.0000
L24.7500,-4473.0000
L24.7500,-4470.7500
L31.5000,-4470.7500
L31.5000,-4473.0000
Z
M42.7500,-4473.0000
L33.7500,-4473.0000
L33.7500,-4470.7500
L42.7500,-4470.7500
L42.7500,-4473.0000
Z
M49.5000,-4475.9985
L49.5000,-4449.7492
C49.5000,-4448.4217 48.5453,-4447.1235 47.2785,-4446.7283
L32.1428,-4441.9980
C31.6560,-4441.8457 31.0275,-4441.7625 30.3750,-4441.7625
C29.7225,-4441.7625 29.0940,-4441.8457 28.6072,-4441.9980
L13.4715,-4446.7283
C12.2047,-4447.1235 11.2500,-4448.4225 11.2500,-4449.7492
L11.2500,-4475.9985
C11.2500,-4477.3268 12.2047,-4478.6250 13.4715,-4479.0203
L28.6072,-4483.7513
C29.5808,-4484.0542 31.1692,-4484.0542 32.1428,-4483.7513
L47.2785,-4479.0203
C48.5453,-4478.6250 49.5000,-4477.3268 49.5000,-4475.9985
Z
M13.5000,-4475.9985
L13.5000,-4467.7493
L47.2500,-4467.7493
L47.2500,-4475.9985
C47.2500,-4476.3330 46.9260,-4476.7733 46.6073,-4476.8738
L31.4715,-4481.6033
C31.2045,-4481.6865 30.7950,-4481.7360 30.3750,-4481.7360
C29.9550,-4481.7360 29.5455,-4481.6865 29.2785,-4481.6033
L14.1427,-4476.8738
C13.8240,-4476.7733 13.5000,-4476.3330 13.5000,-4475.9985
Z
M13.5000,-4466.9985
L13.5000,-4458.7492
L47.2500,-4458.7492
L47.2500,-4466.9985
L13.5000,-4466.9985
Z
M47.2500,-4449.7492
L47.2500,-4457.9985
L13.5000,-4457.9985
L13.5000,-4449.7492
C13.5000,-4449.4162 13.8240,-4448.9753 14.1427,-4448.8755
L29.2785,-4444.1453
C29.8132,-4443.9780 30.9360,-4443.9780 31.4715,-4444.1453
L46.6073,-4448.8755
C46.9260,-4448.9753 47.2500,-4449.4162 47.2500,-4449.7492
Z
M33.7500,-4464.0000
L18.0000,-4464.0000
L18.0000,-4461.7500
L33.7500,-4461.7500
L33.7500,-4464.0000
Z
M42.7500,-4464.0000
L36.0000,-4464.0000
L36.0000,-4461.7500
L42.7500,-4461.7500
L42.7500,-4464.0000
Z
M24.7500,-4455.0000
L18.0000,-4455.0000
L18.0000,-4452.7500
L24.7500,-4452.7500
L24.7500,-4455.0000
Z
M29.2500,-4455.0000
L27.0000,-4455.0000
L27.0000,-4452.7500
L29.2500,-4452.7500
L29.2500,-4455.0000
Z
M42.7500,-4455.0000
L31.5000,-4455.0000
L31.5000,-4452.7500
L42.7500,-4452.7500
L42.7500,-4455.0000
Z
M60.7500,-4489.4992
L60.7500,-4422.7492
C60.7500,-4419.4492 58.0492,-4416.7500 54.7500,-4416.7500
L6.0000,-4416.7500
C2.7008,-4416.7500 0.0000,-4419.4492 0.0000,-4422.7492
L0.0000,-4489.4992
C0.0000,-4492.7993 2.7008,-4495.5000 6.0000,-4495.5000
L9.0000,-4495.5000
L9.0000,-4532.2500
C9.0000,-4534.3125 10.6875,-4536.0000 12.7500,-4536.0000
L48.0000,-4536.0000
C50.0625,-4536.0000 51.7500,-4534.3125 51.7500,-4532.2500
L51.7500,-4495.5000
L54.7500,-4495.5000
C58.0492,-4495.5000 60.7500,-4492.7993 60.7500,-4489.4992
Z
M11.2500,-4495.5000
L49.5000,-4495.5000
L49.5000,-4532.2500
C49.5000,-4533.0630 48.8130,-4533.7500 48.0000,-4533.7500
L12.7500,-4533.7500
C11.9370,-4533.7500 11.2500,-4533.0630 11.2500,-4532.2500
L11.2500,-4495.5000
Z
M2.2500,-4451.6250
L2.2500,-4438.8742
C2.2500,-4435.7722 4.7737,-4433.2485 7.8750,-4433.2485
L52.8750,-4433.2485
C55.9763,-4433.2485 58.5000,-4435.7722 58.5000,-4438.8742
L58.5000,-4451.6250
L58.5000,-4489.4992
C58.5000,-4491.5670 56.8185,-4493.2500 54.7500,-4493.2500
L6.0000,-4493.2500
C3.9322,-4493.2500 2.2500,-4491.5670 2.2500,-4489.4992
L2.2500,-4451.6250
Z
M58.5000,-4422.7492
L58.5000,-4435.8803
C57.4260,-4433.8710 55.3080,-4432.5000 52.8750,-4432.5000
L7.8750,-4432.5000
C5.4413,-4432.5000 3.3233,-4433.8710 2.2500,-4435.8803
L2.2500,-4422.7492
C2.2500,-4420.6815 3.9322,-4419.0000 6.0000,-4419.0000
L54.7500,-4419.0000
C56.8185,-4419.0000 58.5000,-4420.6815 58.5000,-4422.7492
Z
M36.0000,-4509.0000
L24.7500,-4509.0000
L24.7500,-4497.7500
L36.0000,-4497.7500
L36.0000,-4509.0000
Z
M32.2500,-4530.7500
L28.5000,-4530.7500
L28.5000,-4527.0000
L32.2500,-4527.0000
L32.2500,-4530.7500
Z
M46.5000,-4528.5000
L42.7500,-4528.5000
L42.7500,-4524.7500
L46.5000,-4524.7500
L46.5000,-4528.5000
Z
M18.0000,-4528.5000
L14.2500,-4528.5000
L14.2500,-4524.7500
L18.0000,-4524.7500
L18.0000,-4528.5000
Z
M40.5000,-4522.5000
L36.0000,-4522.5000
L37.4542,-4521.0458
L35.1397,-4518.7312
C34.3477,-4517.9385 33.7500,-4516.4962 33.7500,-4515.3750
L33.7500,-4511.2500
L36.0000,-4511.2500
L36.0000,-4515.3750
C36.0000,-4515.9060 36.3547,-4516.7640 36.7312,-4517.1398
L39.0458,-4519.4542
L40.5000,-4518.0000
L40.5000,-4522.5000
Z
M25.6103,-4518.7305
L23.2958,-4521.0450
L24.7500,-4522.5000
L20.2500,-4522.5000
L20.2500,-4518.0000
L21.7042,-4519.4542
L24.0188,-4517.1398
C24.3953,-4516.7640 24.7500,-4515.9060 24.7500,-4515.3750
L24.7500,-4511.2500
L27.0000,-4511.2500
L27.0000,-4515.3750
C27.0000,-4516.4962 26.4022,-4517.9385 25.6103,-4518.7305
Z
M33.7500,-4521.3750
L30.3750,-4524.7500
L27.0000,-4521.3750
L29.2500,-4521.3750
L29.2500,-4511.2500
L31.5000,-4511.2500
L31.5000,-4521.3750
L33.7500,-4521.3750
Z" 
style="fill-rule: evenodd; fill: #010101; "/>
<text x="0.0000" y="-4416.7500">
<tspan font-family="Arial Narrow" font-weight="bold" font-size="12.0000" fill="#000000" fill-opacity="1.0000" stroke-opacity="1.0000" >
</tspan>
<tspan font-family="Arial Narrow" font-weight="bold" font-size="12.0000" fill="#000000" fill-opacity="1.0000" stroke-opacity="1.0000" >
Indexer With Load Balancer</tspan>
</text>
</svg>
