<?xml version="1.0" encoding="UTF-8" standalone="no"?>
<svg version="1.1" xmlns="http://www.w3.org/2000/svg" xmlns:xlink="http://www.w3.org/1999/xlink" width="0.9375in" height="1.1875in" viewBox="0 0 67.5000 85.5000" >
<g id="Layer1067" >
<path d=" 
M61.5000,-4459.5001
C63.5685,-4459.5001 65.2500,-4461.1816 65.2500,-4463.2501
L65.2500,-4476.3811
C64.1760,-4474.3711 62.0580,-4473.0001 59.6250,-4473.0001
L58.5000,-4473.0001
L58.5000,-4473.7501
L59.6250,-4473.7501
C62.7263,-4473.7501 65.2500,-4476.2724 65.2500,-4479.3751
L65.2500,-4530.0001
C65.2500,-4532.0679 63.5685,-4533.7501 61.5000,-4533.7501
L12.7500,-4533.7501
C10.6823,-4533.7501 9.0000,-4532.0679 9.0000,-4530.0001
L9.0000,-4527.0001
L6.0000,-4527.0001
C3.9323,-4527.0001 2.2500,-4525.3179 2.2500,-4523.2501
L2.2500,-4472.6251
C2.2500,-4469.5224 4.7738,-4467.0001 7.8750,-4467.0001
L9.0000,-4467.0001
L9.0000,-4466.2501
L7.8750,-4466.2501
C5.4413,-4466.2501 3.3240,-4467.6211 2.2500,-4469.6311
L2.2500,-4456.5001
C2.2500,-4454.4316 3.9323,-4452.7501 6.0000,-4452.7501
L54.7500,-4452.7501
C56.8185,-4452.7501 58.5000,-4454.4316 58.5000,-4456.5001
L58.5000,-4459.5001
L61.5000,-4459.5001
Z" 
style="stroke-width: 0.7200; stroke-linecap: round; stroke-linejoin: round; fill-rule: evenodd; fill: #ffffff; "/>
<path d=" 
M61.5000,-4459.5001
C63.5685,-4459.5001 65.2500,-4461.1816 65.2500,-4463.2501
L65.2500,-4476.3811
C64.1760,-4474.3711 62.0580,-4473.0001 59.6250,-4473.0001
L58.5000,-4473.0001
L58.5000,-4473.7501
L59.6250,-4473.7501
C62.7263,-4473.7501 65.2500,-4476.2724 65.2500,-4479.3751
L65.2500,-4530.0001
C65.2500,-4532.0679 63.5685,-4533.7501 61.5000,-4533.7501
L12.7500,-4533.7501
C10.6823,-4533.7501 9.0000,-4532.0679 9.0000,-4530.0001
L9.0000,-4527.0001
L6.0000,-4527.0001
C3.9323,-4527.0001 2.2500,-4525.3179 2.2500,-4523.2501
L2.2500,-4472.6251
C2.2500,-4469.5224 4.7738,-4467.0001 7.8750,-4467.0001
L9.0000,-4467.0001
L9.0000,-4466.2501
L7.8750,-4466.2501
C5.4413,-4466.2501 3.3240,-4467.6211 2.2500,-4469.6311
L2.2500,-4456.5001
C2.2500,-4454.4316 3.9323,-4452.7501 6.0000,-4452.7501
L54.7500,-4452.7501
C56.8185,-4452.7501 58.5000,-4454.4316 58.5000,-4456.5001
L58.5000,-4459.5001
L61.5000,-4459.5001
Z" 
style="stroke-width: 0.7200; stroke: #ffffff; stroke-dasharray: none; stroke-linecap: round; stroke-linejoin: round; fill: none; "/>
</g>
<path d=" 
M9.0000,-4461.7500
C7.7572,-4461.7500 6.7500,-4460.7420 6.7500,-4459.5000
C6.7500,-4458.2580 7.7572,-4457.2500 9.0000,-4457.2500
C8.1727,-4457.2500 7.5000,-4457.9220 7.5000,-4458.7500
C7.5000,-4459.5780 8.1720,-4460.2500 9.0000,-4460.2500
C9.8280,-4460.2500 10.5000,-4459.5780 10.5000,-4458.7500
C10.5000,-4457.9220 9.8280,-4457.2500 9.0000,-4457.2500
C10.2427,-4457.2500 11.2500,-4458.2580 11.2500,-4459.5000
C11.2500,-4460.7420 10.2427,-4461.7500 9.0000,-4461.7500
Z" 
style="fill-rule: evenodd; fill: #000000; "/>
<path d=" 
M18.0000,-4504.5000
L22.5000,-4504.5000
L22.5000,-4506.7500
L18.0000,-4506.7500
L18.0000,-4504.5000
Z" 
style="fill-rule: evenodd; fill: #000000; "/>
<path d=" 
M24.7500,-4504.5000
L31.5000,-4504.5000
L31.5000,-4506.7500
L24.7500,-4506.7500
L24.7500,-4504.5000
Z" 
style="fill-rule: evenodd; fill: #000000; "/>
<path d=" 
M33.7500,-4504.5000
L42.7500,-4504.5000
L42.7500,-4506.7500
L33.7500,-4506.7500
L33.7500,-4504.5000
Z" 
style="fill-rule: evenodd; fill: #000000; "/>
<path d=" 
M47.2785,-4512.7717
L32.1428,-4517.5012
C31.1692,-4517.8057 29.5808,-4517.8057 28.6072,-4517.5012
L13.4715,-4512.7717
C12.2047,-4512.3757 11.2500,-4511.0767 11.2500,-4509.7500
L11.2500,-4483.5000
C11.2500,-4482.1732 12.2047,-4480.8735 13.4715,-4480.4783
L28.6072,-4475.7487
C29.0940,-4475.5972 29.7225,-4475.5125 30.3750,-4475.5125
C31.0275,-4475.5125 31.6560,-4475.5972 32.1428,-4475.7487
L47.2785,-4480.4783
C48.5452,-4480.8735 49.5000,-4482.1732 49.5000,-4483.5000
L49.5000,-4509.7500
C49.5000,-4511.0767 48.5452,-4512.3757 47.2785,-4512.7717
Z
M14.1427,-4510.6237
L29.2785,-4515.3532
C29.5455,-4515.4365 29.9550,-4515.4875 30.3750,-4515.4875
C30.7950,-4515.4875 31.2045,-4515.4372 31.4715,-4515.3532
L46.6073,-4510.6237
C46.9260,-4510.5240 47.2500,-4510.0830 47.2500,-4509.7500
L47.2500,-4501.5000
L13.5000,-4501.5000
L13.5000,-4509.7500
C13.5000,-4510.0830 13.8240,-4510.5240 14.1427,-4510.6237
Z
M47.2500,-4500.7500
L47.2500,-4492.5000
L13.5000,-4492.5000
L13.5000,-4500.7500
L47.2500,-4500.7500
Z
M46.6073,-4482.6262
L31.4715,-4477.8967
C30.9367,-4477.7295 29.8140,-4477.7295 29.2785,-4477.8967
L14.1427,-4482.6262
C13.8240,-4482.7267 13.5000,-4483.1670 13.5000,-4483.5000
L13.5000,-4491.7500
L47.2500,-4491.7500
L47.2500,-4483.5000
C47.2500,-4483.1670 46.9260,-4482.7267 46.6073,-4482.6262
Z" 
style="fill-rule: evenodd; fill: #000000; "/>
<path d=" 
M18.0000,-4495.5000
L33.7500,-4495.5000
L33.7500,-4497.7500
L18.0000,-4497.7500
L18.0000,-4495.5000
Z" 
style="fill-rule: evenodd; fill: #000000; "/>
<path d=" 
M36.0000,-4495.5000
L42.7500,-4495.5000
L42.7500,-4497.7500
L36.0000,-4497.7500
L36.0000,-4495.5000
Z" 
style="fill-rule: evenodd; fill: #000000; "/>
<path d=" 
M18.0000,-4486.5000
L24.7500,-4486.5000
L24.7500,-4488.7500
L18.0000,-4488.7500
L18.0000,-4486.5000
Z" 
style="fill-rule: evenodd; fill: #000000; "/>
<path d=" 
M27.0000,-4486.5000
L29.2500,-4486.5000
L29.2500,-4488.7500
L27.0000,-4488.7500
L27.0000,-4486.5000
Z" 
style="fill-rule: evenodd; fill: #000000; "/>
<path d=" 
M31.5000,-4486.5000
L42.7500,-4486.5000
L42.7500,-4488.7500
L31.5000,-4488.7500
L31.5000,-4486.5000
Z" 
style="fill-rule: evenodd; fill: #000000; "/>
<path d=" 
M61.5000,-4536.0000
L12.7500,-4536.0000
C9.4507,-4536.0000 6.7500,-4533.2992 6.7500,-4530.0000
L6.7500,-4529.2500
L6.0000,-4529.2500
C2.7007,-4529.2500 0.0000,-4526.5493 0.0000,-4523.2500
L0.0000,-4456.5000
C0.0000,-4453.2007 2.7007,-4450.5000 6.0000,-4450.5000
L54.7500,-4450.5000
C58.0493,-4450.5000 60.7500,-4453.2007 60.7500,-4456.5000
L60.7500,-4457.2500
L61.5000,-4457.2500
C64.7993,-4457.2500 67.5000,-4459.9507 67.5000,-4463.2500
L67.5000,-4530.0000
C67.5000,-4533.2992 64.7993,-4536.0000 61.5000,-4536.0000
Z
M58.5000,-4456.5000
C58.5000,-4454.4315 56.8185,-4452.7500 54.7500,-4452.7500
L6.0000,-4452.7500
C3.9323,-4452.7500 2.2500,-4454.4315 2.2500,-4456.5000
L2.2500,-4469.6310
C3.3240,-4467.6210 5.4412,-4466.2500 7.8750,-4466.2500
L52.8750,-4466.2500
C55.3080,-4466.2500 57.4260,-4467.6210 58.5000,-4469.6310
L58.5000,-4456.5000
Z
M58.5000,-4472.6250
C58.5000,-4469.5222 55.9763,-4467.0000 52.8750,-4467.0000
L7.8750,-4467.0000
C4.7737,-4467.0000 2.2500,-4469.5222 2.2500,-4472.6250
L2.2500,-4523.2500
C2.2500,-4525.3178 3.9323,-4527.0000 6.0000,-4527.0000
L54.7500,-4527.0000
C56.8185,-4527.0000 58.5000,-4525.3178 58.5000,-4523.2500
L58.5000,-4472.6250
Z
M65.2500,-4463.2500
C65.2500,-4461.1815 63.5685,-4459.5000 61.5000,-4459.5000
L60.7500,-4459.5000
L60.7500,-4473.1058
C62.7000,-4473.4552 64.3455,-4474.6890 65.2500,-4476.3810
L65.2500,-4463.2500
Z
M65.2500,-4479.3750
C65.2500,-4476.6578 63.3143,-4474.3860 60.7500,-4473.8633
L60.7500,-4523.2500
C60.7500,-4526.5493 58.0493,-4529.2500 54.7500,-4529.2500
L9.0000,-4529.2500
L9.0000,-4530.0000
C9.0000,-4532.0678 10.6823,-4533.7500 12.7500,-4533.7500
L61.5000,-4533.7500
C63.5685,-4533.7500 65.2500,-4532.0678 65.2500,-4530.0000
L65.2500,-4479.3750
Z" 
style="fill-rule: evenodd; fill: #000000; "/>
<text x="0.0000" y="-4450.5000">
<tspan font-family="Arial Narrow" font-weight="bold" font-size="12.0000" fill="#000000" fill-opacity="1.0000" stroke-opacity="1.0000" >
Indexers</tspan>
</text>
</svg>
