<?xml version="1.0" encoding="UTF-8" standalone="no"?>
<svg version="1.1" xmlns="http://www.w3.org/2000/svg" xmlns:xlink="http://www.w3.org/1999/xlink" width="0.8438in" height="1.0938in" viewBox="0 0 60.7500 78.7500" >
<g id="Layer1066" >
<path d=" 
M6.0000,-4533.7499
C3.9322,-4533.7499 2.2500,-4532.0676 2.2500,-4529.9999
L2.2500,-4479.3749
C2.2500,-4476.2721 4.7737,-4473.7499 7.8750,-4473.7499
L52.8750,-4473.7499
C55.9762,-4473.7499 58.5000,-4476.2721 58.5000,-4479.3749
L58.5000,-4529.9999
C58.5000,-4532.0676 56.8185,-4533.7499 54.7500,-4533.7499
L6.0000,-4533.7499
Z
M54.7500,-4459.4999
C56.8185,-4459.4999 58.5000,-4461.1814 58.5000,-4463.2499
L58.5000,-4476.3809
C57.4260,-4474.3709 55.3080,-4472.9999 52.8750,-4472.9999
L7.8750,-4472.9999
C5.4412,-4472.9999 3.3240,-4474.3709 2.2500,-4476.3809
L2.2500,-4463.2499
C2.2500,-4461.1814 3.9322,-4459.4999 6.0000,-4459.4999
L54.7500,-4459.4999
Z" 
style="stroke-width: 0.7200; stroke-linecap: round; stroke-linejoin: round; fill-rule: evenodd; fill: #ffffff; "/>
<path d=" 
M6.0000,-4533.7499
C3.9322,-4533.7499 2.2500,-4532.0676 2.2500,-4529.9999
L2.2500,-4479.3749
C2.2500,-4476.2721 4.7737,-4473.7499 7.8750,-4473.7499
L52.8750,-4473.7499
C55.9762,-4473.7499 58.5000,-4476.2721 58.5000,-4479.3749
L58.5000,-4529.9999
C58.5000,-4532.0676 56.8185,-4533.7499 54.7500,-4533.7499
L6.0000,-4533.7499
Z
M54.7500,-4459.4999
C56.8185,-4459.4999 58.5000,-4461.1814 58.5000,-4463.2499
L58.5000,-4476.3809
C57.4260,-4474.3709 55.3080,-4472.9999 52.8750,-4472.9999
L7.8750,-4472.9999
C5.4412,-4472.9999 3.3240,-4474.3709 2.2500,-4476.3809
L2.2500,-4463.2499
C2.2500,-4461.1814 3.9322,-4459.4999 6.0000,-4459.4999
L54.7500,-4459.4999
Z" 
style="stroke-width: 0.7200; stroke: #ffffff; stroke-dasharray: none; stroke-linecap: round; stroke-linejoin: round; fill: none; "/>
</g>
<path d=" 
M54.7500,-4536.0000
L6.0000,-4536.0000
C2.7008,-4536.0000 0.0000,-4533.2993 0.0000,-4530.0000
L0.0000,-4463.2500
C0.0000,-4459.9507 2.7008,-4457.2500 6.0000,-4457.2500
L54.7500,-4457.2500
C58.0492,-4457.2500 60.7500,-4459.9507 60.7500,-4463.2500
L60.7500,-4530.0000
C60.7500,-4533.2993 58.0492,-4536.0000 54.7500,-4536.0000
Z
M2.2500,-4530.0000
C2.2500,-4532.0678 3.9322,-4533.7500 6.0000,-4533.7500
L54.7500,-4533.7500
C56.8185,-4533.7500 58.5000,-4532.0678 58.5000,-4530.0000
L58.5000,-4479.3750
C58.5000,-4476.2722 55.9763,-4473.7500 52.8750,-4473.7500
L7.8750,-4473.7500
C4.7737,-4473.7500 2.2500,-4476.2722 2.2500,-4479.3750
L2.2500,-4530.0000
Z
M54.7500,-4459.5000
L6.0000,-4459.5000
C3.9322,-4459.5000 2.2500,-4461.1815 2.2500,-4463.2500
L2.2500,-4476.3810
C3.3240,-4474.3710 5.4413,-4473.0000 7.8750,-4473.0000
L52.8750,-4473.0000
C55.3080,-4473.0000 57.4260,-4474.3710 58.5000,-4476.3810
L58.5000,-4463.2500
C58.5000,-4461.1815 56.8185,-4459.5000 54.7500,-4459.5000
Z" 
style="fill-rule: evenodd; fill: #000000; "/>
<path d=" 
M9.0000,-4468.5000
C7.7573,-4468.5000 6.7500,-4467.4920 6.7500,-4466.2500
C6.7500,-4465.0080 7.7573,-4464.0000 9.0000,-4464.0000
C8.1728,-4464.0000 7.5000,-4464.6720 7.5000,-4465.5000
C7.5000,-4466.3280 8.1720,-4467.0000 9.0000,-4467.0000
C9.8280,-4467.0000 10.5000,-4466.3280 10.5000,-4465.5000
C10.5000,-4464.6720 9.8280,-4464.0000 9.0000,-4464.0000
C10.2428,-4464.0000 11.2500,-4465.0080 11.2500,-4466.2500
C11.2500,-4467.4920 10.2428,-4468.5000 9.0000,-4468.5000
Z" 
style="fill-rule: evenodd; fill: #000000; "/>
<path d=" 
M18.0000,-4511.2500
L22.5000,-4511.2500
L22.5000,-4513.5000
L18.0000,-4513.5000
L18.0000,-4511.2500
Z" 
style="fill-rule: evenodd; fill: #000000; "/>
<path d=" 
M24.7500,-4511.2500
L31.5000,-4511.2500
L31.5000,-4513.5000
L24.7500,-4513.5000
L24.7500,-4511.2500
Z" 
style="fill-rule: evenodd; fill: #000000; "/>
<path d=" 
M33.7500,-4511.2500
L42.7500,-4511.2500
L42.7500,-4513.5000
L33.7500,-4513.5000
L33.7500,-4511.2500
Z" 
style="fill-rule: evenodd; fill: #000000; "/>
<path d=" 
M47.2785,-4519.5217
L32.1428,-4524.2513
C31.1685,-4524.5557 29.5800,-4524.5557 28.6073,-4524.2513
L13.4715,-4519.5217
C12.2047,-4519.1258 11.2500,-4517.8268 11.2500,-4516.5000
L11.2500,-4490.2500
C11.2500,-4488.9233 12.2047,-4487.6235 13.4715,-4487.2283
L28.6073,-4482.4988
C29.0940,-4482.3472 29.7225,-4482.2625 30.3750,-4482.2625
C31.0275,-4482.2625 31.6560,-4482.3472 32.1428,-4482.4988
L47.2785,-4487.2283
C48.5452,-4487.6235 49.5000,-4488.9233 49.5000,-4490.2500
L49.5000,-4516.5000
C49.5000,-4517.8268 48.5452,-4519.1258 47.2785,-4519.5217
Z
M14.1427,-4517.3737
L29.2785,-4522.1033
C29.5455,-4522.1865 29.9550,-4522.2375 30.3750,-4522.2375
C30.7950,-4522.2375 31.2038,-4522.1872 31.4715,-4522.1033
L46.6073,-4517.3737
C46.9260,-4517.2740 47.2500,-4516.8330 47.2500,-4516.5000
L47.2500,-4508.2500
L13.5000,-4508.2500
L13.5000,-4516.5000
C13.5000,-4516.8330 13.8240,-4517.2740 14.1427,-4517.3737
Z
M47.2500,-4507.5000
L47.2500,-4499.2500
L13.5000,-4499.2500
L13.5000,-4507.5000
L47.2500,-4507.5000
Z
M46.6073,-4489.3763
L31.4715,-4484.6467
C30.9360,-4484.4795 29.8140,-4484.4795 29.2785,-4484.6467
L14.1427,-4489.3763
C13.8240,-4489.4767 13.5000,-4489.9170 13.5000,-4490.2500
L13.5000,-4498.5000
L47.2500,-4498.5000
L47.2500,-4490.2500
C47.2500,-4489.9170 46.9260,-4489.4767 46.6073,-4489.3763
Z" 
style="fill-rule: evenodd; fill: #000000; "/>
<path d=" 
M18.0000,-4502.2500
L33.7500,-4502.2500
L33.7500,-4504.5000
L18.0000,-4504.5000
L18.0000,-4502.2500
Z" 
style="fill-rule: evenodd; fill: #000000; "/>
<path d=" 
M36.0000,-4502.2500
L42.7500,-4502.2500
L42.7500,-4504.5000
L36.0000,-4504.5000
L36.0000,-4502.2500
Z" 
style="fill-rule: evenodd; fill: #000000; "/>
<path d=" 
M18.0000,-4493.2500
L24.7500,-4493.2500
L24.7500,-4495.5000
L18.0000,-4495.5000
L18.0000,-4493.2500
Z" 
style="fill-rule: evenodd; fill: #000000; "/>
<path d=" 
M27.0000,-4493.2500
L29.2500,-4493.2500
L29.2500,-4495.5000
L27.0000,-4495.5000
L27.0000,-4493.2500
Z" 
style="fill-rule: evenodd; fill: #000000; "/>
<path d=" 
M31.5000,-4493.2500
L42.7500,-4493.2500
L42.7500,-4495.5000
L31.5000,-4495.5000
L31.5000,-4493.2500
Z" 
style="fill-rule: evenodd; fill: #000000; "/>
<text x="0.0000" y="-4457.2500">
<tspan font-family="Arial Narrow" font-weight="bold" font-size="12.0000" fill="#000000" fill-opacity="1.0000" stroke-opacity="1.0000" >
Indexer</tspan>
</text>
</svg>
