<?xml version="1.0" encoding="UTF-8" standalone="no"?>
<svg version="1.1" xmlns="http://www.w3.org/2000/svg" xmlns:xlink="http://www.w3.org/1999/xlink" width="0.8438in" height="1.6562in" viewBox="0 0 60.7500 119.2500" >
<g id="Layer1102" >
<path d=" 
M12.7500,-4533.7502
C11.9370,-4533.7502 11.2500,-4533.0632 11.2500,-4532.2502
L11.2500,-4495.5002
L49.5000,-4495.5002
L49.5000,-4532.2502
C49.5000,-4533.0632 48.8130,-4533.7502 48.0000,-4533.7502
L12.7500,-4533.7502
Z
M7.8750,-4432.5002
C5.4413,-4432.5002 3.3240,-4433.8712 2.2500,-4435.8812
L2.2500,-4422.7502
C2.2500,-4420.6817 3.9323,-4419.0002 6.0000,-4419.0002
L54.7500,-4419.0002
C56.8185,-4419.0002 58.5000,-4420.6817 58.5000,-4422.7502
L58.5000,-4435.8812
C57.4260,-4433.8712 55.3080,-4432.5002 52.8750,-4432.5002
L7.8750,-4432.5002
Z
M6.0000,-4493.2502
C3.9323,-4493.2502 2.2500,-4491.5679 2.2500,-4489.5002
L2.2500,-4438.8752
C2.2500,-4435.7724 4.7738,-4433.2502 7.8750,-4433.2502
L52.8750,-4433.2502
C55.9763,-4433.2502 58.5000,-4435.7724 58.5000,-4438.8752
L58.5000,-4489.5002
C58.5000,-4491.5679 56.8185,-4493.2502 54.7500,-4493.2502
L6.0000,-4493.2502
Z" 
style="stroke-width: 0.7200; stroke-linecap: round; stroke-linejoin: round; fill-rule: evenodd; fill: #ffffff; "/>
<path d=" 
M12.7500,-4533.7502
C11.9370,-4533.7502 11.2500,-4533.0632 11.2500,-4532.2502
L11.2500,-4495.5002
L49.5000,-4495.5002
L49.5000,-4532.2502
C49.5000,-4533.0632 48.8130,-4533.7502 48.0000,-4533.7502
L12.7500,-4533.7502
Z
M7.8750,-4432.5002
C5.4413,-4432.5002 3.3240,-4433.8712 2.2500,-4435.8812
L2.2500,-4422.7502
C2.2500,-4420.6817 3.9323,-4419.0002 6.0000,-4419.0002
L54.7500,-4419.0002
C56.8185,-4419.0002 58.5000,-4420.6817 58.5000,-4422.7502
L58.5000,-4435.8812
C57.4260,-4433.8712 55.3080,-4432.5002 52.8750,-4432.5002
L7.8750,-4432.5002
Z
M6.0000,-4493.2502
C3.9323,-4493.2502 2.2500,-4491.5679 2.2500,-4489.5002
L2.2500,-4438.8752
C2.2500,-4435.7724 4.7738,-4433.2502 7.8750,-4433.2502
L52.8750,-4433.2502
C55.9763,-4433.2502 58.5000,-4435.7724 58.5000,-4438.8752
L58.5000,-4489.5002
C58.5000,-4491.5679 56.8185,-4493.2502 54.7500,-4493.2502
L6.0000,-4493.2502
Z" 
style="stroke-width: 0.7200; stroke: #ffffff; stroke-dasharray: none; stroke-linecap: round; stroke-linejoin: round; fill: none; "/>
</g>
<path d=" 
M43.2158,-4504.9657
L36.4657,-4511.7157
L33.2843,-4508.5343
L40.0342,-4501.7843
L38.2500,-4500.0000
L45.0000,-4500.0000
L45.0000,-4506.7500
L43.2158,-4504.9657
Z" 
style="fill-rule: evenodd; fill: #000000; "/>
<path d=" 
M27.4657,-4520.7157
L20.7158,-4527.4657
L22.5000,-4529.2500
L15.7500,-4529.2500
L15.7500,-4522.5000
L17.5342,-4524.2843
L24.2843,-4517.5343
L27.4657,-4520.7157
Z" 
style="fill-rule: evenodd; fill: #000000; "/>
<path d=" 
M27.4657,-4508.5343
L24.2843,-4511.7157
L17.5335,-4504.9665
L15.7500,-4506.7500
L15.7500,-4500.0000
L22.5000,-4500.0000
L20.7158,-4501.7843
L27.4657,-4508.5343
Z" 
style="fill-rule: evenodd; fill: #000000; "/>
<path d=" 
M45.0000,-4529.2500
L38.2500,-4529.2500
L40.0342,-4527.4657
L33.2843,-4520.7157
L36.4657,-4517.5343
L43.2158,-4524.2843
L45.0000,-4522.5000
L45.0000,-4529.2500
Z" 
style="fill-rule: evenodd; fill: #000000; "/>
<path d=" 
M54.7500,-4495.5000
L51.7500,-4495.5000
L51.7500,-4532.2500
C51.7500,-4534.3125 50.0625,-4536.0000 48.0000,-4536.0000
L12.7500,-4536.0000
C10.6875,-4536.0000 9.0000,-4534.3125 9.0000,-4532.2500
L9.0000,-4495.5000
L6.0000,-4495.5000
C2.7008,-4495.5000 0.0000,-4492.7993 0.0000,-4489.5000
L0.0000,-4422.7500
C0.0000,-4419.4507 2.7008,-4416.7500 6.0000,-4416.7500
L54.7500,-4416.7500
C58.0492,-4416.7500 60.7500,-4419.4507 60.7500,-4422.7500
L60.7500,-4489.5000
C60.7500,-4492.7993 58.0492,-4495.5000 54.7500,-4495.5000
Z
M11.2500,-4532.2500
C11.2500,-4533.0630 11.9370,-4533.7500 12.7500,-4533.7500
L48.0000,-4533.7500
C48.8130,-4533.7500 49.5000,-4533.0630 49.5000,-4532.2500
L49.5000,-4495.5000
L11.2500,-4495.5000
L11.2500,-4532.2500
Z
M58.5000,-4422.7500
C58.5000,-4420.6815 56.8185,-4419.0000 54.7500,-4419.0000
L6.0000,-4419.0000
C3.9322,-4419.0000 2.2500,-4420.6815 2.2500,-4422.7500
L2.2500,-4435.8810
C3.3240,-4433.8710 5.4413,-4432.5000 7.8750,-4432.5000
L52.8750,-4432.5000
C55.3080,-4432.5000 57.4260,-4433.8710 58.5000,-4435.8810
L58.5000,-4422.7500
Z
M58.5000,-4438.8750
C58.5000,-4435.7722 55.9763,-4433.2500 52.8750,-4433.2500
L7.8750,-4433.2500
C4.7737,-4433.2500 2.2500,-4435.7722 2.2500,-4438.8750
L2.2500,-4489.5000
C2.2500,-4491.5678 3.9322,-4493.2500 6.0000,-4493.2500
L54.7500,-4493.2500
C56.8185,-4493.2500 58.5000,-4491.5678 58.5000,-4489.5000
L58.5000,-4438.8750
Z" 
style="fill-rule: evenodd; fill: #000000; "/>
<path d=" 
M9.0000,-4428.0000
C7.7573,-4428.0000 6.7500,-4426.9920 6.7500,-4425.7500
C6.7500,-4424.5080 7.7573,-4423.5000 9.0000,-4423.5000
C8.1728,-4423.5000 7.5000,-4424.1720 7.5000,-4425.0000
C7.5000,-4425.8280 8.1720,-4426.5000 9.0000,-4426.5000
C9.8280,-4426.5000 10.5000,-4425.8280 10.5000,-4425.0000
C10.5000,-4424.1720 9.8280,-4423.5000 9.0000,-4423.5000
C10.2428,-4423.5000 11.2500,-4424.5080 11.2500,-4425.7500
C11.2500,-4426.9920 10.2428,-4428.0000 9.0000,-4428.0000
Z" 
style="fill-rule: evenodd; fill: #000000; "/>
<path d=" 
M18.0000,-4470.7500
L22.5000,-4470.7500
L22.5000,-4473.0000
L18.0000,-4473.0000
L18.0000,-4470.7500
Z" 
style="fill-rule: evenodd; fill: #000000; "/>
<path d=" 
M24.7500,-4470.7500
L31.5000,-4470.7500
L31.5000,-4473.0000
L24.7500,-4473.0000
L24.7500,-4470.7500
Z" 
style="fill-rule: evenodd; fill: #000000; "/>
<path d=" 
M33.7500,-4470.7500
L42.7500,-4470.7500
L42.7500,-4473.0000
L33.7500,-4473.0000
L33.7500,-4470.7500
Z" 
style="fill-rule: evenodd; fill: #000000; "/>
<path d=" 
M47.2785,-4479.0217
L32.1428,-4483.7512
C31.1685,-4484.0557 29.5800,-4484.0557 28.6073,-4483.7512
L13.4715,-4479.0217
C12.2047,-4478.6257 11.2500,-4477.3267 11.2500,-4476.0000
L11.2500,-4449.7500
C11.2500,-4448.4232 12.2047,-4447.1235 13.4715,-4446.7283
L28.6073,-4441.9987
C29.0940,-4441.8472 29.7225,-4441.7625 30.3750,-4441.7625
C31.0275,-4441.7625 31.6560,-4441.8472 32.1428,-4441.9987
L47.2785,-4446.7283
C48.5452,-4447.1235 49.5000,-4448.4232 49.5000,-4449.7500
L49.5000,-4476.0000
C49.5000,-4477.3267 48.5452,-4478.6257 47.2785,-4479.0217
Z
M14.1427,-4476.8737
L29.2785,-4481.6033
C29.5455,-4481.6865 29.9550,-4481.7375 30.3750,-4481.7375
C30.7950,-4481.7375 31.2038,-4481.6872 31.4715,-4481.6033
L46.6073,-4476.8737
C46.9260,-4476.7740 47.2500,-4476.3330 47.2500,-4476.0000
L47.2500,-4467.7500
L13.5000,-4467.7500
L13.5000,-4476.0000
C13.5000,-4476.3330 13.8240,-4476.7740 14.1427,-4476.8737
Z
M47.2500,-4467.0000
L47.2500,-4458.7500
L13.5000,-4458.7500
L13.5000,-4467.0000
L47.2500,-4467.0000
Z
M46.6073,-4448.8763
L31.4715,-4444.1467
C30.9360,-4443.9795 29.8140,-4443.9795 29.2785,-4444.1467
L14.1427,-4448.8763
C13.8240,-4448.9767 13.5000,-4449.4170 13.5000,-4449.7500
L13.5000,-4458.0000
L47.2500,-4458.0000
L47.2500,-4449.7500
C47.2500,-4449.4170 46.9260,-4448.9767 46.6073,-4448.8763
Z" 
style="fill-rule: evenodd; fill: #000000; "/>
<path d=" 
M18.0000,-4461.7500
L33.7500,-4461.7500
L33.7500,-4464.0000
L18.0000,-4464.0000
L18.0000,-4461.7500
Z" 
style="fill-rule: evenodd; fill: #000000; "/>
<path d=" 
M36.0000,-4461.7500
L42.7500,-4461.7500
L42.7500,-4464.0000
L36.0000,-4464.0000
L36.0000,-4461.7500
Z" 
style="fill-rule: evenodd; fill: #000000; "/>
<path d=" 
M18.0000,-4452.7500
L24.7500,-4452.7500
L24.7500,-4455.0000
L18.0000,-4455.0000
L18.0000,-4452.7500
Z" 
style="fill-rule: evenodd; fill: #000000; "/>
<path d=" 
M27.0000,-4452.7500
L29.2500,-4452.7500
L29.2500,-4455.0000
L27.0000,-4455.0000
L27.0000,-4452.7500
Z" 
style="fill-rule: evenodd; fill: #000000; "/>
<path d=" 
M31.5000,-4452.7500
L42.7500,-4452.7500
L42.7500,-4455.0000
L31.5000,-4455.0000
L31.5000,-4452.7500
Z" 
style="fill-rule: evenodd; fill: #000000; "/>
<text x="-10.5345" y="-4416.7500">
<tspan font-family="Arial Narrow" font-weight="bold" font-size="12.0000" fill="#000000" fill-opacity="1.0000" stroke-opacity="1.0000" >
Indexer With Router</tspan>
</text>
</svg>
