<?xml version="1.0" encoding="UTF-8" standalone="no"?>
<svg version="1.1" xmlns="http://www.w3.org/2000/svg" xmlns:xlink="http://www.w3.org/1999/xlink" width="0.9688in" height="1.0938in" viewBox="0 0 69.7500 78.7500" >
<g id="Layer1115" >
<path d=" 
M60.7838,-4464.4066
L67.5000,-4513.6531
L67.5000,-4528.9239
C66.8790,-4529.4931 64.2615,-4530.8604 57.5318,-4532.0364
C51.1988,-4533.1411 43.1520,-4533.7501 34.8750,-4533.7501
C26.5980,-4533.7501 18.5513,-4533.1411 12.2183,-4532.0364
C5.4885,-4530.8611 2.8710,-4529.4931 2.2500,-4528.9239
L2.2500,-4513.6531
L8.9663,-4464.4066
C10.3515,-4462.9516 19.7483,-4459.5001 34.8750,-4459.5001
C50.0025,-4459.5001 59.3985,-4462.9516 60.7838,-4464.4066
Z" 
style="stroke-width: 0.7500; stroke-linecap: butt; stroke-linejoin: miter; fill-rule: evenodd; fill: #ffffff; "/>
<path d=" 
M60.7838,-4464.4066
L67.5000,-4513.6531
L67.5000,-4528.9239
C66.8790,-4529.4931 64.2615,-4530.8604 57.5318,-4532.0364
C51.1988,-4533.1411 43.1520,-4533.7501 34.8750,-4533.7501
C26.5980,-4533.7501 18.5513,-4533.1411 12.2183,-4532.0364
C5.4885,-4530.8611 2.8710,-4529.4931 2.2500,-4528.9239
L2.2500,-4513.6531
L8.9663,-4464.4066
C10.3515,-4462.9516 19.7483,-4459.5001 34.8750,-4459.5001
C50.0025,-4459.5001 59.3985,-4462.9516 60.7838,-4464.4066
Z" 
style="stroke-width: 0.7500; stroke: #ffffff; stroke-dasharray: none; stroke-linecap: butt; stroke-linejoin: miter; fill: none; "/>
</g>
<path d=" 
M34.8750,-4533.7500
C43.1520,-4533.7500 51.1988,-4533.1410 57.5318,-4532.0363
C64.2615,-4530.8602 66.8790,-4529.4930 67.5000,-4528.9237
L67.5000,-4513.6530
L60.7838,-4464.4065
C59.3985,-4462.9515 50.0025,-4459.5000 34.8750,-4459.5000
C19.7482,-4459.5000 10.3515,-4462.9515 8.9662,-4464.4065
L2.2500,-4513.6530
L2.2500,-4528.9237
C2.8710,-4529.4930 5.4885,-4530.8610 12.2182,-4532.0363
C18.5512,-4533.1410 26.5980,-4533.7500 34.8750,-4533.7500
Z
M34.8750,-4536.0000
C15.6135,-4536.0000 0.0000,-4532.7885 0.0000,-4529.2500
L0.0000,-4513.5000
L6.7500,-4464.0000
C6.7500,-4461.1245 19.2262,-4457.2500 34.8750,-4457.2500
C50.5238,-4457.2500 63.0000,-4461.1245 63.0000,-4464.0000
L69.7500,-4513.5000
L69.7500,-4529.2500
C69.7500,-4532.7885 54.1365,-4536.0000 34.8750,-4536.0000
Z" 
style="fill-rule: evenodd; fill: #010101; "/>
<text x="0.0000" y="-4457.2500">
<tspan font-family="Arial Narrow" font-weight="bold" font-size="12.0000" fill="#000000" fill-opacity="1.0000" stroke-opacity="1.0000" >
</tspan>
<tspan font-family="Arial Narrow" font-weight="bold" font-size="12.0000" fill="#000000" fill-opacity="1.0000" stroke-opacity="1.0000" >
Bucket</tspan>
</text>
</svg>
