<?xml version="1.0" encoding="UTF-8" standalone="no"?>
<svg version="1.1" xmlns="http://www.w3.org/2000/svg" xmlns:xlink="http://www.w3.org/1999/xlink" width="0.7812in" height="0.9375in" viewBox="0 0 56.2500 67.5000" >
<g id="Layer1011" >
<path d=" 
M50.8185,-4520.6414
L38.2500,-4533.2099
L38.2500,-4521.0164
C38.2500,-4520.8131 38.4218,-4520.6414 38.6250,-4520.6414
L50.8185,-4520.6414
Z
M54.0000,-4486.8914
L54.0000,-4504.8914
L13.5000,-4504.8914
L13.5000,-4486.8914
L54.0000,-4486.8914
Z
M51.7500,-4471.1414
L51.7500,-4484.6414
L11.2500,-4484.6414
L11.2500,-4507.1414
L51.7500,-4507.1414
L51.7500,-4518.3914
L38.6250,-4518.3914
C37.1775,-4518.3914 36.0000,-4519.5696 36.0000,-4521.0164
L36.0000,-4534.1414
L2.2500,-4534.1414
L2.2500,-4471.1414
L51.7500,-4471.1414
Z" 
style="stroke-width: 0.7200; stroke-linecap: round; stroke-linejoin: round; fill-rule: evenodd; fill: #ffffff; "/>
<path d=" 
M50.8185,-4520.6414
L38.2500,-4533.2099
L38.2500,-4521.0164
C38.2500,-4520.8131 38.4218,-4520.6414 38.6250,-4520.6414
L50.8185,-4520.6414
Z
M54.0000,-4486.8914
L54.0000,-4504.8914
L13.5000,-4504.8914
L13.5000,-4486.8914
L54.0000,-4486.8914
Z
M51.7500,-4471.1414
L51.7500,-4484.6414
L11.2500,-4484.6414
L11.2500,-4507.1414
L51.7500,-4507.1414
L51.7500,-4518.3914
L38.6250,-4518.3914
C37.1775,-4518.3914 36.0000,-4519.5696 36.0000,-4521.0164
L36.0000,-4534.1414
L2.2500,-4534.1414
L2.2500,-4471.1414
L51.7500,-4471.1414
Z" 
style="stroke-width: 0.7200; stroke: #ffffff; stroke-dasharray: none; stroke-linecap: round; stroke-linejoin: round; fill: none; "/>
</g>
<path d=" 
M20.4233,-4491.1365
L18.7943,-4491.1365
L18.7943,-4493.0610
L20.4233,-4493.0610
L20.4233,-4491.1365
Z" 
style="fill-rule: evenodd; fill: #000000; "/>
<path d=" 
M25.2435,-4498.3755
C25.0905,-4498.6665 24.8130,-4498.8120 24.4095,-4498.8120
C24.1875,-4498.8120 24.0038,-4498.7535 23.8605,-4498.6335
C23.7165,-4498.5150 23.6033,-4498.3215 23.5208,-4498.0538
C23.4398,-4497.7875 23.3813,-4497.4372 23.3483,-4497.0060
C23.3153,-4496.5732 23.2988,-4496.0445 23.2988,-4495.4198
C23.2988,-4494.7523 23.3220,-4494.2153 23.3670,-4493.8027
C23.4120,-4493.3918 23.4825,-4493.0730 23.5770,-4492.8472
C23.6715,-4492.6215 23.7915,-4492.4677 23.9355,-4492.3905
C24.0795,-4492.3133 24.2453,-4492.2735 24.4358,-4492.2735
C24.5918,-4492.2735 24.7380,-4492.2998 24.8738,-4492.3530
C25.0088,-4492.4062 25.1265,-4492.5135 25.2255,-4492.6740
C25.3245,-4492.8345 25.4025,-4493.0610 25.4595,-4493.3528
C25.5180,-4493.6453 25.5465,-4494.0293 25.5465,-4494.5070
L27.3240,-4494.5070
C27.3240,-4494.0293 27.2865,-4493.5770 27.2130,-4493.1488
C27.1380,-4492.7213 27.0008,-4492.3478 26.7990,-4492.0267
C26.5980,-4491.7043 26.3138,-4491.4538 25.9478,-4491.2722
C25.5803,-4491.0908 25.1048,-4491.0000 24.5205,-4491.0000
C23.8545,-4491.0000 23.3243,-4491.1080 22.9283,-4491.3210
C22.5338,-4491.5347 22.2308,-4491.8438 22.0223,-4492.2465
C21.8123,-4492.6500 21.6765,-4493.1315 21.6150,-4493.6910
C21.5535,-4494.2497 21.5228,-4494.8670 21.5228,-4495.5420
C21.5228,-4496.2095 21.5535,-4496.8245 21.6150,-4497.3877
C21.6765,-4497.9510 21.8130,-4498.4347 22.0223,-4498.8382
C22.2308,-4499.2418 22.5345,-4499.5553 22.9283,-4499.7825
C23.3235,-4500.0082 23.8545,-4500.1215 24.5205,-4500.1215
C25.1543,-4500.1215 25.6545,-4500.0180 26.0205,-4499.8133
C26.3873,-4499.6078 26.6610,-4499.3460 26.8410,-4499.0295
C27.0225,-4498.7130 27.1358,-4498.3718 27.1808,-4498.0058
C27.2258,-4497.6390 27.2490,-4497.2963 27.2490,-4496.9745
L25.4715,-4496.9745
C25.4708,-4497.6157 25.3950,-4498.0823 25.2435,-4498.3755
Z" 
style="fill-rule: evenodd; fill: #000000; "/>
<path d=" 
M28.2413,-4497.3877
C28.3035,-4497.9510 28.4393,-4498.4347 28.6493,-4498.8382
C28.8585,-4499.2418 29.1608,-4499.5553 29.5560,-4499.7825
C29.9505,-4500.0082 30.4815,-4500.1215 31.1483,-4500.1215
C31.8150,-4500.1215 32.3460,-4500.0082 32.7405,-4499.7825
C33.1358,-4499.5553 33.4380,-4499.2418 33.6473,-4498.8382
C33.8573,-4498.4347 33.9938,-4497.9510 34.0553,-4497.3877
C34.1168,-4496.8245 34.1475,-4496.2095 34.1475,-4495.5420
C34.1475,-4494.8678 34.1168,-4494.2497 34.0553,-4493.6910
C33.9938,-4493.1315 33.8573,-4492.6500 33.6473,-4492.2465
C33.4380,-4491.8438 33.1358,-4491.5347 32.7405,-4491.3210
C32.3460,-4491.1080 31.8150,-4491.0000 31.1483,-4491.0000
C30.4815,-4491.0000 29.9505,-4491.1080 29.5560,-4491.3210
C29.1608,-4491.5347 28.8585,-4491.8438 28.6493,-4492.2465
C28.4393,-4492.6500 28.3043,-4493.1315 28.2413,-4493.6910
C28.1798,-4494.2497 28.1490,-4494.8670 28.1490,-4495.5420
C28.1490,-4496.2087 28.1798,-4496.8245 28.2413,-4497.3877
Z
M29.9693,-4494.0300
C29.9985,-4493.6145 30.0563,-4493.2778 30.1433,-4493.0183
C30.2280,-4492.7587 30.3525,-4492.5697 30.5130,-4492.4497
C30.6735,-4492.3297 30.8843,-4492.2712 31.1483,-4492.2712
C31.4123,-4492.2712 31.6245,-4492.3297 31.7843,-4492.4497
C31.9455,-4492.5697 32.0685,-4492.7587 32.1548,-4493.0183
C32.2403,-4493.2778 32.2980,-4493.6145 32.3273,-4494.0300
C32.3550,-4494.4455 32.3700,-4494.9495 32.3700,-4495.5420
C32.3700,-4496.1353 32.3550,-4496.6363 32.3273,-4497.0487
C32.2980,-4497.4590 32.2403,-4497.7965 32.1548,-4498.0605
C32.0685,-4498.3245 31.9455,-4498.5150 31.7843,-4498.6343
C31.6245,-4498.7542 31.4123,-4498.8128 31.1483,-4498.8128
C30.8843,-4498.8128 30.6735,-4498.7542 30.5130,-4498.6343
C30.3525,-4498.5157 30.2280,-4498.3245 30.1433,-4498.0605
C30.0563,-4497.7965 29.9985,-4497.4590 29.9693,-4497.0487
C29.9415,-4496.6363 29.9265,-4496.1353 29.9265,-4495.5420
C29.9265,-4494.9495 29.9415,-4494.4455 29.9693,-4494.0300
Z" 
style="fill-rule: evenodd; fill: #000000; "/>
<path d=" 
M39.3938,-4493.9123
L39.4170,-4493.9123
L39.4170,-4499.9490
L41.0468,-4499.9490
L41.0468,-4491.1365
L39.0233,-4491.1365
L36.8505,-4497.3083
L36.8265,-4497.3083
L36.8265,-4491.1365
L35.1975,-4491.1365
L35.1975,-4499.9490
L37.2458,-4499.9490
L39.3938,-4493.9123
Z" 
style="fill-rule: evenodd; fill: #000000; "/>
<path d=" 
M47.2058,-4499.9490
L47.2058,-4498.4918
L44.0580,-4498.4918
L44.0580,-4496.4187
L47.0198,-4496.4187
L47.0198,-4494.9622
L44.0580,-4494.9622
L44.0580,-4491.1365
L42.2813,-4491.1365
L42.2813,-4499.9490
L47.2058,-4499.9490
Z" 
style="fill-rule: evenodd; fill: #000000; "/>
<path d=" 
M56.2500,-4506.7500
L54.0000,-4509.0000
L54.0000,-4518.0000
C54.0000,-4519.2368 53.2838,-4520.9663 52.4093,-4521.8407
L39.8407,-4534.4092
C38.9662,-4535.2837 37.2368,-4536.0000 36.0000,-4536.0000
L2.2500,-4536.0000
C1.0132,-4536.0000 0.0000,-4534.9868 0.0000,-4533.7500
L0.0000,-4470.7500
C0.0000,-4469.5132 1.0132,-4468.5000 2.2500,-4468.5000
L51.7500,-4468.5000
C52.9868,-4468.5000 54.0000,-4469.5132 54.0000,-4470.7500
L54.0000,-4484.2500
L56.2500,-4484.2500
L56.2500,-4506.7500
Z
M50.8185,-4520.2500
L38.6250,-4520.2500
C38.4217,-4520.2500 38.2500,-4520.4217 38.2500,-4520.6250
L38.2500,-4532.8185
L50.8185,-4520.2500
Z
M51.7500,-4470.7500
L2.2500,-4470.7500
L2.2500,-4533.7500
L36.0000,-4533.7500
L36.0000,-4520.6250
C36.0000,-4519.1782 37.1775,-4518.0000 38.6250,-4518.0000
L51.7500,-4518.0000
L51.7500,-4506.7500
L11.2500,-4506.7500
L11.2500,-4484.2500
L51.7500,-4484.2500
L51.7500,-4470.7500
Z
M54.0000,-4486.5000
L51.7500,-4486.5000
L13.5000,-4486.5000
L13.5000,-4504.5000
L51.7500,-4504.5000
L54.0000,-4504.5000
L54.0000,-4486.5000
Z" 
style="fill-rule: evenodd; fill: #000000; "/>
<text x="0.0000" y="-4468.5000">
<tspan font-family="Arial Narrow" font-weight="bold" font-size="12.0000" fill="#000000" fill-opacity="1.0000" stroke-opacity="1.0000" >
Configuration File</tspan>
</text>
</svg>
