<?xml version="1.0" encoding="UTF-8" standalone="no"?>
<svg version="1.1" xmlns="http://www.w3.org/2000/svg" xmlns:xlink="http://www.w3.org/1999/xlink" width="0.7812in" height="0.9375in" viewBox="0 0 56.2500 67.5000" >
<g id="Layer1116" >
<path d=" 
M50.8185,-4520.2501
L38.2500,-4532.8186
L38.2500,-4520.6251
C38.2500,-4520.4218 38.4218,-4520.2501 38.6250,-4520.2501
L50.8185,-4520.2501
Z
M54.0000,-4486.5001
L54.0000,-4504.5001
L13.5000,-4504.5001
L13.5000,-4486.5001
L54.0000,-4486.5001
Z
M51.7500,-4470.7501
L51.7500,-4484.2501
L11.2500,-4484.2501
L11.2500,-4506.7501
L51.7500,-4506.7501
L51.7500,-4518.0001
L38.6250,-4518.0001
C37.1775,-4518.0001 36.0000,-4519.1783 36.0000,-4520.6251
L36.0000,-4533.7501
L2.2500,-4533.7501
L2.2500,-4470.7501
L51.7500,-4470.7501
Z" 
style="stroke-width: 0.7200; stroke-linecap: round; stroke-linejoin: round; fill-rule: evenodd; fill: #ffffff; "/>
<path d=" 
M50.8185,-4520.2501
L38.2500,-4532.8186
L38.2500,-4520.6251
C38.2500,-4520.4218 38.4218,-4520.2501 38.6250,-4520.2501
L50.8185,-4520.2501
Z
M54.0000,-4486.5001
L54.0000,-4504.5001
L13.5000,-4504.5001
L13.5000,-4486.5001
L54.0000,-4486.5001
Z
M51.7500,-4470.7501
L51.7500,-4484.2501
L11.2500,-4484.2501
L11.2500,-4506.7501
L51.7500,-4506.7501
L51.7500,-4518.0001
L38.6250,-4518.0001
C37.1775,-4518.0001 36.0000,-4519.1783 36.0000,-4520.6251
L36.0000,-4533.7501
L2.2500,-4533.7501
L2.2500,-4470.7501
L51.7500,-4470.7501
Z" 
style="stroke-width: 0.7200; stroke: #ffffff; stroke-dasharray: none; stroke-linecap: round; stroke-linejoin: round; fill: none; "/>
</g>
<path d=" 
M56.2500,-4506.7500
L54.0000,-4509.0000
L54.0000,-4518.0000
C54.0000,-4519.2375 53.2838,-4520.9663 52.4093,-4521.8407
L39.8407,-4534.4092
C38.9662,-4535.2837 37.2375,-4536.0000 36.0000,-4536.0000
L2.2500,-4536.0000
C1.0125,-4536.0000 0.0000,-4534.9875 0.0000,-4533.7500
L0.0000,-4470.7500
C0.0000,-4469.5125 1.0125,-4468.5000 2.2500,-4468.5000
L51.7500,-4468.5000
C52.9875,-4468.5000 54.0000,-4469.5125 54.0000,-4470.7500
L54.0000,-4484.2500
L56.2500,-4484.2500
L56.2500,-4506.7500
Z
M50.8185,-4520.2500
L38.6250,-4520.2500
C38.4217,-4520.2500 38.2500,-4520.4217 38.2500,-4520.6250
L38.2500,-4532.8185
L50.8185,-4520.2500
Z
M51.7500,-4470.7500
L2.2500,-4470.7500
L2.2500,-4533.7500
L36.0000,-4533.7500
L36.0000,-4520.6250
C36.0000,-4519.1775 37.1775,-4518.0000 38.6250,-4518.0000
L51.7500,-4518.0000
L51.7500,-4506.7500
L11.2500,-4506.7500
L11.2500,-4484.2500
L51.7500,-4484.2500
L51.7500,-4470.7500
Z
M54.0000,-4486.5000
L51.7500,-4486.5000
L13.5000,-4486.5000
L13.5000,-4504.5000
L51.7500,-4504.5000
L54.0000,-4504.5000
L54.0000,-4486.5000
Z
M24.1268,-4490.9693
L22.4932,-4490.9693
L22.4932,-4492.8998
L24.1268,-4492.8998
L24.1268,-4490.9693
Z
M28.9590,-4498.2278
C28.8060,-4498.5210 28.5278,-4498.6672 28.1235,-4498.6672
C27.9007,-4498.6672 27.7170,-4498.6073 27.5730,-4498.4880
C27.4290,-4498.3688 27.3150,-4498.1737 27.2325,-4497.9060
C27.1500,-4497.6382 27.0922,-4497.2880 27.0592,-4496.8545
C27.0263,-4496.4218 27.0097,-4495.8922 27.0097,-4495.2652
C27.0097,-4494.5963 27.0322,-4494.0562 27.0780,-4493.6438
C27.1230,-4493.2305 27.1935,-4492.9110 27.2880,-4492.6845
C27.3825,-4492.4580 27.5025,-4492.3050 27.6473,-4492.2278
C27.7913,-4492.1490 27.9585,-4492.1100 28.1482,-4492.1100
C28.3043,-4492.1100 28.4513,-4492.1370 28.5870,-4492.1902
C28.7235,-4492.2435 28.8405,-4492.3507 28.9402,-4492.5120
C29.0392,-4492.6732 29.1172,-4492.9005 29.1742,-4493.1930
C29.2327,-4493.4855 29.2612,-4493.8710 29.2613,-4494.3495
L31.0433,-4494.3495
C31.0433,-4493.8710 31.0065,-4493.4172 30.9323,-4492.9883
C30.8580,-4492.5593 30.7200,-4492.1843 30.5175,-4491.8625
C30.3150,-4491.5408 30.0308,-4491.2887 29.6633,-4491.1073
C29.2957,-4490.9257 28.8195,-4490.8350 28.2337,-4490.8350
C27.5655,-4490.8350 27.0330,-4490.9430 26.6378,-4491.1575
C26.2417,-4491.3713 25.9387,-4491.6810 25.7280,-4492.0853
C25.5180,-4492.4895 25.3815,-4492.9725 25.3200,-4493.5335
C25.2585,-4494.0945 25.2270,-4494.7125 25.2270,-4495.3898
C25.2270,-4496.0588 25.2578,-4496.6745 25.3200,-4497.2400
C25.3822,-4497.8055 25.5180,-4498.2900 25.7280,-4498.6943
C25.9387,-4499.0985 26.2417,-4499.4135 26.6378,-4499.6407
C27.0338,-4499.8680 27.5655,-4499.9813 28.2337,-4499.9813
C28.8690,-4499.9813 29.3700,-4499.8778 29.7375,-4499.6715
C30.1035,-4499.4652 30.3780,-4499.2035 30.5602,-4498.8863
C30.7410,-4498.5683 30.8558,-4498.2255 30.9008,-4497.8587
C30.9458,-4497.4920 30.9683,-4497.1478 30.9683,-4496.8252
L29.1870,-4496.8252
C29.1885,-4497.4665 29.1120,-4497.9345 28.9590,-4498.2278
Z
M33.4942,-4493.4698
C33.4942,-4493.2635 33.5108,-4493.0760 33.5437,-4492.9058
C33.5767,-4492.7370 33.6382,-4492.5953 33.7290,-4492.4798
C33.8197,-4492.3642 33.9413,-4492.2735 34.0935,-4492.2075
C34.2465,-4492.1415 34.4385,-4492.1085 34.6695,-4492.1085
C34.9418,-4492.1085 35.1870,-4492.1970 35.4060,-4492.3740
C35.6243,-4492.5510 35.7345,-4492.8263 35.7345,-4493.1975
C35.7345,-4493.3955 35.7068,-4493.5665 35.6542,-4493.7113
C35.6002,-4493.8552 35.5125,-4493.9857 35.3880,-4494.1012
C35.2650,-4494.2167 35.1015,-4494.3218 34.8997,-4494.4170
C34.6980,-4494.5123 34.4475,-4494.6090 34.1505,-4494.7080
C33.7552,-4494.8400 33.4125,-4494.9840 33.1238,-4495.1407
C32.8350,-4495.2975 32.5935,-4495.4812 32.4000,-4495.6912
C32.2058,-4495.9020 32.0640,-4496.1450 31.9732,-4496.4218
C31.8825,-4496.6985 31.8368,-4497.0180 31.8368,-4497.3803
C31.8368,-4498.2548 32.0805,-4498.9065 32.5672,-4499.3355
C33.0540,-4499.7645 33.7223,-4499.9790 34.5720,-4499.9790
C34.9680,-4499.9790 35.3333,-4499.9355 35.6670,-4499.8493
C36.0007,-4499.7622 36.2902,-4499.6220 36.5332,-4499.4277
C36.7770,-4499.2335 36.9660,-4498.9860 37.1025,-4498.6853
C37.2390,-4498.3845 37.3065,-4498.0230 37.3065,-4497.6030
L37.3065,-4497.3555
L35.5995,-4497.3555
C35.5995,-4497.7770 35.5245,-4498.0995 35.3768,-4498.3268
C35.2275,-4498.5540 34.9808,-4498.6672 34.6343,-4498.6672
C34.4363,-4498.6672 34.2713,-4498.6380 34.1392,-4498.5810
C34.0072,-4498.5225 33.9023,-4498.4460 33.8235,-4498.3515
C33.7448,-4498.2570 33.6908,-4498.1475 33.6630,-4498.0230
C33.6337,-4497.8992 33.6188,-4497.7717 33.6188,-4497.6398
C33.6188,-4497.3675 33.6765,-4497.1380 33.7912,-4496.9527
C33.9068,-4496.7668 34.1543,-4496.5950 34.5337,-4496.4383
L35.9078,-4495.8450
C36.2460,-4495.6965 36.5220,-4495.5420 36.7365,-4495.3807
C36.9510,-4495.2195 37.1220,-4495.0470 37.2503,-4494.8610
C37.3785,-4494.6758 37.4670,-4494.4710 37.5158,-4494.2490
C37.5653,-4494.0262 37.5907,-4493.7787 37.5907,-4493.5065
C37.5907,-4492.5743 37.3200,-4491.8962 36.7800,-4491.4710
C36.2392,-4491.0458 35.4870,-4490.8328 34.5217,-4490.8328
C33.5145,-4490.8328 32.7945,-4491.0517 32.3625,-4491.4890
C31.9290,-4491.9263 31.7122,-4492.5532 31.7122,-4493.3700
L31.7122,-4493.7293
L33.4942,-4493.7293
L33.4942,-4493.4698
Z
M41.0550,-4493.2710
L41.0933,-4493.2710
L42.4042,-4499.8050
L44.2485,-4499.8050
L42.2190,-4490.9693
L39.9292,-4490.9693
L37.8997,-4499.8050
L39.8055,-4499.8050
L41.0550,-4493.2710
Z" 
style="fill-rule: evenodd; fill: #231f20; "/>
<text x="0.0000" y="-4468.5000">
<tspan font-family="Arial Narrow" font-weight="bold" font-size="12.0000" fill="#000000" fill-opacity="1.0000" stroke-opacity="1.0000" >
</tspan>
<tspan font-family="Arial Narrow" font-weight="bold" font-size="12.0000" fill="#000000" fill-opacity="1.0000" stroke-opacity="1.0000" >
CSV File</tspan>
</text>
</svg>
