<?xml version="1.0" encoding="UTF-8" standalone="no"?>
<svg version="1.1" xmlns="http://www.w3.org/2000/svg" xmlns:xlink="http://www.w3.org/1999/xlink" width="0.8750in" height="1.0625in" viewBox="0 0 63.0000 76.5000" >
<g id="Layer1031" >
<path d=" 
M60.7500,-4529.1149
C60.4072,-4529.6061 58.5157,-4530.9351 53.1052,-4532.0924
C48.1027,-4533.1611 41.6280,-4533.7499 34.8750,-4533.7499
C28.1220,-4533.7499 21.6472,-4533.1611 16.6455,-4532.0924
C11.2342,-4530.9351 9.3427,-4529.6061 9.0000,-4529.1149
L9.0000,-4525.1421
C4.2727,-4524.0357 2.5731,-4522.8280 2.2500,-4522.3649
L2.2500,-4466.3849
C2.5927,-4465.8936 4.4842,-4464.5646 9.8955,-4463.4081
C14.8972,-4462.3386 21.3720,-4461.7499 28.1250,-4461.7499
C34.8780,-4461.7499 41.3527,-4462.3386 46.3552,-4463.4081
C51.7657,-4464.5646 53.6572,-4465.8944 54.0000,-4466.3849
L54.0000,-4470.3582
C58.7272,-4471.4641 60.4269,-4472.6725 60.7500,-4473.1349
L60.7500,-4529.1149
Z" 
style="stroke-width: 0.7200; stroke-linecap: round; stroke-linejoin: round; fill-rule: evenodd; fill: #ffffff; "/>
<path d=" 
M60.7500,-4529.1149
C60.4072,-4529.6061 58.5157,-4530.9351 53.1052,-4532.0924
C48.1027,-4533.1611 41.6280,-4533.7499 34.8750,-4533.7499
C28.1220,-4533.7499 21.6472,-4533.1611 16.6455,-4532.0924
C11.2342,-4530.9351 9.3427,-4529.6061 9.0000,-4529.1149
L9.0000,-4525.1421
C4.2727,-4524.0357 2.5731,-4522.8280 2.2500,-4522.3649
L2.2500,-4466.3849
C2.5927,-4465.8936 4.4842,-4464.5646 9.8955,-4463.4081
C14.8972,-4462.3386 21.3720,-4461.7499 28.1250,-4461.7499
C34.8780,-4461.7499 41.3527,-4462.3386 46.3552,-4463.4081
C51.7657,-4464.5646 53.6572,-4465.8944 54.0000,-4466.3849
L54.0000,-4470.3582
C58.7272,-4471.4641 60.4269,-4472.6725 60.7500,-4473.1349
L60.7500,-4529.1149
Z" 
style="stroke-width: 0.7200; stroke: #ffffff; stroke-dasharray: none; stroke-linecap: round; stroke-linejoin: round; fill: none; "/>
</g>
<path d=" 
M28.1250,-4515.7500
C18.5025,-4515.7500 9.6225,-4516.9125 4.3695,-4518.8603
C4.1752,-4518.9315 4.0762,-4519.1483 4.1490,-4519.3418
C4.2202,-4519.5360 4.4370,-4519.6350 4.6305,-4519.5638
C9.8033,-4517.6453 18.5872,-4516.5000 28.1250,-4516.5000
C37.6605,-4516.5000 46.4437,-4517.6445 51.6195,-4519.5630
C51.8145,-4519.6358 52.0297,-4519.5352 52.1017,-4519.3410
C52.1737,-4519.1475 52.0740,-4518.9315 51.8805,-4518.8595
C46.6260,-4516.9125 37.7460,-4515.7500 28.1250,-4515.7500
Z" 
style="fill-rule: evenodd; fill: #000000; "/>
<path d=" 
M34.8750,-4536.0000
C19.3417,-4536.0000 6.7500,-4532.9775 6.7500,-4529.2500
L6.7500,-4526.8845
C6.7583,-4526.8867 6.7673,-4526.8890 6.7762,-4526.8912
C2.5560,-4525.7108 0.0000,-4524.1778 0.0000,-4522.5000
L0.0000,-4466.2500
C0.0000,-4462.5217 12.5918,-4459.5000 28.1250,-4459.5000
C43.6575,-4459.5000 56.2500,-4462.5217 56.2500,-4466.2500
L56.2500,-4468.6155
C56.2590,-4468.6178 56.2657,-4468.6200 56.2747,-4468.6230
C56.5132,-4468.6897 56.7450,-4468.7580 56.9738,-4468.8270
C57.0015,-4468.8353 57.0292,-4468.8435 57.0570,-4468.8525
C57.2812,-4468.9215 57.5010,-4468.9920 57.7132,-4469.0625
C57.7395,-4469.0715 57.7658,-4469.0797 57.7920,-4469.0887
C58.0057,-4469.1615 58.2150,-4469.2335 58.4175,-4469.3077
C58.4347,-4469.3153 58.4528,-4469.3212 58.4700,-4469.3280
C59.5185,-4469.7150 60.4035,-4470.1290 61.1085,-4470.5655
C61.1437,-4470.5873 61.1820,-4470.6097 61.2172,-4470.6315
C61.3155,-4470.6945 61.4047,-4470.7575 61.4940,-4470.8205
C61.5465,-4470.8573 61.6013,-4470.8948 61.6522,-4470.9315
C61.7288,-4470.9885 61.7985,-4471.0463 61.8690,-4471.1040
C61.9230,-4471.1490 61.9778,-4471.1932 62.0287,-4471.2390
C62.0887,-4471.2930 62.1458,-4471.3477 62.2013,-4471.4017
C62.2507,-4471.4513 62.3010,-4471.5030 62.3460,-4471.5532
C62.3925,-4471.6043 62.4382,-4471.6568 62.4810,-4471.7078
C62.5253,-4471.7632 62.5657,-4471.8188 62.6040,-4471.8750
C62.6393,-4471.9237 62.6730,-4471.9732 62.7023,-4472.0220
C62.7405,-4472.0827 62.7713,-4472.1443 62.8005,-4472.2058
C62.8222,-4472.2515 62.8470,-4472.2965 62.8650,-4472.3422
C62.8943,-4472.4128 62.9130,-4472.4833 62.9325,-4472.5545
C62.9430,-4472.5927 62.9573,-4472.6303 62.9648,-4472.6677
C62.9865,-4472.7787 63.0000,-4472.8898 63.0000,-4473.0000
L63.0000,-4529.2500
C63.0000,-4532.9775 50.4082,-4536.0000 34.8750,-4536.0000
Z
M2.2500,-4508.4600
C3.1012,-4508.0363 4.1070,-4507.6388 5.2493,-4507.2720
L5.2493,-4502.0895
C4.0500,-4502.4960 3.0427,-4502.9378 2.2500,-4503.4080
L2.2500,-4508.4600
Z
M2.2500,-4502.5477
C3.0780,-4502.1000 4.0852,-4501.6815 5.2493,-4501.2960
L5.2493,-4495.2202
C4.0537,-4495.6282 3.0413,-4496.0700 2.2500,-4496.5418
L2.2500,-4502.5477
Z
M2.2500,-4495.6920
C3.0758,-4495.2495 4.0845,-4494.8340 5.2493,-4494.4507
L5.2493,-4488.5895
C4.0507,-4488.9960 3.0427,-4489.4385 2.2500,-4489.9095
L2.2500,-4495.6920
Z
M2.2500,-4489.0478
C3.0780,-4488.6000 4.0852,-4488.1815 5.2493,-4487.7945
L5.2493,-4481.8387
C4.0500,-4482.2460 3.0427,-4482.6885 2.2500,-4483.1587
L2.2500,-4489.0478
Z
M2.2500,-4482.2978
C3.0780,-4481.8500 4.0852,-4481.4315 5.2493,-4481.0460
L5.2493,-4475.8898
C3.9548,-4476.3472 2.9542,-4476.8273 2.2500,-4477.3043
L2.2500,-4482.2978
Z
M54.0000,-4466.3850
C53.6557,-4465.8945 51.7657,-4464.5647 46.3553,-4463.4083
C41.3528,-4462.3387 34.8795,-4461.7500 28.1250,-4461.7500
C21.3720,-4461.7500 14.8973,-4462.3387 9.8955,-4463.4083
C4.4842,-4464.5647 2.5928,-4465.8938 2.2500,-4466.3850
L2.2500,-4474.7100
C7.0890,-4472.2995 16.9552,-4470.7500 28.1250,-4470.7500
C39.2955,-4470.7500 49.1610,-4472.3010 54.0000,-4474.7122
L54.0000,-4466.3850
Z
M14.2500,-4499.3678
L14.2500,-4493.2665
C11.0572,-4493.7015 8.2485,-4494.2820 6.0000,-4494.9772
L6.0000,-4501.0583
C8.2815,-4500.3683 11.0828,-4499.7953 14.2500,-4499.3678
Z
M6.0000,-4501.8472
L6.0000,-4507.0410
C8.3115,-4506.3592 11.1105,-4505.7937 14.2500,-4505.3700
L14.2500,-4500.1350
C11.0632,-4500.5707 8.2515,-4501.1528 6.0000,-4501.8472
Z
M14.2500,-4492.5225
L14.2500,-4486.6343
C11.0625,-4487.0693 8.2515,-4487.6520 6.0000,-4488.3465
L6.0000,-4494.2137
C8.2830,-4493.5267 11.0895,-4492.9530 14.2500,-4492.5225
Z
M14.2500,-4485.8663
L14.2500,-4479.8843
C11.0632,-4480.3200 8.2515,-4480.9020 6.0000,-4481.5965
L6.0000,-4487.5575
C8.2815,-4486.8660 11.0820,-4486.2938 14.2500,-4485.8663
Z
M14.2500,-4479.1170
L14.2500,-4473.8745
C10.8878,-4474.3403 8.1240,-4474.9582 6.0000,-4475.6400
L6.0000,-4480.8090
C8.2815,-4480.1175 11.0828,-4479.5453 14.2500,-4479.1170
Z
M23.2500,-4498.6005
L23.2500,-4492.4918
C20.3310,-4492.6140 17.5522,-4492.8443 15.0000,-4493.1668
L15.0000,-4499.2688
C17.5545,-4498.9485 20.3302,-4498.7212 23.2500,-4498.6005
Z
M15.0000,-4500.0360
L15.0000,-4505.2725
C17.5628,-4504.9507 20.3370,-4504.7220 23.2500,-4504.6005
L23.2500,-4499.3535
C20.3385,-4499.4780 17.5575,-4499.7105 15.0000,-4500.0360
Z
M23.2500,-4491.7432
L23.2500,-4485.8535
C20.3378,-4485.9773 17.5575,-4486.2097 15.0000,-4486.5345
L15.0000,-4492.4235
C17.5613,-4492.0995 20.3385,-4491.8670 23.2500,-4491.7432
Z
M23.2500,-4485.1005
L23.2500,-4479.1043
C20.3385,-4479.2280 17.5582,-4479.4605 15.0000,-4479.7860
L15.0000,-4485.7688
C17.5545,-4485.4485 20.3295,-4485.2212 23.2500,-4485.1005
Z
M23.2500,-4478.3512
L23.2500,-4473.0997
C20.2148,-4473.2235 17.4637,-4473.4620 15.0000,-4473.7793
L15.0000,-4479.0188
C17.5545,-4478.6985 20.3302,-4478.4712 23.2500,-4478.3512
Z
M28.1250,-4498.5000
C29.5237,-4498.5000 30.9000,-4498.5255 32.2493,-4498.5720
L32.2493,-4492.4640
C30.8955,-4492.4160 29.5185,-4492.3890 28.1250,-4492.3890
C26.7270,-4492.3890 25.3500,-4492.4145 24.0000,-4492.4625
L24.0000,-4498.5720
C25.3493,-4498.5262 26.7255,-4498.5000 28.1250,-4498.5000
Z
M24.0000,-4499.3250
L24.0000,-4504.5735
C25.3508,-4504.5255 26.7270,-4504.5000 28.1250,-4504.5000
C29.5230,-4504.5000 30.8993,-4504.5255 32.2493,-4504.5727
L32.2493,-4499.3250
C30.8978,-4499.2763 29.5207,-4499.2500 28.1250,-4499.2500
C26.7300,-4499.2500 25.3523,-4499.2763 24.0000,-4499.3250
Z
M28.1250,-4491.6405
C29.5237,-4491.6405 30.8985,-4491.6682 32.2493,-4491.7162
L32.2493,-4485.8250
C30.8978,-4485.7762 29.5207,-4485.7500 28.1250,-4485.7500
C26.7293,-4485.7500 25.3523,-4485.7762 24.0000,-4485.8250
L24.0000,-4491.7155
C25.3515,-4491.6667 26.7285,-4491.6405 28.1250,-4491.6405
Z
M28.1250,-4485.0000
C29.5245,-4485.0000 30.9000,-4485.0255 32.2493,-4485.0727
L32.2493,-4479.0750
C30.8978,-4479.0263 29.5207,-4479.0000 28.1250,-4479.0000
C26.7293,-4479.0000 25.3523,-4479.0263 24.0000,-4479.0750
L24.0000,-4485.0727
C25.3493,-4485.0255 26.7255,-4485.0000 28.1250,-4485.0000
Z
M28.1250,-4478.2500
C29.5237,-4478.2500 30.9000,-4478.2762 32.2493,-4478.3227
L32.2493,-4473.0757
C30.9203,-4473.0300 29.5545,-4473.0000 28.1250,-4473.0000
C26.6955,-4473.0000 25.3290,-4473.0300 24.0000,-4473.0757
L24.0000,-4478.3235
C25.3493,-4478.2762 26.7255,-4478.2500 28.1250,-4478.2500
Z
M41.2500,-4499.2688
L41.2500,-4493.1817
C38.6880,-4492.8540 35.9078,-4492.6200 33.0000,-4492.4955
L33.0000,-4498.6005
C35.9197,-4498.7212 38.6955,-4498.9485 41.2500,-4499.2688
Z
M33.0000,-4499.3535
L33.0000,-4504.6005
C35.9137,-4504.7220 38.6865,-4504.9507 41.2500,-4505.2725
L41.2500,-4500.0360
C38.6925,-4499.7105 35.9122,-4499.4780 33.0000,-4499.3535
Z
M41.2500,-4492.4138
L41.2500,-4486.5360
C38.6925,-4486.2097 35.9122,-4485.9780 33.0000,-4485.8543
L33.0000,-4491.7440
C35.9152,-4491.8640 38.6925,-4492.0913 41.2500,-4492.4138
Z
M41.2500,-4485.7688
L41.2500,-4479.7852
C38.6925,-4479.4590 35.9122,-4479.2272 33.0000,-4479.1035
L33.0000,-4485.0997
C35.9197,-4485.2212 38.6955,-4485.4485 41.2500,-4485.7688
Z
M41.2500,-4479.0188
L41.2500,-4473.7793
C38.7862,-4473.4628 36.0353,-4473.2242 33.0000,-4473.0997
L33.0000,-4478.3512
C35.9197,-4478.4712 38.6955,-4478.6985 41.2500,-4479.0188
Z
M50.2500,-4501.0590
L50.2500,-4494.9937
C47.9955,-4494.3000 45.1830,-4493.7180 42.0000,-4493.2815
L42.0000,-4499.3685
C45.1673,-4499.7953 47.9678,-4500.3683 50.2500,-4501.0590
Z
M42.0000,-4500.1350
L42.0000,-4505.3700
C45.1395,-4505.7937 47.9385,-4506.3592 50.2500,-4507.0410
L50.2500,-4501.8472
C47.9985,-4501.1528 45.1860,-4500.5707 42.0000,-4500.1350
Z
M50.2500,-4494.2085
L50.2500,-4488.3473
C47.9985,-4487.6528 45.1860,-4487.0707 42.0000,-4486.6350
L42.0000,-4492.5172
C45.1658,-4492.9455 47.9663,-4493.5177 50.2500,-4494.2085
Z
M50.2500,-4487.5575
L50.2500,-4481.5980
C47.9985,-4480.9028 45.1860,-4480.3215 42.0000,-4479.8850
L42.0000,-4485.8678
C45.1673,-4486.2945 47.9678,-4486.8668 50.2500,-4487.5575
Z
M50.2500,-4480.8090
L50.2500,-4475.6392
C48.1260,-4474.9590 45.3615,-4474.3403 42.0000,-4473.8738
L42.0000,-4479.1163
C45.1673,-4479.5453 47.9678,-4480.1175 50.2500,-4480.8090
Z
M54.0000,-4477.3050
C53.2958,-4476.8273 52.2952,-4476.3488 51.0000,-4475.8898
L51.0000,-4481.0460
C52.1647,-4481.4330 53.1720,-4481.8515 54.0000,-4482.2993
L54.0000,-4477.3050
Z
M54.0000,-4483.1610
C53.2072,-4482.6900 52.2000,-4482.2475 51.0000,-4481.8395
L51.0000,-4487.7945
C52.1647,-4488.1807 53.1720,-4488.5993 54.0000,-4489.0470
L54.0000,-4483.1610
Z
M54.0000,-4489.9102
C53.2072,-4489.4393 52.2000,-4488.9960 51.0000,-4488.5888
L51.0000,-4494.4417
C52.1707,-4494.8295 53.1713,-4495.2510 54.0000,-4495.7002
L54.0000,-4489.9102
Z
M54.0000,-4496.5477
C53.2102,-4496.0798 52.1955,-4495.6418 51.0000,-4495.2360
L51.0000,-4501.2960
C52.1647,-4501.6822 53.1720,-4502.1008 54.0000,-4502.5485
L54.0000,-4496.5477
Z
M54.0000,-4503.4095
C53.2072,-4502.9385 52.2000,-4502.4960 51.0000,-4502.0887
L51.0000,-4507.2713
C52.1422,-4507.6388 53.1487,-4508.0363 54.0000,-4508.4608
L54.0000,-4503.4095
Z
M54.0000,-4511.0550
C50.8635,-4508.9280 41.7157,-4506.7500 28.1250,-4506.7500
C14.5357,-4506.7500 5.3857,-4508.9272 2.2500,-4511.0543
L2.2500,-4522.3650
C2.5928,-4522.8562 4.4842,-4524.1853 9.8955,-4525.3425
C14.8980,-4526.4113 21.3720,-4527.0000 28.1250,-4527.0000
C34.8787,-4527.0000 41.3520,-4526.4113 46.3545,-4525.3425
C51.7657,-4524.1860 53.6550,-4522.8562 53.9992,-4522.3650
L53.9992,-4511.0550
L54.0000,-4511.0550
Z
M60.7500,-4473.1350
C60.4837,-4472.7555 59.2837,-4471.8728 56.2500,-4470.9577
L56.2500,-4522.5000
C56.2500,-4526.2275 43.6583,-4529.2500 28.1250,-4529.2500
C20.7375,-4529.2500 14.0190,-4528.5653 9.0000,-4527.4478
L9.0000,-4529.1150
C9.3428,-4529.6062 11.2343,-4530.9353 16.6455,-4532.0925
C21.6480,-4533.1613 28.1220,-4533.7500 34.8750,-4533.7500
C41.6295,-4533.7500 48.1027,-4533.1613 53.1053,-4532.0925
C58.5158,-4530.9353 60.4058,-4529.6062 60.7500,-4529.1150
L60.7500,-4473.1350
Z" 
style="fill-rule: evenodd; fill: #000000; "/>
<text x="0.0000" y="-4459.5000">
<tspan font-family="Arial Narrow" font-weight="bold" font-size="12.0000" fill="#000000" fill-opacity="1.0000" stroke-opacity="1.0000" >
Database Datastores</tspan>
</text>
</svg>
