<?xml version="1.0" encoding="UTF-8" standalone="no"?>
<svg version="1.1" xmlns="http://www.w3.org/2000/svg" xmlns:xlink="http://www.w3.org/1999/xlink" width="1.0938in" height="0.5312in" viewBox="0 0 78.7500 38.2500" >
<g id="Layer1117" >
<path d=" 
M60.9030,-4518.0001
L60.9030,-4515.7501
L60.9030,-4518.0001
Z
M9.1463,-4524.7501
C9.1463,-4521.3661 7.2690,-4518.4119 4.5000,-4516.8751
C7.2690,-4515.3384 9.1463,-4512.3841 9.1463,-4509.0001
L9.1463,-4504.5001
C9.1463,-4502.5689 9.8460,-4500.0001 15.8963,-4500.0001
L63.1463,-4500.0001
C69.1958,-4500.0001 69.8963,-4502.5689 69.8963,-4504.5001
L69.8963,-4509.0001
C69.8963,-4512.3841 71.7743,-4515.3384 74.5425,-4516.8751
C71.7743,-4518.4119 69.8963,-4521.3661 69.8963,-4524.7501
L69.8963,-4527.0001
C69.8963,-4530.7224 66.8685,-4533.7501 63.1463,-4533.7501
L15.8963,-4533.7501
C12.1740,-4533.7501 9.1463,-4530.7224 9.1463,-4527.0001
L9.1463,-4524.7501
Z" 
style="stroke-width: 0.7200; stroke-linecap: round; stroke-linejoin: round; fill-rule: evenodd; fill: #ffffff; "/>
<path d=" 
M60.9030,-4518.0001
L60.9030,-4515.7501
L60.9030,-4518.0001
Z
M9.1463,-4524.7501
C9.1463,-4521.3661 7.2690,-4518.4119 4.5000,-4516.8751
C7.2690,-4515.3384 9.1463,-4512.3841 9.1463,-4509.0001
L9.1463,-4504.5001
C9.1463,-4502.5689 9.8460,-4500.0001 15.8963,-4500.0001
L63.1463,-4500.0001
C69.1958,-4500.0001 69.8963,-4502.5689 69.8963,-4504.5001
L69.8963,-4509.0001
C69.8963,-4512.3841 71.7743,-4515.3384 74.5425,-4516.8751
C71.7743,-4518.4119 69.8963,-4521.3661 69.8963,-4524.7501
L69.8963,-4527.0001
C69.8963,-4530.7224 66.8685,-4533.7501 63.1463,-4533.7501
L15.8963,-4533.7501
C12.1740,-4533.7501 9.1463,-4530.7224 9.1463,-4527.0001
L9.1463,-4524.7501
Z" 
style="stroke-width: 0.7200; stroke: #ffffff; stroke-dasharray: none; stroke-linecap: round; stroke-linejoin: round; fill: none; "/>
</g>
<path d=" 
M60.7568,-4515.7500
L18.0000,-4515.7500
L18.0000,-4518.0000
L60.7568,-4518.0000
L60.7568,-4515.7500
Z
M72.0000,-4504.5000
L72.0000,-4509.0000
C72.0000,-4512.7222 75.0277,-4515.7500 78.7500,-4515.7500
L78.7500,-4518.0000
C75.0277,-4518.0000 72.0000,-4521.0278 72.0000,-4524.7500
L72.0000,-4527.0000
C72.0000,-4531.9628 67.9628,-4536.0000 63.0000,-4536.0000
L15.7500,-4536.0000
C10.7872,-4536.0000 6.7500,-4531.9628 6.7500,-4527.0000
L6.7500,-4524.7500
C6.7500,-4521.0278 3.7223,-4518.0000 0.0000,-4518.0000
L0.0000,-4515.7500
C3.7223,-4515.7500 6.7500,-4512.7222 6.7500,-4509.0000
L6.7500,-4504.5000
C6.7500,-4501.4213 8.3115,-4497.7500 15.7500,-4497.7500
L63.0000,-4497.7500
C70.4385,-4497.7500 72.0000,-4501.4213 72.0000,-4504.5000
Z
M9.0000,-4524.7500
L9.0000,-4527.0000
C9.0000,-4530.7222 12.0277,-4533.7500 15.7500,-4533.7500
L63.0000,-4533.7500
C66.7223,-4533.7500 69.7500,-4530.7222 69.7500,-4527.0000
L69.7500,-4524.7500
C69.7500,-4521.3660 71.6280,-4518.4118 74.3963,-4516.8750
C71.6280,-4515.3382 69.7500,-4512.3840 69.7500,-4509.0000
L69.7500,-4504.5000
C69.7500,-4502.5688 69.0495,-4500.0000 63.0000,-4500.0000
L15.7500,-4500.0000
C9.6998,-4500.0000 9.0000,-4502.5688 9.0000,-4504.5000
L9.0000,-4509.0000
C9.0000,-4512.3840 7.1227,-4515.3382 4.3537,-4516.8750
C7.1227,-4518.4118 9.0000,-4521.3660 9.0000,-4524.7500
Z" 
style="fill-rule: evenodd; fill: #010101; "/>
<text x="0.0000" y="-4497.7500">
<tspan font-family="Arial Narrow" font-weight="bold" font-size="12.0000" fill="#000000" fill-opacity="1.0000" stroke-opacity="1.0000" >
</tspan>
<tspan font-family="Arial Narrow" font-weight="bold" font-size="12.0000" fill="#000000" fill-opacity="1.0000" stroke-opacity="1.0000" >
Data Model Object</tspan>
</text>
</svg>
