<?xml version="1.0" encoding="UTF-8" standalone="no"?>
<svg version="1.1" xmlns="http://www.w3.org/2000/svg" xmlns:xlink="http://www.w3.org/1999/xlink" width="0.8750in" height="1.0625in" viewBox="0 0 63.0000 76.5000" >
<g id="Layer1029" >
<path d=" 
M60.7500,-4529.1151
C60.4073,-4529.6064 58.5158,-4530.9354 53.1053,-4532.0926
C48.1028,-4533.1614 41.6280,-4533.7501 34.8750,-4533.7501
C28.1220,-4533.7501 21.6473,-4533.1614 16.6455,-4532.0926
C11.2343,-4530.9354 9.3428,-4529.6064 9.0000,-4529.1151
L9.0000,-4525.1423
C4.2727,-4524.0359 2.5731,-4522.8282 2.2500,-4522.3651
L2.2500,-4466.3851
C2.5928,-4465.8939 4.4843,-4464.5649 9.8955,-4463.4084
C14.8973,-4462.3389 21.3720,-4461.7501 28.1250,-4461.7501
C34.8780,-4461.7501 41.3528,-4462.3389 46.3553,-4463.4084
C51.7658,-4464.5649 53.6573,-4465.8946 54.0000,-4466.3851
L54.0000,-4470.3584
C58.7272,-4471.4643 60.4269,-4472.6727 60.7500,-4473.1351
L60.7500,-4529.1151
Z" 
style="stroke-width: 0.7200; stroke-linecap: round; stroke-linejoin: round; fill-rule: evenodd; fill: #ffffff; "/>
<path d=" 
M60.7500,-4529.1151
C60.4073,-4529.6064 58.5158,-4530.9354 53.1053,-4532.0926
C48.1028,-4533.1614 41.6280,-4533.7501 34.8750,-4533.7501
C28.1220,-4533.7501 21.6473,-4533.1614 16.6455,-4532.0926
C11.2343,-4530.9354 9.3428,-4529.6064 9.0000,-4529.1151
L9.0000,-4525.1423
C4.2727,-4524.0359 2.5731,-4522.8282 2.2500,-4522.3651
L2.2500,-4466.3851
C2.5928,-4465.8939 4.4843,-4464.5649 9.8955,-4463.4084
C14.8973,-4462.3389 21.3720,-4461.7501 28.1250,-4461.7501
C34.8780,-4461.7501 41.3528,-4462.3389 46.3553,-4463.4084
C51.7658,-4464.5649 53.6573,-4465.8946 54.0000,-4466.3851
L54.0000,-4470.3584
C58.7272,-4471.4643 60.4269,-4472.6727 60.7500,-4473.1351
L60.7500,-4529.1151
Z" 
style="stroke-width: 0.7200; stroke: #ffffff; stroke-dasharray: none; stroke-linecap: round; stroke-linejoin: round; fill: none; "/>
</g>
<path d=" 
M34.8750,-4536.0000
C19.3417,-4536.0000 6.7500,-4532.9775 6.7500,-4529.2500
L6.7500,-4526.8845
C6.7575,-4526.8867 6.7658,-4526.8882 6.7732,-4526.8905
C2.5545,-4525.7100 0.0000,-4524.1770 0.0000,-4522.5000
L0.0000,-4466.2500
C0.0000,-4462.5217 12.5918,-4459.5000 28.1250,-4459.5000
C43.6583,-4459.5000 56.2500,-4462.5217 56.2500,-4466.2500
L56.2500,-4468.6155
C56.2560,-4468.6170 56.2635,-4468.6192 56.2687,-4468.6208
C56.5117,-4468.6890 56.7488,-4468.7595 56.9805,-4468.8292
C57.0038,-4468.8367 57.0270,-4468.8435 57.0502,-4468.8503
C57.2790,-4468.9208 57.5017,-4468.9913 57.7192,-4469.0640
C57.7410,-4469.0715 57.7635,-4469.0797 57.7852,-4469.0865
C58.0035,-4469.1600 58.2157,-4469.2335 58.4220,-4469.3093
C58.4362,-4469.3145 58.4490,-4469.3198 58.4625,-4469.3250
C59.5177,-4469.7142 60.4080,-4470.1312 61.1152,-4470.5700
C61.1490,-4470.5902 61.1842,-4470.6112 61.2172,-4470.6322
C61.3163,-4470.6952 61.4070,-4470.7598 61.4977,-4470.8235
C61.5488,-4470.8595 61.6028,-4470.8962 61.6515,-4470.9330
C61.7295,-4470.9900 61.8000,-4471.0485 61.8712,-4471.1062
C61.9245,-4471.1513 61.9785,-4471.1947 62.0287,-4471.2398
C62.0895,-4471.2938 62.1465,-4471.3493 62.2020,-4471.4040
C62.2522,-4471.4535 62.3010,-4471.5045 62.3467,-4471.5540
C62.3933,-4471.6058 62.4390,-4471.6582 62.4818,-4471.7100
C62.5260,-4471.7647 62.5657,-4471.8202 62.6047,-4471.8765
C62.6393,-4471.9245 62.6738,-4471.9747 62.7038,-4472.0235
C62.7405,-4472.0842 62.7713,-4472.1458 62.8013,-4472.2072
C62.8230,-4472.2530 62.8477,-4472.2980 62.8658,-4472.3438
C62.8943,-4472.4143 62.9137,-4472.4848 62.9333,-4472.5560
C62.9437,-4472.5943 62.9580,-4472.6318 62.9655,-4472.6692
C62.9865,-4472.7787 63.0000,-4472.8898 63.0000,-4473.0000
L63.0000,-4529.2500
C63.0000,-4532.9775 50.4082,-4536.0000 34.8750,-4536.0000
Z
M54.0000,-4466.3850
C53.6572,-4465.8945 51.7657,-4464.5647 46.3553,-4463.4083
C41.3528,-4462.3387 34.8780,-4461.7500 28.1250,-4461.7500
C21.3720,-4461.7500 14.8973,-4462.3387 9.8955,-4463.4083
C4.4842,-4464.5647 2.5928,-4465.8938 2.2500,-4466.3850
L2.2500,-4522.3650
C2.5928,-4522.8562 4.4842,-4524.1853 9.8955,-4525.3425
C14.8973,-4526.4113 21.3720,-4527.0000 28.1250,-4527.0000
C34.8780,-4527.0000 41.3528,-4526.4113 46.3553,-4525.3425
C51.7657,-4524.1860 53.6572,-4522.8562 54.0000,-4522.3650
L54.0000,-4466.3850
Z
M60.7500,-4473.1350
C60.4845,-4472.7555 59.2837,-4471.8728 56.2500,-4470.9577
L56.2500,-4522.5000
C56.2500,-4526.2275 43.6583,-4529.2500 28.1250,-4529.2500
C20.7367,-4529.2500 14.0182,-4528.5653 9.0000,-4527.4478
L9.0000,-4529.1150
C9.3428,-4529.6062 11.2343,-4530.9353 16.6455,-4532.0925
C21.6472,-4533.1613 28.1220,-4533.7500 34.8750,-4533.7500
C41.6280,-4533.7500 48.1027,-4533.1613 53.1053,-4532.0925
C58.5158,-4530.9353 60.4073,-4529.6062 60.7500,-4529.1150
L60.7500,-4473.1350
Z" 
style="fill-rule: evenodd; fill: #000000; "/>
<path d=" 
M28.1250,-4515.7500
C18.5040,-4515.7500 9.6240,-4516.9125 4.3695,-4518.8603
C4.1760,-4518.9315 4.0762,-4519.1483 4.1490,-4519.3418
C4.2217,-4519.5360 4.4355,-4519.6350 4.6312,-4519.5638
C9.8062,-4517.6453 18.5887,-4516.5000 28.1250,-4516.5000
C37.6627,-4516.5000 46.4460,-4517.6445 51.6195,-4519.5630
C51.8145,-4519.6358 52.0297,-4519.5352 52.1017,-4519.3410
C52.1745,-4519.1475 52.0740,-4518.9315 51.8805,-4518.8595
C46.6275,-4516.9125 37.7467,-4515.7500 28.1250,-4515.7500
Z" 
style="fill-rule: evenodd; fill: #000000; "/>
<text x="0.0000" y="-4459.5000">
<tspan font-family="Arial Narrow" font-weight="bold" font-size="12.0000" fill="#000000" fill-opacity="1.0000" stroke-opacity="1.0000" >
Datastores</tspan>
</text>
</svg>
