<?xml version="1.0" encoding="UTF-8" standalone="no"?>
<svg version="1.1" xmlns="http://www.w3.org/2000/svg" xmlns:xlink="http://www.w3.org/1999/xlink" width="0.7813in" height="0.9688in" viewBox="0 0 56.2515 69.7500" >
<g id="Layer1030" >
<path d=" 
M46.3552,-4532.0925
C41.3527,-4533.1613 34.8780,-4533.7500 28.1250,-4533.7500
C21.3720,-4533.7500 14.8973,-4533.1613 9.8955,-4532.0925
C4.4842,-4530.9352 2.5927,-4529.6062 2.2500,-4529.1150
L2.2500,-4473.1350
C2.5927,-4472.6438 4.4842,-4471.3147 9.8955,-4470.1583
C14.8973,-4469.0887 21.3720,-4468.5000 28.1250,-4468.5000
C34.8780,-4468.5000 41.3527,-4469.0887 46.3552,-4470.1583
C51.7657,-4471.3147 53.6573,-4472.6445 54.0000,-4473.1350
L54.0000,-4529.1150
C53.6573,-4529.6062 51.7657,-4530.9352 46.3552,-4532.0925
Z" 
style="stroke-width: 0.7200; stroke-linecap: round; stroke-linejoin: round; fill-rule: evenodd; fill: #ffffff; "/>
<path d=" 
M46.3552,-4532.0925
C41.3527,-4533.1613 34.8780,-4533.7500 28.1250,-4533.7500
C21.3720,-4533.7500 14.8973,-4533.1613 9.8955,-4532.0925
C4.4842,-4530.9352 2.5927,-4529.6062 2.2500,-4529.1150
L2.2500,-4473.1350
C2.5927,-4472.6438 4.4842,-4471.3147 9.8955,-4470.1583
C14.8973,-4469.0887 21.3720,-4468.5000 28.1250,-4468.5000
C34.8780,-4468.5000 41.3527,-4469.0887 46.3552,-4470.1583
C51.7657,-4471.3147 53.6573,-4472.6445 54.0000,-4473.1350
L54.0000,-4529.1150
C53.6573,-4529.6062 51.7657,-4530.9352 46.3552,-4532.0925
Z" 
style="stroke-width: 0.7200; stroke: #ffffff; stroke-dasharray: none; stroke-linecap: round; stroke-linejoin: round; fill: none; "/>
</g>
<path d=" 
M28.1258,-4536.0000
C12.5918,-4536.0000 0.0000,-4532.9775 0.0000,-4529.2500
L0.0000,-4473.0000
C0.0000,-4469.2717 12.5918,-4466.2500 28.1258,-4466.2500
C43.6582,-4466.2500 56.2515,-4469.2717 56.2515,-4473.0000
L56.2515,-4529.2500
C56.2515,-4532.9775 43.6582,-4536.0000 28.1258,-4536.0000
Z
M15.0000,-4499.1735
C17.5613,-4498.8488 20.3385,-4498.6170 23.2500,-4498.4932
L23.2500,-4492.6035
C20.3378,-4492.7272 17.5575,-4492.9597 15.0000,-4493.2845
L15.0000,-4499.1735
Z
M14.2500,-4493.3850
C11.0625,-4493.8200 8.2515,-4494.4028 6.0000,-4495.0972
L6.0000,-4500.9645
C8.2830,-4500.2767 11.0895,-4499.7030 14.2500,-4499.2725
L14.2500,-4493.3850
Z
M24.0000,-4498.4648
C25.3515,-4498.4167 26.7285,-4498.3898 28.1250,-4498.3898
C29.5230,-4498.3898 30.8985,-4498.4175 32.2493,-4498.4655
L32.2493,-4492.5750
C30.8970,-4492.5270 29.5200,-4492.5000 28.1250,-4492.5000
C26.7292,-4492.5000 25.3523,-4492.5263 24.0000,-4492.5750
L24.0000,-4498.4648
Z
M33.0000,-4498.4932
C35.9153,-4498.6140 38.6925,-4498.8413 41.2500,-4499.1637
L41.2500,-4493.2860
C38.6925,-4492.9597 35.9122,-4492.7280 33.0000,-4492.6043
L33.0000,-4498.4932
Z
M42.0000,-4499.2658
C45.1657,-4499.6947 47.9677,-4500.2677 50.2500,-4500.9585
L50.2500,-4495.0972
C47.9985,-4494.4028 45.1875,-4493.8207 42.0000,-4493.3850
L42.0000,-4499.2658
Z
M51.0000,-4501.1917
C52.1715,-4501.5795 53.1713,-4502.0010 54.0015,-4502.4502
L54.0015,-4496.6602
C53.2073,-4496.1892 52.2000,-4495.7460 51.0000,-4495.3395
L51.0000,-4501.1917
Z
M54.0015,-4503.2977
C53.2102,-4502.8297 52.1970,-4502.3917 51.0000,-4501.9860
L51.0000,-4508.0460
C52.1648,-4508.4323 53.1735,-4508.8508 54.0015,-4509.2985
L54.0015,-4503.2977
Z
M50.2500,-4501.7438
C47.9970,-4501.0500 45.1830,-4500.4672 42.0000,-4500.0307
L42.0000,-4506.1178
C45.1673,-4506.5453 47.9693,-4507.1183 50.2500,-4507.8090
L50.2500,-4501.7438
Z
M41.2500,-4499.9317
C38.6880,-4499.6040 35.9078,-4499.3700 33.0000,-4499.2455
L33.0000,-4505.3505
C35.9198,-4505.4712 38.6955,-4505.6985 41.2500,-4506.0188
L41.2500,-4499.9317
Z
M32.2500,-4499.2148
C30.8962,-4499.1668 29.5193,-4499.1397 28.1258,-4499.1397
C26.7278,-4499.1397 25.3508,-4499.1653 24.0008,-4499.2132
L24.0008,-4505.3227
C25.3500,-4505.2762 26.7262,-4505.2500 28.1258,-4505.2500
C29.5253,-4505.2500 30.9008,-4505.2755 32.2500,-4505.3220
L32.2500,-4499.2148
Z
M23.2500,-4499.2418
C20.3310,-4499.3640 17.5523,-4499.5943 15.0000,-4499.9168
L15.0000,-4506.0188
C17.5545,-4505.6985 20.3303,-4505.4712 23.2500,-4505.3505
L23.2500,-4499.2418
Z
M14.2500,-4500.0158
C11.0573,-4500.4507 8.2485,-4501.0312 6.0000,-4501.7272
L6.0000,-4507.8083
C8.2815,-4507.1183 11.0828,-4506.5445 14.2500,-4506.1178
L14.2500,-4500.0158
Z
M5.2493,-4501.9710
C4.0538,-4502.3782 3.0413,-4502.8200 2.2500,-4503.2918
L2.2500,-4509.2977
C3.0780,-4508.8500 4.0853,-4508.4315 5.2493,-4508.0460
L5.2493,-4501.9710
Z
M5.2493,-4501.2007
L5.2493,-4495.3395
C4.0508,-4495.7460 3.0428,-4496.1885 2.2500,-4496.6595
L2.2500,-4502.4412
C3.0758,-4501.9995 4.0845,-4501.5840 5.2493,-4501.2007
Z
M2.2500,-4495.7978
C3.0780,-4495.3500 4.0853,-4494.9315 5.2493,-4494.5445
L5.2493,-4488.5887
C4.0500,-4488.9960 3.0428,-4489.4385 2.2500,-4489.9088
L2.2500,-4495.7978
Z
M6.0000,-4494.3075
C8.2815,-4493.6160 11.0828,-4493.0430 14.2500,-4492.6170
L14.2500,-4486.6343
C11.0633,-4487.0700 8.2515,-4487.6520 6.0000,-4488.3465
L6.0000,-4494.3075
Z
M15.0000,-4492.5180
C17.5538,-4492.1978 20.3295,-4491.9713 23.2500,-4491.8497
L23.2500,-4485.8535
C20.3385,-4485.9773 17.5583,-4486.2097 15.0000,-4486.5352
L15.0000,-4492.5180
Z
M24.0000,-4491.8227
C25.3493,-4491.7762 26.7255,-4491.7500 28.1250,-4491.7500
C29.5245,-4491.7500 30.9000,-4491.7755 32.2493,-4491.8227
L32.2493,-4485.8250
C30.8970,-4485.7770 29.5200,-4485.7500 28.1250,-4485.7500
C26.7292,-4485.7500 25.3523,-4485.7762 24.0000,-4485.8250
L24.0000,-4491.8227
Z
M33.0000,-4491.8505
C35.9198,-4491.9713 38.6955,-4492.1985 41.2500,-4492.5195
L41.2500,-4486.5360
C38.6925,-4486.2097 35.9122,-4485.9780 33.0000,-4485.8543
L33.0000,-4491.8505
Z
M42.0000,-4492.6170
C45.1673,-4493.0438 47.9693,-4493.6168 50.2500,-4494.3075
L50.2500,-4488.3480
C47.9985,-4487.6528 45.1860,-4487.0707 42.0000,-4486.6350
L42.0000,-4492.6170
Z
M51.0000,-4494.5453
C52.1648,-4494.9315 53.1720,-4495.3500 54.0015,-4495.7978
L54.0015,-4489.9110
C53.2088,-4489.4400 52.2000,-4488.9975 51.0000,-4488.5895
L51.0000,-4494.5453
Z
M54.0015,-4510.1595
C53.2073,-4509.6893 52.2000,-4509.2467 51.0000,-4508.8395
L51.0000,-4514.0220
C52.1438,-4514.3895 53.1488,-4514.7870 54.0015,-4515.2115
L54.0015,-4510.1595
Z
M50.2500,-4508.5972
C47.9985,-4507.9028 45.1860,-4507.3200 42.0000,-4506.8843
L42.0000,-4512.1192
C45.1395,-4512.5430 47.9385,-4513.1085 50.2500,-4513.7903
L50.2500,-4508.5972
Z
M41.2500,-4506.7860
C38.6925,-4506.4605 35.9122,-4506.2280 33.0000,-4506.1035
L33.0000,-4511.3505
C35.9138,-4511.4720 38.6865,-4511.7007 41.2500,-4512.0225
L41.2500,-4506.7860
Z
M32.2500,-4506.0750
C30.8978,-4506.0262 29.5208,-4506.0000 28.1258,-4506.0000
C26.7300,-4506.0000 25.3530,-4506.0262 24.0008,-4506.0750
L24.0008,-4511.3235
C25.3515,-4511.2762 26.7278,-4511.2507 28.1258,-4511.2507
C29.5238,-4511.2507 30.8992,-4511.2762 32.2500,-4511.3235
L32.2500,-4506.0750
Z
M23.2500,-4506.1043
C20.3385,-4506.2280 17.5583,-4506.4605 15.0000,-4506.7860
L15.0000,-4512.0225
C17.5627,-4511.7007 20.3370,-4511.4720 23.2500,-4511.3505
L23.2500,-4506.1043
Z
M14.2500,-4506.8850
C11.0633,-4507.3207 8.2515,-4507.9028 6.0000,-4508.5972
L6.0000,-4513.7910
C8.3115,-4513.1093 11.1105,-4512.5437 14.2500,-4512.1200
L14.2500,-4506.8850
Z
M5.2493,-4508.8387
C4.0500,-4509.2460 3.0428,-4509.6878 2.2500,-4510.1580
L2.2500,-4515.2100
C3.1013,-4514.7862 4.1070,-4514.3888 5.2493,-4514.0220
L5.2493,-4508.8387
Z
M2.2500,-4489.0477
C3.0780,-4488.6000 4.0853,-4488.1815 5.2493,-4487.7960
L5.2493,-4482.6398
C3.9548,-4483.0972 2.9543,-4483.5773 2.2500,-4484.0543
L2.2500,-4489.0477
Z
M6.0000,-4487.5583
C8.2815,-4486.8675 11.0828,-4486.2945 14.2500,-4485.8670
L14.2500,-4480.6245
C10.8878,-4481.0903 8.1240,-4481.7082 6.0000,-4482.3900
L6.0000,-4487.5583
Z
M15.0000,-4485.7688
C17.5545,-4485.4478 20.3303,-4485.2213 23.2500,-4485.1005
L23.2500,-4479.8490
C20.2148,-4479.9727 17.4638,-4480.2113 15.0000,-4480.5285
L15.0000,-4485.7688
Z
M24.0000,-4485.0735
C25.3500,-4485.0262 26.7262,-4485.0000 28.1258,-4485.0000
C29.5253,-4485.0000 30.9008,-4485.0262 32.2500,-4485.0727
L32.2500,-4479.8257
C30.9203,-4479.7800 29.5545,-4479.7500 28.1258,-4479.7500
C26.6962,-4479.7500 25.3298,-4479.7800 24.0008,-4479.8257
L24.0008,-4485.0735
L24.0000,-4485.0735
Z
M33.0000,-4485.1012
C35.9198,-4485.2213 38.6955,-4485.4485 41.2500,-4485.7695
L41.2500,-4480.5300
C38.7863,-4480.2135 36.0352,-4479.9743 33.0000,-4479.8505
L33.0000,-4485.1012
Z
M42.0000,-4485.8670
C45.1673,-4486.2945 47.9693,-4486.8675 50.2500,-4487.5590
L50.2500,-4482.3893
C48.1260,-4481.7090 45.3630,-4481.0903 42.0000,-4480.6237
L42.0000,-4485.8670
Z
M51.0000,-4487.7967
C52.1648,-4488.1838 53.1735,-4488.6022 54.0015,-4489.0500
L54.0015,-4484.0557
C53.2973,-4483.5780 52.2953,-4483.0995 51.0000,-4482.6405
L51.0000,-4487.7967
Z
M9.8955,-4532.0925
C14.8980,-4533.1613 21.3728,-4533.7500 28.1258,-4533.7500
C34.8795,-4533.7500 41.3528,-4533.1613 46.3553,-4532.0925
C51.7665,-4530.9360 53.6573,-4529.6062 54.0015,-4529.1150
L54.0015,-4517.8050
C50.8635,-4515.6780 41.7157,-4513.5000 28.1258,-4513.5000
C14.5358,-4513.5000 5.3858,-4515.6772 2.2500,-4517.8042
L2.2500,-4529.1150
C2.5928,-4529.6062 4.4843,-4530.9352 9.8955,-4532.0925
Z
M46.3553,-4470.1583
C41.3528,-4469.0887 34.8795,-4468.5000 28.1258,-4468.5000
C21.3728,-4468.5000 14.8980,-4469.0887 9.8955,-4470.1583
C4.4843,-4471.3147 2.5928,-4472.6438 2.2500,-4473.1350
L2.2500,-4481.4600
C7.0890,-4479.0495 16.9552,-4477.5000 28.1258,-4477.5000
C39.2963,-4477.5000 49.1633,-4479.0510 54.0015,-4481.4622
L54.0015,-4473.1350
C53.6573,-4472.6438 51.7657,-4471.3147 46.3553,-4470.1583
Z" 
style="fill-rule: evenodd; fill: #000000; "/>
<text x="0.0000" y="-4466.2500">
<tspan font-family="Arial Narrow" font-weight="bold" font-size="12.0000" fill="#000000" fill-opacity="1.0000" stroke-opacity="1.0000" >
Database Datastore</tspan>
</text>
</svg>
