<?xml version="1.0" encoding="UTF-8" standalone="no"?>
<svg version="1.1" xmlns="http://www.w3.org/2000/svg" xmlns:xlink="http://www.w3.org/1999/xlink" width="0.7812in" height="0.9688in" viewBox="0 0 56.2500 69.7500" >
<g id="Layer1028" >
<path d=" 
M46.3552,-4532.0925
C41.3527,-4533.1613 34.8780,-4533.7500 28.1250,-4533.7500
C21.3720,-4533.7500 14.8973,-4533.1613 9.8955,-4532.0925
C4.4842,-4530.9352 2.5927,-4529.6062 2.2500,-4529.1150
L2.2500,-4473.1350
C2.5927,-4472.6438 4.4842,-4471.3147 9.8955,-4470.1583
C14.8973,-4469.0887 21.3720,-4468.5000 28.1250,-4468.5000
C34.8780,-4468.5000 41.3527,-4469.0887 46.3552,-4470.1583
C51.7657,-4471.3147 53.6573,-4472.6445 54.0000,-4473.1350
L54.0000,-4529.1150
C53.6573,-4529.6062 51.7657,-4530.9352 46.3552,-4532.0925
Z" 
style="stroke-width: 0.7200; stroke-linecap: round; stroke-linejoin: round; fill-rule: evenodd; fill: #ffffff; "/>
<path d=" 
M46.3552,-4532.0925
C41.3527,-4533.1613 34.8780,-4533.7500 28.1250,-4533.7500
C21.3720,-4533.7500 14.8973,-4533.1613 9.8955,-4532.0925
C4.4842,-4530.9352 2.5927,-4529.6062 2.2500,-4529.1150
L2.2500,-4473.1350
C2.5927,-4472.6438 4.4842,-4471.3147 9.8955,-4470.1583
C14.8973,-4469.0887 21.3720,-4468.5000 28.1250,-4468.5000
C34.8780,-4468.5000 41.3527,-4469.0887 46.3552,-4470.1583
C51.7657,-4471.3147 53.6573,-4472.6445 54.0000,-4473.1350
L54.0000,-4529.1150
C53.6573,-4529.6062 51.7657,-4530.9352 46.3552,-4532.0925
Z" 
style="stroke-width: 0.7200; stroke: #ffffff; stroke-dasharray: none; stroke-linecap: round; stroke-linejoin: round; fill: none; "/>
</g>
<path d=" 
M28.1250,-4533.7500
C34.8780,-4533.7500 41.3528,-4533.1613 46.3552,-4532.0925
C51.7657,-4530.9352 53.6573,-4529.6062 54.0000,-4529.1150
L54.0000,-4473.1350
C53.6573,-4472.6445 51.7657,-4471.3147 46.3552,-4470.1583
C41.3528,-4469.0887 34.8780,-4468.5000 28.1250,-4468.5000
C21.3720,-4468.5000 14.8973,-4469.0887 9.8955,-4470.1583
C4.4843,-4471.3147 2.5927,-4472.6438 2.2500,-4473.1350
L2.2500,-4529.1150
C2.5927,-4529.6062 4.4843,-4530.9352 9.8955,-4532.0925
C14.8973,-4533.1613 21.3720,-4533.7500 28.1250,-4533.7500
Z
M28.1250,-4536.0000
C12.5917,-4536.0000 0.0000,-4532.9775 0.0000,-4529.2500
L0.0000,-4473.0000
C0.0000,-4469.2717 12.5917,-4466.2500 28.1250,-4466.2500
C43.6583,-4466.2500 56.2500,-4469.2717 56.2500,-4473.0000
L56.2500,-4529.2500
C56.2500,-4532.9775 43.6583,-4536.0000 28.1250,-4536.0000
Z" 
style="fill-rule: evenodd; fill: #000000; "/>
<path d=" 
M28.1250,-4522.5000
C18.5040,-4522.5000 9.6240,-4523.6625 4.3695,-4525.6102
C4.1760,-4525.6815 4.0763,-4525.8982 4.1490,-4526.0917
C4.2218,-4526.2860 4.4355,-4526.3850 4.6313,-4526.3138
C9.8063,-4524.3952 18.5888,-4523.2500 28.1250,-4523.2500
C37.6628,-4523.2500 46.4460,-4524.3945 51.6195,-4526.3130
C51.8145,-4526.3857 52.0297,-4526.2852 52.1018,-4526.0910
C52.1745,-4525.8975 52.0740,-4525.6815 51.8805,-4525.6095
C46.6275,-4523.6625 37.7468,-4522.5000 28.1250,-4522.5000
Z" 
style="fill-rule: evenodd; fill: #000000; "/>
<text x="0.0000" y="-4466.2500">
<tspan font-family="Arial Narrow" font-weight="bold" font-size="12.0000" fill="#000000" fill-opacity="1.0000" stroke-opacity="1.0000" >
Datastore</tspan>
</text>
</svg>
