<?xml version="1.0" encoding="UTF-8" standalone="no"?>
<svg version="1.1" xmlns="http://www.w3.org/2000/svg" xmlns:xlink="http://www.w3.org/1999/xlink" width="1.0938in" height="1.0938in" viewBox="0 0 78.7500 78.7500" >
<g id="Layer1118" >
<path d=" 
M20.2500,-4524.7501
L31.5000,-4524.7501
L31.5000,-4531.5001
L20.2500,-4531.5001
L20.2500,-4524.7501
Z
M20.2500,-4509.0001
L31.5000,-4509.0001
L31.5000,-4515.7501
L20.2500,-4515.7501
L20.2500,-4509.0001
Z
M40.5000,-4491.0001
L51.7500,-4491.0001
L51.7500,-4497.7501
L40.5000,-4497.7501
L40.5000,-4491.0001
Z
M63.0000,-4473.0001
L74.2500,-4473.0001
L74.2500,-4479.7501
L63.0000,-4479.7501
L63.0000,-4473.0001
Z
M40.5000,-4461.7501
L51.7500,-4461.7501
L51.7500,-4468.5001
L40.5000,-4468.5001
L40.5000,-4461.7501
Z" 
style="stroke-width: 0.7200; stroke-linecap: round; stroke-linejoin: round; fill-rule: evenodd; fill: #ffffff; "/>
<path d=" 
M20.2500,-4524.7501
L31.5000,-4524.7501
L31.5000,-4531.5001
L20.2500,-4531.5001
L20.2500,-4524.7501
Z
M20.2500,-4509.0001
L31.5000,-4509.0001
L31.5000,-4515.7501
L20.2500,-4515.7501
L20.2500,-4509.0001
Z
M40.5000,-4491.0001
L51.7500,-4491.0001
L51.7500,-4497.7501
L40.5000,-4497.7501
L40.5000,-4491.0001
Z
M63.0000,-4473.0001
L74.2500,-4473.0001
L74.2500,-4479.7501
L63.0000,-4479.7501
L63.0000,-4473.0001
Z
M40.5000,-4461.7501
L51.7500,-4461.7501
L51.7500,-4468.5001
L40.5000,-4468.5001
L40.5000,-4461.7501
Z" 
style="stroke-width: 0.7200; stroke: #ffffff; stroke-dasharray: none; stroke-linecap: round; stroke-linejoin: round; fill: none; "/>
</g>
<path d=" 
M56.2500,-4476.3750
C56.2500,-4476.9968 55.7468,-4477.5000 55.1250,-4477.5000
L42.7500,-4477.5000
L42.7500,-4485.3750
C42.7500,-4485.9968 42.2468,-4486.5000 41.6250,-4486.5000
C41.0032,-4486.5000 40.5000,-4485.9968 40.5000,-4485.3750
L40.5000,-4476.3750
C40.5000,-4475.7532 41.0032,-4475.2500 41.6250,-4475.2500
L55.1250,-4475.2500
C55.7468,-4475.2500 56.2500,-4475.7532 56.2500,-4476.3750
Z
M12.3750,-4513.5000
L2.2500,-4513.5000
L2.2500,-4527.0000
L12.3750,-4527.0000
C12.9968,-4527.0000 13.5000,-4527.5032 13.5000,-4528.1250
C13.5000,-4528.7468 12.9968,-4529.2500 12.3750,-4529.2500
L2.2500,-4529.2500
L2.2500,-4534.8750
C2.2500,-4535.4968 1.7467,-4536.0000 1.1250,-4536.0000
C0.5032,-4536.0000 0.0000,-4535.4968 0.0000,-4534.8750
L0.0000,-4458.3750
C0.0000,-4457.7532 0.5032,-4457.2500 1.1250,-4457.2500
C1.7467,-4457.2500 2.2500,-4457.7532 2.2500,-4458.3750
L2.2500,-4511.2500
L12.3750,-4511.2500
C12.9968,-4511.2500 13.5000,-4511.7532 13.5000,-4512.3750
C13.5000,-4512.9968 12.9968,-4513.5000 12.3750,-4513.5000
Z
M32.6250,-4466.2500
L22.5000,-4466.2500
L22.5000,-4493.2500
L32.6250,-4493.2500
C33.2467,-4493.2500 33.7500,-4493.7532 33.7500,-4494.3750
C33.7500,-4494.9968 33.2467,-4495.5000 32.6250,-4495.5000
L22.5000,-4495.5000
L22.5000,-4503.3750
C22.5000,-4503.9968 21.9968,-4504.5000 21.3750,-4504.5000
C20.7532,-4504.5000 20.2500,-4503.9968 20.2500,-4503.3750
L20.2500,-4458.3750
C20.2500,-4457.7532 20.7532,-4457.2500 21.3750,-4457.2500
C21.9968,-4457.2500 22.5000,-4457.7532 22.5000,-4458.3750
L22.5000,-4464.0000
L32.6250,-4464.0000
C33.2467,-4464.0000 33.7500,-4464.5032 33.7500,-4465.1250
C33.7500,-4465.7468 33.2467,-4466.2500 32.6250,-4466.2500
Z
M29.2500,-4528.5000
L22.5000,-4528.5000
L22.5000,-4527.7500
L29.2500,-4527.7500
L29.2500,-4528.5000
Z
M29.2500,-4512.7500
L22.5000,-4512.7500
L22.5000,-4512.0000
L29.2500,-4512.0000
L29.2500,-4512.7500
Z
M49.5000,-4494.7500
L42.7500,-4494.7500
L42.7500,-4494.0000
L49.5000,-4494.0000
L49.5000,-4494.7500
Z
M49.5000,-4465.5000
L42.7500,-4465.5000
L42.7500,-4464.7500
L49.5000,-4464.7500
L49.5000,-4465.5000
Z
M72.0000,-4476.7500
L65.2500,-4476.7500
L65.2500,-4476.0000
L72.0000,-4476.0000
L72.0000,-4476.7500
Z
M36.0000,-4529.2500
L36.0000,-4527.0000
L33.7500,-4527.0000
L33.7500,-4524.7500
C33.7500,-4523.5095 32.7405,-4522.5000 31.5000,-4522.5000
L20.2500,-4522.5000
C19.0095,-4522.5000 18.0000,-4523.5095 18.0000,-4524.7500
L18.0000,-4527.0000
L15.7500,-4527.0000
L15.7500,-4529.2500
L18.0000,-4529.2500
L18.0000,-4531.5000
C18.0000,-4532.7405 19.0095,-4533.7500 20.2500,-4533.7500
L31.5000,-4533.7500
C32.7405,-4533.7500 33.7500,-4532.7405 33.7500,-4531.5000
L33.7500,-4529.2500
L36.0000,-4529.2500
Z
M31.5000,-4527.0000
C31.5000,-4527.4095 31.6095,-4527.7942 31.8023,-4528.1250
C31.6095,-4528.4558 31.5000,-4528.8405 31.5000,-4529.2500
L31.5000,-4531.5000
L20.2500,-4531.5000
L20.2500,-4529.2500
C20.2500,-4528.8405 20.1405,-4528.4558 19.9477,-4528.1250
C20.1405,-4527.7942 20.2500,-4527.4095 20.2500,-4527.0000
L20.2500,-4524.7500
L31.5022,-4524.7500
L31.5000,-4527.0000
Z
M36.0000,-4513.5000
L36.0000,-4511.2500
L33.7500,-4511.2500
L33.7500,-4509.0000
C33.7500,-4507.7595 32.7405,-4506.7500 31.5000,-4506.7500
L20.2500,-4506.7500
C19.0095,-4506.7500 18.0000,-4507.7595 18.0000,-4509.0000
L18.0000,-4511.2500
L15.7500,-4511.2500
L15.7500,-4513.5000
L18.0000,-4513.5000
L18.0000,-4515.7500
C18.0000,-4516.9905 19.0095,-4518.0000 20.2500,-4518.0000
L31.5000,-4518.0000
C32.7405,-4518.0000 33.7500,-4516.9905 33.7500,-4515.7500
L33.7500,-4513.5000
L36.0000,-4513.5000
Z
M31.5000,-4511.2500
C31.5000,-4511.6595 31.6095,-4512.0442 31.8023,-4512.3750
C31.6095,-4512.7058 31.5000,-4513.0905 31.5000,-4513.5000
L31.5000,-4515.7500
L20.2500,-4515.7500
L20.2500,-4513.5000
C20.2500,-4513.0905 20.1405,-4512.7058 19.9477,-4512.3750
C20.1405,-4512.0442 20.2500,-4511.6595 20.2500,-4511.2500
L20.2500,-4509.0000
L31.5022,-4509.0000
L31.5000,-4511.2500
Z
M56.2500,-4495.5000
L56.2500,-4493.2500
L54.0000,-4493.2500
L54.0000,-4491.0000
C54.0000,-4489.7595 52.9905,-4488.7500 51.7500,-4488.7500
L40.5000,-4488.7500
C39.2595,-4488.7500 38.2500,-4489.7595 38.2500,-4491.0000
L38.2500,-4493.2500
L36.0000,-4493.2500
L36.0000,-4495.5000
L38.2500,-4495.5000
L38.2500,-4497.7500
C38.2500,-4498.9905 39.2595,-4500.0000 40.5000,-4500.0000
L51.7500,-4500.0000
C52.9905,-4500.0000 54.0000,-4498.9905 54.0000,-4497.7500
L54.0000,-4495.5000
L56.2500,-4495.5000
Z
M51.7500,-4493.2500
C51.7500,-4493.6602 51.8595,-4494.0442 52.0515,-4494.3750
C51.8595,-4494.7058 51.7500,-4495.0898 51.7500,-4495.5000
L51.7500,-4497.7500
L40.5000,-4497.7500
L40.5000,-4495.5000
C40.5000,-4495.0898 40.3905,-4494.7058 40.1985,-4494.3750
C40.3905,-4494.0442 40.5000,-4493.6602 40.5000,-4493.2500
L40.5000,-4491.0000
L51.7523,-4491.0000
L51.7500,-4493.2500
Z
M56.2500,-4466.2500
L56.2500,-4464.0000
L54.0000,-4464.0000
L54.0000,-4461.7500
C54.0000,-4460.5095 52.9905,-4459.5000 51.7500,-4459.5000
L40.5000,-4459.5000
C39.2595,-4459.5000 38.2500,-4460.5095 38.2500,-4461.7500
L38.2500,-4464.0000
L36.0000,-4464.0000
L36.0000,-4466.2500
L38.2500,-4466.2500
L38.2500,-4468.5000
C38.2500,-4469.7405 39.2595,-4470.7500 40.5000,-4470.7500
L51.7500,-4470.7500
C52.9905,-4470.7500 54.0000,-4469.7405 54.0000,-4468.5000
L54.0000,-4466.2500
L56.2500,-4466.2500
Z
M51.7500,-4464.0000
C51.7500,-4464.4102 51.8595,-4464.7942 52.0515,-4465.1250
C51.8595,-4465.4558 51.7500,-4465.8398 51.7500,-4466.2500
L51.7500,-4468.5000
L40.5000,-4468.5000
L40.5000,-4466.2500
C40.5000,-4465.8398 40.3905,-4465.4558 40.1985,-4465.1250
C40.3905,-4464.7942 40.5000,-4464.4102 40.5000,-4464.0000
L40.5000,-4461.7500
L51.7523,-4461.7500
L51.7500,-4464.0000
Z
M78.7500,-4477.5000
L78.7500,-4475.2500
L76.5000,-4475.2500
L76.5000,-4473.0000
C76.5000,-4471.7595 75.4905,-4470.7500 74.2500,-4470.7500
L63.0000,-4470.7500
C61.7595,-4470.7500 60.7500,-4471.7595 60.7500,-4473.0000
L60.7500,-4475.2500
L58.5000,-4475.2500
L58.5000,-4477.5000
L60.7500,-4477.5000
L60.7500,-4479.7500
C60.7500,-4480.9905 61.7595,-4482.0000 63.0000,-4482.0000
L74.2500,-4482.0000
C75.4905,-4482.0000 76.5000,-4480.9905 76.5000,-4479.7500
L76.5000,-4477.5000
L78.7500,-4477.5000
Z
M74.2500,-4475.2500
C74.2500,-4475.6602 74.3595,-4476.0442 74.5515,-4476.3750
C74.3595,-4476.7058 74.2500,-4477.0898 74.2500,-4477.5000
L74.2500,-4479.7500
L63.0000,-4479.7500
L63.0000,-4477.5000
C63.0000,-4477.0898 62.8905,-4476.7058 62.6985,-4476.3750
C62.8905,-4476.0442 63.0000,-4475.6602 63.0000,-4475.2500
L63.0000,-4473.0000
L74.2522,-4473.0000
L74.2500,-4475.2500
Z" 
style="fill-rule: evenodd; fill: #010101; "/>
<text x="0.0000" y="-4457.2500">
<tspan font-family="Arial Narrow" font-weight="bold" font-size="12.0000" fill="#000000" fill-opacity="1.0000" stroke-opacity="1.0000" >
</tspan>
<tspan font-family="Arial Narrow" font-weight="bold" font-size="12.0000" fill="#000000" fill-opacity="1.0000" stroke-opacity="1.0000" >
Data Model</tspan>
</text>
</svg>
