<?xml version="1.0" encoding="UTF-8" standalone="no"?>
<svg version="1.1" xmlns="http://www.w3.org/2000/svg" xmlns:xlink="http://www.w3.org/1999/xlink" width="1.4556in" height="1.5625in" viewBox="0 0 104.8029 112.5000" >
<path d=" 
M99.3000,33.7000
C98.1000,33.7000 97.0000,34.1000 96.1000,34.7000
L71.1000,9.7000
C71.7000,8.9000 72.0000,7.9000 72.0000,6.8000
C72.0000,3.8000 69.5000,1.3000 66.5000,1.3000
C63.7000,1.3000 61.5000,3.3000 61.1000,6.0000
L45.9000,6.0000
C45.5000,2.6000 42.6000,0.0000 39.1000,0.0000
C35.3000,0.0000 32.2000,3.1000 32.2000,6.9000
C32.2000,8.1000 32.5000,9.1000 33.0000,10.1000
L9.9000,33.1000
C8.9999,32.6000 8.0000,32.4000 6.9000,32.4000
C3.1000,32.4000 0.0000,35.5000 0.0000,39.3000
C0.0000,43.1000 3.1000,46.2000 6.9000,46.2000
C8.0000,46.2000 8.9999,45.9000 9.9000,45.5000
L32.8000,68.4000
C32.4000,69.2000 32.2000,70.2000 32.2000,71.2000
C32.2000,75.0000 35.3000,78.1000 39.1000,78.1000
C42.6000,78.1000 45.5000,75.5000 45.9000,72.1000
L61.1000,72.1000
C61.5000,74.7000 63.8000,76.8000 66.5000,76.8000
C69.5000,76.8000 72.0000,74.3000 72.0000,71.3000
C72.0000,70.4000 71.7000,69.5000 71.3000,68.7000
L96.1000,43.9000
C97.0000,44.5000 98.1000,44.9000 99.3000,44.9000
C102.3000,44.9000 104.8000,42.4000 104.8000,39.4000
C104.9001,36.2000 102.4000,33.7000 99.3000,33.7000
Z
M39.1000,13.6000
C40.5000,13.6000 41.8000,13.2000 42.9000,12.4000
L51.0000,20.5000
L37.0000,34.5000
C36.1000,34.0000 35.1000,33.6000 34.1000,33.6000
C31.4000,33.6000 29.2000,35.5000 28.7000,38.0000
L13.6000,38.0000
C13.4000,37.0000 13.0000,36.0000 12.5001,35.2000
L35.3000,12.4000
C36.4000,13.2000 37.7000,13.6000 39.1000,13.6000
Z
M45.9000,7.6000
L61.1000,7.6000
C61.2000,8.4000 61.5000,9.1000 61.9001,9.7000
L53.4000,18.2000
L45.1000,9.9000
C45.5000,9.2000 45.8000,8.4000 45.9000,7.6000
Z
M94.0000,38.1000
L78.1000,38.1000
C77.5000,34.9000 74.7000,32.4000 71.4000,32.4000
C70.3000,32.4000 69.3000,32.7000 68.4000,33.1000
L54.6000,19.4000
L63.0000,11.0000
C64.0000,11.8000 65.2000,12.3000 66.5000,12.3000
C67.8000,12.3000 69.1000,11.8000 70.0000,11.0000
L95.0000,35.9000
C94.5000,36.5000 94.1000,37.3000 94.0000,38.1000
Z
M38.3000,35.7000
L52.2000,21.8000
L65.7000,35.3000
C64.9000,36.4000 64.4000,37.8000 64.4000,39.2000
C64.4000,40.6000 64.9000,42.0000 65.7000,43.1000
L52.2000,56.7000
L38.3000,42.8000
C39.1000,41.8000 39.6000,40.6000 39.6000,39.3000
C39.6000,37.9000 39.1000,36.7000 38.3000,35.7000
Z
M13.7000,39.8000
L28.6000,39.8000
C28.9000,42.6000 31.2000,44.8000 34.1000,44.8000
C35.2000,44.8000 36.2000,44.5000 37.0000,43.9000
L51.0000,57.9000
L43.2000,65.7000
C42.0000,64.8000 40.6000,64.3000 39.1000,64.3000
C37.5000,64.3000 36.1000,64.8000 35.0000,65.7000
L12.5001,43.2000
C13.2000,42.2000 13.6000,41.0000 13.7000,39.8000
Z
M45.4000,68.3000
L53.4000,60.3000
L61.7000,68.6000
C61.4000,69.1000 61.2000,69.7000 61.1000,70.3000
L45.9000,70.3000
C45.8000,69.6000 45.6000,68.9000 45.4000,68.3000
Z
M66.5000,65.6000
C65.0000,65.6000 63.6000,66.2000 62.6000,67.2000
L54.5000,59.1000
L68.2000,45.4000
C69.1000,45.9000 70.1000,46.1000 71.2001,46.1000
C74.8000,46.1000 77.7000,43.3000 78.0000,39.8000
L93.8000,39.8000
C93.9000,40.8000 94.3000,41.8000 94.9000,42.6000
L70.4000,67.1000
C69.4000,66.2000 68.0000,65.6000 66.5000,65.6000
Z" 
style="fill-rule: evenodd; fill: #000000; "/>
<text x="9.8029" y="94.5000">
<tspan font-family="Arial Narrow" font-weight="bold" font-size="12.0000" fill="#000000" fill-opacity="1.0000" stroke-opacity="1.0000" >
Dimension</tspan>
</text>
</svg>
