<?xml version="1.0" encoding="UTF-8" standalone="no"?>
<svg version="1.1" xmlns="http://www.w3.org/2000/svg" xmlns:xlink="http://www.w3.org/1999/xlink" width="1.0000in" height="0.8750in" viewBox="0 0 72.0000 63.0000" >
<g id="Layer1035" >
<path d=" 
M69.7500,-4521.3751
C69.7500,-4521.3759 69.7500,-4521.3766 69.7500,-4521.3774
L69.7500,-4524.5431
L69.7500,-4527.0001
L69.7500,-4528.1251
C69.7500,-4528.7461 69.2460,-4529.2501 68.6250,-4529.2501
L22.8758,-4529.2501
C21.4275,-4529.2501 20.2500,-4530.4276 20.2500,-4531.8751
L20.2500,-4533.3751
C20.2500,-4533.5784 20.0783,-4533.7501 19.8758,-4533.7501
L7.1258,-4533.7501
C6.9225,-4533.7501 6.7500,-4533.5784 6.7500,-4533.3751
L6.7500,-4529.2501
L2.6258,-4529.2501
C2.4225,-4529.2501 2.2500,-4529.0784 2.2500,-4528.8751
L2.2500,-4520.0431
C2.6040,-4520.1691 2.9790,-4520.2501 3.3750,-4520.2501
L6.7500,-4520.2501
L6.7500,-4518.0001
L3.3750,-4518.0001
C2.7540,-4518.0001 2.2500,-4517.4961 2.2500,-4516.8751
L2.2500,-4476.3751
C2.2500,-4475.7541 2.7540,-4475.2501 3.3750,-4475.2501
L64.1250,-4475.2501
C64.7460,-4475.2501 65.2500,-4475.7541 65.2500,-4476.3751
L65.2500,-4479.7501
L68.6250,-4479.7501
C69.2460,-4479.7501 69.7500,-4480.2541 69.7500,-4480.8751
L69.7500,-4520.2501
L69.7500,-4521.3751
Z
M60.7500,-4524.7501
L18.3758,-4524.7501
L60.7500,-4524.7501
Z
M69.7500,-4524.5431
Z" 
style="stroke-width: 0.7200; stroke-linecap: round; stroke-linejoin: round; fill-rule: evenodd; fill: #ffffff; "/>
<path d=" 
M69.7500,-4521.3751
C69.7500,-4521.3759 69.7500,-4521.3766 69.7500,-4521.3774
L69.7500,-4524.5431
L69.7500,-4527.0001
L69.7500,-4528.1251
C69.7500,-4528.7461 69.2460,-4529.2501 68.6250,-4529.2501
L22.8758,-4529.2501
C21.4275,-4529.2501 20.2500,-4530.4276 20.2500,-4531.8751
L20.2500,-4533.3751
C20.2500,-4533.5784 20.0783,-4533.7501 19.8758,-4533.7501
L7.1258,-4533.7501
C6.9225,-4533.7501 6.7500,-4533.5784 6.7500,-4533.3751
L6.7500,-4529.2501
L2.6258,-4529.2501
C2.4225,-4529.2501 2.2500,-4529.0784 2.2500,-4528.8751
L2.2500,-4520.0431
C2.6040,-4520.1691 2.9790,-4520.2501 3.3750,-4520.2501
L6.7500,-4520.2501
L6.7500,-4518.0001
L3.3750,-4518.0001
C2.7540,-4518.0001 2.2500,-4517.4961 2.2500,-4516.8751
L2.2500,-4476.3751
C2.2500,-4475.7541 2.7540,-4475.2501 3.3750,-4475.2501
L64.1250,-4475.2501
C64.7460,-4475.2501 65.2500,-4475.7541 65.2500,-4476.3751
L65.2500,-4479.7501
L68.6250,-4479.7501
C69.2460,-4479.7501 69.7500,-4480.2541 69.7500,-4480.8751
L69.7500,-4520.2501
L69.7500,-4521.3751
Z
M60.7500,-4524.7501
L18.3758,-4524.7501
L60.7500,-4524.7501
Z
M69.7500,-4524.5431
Z" 
style="stroke-width: 0.7200; stroke: #ffffff; stroke-dasharray: none; stroke-linecap: round; stroke-linejoin: round; fill: none; "/>
</g>
<path d=" 
M68.6250,-4531.5000
L25.5000,-4531.5000
L22.8750,-4531.5000
C22.6725,-4531.5000 22.5000,-4531.6718 22.5000,-4531.8750
L22.5000,-4533.3750
C22.5000,-4534.8225 21.3225,-4536.0000 19.8750,-4536.0000
C16.4618,-4536.0000 10.5390,-4536.0000 7.1250,-4536.0000
C5.6775,-4536.0000 4.5000,-4534.8225 4.5000,-4533.3750
L4.5000,-4531.5000
L2.6257,-4531.5000
C1.1775,-4531.5000 0.0000,-4530.3225 0.0000,-4528.8750
L0.0000,-4525.8750
L0.0000,-4521.0630
L0.0000,-4516.8750
L0.0000,-4504.5000
L0.0000,-4476.3750
C0.0000,-4474.5143 1.5143,-4473.0000 3.3750,-4473.0000
L64.1250,-4473.0000
C65.9865,-4473.0000 67.5000,-4474.5143 67.5000,-4476.3750
L67.5000,-4477.5000
L68.6250,-4477.5000
C70.4865,-4477.5000 72.0000,-4479.0143 72.0000,-4480.8750
L72.0000,-4509.0000
L72.0000,-4524.7500
L72.0000,-4528.1250
C72.0000,-4529.9857 70.4865,-4531.5000 68.6250,-4531.5000
Z
M65.2500,-4504.5000
L65.2500,-4476.3750
C65.2500,-4475.7540 64.7460,-4475.2500 64.1250,-4475.2500
L3.3750,-4475.2500
C2.7540,-4475.2500 2.2500,-4475.7540 2.2500,-4476.3750
L2.2500,-4504.5000
L2.2500,-4516.8750
C2.2500,-4517.4960 2.7540,-4518.0000 3.3750,-4518.0000
L64.1250,-4518.0000
C64.7460,-4518.0000 65.2500,-4517.4960 65.2500,-4516.8750
L65.2500,-4504.5000
Z
M65.2500,-4520.0430
C64.8967,-4520.1690 64.5218,-4520.2500 64.1250,-4520.2500
L3.3750,-4520.2500
C2.9790,-4520.2500 2.6040,-4520.1690 2.2500,-4520.0430
L2.2500,-4521.0630
L2.2500,-4525.8750
L2.2500,-4528.8750
C2.2500,-4529.0782 2.4225,-4529.2500 2.6257,-4529.2500
L15.3757,-4529.2500
C15.5782,-4529.2500 15.7500,-4529.0782 15.7500,-4528.8750
L15.7500,-4527.3750
C15.7500,-4525.9282 16.9275,-4524.7500 18.3758,-4524.7500
L21.0000,-4524.7500
L64.1250,-4524.7500
C64.7460,-4524.7500 65.2500,-4524.2460 65.2500,-4523.6250
L65.2500,-4520.0430
Z
M69.7500,-4524.7500
L69.7500,-4509.0000
L69.7500,-4480.8750
C69.7500,-4480.2540 69.2460,-4479.7500 68.6250,-4479.7500
L67.5000,-4479.7500
L67.5000,-4504.5000
L67.5000,-4516.8750
L67.5000,-4523.6250
C67.5000,-4525.4857 65.9865,-4527.0000 64.1250,-4527.0000
L21.0000,-4527.0000
L18.3750,-4527.0000
C18.1725,-4527.0000 18.0000,-4527.1718 18.0000,-4527.3750
L18.0000,-4528.8750
C18.0000,-4530.3225 16.8225,-4531.5000 15.3750,-4531.5000
L6.7500,-4531.5000
L6.7500,-4533.3750
C6.7500,-4533.5782 6.9225,-4533.7500 7.1258,-4533.7500
L19.8757,-4533.7500
C20.0782,-4533.7500 20.2500,-4533.5782 20.2500,-4533.3750
L20.2500,-4531.8750
C20.2500,-4530.4275 21.4275,-4529.2500 22.8758,-4529.2500
L25.5000,-4529.2500
L68.6250,-4529.2500
C69.2460,-4529.2500 69.7500,-4528.7460 69.7500,-4528.1250
L69.7500,-4524.7500
Z" 
style="fill-rule: evenodd; fill: #000000; "/>
<text x="0.0000" y="-4473.0000">
<tspan font-family="Arial Narrow" font-weight="bold" font-size="14.0000" fill="#000000" fill-opacity="1.0000" stroke-opacity="1.0000" >
Directories</tspan>
</text>
</svg>
