<?xml version="1.0" encoding="UTF-8" standalone="no"?>
<svg version="1.1" xmlns="http://www.w3.org/2000/svg" xmlns:xlink="http://www.w3.org/1999/xlink" width="0.9375in" height="0.8125in" viewBox="0 0 67.5000 58.5000" >
<g id="Layer1034" >
<path d=" 
M64.1250,-4479.7501
C64.7460,-4479.7501 65.2500,-4480.2541 65.2500,-4480.8751
L65.2500,-4521.3751
C65.2500,-4521.9961 64.7460,-4522.5001 64.1250,-4522.5001
L3.3750,-4522.5001
C2.7540,-4522.5001 2.2500,-4521.9961 2.2500,-4521.3751
L2.2500,-4480.8751
C2.2500,-4480.2541 2.7540,-4479.7501 3.3750,-4479.7501
L64.1250,-4479.7501
Z
M2.2500,-4524.5431
C2.6040,-4524.6691 2.9790,-4524.7501 3.3750,-4524.7501
L64.1250,-4524.7501
C64.5218,-4524.7501 64.8968,-4524.6691 65.2500,-4524.5431
L65.2500,-4528.1251
C65.2500,-4528.7461 64.7460,-4529.2501 64.1250,-4529.2501
L18.3758,-4529.2501
C16.9275,-4529.2501 15.7500,-4530.4276 15.7500,-4531.8751
L15.7500,-4533.3751
C15.7500,-4533.5784 15.5783,-4533.7501 15.3758,-4533.7501
L2.6258,-4533.7501
C2.4225,-4533.7501 2.2500,-4533.5784 2.2500,-4533.3751
L2.2500,-4524.5431
Z" 
style="stroke-width: 0.7200; stroke-linecap: round; stroke-linejoin: round; fill-rule: evenodd; fill: #ffffff; "/>
<path d=" 
M64.1250,-4479.7501
C64.7460,-4479.7501 65.2500,-4480.2541 65.2500,-4480.8751
L65.2500,-4521.3751
C65.2500,-4521.9961 64.7460,-4522.5001 64.1250,-4522.5001
L3.3750,-4522.5001
C2.7540,-4522.5001 2.2500,-4521.9961 2.2500,-4521.3751
L2.2500,-4480.8751
C2.2500,-4480.2541 2.7540,-4479.7501 3.3750,-4479.7501
L64.1250,-4479.7501
Z
M2.2500,-4524.5431
C2.6040,-4524.6691 2.9790,-4524.7501 3.3750,-4524.7501
L64.1250,-4524.7501
C64.5218,-4524.7501 64.8968,-4524.6691 65.2500,-4524.5431
L65.2500,-4528.1251
C65.2500,-4528.7461 64.7460,-4529.2501 64.1250,-4529.2501
L18.3758,-4529.2501
C16.9275,-4529.2501 15.7500,-4530.4276 15.7500,-4531.8751
L15.7500,-4533.3751
C15.7500,-4533.5784 15.5783,-4533.7501 15.3758,-4533.7501
L2.6258,-4533.7501
C2.4225,-4533.7501 2.2500,-4533.5784 2.2500,-4533.3751
L2.2500,-4524.5431
Z" 
style="stroke-width: 0.7200; stroke: #ffffff; stroke-dasharray: none; stroke-linecap: round; stroke-linejoin: round; fill: none; "/>
</g>
<path d=" 
M64.1250,-4531.5000
L21.0000,-4531.5000
L18.3750,-4531.5000
C18.1725,-4531.5000 18.0000,-4531.6718 18.0000,-4531.8750
L18.0000,-4533.3750
C18.0000,-4534.8225 16.8225,-4536.0000 15.3750,-4536.0000
L2.6250,-4536.0000
C1.1775,-4536.0000 0.0000,-4534.8225 0.0000,-4533.3750
L0.0000,-4530.3750
L0.0000,-4526.2500
L0.0000,-4521.3750
L0.0000,-4509.0000
L0.0000,-4480.8750
C0.0000,-4479.0143 1.5142,-4477.5000 3.3750,-4477.5000
L64.1250,-4477.5000
C65.9865,-4477.5000 67.5000,-4479.0143 67.5000,-4480.8750
L67.5000,-4509.0000
L67.5000,-4521.3750
L67.5000,-4528.1250
C67.5000,-4529.9857 65.9865,-4531.5000 64.1250,-4531.5000
Z
M2.2500,-4530.3750
L2.2500,-4533.3750
C2.2500,-4533.5782 2.4225,-4533.7500 2.6257,-4533.7500
L15.3758,-4533.7500
C15.5783,-4533.7500 15.7500,-4533.5782 15.7500,-4533.3750
L15.7500,-4531.8750
C15.7500,-4530.4275 16.9275,-4529.2500 18.3757,-4529.2500
L21.0000,-4529.2500
L64.1250,-4529.2500
C64.7460,-4529.2500 65.2500,-4528.7460 65.2500,-4528.1250
L65.2500,-4524.5430
C64.8967,-4524.6690 64.5218,-4524.7500 64.1250,-4524.7500
L3.3750,-4524.7500
C2.9790,-4524.7500 2.6040,-4524.6690 2.2500,-4524.5430
L2.2500,-4526.2500
L2.2500,-4530.3750
Z
M65.2500,-4480.8750
C65.2500,-4480.2540 64.7460,-4479.7500 64.1250,-4479.7500
L3.3750,-4479.7500
C2.7540,-4479.7500 2.2500,-4480.2540 2.2500,-4480.8750
L2.2500,-4509.0000
L2.2500,-4521.3750
C2.2500,-4521.9960 2.7540,-4522.5000 3.3750,-4522.5000
L64.1250,-4522.5000
C64.7460,-4522.5000 65.2500,-4521.9960 65.2500,-4521.3750
L65.2500,-4509.0000
L65.2500,-4480.8750
Z" 
style="fill-rule: evenodd; fill: #000000; "/>
<text x="0.0000" y="-4477.5000">
<tspan font-family="Arial Narrow" font-weight="bold" font-size="14.0000" fill="#000000" fill-opacity="1.0000" stroke-opacity="1.0000" >
Directory</tspan>
</text>
</svg>
