<?xml version="1.0" encoding="UTF-8" standalone="no"?>
<svg version="1.1" xmlns="http://www.w3.org/2000/svg" xmlns:xlink="http://www.w3.org/1999/xlink" width="0.8125in" height="1.0000in" viewBox="0 0 58.5000 72.0000" >
<g id="Layer1033" >
<path d=" 
M1.9688,-4466.2501
L51.4688,-4466.2501
L51.5208,-4470.7501
L56.2500,-4470.7501
L56.2500,-4533.7500
L6.7500,-4533.7501
L6.7500,-4529.2501
L1.9688,-4529.2501
L1.9688,-4466.2501
Z" 
style="stroke-width: 0.7200; stroke-linecap: round; stroke-linejoin: round; fill-rule: evenodd; fill: #ffffff; "/>
<path d=" 
M1.9688,-4466.2501
L51.4688,-4466.2501
L51.5208,-4470.7501
L56.2500,-4470.7501
L56.2500,-4533.7500
L6.7500,-4533.7501
L6.7500,-4529.2501
L1.9688,-4529.2501
L1.9688,-4466.2501
Z" 
style="stroke-width: 0.7200; stroke: #ffffff; stroke-dasharray: none; stroke-linecap: round; stroke-linejoin: round; fill: none; "/>
</g>
<path d=" 
M56.2500,-4536.0000
L6.7500,-4536.0000
C5.5133,-4536.0000 4.5000,-4534.9868 4.5000,-4533.7500
L4.5000,-4531.5000
L2.2500,-4531.5000
C1.0133,-4531.5000 0.0000,-4530.4868 0.0000,-4529.2500
L0.0000,-4466.2500
C0.0000,-4465.0132 1.0133,-4464.0000 2.2500,-4464.0000
L51.7500,-4464.0000
C52.9867,-4464.0000 54.0000,-4465.0132 54.0000,-4466.2500
L54.0000,-4468.5000
L56.2500,-4468.5000
C57.4868,-4468.5000 58.5000,-4469.5132 58.5000,-4470.7500
L58.5000,-4533.7500
C58.5000,-4534.9868 57.4868,-4536.0000 56.2500,-4536.0000
Z
M51.7500,-4466.2500
L2.2500,-4466.2500
L2.2500,-4529.2500
L36.0000,-4529.2500
L36.0000,-4515.3750
C36.0000,-4514.3415 36.8415,-4513.5000 37.8750,-4513.5000
L51.7500,-4513.5000
L51.7500,-4466.2500
Z
M38.2500,-4528.3185
L50.8185,-4515.7500
L38.2500,-4515.7500
L38.2500,-4528.3185
Z
M56.2500,-4470.7500
L54.0000,-4470.7500
L54.0000,-4513.5000
C54.0000,-4514.7368 53.2837,-4516.4663 52.4093,-4517.3408
L39.8407,-4529.9092
C38.9662,-4530.7837 37.2367,-4531.5000 36.0000,-4531.5000
L6.7500,-4531.5000
L6.7500,-4533.7500
L56.2500,-4533.7500
L56.2500,-4470.7500
Z" 
style="fill-rule: evenodd; fill: #000000; "/>
<text x="0.0000" y="-4464.0000">
<tspan font-family="Arial Narrow" font-weight="bold" font-size="12.0000" fill="#000000" fill-opacity="1.0000" stroke-opacity="1.0000" >
Documents</tspan>
</text>
</svg>
