<?xml version="1.0" encoding="UTF-8" standalone="no"?>
<svg version="1.1" xmlns="http://www.w3.org/2000/svg" xmlns:xlink="http://www.w3.org/1999/xlink" width="0.7500in" height="0.9375in" viewBox="0 0 54.0000 67.5000" >
<g id="Layer1032" >
<path d=" 
M2.2500,-4470.7500
L2.2500,-4533.7500
L38.2500,-4533.7501
L52.3125,-4519.4064
L51.7500,-4470.7500
L2.2500,-4470.7500
Z" 
style="stroke-width: 0.7200; stroke-linecap: round; stroke-linejoin: round; fill-rule: evenodd; fill: #ffffff; "/>
<path d=" 
M2.2500,-4470.7500
L2.2500,-4533.7500
L38.2500,-4533.7501
L52.3125,-4519.4064
L51.7500,-4470.7500
L2.2500,-4470.7500
Z" 
style="stroke-width: 0.7200; stroke: #ffffff; stroke-dasharray: none; stroke-linecap: round; stroke-linejoin: round; fill: none; "/>
</g>
<path d=" 
M52.4093,-4521.8407
L39.8408,-4534.4092
C38.9662,-4535.2837 37.2367,-4536.0000 36.0000,-4536.0000
L2.2500,-4536.0000
C1.0133,-4536.0000 0.0000,-4534.9868 0.0000,-4533.7500
L0.0000,-4470.7500
C0.0000,-4469.5132 1.0133,-4468.5000 2.2500,-4468.5000
L51.7500,-4468.5000
C52.9867,-4468.5000 54.0000,-4469.5132 54.0000,-4470.7500
L54.0000,-4518.0000
C54.0000,-4519.2368 53.2837,-4520.9663 52.4093,-4521.8407
Z
M50.8185,-4520.2500
L38.2500,-4520.2500
L38.2500,-4532.8185
L50.8185,-4520.2500
Z
M51.7500,-4470.7500
L2.2500,-4470.7500
L2.2500,-4533.7500
L36.0000,-4533.7500
L36.0000,-4519.8750
C36.0000,-4518.8415 36.8415,-4518.0000 37.8750,-4518.0000
L51.7500,-4518.0000
L51.7500,-4470.7500
Z" 
style="fill-rule: evenodd; fill: #000000; "/>
<text x="0.0000" y="-4468.5000">
<tspan font-family="Arial Narrow" font-weight="bold" font-size="12.0000" fill="#000000" fill-opacity="1.0000" stroke-opacity="1.0000" >
Document</tspan>
</text>
</svg>
