<?xml version="1.0" encoding="UTF-8" standalone="no"?>
<svg version="1.1" xmlns="http://www.w3.org/2000/svg" xmlns:xlink="http://www.w3.org/1999/xlink" width="0.7500in" height="0.9571in" viewBox="0 0 54.0000 68.9145" >
<g id="Layer1004" >
<path d=" 
M2.2500,-4525.1677
L27.0000,-4533.7500
L51.7500,-4525.1677
L51.7500,-4477.9177
L27.0000,-4469.3363
L2.8462,-4477.0913
L2.2500,-4525.1677
Z" 
style="stroke-width: 1.5000; stroke-linecap: round; stroke-linejoin: round; fill-rule: evenodd; fill: #ffffff; "/>
<path d=" 
M2.2500,-4525.1677
L27.0000,-4533.7500
L51.7500,-4525.1677
L51.7500,-4477.9177
L27.0000,-4469.3363
L2.8462,-4477.0913
L2.2500,-4525.1677
Z" 
style="stroke-width: 1.5000; stroke: #ffffff; stroke-dasharray: none; stroke-linecap: round; stroke-linejoin: round; fill: none; "/>
</g>
<path d=" 
M51.8655,-4528.1295
L29.1345,-4535.7067
C28.5480,-4535.9025 27.7732,-4536.0000 27.0000,-4536.0000
C26.2268,-4536.0000 25.4520,-4535.9025 24.8655,-4535.7067
L2.1345,-4528.1295
C0.9600,-4527.7380 0.0000,-4526.4060 0.0000,-4525.1677
L0.0000,-4477.9177
C0.0000,-4476.6802 0.9600,-4475.3475 2.1345,-4474.9567
L24.8655,-4467.3795
C25.4520,-4467.1830 26.2268,-4467.0855 27.0000,-4467.0855
C27.7732,-4467.0855 28.5480,-4467.1830 29.1345,-4467.3795
L51.8662,-4474.9567
C53.0400,-4475.3475 54.0000,-4476.6795 54.0000,-4477.9177
L54.0000,-4525.1677
C54.0000,-4526.4060 53.0400,-4527.7380 51.8655,-4528.1295
Z
M2.8462,-4525.9950
L25.5773,-4533.5722
C25.8353,-4533.6577 26.3437,-4533.7500 27.0000,-4533.7500
C27.6563,-4533.7500 28.1647,-4533.6577 28.4220,-4533.5722
L51.1538,-4525.9950
C51.4103,-4525.9087 51.7500,-4525.4377 51.7500,-4525.1677
L51.7500,-4515.4185
L2.2500,-4515.4185
L2.2500,-4525.1677
C2.2500,-4525.4377 2.5897,-4525.9087 2.8462,-4525.9950
Z
M2.2500,-4501.9185
L2.2500,-4514.6685
L51.7500,-4514.6685
L51.7500,-4501.9185
L2.2500,-4501.9185
Z
M51.7500,-4501.1677
L51.7500,-4488.4177
L2.2500,-4488.4177
L2.2500,-4501.1677
L51.7500,-4501.1677
Z
M51.1538,-4477.0912
L28.4220,-4469.5140
C28.1640,-4469.4277 27.6555,-4469.3362 27.0000,-4469.3362
C26.3445,-4469.3362 25.8353,-4469.4277 25.5773,-4469.5140
L2.8462,-4477.0912
C2.5897,-4477.1752 2.2500,-4477.6477 2.2500,-4477.9177
L2.2500,-4487.6677
L51.7500,-4487.6677
L51.7500,-4477.9177
C51.7500,-4477.6477 51.4103,-4477.1752 51.1538,-4477.0912
Z" 
style="fill-rule: evenodd; fill: #000000; "/>
<path d=" 
M6.7500,-4520.6677
L13.5000,-4520.6677
L13.5000,-4522.9177
L6.7500,-4522.9177
L6.7500,-4520.6677
Z" 
style="fill-rule: evenodd; fill: #000000; "/>
<path d=" 
M15.7500,-4520.6677
L33.7500,-4520.6677
L33.7500,-4522.9177
L15.7500,-4522.9177
L15.7500,-4520.6677
Z" 
style="fill-rule: evenodd; fill: #000000; "/>
<path d=" 
M36.0000,-4520.6677
L47.2500,-4520.6677
L47.2500,-4522.9177
L36.0000,-4522.9177
L36.0000,-4520.6677
Z" 
style="fill-rule: evenodd; fill: #000000; "/>
<path d=" 
M6.7500,-4507.1677
L40.5000,-4507.1677
L40.5000,-4509.4177
L6.7500,-4509.4177
L6.7500,-4507.1677
Z" 
style="fill-rule: evenodd; fill: #000000; "/>
<path d=" 
M42.7500,-4507.1677
L47.2500,-4507.1677
L47.2500,-4509.4177
L42.7500,-4509.4177
L42.7500,-4507.1677
Z" 
style="fill-rule: evenodd; fill: #000000; "/>
<path d=" 
M6.7500,-4493.6677
L15.7500,-4493.6677
L15.7500,-4495.9177
L6.7500,-4495.9177
L6.7500,-4493.6677
Z" 
style="fill-rule: evenodd; fill: #000000; "/>
<path d=" 
M18.0000,-4493.6677
L24.7500,-4493.6677
L24.7500,-4495.9177
L18.0000,-4495.9177
L18.0000,-4493.6677
Z" 
style="fill-rule: evenodd; fill: #000000; "/>
<path d=" 
M27.0000,-4493.6677
L47.2500,-4493.6677
L47.2500,-4495.9177
L27.0000,-4495.9177
L27.0000,-4493.6677
Z" 
style="fill-rule: evenodd; fill: #000000; "/>
<path d=" 
M6.7500,-4480.1677
L20.2500,-4480.1677
L20.2500,-4482.4177
L6.7500,-4482.4177
L6.7500,-4480.1677
Z" 
style="fill-rule: evenodd; fill: #000000; "/>
<path d=" 
M22.5000,-4480.1677
L47.2500,-4480.1677
L47.2500,-4482.4177
L22.5000,-4482.4177
L22.5000,-4480.1677
Z" 
style="fill-rule: evenodd; fill: #000000; "/>
<text x="0.0000" y="-4467.0855">
<tspan font-family="Arial Narrow" font-weight="bold" font-size="12.0000" fill="#000000" fill-opacity="1.0000" stroke-opacity="1.0000" >
Index</tspan>
</text>
</svg>
