<?xml version="1.0" encoding="UTF-8" standalone="no"?>
<svg version="1.1" xmlns="http://www.w3.org/2000/svg" xmlns:xlink="http://www.w3.org/1999/xlink" width="0.8125in" height="1.0509in" viewBox="0 0 58.5000 75.6653" >
<g id="Layer1005" >
<path d=" 
M2.2500,-4518.4164
L27.0000,-4526.9986
L51.7500,-4518.4164
L51.7500,-4471.1664
L27.0000,-4462.5849
L2.8463,-4470.3399
L2.2500,-4518.4164
Z" 
style="stroke-width: 1.5000; stroke-linecap: round; stroke-linejoin: round; fill-rule: evenodd; fill: #ffffff; "/>
<path d=" 
M2.2500,-4518.4164
L27.0000,-4526.9986
L51.7500,-4518.4164
L51.7500,-4471.1664
L27.0000,-4462.5849
L2.8463,-4470.3399
L2.2500,-4518.4164
Z" 
style="stroke-width: 1.5000; stroke: #ffffff; stroke-dasharray: none; stroke-linecap: round; stroke-linejoin: round; fill: none; "/>
</g>
<g id="Layer1006" >
<path d=" 
M6.7500,-4525.1664
L31.5000,-4533.7486
L56.2500,-4525.1664
L56.2500,-4477.9164
L31.5000,-4469.3349
L7.3463,-4477.0899
L6.7500,-4525.1664
Z" 
style="stroke-width: 1.5000; stroke-linecap: round; stroke-linejoin: round; fill-rule: evenodd; fill: #ffffff; "/>
<path d=" 
M6.7500,-4525.1664
L31.5000,-4533.7486
L56.2500,-4525.1664
L56.2500,-4477.9164
L31.5000,-4469.3349
L7.3463,-4477.0899
L6.7500,-4525.1664
Z" 
style="stroke-width: 1.5000; stroke: #ffffff; stroke-dasharray: none; stroke-linecap: round; stroke-linejoin: round; fill: none; "/>
</g>
<path d=" 
M6.7500,-4513.9178
L13.5000,-4513.9178
L13.5000,-4516.1678
L6.7500,-4516.1678
L6.7500,-4513.9178
Z" 
style="fill-rule: evenodd; fill: #000000; "/>
<path d=" 
M15.7500,-4513.9178
L33.7500,-4513.9178
L33.7500,-4516.1678
L15.7500,-4516.1678
L15.7500,-4513.9178
Z" 
style="fill-rule: evenodd; fill: #000000; "/>
<path d=" 
M36.0000,-4513.9178
L47.2500,-4513.9178
L47.2500,-4516.1678
L36.0000,-4516.1678
L36.0000,-4513.9178
Z" 
style="fill-rule: evenodd; fill: #000000; "/>
<path d=" 
M6.7500,-4500.4177
L40.5000,-4500.4177
L40.5000,-4502.6677
L6.7500,-4502.6677
L6.7500,-4500.4177
Z" 
style="fill-rule: evenodd; fill: #000000; "/>
<path d=" 
M42.7500,-4500.4177
L47.2500,-4500.4177
L47.2500,-4502.6677
L42.7500,-4502.6677
L42.7500,-4500.4177
Z" 
style="fill-rule: evenodd; fill: #000000; "/>
<path d=" 
M56.3655,-4528.1295
L33.6345,-4535.7052
C33.0480,-4535.9010 32.2733,-4536.0000 31.5000,-4536.0000
C30.7268,-4536.0000 29.9520,-4535.9010 29.3655,-4535.7052
L6.6345,-4528.1295
C5.4600,-4527.7373 4.5000,-4526.4045 4.5000,-4525.1678
L4.5000,-4522.1678
L2.1345,-4521.3795
C0.9600,-4520.9873 0.0000,-4519.6545 0.0000,-4518.4178
L0.0000,-4471.1678
C0.0000,-4469.9317 0.9600,-4468.5983 2.1345,-4468.2060
L24.8655,-4460.6295
C25.4520,-4460.4345 26.2267,-4460.3347 27.0000,-4460.3347
C27.7732,-4460.3347 28.5480,-4460.4345 29.1345,-4460.6295
L51.8655,-4468.2060
C53.0400,-4468.5983 54.0000,-4469.9310 54.0000,-4471.1678
L54.0000,-4474.1678
L56.3655,-4474.9560
C57.5400,-4475.3483 58.5000,-4476.6810 58.5000,-4477.9177
L58.5000,-4525.1678
C58.5000,-4526.4045 57.5400,-4527.7373 56.3655,-4528.1295
Z
M51.7500,-4471.1678
C51.7500,-4470.8985 51.4102,-4470.4268 51.1538,-4470.3405
L28.4227,-4462.7648
C28.1648,-4462.6777 27.6562,-4462.5855 27.0000,-4462.5855
C26.3437,-4462.5855 25.8353,-4462.6777 25.5773,-4462.7648
L2.8462,-4470.3405
C2.5898,-4470.4260 2.2500,-4470.8978 2.2500,-4471.1678
L2.2500,-4480.9185
L51.7500,-4480.9185
L51.7500,-4471.1678
Z
M51.7500,-4481.6678
L2.2500,-4481.6678
L2.2500,-4494.4185
L51.7500,-4494.4185
L51.7500,-4481.6678
Z
M51.7500,-4495.1677
L2.2500,-4495.1677
L2.2500,-4507.9177
L51.7500,-4507.9177
L51.7500,-4495.1677
Z
M51.7500,-4508.6670
L2.2500,-4508.6670
L2.2500,-4518.4170
C2.2500,-4518.6870 2.5898,-4519.1587 2.8462,-4519.2443
L25.5773,-4526.8208
C25.8353,-4526.9078 26.3437,-4527.0000 27.0000,-4527.0000
C27.6562,-4527.0000 28.1648,-4526.9078 28.4227,-4526.8208
L51.1538,-4519.2450
C51.4102,-4519.1587 51.7500,-4518.6878 51.7500,-4518.4178
L51.7500,-4508.6670
Z
M56.2500,-4477.9177
C56.2500,-4477.6485 55.9103,-4477.1768 55.6537,-4477.0905
L54.0000,-4476.5392
L54.0000,-4518.4178
C54.0000,-4519.6545 53.0400,-4520.9873 51.8655,-4521.3795
L29.1345,-4528.9552
C28.5480,-4529.1510 27.7732,-4529.2500 27.0000,-4529.2500
C26.2267,-4529.2500 25.4520,-4529.1510 24.8655,-4528.9552
L6.7500,-4522.9178
L6.7500,-4525.1678
C6.7500,-4525.4378 7.0898,-4525.9095 7.3462,-4525.9950
L30.0780,-4533.5707
C30.3352,-4533.6577 30.8438,-4533.7500 31.5000,-4533.7500
C32.1563,-4533.7500 32.6647,-4533.6577 32.9220,-4533.5707
L55.6537,-4525.9950
C55.9103,-4525.9088 56.2500,-4525.4378 56.2500,-4525.1678
L56.2500,-4477.9177
Z" 
style="fill-rule: evenodd; fill: #000000; "/>
<path d=" 
M6.7500,-4486.9178
L15.7500,-4486.9178
L15.7500,-4489.1678
L6.7500,-4489.1678
L6.7500,-4486.9178
Z" 
style="fill-rule: evenodd; fill: #000000; "/>
<path d=" 
M18.0000,-4486.9178
L24.7500,-4486.9178
L24.7500,-4489.1678
L18.0000,-4489.1678
L18.0000,-4486.9178
Z" 
style="fill-rule: evenodd; fill: #000000; "/>
<path d=" 
M27.0000,-4486.9178
L47.2500,-4486.9178
L47.2500,-4489.1678
L27.0000,-4489.1678
L27.0000,-4486.9178
Z" 
style="fill-rule: evenodd; fill: #000000; "/>
<path d=" 
M6.7500,-4473.4177
L20.2500,-4473.4177
L20.2500,-4475.6677
L6.7500,-4475.6677
L6.7500,-4473.4177
Z" 
style="fill-rule: evenodd; fill: #000000; "/>
<path d=" 
M22.5000,-4473.4177
L47.2500,-4473.4177
L47.2500,-4475.6677
L22.5000,-4475.6677
L22.5000,-4473.4177
Z" 
style="fill-rule: evenodd; fill: #000000; "/>
<text x="0.0000" y="-4460.3347">
<tspan font-family="Arial Narrow" font-weight="bold" font-size="12.0000" fill="#000000" fill-opacity="1.0000" stroke-opacity="1.0000" >
Indexes</tspan>
</text>
</svg>
