<?xml version="1.0" encoding="UTF-8" standalone="no"?>
<svg version="1.1" xmlns="http://www.w3.org/2000/svg" xmlns:xlink="http://www.w3.org/1999/xlink" width="0.7812in" height="0.9375in" viewBox="0 0 56.2500 67.5000" >
<g id="Layer1012" >
<path d=" 
M50.5250,-4520.2501
L37.9565,-4532.8186
L37.9565,-4520.6251
C37.9565,-4520.4218 38.1283,-4520.2501 38.3315,-4520.2501
L50.5250,-4520.2501
Z
M53.7065,-4486.5001
L53.7065,-4504.5001
L13.2065,-4504.5001
L13.2065,-4486.5001
L53.7065,-4486.5001
Z
M51.4565,-4470.7501
L51.4565,-4484.2501
L10.9565,-4484.2501
L10.9565,-4506.7501
L51.4565,-4506.7501
L51.4565,-4518.0001
L38.3315,-4518.0001
C36.8840,-4518.0001 35.7065,-4519.1783 35.7065,-4520.6251
L35.7065,-4533.7501
L1.9565,-4533.7501
L1.9565,-4470.7501
L51.4565,-4470.7501
Z" 
style="stroke-width: 0.7200; stroke-linecap: round; stroke-linejoin: round; fill-rule: evenodd; fill: #ffffff; "/>
<path d=" 
M50.5250,-4520.2501
L37.9565,-4532.8186
L37.9565,-4520.6251
C37.9565,-4520.4218 38.1283,-4520.2501 38.3315,-4520.2501
L50.5250,-4520.2501
Z
M53.7065,-4486.5001
L53.7065,-4504.5001
L13.2065,-4504.5001
L13.2065,-4486.5001
L53.7065,-4486.5001
Z
M51.4565,-4470.7501
L51.4565,-4484.2501
L10.9565,-4484.2501
L10.9565,-4506.7501
L51.4565,-4506.7501
L51.4565,-4518.0001
L38.3315,-4518.0001
C36.8840,-4518.0001 35.7065,-4519.1783 35.7065,-4520.6251
L35.7065,-4533.7501
L1.9565,-4533.7501
L1.9565,-4470.7501
L51.4565,-4470.7501
Z" 
style="stroke-width: 0.7200; stroke: #ffffff; stroke-dasharray: none; stroke-linecap: round; stroke-linejoin: round; fill: none; "/>
</g>
<path d=" 
M24.1290,-4491.1365
L22.5000,-4491.1365
L22.5000,-4493.0610
L24.1290,-4493.0610
L24.1290,-4491.1365
Z" 
style="fill-rule: evenodd; fill: #000000; "/>
<path d=" 
M25.4122,-4499.9490
L27.1897,-4499.9490
L27.1897,-4492.5922
L30.3367,-4492.5922
L30.3367,-4491.1365
L25.4122,-4491.1365
L25.4122,-4499.9490
Z" 
style="fill-rule: evenodd; fill: #000000; "/>
<path d=" 
M31.0343,-4497.3877
C31.0973,-4497.9510 31.2323,-4498.4347 31.4415,-4498.8382
C31.6515,-4499.2418 31.9545,-4499.5553 32.3498,-4499.7825
C32.7435,-4500.0082 33.2738,-4500.1215 33.9413,-4500.1215
C34.6088,-4500.1215 35.1390,-4500.0082 35.5328,-4499.7825
C35.9280,-4499.5553 36.2310,-4499.2418 36.4410,-4498.8382
C36.6503,-4498.4347 36.7868,-4497.9510 36.8483,-4497.3877
C36.9098,-4496.8245 36.9405,-4496.2095 36.9405,-4495.5420
C36.9405,-4494.8678 36.9098,-4494.2497 36.8483,-4493.6910
C36.7868,-4493.1315 36.6503,-4492.6500 36.4410,-4492.2465
C36.2310,-4491.8438 35.9280,-4491.5347 35.5328,-4491.3210
C35.1390,-4491.1080 34.6088,-4491.0000 33.9413,-4491.0000
C33.2738,-4491.0000 32.7435,-4491.1080 32.3498,-4491.3210
C31.9545,-4491.5347 31.6515,-4491.8438 31.4415,-4492.2465
C31.2323,-4492.6500 31.0973,-4493.1315 31.0343,-4493.6910
C30.9728,-4494.2497 30.9420,-4494.8670 30.9420,-4495.5420
C30.9420,-4496.2087 30.9728,-4496.8245 31.0343,-4497.3877
Z
M32.7630,-4494.0300
C32.7908,-4493.6145 32.8493,-4493.2778 32.9355,-4493.0183
C33.0218,-4492.7587 33.1455,-4492.5697 33.3060,-4492.4497
C33.4665,-4492.3297 33.6773,-4492.2712 33.9413,-4492.2712
C34.2053,-4492.2712 34.4168,-4492.3297 34.5780,-4492.4497
C34.7378,-4492.5697 34.8608,-4492.7587 34.9478,-4493.0183
C35.0333,-4493.2778 35.0918,-4493.6145 35.1195,-4494.0300
C35.1488,-4494.4455 35.1630,-4494.9495 35.1630,-4495.5420
C35.1630,-4496.1353 35.1488,-4496.6363 35.1195,-4497.0487
C35.0918,-4497.4590 35.0333,-4497.7965 34.9478,-4498.0605
C34.8608,-4498.3245 34.7378,-4498.5150 34.5780,-4498.6343
C34.4168,-4498.7542 34.2053,-4498.8128 33.9413,-4498.8128
C33.6773,-4498.8128 33.4665,-4498.7542 33.3060,-4498.6343
C33.1455,-4498.5157 33.0218,-4498.3245 32.9355,-4498.0605
C32.8493,-4497.7965 32.7908,-4497.4590 32.7630,-4497.0487
C32.7338,-4496.6363 32.7195,-4496.1353 32.7195,-4495.5420
C32.7195,-4494.9495 32.7338,-4494.4455 32.7630,-4494.0300
Z" 
style="fill-rule: evenodd; fill: #000000; "/>
<path d=" 
M41.8462,-4497.8377
C41.8095,-4498.0102 41.7495,-4498.1685 41.6677,-4498.3125
C41.5860,-4498.4565 41.4802,-4498.5765 41.3527,-4498.6710
C41.2252,-4498.7655 41.0700,-4498.8120 40.8900,-4498.8120
C40.4625,-4498.8120 40.1535,-4498.5742 39.9645,-4498.0972
C39.7755,-4497.6195 39.6810,-4496.8297 39.6810,-4495.7272
C39.6810,-4495.2000 39.6975,-4494.7238 39.7297,-4494.2962
C39.7635,-4493.8680 39.8220,-4493.5035 39.9090,-4493.2035
C39.9945,-4492.9035 40.1190,-4492.6725 40.2787,-4492.5120
C40.4400,-4492.3515 40.6470,-4492.2720 40.9020,-4492.2720
C41.0085,-4492.2720 41.1262,-4492.2998 41.2537,-4492.3583
C41.3812,-4492.4153 41.5005,-4492.5015 41.6122,-4492.6178
C41.7240,-4492.7340 41.8155,-4492.8787 41.8905,-4493.0557
C41.9640,-4493.2328 42.0007,-4493.4412 42.0007,-4493.6790
L42.0007,-4494.5797
L40.8285,-4494.5797
L40.8285,-4495.8885
L43.7040,-4495.8885
L43.7040,-4491.1365
L42.3960,-4491.1365
L42.3960,-4491.9510
L42.3712,-4491.9510
C42.1575,-4491.6052 41.9002,-4491.3607 41.6010,-4491.2168
C41.2980,-4491.0728 40.9395,-4491.0000 40.5195,-4491.0000
C39.9750,-4491.0000 39.5347,-4491.0945 39.1920,-4491.2835
C38.8500,-4491.4733 38.5830,-4491.7665 38.3902,-4492.1602
C38.1967,-4492.5555 38.0670,-4493.0423 38.0010,-4493.6220
C37.9350,-4494.2018 37.9020,-4494.8760 37.9020,-4495.6403
C37.9020,-4496.3805 37.9485,-4497.0307 38.0437,-4497.5902
C38.1375,-4498.1498 38.3002,-4498.6170 38.5312,-4498.9913
C38.7615,-4499.3655 39.0660,-4499.6467 39.4440,-4499.8373
C39.8235,-4500.0262 40.2967,-4500.1208 40.8637,-4500.1208
C41.8350,-4500.1208 42.5355,-4499.8800 42.9622,-4499.3992
C43.3890,-4498.9170 43.6035,-4498.2278 43.6035,-4497.3308
L41.9002,-4497.3308
C41.9017,-4497.4965 41.8830,-4497.6653 41.8462,-4497.8377
Z" 
style="fill-rule: evenodd; fill: #000000; "/>
<path d=" 
M56.2500,-4506.7500
L54.0000,-4509.0000
L54.0000,-4518.0000
C54.0000,-4519.2368 53.2838,-4520.9663 52.4093,-4521.8407
L39.8407,-4534.4092
C38.9662,-4535.2837 37.2368,-4536.0000 36.0000,-4536.0000
L2.2500,-4536.0000
C1.0132,-4536.0000 0.0000,-4534.9868 0.0000,-4533.7500
L0.0000,-4470.7500
C0.0000,-4469.5132 1.0132,-4468.5000 2.2500,-4468.5000
L51.7500,-4468.5000
C52.9868,-4468.5000 54.0000,-4469.5132 54.0000,-4470.7500
L54.0000,-4484.2500
L56.2500,-4484.2500
L56.2500,-4506.7500
Z
M50.8185,-4520.2500
L38.6250,-4520.2500
C38.4217,-4520.2500 38.2500,-4520.4217 38.2500,-4520.6250
L38.2500,-4532.8185
L50.8185,-4520.2500
Z
M51.7500,-4470.7500
L2.2500,-4470.7500
L2.2500,-4533.7500
L36.0000,-4533.7500
L36.0000,-4520.6250
C36.0000,-4519.1782 37.1775,-4518.0000 38.6250,-4518.0000
L51.7500,-4518.0000
L51.7500,-4506.7500
L11.2500,-4506.7500
L11.2500,-4484.2500
L51.7500,-4484.2500
L51.7500,-4470.7500
Z
M54.0000,-4486.5000
L51.7500,-4486.5000
L13.5000,-4486.5000
L13.5000,-4504.5000
L51.7500,-4504.5000
L54.0000,-4504.5000
L54.0000,-4486.5000
Z" 
style="fill-rule: evenodd; fill: #000000; "/>
<text x="0.0000" y="-4468.5000">
<tspan font-family="Arial Narrow" font-weight="bold" font-size="12.0000" fill="#000000" fill-opacity="1.0000" stroke-opacity="1.0000" >
Log File</tspan>
</text>
</svg>
