<?xml version="1.0" encoding="UTF-8" standalone="no"?>
<svg version="1.1" xmlns="http://www.w3.org/2000/svg" xmlns:xlink="http://www.w3.org/1999/xlink" width="1.0938in" height="0.8438in" viewBox="0 0 78.7500 60.7500" >
<g id="Layer1024" >
<path d=" 
M2.2500,-4477.5001
L76.5000,-4477.5001
L76.5000,-4533.7501
L2.2500,-4533.7501
L2.2500,-4477.5001
Z" 
style="stroke-width: 0.7200; stroke-linecap: round; stroke-linejoin: round; fill-rule: evenodd; fill: #ffffff; "/>
<path d=" 
M2.2500,-4477.5001
L76.5000,-4477.5001
L76.5000,-4533.7501
L2.2500,-4533.7501
L2.2500,-4477.5001
Z" 
style="stroke-width: 0.7200; stroke: #ffffff; stroke-dasharray: none; stroke-linecap: round; stroke-linejoin: round; fill: none; "/>
</g>
<path d=" 
M19.0613,-4505.4555
L27.7095,-4517.2500
L19.3950,-4528.5885
C16.4903,-4526.4210 14.4203,-4523.2087 13.7483,-4519.4993
L18.0000,-4519.4993
L18.0000,-4514.9993
L13.6328,-4514.9993
C14.2043,-4510.5532 16.7670,-4506.7395 20.4038,-4504.4700
L19.0613,-4505.4555
Z" 
style="fill-rule: evenodd; fill: #000000; "/>
<path d=" 
M38.2500,-4515.0000
L38.2500,-4519.5000
L42.5018,-4519.5000
C41.2635,-4526.3220 35.3048,-4531.5000 28.1250,-4531.5000
C26.4758,-4531.5000 24.8970,-4531.2142 23.4188,-4530.7125
L33.2895,-4517.2500
L22.9853,-4503.1973
C24.5865,-4502.5950 26.3130,-4502.2500 28.1250,-4502.2500
C35.5650,-4502.2500 41.6940,-4507.8105 42.6165,-4515.0000
L38.2500,-4515.0000
Z" 
style="fill-rule: evenodd; fill: #000000; "/>
<path d=" 
M28.1250,-4530.7500
C35.7758,-4530.7500 42.0000,-4524.5258 42.0000,-4516.8750
C42.0000,-4509.2243 35.7758,-4503.0000 28.1250,-4503.0000
C20.4743,-4503.0000 14.2500,-4509.2243 14.2500,-4516.8750
C14.2500,-4524.5258 20.4743,-4530.7500 28.1250,-4530.7500
Z
M28.1250,-4531.5000
C20.0475,-4531.5000 13.5000,-4524.9525 13.5000,-4516.8750
C13.5000,-4508.7975 20.0475,-4502.2500 28.1250,-4502.2500
C36.2025,-4502.2500 42.7500,-4508.7975 42.7500,-4516.8750
C42.7500,-4524.9525 36.2025,-4531.5000 28.1250,-4531.5000
Z" 
style="fill-rule: evenodd; fill: #000000; "/>
<path d=" 
M39.9953,-4527.7500
L72.0000,-4527.7500
L72.0000,-4529.2500
L38.4450,-4529.2500
C38.9978,-4528.7880 39.5085,-4528.2810 39.9953,-4527.7500
Z" 
style="fill-rule: evenodd; fill: #000000; "/>
<path d=" 
M17.8050,-4529.2500
L6.7500,-4529.2500
L6.7500,-4527.7500
L16.2547,-4527.7500
C16.7415,-4528.2810 17.2522,-4528.7880 17.8050,-4529.2500
Z" 
style="fill-rule: evenodd; fill: #000000; "/>
<path d=" 
M39.2707,-4505.2500
L72.0000,-4505.2500
L72.0000,-4506.7500
L40.6567,-4506.7500
C40.2277,-4506.2198 39.7627,-4505.7217 39.2707,-4505.2500
Z" 
style="fill-rule: evenodd; fill: #000000; "/>
<path d=" 
M15.5932,-4506.7500
L6.7500,-4506.7500
L6.7500,-4505.2500
L16.9792,-4505.2500
C16.4872,-4505.7217 16.0222,-4506.2198 15.5932,-4506.7500
Z" 
style="fill-rule: evenodd; fill: #000000; "/>
<path d=" 
M33.7500,-4494.0000
L72.0000,-4494.0000
L72.0000,-4495.5000
L33.7500,-4495.5000
L33.7500,-4494.0000
Z" 
style="fill-rule: evenodd; fill: #000000; "/>
<path d=" 
M6.7500,-4494.0000
L20.2500,-4494.0000
L20.2500,-4495.5000
L6.7500,-4495.5000
L6.7500,-4494.0000
Z" 
style="fill-rule: evenodd; fill: #000000; "/>
<path d=" 
M33.7500,-4482.7500
L72.0000,-4482.7500
L72.0000,-4484.2500
L33.7500,-4484.2500
L33.7500,-4482.7500
Z" 
style="fill-rule: evenodd; fill: #000000; "/>
<path d=" 
M6.7500,-4482.7500
L20.2500,-4482.7500
L20.2500,-4484.2500
L6.7500,-4484.2500
L6.7500,-4482.7500
Z" 
style="fill-rule: evenodd; fill: #000000; "/>
<path d=" 
M77.2500,-4536.0000
L1.5000,-4536.0000
C0.6750,-4536.0000 0.0000,-4535.3257 0.0000,-4534.5000
L0.0000,-4523.2500
L0.0000,-4522.5000
L0.0000,-4512.0000
L0.0000,-4511.2500
L0.0000,-4500.7500
L0.0000,-4500.0000
L0.0000,-4489.5000
L0.0000,-4488.7500
L0.0000,-4476.7500
C0.0000,-4475.9243 0.6743,-4475.2500 1.5000,-4475.2500
L77.2500,-4475.2500
C78.0758,-4475.2500 78.7500,-4475.9243 78.7500,-4476.7500
L78.7500,-4488.7500
L78.7500,-4489.5000
L78.7500,-4500.0000
L78.7500,-4500.7500
L78.7500,-4511.2500
L78.7500,-4512.0000
L78.7500,-4522.5000
L78.7500,-4523.2500
L78.7500,-4534.5000
C78.7500,-4535.3257 78.0758,-4536.0000 77.2500,-4536.0000
Z
M2.2500,-4500.0000
L22.5045,-4500.0000
L26.3550,-4494.7500
L22.5052,-4489.5000
L2.2500,-4489.5000
L2.2500,-4500.0000
Z
M2.2500,-4477.5000
L2.2500,-4488.7500
L22.5045,-4488.7500
L26.4083,-4483.4265
L22.9770,-4477.5000
L2.2500,-4477.5000
Z
M76.5000,-4477.5000
L25.5765,-4477.5000
L29.0925,-4483.5720
L25.2952,-4488.7500
L76.5000,-4488.7500
L76.5000,-4477.5000
Z
M76.5000,-4489.5000
L25.2960,-4489.5000
L29.1450,-4494.7500
L25.2952,-4500.0000
L76.5000,-4500.0000
L76.5000,-4489.5000
Z
M76.5000,-4523.2500
L42.9300,-4523.2500
C43.0357,-4523.0048 43.1235,-4522.7505 43.2173,-4522.5000
C43.7475,-4521.0818 44.0827,-4519.5735 44.1930,-4518.0000
L72.0000,-4518.0000
L72.0000,-4516.5000
L44.2313,-4516.5000
C44.1945,-4514.9362 43.9455,-4513.4243 43.4933,-4512.0000
C43.4123,-4511.7450 43.3110,-4511.4990 43.2180,-4511.2500
L76.5000,-4511.2500
L76.5000,-4500.7500
L25.2960,-4500.7500
L25.4700,-4500.9878
C24.6592,-4501.1235 23.8665,-4501.3110 23.1008,-4501.5630
L22.5052,-4500.7500
L2.2500,-4500.7500
L2.2500,-4511.2500
L13.0328,-4511.2500
C12.9398,-4511.4997 12.8385,-4511.7450 12.7575,-4512.0000
C12.3045,-4513.4243 12.0555,-4514.9362 12.0195,-4516.5000
L6.7500,-4516.5000
L6.7500,-4518.0000
L12.0578,-4518.0000
C12.1672,-4519.5735 12.5025,-4521.0818 13.0328,-4522.5000
C13.1265,-4522.7513 13.2143,-4523.0055 13.3200,-4523.2500
L2.2500,-4523.2500
L2.2500,-4533.7500
L23.0130,-4533.7500
L23.8777,-4532.4135
C24.6503,-4532.6250 25.4415,-4532.7877 26.2545,-4532.8823
L25.6927,-4533.7500
L76.5000,-4533.7500
L76.5000,-4523.2500
Z" 
style="fill-rule: evenodd; fill: #000000; "/>
<text x="0.0000" y="-4475.2500">
<tspan font-family="Arial Narrow" font-weight="bold" font-size="12.0000" fill="#000000" fill-opacity="1.0000" stroke-opacity="1.0000" >
Lookup</tspan>
</text>
</svg>
