<?xml version="1.0" encoding="UTF-8" standalone="no"?>
<svg version="1.1" xmlns="http://www.w3.org/2000/svg" xmlns:xlink="http://www.w3.org/1999/xlink" width="1.3038in" height="2.1653in" viewBox="0 0 93.8771 155.9000" >
<path d=" 
M44.2000,42.0000
C44.0000,41.6000 43.6000,41.5000 43.2000,41.6000
C42.8000,41.7000 42.5000,42.1000 42.5000,42.5000
L42.5000,91.9000
C42.5000,92.4000 42.9000,92.8000 43.4000,92.8000
L72.1000,92.8000
C72.4000,92.8000 72.7000,92.6000 72.9000,92.3000
C73.1000,92.0000 73.1000,91.7000 72.9000,91.4000
L44.2000,42.0000
Z
M44.4000,90.9000
L44.4000,45.9000
L70.5000,90.9000
L44.4000,90.9000
Z" 
style="fill-rule: evenodd; fill: #000000; "/>
<path d=" 
M93.1000,98.2000
L37.7000,2.7000
C36.5000,0.6000 34.0000,-0.4000 31.7000,0.2000
C29.3000,0.8000 27.7000,2.9000 27.7000,5.4000
L27.7000,101.0000
C27.7000,104.0000 30.1000,106.4000 33.1000,106.4000
L88.6000,106.4000
C90.5000,106.4000 92.3000,105.4000 93.3000,103.7000
C94.1000,101.9000 94.1000,99.9000 93.1000,98.2000
Z
M90.2000,101.9000
C90.0000,102.2000 89.5000,102.9000 88.5000,102.9000
L33.0000,102.9000
C31.9000,102.9000 31.0000,102.0000 31.0000,100.9000
L31.0000,99.0000
L37.3000,99.0000
C37.8000,99.0000 38.1000,98.6000 38.1000,98.2000
C38.1000,97.7000 37.7000,97.4000 37.3000,97.4000
L31.0000,97.4000
L31.0000,91.4000
L34.0000,91.4000
C34.4000,91.4000 34.6000,91.1000 34.6000,90.8000
C34.6000,90.5000 34.3000,90.0000 34.0000,90.0000
L31.0000,90.0000
L31.0000,84.0000
L37.3000,84.0000
C37.8000,84.0000 38.1000,83.6000 38.1000,83.2000
C38.1000,82.7000 37.7000,82.4000 37.3000,82.4000
L31.0000,82.4000
L31.0000,76.4000
L34.0000,76.4000
C34.4000,76.4000 34.6000,76.1000 34.6000,75.8000
C34.6000,75.3999 34.3000,75.2000 34.0000,75.2000
L31.0000,75.2000
L31.0000,69.0999
L37.3000,69.0999
C37.8000,69.0999 38.1000,68.7000 38.1000,68.3000
C38.1000,67.9000 37.7000,67.5000 37.3000,67.5000
L31.0000,67.5000
L31.0000,61.5000
L34.0000,61.5000
C34.4000,61.5000 34.6000,61.2000 34.6000,60.9000
C34.6000,60.5000 34.3000,60.3000 34.0000,60.3000
L31.0000,60.3000
L31.0000,54.2000
L37.3000,54.2000
C37.8000,54.2000 38.1000,53.8000 38.1000,53.4001
C38.1000,53.0000 37.7000,52.6000 37.3000,52.6000
L31.0000,52.6000
L31.0000,46.6000
L34.0000,46.6000
C34.4000,46.6000 34.6000,46.3000 34.6000,46.0000
C34.6000,45.6000 34.3000,45.4000 34.0000,45.4000
L31.0000,45.4000
L31.0000,39.3000
L37.3000,39.3000
C37.8000,39.3000 38.1000,38.9000 38.1000,38.5000
C38.1000,38.0000 37.7000,37.7000 37.3000,37.7000
L31.0000,37.7000
L31.0000,31.7000
L34.0000,31.7000
C34.4000,31.7000 34.6000,31.4000 34.6000,31.1000
C34.6000,30.8000 34.3000,30.5000 34.0000,30.5000
L31.0000,30.5000
L31.0000,24.4000
L37.3000,24.4000
C37.8000,24.4000 38.1000,24.0001 38.1000,23.6000
C38.1000,23.2000 37.7000,22.8000 37.3000,22.8000
L31.0000,22.8000
L31.0000,16.8000
L34.0000,16.8000
C34.4000,16.8000 34.6000,16.5000 34.6000,16.2000
C34.6000,15.8000 34.3000,15.6001 34.0000,15.6001
L31.0000,15.6001
L31.0000,5.4000
C31.0000,4.3000 31.8000,3.7000 32.5000,3.5000
C32.7000,3.5000 32.9000,3.4000 33.1000,3.4000
C33.7000,3.4000 34.4000,3.7000 34.8000,4.4000
L90.3000,100.0000
C90.7000,100.8000 90.4000,101.6000 90.2000,101.9000
Z" 
style="fill-rule: evenodd; fill: #000000; "/>
<path d=" 
M16.4000,0.0000
L5.0000,0.0000
C2.3000,0.0000 0.0000,2.3000 0.0000,5.0000
L0.0000,101.2000
C0.0000,104.0000 2.3000,106.2000 5.0000,106.2000
L16.3000,106.2000
C19.1000,106.2000 21.3000,103.9000 21.3000,101.2000
L21.3000,5.0000
C21.4000,2.3000 19.2000,0.0000 16.4000,0.0000
Z
M18.0000,101.3000
C18.0000,102.2000 17.3000,103.0000 16.3000,103.0000
L5.0000,103.0000
C4.1000,103.0000 3.3000,102.3000 3.3000,101.3000
L3.3000,99.0000
L9.3000,99.0000
C9.8000,99.0000 10.1000,98.6000 10.1000,98.2000
C10.1000,97.7000 9.7000,97.3999 9.3000,97.3999
L3.3000,97.3999
L3.3000,91.4000
L6.0000,91.4000
C6.4000,91.4000 6.6000,91.1000 6.6000,90.8000
C6.6000,90.5000 6.4000,90.0000 6.0000,90.0000
L3.4000,90.0000
L3.4000,84.0000
L9.4000,84.0000
C9.9000,84.0000 10.2000,83.6000 10.2000,83.1999
C10.2000,82.7000 9.8000,82.4000 9.4000,82.4000
L3.4000,82.4000
L3.4000,76.4000
L6.0000,76.4000
C6.4000,76.4000 6.6000,76.1001 6.6000,75.8000
C6.7000,75.3000 6.4000,75.0000 6.0000,75.0000
L3.4000,75.0000
L3.4000,68.9000
L9.4000,68.9000
C9.9000,68.9000 10.2000,68.5000 10.2000,68.1000
C10.2000,67.7000 9.8000,67.3000 9.4000,67.3000
L3.4000,67.3000
L3.4000,61.3000
L6.0000,61.3000
C6.4000,61.3000 6.6000,61.0000 6.6000,60.7000
C6.7000,60.2000 6.4000,60.0000 6.0000,60.0000
L3.4000,60.0000
L3.4000,53.9000
L9.4000,53.9000
C9.9000,53.9000 10.2000,53.4999 10.2000,53.1000
C10.2000,52.7001 9.8000,52.3000 9.4000,52.3000
L3.4000,52.3000
L3.4000,46.3000
L6.0000,46.3000
C6.4000,46.3000 6.6000,46.0000 6.6000,45.7000
C6.6000,45.3000 6.3000,45.1000 6.0000,45.1000
L3.4000,45.1000
L3.4000,39.0000
L9.4000,39.0000
C9.9000,39.0000 10.2000,38.6000 10.2000,38.2000
C10.2000,37.7000 9.8000,37.4000 9.4000,37.4000
L3.4000,37.4000
L3.4000,31.4000
L6.0000,31.4000
C6.4000,31.4000 6.6000,31.1000 6.6000,30.8000
C6.6000,30.5000 6.4000,29.9000 6.0000,29.9000
L3.4000,29.9000
L3.4000,23.8000
L9.4000,23.8000
C9.9000,23.8000 10.2000,23.4000 10.2000,23.0001
C10.2000,22.6000 9.8000,22.2000 9.4000,22.2000
L3.4000,22.2000
L3.4000,16.2000
L6.0000,16.2000
C6.4000,16.2000 6.6000,15.9001 6.6000,15.6000
C6.6000,15.2000 6.3000,15.0000 6.0000,15.0000
L3.4000,15.0000
L3.4000,8.8001
L9.4000,8.8001
C9.9000,8.8001 10.2000,8.4000 10.2000,8.0000
C10.2000,7.6000 9.9000,7.1000 9.4000,7.1000
L3.4000,7.1000
L3.4000,5.0000
C3.4000,4.1000 4.1000,3.3000 5.1000,3.3000
L16.4000,3.3000
C17.3000,3.4000 18.0000,4.1000 18.0000,5.0000
L18.0000,101.3000
Z" 
style="fill-rule: evenodd; fill: #000000; "/>
<text x="5.9385" y="135.6500">
<tspan font-family="Arial Narrow" font-weight="bold" font-size="12.0000" fill="#000000" fill-opacity="1.0000" stroke-opacity="1.0000" >
Metric</tspan>
</text>
</svg>
