<?xml version="1.0" encoding="UTF-8" standalone="no"?>
<svg version="1.1" xmlns="http://www.w3.org/2000/svg" xmlns:xlink="http://www.w3.org/1999/xlink" width="1.2500in" height="2.1653in" viewBox="0 0 90.0000 155.9000" >
<path d=" 
M49.5000,3.4000
C50.7000,3.4000 51.8000,3.6000 52.6000,3.9000
L83.6000,15.3000
C85.4000,16.0000 86.9000,18.2000 86.9000,20.4000
L86.9000,83.0000
C86.9000,85.2000 85.4000,87.5000 83.5000,88.1000
L52.5000,99.4000
C51.4000,99.8000 50.2000,99.9000 49.4000,99.9000
C48.2000,99.9000 47.1000,99.7000 46.3000,99.4000
L15.5000,88.1000
C13.6000,87.4000 12.1000,85.1000 12.1000,82.9000
L12.1000,20.3000
C12.1000,18.1000 13.6000,15.8000 15.5000,15.1000
L46.4000,3.9000
C47.2000,3.5000 48.3000,3.4000 49.5000,3.4000
Z
M49.5000,0.0000
C48.4000,0.0000 46.9000,0.1000 45.4000,0.6000
L14.5000,12.0000
C11.4000,13.1000 9.0000,16.7000 9.0000,20.3000
L9.0000,82.9000
C9.0000,86.5000 11.4000,90.1000 14.5000,91.3000
L45.4000,102.6000
C46.9000,103.1000 48.4000,103.2000 49.5000,103.2000
C50.6000,103.2000 52.1000,103.1000 53.6000,102.6000
L84.5000,91.3000
C87.6000,90.2000 90.0000,86.6000 90.0000,82.9000
L90.0000,20.3000
C90.0000,16.7000 87.7000,13.2000 84.6000,12.0000
L53.6000,0.6000
C52.1000,0.1000 50.6000,0.0000 49.5000,0.0000
Z" 
style="fill-rule: evenodd; fill: #000000; "/>
<path d=" 
M80.9000,67.6000
L54.4000,67.6000
C53.4000,67.6000 52.5000,68.4000 52.5000,69.5000
L52.5000,71.7000
L38.3000,71.7000
C37.3000,71.7000 36.4000,72.5000 36.4000,73.6000
L36.4000,75.8000
L22.2000,75.8000
C21.2000,75.8000 20.3000,76.6000 20.3000,77.7000
L20.3000,84.0000
C20.3000,85.0000 21.1000,85.9000 22.2000,85.9000
L48.7000,85.9000
C49.7000,85.9000 50.6000,85.1000 50.6000,84.0000
L50.6000,81.8000
L64.8000,81.8000
C65.8000,81.8000 66.7000,81.0000 66.7000,79.9000
L66.7000,77.7000
L80.9000,77.7000
C81.9000,77.7000 82.8000,76.9000 82.8000,75.8000
L82.8000,69.6000
C82.8000,68.5000 81.9000,67.6000 80.9000,67.6000
Z
M48.9000,84.0000
C48.9000,84.1000 48.8000,84.2000 48.7000,84.2000
L45.4000,84.2000
L45.4000,82.8000
C45.4000,82.6000 45.2000,82.4000 45.0000,82.4000
C44.8000,82.4000 44.6000,82.6000 44.6000,82.8000
L44.6000,84.2000
L40.7000,84.2000
L40.7000,82.8000
C40.7000,82.6000 40.5000,82.4000 40.3000,82.4000
C40.1000,82.4000 39.9000,82.6000 39.9000,82.8000
L39.9000,84.2000
L36.0000,84.2000
L36.0000,82.8000
C36.0000,82.6000 35.8000,82.4000 35.6000,82.4000
C35.4000,82.4000 35.2000,82.6000 35.2000,82.8000
L35.2000,84.2000
L31.3000,84.2000
L31.3000,82.8000
C31.3000,82.6000 31.1000,82.4000 30.9000,82.4000
C30.7000,82.4000 30.5000,82.6000 30.5000,82.8000
L30.5000,84.2000
L26.6000,84.2000
L26.6000,82.8000
C26.6000,82.6000 26.4000,82.4000 26.2000,82.4000
C26.0000,82.4000 25.8000,82.6000 25.8000,82.8000
L25.8000,84.2000
L22.3000,84.2000
C22.2000,84.2000 22.1000,84.1000 22.1000,84.0000
L22.1000,77.8000
C22.1000,77.7000 22.2000,77.6000 22.3000,77.6000
L48.8000,77.6000
C48.9000,77.6000 49.0000,77.7000 49.0000,77.8000
L49.0000,84.0000
L48.9000,84.0000
Z
M65.0000,79.8000
C65.0000,79.9000 64.9000,80.0000 64.8000,80.0000
L61.5000,80.0000
L61.5000,78.6000
C61.5000,78.4000 61.3000,78.2000 61.1000,78.2000
C60.9000,78.2000 60.7000,78.4000 60.7000,78.6000
L60.7000,80.0000
L56.8000,80.0000
L56.8000,78.6000
C56.8000,78.4000 56.6000,78.2000 56.4000,78.2000
C56.2000,78.2000 56.0000,78.4000 56.0000,78.6000
L56.0000,80.0000
L52.0000,80.0000
L52.0000,78.6000
C52.0000,78.4000 51.8000,78.2000 51.6000,78.2000
C51.4000,78.2000 51.2000,78.4000 51.2000,78.6000
L51.2000,80.0000
L50.6000,80.0000
L50.6000,77.8000
C50.6000,76.8000 49.8000,75.9000 48.7000,75.9000
L38.1000,75.9000
L38.1000,73.7000
C38.1000,73.6000 38.2000,73.5000 38.3000,73.5000
L64.8000,73.5000
C64.9000,73.5000 65.0000,73.6000 65.0000,73.7000
L65.0000,79.8000
Z
M81.1000,75.7000
C81.1000,75.8000 81.0000,75.9000 80.9000,75.9000
L77.6000,75.9000
L77.6000,74.5000
C77.6000,74.3000 77.4000,74.1000 77.2000,74.1000
C77.0000,74.1000 76.8000,74.3000 76.8000,74.5000
L76.8000,75.9000
L72.9000,75.9000
L72.9000,74.5000
C72.9000,74.3000 72.7000,74.1000 72.5000,74.1000
C72.3000,74.1000 72.0000,74.2000 72.0000,74.5000
L72.0000,75.9000
L68.1000,75.9000
L68.1000,74.5000
C68.1000,74.3000 67.9000,74.1000 67.7000,74.1000
C67.5000,74.1000 67.3000,74.3000 67.3000,74.5000
L67.3000,75.9000
L66.7000,75.9000
L66.7000,73.7000
C66.7000,72.7000 65.9000,71.8000 64.8000,71.8000
L54.2000,71.8000
L54.2000,69.6000
C54.2000,69.5000 54.3000,69.4000 54.4000,69.4000
L80.9000,69.4000
C81.0000,69.4000 81.1000,69.5000 81.1000,69.6000
L81.1000,75.7000
Z" 
style="fill-rule: evenodd; fill: #000000; "/>
<path d=" 
M22.8000,68.2000
L48.0000,68.2000
C48.9000,68.2000 49.7000,67.7000 50.2000,66.9000
C50.6000,66.2000 50.6000,65.5000 50.4000,64.8000
L64.1000,64.8000
C65.0000,64.8000 65.8000,64.3000 66.3000,63.5000
C66.7000,62.8000 66.7000,62.1000 66.5000,61.4000
L80.2000,61.4000
C81.1000,61.4000 81.9000,60.9000 82.4000,60.1000
C82.9000,59.3000 82.9000,58.4000 82.4000,57.6000
L57.2000,14.2000
C56.6000,13.2000 55.5000,12.7000 54.4000,13.0000
C53.3000,13.3000 52.5000,14.3000 52.5000,15.4000
L52.5000,37.1000
L41.1000,17.6000
C40.5000,16.6000 39.4000,16.1000 38.3000,16.4000
C37.2000,16.7000 36.4000,17.7000 36.4000,18.8000
L36.4000,40.5000
L25.0000,21.0000
C24.4000,20.0000 23.3000,19.5000 22.2000,19.8000
C21.1000,20.1000 20.3000,21.1000 20.3000,22.2000
L20.3000,65.7000
C20.3000,67.1000 21.4000,68.2000 22.8000,68.2000
Z
M54.2000,15.5000
C54.2000,14.9000 54.7000,14.7000 54.8000,14.7000
C54.8000,14.7000 54.9000,14.7000 55.0000,14.7000
C55.2000,14.7000 55.5000,14.8000 55.7000,15.1000
L80.9000,58.6000
C81.1000,59.0000 81.0000,59.3000 80.9000,59.4000
C80.8000,59.5000 80.6000,59.8000 80.2000,59.8000
L65.6000,59.8000
L63.2000,55.7000
L72.8000,55.7000
C73.1000,55.7000 73.4000,55.5000 73.5000,55.3000
C73.7000,55.0000 73.7000,54.7000 73.5000,54.5000
L60.5000,32.0000
C60.3000,31.7000 59.9000,31.5000 59.5000,31.6000
C59.1000,31.7000 58.9000,32.0000 58.9000,32.4000
L58.9000,48.3000
L54.2000,40.2000
L54.2000,15.5000
Z
M60.6000,51.2000
L60.6000,35.5000
L71.3000,54.0000
L62.2000,54.0000
L60.6000,51.2000
Z
M38.1000,18.9000
C38.1000,18.3000 38.6000,18.1000 38.7000,18.1000
C38.7000,18.1000 38.8000,18.1000 38.9000,18.1000
C39.1000,18.1000 39.4000,18.2000 39.6000,18.5000
L64.8000,62.0000
C65.0000,62.4000 64.9000,62.7000 64.8000,62.8000
C64.7000,62.9000 64.5000,63.2000 64.1000,63.2000
L49.5000,63.2000
L47.1000,59.0000
L56.7000,59.0000
C57.0000,59.0000 57.3000,58.8000 57.4000,58.6000
C57.6000,58.3000 57.6000,58.0000 57.4000,57.8000
L44.4000,35.3000
C44.2000,35.0000 43.8000,34.8000 43.4000,34.9000
C43.0000,35.0000 42.8000,35.3000 42.8000,35.7000
L42.8000,51.6000
L38.1000,43.5000
L38.1000,18.9000
Z
M44.5000,54.5000
L44.5000,38.8000
L55.2000,57.3000
L46.1000,57.3000
L44.5000,54.5000
Z
M22.0000,22.2000
C22.0000,21.6000 22.5000,21.4000 22.6000,21.4000
C22.6000,21.4000 22.7000,21.4000 22.8000,21.4000
C23.0000,21.4000 23.3000,21.5000 23.5000,21.8000
L48.7000,65.3000
C48.9000,65.7000 48.8000,66.0000 48.7000,66.1000
C48.6000,66.2000 48.4000,66.5000 48.0000,66.5000
L22.8000,66.5000
C22.3000,66.5000 22.0000,66.1000 22.0000,65.7000
L22.0000,22.2000
Z" 
style="fill-rule: evenodd; fill: #000000; "/>
<path d=" 
M27.6000,62.4000
L40.6000,62.4000
C40.9000,62.4000 41.2000,62.2000 41.3000,62.0000
C41.5000,61.7000 41.5000,61.4000 41.3000,61.2000
L28.3000,38.7000
C28.1000,38.4000 27.7000,38.2000 27.3000,38.3000
C26.9000,38.4000 26.7000,38.7000 26.7000,39.1000
L26.7000,61.6000
C26.7000,62.0000 27.1000,62.4000 27.6000,62.4000
Z
M28.4000,42.2000
L39.1000,60.7000
L28.4000,60.7000
L28.4000,42.2000
Z" 
style="fill-rule: evenodd; fill: #000000; "/>
<text x="4.0000" y="135.6500">
<tspan font-family="Arial Narrow" font-weight="bold" font-size="12.0000" fill="#000000" fill-opacity="1.0000" stroke-opacity="1.0000" >
Metric Index</tspan>
</text>
</svg>
