<?xml version="1.0" encoding="UTF-8" standalone="no"?>
<svg version="1.1" xmlns="http://www.w3.org/2000/svg" xmlns:xlink="http://www.w3.org/1999/xlink" width="1.0838in" height="1.0808in" viewBox="0 0 78.0338 77.8155" >
<g id="Layer1025" >
<path d=" 
M33.7500,-4532.8216
C33.2970,-4533.2739 32.1405,-4533.7531 31.5000,-4533.7531
L9.0000,-4533.7531
C8.3505,-4533.7531 7.1708,-4533.2739 6.7050,-4532.8216
L3.1815,-4529.3949
C2.7293,-4528.9554 2.2500,-4527.8214 2.2500,-4527.1899
L2.2500,-4504.5031
C2.2500,-4503.8626 2.7293,-4502.7061 3.1815,-4502.2531
L45.0000,-4460.4346
L75.5685,-4491.0031
L33.7500,-4532.8216
Z
M16.8750,-4524.7531
C19.9823,-4524.7531 22.5000,-4522.2354 22.5000,-4519.1281
C22.5000,-4516.0209 19.9823,-4513.5031 16.8750,-4513.5031
C13.7678,-4513.5031 11.2500,-4516.0209 11.2500,-4519.1281
C11.2500,-4522.2354 13.7678,-4524.7531 16.8750,-4524.7531
Z" 
style="stroke-width: 0.7200; stroke-linecap: round; stroke-linejoin: round; fill-rule: evenodd; fill: #ffffff; "/>
<path d=" 
M33.7500,-4532.8216
C33.2970,-4533.2739 32.1405,-4533.7531 31.5000,-4533.7531
L9.0000,-4533.7531
C8.3505,-4533.7531 7.1708,-4533.2739 6.7050,-4532.8216
L3.1815,-4529.3949
C2.7293,-4528.9554 2.2500,-4527.8214 2.2500,-4527.1899
L2.2500,-4504.5031
C2.2500,-4503.8626 2.7293,-4502.7061 3.1815,-4502.2531
L45.0000,-4460.4346
L75.5685,-4491.0031
L33.7500,-4532.8216
Z
M16.8750,-4524.7531
C19.9823,-4524.7531 22.5000,-4522.2354 22.5000,-4519.1281
C22.5000,-4516.0209 19.9823,-4513.5031 16.8750,-4513.5031
C13.7678,-4513.5031 11.2500,-4516.0209 11.2500,-4519.1281
C11.2500,-4522.2354 13.7678,-4524.7531 16.8750,-4524.7531
Z" 
style="stroke-width: 0.7200; stroke: #ffffff; stroke-dasharray: none; stroke-linecap: round; stroke-linejoin: round; fill: none; "/>
</g>
<path d=" 
M31.5000,-4533.7500
C32.1405,-4533.7500 33.2970,-4533.2708 33.7500,-4532.8185
L75.5685,-4491.0000
L45.0000,-4460.4315
L3.1815,-4502.2500
C2.7292,-4502.7030 2.2500,-4503.8595 2.2500,-4504.5000
L2.2500,-4527.1867
C2.2500,-4527.8183 2.7292,-4528.9523 3.1815,-4529.3918
L6.7050,-4532.8185
C7.1708,-4533.2708 8.3505,-4533.7500 9.0000,-4533.7500
L31.5000,-4533.7500
Z
M31.5000,-4536.0000
L9.0000,-4536.0000
C7.7632,-4536.0000 6.0240,-4535.2950 5.1375,-4534.4310
L1.6125,-4531.0058
C0.7260,-4530.1417 0.0000,-4528.4235 0.0000,-4527.1867
L0.0000,-4504.5000
C0.0000,-4503.2632 0.7162,-4501.5338 1.5908,-4500.6593
L43.4093,-4458.8408
C43.8473,-4458.4028 44.4240,-4458.1845 45.0000,-4458.1845
C45.5775,-4458.1845 46.1542,-4458.4028 46.5908,-4458.8408
L77.1593,-4489.4093
C78.0338,-4490.2838 78.0338,-4491.7163 77.1593,-4492.5908
L35.3407,-4534.4093
C34.4663,-4535.2838 32.7368,-4536.0000 31.5000,-4536.0000
Z" 
style="fill-rule: evenodd; fill: #000000; "/>
<path d=" 
M16.8750,-4522.5000
C18.7357,-4522.5000 20.2500,-4520.9858 20.2500,-4519.1250
C20.2500,-4517.2643 18.7357,-4515.7500 16.8750,-4515.7500
C15.0142,-4515.7500 13.5000,-4517.2643 13.5000,-4519.1250
C13.5000,-4520.9858 15.0142,-4522.5000 16.8750,-4522.5000
Z
M16.8750,-4524.7500
C13.7677,-4524.7500 11.2500,-4522.2323 11.2500,-4519.1250
C11.2500,-4516.0177 13.7677,-4513.5000 16.8750,-4513.5000
C19.9822,-4513.5000 22.5000,-4516.0177 22.5000,-4519.1250
C22.5000,-4522.2323 19.9822,-4524.7500 16.8750,-4524.7500
Z" 
style="fill-rule: evenodd; fill: #000000; "/>
<path d=" 
M58.5000,-4492.1250
C58.2127,-4492.1250 57.9240,-4492.2345 57.7042,-4492.4543
L35.2042,-4514.9543
C34.7647,-4515.3938 34.7647,-4516.1055 35.2042,-4516.5450
C35.6437,-4516.9845 36.3555,-4516.9845 36.7950,-4516.5450
L59.2950,-4494.0450
C59.7345,-4493.6055 59.7345,-4492.8938 59.2950,-4492.4543
C59.0760,-4492.2345 58.7887,-4492.1250 58.5000,-4492.1250
Z" 
style="fill-rule: evenodd; fill: #000000; "/>
<path d=" 
M41.6250,-4493.2500
C41.3378,-4493.2500 41.0490,-4493.3595 40.8292,-4493.5793
L27.3293,-4507.0793
C26.8898,-4507.5188 26.8898,-4508.2305 27.3293,-4508.6700
C27.7688,-4509.1095 28.4805,-4509.1095 28.9200,-4508.6700
L42.4200,-4495.1700
C42.8595,-4494.7305 42.8595,-4494.0188 42.4200,-4493.5793
C42.2010,-4493.3595 41.9138,-4493.2500 41.6250,-4493.2500
Z" 
style="fill-rule: evenodd; fill: #000000; "/>
<path d=" 
M39.3750,-4479.7500
C39.0870,-4479.7500 38.7990,-4479.8595 38.5792,-4480.0793
L19.4543,-4499.2043
C19.0148,-4499.6438 19.0148,-4500.3555 19.4543,-4500.7950
C19.8938,-4501.2345 20.6055,-4501.2345 21.0450,-4500.7950
L40.1700,-4481.6700
C40.6095,-4481.2305 40.6095,-4480.5188 40.1700,-4480.0793
C39.9510,-4479.8595 39.6630,-4479.7500 39.3750,-4479.7500
Z" 
style="fill-rule: evenodd; fill: #000000; "/>
<text x="0.0000" y="-4458.1845">
<tspan font-family="Arial Narrow" font-weight="bold" font-size="12.0000" fill="#000000" fill-opacity="1.0000" stroke-opacity="1.0000" >
Tag</tspan>
</text>
</svg>
