<?xml version="1.0" encoding="UTF-8" standalone="no"?>
<svg version="1.1" xmlns="http://www.w3.org/2000/svg" xmlns:xlink="http://www.w3.org/1999/xlink" width="1.3125in" height="2.1653in" viewBox="0 0 94.5000 155.9000" >
<path d=" 
M46.9000,53.4000
C45.7000,53.4000 44.7000,53.8000 43.8000,54.5000
L23.7000,41.2000
C22.9000,40.7000 21.9000,40.9000 21.4000,41.7000
C20.9000,42.5000 21.1000,43.5000 21.9000,44.0000
L42.0000,57.2000
C41.9000,57.6000 41.8000,58.0000 41.8000,58.4000
C41.8000,61.2000 44.1000,63.5000 46.9000,63.5000
C49.7000,63.5000 52.0000,61.2000 52.0000,58.4000
C52.0000,55.6000 49.7000,53.4000 46.9000,53.4000
Z" 
style="fill-rule: evenodd; fill: #000000; "/>
<path d=" 
M75.9000,21.7000
L77.6000,19.0000
C78.3000,19.3000 79.0000,19.1000 79.4000,18.4000
L79.6000,18.1000
C80.0000,17.4000 79.8000,16.4999 79.1000,16.0000
L75.6000,13.8000
C74.9000,13.4000 74.0000,13.6000 73.5000,14.3000
L73.3000,14.6000
C72.9000,15.2001 73.1000,16.0000 73.6000,16.4999
L72.1000,19.0000
C66.1000,15.1000 59.1000,12.6000 51.6000,11.9000
L51.6000,6.8000
L53.2000,6.8000
C54.6000,6.8000 55.8000,5.6000 55.8000,4.2000
L55.8000,2.6000
C55.8000,1.2000 54.6000,0.0000 53.2000,0.0000
L40.6000,0.0000
C39.2000,0.0000 38.0000,1.2000 38.0000,2.6000
L38.0000,4.2000
C38.0000,5.6000 39.2000,6.8000 40.6000,6.8000
L42.2000,6.8000
L42.2000,11.9000
C18.5000,14.2000 0.0000,34.3000 0.0000,58.5000
C0.0000,84.4000 21.0000,105.4000 46.9000,105.4000
C72.8000,105.4000 93.8000,84.4000 93.8000,58.5000
C93.8000,43.6000 86.8000,30.3000 75.9000,21.7000
Z
M46.9000,102.0000
C22.9000,102.0000 3.4000,82.5000 3.4000,58.5000
C3.4000,34.4999 22.9000,15.0000 46.9000,15.0000
C70.9000,15.0000 90.4000,34.4999 90.4000,58.5000
C90.4000,82.5000 70.9000,102.0000 46.9000,102.0000
Z" 
style="fill-rule: evenodd; fill: #000000; "/>
<text x="4.0000" y="135.6500">
<tspan font-family="Arial Narrow" font-weight="bold" font-size="12.0000" fill="#000000" fill-opacity="1.0000" stroke-opacity="1.0000" >
Time</tspan>
</text>
</svg>
