<?xml version="1.0" encoding="UTF-8" standalone="no"?>
<svg version="1.1" xmlns="http://www.w3.org/2000/svg" xmlns:xlink="http://www.w3.org/1999/xlink" width="1.5028in" height="2.2278in" viewBox="0 0 108.2000 160.4000" >
<path d=" 
M103.1000,108.2000
L5.1000,108.2000
C2.3000,108.2000 0.0000,105.9000 0.0000,103.1000
L0.0000,5.1000
C0.0000,2.3000 2.3000,0.0000 5.1000,0.0000
L103.1000,0.0000
C105.9000,0.0000 108.2000,2.3000 108.2000,5.1000
L108.2000,103.1000
C108.2000,105.9000 105.9000,108.2000 103.1000,108.2000
Z
M5.1000,3.4000
C4.2000,3.4000 3.4000,4.2000 3.4000,5.1000
L3.4000,103.1000
C3.4000,104.0000 4.2000,104.8000 5.1000,104.8000
L103.1000,104.8000
C104.0000,104.8000 104.8000,104.0000 104.8000,103.1000
L104.8000,5.1000
C104.8000,4.2000 104.0000,3.4000 103.1000,3.4000
L5.1000,3.4000
Z" 
style="fill-rule: evenodd; fill: #000000; "/>
<path d=" 
M93.1000,50.4000
C90.7000,31.0000 74.1000,16.0000 54.1000,16.0000
C34.1000,16.0000 17.5000,31.0000 15.1000,50.4000
C14.8000,53.0000 16.8000,55.3000 19.4000,55.3000
L88.8000,55.3000
C91.4000,55.3000 93.4000,53.0000 93.1000,50.4000
Z
M62.8000,51.9000
L45.3000,51.9000
C46.1000,47.8000 49.7000,44.7000 54.1000,44.7000
C58.5000,44.7000 62.0000,47.8000 62.8000,51.9000
Z
M89.5000,51.6000
C89.4000,51.7000 89.2000,51.9000 88.8000,51.9000
L66.3000,51.9000
C65.8000,48.5000 63.9000,45.5000 61.2000,43.6000
L65.9000,37.0000
C66.4000,36.2000 66.3000,35.2000 65.5000,34.6000
C64.7000,34.1000 63.7000,34.2000 63.1000,35.0000
L58.1000,42.0000
C56.8000,41.6000 55.5000,41.3000 54.0000,41.3000
C47.8000,41.3000 42.7000,45.9000 41.8000,51.9000
L19.4000,51.9000
C19.0000,51.9000 18.8000,51.7000 18.7000,51.6000
C18.6000,51.5000 18.4000,51.2000 18.5000,50.8000
C18.7000,49.2000 19.0000,47.7000 19.4000,46.2000
L24.1000,47.5000
C24.4000,47.6000 24.7000,47.4000 24.8000,47.1000
L25.0000,46.4000
C25.1000,46.1000 24.9000,45.8000 24.6000,45.7000
L19.8000,44.4000
C21.0000,40.8000 22.7000,37.4000 24.9000,34.4000
L28.9000,37.2000
C29.1000,37.4000 29.5000,37.3000 29.7000,37.1000
L30.1000,36.5000
C30.3000,36.3000 30.2000,35.9000 30.0000,35.7000
L26.0000,33.0000
C28.4000,30.0000 31.3000,27.4000 34.5000,25.3000
L36.8000,29.4000
C37.0000,29.7000 37.3000,29.7000 37.5000,29.6000
L38.2000,29.2000
C38.5000,29.0000 38.5000,28.7000 38.4000,28.5000
L36.0000,24.4000
C39.2000,22.5000 42.8000,21.1000 46.6000,20.3000
L47.3000,24.8000
C47.3000,25.1000 47.6000,25.3000 47.9000,25.3000
L48.7000,25.2000
C49.0000,25.2000 49.2000,24.9000 49.2000,24.6000
L48.5000,20.0000
C50.3000,19.7000 52.2000,19.5000 54.1000,19.5000
C56.0000,19.5000 57.9000,19.7000 59.7000,20.0000
L59.0000,24.4000
C59.0000,24.5000 59.0000,24.7000 59.1000,24.8000
C59.2000,24.9000 59.3000,25.0000 59.5000,25.0000
L60.3000,25.1000
C60.6000,25.1000 60.9000,24.9000 60.9000,24.6000
L61.6000,20.1000
C65.4000,20.9000 68.9000,22.3000 72.2000,24.2000
L69.8000,28.3000
C69.6000,28.6000 69.7000,28.9000 70.0000,29.0000
L70.7000,29.4000
C70.8000,29.5000 71.0000,29.5000 71.1000,29.5000
C71.2000,29.5000 71.4000,29.4000 71.4000,29.2000
L73.7000,25.1000
C76.9000,27.2000 79.8000,29.8000 82.2000,32.8000
L78.2000,35.5000
C78.0000,35.7000 78.0000,35.8000 77.9000,36.0000
C77.9000,36.1000 77.9000,36.3000 78.0000,36.4000
L78.4000,37.0000
C78.5000,37.1000 78.6000,37.2000 78.7000,37.2000
C78.8000,37.2000 79.0000,37.2000 79.1000,37.1000
L83.1000,34.3000
C85.3000,37.3000 87.0000,40.7000 88.2000,44.3000
L83.4000,45.6000
C83.3000,45.6000 83.1000,45.7000 83.1000,45.9000
C83.0000,46.0000 83.0000,46.2000 83.1000,46.3000
L83.3000,47.0000
C83.4000,47.3000 83.7000,47.5000 84.0000,47.4000
L88.7000,46.1000
C89.1000,47.6000 89.4000,49.1000 89.6000,50.7000
C89.8000,51.2000 89.6000,51.4000 89.5000,51.6000
Z" 
style="fill-rule: evenodd; fill: #000000; "/>
<text x="4.0000" y="140.1500">
<tspan font-family="Arial Narrow" font-weight="bold" font-size="12.0000" fill="#000000" fill-opacity="1.0000" stroke-opacity="1.0000" >
Value</tspan>
</text>
</svg>
