<?xml version="1.0" encoding="UTF-8" standalone="no"?>
<svg version="1.1" xmlns="http://www.w3.org/2000/svg" xmlns:xlink="http://www.w3.org/1999/xlink" width="0.8438in" height="1.6562in" viewBox="0 0 60.7500 119.2500" >
<g id="Layer1100" >
<path d=" 
M12.7500,-4557.3752
C11.9370,-4557.3752 11.2500,-4556.6882 11.2500,-4555.8752
L11.2500,-4519.1252
L49.5000,-4519.1252
L49.5000,-4555.8752
C49.5000,-4556.6882 48.8130,-4557.3752 48.0000,-4557.3752
L12.7500,-4557.3752
Z
M7.8750,-4456.1252
C5.4413,-4456.1252 3.3240,-4457.4962 2.2500,-4459.5062
L2.2500,-4446.3752
C2.2500,-4444.3067 3.9323,-4442.6252 6.0000,-4442.6252
L54.7500,-4442.6252
C56.8185,-4442.6252 58.5000,-4444.3067 58.5000,-4446.3752
L58.5000,-4459.5062
C57.4260,-4457.4962 55.3080,-4456.1252 52.8750,-4456.1252
L7.8750,-4456.1252
Z
M6.0000,-4516.8752
C3.9323,-4516.8752 2.2500,-4515.1929 2.2500,-4513.1252
L2.2500,-4462.5002
C2.2500,-4459.3974 4.7738,-4456.8752 7.8750,-4456.8752
L52.8750,-4456.8752
C55.9763,-4456.8752 58.5000,-4459.3974 58.5000,-4462.5002
L58.5000,-4513.1252
C58.5000,-4515.1929 56.8185,-4516.8752 54.7500,-4516.8752
L6.0000,-4516.8752
Z" 
style="stroke-width: 0.7200; stroke-linecap: round; stroke-linejoin: round; fill-rule: evenodd; fill: #ffffff; "/>
<path d=" 
M12.7500,-4557.3752
C11.9370,-4557.3752 11.2500,-4556.6882 11.2500,-4555.8752
L11.2500,-4519.1252
L49.5000,-4519.1252
L49.5000,-4555.8752
C49.5000,-4556.6882 48.8130,-4557.3752 48.0000,-4557.3752
L12.7500,-4557.3752
Z
M7.8750,-4456.1252
C5.4413,-4456.1252 3.3240,-4457.4962 2.2500,-4459.5062
L2.2500,-4446.3752
C2.2500,-4444.3067 3.9323,-4442.6252 6.0000,-4442.6252
L54.7500,-4442.6252
C56.8185,-4442.6252 58.5000,-4444.3067 58.5000,-4446.3752
L58.5000,-4459.5062
C57.4260,-4457.4962 55.3080,-4456.1252 52.8750,-4456.1252
L7.8750,-4456.1252
Z
M6.0000,-4516.8752
C3.9323,-4516.8752 2.2500,-4515.1929 2.2500,-4513.1252
L2.2500,-4462.5002
C2.2500,-4459.3974 4.7738,-4456.8752 7.8750,-4456.8752
L52.8750,-4456.8752
C55.9763,-4456.8752 58.5000,-4459.3974 58.5000,-4462.5002
L58.5000,-4513.1252
C58.5000,-4515.1929 56.8185,-4516.8752 54.7500,-4516.8752
L6.0000,-4516.8752
Z" 
style="stroke-width: 0.7200; stroke: #ffffff; stroke-dasharray: none; stroke-linecap: round; stroke-linejoin: round; fill: none; "/>
</g>
<path d=" 
M9.0301,-4451.1153
C7.7874,-4451.1153 6.7801,-4450.1073 6.7801,-4448.8653
C6.7801,-4447.6233 7.7874,-4446.6153 9.0301,-4446.6153
C8.2029,-4446.6153 7.5301,-4447.2873 7.5301,-4448.1153
C7.5301,-4448.9433 8.2021,-4449.6153 9.0301,-4449.6153
C9.8581,-4449.6153 10.5301,-4448.9433 10.5301,-4448.1153
C10.5301,-4447.2873 9.8581,-4446.6153 9.0301,-4446.6153
C10.2729,-4446.6153 11.2801,-4447.6233 11.2801,-4448.8653
C11.2801,-4450.1073 10.2729,-4451.1153 9.0301,-4451.1153
Z" 
style="fill-rule: evenodd; fill: #000000; "/>
<path d=" 
M33.7801,-4498.3653
L15.7801,-4498.3653
L13.5301,-4500.6153
L33.7801,-4500.6153
L33.7801,-4498.3653
Z" 
style="fill-rule: evenodd; fill: #000000; "/>
<path d=" 
M38.2801,-4491.6153
L9.0301,-4491.6153
L6.7801,-4493.8653
L38.2801,-4493.8653
L38.2801,-4491.6153
Z" 
style="fill-rule: evenodd; fill: #000000; "/>
<path d=" 
M45.0301,-4484.8653
L15.7801,-4484.8653
L13.5301,-4487.1153
L45.0301,-4487.1153
L45.0301,-4484.8653
Z" 
style="fill-rule: evenodd; fill: #000000; "/>
<path d=" 
M40.5301,-4478.1153
L11.2801,-4478.1153
L9.0301,-4480.3653
L40.5301,-4480.3653
L40.5301,-4478.1153
Z" 
style="fill-rule: evenodd; fill: #000000; "/>
<path d=" 
M33.7801,-4471.3653
L18.0301,-4471.3653
L15.7801,-4473.6153
L33.7801,-4473.6153
L33.7801,-4471.3653
Z" 
style="fill-rule: evenodd; fill: #000000; "/>
<path d=" 
M33.5544,-4466.8653
L36.5949,-4466.8653
L53.9791,-4485.9903
L36.5949,-4505.1153
L33.5544,-4505.1153
L50.9379,-4485.9903
L33.5544,-4466.8653
Z" 
style="fill-rule: evenodd; fill: #000000; "/>
<path d=" 
M43.2459,-4528.0810
L36.4959,-4534.8310
L33.3144,-4531.6495
L40.0644,-4524.8995
L38.2801,-4523.1153
L45.0301,-4523.1153
L45.0301,-4529.8653
L43.2459,-4528.0810
Z" 
style="fill-rule: evenodd; fill: #000000; "/>
<path d=" 
M27.4959,-4543.8310
L20.7459,-4550.5810
L22.5301,-4552.3653
L15.7801,-4552.3653
L15.7801,-4545.6153
L17.5644,-4547.3995
L24.3144,-4540.6495
L27.4959,-4543.8310
Z" 
style="fill-rule: evenodd; fill: #000000; "/>
<path d=" 
M27.4959,-4531.6495
L24.3144,-4534.8310
L17.5636,-4528.0818
L15.7801,-4529.8653
L15.7801,-4523.1153
L22.5301,-4523.1153
L20.7459,-4524.8995
L27.4959,-4531.6495
Z" 
style="fill-rule: evenodd; fill: #000000; "/>
<path d=" 
M45.0301,-4552.3653
L38.2801,-4552.3653
L40.0644,-4550.5810
L33.3144,-4543.8310
L36.4959,-4540.6495
L43.2459,-4547.3995
L45.0301,-4545.6153
L45.0301,-4552.3653
Z" 
style="fill-rule: evenodd; fill: #000000; "/>
<path d=" 
M54.7801,-4518.6153
L51.7801,-4518.6153
L51.7801,-4555.3653
C51.7801,-4557.4278 50.0926,-4559.1153 48.0301,-4559.1153
L12.7801,-4559.1153
C10.7176,-4559.1153 9.0301,-4557.4278 9.0301,-4555.3653
L9.0301,-4518.6153
L6.0301,-4518.6153
C2.7309,-4518.6153 0.0301,-4515.9145 0.0301,-4512.6153
L0.0301,-4445.8653
C0.0301,-4442.5660 2.7309,-4439.8653 6.0301,-4439.8653
L54.7801,-4439.8653
C58.0794,-4439.8653 60.7801,-4442.5660 60.7801,-4445.8653
L60.7801,-4512.6153
C60.7801,-4515.9145 58.0794,-4518.6153 54.7801,-4518.6153
Z
M11.2801,-4555.3653
C11.2801,-4556.1783 11.9671,-4556.8653 12.7801,-4556.8653
L48.0301,-4556.8653
C48.8431,-4556.8653 49.5301,-4556.1783 49.5301,-4555.3653
L49.5301,-4518.6153
L11.2801,-4518.6153
L11.2801,-4555.3653
Z
M58.5301,-4445.8653
C58.5301,-4443.7968 56.8486,-4442.1153 54.7801,-4442.1153
L6.0301,-4442.1153
C3.9624,-4442.1153 2.2801,-4443.7968 2.2801,-4445.8653
L2.2801,-4458.9963
C3.3541,-4456.9863 5.4714,-4455.6153 7.9051,-4455.6153
L52.9051,-4455.6153
C55.3381,-4455.6153 57.4561,-4456.9863 58.5301,-4458.9963
L58.5301,-4445.8653
Z
M58.5301,-4461.9903
C58.5301,-4458.8875 56.0064,-4456.3653 52.9051,-4456.3653
L7.9051,-4456.3653
C4.8039,-4456.3653 2.2801,-4458.8875 2.2801,-4461.9903
L2.2801,-4512.6153
C2.2801,-4514.6830 3.9624,-4516.3653 6.0301,-4516.3653
L54.7801,-4516.3653
C56.8486,-4516.3653 58.5301,-4514.6830 58.5301,-4512.6153
L58.5301,-4461.9903
Z" 
style="fill-rule: evenodd; fill: #000000; "/>
<text x="-5.2650" y="-4439.8653">
<tspan font-family="Arial Narrow" font-weight="bold" font-size="12.0000" fill="#000000" fill-opacity="1.0000" stroke-opacity="1.0000" >
Forwarder With Router</tspan>
</text>
</svg>
