<?xml version="1.0" encoding="UTF-8" standalone="no"?>
<svg version="1.1" xmlns="http://www.w3.org/2000/svg" xmlns:xlink="http://www.w3.org/1999/xlink" width="0.9688in" height="1.2188in" viewBox="0 0 69.7500 87.7500" >
<g id="Layer1052" >
<path d=" 
M41.6298,-4473.7501
C44.5141,-4477.4045 48.9831,-4479.7501 54.0000,-4479.7501
C55.5600,-4479.7501 57.0630,-4479.5154 58.4850,-4479.0924
C58.4903,-4479.1869 58.5000,-4479.2799 58.5000,-4479.3751
L58.5000,-4530.0001
C58.5000,-4532.0679 56.8185,-4533.7501 54.7500,-4533.7501
L6.0000,-4533.7501
C3.9323,-4533.7501 2.2500,-4532.0679 2.2500,-4530.0001
L2.2500,-4479.3751
C2.2500,-4476.2724 4.7738,-4473.7501 7.8750,-4473.7501
L41.6298,-4473.7501
Z
M38.2500,-4464.0001
C38.2500,-4467.3464 39.2936,-4470.4490 41.0730,-4473.0001
L7.8750,-4473.0001
C5.4413,-4473.0001 3.3240,-4474.3711 2.2500,-4476.3811
L2.2500,-4463.2501
C2.2500,-4461.1816 3.9323,-4459.5001 6.0000,-4459.5001
L38.9108,-4459.5001
C38.4855,-4460.9266 38.2500,-4462.4356 38.2500,-4464.0001
Z
M67.5000,-4464.0002
A13.5000,13.5000 180.0000 1,1 54.0000,-4477.5002
A13.5000,13.5000 180.0000 0,1 67.5000,-4464.0002
Z" 
style="stroke-width: 0.7200; stroke-linecap: round; stroke-linejoin: round; fill-rule: evenodd; fill: #ffffff; "/>
<path d=" 
M41.6298,-4473.7501
C44.5141,-4477.4045 48.9831,-4479.7501 54.0000,-4479.7501
C55.5600,-4479.7501 57.0630,-4479.5154 58.4850,-4479.0924
C58.4903,-4479.1869 58.5000,-4479.2799 58.5000,-4479.3751
L58.5000,-4530.0001
C58.5000,-4532.0679 56.8185,-4533.7501 54.7500,-4533.7501
L6.0000,-4533.7501
C3.9323,-4533.7501 2.2500,-4532.0679 2.2500,-4530.0001
L2.2500,-4479.3751
C2.2500,-4476.2724 4.7738,-4473.7501 7.8750,-4473.7501
L41.6298,-4473.7501
Z
M38.2500,-4464.0001
C38.2500,-4467.3464 39.2936,-4470.4490 41.0730,-4473.0001
L7.8750,-4473.0001
C5.4413,-4473.0001 3.3240,-4474.3711 2.2500,-4476.3811
L2.2500,-4463.2501
C2.2500,-4461.1816 3.9323,-4459.5001 6.0000,-4459.5001
L38.9108,-4459.5001
C38.4855,-4460.9266 38.2500,-4462.4356 38.2500,-4464.0001
Z
M67.5000,-4464.0002
A13.5000,13.5000 180.0000 1,1 54.0000,-4477.5002
A13.5000,13.5000 180.0000 0,1 67.5000,-4464.0002
Z" 
style="stroke-width: 0.7200; stroke: #ffffff; stroke-dasharray: none; stroke-linecap: round; stroke-linejoin: round; fill: none; "/>
</g>
<path d=" 
M9.0000,-4468.5000
C7.7573,-4468.5000 6.7500,-4467.4920 6.7500,-4466.2500
C6.7500,-4465.0080 7.7573,-4464.0000 9.0000,-4464.0000
C8.1728,-4464.0000 7.5000,-4464.6720 7.5000,-4465.5000
C7.5000,-4466.3280 8.1720,-4467.0000 9.0000,-4467.0000
C9.8280,-4467.0000 10.5000,-4466.3280 10.5000,-4465.5000
C10.5000,-4464.6720 9.8280,-4464.0000 9.0000,-4464.0000
C10.2428,-4464.0000 11.2500,-4465.0080 11.2500,-4466.2500
C11.2500,-4467.4920 10.2428,-4468.5000 9.0000,-4468.5000
Z" 
style="fill-rule: evenodd; fill: #000000; "/>
<path d=" 
M60.7417,-4478.2177
C60.7440,-4478.2163 60.7470,-4478.2148 60.7500,-4478.2140
L60.7500,-4530.0000
C60.7500,-4533.2993 58.0493,-4536.0000 54.7500,-4536.0000
L6.0000,-4536.0000
C2.7008,-4536.0000 0.0000,-4533.2993 0.0000,-4530.0000
L0.0000,-4463.2500
C0.0000,-4459.9507 2.7008,-4457.2500 6.0000,-4457.2500
L39.7860,-4457.2500
C39.7853,-4457.2530 39.7837,-4457.2560 39.7823,-4457.2582
C42.3105,-4451.9378 47.7180,-4448.2500 54.0000,-4448.2500
C62.6985,-4448.2500 69.7500,-4455.3015 69.7500,-4464.0000
C69.7500,-4470.2820 66.0622,-4475.6895 60.7417,-4478.2177
Z
M6.0000,-4459.5000
C3.9323,-4459.5000 2.2500,-4461.1815 2.2500,-4463.2500
L2.2500,-4476.3810
C3.3240,-4474.3710 5.4412,-4473.0000 7.8750,-4473.0000
L41.0850,-4473.0000
C41.2642,-4473.2565 41.4525,-4473.5055 41.6460,-4473.7500
L7.8750,-4473.7500
C4.7738,-4473.7500 2.2500,-4476.2722 2.2500,-4479.3750
L2.2500,-4530.0000
C2.2500,-4532.0678 3.9323,-4533.7500 6.0000,-4533.7500
L54.7500,-4533.7500
C56.8185,-4533.7500 58.5000,-4532.0678 58.5000,-4530.0000
L58.5000,-4479.3750
C58.5000,-4479.2797 58.4903,-4479.1868 58.4850,-4479.0922
C57.0630,-4479.5153 55.5600,-4479.7500 54.0000,-4479.7500
C45.3015,-4479.7500 38.2500,-4472.6985 38.2500,-4464.0000
C38.2500,-4462.4355 38.4855,-4460.9265 38.9107,-4459.5000
L6.0000,-4459.5000
Z
M54.0000,-4450.5000
C46.5555,-4450.5000 40.5000,-4456.5555 40.5000,-4464.0000
C40.5000,-4471.4445 46.5555,-4477.5000 54.0000,-4477.5000
C61.4445,-4477.5000 67.5000,-4471.4445 67.5000,-4464.0000
C67.5000,-4456.5555 61.4445,-4450.5000 54.0000,-4450.5000
Z" 
style="fill-rule: evenodd; fill: #000000; "/>
<path d=" 
M60.2332,-4468.2127
C59.5530,-4469.0610 58.6380,-4469.9092 57.2287,-4469.9092
C56.2432,-4469.9092 55.4212,-4468.9440 54.0585,-4468.9440
C52.9792,-4468.9440 52.5337,-4469.8628 51.3600,-4469.8628
C48.9172,-4469.8628 46.5000,-4467.6713 46.5000,-4464.8190
C46.5000,-4463.3115 46.9927,-4460.9783 48.0967,-4458.9510
C48.8947,-4457.4667 49.8810,-4456.5000 50.9842,-4456.5000
C51.7822,-4456.5000 52.7212,-4457.2312 53.8477,-4457.2312
C54.8332,-4457.2312 55.7490,-4456.5712 56.6415,-4456.5712
C58.7790,-4456.5712 60.7507,-4459.3522 60.7507,-4461.2137
C60.7507,-4461.3075 60.7275,-4461.3780 60.7275,-4461.4477
L60.7275,-4461.5662
C59.3415,-4462.3207 58.5907,-4463.4277 58.5907,-4465.0305
C58.5907,-4466.3273 59.1540,-4467.4575 60.1867,-4468.1888
L60.2332,-4468.2127
Z" 
style="fill-rule: evenodd; fill: #000000; "/>
<path d=" 
M54.0112,-4469.2485
C55.6072,-4469.7435 57.0870,-4470.9457 57.0870,-4473.0427
C57.0870,-4473.2085 57.0622,-4473.4207 57.0405,-4473.6562
L57.0157,-4473.7500
C55.3957,-4473.3015 53.9392,-4472.0302 53.9392,-4470.0262
C53.9392,-4469.8372 53.9625,-4469.6017 54.0105,-4469.3422
L54.0105,-4469.2485
L54.0112,-4469.2485
Z" 
style="fill-rule: evenodd; fill: #000000; "/>
<path d=" 
M33.7500,-4515.7500
L15.7500,-4515.7500
L13.5000,-4518.0000
L33.7500,-4518.0000
L33.7500,-4515.7500
Z" 
style="fill-rule: evenodd; fill: #000000; "/>
<path d=" 
M38.2500,-4509.0000
L9.0000,-4509.0000
L6.7500,-4511.2500
L38.2500,-4511.2500
L38.2500,-4509.0000
Z" 
style="fill-rule: evenodd; fill: #000000; "/>
<path d=" 
M45.0000,-4502.2500
L15.7500,-4502.2500
L13.5000,-4504.5000
L45.0000,-4504.5000
L45.0000,-4502.2500
Z" 
style="fill-rule: evenodd; fill: #000000; "/>
<path d=" 
M40.5000,-4495.5000
L11.2500,-4495.5000
L9.0000,-4497.7500
L40.5000,-4497.7500
L40.5000,-4495.5000
Z" 
style="fill-rule: evenodd; fill: #000000; "/>
<path d=" 
M33.7500,-4488.7500
L18.0000,-4488.7500
L15.7500,-4491.0000
L33.7500,-4491.0000
L33.7500,-4488.7500
Z" 
style="fill-rule: evenodd; fill: #000000; "/>
<path d=" 
M33.5250,-4484.2500
L36.5647,-4484.2500
L53.9490,-4503.3750
L36.5647,-4522.5000
L33.5250,-4522.5000
L50.9078,-4503.3750
L33.5250,-4484.2500
Z" 
style="fill-rule: evenodd; fill: #000000; "/>
<text x="0.0000" y="-4448.2500">
<tspan font-family="Arial Narrow" font-weight="bold" font-size="12.0000" fill="#000000" fill-opacity="1.0000" stroke-opacity="1.0000" >
Forwarder, Mac</tspan>
</text>
</svg>
