<?xml version="1.0" encoding="UTF-8" standalone="no"?>
<svg version="1.1" xmlns="http://www.w3.org/2000/svg" xmlns:xlink="http://www.w3.org/1999/xlink" width="0.9688in" height="1.3125in" viewBox="0 0 69.7500 94.5000" >
<g id="Layer1056" >
<path d=" 
M65.2500,-4466.5948
L65.2500,-4476.3809
C64.1760,-4474.3709 62.0580,-4472.9999 59.6250,-4472.9999
L58.5000,-4472.9999
L58.5000,-4473.7499
L59.6250,-4473.7499
C62.7262,-4473.7499 65.2500,-4476.2721 65.2500,-4479.3749
L65.2500,-4529.9999
C65.2500,-4532.0676 63.5685,-4533.7499 61.5000,-4533.7499
L12.7500,-4533.7499
C10.6822,-4533.7499 9.0000,-4532.0676 9.0000,-4529.9999
L9.0000,-4526.9999
L6.0000,-4526.9999
C3.9322,-4526.9999 2.2500,-4525.3176 2.2500,-4523.2499
L2.2500,-4472.6249
C2.2500,-4469.5221 4.7737,-4466.9999 7.8750,-4466.9999
L9.0000,-4466.9999
L9.0000,-4466.2499
L7.8750,-4466.2499
C5.4412,-4466.2499 3.3240,-4467.6209 2.2500,-4469.6309
L2.2500,-4456.4999
C2.2500,-4454.4314 3.9322,-4452.7499 6.0000,-4452.7499
L40.0845,-4452.7499
A14.6250,14.6250 0.0000 1,0 65.2500,-4466.5948
Z" 
style="stroke-width: 0.7200; stroke-linecap: round; stroke-linejoin: round; fill-rule: evenodd; fill: #ffffff; "/>
<path d=" 
M65.2500,-4466.5948
L65.2500,-4476.3809
C64.1760,-4474.3709 62.0580,-4472.9999 59.6250,-4472.9999
L58.5000,-4472.9999
L58.5000,-4473.7499
L59.6250,-4473.7499
C62.7262,-4473.7499 65.2500,-4476.2721 65.2500,-4479.3749
L65.2500,-4529.9999
C65.2500,-4532.0676 63.5685,-4533.7499 61.5000,-4533.7499
L12.7500,-4533.7499
C10.6822,-4533.7499 9.0000,-4532.0676 9.0000,-4529.9999
L9.0000,-4526.9999
L6.0000,-4526.9999
C3.9322,-4526.9999 2.2500,-4525.3176 2.2500,-4523.2499
L2.2500,-4472.6249
C2.2500,-4469.5221 4.7737,-4466.9999 7.8750,-4466.9999
L9.0000,-4466.9999
L9.0000,-4466.2499
L7.8750,-4466.2499
C5.4412,-4466.2499 3.3240,-4467.6209 2.2500,-4469.6309
L2.2500,-4456.4999
C2.2500,-4454.4314 3.9322,-4452.7499 6.0000,-4452.7499
L40.0845,-4452.7499
A14.6250,14.6250 0.0000 1,0 65.2500,-4466.5948
Z" 
style="stroke-width: 0.7200; stroke: #ffffff; stroke-dasharray: none; stroke-linecap: round; stroke-linejoin: round; fill: none; "/>
</g>
<path d=" 
M9.0000,-4461.7500
C7.7573,-4461.7500 6.7500,-4460.7420 6.7500,-4459.5000
C6.7500,-4458.2580 7.7573,-4457.2500 9.0000,-4457.2500
C8.1728,-4457.2500 7.5000,-4457.9220 7.5000,-4458.7500
C7.5000,-4459.5780 8.1720,-4460.2500 9.0000,-4460.2500
C9.8280,-4460.2500 10.5000,-4459.5780 10.5000,-4458.7500
C10.5000,-4457.9220 9.8280,-4457.2500 9.0000,-4457.2500
C10.2428,-4457.2500 11.2500,-4458.2580 11.2500,-4459.5000
C11.2500,-4460.7420 10.2428,-4461.7500 9.0000,-4461.7500
Z" 
style="fill-rule: evenodd; fill: #000000; "/>
<path d=" 
M33.7500,-4509.0000
L15.7500,-4509.0000
L13.5000,-4511.2500
L33.7500,-4511.2500
L33.7500,-4509.0000
Z" 
style="fill-rule: evenodd; fill: #000000; "/>
<path d=" 
M38.2500,-4502.2500
L9.0000,-4502.2500
L6.7500,-4504.5000
L38.2500,-4504.5000
L38.2500,-4502.2500
Z" 
style="fill-rule: evenodd; fill: #000000; "/>
<path d=" 
M45.0000,-4495.5000
L15.7500,-4495.5000
L13.5000,-4497.7500
L45.0000,-4497.7500
L45.0000,-4495.5000
Z" 
style="fill-rule: evenodd; fill: #000000; "/>
<path d=" 
M40.5000,-4488.7500
L11.2500,-4488.7500
L9.0000,-4491.0000
L40.5000,-4491.0000
L40.5000,-4488.7500
Z" 
style="fill-rule: evenodd; fill: #000000; "/>
<path d=" 
M33.7500,-4482.0000
L18.0000,-4482.0000
L15.7500,-4484.2500
L33.7500,-4484.2500
L33.7500,-4482.0000
Z" 
style="fill-rule: evenodd; fill: #000000; "/>
<path d=" 
M33.5250,-4477.5000
L36.5647,-4477.5000
L53.9490,-4496.6250
L36.5647,-4515.7500
L33.5250,-4515.7500
L50.9078,-4496.6250
L33.5250,-4477.5000
Z" 
style="fill-rule: evenodd; fill: #000000; "/>
<path d=" 
M67.4993,-4465.3327
C67.5000,-4465.3320 67.5000,-4465.3313 67.5000,-4465.3313
L67.5000,-4530.0000
C67.5000,-4533.2992 64.7992,-4536.0000 61.5000,-4536.0000
L12.7500,-4536.0000
C9.4507,-4536.0000 6.7500,-4533.2992 6.7500,-4530.0000
L6.7500,-4529.2500
L6.0000,-4529.2500
C2.7008,-4529.2500 0.0000,-4526.5492 0.0000,-4523.2500
L0.0000,-4456.5000
C0.0000,-4453.2007 2.7008,-4450.5000 6.0000,-4450.5000
L39.7860,-4450.5000
C39.7853,-4450.5030 39.7837,-4450.5060 39.7823,-4450.5082
C42.3105,-4445.1878 47.7180,-4441.5000 54.0000,-4441.5000
C62.6985,-4441.5000 69.7500,-4448.5515 69.7500,-4457.2500
C69.7500,-4460.2087 68.9190,-4462.9673 67.4993,-4465.3327
Z
M60.7417,-4471.4678
C60.7440,-4471.4662 60.7470,-4471.4648 60.7500,-4471.4640
L60.7500,-4473.1110
C62.6985,-4473.4613 64.3462,-4474.6890 65.2500,-4476.3802
L65.2500,-4468.2615
C63.9570,-4469.5823 62.4300,-4470.6653 60.7417,-4471.4678
Z
M9.0000,-4530.0000
C9.0000,-4532.0678 10.6823,-4533.7500 12.7500,-4533.7500
L61.5000,-4533.7500
C63.5685,-4533.7500 65.2500,-4532.0678 65.2500,-4530.0000
L65.2500,-4479.3750
C65.2500,-4476.6577 63.3143,-4474.3860 60.7500,-4473.8633
L60.7500,-4523.2500
C60.7500,-4526.5492 58.0493,-4529.2500 54.7500,-4529.2500
L9.0000,-4529.2500
L9.0000,-4530.0000
Z
M6.0000,-4452.7500
C3.9323,-4452.7500 2.2500,-4454.4315 2.2500,-4456.5000
L2.2500,-4469.6310
C3.3240,-4467.6210 5.4412,-4466.2500 7.8750,-4466.2500
L41.0850,-4466.2500
C41.2642,-4466.5065 41.4525,-4466.7555 41.6460,-4467.0000
L7.8750,-4467.0000
C4.7738,-4467.0000 2.2500,-4469.5223 2.2500,-4472.6250
L2.2500,-4523.2500
C2.2500,-4525.3178 3.9323,-4527.0000 6.0000,-4527.0000
L54.7500,-4527.0000
C56.8185,-4527.0000 58.5000,-4525.3178 58.5000,-4523.2500
L58.5000,-4472.6250
C58.5000,-4472.5297 58.4903,-4472.4368 58.4850,-4472.3423
C57.0630,-4472.7653 55.5600,-4473.0000 54.0000,-4473.0000
C45.3015,-4473.0000 38.2500,-4465.9485 38.2500,-4457.2500
C38.2500,-4455.6855 38.4855,-4454.1765 38.9107,-4452.7500
L6.0000,-4452.7500
Z
M54.0000,-4443.7500
C46.5555,-4443.7500 40.5000,-4449.8055 40.5000,-4457.2500
C40.5000,-4464.6945 46.5555,-4470.7500 54.0000,-4470.7500
C61.4445,-4470.7500 67.5000,-4464.6945 67.5000,-4457.2500
C67.5000,-4449.8055 61.4445,-4443.7500 54.0000,-4443.7500
Z" 
style="fill-rule: evenodd; fill: #000000; "/>
<path d=" 
M60.2332,-4461.4628
C59.5530,-4462.3110 58.6380,-4463.1592 57.2287,-4463.1592
C56.2432,-4463.1592 55.4212,-4462.1940 54.0585,-4462.1940
C52.9792,-4462.1940 52.5337,-4463.1128 51.3600,-4463.1128
C48.9172,-4463.1128 46.5000,-4460.9213 46.5000,-4458.0690
C46.5000,-4456.5615 46.9927,-4454.2283 48.0967,-4452.2010
C48.8947,-4450.7168 49.8810,-4449.7500 50.9842,-4449.7500
C51.7822,-4449.7500 52.7212,-4450.4813 53.8477,-4450.4813
C54.8332,-4450.4813 55.7490,-4449.8212 56.6415,-4449.8212
C58.7790,-4449.8212 60.7507,-4452.6022 60.7507,-4454.4637
C60.7507,-4454.5575 60.7275,-4454.6280 60.7275,-4454.6978
L60.7275,-4454.8163
C59.3415,-4455.5707 58.5907,-4456.6777 58.5907,-4458.2805
C58.5907,-4459.5773 59.1540,-4460.7075 60.1867,-4461.4388
L60.2332,-4461.4628
Z" 
style="fill-rule: evenodd; fill: #000000; "/>
<path d=" 
M54.0112,-4462.4985
C55.6072,-4462.9935 57.0870,-4464.1957 57.0870,-4466.2927
C57.0870,-4466.4585 57.0622,-4466.6707 57.0405,-4466.9062
L57.0157,-4467.0000
C55.3957,-4466.5515 53.9392,-4465.2802 53.9392,-4463.2762
C53.9392,-4463.0872 53.9625,-4462.8517 54.0105,-4462.5923
L54.0105,-4462.4985
L54.0112,-4462.4985
Z" 
style="fill-rule: evenodd; fill: #000000; "/>
<text x="0.0000" y="-4441.5000">
<tspan font-family="Arial Narrow" font-weight="bold" font-size="12.0000" fill="#000000" fill-opacity="1.0000" stroke-opacity="1.0000" >
Forwarders, Mac</tspan>
</text>
</svg>
