<?xml version="1.0" encoding="UTF-8" standalone="no"?>
<svg version="1.1" xmlns="http://www.w3.org/2000/svg" xmlns:xlink="http://www.w3.org/1999/xlink" width="0.9688in" height="1.3125in" viewBox="0 0 69.7500 94.5000" >
<g id="Layer1057" >
<path d=" 
M65.2500,-4467.1573
L65.2500,-4476.9434
C64.1760,-4474.9334 62.0580,-4473.5624 59.6250,-4473.5624
L58.5000,-4473.5624
L58.5000,-4474.3124
L59.6250,-4474.3124
C62.7262,-4474.3124 65.2500,-4476.8346 65.2500,-4479.9374
L65.2500,-4530.5624
C65.2500,-4532.6301 63.5685,-4534.3124 61.5000,-4534.3124
L12.7500,-4534.3124
C10.6822,-4534.3124 9.0000,-4532.6301 9.0000,-4530.5624
L9.0000,-4527.5624
L6.0000,-4527.5624
C3.9322,-4527.5624 2.2500,-4525.8801 2.2500,-4523.8124
L2.2500,-4473.1874
C2.2500,-4470.0846 4.7737,-4467.5624 7.8750,-4467.5624
L9.0000,-4467.5624
L9.0000,-4466.8124
L7.8750,-4466.8124
C5.4412,-4466.8124 3.3240,-4468.1834 2.2500,-4470.1934
L2.2500,-4457.0624
C2.2500,-4454.9939 3.9322,-4453.3124 6.0000,-4453.3124
L40.0845,-4453.3124
A14.6250,14.6250 0.0000 1,0 65.2500,-4467.1573
Z" 
style="stroke-width: 0.7200; stroke-linecap: round; stroke-linejoin: round; fill-rule: evenodd; fill: #ffffff; "/>
<path d=" 
M65.2500,-4467.1573
L65.2500,-4476.9434
C64.1760,-4474.9334 62.0580,-4473.5624 59.6250,-4473.5624
L58.5000,-4473.5624
L58.5000,-4474.3124
L59.6250,-4474.3124
C62.7262,-4474.3124 65.2500,-4476.8346 65.2500,-4479.9374
L65.2500,-4530.5624
C65.2500,-4532.6301 63.5685,-4534.3124 61.5000,-4534.3124
L12.7500,-4534.3124
C10.6822,-4534.3124 9.0000,-4532.6301 9.0000,-4530.5624
L9.0000,-4527.5624
L6.0000,-4527.5624
C3.9322,-4527.5624 2.2500,-4525.8801 2.2500,-4523.8124
L2.2500,-4473.1874
C2.2500,-4470.0846 4.7737,-4467.5624 7.8750,-4467.5624
L9.0000,-4467.5624
L9.0000,-4466.8124
L7.8750,-4466.8124
C5.4412,-4466.8124 3.3240,-4468.1834 2.2500,-4470.1934
L2.2500,-4457.0624
C2.2500,-4454.9939 3.9322,-4453.3124 6.0000,-4453.3124
L40.0845,-4453.3124
A14.6250,14.6250 0.0000 1,0 65.2500,-4467.1573
Z" 
style="stroke-width: 0.7200; stroke: #ffffff; stroke-dasharray: none; stroke-linecap: round; stroke-linejoin: round; fill: none; "/>
</g>
<path d=" 
M9.0000,-4461.7500
C7.7573,-4461.7500 6.7500,-4460.7420 6.7500,-4459.5000
C6.7500,-4458.2580 7.7573,-4457.2500 9.0000,-4457.2500
C8.1728,-4457.2500 7.5000,-4457.9220 7.5000,-4458.7500
C7.5000,-4459.5780 8.1720,-4460.2500 9.0000,-4460.2500
C9.8280,-4460.2500 10.5000,-4459.5780 10.5000,-4458.7500
C10.5000,-4457.9220 9.8280,-4457.2500 9.0000,-4457.2500
C10.2428,-4457.2500 11.2500,-4458.2580 11.2500,-4459.5000
C11.2500,-4460.7420 10.2428,-4461.7500 9.0000,-4461.7500
Z" 
style="fill-rule: evenodd; fill: #000000; "/>
<path d=" 
M33.7500,-4509.0000
L15.7500,-4509.0000
L13.5000,-4511.2500
L33.7500,-4511.2500
L33.7500,-4509.0000
Z" 
style="fill-rule: evenodd; fill: #000000; "/>
<path d=" 
M38.2500,-4502.2500
L9.0000,-4502.2500
L6.7500,-4504.5000
L38.2500,-4504.5000
L38.2500,-4502.2500
Z" 
style="fill-rule: evenodd; fill: #000000; "/>
<path d=" 
M45.0000,-4495.5000
L15.7500,-4495.5000
L13.5000,-4497.7500
L45.0000,-4497.7500
L45.0000,-4495.5000
Z" 
style="fill-rule: evenodd; fill: #000000; "/>
<path d=" 
M40.5000,-4488.7500
L11.2500,-4488.7500
L9.0000,-4491.0000
L40.5000,-4491.0000
L40.5000,-4488.7500
Z" 
style="fill-rule: evenodd; fill: #000000; "/>
<path d=" 
M33.7500,-4482.0000
L18.0000,-4482.0000
L15.7500,-4484.2500
L33.7500,-4484.2500
L33.7500,-4482.0000
Z" 
style="fill-rule: evenodd; fill: #000000; "/>
<path d=" 
M33.5250,-4477.5000
L36.5647,-4477.5000
L53.9490,-4496.6250
L36.5647,-4515.7500
L33.5250,-4515.7500
L50.9078,-4496.6250
L33.5250,-4477.5000
Z" 
style="fill-rule: evenodd; fill: #000000; "/>
<path d=" 
M67.4993,-4465.3327
C67.5000,-4465.3320 67.5000,-4465.3313 67.5000,-4465.3313
L67.5000,-4530.0000
C67.5000,-4533.2992 64.7992,-4536.0000 61.5000,-4536.0000
L12.7500,-4536.0000
C9.4507,-4536.0000 6.7500,-4533.2992 6.7500,-4530.0000
L6.7500,-4529.2500
L6.0000,-4529.2500
C2.7008,-4529.2500 0.0000,-4526.5492 0.0000,-4523.2500
L0.0000,-4456.5000
C0.0000,-4453.2007 2.7008,-4450.5000 6.0000,-4450.5000
L39.7860,-4450.5000
C39.7853,-4450.5030 39.7837,-4450.5060 39.7823,-4450.5082
C42.3105,-4445.1878 47.7180,-4441.5000 54.0000,-4441.5000
C62.6985,-4441.5000 69.7500,-4448.5515 69.7500,-4457.2500
C69.7500,-4460.2087 68.9190,-4462.9673 67.4993,-4465.3327
Z
M60.7417,-4471.4678
C60.7440,-4471.4662 60.7470,-4471.4648 60.7500,-4471.4640
L60.7500,-4473.1110
C62.6985,-4473.4613 64.3462,-4474.6890 65.2500,-4476.3802
L65.2500,-4468.2615
C63.9570,-4469.5823 62.4300,-4470.6653 60.7417,-4471.4678
Z
M9.0000,-4530.0000
C9.0000,-4532.0678 10.6823,-4533.7500 12.7500,-4533.7500
L61.5000,-4533.7500
C63.5685,-4533.7500 65.2500,-4532.0678 65.2500,-4530.0000
L65.2500,-4479.3750
C65.2500,-4476.6577 63.3143,-4474.3860 60.7500,-4473.8633
L60.7500,-4523.2500
C60.7500,-4526.5492 58.0493,-4529.2500 54.7500,-4529.2500
L9.0000,-4529.2500
L9.0000,-4530.0000
Z
M6.0000,-4452.7500
C3.9323,-4452.7500 2.2500,-4454.4315 2.2500,-4456.5000
L2.2500,-4469.6310
C3.3240,-4467.6210 5.4412,-4466.2500 7.8750,-4466.2500
L41.0850,-4466.2500
C41.2642,-4466.5065 41.4525,-4466.7555 41.6460,-4467.0000
L7.8750,-4467.0000
C4.7738,-4467.0000 2.2500,-4469.5223 2.2500,-4472.6250
L2.2500,-4523.2500
C2.2500,-4525.3178 3.9323,-4527.0000 6.0000,-4527.0000
L54.7500,-4527.0000
C56.8185,-4527.0000 58.5000,-4525.3178 58.5000,-4523.2500
L58.5000,-4472.6250
C58.5000,-4472.5297 58.4903,-4472.4368 58.4850,-4472.3423
C57.0630,-4472.7653 55.5600,-4473.0000 54.0000,-4473.0000
C45.3015,-4473.0000 38.2500,-4465.9485 38.2500,-4457.2500
C38.2500,-4455.6855 38.4855,-4454.1765 38.9107,-4452.7500
L6.0000,-4452.7500
Z
M54.0000,-4443.7500
C46.5555,-4443.7500 40.5000,-4449.8055 40.5000,-4457.2500
C40.5000,-4464.6945 46.5555,-4470.7500 54.0000,-4470.7500
C61.4445,-4470.7500 67.5000,-4464.6945 67.5000,-4457.2500
C67.5000,-4449.8055 61.4445,-4443.7500 54.0000,-4443.7500
Z" 
style="fill-rule: evenodd; fill: #000000; "/>
<path d=" 
M53.4712,-4459.0500
C52.8412,-4459.4175 51.6315,-4460.0302 50.5590,-4460.0302
C50.4697,-4460.0302 50.3820,-4460.0272 50.2950,-4460.0183
C49.3650,-4459.9260 48.2692,-4459.6215 47.5762,-4459.4047
L49.0545,-4464.4778
C49.4355,-4464.6547 50.5747,-4465.1250 51.9450,-4465.1250
C53.0685,-4465.1250 54.0892,-4464.8130 54.9802,-4464.1965
L53.4712,-4459.0500
Z" 
style="fill-rule: evenodd; fill: #000000; "/>
<path d=" 
M51.4440,-4452.0292
C50.8080,-4452.3840 49.5825,-4452.9810 48.5392,-4452.9810
C48.4672,-4452.9810 48.3975,-4452.9772 48.3285,-4452.9727
C47.1682,-4452.8760 46.2690,-4452.7238 45.5745,-4452.5025
L47.0250,-4457.5155
C47.4675,-4457.7000 48.7822,-4458.2025 49.9590,-4458.2025
C50.0475,-4458.2025 50.1345,-4458.1995 50.2230,-4458.1935
C51.4478,-4458.1057 52.4790,-4457.5530 52.9710,-4457.2410
L51.4440,-4452.0292
Z" 
style="fill-rule: evenodd; fill: #000000; "/>
<path d=" 
M55.6770,-4450.1310
C54.4395,-4450.1925 53.5763,-4450.7610 53.1120,-4451.0670
C53.0873,-4451.0828 53.0610,-4451.1000 53.0370,-4451.1150
L54.5310,-4456.2525
C55.1640,-4455.8948 56.3723,-4455.2888 57.3083,-4455.2888
C58.4423,-4455.3180 59.2230,-4455.4073 60.4050,-4455.8100
C60.1718,-4455.0383 59.7540,-4453.5863 58.9575,-4450.8240
C58.5120,-4450.6380 57.1688,-4450.1250 55.9005,-4450.1250
C55.8270,-4450.1250 55.7520,-4450.1265 55.6770,-4450.1310
Z" 
style="fill-rule: evenodd; fill: #000000; "/>
<path d=" 
M57.7350,-4457.0025
C56.4315,-4457.0025 55.4130,-4457.7015 55.0283,-4458.0105
L56.5388,-4463.1255
C57.0840,-4462.7827 57.9615,-4462.3387 59.1945,-4462.2000
C59.3310,-4462.1850 59.4743,-4462.1782 59.6205,-4462.1782
C60.5895,-4462.1782 61.7183,-4462.4962 62.4330,-4462.7377
L60.9773,-4457.7307
C60.9668,-4457.7247 60.9555,-4457.7202 60.9450,-4457.7150
C60.5243,-4457.5320 59.5433,-4457.1000 57.9570,-4457.0107
C57.8820,-4457.0055 57.8078,-4457.0025 57.7350,-4457.0025
Z" 
style="fill-rule: evenodd; fill: #000000; "/>
<text x="0.0000" y="-4441.5000">
<tspan font-family="Arial Narrow" font-weight="bold" font-size="12.0000" fill="#000000" fill-opacity="1.0000" stroke-opacity="1.0000" >
Forwarders, Windows</tspan>
</text>
</svg>
