<?xml version="1.0" encoding="UTF-8" standalone="no"?>
<svg version="1.1" xmlns="http://www.w3.org/2000/svg" xmlns:xlink="http://www.w3.org/1999/xlink" width="0.9375in" height="1.7500in" viewBox="0 0 67.5000 126.0000" >
<g id="Layer1106" >
<path d=" 
M6.0000,-4486.5000
C3.9323,-4486.5000 2.2500,-4484.8178 2.2500,-4482.7500
L2.2500,-4432.1250
C2.2500,-4429.0222 4.7738,-4426.5000 7.8750,-4426.5000
L9.0000,-4426.5000
L9.0000,-4425.7500
L7.8750,-4425.7500
C5.4413,-4425.7500 3.3240,-4427.1210 2.2500,-4429.1310
L2.2500,-4416.0000
C2.2500,-4413.9315 3.9323,-4412.2500 6.0000,-4412.2500
L54.7500,-4412.2500
C56.8185,-4412.2500 58.5000,-4413.9315 58.5000,-4416.0000
L58.5000,-4419.0000
L61.5000,-4419.0000
C63.5685,-4419.0000 65.2500,-4420.6815 65.2500,-4422.7500
L65.2500,-4435.8810
C64.1760,-4433.8710 62.0580,-4432.5000 59.6250,-4432.5000
L58.5000,-4432.5000
L58.5000,-4433.2500
L59.6250,-4433.2500
C62.7263,-4433.2500 65.2500,-4435.7722 65.2500,-4438.8750
L65.2500,-4489.5000
C65.2500,-4491.5678 63.5685,-4493.2500 61.5000,-4493.2500
L12.7500,-4493.2500
C10.6823,-4493.2500 9.0000,-4491.5678 9.0000,-4489.5000
L9.0000,-4486.5000
L6.0000,-4486.5000
Z
M19.5000,-4533.7500
C18.6870,-4533.7500 18.0000,-4533.0630 18.0000,-4532.2500
L18.0000,-4495.5000
L56.2500,-4495.5000
L56.2500,-4532.2500
C56.2500,-4533.0630 55.5630,-4533.7500 54.7500,-4533.7500
L19.5000,-4533.7500
Z" 
style="stroke-width: 0.7200; stroke-linecap: round; stroke-linejoin: round; fill-rule: evenodd; fill: #ffffff; "/>
<path d=" 
M6.0000,-4486.5000
C3.9323,-4486.5000 2.2500,-4484.8178 2.2500,-4482.7500
L2.2500,-4432.1250
C2.2500,-4429.0222 4.7738,-4426.5000 7.8750,-4426.5000
L9.0000,-4426.5000
L9.0000,-4425.7500
L7.8750,-4425.7500
C5.4413,-4425.7500 3.3240,-4427.1210 2.2500,-4429.1310
L2.2500,-4416.0000
C2.2500,-4413.9315 3.9323,-4412.2500 6.0000,-4412.2500
L54.7500,-4412.2500
C56.8185,-4412.2500 58.5000,-4413.9315 58.5000,-4416.0000
L58.5000,-4419.0000
L61.5000,-4419.0000
C63.5685,-4419.0000 65.2500,-4420.6815 65.2500,-4422.7500
L65.2500,-4435.8810
C64.1760,-4433.8710 62.0580,-4432.5000 59.6250,-4432.5000
L58.5000,-4432.5000
L58.5000,-4433.2500
L59.6250,-4433.2500
C62.7263,-4433.2500 65.2500,-4435.7722 65.2500,-4438.8750
L65.2500,-4489.5000
C65.2500,-4491.5678 63.5685,-4493.2500 61.5000,-4493.2500
L12.7500,-4493.2500
C10.6823,-4493.2500 9.0000,-4491.5678 9.0000,-4489.5000
L9.0000,-4486.5000
L6.0000,-4486.5000
Z
M19.5000,-4533.7500
C18.6870,-4533.7500 18.0000,-4533.0630 18.0000,-4532.2500
L18.0000,-4495.5000
L56.2500,-4495.5000
L56.2500,-4532.2500
C56.2500,-4533.0630 55.5630,-4533.7500 54.7500,-4533.7500
L19.5000,-4533.7500
Z" 
style="stroke-width: 0.7200; stroke: #ffffff; stroke-dasharray: none; stroke-linecap: round; stroke-linejoin: round; fill: none; "/>
</g>
<path d=" 
M42.7500,-4497.7500
L31.5000,-4497.7500
L31.5000,-4509.0000
L42.7500,-4509.0000
L42.7500,-4497.7500
Z
M39.0000,-4530.7500
L35.2500,-4530.7500
L35.2500,-4527.0000
L39.0000,-4527.0000
L39.0000,-4530.7500
Z
M53.2500,-4528.5000
L49.5000,-4528.5000
L49.5000,-4524.7500
L53.2500,-4524.7500
L53.2500,-4528.5000
Z
M24.7500,-4528.5000
L21.0000,-4528.5000
L21.0000,-4524.7500
L24.7500,-4524.7500
L24.7500,-4528.5000
Z
M47.2500,-4522.5000
L42.7500,-4522.5000
L44.2043,-4521.0458
L41.8898,-4518.7312
C41.0978,-4517.9385 40.5000,-4516.4962 40.5000,-4515.3750
L40.5000,-4511.2500
L42.7500,-4511.2500
L42.7500,-4515.3750
C42.7500,-4515.9060 43.1048,-4516.7640 43.4813,-4517.1398
L45.7958,-4519.4542
L47.2500,-4518.0000
L47.2500,-4522.5000
Z
M32.3602,-4518.7305
L30.0457,-4521.0450
L31.5000,-4522.5000
L27.0000,-4522.5000
L27.0000,-4518.0000
L28.4542,-4519.4542
L30.7687,-4517.1398
C31.1452,-4516.7640 31.5000,-4515.9060 31.5000,-4515.3750
L31.5000,-4511.2500
L33.7500,-4511.2500
L33.7500,-4515.3750
C33.7500,-4516.4962 33.1522,-4517.9385 32.3602,-4518.7305
Z
M40.5000,-4521.3750
L37.1250,-4524.7500
L33.7500,-4521.3750
L36.0000,-4521.3750
L36.0000,-4511.2500
L38.2500,-4511.2500
L38.2500,-4521.3750
L40.5000,-4521.3750
Z
M9.0000,-4421.2500
C7.7572,-4421.2500 6.7500,-4420.2420 6.7500,-4419.0000
C6.7500,-4417.7580 7.7572,-4416.7500 9.0000,-4416.7500
C8.1728,-4416.7500 7.5000,-4417.4220 7.5000,-4418.2500
C7.5000,-4419.0780 8.1720,-4419.7500 9.0000,-4419.7500
C9.8280,-4419.7500 10.5000,-4419.0780 10.5000,-4418.2500
C10.5000,-4417.4220 9.8280,-4416.7500 9.0000,-4416.7500
C10.2427,-4416.7500 11.2500,-4417.7580 11.2500,-4419.0000
C11.2500,-4420.2420 10.2427,-4421.2500 9.0000,-4421.2500
Z
M33.7500,-4470.7500
L13.5000,-4470.7500
L15.7500,-4468.5000
L33.7500,-4468.5000
L33.7500,-4470.7500
Z
M38.2500,-4464.0000
L6.7500,-4464.0000
L9.0000,-4461.7500
L38.2500,-4461.7500
L38.2500,-4464.0000
Z
M45.0000,-4457.2500
L13.5000,-4457.2500
L15.7500,-4455.0000
L45.0000,-4455.0000
L45.0000,-4457.2500
Z
M40.5000,-4450.5000
L9.0000,-4450.5000
L11.2500,-4448.2500
L40.5000,-4448.2500
L40.5000,-4450.5000
Z
M33.7500,-4443.7500
L15.7500,-4443.7500
L18.0000,-4441.5000
L33.7500,-4441.5000
L33.7500,-4443.7500
Z
M33.5250,-4437.0000
L36.5648,-4437.0000
L53.9490,-4456.1250
L36.5648,-4475.2500
L33.5250,-4475.2500
L50.9078,-4456.1250
L33.5250,-4437.0000
Z
M67.5000,-4489.5000
L67.5000,-4422.7500
C67.5000,-4419.4507 64.7993,-4416.7500 61.5000,-4416.7500
L60.7500,-4416.7500
L60.7500,-4416.0000
C60.7500,-4412.7007 58.0493,-4410.0000 54.7500,-4410.0000
L6.0000,-4410.0000
C2.7007,-4410.0000 0.0000,-4412.7007 0.0000,-4416.0000
L0.0000,-4482.7500
C0.0000,-4486.0493 2.7007,-4488.7500 6.0000,-4488.7500
L6.7500,-4488.7500
L6.7500,-4489.5000
C6.7500,-4492.7992 9.4507,-4495.5000 12.7500,-4495.5000
L15.7500,-4495.5000
L15.7500,-4532.2500
C15.7500,-4534.3125 17.4375,-4536.0000 19.5000,-4536.0000
L54.7500,-4536.0000
C56.8125,-4536.0000 58.5000,-4534.3125 58.5000,-4532.2500
L58.5000,-4495.5000
L61.5000,-4495.5000
C64.7993,-4495.5000 67.5000,-4492.7992 67.5000,-4489.5000
Z
M18.0000,-4495.5000
L56.2500,-4495.5000
L56.2500,-4532.2500
C56.2500,-4533.0630 55.5630,-4533.7500 54.7500,-4533.7500
L19.5000,-4533.7500
C18.6870,-4533.7500 18.0000,-4533.0630 18.0000,-4532.2500
L18.0000,-4495.5000
Z
M58.5000,-4429.1318
C57.4260,-4427.1210 55.3080,-4425.7500 52.8750,-4425.7500
L7.8750,-4425.7500
C5.4412,-4425.7500 3.3232,-4427.1210 2.2500,-4429.1318
L2.2500,-4416.0000
C2.2500,-4413.9315 3.9323,-4412.2500 6.0000,-4412.2500
L54.7500,-4412.2500
C56.8185,-4412.2500 58.5000,-4413.9315 58.5000,-4416.0000
L58.5000,-4429.1318
Z
M58.5000,-4482.7500
C58.5000,-4484.8178 56.8185,-4486.5000 54.7500,-4486.5000
L6.0000,-4486.5000
C3.9323,-4486.5000 2.2500,-4484.8178 2.2500,-4482.7500
L2.2500,-4444.8750
L2.2500,-4432.1250
C2.2500,-4429.0222 4.7737,-4426.5000 7.8750,-4426.5000
L52.8750,-4426.5000
C55.9763,-4426.5000 58.5000,-4429.0222 58.5000,-4432.1250
L58.5000,-4444.8750
L58.5000,-4482.7500
Z
M65.2500,-4435.8817
C64.3463,-4434.1890 62.7000,-4432.9552 60.7500,-4432.6057
L60.7500,-4419.0000
L61.5000,-4419.0000
C63.5685,-4419.0000 65.2500,-4420.6815 65.2500,-4422.7500
L65.2500,-4435.8817
Z
M65.2500,-4489.5000
C65.2500,-4491.5678 63.5685,-4493.2500 61.5000,-4493.2500
L12.7500,-4493.2500
C10.6823,-4493.2500 9.0000,-4491.5678 9.0000,-4489.5000
L9.0000,-4488.7500
L54.7500,-4488.7500
C58.0493,-4488.7500 60.7500,-4486.0493 60.7500,-4482.7500
L60.7500,-4433.3633
C63.3143,-4433.8860 65.2500,-4436.1585 65.2500,-4438.8750
L65.2500,-4451.6250
L65.2500,-4489.5000
Z" 
style="fill-rule: evenodd; fill: #010101; "/>
<text x="0.0000" y="-4410.0000">
<tspan font-family="Arial Narrow" font-weight="bold" font-size="12.0000" fill="#000000" fill-opacity="1.0000" stroke-opacity="1.0000" >
</tspan>
<tspan font-family="Arial Narrow" font-weight="bold" font-size="12.0000" fill="#000000" fill-opacity="1.0000" stroke-opacity="1.0000" >
Forwarders With Load Balancer</tspan>
</text>
</svg>
