<?xml version="1.0" encoding="UTF-8" standalone="no"?>
<svg version="1.1" xmlns="http://www.w3.org/2000/svg" xmlns:xlink="http://www.w3.org/1999/xlink" width="0.8438in" height="1.6562in" viewBox="0 0 60.7500 119.2500" >
<g id="Layer1104" >
<path d=" 
M12.7500,-4533.7502
C11.9370,-4533.7502 11.2500,-4533.0632 11.2500,-4532.2502
L11.2500,-4495.5002
L49.5000,-4495.5002
L49.5000,-4532.2502
C49.5000,-4533.0632 48.8130,-4533.7502 48.0000,-4533.7502
L12.7500,-4533.7502
Z
M7.8750,-4432.5002
C5.4413,-4432.5002 3.3240,-4433.8712 2.2500,-4435.8812
L2.2500,-4422.7502
C2.2500,-4420.6817 3.9323,-4419.0002 6.0000,-4419.0002
L54.7500,-4419.0002
C56.8185,-4419.0002 58.5000,-4420.6817 58.5000,-4422.7502
L58.5000,-4435.8812
C57.4260,-4433.8712 55.3080,-4432.5002 52.8750,-4432.5002
L7.8750,-4432.5002
Z
M6.0000,-4493.2502
C3.9323,-4493.2502 2.2500,-4491.5679 2.2500,-4489.5002
L2.2500,-4438.8752
C2.2500,-4435.7724 4.7738,-4433.2502 7.8750,-4433.2502
L52.8750,-4433.2502
C55.9763,-4433.2502 58.5000,-4435.7724 58.5000,-4438.8752
L58.5000,-4489.5002
C58.5000,-4491.5679 56.8185,-4493.2502 54.7500,-4493.2502
L6.0000,-4493.2502
Z" 
style="stroke-width: 0.7200; stroke-linecap: round; stroke-linejoin: round; fill-rule: evenodd; fill: #ffffff; "/>
<path d=" 
M12.7500,-4533.7502
C11.9370,-4533.7502 11.2500,-4533.0632 11.2500,-4532.2502
L11.2500,-4495.5002
L49.5000,-4495.5002
L49.5000,-4532.2502
C49.5000,-4533.0632 48.8130,-4533.7502 48.0000,-4533.7502
L12.7500,-4533.7502
Z
M7.8750,-4432.5002
C5.4413,-4432.5002 3.3240,-4433.8712 2.2500,-4435.8812
L2.2500,-4422.7502
C2.2500,-4420.6817 3.9323,-4419.0002 6.0000,-4419.0002
L54.7500,-4419.0002
C56.8185,-4419.0002 58.5000,-4420.6817 58.5000,-4422.7502
L58.5000,-4435.8812
C57.4260,-4433.8712 55.3080,-4432.5002 52.8750,-4432.5002
L7.8750,-4432.5002
Z
M6.0000,-4493.2502
C3.9323,-4493.2502 2.2500,-4491.5679 2.2500,-4489.5002
L2.2500,-4438.8752
C2.2500,-4435.7724 4.7738,-4433.2502 7.8750,-4433.2502
L52.8750,-4433.2502
C55.9763,-4433.2502 58.5000,-4435.7724 58.5000,-4438.8752
L58.5000,-4489.5002
C58.5000,-4491.5679 56.8185,-4493.2502 54.7500,-4493.2502
L6.0000,-4493.2502
Z" 
style="stroke-width: 0.7200; stroke: #ffffff; stroke-dasharray: none; stroke-linecap: round; stroke-linejoin: round; fill: none; "/>
</g>
<path d=" 
M29.9093,-4457.2500
L28.5908,-4455.9315
L30.1815,-4454.3408
L30.8408,-4455.0000
L40.5000,-4455.0000
L40.5000,-4457.2500
L29.9093,-4457.2500
Z" 
style="fill-rule: evenodd; fill: #000000; "/>
<path d=" 
M30.1815,-4474.5907
L30.8407,-4475.2500
L33.7500,-4475.2500
L33.7500,-4477.5000
L29.9092,-4477.5000
L28.5907,-4476.1815
L30.1815,-4474.5907
Z" 
style="fill-rule: evenodd; fill: #000000; "/>
<path d=" 
M36.2722,-4468.5000
L40.5000,-4468.5000
L40.5000,-4470.7500
L34.4092,-4470.7500
L34.2157,-4470.5565
L36.2722,-4468.5000
Z" 
style="fill-rule: evenodd; fill: #000000; "/>
<path d=" 
M33.5962,-4443.7500
L36.6360,-4443.7500
L54.0195,-4462.8750
L36.6360,-4482.0000
L33.5962,-4482.0000
L50.9798,-4462.8750
L33.5962,-4443.7500
Z" 
style="fill-rule: evenodd; fill: #000000; "/>
<path d=" 
M18.0000,-4450.5000
L6.7500,-4450.5000
L9.0000,-4448.2500
L18.0000,-4448.2500
L18.0000,-4450.5000
Z" 
style="fill-rule: evenodd; fill: #000000; "/>
<path d=" 
M23.8185,-4451.1592
L23.1593,-4450.5000
L20.2500,-4450.5000
L20.2500,-4448.2500
L24.0908,-4448.2500
L25.4093,-4449.5685
L23.8185,-4451.1592
Z" 
style="fill-rule: evenodd; fill: #000000; "/>
<path d=" 
M18.0000,-4457.2500
L6.7500,-4457.2500
L9.0000,-4455.0000
L18.0000,-4455.0000
L18.0000,-4457.2500
Z" 
style="fill-rule: evenodd; fill: #000000; "/>
<path d=" 
M30.8407,-4450.5000
L24.0907,-4457.2500
L20.2500,-4457.2500
L20.2500,-4455.0000
L23.1592,-4455.0000
L29.9092,-4448.2500
L33.7500,-4448.2500
L33.7500,-4450.5000
L30.8407,-4450.5000
Z" 
style="fill-rule: evenodd; fill: #000000; "/>
<path d=" 
M18.0000,-4464.0000
L6.7500,-4464.0000
L9.0000,-4461.7500
L18.0000,-4461.7500
L18.0000,-4464.0000
Z" 
style="fill-rule: evenodd; fill: #000000; "/>
<path d=" 
M29.4435,-4465.7842
L27.6592,-4464.0000
L20.2500,-4464.0000
L20.2500,-4461.7500
L28.5907,-4461.7500
L31.0342,-4464.1935
L29.4435,-4465.7842
Z" 
style="fill-rule: evenodd; fill: #000000; "/>
<path d=" 
M18.0000,-4470.7500
L6.7500,-4470.7500
L9.0000,-4468.5000
L18.0000,-4468.5000
L18.0000,-4470.7500
Z" 
style="fill-rule: evenodd; fill: #000000; "/>
<path d=" 
M23.8185,-4471.4092
L23.1593,-4470.7500
L20.2500,-4470.7500
L20.2500,-4468.5000
L24.0908,-4468.5000
L25.4093,-4469.8185
L23.8185,-4471.4092
Z" 
style="fill-rule: evenodd; fill: #000000; "/>
<path d=" 
M18.0000,-4477.5000
L6.7500,-4477.5000
L9.0000,-4475.2500
L18.0000,-4475.2500
L18.0000,-4477.5000
Z" 
style="fill-rule: evenodd; fill: #000000; "/>
<path d=" 
M37.5907,-4464.0000
L24.0908,-4477.5000
L20.2500,-4477.5000
L20.2500,-4475.2500
L23.1592,-4475.2500
L36.6593,-4461.7500
L45.0000,-4461.7500
L45.0000,-4464.0000
L37.5907,-4464.0000
Z" 
style="fill-rule: evenodd; fill: #000000; "/>
<path d=" 
M9.0000,-4428.0000
C7.7572,-4428.0000 6.7500,-4426.9920 6.7500,-4425.7500
C6.7500,-4424.5080 7.7572,-4423.5000 9.0000,-4423.5000
C8.1728,-4423.5000 7.5000,-4424.1720 7.5000,-4425.0000
C7.5000,-4425.8280 8.1720,-4426.5000 9.0000,-4426.5000
C9.8280,-4426.5000 10.5000,-4425.8280 10.5000,-4425.0000
C10.5000,-4424.1720 9.8280,-4423.5000 9.0000,-4423.5000
C10.2428,-4423.5000 11.2500,-4424.5080 11.2500,-4425.7500
C11.2500,-4426.9920 10.2428,-4428.0000 9.0000,-4428.0000
Z" 
style="fill-rule: evenodd; fill: #000000; "/>
<path d=" 
M54.7500,-4495.5000
L51.7500,-4495.5000
L51.7500,-4532.2500
C51.7500,-4534.3125 50.0625,-4536.0000 48.0000,-4536.0000
L12.7500,-4536.0000
C10.6875,-4536.0000 9.0000,-4534.3125 9.0000,-4532.2500
L9.0000,-4495.5000
L6.0000,-4495.5000
C2.7008,-4495.5000 0.0000,-4492.7993 0.0000,-4489.5000
L0.0000,-4422.7500
C0.0000,-4419.4507 2.7008,-4416.7500 6.0000,-4416.7500
L54.7500,-4416.7500
C58.0492,-4416.7500 60.7500,-4419.4507 60.7500,-4422.7500
L60.7500,-4489.5000
C60.7500,-4492.7993 58.0492,-4495.5000 54.7500,-4495.5000
Z
M11.2500,-4532.2500
C11.2500,-4533.0630 11.9370,-4533.7500 12.7500,-4533.7500
L48.0000,-4533.7500
C48.8130,-4533.7500 49.5000,-4533.0630 49.5000,-4532.2500
L49.5000,-4495.5000
L11.2500,-4495.5000
L11.2500,-4532.2500
Z
M58.5000,-4422.7500
C58.5000,-4420.6815 56.8185,-4419.0000 54.7500,-4419.0000
L6.0000,-4419.0000
C3.9322,-4419.0000 2.2500,-4420.6815 2.2500,-4422.7500
L2.2500,-4435.8810
C3.3240,-4433.8710 5.4413,-4432.5000 7.8750,-4432.5000
L52.8750,-4432.5000
C55.3080,-4432.5000 57.4260,-4433.8710 58.5000,-4435.8810
L58.5000,-4422.7500
Z
M58.5000,-4438.8750
C58.5000,-4435.7722 55.9763,-4433.2500 52.8750,-4433.2500
L7.8750,-4433.2500
C4.7737,-4433.2500 2.2500,-4435.7722 2.2500,-4438.8750
L2.2500,-4489.5000
C2.2500,-4491.5678 3.9322,-4493.2500 6.0000,-4493.2500
L54.7500,-4493.2500
C56.8185,-4493.2500 58.5000,-4491.5678 58.5000,-4489.5000
L58.5000,-4438.8750
Z" 
style="fill-rule: evenodd; fill: #000000; "/>
<text x="-22.0914" y="-4416.7500">
<tspan font-family="Arial Narrow" font-weight="bold" font-size="12.0000" fill="#000000" fill-opacity="1.0000" stroke-opacity="1.0000" >
Heavy Forwarder With Load Balancer</tspan>
</text>
<path d=" 
M24.7500,-4497.7500
L36.0000,-4497.7500
L36.0000,-4509.0000
L24.7500,-4509.0000
L24.7500,-4497.7500
Z" 
style="fill-rule: evenodd; fill: #070808; "/>
<path d=" 
M28.5000,-4527.0000
L32.2500,-4527.0000
L32.2500,-4530.7500
L28.5000,-4530.7500
L28.5000,-4527.0000
Z" 
style="fill-rule: evenodd; fill: #070808; "/>
<path d=" 
M42.7500,-4524.7500
L46.5000,-4524.7500
L46.5000,-4528.5000
L42.7500,-4528.5000
L42.7500,-4524.7500
Z" 
style="fill-rule: evenodd; fill: #070808; "/>
<path d=" 
M14.2500,-4524.7500
L18.0000,-4524.7500
L18.0000,-4528.5000
L14.2500,-4528.5000
L14.2500,-4524.7500
Z" 
style="fill-rule: evenodd; fill: #070808; "/>
<path d=" 
M29.2500,-4511.2500
L31.5000,-4511.2500
L31.5000,-4522.5000
L29.2500,-4522.5000
L29.2500,-4511.2500
Z" 
style="fill-rule: evenodd; fill: #070808; "/>
<path d=" 
M36.0000,-4511.2500
L33.7500,-4511.2500
L33.7500,-4515.3750
C33.7500,-4516.4955 34.3477,-4517.9377 35.1405,-4518.7305
L38.5800,-4522.1700
L40.1707,-4520.5792
L36.7312,-4517.1397
C36.3547,-4516.7640 36.0000,-4515.9060 36.0000,-4515.3750
L36.0000,-4511.2500
Z" 
style="fill-rule: evenodd; fill: #070808; "/>
<path d=" 
M27.0000,-4511.2500
L24.7500,-4511.2500
L24.7500,-4515.3750
C24.7500,-4515.9060 24.3952,-4516.7640 24.0195,-4517.1397
L20.5800,-4520.5792
L22.1707,-4522.1700
L25.6102,-4518.7305
C26.4022,-4517.9385 27.0000,-4516.4962 27.0000,-4515.3750
L27.0000,-4511.2500
Z" 
style="fill-rule: evenodd; fill: #070808; "/>
<path d=" 
M40.5000,-4518.0000
L40.5000,-4522.5000
L36.0000,-4522.5000
L40.5000,-4518.0000
Z" 
style="fill-rule: evenodd; fill: #000000; "/>
<path d=" 
M24.7500,-4522.5000
L20.2500,-4522.5000
L20.2500,-4518.0000
L24.7500,-4522.5000
Z" 
style="fill-rule: evenodd; fill: #000000; "/>
<path d=" 
M33.7500,-4521.3750
L30.3750,-4524.7500
L27.0000,-4521.3750
L33.7500,-4521.3750
Z" 
style="fill-rule: evenodd; fill: #000000; "/>
</svg>
