<?xml version="1.0" encoding="UTF-8" standalone="no"?>
<svg version="1.1" xmlns="http://www.w3.org/2000/svg" xmlns:xlink="http://www.w3.org/1999/xlink" width="0.9688in" height="1.3125in" viewBox="0 0 69.7500 94.5000" >
<g id="Layer1063" >
<path d=" 
M64.6875,-4467.1573
L64.6875,-4476.9434
C63.6135,-4474.9334 61.4955,-4473.5624 59.0625,-4473.5624
L57.9375,-4473.5624
L57.9375,-4474.3124
L59.0625,-4474.3124
C62.1637,-4474.3124 64.6875,-4476.8346 64.6875,-4479.9374
L64.6875,-4530.5624
C64.6875,-4532.6301 63.0060,-4534.3124 60.9375,-4534.3124
L12.1875,-4534.3124
C10.1197,-4534.3124 8.4375,-4532.6301 8.4375,-4530.5624
L8.4375,-4527.5624
L5.4375,-4527.5624
C3.3697,-4527.5624 1.6875,-4525.8801 1.6875,-4523.8124
L1.6875,-4473.1874
C1.6875,-4470.0846 4.2112,-4467.5624 7.3125,-4467.5624
L8.4375,-4467.5624
L8.4375,-4466.8124
L7.3125,-4466.8124
C4.8787,-4466.8124 2.7615,-4468.1834 1.6875,-4470.1934
L1.6875,-4457.0624
C1.6875,-4454.9939 3.3697,-4453.3124 5.4375,-4453.3124
L39.5220,-4453.3124
A14.6250,14.6250 0.0000 1,0 64.6875,-4467.1573
Z" 
style="stroke-width: 0.7200; stroke-linecap: round; stroke-linejoin: round; fill-rule: evenodd; fill: #ffffff; "/>
<path d=" 
M64.6875,-4467.1573
L64.6875,-4476.9434
C63.6135,-4474.9334 61.4955,-4473.5624 59.0625,-4473.5624
L57.9375,-4473.5624
L57.9375,-4474.3124
L59.0625,-4474.3124
C62.1637,-4474.3124 64.6875,-4476.8346 64.6875,-4479.9374
L64.6875,-4530.5624
C64.6875,-4532.6301 63.0060,-4534.3124 60.9375,-4534.3124
L12.1875,-4534.3124
C10.1197,-4534.3124 8.4375,-4532.6301 8.4375,-4530.5624
L8.4375,-4527.5624
L5.4375,-4527.5624
C3.3697,-4527.5624 1.6875,-4525.8801 1.6875,-4523.8124
L1.6875,-4473.1874
C1.6875,-4470.0846 4.2112,-4467.5624 7.3125,-4467.5624
L8.4375,-4467.5624
L8.4375,-4466.8124
L7.3125,-4466.8124
C4.8787,-4466.8124 2.7615,-4468.1834 1.6875,-4470.1934
L1.6875,-4457.0624
C1.6875,-4454.9939 3.3697,-4453.3124 5.4375,-4453.3124
L39.5220,-4453.3124
A14.6250,14.6250 0.0000 1,0 64.6875,-4467.1573
Z" 
style="stroke-width: 0.7200; stroke: #ffffff; stroke-dasharray: none; stroke-linecap: round; stroke-linejoin: round; fill: none; "/>
</g>
<path d=" 
M9.0000,-4461.7500
C7.7573,-4461.7500 6.7500,-4460.7420 6.7500,-4459.5000
C6.7500,-4458.2580 7.7573,-4457.2500 9.0000,-4457.2500
C8.1728,-4457.2500 7.5000,-4457.9220 7.5000,-4458.7500
C7.5000,-4459.5780 8.1720,-4460.2500 9.0000,-4460.2500
C9.8280,-4460.2500 10.5000,-4459.5780 10.5000,-4458.7500
C10.5000,-4457.9220 9.8280,-4457.2500 9.0000,-4457.2500
C10.2428,-4457.2500 11.2500,-4458.2580 11.2500,-4459.5000
C11.2500,-4460.7420 10.2428,-4461.7500 9.0000,-4461.7500
Z" 
style="fill-rule: evenodd; fill: #000000; "/>
<path d=" 
M67.4993,-4465.3327
C67.5000,-4465.3320 67.5000,-4465.3313 67.5000,-4465.3313
L67.5000,-4530.0000
C67.5000,-4533.2992 64.7992,-4536.0000 61.5000,-4536.0000
L12.7500,-4536.0000
C9.4507,-4536.0000 6.7500,-4533.2992 6.7500,-4530.0000
L6.7500,-4529.2500
L6.0000,-4529.2500
C2.7008,-4529.2500 0.0000,-4526.5492 0.0000,-4523.2500
L0.0000,-4456.5000
C0.0000,-4453.2007 2.7008,-4450.5000 6.0000,-4450.5000
L39.7860,-4450.5000
C39.7853,-4450.5030 39.7837,-4450.5060 39.7823,-4450.5082
C42.3105,-4445.1878 47.7180,-4441.5000 54.0000,-4441.5000
C62.6985,-4441.5000 69.7500,-4448.5515 69.7500,-4457.2500
C69.7500,-4460.2087 68.9190,-4462.9673 67.4993,-4465.3327
Z
M60.7417,-4471.4678
C60.7440,-4471.4662 60.7470,-4471.4648 60.7500,-4471.4640
L60.7500,-4473.1110
C62.6985,-4473.4613 64.3462,-4474.6890 65.2500,-4476.3802
L65.2500,-4468.2615
C63.9570,-4469.5823 62.4300,-4470.6653 60.7417,-4471.4678
Z
M9.0000,-4530.0000
C9.0000,-4532.0678 10.6823,-4533.7500 12.7500,-4533.7500
L61.5000,-4533.7500
C63.5685,-4533.7500 65.2500,-4532.0678 65.2500,-4530.0000
L65.2500,-4479.3750
C65.2500,-4476.6577 63.3143,-4474.3860 60.7500,-4473.8633
L60.7500,-4523.2500
C60.7500,-4526.5492 58.0493,-4529.2500 54.7500,-4529.2500
L9.0000,-4529.2500
L9.0000,-4530.0000
Z
M6.0000,-4452.7500
C3.9323,-4452.7500 2.2500,-4454.4315 2.2500,-4456.5000
L2.2500,-4469.6310
C3.3240,-4467.6210 5.4412,-4466.2500 7.8750,-4466.2500
L41.0850,-4466.2500
C41.2642,-4466.5065 41.4525,-4466.7555 41.6460,-4467.0000
L7.8750,-4467.0000
C4.7738,-4467.0000 2.2500,-4469.5223 2.2500,-4472.6250
L2.2500,-4523.2500
C2.2500,-4525.3178 3.9323,-4527.0000 6.0000,-4527.0000
L54.7500,-4527.0000
C56.8185,-4527.0000 58.5000,-4525.3178 58.5000,-4523.2500
L58.5000,-4472.6250
C58.5000,-4472.5297 58.4903,-4472.4368 58.4850,-4472.3423
C57.0630,-4472.7653 55.5600,-4473.0000 54.0000,-4473.0000
C45.3015,-4473.0000 38.2500,-4465.9485 38.2500,-4457.2500
C38.2500,-4455.6855 38.4855,-4454.1765 38.9107,-4452.7500
L6.0000,-4452.7500
Z
M54.0000,-4443.7500
C46.5555,-4443.7500 40.5000,-4449.8055 40.5000,-4457.2500
C40.5000,-4464.6945 46.5555,-4470.7500 54.0000,-4470.7500
C61.4445,-4470.7500 67.5000,-4464.6945 67.5000,-4457.2500
C67.5000,-4449.8055 61.4445,-4443.7500 54.0000,-4443.7500
Z" 
style="fill-rule: evenodd; fill: #000000; "/>
<path d=" 
M57.0000,-4452.3750
C57.0000,-4452.9833 55.9823,-4453.6770 54.2753,-4454.2312
C52.7310,-4454.7338 51.0203,-4455.0000 50.3805,-4455.0000
C49.7963,-4455.0000 46.8428,-4454.2020 45.6547,-4452.8753
C45.1800,-4452.3443 45.0922,-4451.7667 45.3870,-4451.1083
C45.5595,-4450.7220 45.8505,-4450.3432 46.2105,-4449.9833
C46.3057,-4450.1002 46.4655,-4450.1550 46.6162,-4450.1070
C46.6267,-4450.1033 47.6370,-4449.7837 49.5068,-4449.7500
C51.3765,-4449.7132 53.4615,-4450.2683 54.9255,-4451.1923
C55.1010,-4451.3018 55.3320,-4451.2500 55.4430,-4451.0760
C55.5525,-4450.9005 55.5008,-4450.6687 55.3253,-4450.5593
C53.7915,-4449.5895 51.6390,-4448.9992 49.6687,-4448.9992
C49.6102,-4448.9992 49.5518,-4449.0000 49.4940,-4449.0008
C48.4155,-4449.0210 47.6167,-4449.1298 47.0948,-4449.2280
C48.4598,-4448.2208 50.1975,-4447.5000 51.0000,-4447.5000
C53.1720,-4447.5000 56.9985,-4450.3185 57.0000,-4452.3750
Z" 
style="fill-rule: evenodd; fill: #010101; "/>
<path d=" 
M49.8458,-4444.4108
C50.0423,-4444.3463 50.2410,-4444.2938 50.4420,-4444.2397
C50.2410,-4444.2938 50.0423,-4444.3477 49.8458,-4444.4108
Z" 
style="fill-rule: evenodd; fill: #010101; "/>
<path d=" 
M64.2803,-4448.5177
C64.1190,-4448.3288 63.9533,-4448.1427 63.7823,-4447.9628
C63.9533,-4448.1427 64.1190,-4448.3288 64.2803,-4448.5177
Z" 
style="fill-rule: evenodd; fill: #010101; "/>
<path d=" 
M51.5588,-4443.9817
C51.3855,-4444.0140 51.2138,-4444.0478 51.0427,-4444.0868
C51.2948,-4444.0305 51.5498,-4443.9862 51.8055,-4443.9457
C51.7222,-4443.9577 51.6405,-4443.9668 51.5588,-4443.9817
Z" 
style="fill-rule: evenodd; fill: #010101; "/>
<path d=" 
M59.6250,-4447.1250
C59.8665,-4446.7447 59.9798,-4446.3922 60.0788,-4446.0458
C61.6815,-4446.9173 63.0720,-4448.1292 64.1663,-4449.5760
C63.7530,-4450.5503 63.3983,-4451.6137 63.1208,-4452.8422
C62.0280,-4457.6573 63.3930,-4456.2668 62.4263,-4460.4712
C61.9560,-4462.5653 61.1198,-4464.2265 60.1898,-4465.3207
C59.2613,-4466.4390 57.9863,-4467.0458 57.3743,-4467.3750
C55.9508,-4468.1400 52.3748,-4469.4990 48.0652,-4467.2640
C44.0235,-4465.1573 44.0677,-4460.8567 44.6520,-4452.6915
C44.7562,-4452.9285 44.9002,-4453.1587 45.0945,-4453.3755
C45.4560,-4453.7782 45.9502,-4454.1345 46.4910,-4454.4420
C45.3045,-4456.5757 45.3000,-4460.9430 47.9992,-4460.2500
C49.7002,-4459.8143 50.2800,-4457.5328 49.9035,-4455.6930
C50.1030,-4455.7297 50.2680,-4455.7500 50.3797,-4455.7500
C50.8815,-4455.7500 51.7920,-4455.6255 52.7820,-4455.4073
C52.2690,-4456.9860 52.5788,-4459.0095 53.7353,-4459.9778
C57.1103,-4462.8053 60.5498,-4455.5745 57.0518,-4453.6665
C57.5085,-4453.2667 57.7500,-4452.8370 57.7493,-4452.3742
C57.7493,-4451.8620 57.5790,-4451.3377 57.2963,-4450.8240
C58.5863,-4450.6057 58.3433,-4449.1642 59.6250,-4447.1250
Z" 
style="fill-rule: evenodd; fill: #010101; "/>
<path d=" 
M46.2413,-4447.1542
C46.2465,-4447.9703 46.2758,-4448.2733 46.3493,-4448.8387
C45.6885,-4449.3705 45.1387,-4449.9758 44.8035,-4450.6170
C44.8267,-4450.2915 44.8500,-4449.9765 44.8755,-4449.6405
C44.9032,-4449.2340 44.8650,-4448.8485 44.7817,-4448.4720
C45.2347,-4447.9980 45.7223,-4447.5555 46.2413,-4447.1542
Z" 
style="fill-rule: evenodd; fill: #010101; "/>
<path d=" 
M46.2405,-4446.2198
C46.4130,-4446.0968 46.5907,-4445.9783 46.7707,-4445.8635
C46.5907,-4445.9783 46.4137,-4446.0983 46.2405,-4446.2198
Z" 
style="fill-rule: evenodd; fill: #010101; "/>
<path d=" 
M45.3307,-4446.9158
C45.4800,-4446.7897 45.6345,-4446.6728 45.7890,-4446.5543
C45.6352,-4446.6720 45.4807,-4446.7897 45.3307,-4446.9158
Z" 
style="fill-rule: evenodd; fill: #010101; "/>
<path d=" 
M48.0540,-4445.1450
C48.5445,-4444.9028 49.0530,-4444.6905 49.5758,-4444.5075
C49.0530,-4444.6905 48.5453,-4444.9035 48.0540,-4445.1450
Z" 
style="fill-rule: evenodd; fill: #010101; "/>
<path d=" 
M64.3958,-4448.6557
C64.4355,-4448.7023 64.4775,-4448.7480 64.5173,-4448.7968
C64.5158,-4448.7998 64.5143,-4448.8020 64.5128,-4448.8043
C64.4738,-4448.7555 64.4370,-4448.7038 64.3958,-4448.6557
Z" 
style="fill-rule: evenodd; fill: #010101; "/>
<path d=" 
M55.4925,-4443.8363
C55.4048,-4443.8265 55.3163,-4443.8205 55.2263,-4443.8115
C54.8220,-4443.7747 54.4148,-4443.7500 54.0000,-4443.7500
C54.8910,-4443.7500 55.7603,-4443.8408 56.6033,-4444.0065
C56.2380,-4443.9345 55.8675,-4443.8790 55.4925,-4443.8363
Z" 
style="fill-rule: evenodd; fill: #010101; "/>
<path d=" 
M60.0623,-4445.2005
C59.8733,-4445.1053 59.6843,-4445.0115 59.4908,-4444.9253
C59.3280,-4444.8517 59.1653,-4444.7842 58.9995,-4444.7190
C58.7355,-4444.6133 58.4693,-4444.5143 58.1985,-4444.4250
C58.0575,-4444.3785 57.9143,-4444.3365 57.7725,-4444.2938
C57.4943,-4444.2142 57.2130,-4444.1415 56.9288,-4444.0778
C56.8305,-4444.0560 56.7323,-4444.0328 56.6340,-4444.0125
C59.3865,-4444.5593 61.8360,-4445.9415 63.7103,-4447.8877
C62.6588,-4446.7995 61.4265,-4445.8882 60.0623,-4445.2005
Z" 
style="fill-rule: evenodd; fill: #010101; "/>
<path d=" 
M52.3343,-4443.8625
C52.8818,-4443.7965 53.4345,-4443.7500 54.0000,-4443.7500
C53.5793,-4443.7500 53.1653,-4443.7747 52.7543,-4443.8130
C52.6125,-4443.8265 52.4738,-4443.8468 52.3343,-4443.8625
Z" 
style="fill-rule: evenodd; fill: #010101; "/>
<path d=" 
M47.1870,-4445.6115
C47.3888,-4445.4945 47.5883,-4445.3775 47.7953,-4445.2688
C47.5883,-4445.3760 47.3888,-4445.4945 47.1870,-4445.6115
Z" 
style="fill-rule: evenodd; fill: #010101; "/>
<path d=" 
M44.5230,-4447.6478
C44.5222,-4447.6462 44.5222,-4447.6448 44.5207,-4447.6417
C44.6107,-4447.5532 44.7112,-4447.4745 44.8042,-4447.3882
C44.7112,-4447.4753 44.6130,-4447.5585 44.5230,-4447.6478
Z" 
style="fill-rule: evenodd; fill: #010101; "/>
<path d=" 
M48.9128,-4457.2238
C48.8145,-4457.0235 48.6143,-4456.8825 48.3750,-4456.8825
C48.0428,-4456.8825 47.7728,-4457.1518 47.7728,-4457.4848
C47.7728,-4457.7540 47.9543,-4457.9738 48.1988,-4458.0518
C48.0420,-4458.1320 47.8718,-4458.1928 47.6775,-4458.1928
C46.1805,-4458.1928 46.3433,-4455.7148 47.1983,-4454.7480
C47.6873,-4454.9625 48.5040,-4455.2280 49.0470,-4455.3975
C49.1985,-4455.9645 49.1468,-4456.6658 48.9128,-4457.2238
Z" 
style="fill-rule: evenodd; fill: #010101; "/>
<path d=" 
M56.8770,-4457.2590
C56.7877,-4457.0377 56.5732,-4456.8825 56.3205,-4456.8825
C55.9882,-4456.8825 55.7182,-4457.1517 55.7182,-4457.4847
C55.7182,-4457.7712 55.9222,-4458.0000 56.1907,-4458.0607
C55.9905,-4458.1710 55.7602,-4458.2377 55.4955,-4458.2377
C53.9002,-4458.2377 53.3385,-4455.9203 54.2595,-4454.8890
C54.6532,-4454.7480 55.1002,-4454.5830 55.5195,-4454.4127
C56.9535,-4454.4960 57.3562,-4456.1535 56.8770,-4457.2590
Z" 
style="fill-rule: evenodd; fill: #010101; "/>
<path d=" 
M29.9093,-4491.0000
L28.5908,-4489.6815
L30.1815,-4488.0908
L30.8408,-4488.7500
L40.5000,-4488.7500
L40.5000,-4491.0000
L29.9093,-4491.0000
Z" 
style="fill-rule: evenodd; fill: #000000; "/>
<path d=" 
M30.1815,-4508.3407
L30.8407,-4509.0000
L33.7500,-4509.0000
L33.7500,-4511.2500
L29.9092,-4511.2500
L28.5907,-4509.9315
L30.1815,-4508.3407
Z" 
style="fill-rule: evenodd; fill: #000000; "/>
<path d=" 
M36.2723,-4502.2500
L40.5000,-4502.2500
L40.5000,-4504.5000
L34.4093,-4504.5000
L34.2158,-4504.3065
L36.2723,-4502.2500
Z" 
style="fill-rule: evenodd; fill: #000000; "/>
<path d=" 
M33.5963,-4477.5000
L36.6360,-4477.5000
L54.0195,-4496.6250
L36.6360,-4515.7500
L33.5963,-4515.7500
L50.9798,-4496.6250
L33.5963,-4477.5000
Z" 
style="fill-rule: evenodd; fill: #000000; "/>
<path d=" 
M18.0000,-4484.2500
L6.7500,-4484.2500
L9.0000,-4482.0000
L18.0000,-4482.0000
L18.0000,-4484.2500
Z" 
style="fill-rule: evenodd; fill: #000000; "/>
<path d=" 
M23.8185,-4484.9093
L23.1593,-4484.2500
L20.2500,-4484.2500
L20.2500,-4482.0000
L24.0908,-4482.0000
L25.4093,-4483.3185
L23.8185,-4484.9093
Z" 
style="fill-rule: evenodd; fill: #000000; "/>
<path d=" 
M18.0000,-4491.0000
L6.7500,-4491.0000
L9.0000,-4488.7500
L18.0000,-4488.7500
L18.0000,-4491.0000
Z" 
style="fill-rule: evenodd; fill: #000000; "/>
<path d=" 
M30.8407,-4484.2500
L24.0907,-4491.0000
L20.2500,-4491.0000
L20.2500,-4488.7500
L23.1592,-4488.7500
L29.9092,-4482.0000
L33.7500,-4482.0000
L33.7500,-4484.2500
L30.8407,-4484.2500
Z" 
style="fill-rule: evenodd; fill: #000000; "/>
<path d=" 
M18.0000,-4497.7500
L6.7500,-4497.7500
L9.0000,-4495.5000
L18.0000,-4495.5000
L18.0000,-4497.7500
Z" 
style="fill-rule: evenodd; fill: #000000; "/>
<path d=" 
M29.4435,-4499.5343
L27.6593,-4497.7500
L20.2500,-4497.7500
L20.2500,-4495.5000
L28.5908,-4495.5000
L31.0343,-4497.9435
L29.4435,-4499.5343
Z" 
style="fill-rule: evenodd; fill: #000000; "/>
<path d=" 
M18.0000,-4504.5000
L6.7500,-4504.5000
L9.0000,-4502.2500
L18.0000,-4502.2500
L18.0000,-4504.5000
Z" 
style="fill-rule: evenodd; fill: #000000; "/>
<path d=" 
M23.8185,-4505.1592
L23.1593,-4504.5000
L20.2500,-4504.5000
L20.2500,-4502.2500
L24.0908,-4502.2500
L25.4093,-4503.5685
L23.8185,-4505.1592
Z" 
style="fill-rule: evenodd; fill: #000000; "/>
<path d=" 
M18.0000,-4511.2500
L6.7500,-4511.2500
L9.0000,-4509.0000
L18.0000,-4509.0000
L18.0000,-4511.2500
Z" 
style="fill-rule: evenodd; fill: #000000; "/>
<path d=" 
M37.5907,-4497.7500
L24.0907,-4511.2500
L20.2500,-4511.2500
L20.2500,-4509.0000
L23.1592,-4509.0000
L36.6592,-4495.5000
L45.0000,-4495.5000
L45.0000,-4497.7500
L37.5907,-4497.7500
Z" 
style="fill-rule: evenodd; fill: #000000; "/>
<text x="-13.2486" y="-4441.5000">
<tspan font-family="Arial Narrow" font-weight="bold" font-size="12.0000" fill="#000000" fill-opacity="1.0000" stroke-opacity="1.0000" >
Heavy Forwaders, Linux</tspan>
</text>
</svg>
