<?xml version="1.0" encoding="UTF-8" standalone="no"?>
<svg version="1.1" xmlns="http://www.w3.org/2000/svg" xmlns:xlink="http://www.w3.org/1999/xlink" width="0.8438in" height="1.0938in" viewBox="0 0 60.7500 78.7500" >
<g id="Layer1058" >
<path d=" 
M5.6447,-4533.7499
C3.5770,-4533.7499 1.8947,-4532.0676 1.8947,-4529.9999
L1.8947,-4479.3749
C1.8947,-4476.2721 4.4185,-4473.7499 7.5197,-4473.7499
L52.5197,-4473.7499
C55.6210,-4473.7499 58.1447,-4476.2721 58.1447,-4479.3749
L58.1447,-4529.9999
C58.1447,-4532.0676 56.4632,-4533.7499 54.3947,-4533.7499
L5.6447,-4533.7499
Z
M54.3947,-4459.4999
C56.4632,-4459.4999 58.1447,-4461.1814 58.1447,-4463.2499
L58.1447,-4476.3809
C57.0707,-4474.3709 54.9527,-4472.9999 52.5197,-4472.9999
L7.5197,-4472.9999
C5.0860,-4472.9999 2.9687,-4474.3709 1.8947,-4476.3809
L1.8947,-4463.2499
C1.8947,-4461.1814 3.5770,-4459.4999 5.6447,-4459.4999
L54.3947,-4459.4999
Z" 
style="stroke-width: 0.7200; stroke-linecap: round; stroke-linejoin: round; fill-rule: evenodd; fill: #ffffff; "/>
<path d=" 
M5.6447,-4533.7499
C3.5770,-4533.7499 1.8947,-4532.0676 1.8947,-4529.9999
L1.8947,-4479.3749
C1.8947,-4476.2721 4.4185,-4473.7499 7.5197,-4473.7499
L52.5197,-4473.7499
C55.6210,-4473.7499 58.1447,-4476.2721 58.1447,-4479.3749
L58.1447,-4529.9999
C58.1447,-4532.0676 56.4632,-4533.7499 54.3947,-4533.7499
L5.6447,-4533.7499
Z
M54.3947,-4459.4999
C56.4632,-4459.4999 58.1447,-4461.1814 58.1447,-4463.2499
L58.1447,-4476.3809
C57.0707,-4474.3709 54.9527,-4472.9999 52.5197,-4472.9999
L7.5197,-4472.9999
C5.0860,-4472.9999 2.9687,-4474.3709 1.8947,-4476.3809
L1.8947,-4463.2499
C1.8947,-4461.1814 3.5770,-4459.4999 5.6447,-4459.4999
L54.3947,-4459.4999
Z" 
style="stroke-width: 0.7200; stroke: #ffffff; stroke-dasharray: none; stroke-linecap: round; stroke-linejoin: round; fill: none; "/>
</g>
<path d=" 
M29.9093,-4497.7500
L28.5908,-4496.4315
L30.1815,-4494.8408
L30.8408,-4495.5000
L40.5000,-4495.5000
L40.5000,-4497.7500
L29.9093,-4497.7500
Z" 
style="fill-rule: evenodd; fill: #000000; "/>
<path d=" 
M30.1815,-4515.0907
L30.8407,-4515.7500
L33.7500,-4515.7500
L33.7500,-4518.0000
L29.9092,-4518.0000
L28.5907,-4516.6815
L30.1815,-4515.0907
Z" 
style="fill-rule: evenodd; fill: #000000; "/>
<path d=" 
M36.2722,-4509.0000
L40.5000,-4509.0000
L40.5000,-4511.2500
L34.4092,-4511.2500
L34.2157,-4511.0565
L36.2722,-4509.0000
Z" 
style="fill-rule: evenodd; fill: #000000; "/>
<path d=" 
M33.5963,-4484.2500
L36.6360,-4484.2500
L54.0195,-4503.3750
L36.6360,-4522.5000
L33.5963,-4522.5000
L50.9798,-4503.3750
L33.5963,-4484.2500
Z" 
style="fill-rule: evenodd; fill: #000000; "/>
<path d=" 
M18.0000,-4491.0000
L6.7500,-4491.0000
L9.0000,-4488.7500
L18.0000,-4488.7500
L18.0000,-4491.0000
Z" 
style="fill-rule: evenodd; fill: #000000; "/>
<path d=" 
M23.8185,-4491.6593
L23.1593,-4491.0000
L20.2500,-4491.0000
L20.2500,-4488.7500
L24.0908,-4488.7500
L25.4093,-4490.0685
L23.8185,-4491.6593
Z" 
style="fill-rule: evenodd; fill: #000000; "/>
<path d=" 
M18.0000,-4497.7500
L6.7500,-4497.7500
L9.0000,-4495.5000
L18.0000,-4495.5000
L18.0000,-4497.7500
Z" 
style="fill-rule: evenodd; fill: #000000; "/>
<path d=" 
M30.8407,-4491.0000
L24.0907,-4497.7500
L20.2500,-4497.7500
L20.2500,-4495.5000
L23.1592,-4495.5000
L29.9092,-4488.7500
L33.7500,-4488.7500
L33.7500,-4491.0000
L30.8407,-4491.0000
Z" 
style="fill-rule: evenodd; fill: #000000; "/>
<path d=" 
M18.0000,-4504.5000
L6.7500,-4504.5000
L9.0000,-4502.2500
L18.0000,-4502.2500
L18.0000,-4504.5000
Z" 
style="fill-rule: evenodd; fill: #000000; "/>
<path d=" 
M29.4435,-4506.2843
L27.6592,-4504.5000
L20.2500,-4504.5000
L20.2500,-4502.2500
L28.5907,-4502.2500
L31.0342,-4504.6935
L29.4435,-4506.2843
Z" 
style="fill-rule: evenodd; fill: #000000; "/>
<path d=" 
M18.0000,-4511.2500
L6.7500,-4511.2500
L9.0000,-4509.0000
L18.0000,-4509.0000
L18.0000,-4511.2500
Z" 
style="fill-rule: evenodd; fill: #000000; "/>
<path d=" 
M23.8185,-4511.9093
L23.1593,-4511.2500
L20.2500,-4511.2500
L20.2500,-4509.0000
L24.0908,-4509.0000
L25.4093,-4510.3185
L23.8185,-4511.9093
Z" 
style="fill-rule: evenodd; fill: #000000; "/>
<path d=" 
M18.0000,-4518.0000
L6.7500,-4518.0000
L9.0000,-4515.7500
L18.0000,-4515.7500
L18.0000,-4518.0000
Z" 
style="fill-rule: evenodd; fill: #000000; "/>
<path d=" 
M37.5907,-4504.5000
L24.0908,-4518.0000
L20.2500,-4518.0000
L20.2500,-4515.7500
L23.1592,-4515.7500
L36.6593,-4502.2500
L45.0000,-4502.2500
L45.0000,-4504.5000
L37.5907,-4504.5000
Z" 
style="fill-rule: evenodd; fill: #000000; "/>
<path d=" 
M54.7500,-4536.0000
L6.0000,-4536.0000
C2.7008,-4536.0000 0.0000,-4533.2993 0.0000,-4530.0000
L0.0000,-4463.2500
C0.0000,-4459.9507 2.7008,-4457.2500 6.0000,-4457.2500
L54.7500,-4457.2500
C58.0492,-4457.2500 60.7500,-4459.9507 60.7500,-4463.2500
L60.7500,-4530.0000
C60.7500,-4533.2993 58.0492,-4536.0000 54.7500,-4536.0000
Z
M2.2500,-4530.0000
C2.2500,-4532.0678 3.9322,-4533.7500 6.0000,-4533.7500
L54.7500,-4533.7500
C56.8185,-4533.7500 58.5000,-4532.0678 58.5000,-4530.0000
L58.5000,-4479.3750
C58.5000,-4476.2722 55.9763,-4473.7500 52.8750,-4473.7500
L7.8750,-4473.7500
C4.7737,-4473.7500 2.2500,-4476.2722 2.2500,-4479.3750
L2.2500,-4530.0000
Z
M54.7500,-4459.5000
L6.0000,-4459.5000
C3.9322,-4459.5000 2.2500,-4461.1815 2.2500,-4463.2500
L2.2500,-4476.3810
C3.3240,-4474.3710 5.4413,-4473.0000 7.8750,-4473.0000
L52.8750,-4473.0000
C55.3080,-4473.0000 57.4260,-4474.3710 58.5000,-4476.3810
L58.5000,-4463.2500
C58.5000,-4461.1815 56.8185,-4459.5000 54.7500,-4459.5000
Z" 
style="fill-rule: evenodd; fill: #000000; "/>
<path d=" 
M9.0000,-4468.5000
C7.7573,-4468.5000 6.7500,-4467.4920 6.7500,-4466.2500
C6.7500,-4465.0080 7.7573,-4464.0000 9.0000,-4464.0000
C8.1728,-4464.0000 7.5000,-4464.6720 7.5000,-4465.5000
C7.5000,-4466.3280 8.1720,-4467.0000 9.0000,-4467.0000
C9.8280,-4467.0000 10.5000,-4466.3280 10.5000,-4465.5000
C10.5000,-4464.6720 9.8280,-4464.0000 9.0000,-4464.0000
C10.2428,-4464.0000 11.2500,-4465.0080 11.2500,-4466.2500
C11.2500,-4467.4920 10.2428,-4468.5000 9.0000,-4468.5000
Z" 
style="fill-rule: evenodd; fill: #000000; "/>
<text x="0.0000" y="-4457.2500">
<tspan font-family="Arial Narrow" font-weight="bold" font-size="12.0000" fill="#000000" fill-opacity="1.0000" stroke-opacity="1.0000" >
Heavy Forwarder</tspan>
</text>
</svg>
