<?xml version="1.0" encoding="UTF-8" standalone="no"?>
<svg version="1.1" xmlns="http://www.w3.org/2000/svg" xmlns:xlink="http://www.w3.org/1999/xlink" width="0.9375in" height="1.7500in" viewBox="0 0 67.5000 126.0000" >
<g id="Layer1107" >
<path d=" 
M6.0000,-4486.5000
C3.9323,-4486.5000 2.2500,-4484.8178 2.2500,-4482.7500
L2.2500,-4432.1250
C2.2500,-4429.0222 4.7738,-4426.5000 7.8750,-4426.5000
L9.0000,-4426.5000
L9.0000,-4425.7500
L7.8750,-4425.7500
C5.4413,-4425.7500 3.3240,-4427.1210 2.2500,-4429.1310
L2.2500,-4416.0000
C2.2500,-4413.9315 3.9323,-4412.2500 6.0000,-4412.2500
L54.7500,-4412.2500
C56.8185,-4412.2500 58.5000,-4413.9315 58.5000,-4416.0000
L58.5000,-4419.0000
L61.5000,-4419.0000
C63.5685,-4419.0000 65.2500,-4420.6815 65.2500,-4422.7500
L65.2500,-4435.8810
C64.1760,-4433.8710 62.0580,-4432.5000 59.6250,-4432.5000
L58.5000,-4432.5000
L58.5000,-4433.2500
L59.6250,-4433.2500
C62.7263,-4433.2500 65.2500,-4435.7723 65.2500,-4438.8750
L65.2500,-4489.5000
C65.2500,-4491.5678 63.5685,-4493.2500 61.5000,-4493.2500
L12.7500,-4493.2500
C10.6823,-4493.2500 9.0000,-4491.5678 9.0000,-4489.5000
L9.0000,-4486.5000
L6.0000,-4486.5000
Z
M19.5000,-4533.7500
C18.6870,-4533.7500 18.0000,-4533.0630 18.0000,-4532.2500
L18.0000,-4495.5000
L56.2500,-4495.5000
L56.2500,-4532.2500
C56.2500,-4533.0630 55.5630,-4533.7500 54.7500,-4533.7500
L19.5000,-4533.7500
Z" 
style="stroke-width: 0.7200; stroke-linecap: round; stroke-linejoin: round; fill-rule: evenodd; fill: #ffffff; "/>
<path d=" 
M6.0000,-4486.5000
C3.9323,-4486.5000 2.2500,-4484.8178 2.2500,-4482.7500
L2.2500,-4432.1250
C2.2500,-4429.0222 4.7738,-4426.5000 7.8750,-4426.5000
L9.0000,-4426.5000
L9.0000,-4425.7500
L7.8750,-4425.7500
C5.4413,-4425.7500 3.3240,-4427.1210 2.2500,-4429.1310
L2.2500,-4416.0000
C2.2500,-4413.9315 3.9323,-4412.2500 6.0000,-4412.2500
L54.7500,-4412.2500
C56.8185,-4412.2500 58.5000,-4413.9315 58.5000,-4416.0000
L58.5000,-4419.0000
L61.5000,-4419.0000
C63.5685,-4419.0000 65.2500,-4420.6815 65.2500,-4422.7500
L65.2500,-4435.8810
C64.1760,-4433.8710 62.0580,-4432.5000 59.6250,-4432.5000
L58.5000,-4432.5000
L58.5000,-4433.2500
L59.6250,-4433.2500
C62.7263,-4433.2500 65.2500,-4435.7723 65.2500,-4438.8750
L65.2500,-4489.5000
C65.2500,-4491.5678 63.5685,-4493.2500 61.5000,-4493.2500
L12.7500,-4493.2500
C10.6823,-4493.2500 9.0000,-4491.5678 9.0000,-4489.5000
L9.0000,-4486.5000
L6.0000,-4486.5000
Z
M19.5000,-4533.7500
C18.6870,-4533.7500 18.0000,-4533.0630 18.0000,-4532.2500
L18.0000,-4495.5000
L56.2500,-4495.5000
L56.2500,-4532.2500
C56.2500,-4533.0630 55.5630,-4533.7500 54.7500,-4533.7500
L19.5000,-4533.7500
Z" 
style="stroke-width: 0.7200; stroke: #ffffff; stroke-dasharray: none; stroke-linecap: round; stroke-linejoin: round; fill: none; "/>
</g>
<path d=" 
M9.0000,-4421.2500
C7.7572,-4421.2500 6.7500,-4420.2420 6.7500,-4419.0000
C6.7500,-4417.7580 7.7572,-4416.7500 9.0000,-4416.7500
C8.1727,-4416.7500 7.5000,-4417.4220 7.5000,-4418.2500
C7.5000,-4419.0780 8.1720,-4419.7500 9.0000,-4419.7500
C9.8280,-4419.7500 10.5000,-4419.0780 10.5000,-4418.2500
C10.5000,-4417.4220 9.8280,-4416.7500 9.0000,-4416.7500
C10.2427,-4416.7500 11.2500,-4417.7580 11.2500,-4419.0000
C11.2500,-4420.2420 10.2427,-4421.2500 9.0000,-4421.2500
Z" 
style="fill-rule: evenodd; fill: #000000; "/>
<path d=" 
M61.5000,-4495.5000
L12.7500,-4495.5000
C9.4507,-4495.5000 6.7500,-4492.7993 6.7500,-4489.5000
L6.7500,-4488.7500
L6.0000,-4488.7500
C2.7007,-4488.7500 0.0000,-4486.0493 0.0000,-4482.7500
L0.0000,-4416.0000
C0.0000,-4412.7008 2.7007,-4410.0000 6.0000,-4410.0000
L54.7500,-4410.0000
C58.0493,-4410.0000 60.7500,-4412.7008 60.7500,-4416.0000
L60.7500,-4416.7500
L61.5000,-4416.7500
C64.7993,-4416.7500 67.5000,-4419.4508 67.5000,-4422.7500
L67.5000,-4489.5000
C67.5000,-4492.7993 64.7993,-4495.5000 61.5000,-4495.5000
Z
M58.5000,-4416.0000
C58.5000,-4413.9315 56.8185,-4412.2500 54.7500,-4412.2500
L6.0000,-4412.2500
C3.9323,-4412.2500 2.2500,-4413.9315 2.2500,-4416.0000
L2.2500,-4429.1310
C3.3240,-4427.1210 5.4412,-4425.7500 7.8750,-4425.7500
L52.8750,-4425.7500
C55.3080,-4425.7500 57.4260,-4427.1210 58.5000,-4429.1310
L58.5000,-4416.0000
Z
M58.5000,-4432.1250
C58.5000,-4429.0223 55.9763,-4426.5000 52.8750,-4426.5000
L7.8750,-4426.5000
C4.7737,-4426.5000 2.2500,-4429.0223 2.2500,-4432.1250
L2.2500,-4482.7500
C2.2500,-4484.8178 3.9323,-4486.5000 6.0000,-4486.5000
L54.7500,-4486.5000
C56.8185,-4486.5000 58.5000,-4484.8178 58.5000,-4482.7500
L58.5000,-4432.1250
Z
M65.2500,-4422.7500
C65.2500,-4420.6815 63.5685,-4419.0000 61.5000,-4419.0000
L60.7500,-4419.0000
L60.7500,-4432.6110
C62.6985,-4432.9613 64.3463,-4434.1890 65.2500,-4435.8803
L65.2500,-4422.7500
Z
M65.2500,-4438.8750
C65.2500,-4436.1578 63.3143,-4433.8860 60.7500,-4433.3633
L60.7500,-4482.7500
C60.7500,-4486.0493 58.0493,-4488.7500 54.7500,-4488.7500
L9.0000,-4488.7500
L9.0000,-4489.5000
C9.0000,-4491.5678 10.6823,-4493.2500 12.7500,-4493.2500
L61.5000,-4493.2500
C63.5685,-4493.2500 65.2500,-4491.5678 65.2500,-4489.5000
L65.2500,-4438.8750
Z" 
style="fill-rule: evenodd; fill: #000000; "/>
<path d=" 
M29.9092,-4450.5000
L28.5907,-4449.1815
L30.1815,-4447.5908
L30.8407,-4448.2500
L40.5000,-4448.2500
L40.5000,-4450.5000
L29.9092,-4450.5000
Z" 
style="fill-rule: evenodd; fill: #000000; "/>
<path d=" 
M30.1815,-4467.8408
L30.8407,-4468.5000
L33.7500,-4468.5000
L33.7500,-4470.7500
L29.9092,-4470.7500
L28.5907,-4469.4315
L30.1815,-4467.8408
Z" 
style="fill-rule: evenodd; fill: #000000; "/>
<path d=" 
M36.2722,-4461.7500
L40.5000,-4461.7500
L40.5000,-4464.0000
L34.4093,-4464.0000
L34.2157,-4463.8065
L36.2722,-4461.7500
Z" 
style="fill-rule: evenodd; fill: #000000; "/>
<path d=" 
M33.5963,-4437.0000
L36.6360,-4437.0000
L54.0195,-4456.1250
L36.6360,-4475.2500
L33.5963,-4475.2500
L50.9798,-4456.1250
L33.5963,-4437.0000
Z" 
style="fill-rule: evenodd; fill: #000000; "/>
<path d=" 
M18.0000,-4443.7500
L6.7500,-4443.7500
L9.0000,-4441.5000
L18.0000,-4441.5000
L18.0000,-4443.7500
Z" 
style="fill-rule: evenodd; fill: #000000; "/>
<path d=" 
M23.8185,-4444.4093
L23.1593,-4443.7500
L20.2500,-4443.7500
L20.2500,-4441.5000
L24.0908,-4441.5000
L25.4093,-4442.8185
L23.8185,-4444.4093
Z" 
style="fill-rule: evenodd; fill: #000000; "/>
<path d=" 
M18.0000,-4450.5000
L6.7500,-4450.5000
L9.0000,-4448.2500
L18.0000,-4448.2500
L18.0000,-4450.5000
Z" 
style="fill-rule: evenodd; fill: #000000; "/>
<path d=" 
M30.8407,-4443.7500
L24.0907,-4450.5000
L20.2500,-4450.5000
L20.2500,-4448.2500
L23.1593,-4448.2500
L29.9093,-4441.5000
L33.7500,-4441.5000
L33.7500,-4443.7500
L30.8407,-4443.7500
Z" 
style="fill-rule: evenodd; fill: #000000; "/>
<path d=" 
M18.0000,-4457.2500
L6.7500,-4457.2500
L9.0000,-4455.0000
L18.0000,-4455.0000
L18.0000,-4457.2500
Z" 
style="fill-rule: evenodd; fill: #000000; "/>
<path d=" 
M29.4435,-4459.0343
L27.6592,-4457.2500
L20.2500,-4457.2500
L20.2500,-4455.0000
L28.5907,-4455.0000
L31.0342,-4457.4435
L29.4435,-4459.0343
Z" 
style="fill-rule: evenodd; fill: #000000; "/>
<path d=" 
M18.0000,-4464.0000
L6.7500,-4464.0000
L9.0000,-4461.7500
L18.0000,-4461.7500
L18.0000,-4464.0000
Z" 
style="fill-rule: evenodd; fill: #000000; "/>
<path d=" 
M23.8185,-4464.6593
L23.1593,-4464.0000
L20.2500,-4464.0000
L20.2500,-4461.7500
L24.0908,-4461.7500
L25.4093,-4463.0685
L23.8185,-4464.6593
Z" 
style="fill-rule: evenodd; fill: #000000; "/>
<path d=" 
M18.0000,-4470.7500
L6.7500,-4470.7500
L9.0000,-4468.5000
L18.0000,-4468.5000
L18.0000,-4470.7500
Z" 
style="fill-rule: evenodd; fill: #000000; "/>
<path d=" 
M37.5907,-4457.2500
L24.0907,-4470.7500
L20.2500,-4470.7500
L20.2500,-4468.5000
L23.1592,-4468.5000
L36.6592,-4455.0000
L45.0000,-4455.0000
L45.0000,-4457.2500
L37.5907,-4457.2500
Z" 
style="fill-rule: evenodd; fill: #000000; "/>
<path d=" 
M55.1666,-4534.1454
C55.7674,-4534.1454 56.2745,-4533.6372 56.2745,-4533.0351
L56.2745,-4496.3093
C56.2745,-4495.7078 55.7674,-4495.1984 55.1666,-4495.1984
L18.5209,-4495.1984
C17.9201,-4495.1984 17.4130,-4495.7078 17.4130,-4496.3093
L17.4130,-4533.0351
C17.4130,-4533.6372 17.9201,-4534.1454 18.5209,-4534.1454
L55.1666,-4534.1454
Z
M55.1666,-4536.0000
L18.5209,-4536.0000
C16.8937,-4536.0000 15.5625,-4534.6659 15.5625,-4533.0351
L15.5625,-4496.3093
C15.5625,-4494.6791 16.8937,-4493.3438 18.5209,-4493.3438
L55.1666,-4493.3438
C56.7938,-4493.3438 58.1250,-4494.6791 58.1250,-4496.3093
L58.1250,-4533.0351
C58.1250,-4534.6659 56.7938,-4536.0000 55.1666,-4536.0000
Z" 
style="fill-rule: evenodd; fill: #000000; "/>
<path d=" 
M31.3125,-4497.7500
L42.5625,-4497.7500
L42.5625,-4509.0000
L31.3125,-4509.0000
L31.3125,-4497.7500
Z" 
style="fill-rule: evenodd; fill: #070808; "/>
<path d=" 
M35.0625,-4527.0000
L38.8125,-4527.0000
L38.8125,-4530.7500
L35.0625,-4530.7500
L35.0625,-4527.0000
Z" 
style="fill-rule: evenodd; fill: #070808; "/>
<path d=" 
M49.3125,-4524.7500
L53.0625,-4524.7500
L53.0625,-4528.5000
L49.3125,-4528.5000
L49.3125,-4524.7500
Z" 
style="fill-rule: evenodd; fill: #070808; "/>
<path d=" 
M20.8125,-4524.7500
L24.5625,-4524.7500
L24.5625,-4528.5000
L20.8125,-4528.5000
L20.8125,-4524.7500
Z" 
style="fill-rule: evenodd; fill: #070808; "/>
<path d=" 
M35.8125,-4511.2500
L38.0625,-4511.2500
L38.0625,-4522.5000
L35.8125,-4522.5000
L35.8125,-4511.2500
Z" 
style="fill-rule: evenodd; fill: #070808; "/>
<path d=" 
M42.5625,-4511.2500
L40.3125,-4511.2500
L40.3125,-4515.3750
C40.3125,-4516.4955 40.9103,-4517.9378 41.7030,-4518.7305
L45.1425,-4522.1700
L46.7333,-4520.5793
L43.2938,-4517.1398
C42.9173,-4516.7640 42.5625,-4515.9060 42.5625,-4515.3750
L42.5625,-4511.2500
Z" 
style="fill-rule: evenodd; fill: #070808; "/>
<path d=" 
M33.5625,-4511.2500
L31.3125,-4511.2500
L31.3125,-4515.3750
C31.3125,-4515.9060 30.9577,-4516.7640 30.5820,-4517.1398
L27.1425,-4520.5793
L28.7332,-4522.1700
L32.1727,-4518.7305
C32.9647,-4517.9385 33.5625,-4516.4963 33.5625,-4515.3750
L33.5625,-4511.2500
Z" 
style="fill-rule: evenodd; fill: #070808; "/>
<path d=" 
M47.0625,-4518.0000
L47.0625,-4522.5000
L42.5625,-4522.5000
L47.0625,-4518.0000
Z" 
style="fill-rule: evenodd; fill: #000000; "/>
<path d=" 
M31.3125,-4522.5000
L26.8125,-4522.5000
L26.8125,-4518.0000
L31.3125,-4522.5000
Z" 
style="fill-rule: evenodd; fill: #000000; "/>
<path d=" 
M40.3125,-4521.3750
L36.9375,-4524.7500
L33.5625,-4521.3750
L40.3125,-4521.3750
Z" 
style="fill-rule: evenodd; fill: #000000; "/>
<text x="0.0000" y="-4410.0000">
<tspan font-family="Arial Narrow" font-weight="bold" font-size="12.0000" fill="#000000" fill-opacity="1.0000" stroke-opacity="1.0000" >
Heavy Forwarders With Load Balancers</tspan>
</text>
</svg>
