<?xml version="1.0" encoding="UTF-8" standalone="no"?>
<svg version="1.1" xmlns="http://www.w3.org/2000/svg" xmlns:xlink="http://www.w3.org/1999/xlink" width="0.8438in" height="1.0938in" viewBox="0 0 60.7500 78.7500" >
<g id="Layer1119" >
<path d=" 
M6.0000,-4533.7499
C3.9322,-4533.7499 2.2500,-4532.0676 2.2500,-4529.9999
L2.2500,-4479.3749
C2.2500,-4476.2721 4.7737,-4473.7499 7.8750,-4473.7499
L52.8750,-4473.7499
C55.9762,-4473.7499 58.5000,-4476.2721 58.5000,-4479.3749
L58.5000,-4529.9999
C58.5000,-4532.0676 56.8185,-4533.7499 54.7500,-4533.7499
L6.0000,-4533.7499
Z
M54.7500,-4459.4999
C56.8185,-4459.4999 58.5000,-4461.1814 58.5000,-4463.2499
L58.5000,-4476.3809
C57.4260,-4474.3709 55.3080,-4472.9999 52.8750,-4472.9999
L7.8750,-4472.9999
C5.4412,-4472.9999 3.3240,-4474.3709 2.2500,-4476.3809
L2.2500,-4463.2499
C2.2500,-4461.1814 3.9322,-4459.4999 6.0000,-4459.4999
L54.7500,-4459.4999
Z" 
style="stroke-width: 0.7200; stroke-linecap: round; stroke-linejoin: round; fill-rule: evenodd; fill: #ffffff; "/>
<path d=" 
M6.0000,-4533.7499
C3.9322,-4533.7499 2.2500,-4532.0676 2.2500,-4529.9999
L2.2500,-4479.3749
C2.2500,-4476.2721 4.7737,-4473.7499 7.8750,-4473.7499
L52.8750,-4473.7499
C55.9762,-4473.7499 58.5000,-4476.2721 58.5000,-4479.3749
L58.5000,-4529.9999
C58.5000,-4532.0676 56.8185,-4533.7499 54.7500,-4533.7499
L6.0000,-4533.7499
Z
M54.7500,-4459.4999
C56.8185,-4459.4999 58.5000,-4461.1814 58.5000,-4463.2499
L58.5000,-4476.3809
C57.4260,-4474.3709 55.3080,-4472.9999 52.8750,-4472.9999
L7.8750,-4472.9999
C5.4412,-4472.9999 3.3240,-4474.3709 2.2500,-4476.3809
L2.2500,-4463.2499
C2.2500,-4461.1814 3.9322,-4459.4999 6.0000,-4459.4999
L54.7500,-4459.4999
Z" 
style="stroke-width: 0.7200; stroke: #ffffff; stroke-dasharray: none; stroke-linecap: round; stroke-linejoin: round; fill: none; "/>
</g>
<path d=" 
M9.0000,-4468.5000
C7.7573,-4468.5000 6.7500,-4467.4935 6.7500,-4466.2500
C6.7500,-4465.0095 7.7573,-4464.0000 9.0000,-4464.0000
C8.1728,-4464.0000 7.5000,-4464.6735 7.5000,-4465.5000
C7.5000,-4466.3287 8.1720,-4467.0000 9.0000,-4467.0000
C9.8280,-4467.0000 10.5000,-4466.3287 10.5000,-4465.5000
C10.5000,-4464.6735 9.8280,-4464.0000 9.0000,-4464.0000
C10.2428,-4464.0000 11.2500,-4465.0095 11.2500,-4466.2500
C11.2500,-4467.4935 10.2428,-4468.5000 9.0000,-4468.5000
Z" 
style="fill-rule: evenodd; fill: #010101; "/>
<path d=" 
M54.7500,-4536.0000
L6.0000,-4536.0000
C2.7008,-4536.0000 0.0000,-4533.2993 0.0000,-4530.0000
L0.0000,-4463.2500
C0.0000,-4459.9507 2.7008,-4457.2500 6.0000,-4457.2500
L54.7500,-4457.2500
C58.0492,-4457.2500 60.7500,-4459.9507 60.7500,-4463.2500
L60.7500,-4530.0000
C60.7500,-4533.2993 58.0492,-4536.0000 54.7500,-4536.0000
Z
M58.5000,-4463.2500
C58.5000,-4461.1815 56.8185,-4459.5000 54.7500,-4459.5000
L6.0000,-4459.5000
C3.9322,-4459.5000 2.2500,-4461.1815 2.2500,-4463.2500
L2.2500,-4476.3818
C3.3233,-4474.3710 5.4413,-4473.0000 7.8750,-4473.0000
L52.8750,-4473.0000
C55.3080,-4473.0000 57.4260,-4474.3710 58.5000,-4476.3818
L58.5000,-4463.2500
Z
M58.5000,-4492.1250
L58.5000,-4479.3750
C58.5000,-4476.2722 55.9763,-4473.7500 52.8750,-4473.7500
L7.8750,-4473.7500
C4.7737,-4473.7500 2.2500,-4476.2722 2.2500,-4479.3750
L2.2500,-4492.1250
L2.2500,-4530.0000
C2.2500,-4532.0678 3.9322,-4533.7500 6.0000,-4533.7500
L54.7500,-4533.7500
C56.8185,-4533.7500 58.5000,-4532.0678 58.5000,-4530.0000
L58.5000,-4492.1250
Z" 
style="fill-rule: evenodd; fill: #010101; "/>
<path d=" 
M47.2500,-4509.0000
L40.5000,-4509.0000
C39.2632,-4509.0000 38.2500,-4507.9868 38.2500,-4506.7500
L38.2500,-4504.5000
L9.0000,-4504.5000
L11.2500,-4502.2500
L38.2500,-4502.2500
L38.2500,-4500.0000
C38.2500,-4498.7632 39.2632,-4497.7500 40.5000,-4497.7500
L47.2500,-4497.7500
C48.4867,-4497.7500 49.5000,-4498.7632 49.5000,-4500.0000
L49.5000,-4506.7500
C49.5000,-4507.9868 48.4867,-4509.0000 47.2500,-4509.0000
Z
M47.2500,-4500.0000
L40.5000,-4500.0000
L40.5000,-4506.7500
L47.2500,-4506.7500
L47.2500,-4500.0000
Z" 
style="fill-rule: evenodd; fill: #010101; "/>
<path d=" 
M42.7500,-4491.0000
L39.3750,-4491.0000
L36.0000,-4491.0000
L35.3407,-4491.0000
L28.5907,-4497.7500
L9.0000,-4497.7500
L11.2500,-4495.5000
L27.6592,-4495.5000
L33.7500,-4489.4092
L33.7500,-4488.7500
L33.7500,-4485.3750
L33.7500,-4482.0000
C33.7500,-4480.7632 34.7632,-4479.7500 36.0000,-4479.7500
L42.7500,-4479.7500
C43.9867,-4479.7500 45.0000,-4480.7632 45.0000,-4482.0000
L45.0000,-4488.7500
C45.0000,-4489.9868 43.9867,-4491.0000 42.7500,-4491.0000
Z
M42.7500,-4482.0000
L36.0000,-4482.0000
L36.0000,-4485.3750
L36.0000,-4488.7500
L39.3750,-4488.7500
L42.7500,-4488.7500
L42.7500,-4482.0000
Z" 
style="fill-rule: evenodd; fill: #010101; "/>
<path d=" 
M47.2500,-4527.0000
L40.5000,-4527.0000
C39.2632,-4527.0000 38.2500,-4525.9868 38.2500,-4524.7500
L38.2500,-4521.3750
L38.2500,-4518.0000
L38.2500,-4517.3407
L32.1592,-4511.2500
L9.0000,-4511.2500
L11.2500,-4509.0000
L33.0907,-4509.0000
L39.8407,-4515.7500
L40.5000,-4515.7500
L43.8750,-4515.7500
L47.2500,-4515.7500
C48.4867,-4515.7500 49.5000,-4516.7632 49.5000,-4518.0000
L49.5000,-4524.7500
C49.5000,-4525.9868 48.4867,-4527.0000 47.2500,-4527.0000
Z
M47.2500,-4518.0000
L43.8750,-4518.0000
L40.5000,-4518.0000
L40.5000,-4521.3750
L40.5000,-4524.7500
L47.2500,-4524.7500
L47.2500,-4518.0000
Z" 
style="fill-rule: evenodd; fill: #010101; "/>
<text x="0.0000" y="-4457.2500">
<tspan font-family="Arial Narrow" font-weight="bold" font-size="12.0000" fill="#000000" fill-opacity="1.0000" stroke-opacity="1.0000" >
</tspan>
<tspan font-family="Arial Narrow" font-weight="bold" font-size="12.0000" fill="#000000" fill-opacity="1.0000" stroke-opacity="1.0000" >
Deployment Server</tspan>
</text>
</svg>
