<?xml version="1.0" encoding="UTF-8" standalone="no"?>
<svg version="1.1" xmlns="http://www.w3.org/2000/svg" xmlns:xlink="http://www.w3.org/1999/xlink" width="1.0938in" height="0.8281in" viewBox="0 0 78.7500 59.6250" >
<g id="Layer1023" >
<path d=" 
M17.6273,-4533.6600
L39.9900,-4527.6480
L61.1220,-4533.6600
L77.0625,-4530.3751
L76.5000,-4489.3230
L39.7500,-4478.8223
L2.2500,-4489.3230
L1.2656,-4530.3751
L17.6273,-4533.6600
Z" 
style="stroke-width: 0.7200; stroke-linecap: round; stroke-linejoin: round; fill-rule: evenodd; fill: #ffffff; "/>
<path d=" 
M17.6273,-4533.6600
L39.9900,-4527.6480
L61.1220,-4533.6600
L77.0625,-4530.3751
L76.5000,-4489.3230
L39.7500,-4478.8223
L2.2500,-4489.3230
L1.2656,-4530.3751
L17.6273,-4533.6600
Z" 
style="stroke-width: 0.7200; stroke: #ffffff; stroke-dasharray: none; stroke-linecap: round; stroke-linejoin: round; fill: none; "/>
</g>
<path d=" 
M61.1250,-4536.0000
L39.3750,-4529.8125
L17.6250,-4536.0000
L0.0000,-4530.9375
L0.0000,-4487.6250
L39.3750,-4476.3750
L78.7500,-4487.6250
L78.7500,-4530.9375
L61.1250,-4536.0000
Z
M76.5000,-4501.9965
L56.6250,-4496.3190
L56.6250,-4509.0383
L76.5000,-4514.7172
L76.5000,-4501.9965
Z
M2.2500,-4514.7172
L22.1250,-4509.0383
L22.1250,-4496.3183
L2.2500,-4501.9965
L2.2500,-4514.7172
Z
M10.8750,-4526.1585
L10.8750,-4513.0328
L2.2500,-4515.4965
L2.2500,-4528.7460
L10.8750,-4526.1585
Z
M39.7500,-4504.9965
L39.7500,-4517.7210
L67.1250,-4525.9335
L67.1250,-4512.8182
L39.7500,-4504.9965
Z
M39.3750,-4491.3900
L22.8750,-4496.1045
L22.8750,-4508.8245
L39.2723,-4504.1393
L39.3750,-4504.1100
L55.8750,-4508.8245
L55.8750,-4496.1045
L39.3750,-4491.3900
Z
M39.0000,-4504.9965
L11.6250,-4512.8182
L11.6250,-4525.9343
L39.0000,-4517.7210
L39.0000,-4504.9965
Z
M39.0000,-4490.7172
L39.0000,-4478.8223
L11.6250,-4486.6433
L11.6250,-4498.5382
L39.0000,-4490.7172
Z
M39.7500,-4490.7172
L67.1250,-4498.5390
L67.1250,-4486.6440
L39.7500,-4478.8223
L39.7500,-4490.7172
Z
M76.5000,-4515.4972
L67.8750,-4513.0328
L67.8750,-4526.1577
L76.5000,-4528.7452
L76.5000,-4515.4972
Z
M76.0125,-4529.3827
L67.4978,-4526.8282
L52.3537,-4531.1655
L61.1220,-4533.6600
L76.0125,-4529.3827
Z
M39.3750,-4527.4733
L39.9900,-4527.6480
L50.9865,-4530.7762
L66.1673,-4526.4285
L39.3750,-4518.3908
L12.5827,-4526.4293
L27.7628,-4530.7762
L38.7600,-4527.6480
L39.3750,-4527.4733
Z
M17.6273,-4533.6600
L26.3963,-4531.1655
L11.2530,-4526.8282
L2.7383,-4529.3827
L17.6273,-4533.6600
Z
M2.2500,-4501.2172
L10.8750,-4498.7535
L10.8750,-4486.8585
L2.2500,-4489.3230
L2.2500,-4501.2172
Z
M67.8750,-4486.8585
L67.8750,-4498.7535
L76.5000,-4501.2172
L76.5000,-4489.3230
L67.8750,-4486.8585
Z" 
style="fill-rule: evenodd; fill: #000000; "/>
<text x="0.0000" y="-4476.3750">
<tspan font-family="Arial Narrow" font-weight="bold" font-size="12.0000" fill="#000000" fill-opacity="1.0000" stroke-opacity="1.0000" >
Firewall</tspan>
</text>
</svg>
