<?xml version="1.0" encoding="UTF-8" standalone="no"?>
<svg version="1.1" xmlns="http://www.w3.org/2000/svg" xmlns:xlink="http://www.w3.org/1999/xlink" width="0.7500in" height="0.9375in" viewBox="0 0 54.0000 67.5000" >
<g id="Layer1129" >
<path d=" 
M51.7500,-4532.9209
L2.2500,-4532.9209
L2.2500,-4469.9209
L51.7500,-4469.9209
L51.7500,-4532.9209
Z" 
style="stroke-width: 0.7200; stroke-linecap: round; stroke-linejoin: round; fill-rule: evenodd; fill: #ffffff; "/>
<path d=" 
M51.7500,-4532.9209
L2.2500,-4532.9209
L2.2500,-4469.9209
L51.7500,-4469.9209
L51.7500,-4532.9209
Z" 
style="stroke-width: 0.7200; stroke: #ffffff; stroke-dasharray: none; stroke-linecap: round; stroke-linejoin: round; fill: none; "/>
</g>
<path d=" 
M27.0000,-4497.7500
L6.7500,-4497.7500
L6.7500,-4500.0000
L27.0000,-4500.0000
L27.0000,-4497.7500
Z
M27.0000,-4509.0000
L6.7500,-4509.0000
L6.7500,-4506.7500
L27.0000,-4506.7500
L27.0000,-4509.0000
Z
M45.0000,-4490.9940
L6.7500,-4490.9940
L6.7500,-4488.7440
L45.0000,-4488.7440
L45.0000,-4490.9940
Z
M36.0000,-4482.0000
L6.7500,-4482.0000
L6.7500,-4479.7500
L36.0000,-4479.7500
L36.0000,-4482.0000
Z
M54.0000,-4533.7500
L54.0000,-4470.7500
C54.0000,-4469.5132 52.9867,-4468.5000 51.7500,-4468.5000
L2.2500,-4468.5000
C1.0133,-4468.5000 0.0000,-4469.5132 0.0000,-4470.7500
L0.0000,-4533.7500
C0.0000,-4534.9868 1.0133,-4536.0000 2.2500,-4536.0000
L51.7500,-4536.0000
C52.9867,-4536.0000 54.0000,-4534.9868 54.0000,-4533.7500
Z
M6.7500,-4527.0000
L6.7500,-4522.5000
L40.5000,-4522.5000
L40.5000,-4527.0000
L6.7500,-4527.0000
Z
M51.7500,-4470.7500
L51.7500,-4515.7500
L2.2500,-4515.7500
L2.2500,-4470.7500
L51.7500,-4470.7500
Z
M36.9495,-4510.0973
L36.1642,-4508.3812
L34.4902,-4509.2535
L34.3043,-4507.3747
L32.4368,-4507.6552
L32.8717,-4505.8185
L31.0140,-4505.4780
L32.0212,-4503.8820
L30.3750,-4502.9565
L31.8457,-4501.7730
L30.5902,-4500.3645
L32.3655,-4499.7217
L31.6342,-4497.9817
L33.5228,-4497.9525
L33.3960,-4496.0685
L35.1915,-4496.6528
L35.6850,-4494.8295
L37.1925,-4495.9658
L38.2500,-4494.4027
L39.3075,-4495.9658
L40.8165,-4494.8295
L41.3070,-4496.6528
L43.1032,-4496.0685
L42.9788,-4497.9525
L44.8657,-4497.9817
L44.1345,-4499.7217
L45.9112,-4500.3645
L44.6543,-4501.7730
L46.1250,-4502.9565
L44.4795,-4503.8813
L45.4867,-4505.4772
L43.6290,-4505.8178
L44.0625,-4507.6545
L42.1980,-4507.3740
L42.0105,-4509.2527
L40.3365,-4508.3805
L39.5513,-4510.0965
L38.2500,-4508.7300
L36.9495,-4510.0973
Z" 
style="fill-rule: evenodd; fill: #010101; "/>
<text x="0.0000" y="-4468.5000">
<tspan font-family="Arial Narrow" font-weight="bold" font-size="12.0000" fill="#000000" fill-opacity="1.0000" stroke-opacity="1.0000" >
</tspan>
<tspan font-family="Arial Narrow" font-weight="bold" font-size="12.0000" fill="#000000" fill-opacity="1.0000" stroke-opacity="1.0000" >
License</tspan>
</text>
</svg>
