<?xml version="1.0" encoding="UTF-8" standalone="no"?>
<svg version="1.1" xmlns="http://www.w3.org/2000/svg" xmlns:xlink="http://www.w3.org/1999/xlink" width="0.8438in" height="1.0938in" viewBox="0 0 60.7500 78.7500" >
<g id="Layer1128" >
<path d=" 
M6.0000,-4534.3126
C3.9323,-4534.3126 2.2500,-4532.6304 2.2500,-4530.5626
L2.2500,-4479.9376
C2.2500,-4476.8349 4.7738,-4474.3126 7.8750,-4474.3126
L52.8750,-4474.3126
C55.9763,-4474.3126 58.5000,-4476.8349 58.5000,-4479.9376
L58.5000,-4530.5626
C58.5000,-4532.6304 56.8185,-4534.3126 54.7500,-4534.3126
L6.0000,-4534.3126
Z
M54.7500,-4460.0626
C56.8185,-4460.0626 58.5000,-4461.7441 58.5000,-4463.8126
L58.5000,-4476.9436
C57.4260,-4474.9336 55.3080,-4473.5626 52.8750,-4473.5626
L7.8750,-4473.5626
C5.4413,-4473.5626 3.3240,-4474.9336 2.2500,-4476.9436
L2.2500,-4463.8126
C2.2500,-4461.7441 3.9323,-4460.0626 6.0000,-4460.0626
L54.7500,-4460.0626
Z" 
style="stroke-width: 0.7200; stroke-linecap: round; stroke-linejoin: round; fill-rule: evenodd; fill: #ffffff; "/>
<path d=" 
M6.0000,-4534.3126
C3.9323,-4534.3126 2.2500,-4532.6304 2.2500,-4530.5626
L2.2500,-4479.9376
C2.2500,-4476.8349 4.7738,-4474.3126 7.8750,-4474.3126
L52.8750,-4474.3126
C55.9763,-4474.3126 58.5000,-4476.8349 58.5000,-4479.9376
L58.5000,-4530.5626
C58.5000,-4532.6304 56.8185,-4534.3126 54.7500,-4534.3126
L6.0000,-4534.3126
Z
M54.7500,-4460.0626
C56.8185,-4460.0626 58.5000,-4461.7441 58.5000,-4463.8126
L58.5000,-4476.9436
C57.4260,-4474.9336 55.3080,-4473.5626 52.8750,-4473.5626
L7.8750,-4473.5626
C5.4413,-4473.5626 3.3240,-4474.9336 2.2500,-4476.9436
L2.2500,-4463.8126
C2.2500,-4461.7441 3.9323,-4460.0626 6.0000,-4460.0626
L54.7500,-4460.0626
Z" 
style="stroke-width: 0.7200; stroke: #ffffff; stroke-dasharray: none; stroke-linecap: round; stroke-linejoin: round; fill: none; "/>
</g>
<path d=" 
M31.5000,-4509.0000
L18.0000,-4509.0000
L18.0000,-4511.2500
L31.5000,-4511.2500
L31.5000,-4509.0000
Z
M31.5000,-4504.5000
L18.0000,-4504.5000
L18.0000,-4502.2500
L31.5000,-4502.2500
L31.5000,-4504.5000
Z
M40.5000,-4497.7500
L18.0000,-4497.7500
L18.0000,-4495.5000
L40.5000,-4495.5000
L40.5000,-4497.7500
Z
M36.0000,-4491.0000
L18.0000,-4491.0000
L18.0000,-4488.7500
L36.0000,-4488.7500
L36.0000,-4491.0000
Z
M47.2500,-4524.7500
L47.2500,-4484.2500
C47.2500,-4483.0132 46.2368,-4482.0000 45.0000,-4482.0000
L15.7500,-4482.0000
C14.5132,-4482.0000 13.5000,-4483.0132 13.5000,-4484.2500
L13.5000,-4524.7500
C13.5000,-4525.9868 14.5132,-4527.0000 15.7500,-4527.0000
L45.0000,-4527.0000
C46.2368,-4527.0000 47.2500,-4525.9868 47.2500,-4524.7500
Z
M18.0000,-4522.5000
L18.0000,-4520.2500
L38.2500,-4520.2500
L38.2500,-4522.5000
L18.0000,-4522.5000
Z
M45.0000,-4484.2500
L45.0000,-4515.7500
L15.7500,-4515.7500
L15.7500,-4484.2500
L45.0000,-4484.2500
Z
M37.5075,-4511.2343
L37.0575,-4510.2540
L36.1013,-4510.7520
L35.9940,-4509.6788
L34.9290,-4509.8377
L35.1757,-4508.7885
L34.1145,-4508.5943
L34.6920,-4507.6822
L33.7500,-4507.1535
L34.5908,-4506.4778
L33.8730,-4505.6722
L34.8885,-4505.3063
L34.4708,-4504.3110
L35.5492,-4504.2945
L35.4757,-4503.2175
L36.5025,-4503.5513
L36.7837,-4502.5095
L37.6455,-4503.1590
L38.2500,-4502.2658
L38.8552,-4503.1597
L39.7163,-4502.5102
L39.9975,-4503.5520
L41.0243,-4503.2182
L40.9522,-4504.2953
L42.0307,-4504.3117
L41.6130,-4505.3070
L42.6285,-4505.6730
L41.9092,-4506.4785
L42.7500,-4507.1535
L41.8095,-4507.6830
L42.3855,-4508.5950
L41.3242,-4508.7892
L41.5725,-4509.8385
L40.5060,-4509.6795
L40.4002,-4510.7527
L39.4425,-4510.2548
L38.9940,-4511.2350
L38.2500,-4510.4528
L37.5075,-4511.2343
Z
M60.7500,-4530.0000
L60.7500,-4463.2500
C60.7500,-4459.9507 58.0492,-4457.2500 54.7500,-4457.2500
L6.0000,-4457.2500
C2.7008,-4457.2500 0.0000,-4459.9507 0.0000,-4463.2500
L0.0000,-4530.0000
C0.0000,-4533.2993 2.7008,-4536.0000 6.0000,-4536.0000
L54.7500,-4536.0000
C58.0492,-4536.0000 60.7500,-4533.2993 60.7500,-4530.0000
Z
M2.2500,-4479.3750
C2.2500,-4476.2722 4.7737,-4473.7500 7.8750,-4473.7500
L52.8750,-4473.7500
C55.9763,-4473.7500 58.5000,-4476.2722 58.5000,-4479.3750
L58.5000,-4530.0000
C58.5000,-4532.0678 56.8185,-4533.7500 54.7500,-4533.7500
L6.0000,-4533.7500
C3.9322,-4533.7500 2.2500,-4532.0678 2.2500,-4530.0000
L2.2500,-4479.3750
Z
M58.5000,-4463.2500
L58.5000,-4476.3818
C57.4260,-4474.3710 55.3080,-4473.0000 52.8750,-4473.0000
L7.8750,-4473.0000
C5.4413,-4473.0000 3.3233,-4474.3710 2.2500,-4476.3818
L2.2500,-4463.2500
C2.2500,-4461.1815 3.9322,-4459.5000 6.0000,-4459.5000
L54.7500,-4459.5000
C56.8185,-4459.5000 58.5000,-4461.1815 58.5000,-4463.2500
Z
M9.0000,-4468.5000
C7.7572,-4468.5000 6.7500,-4467.4935 6.7500,-4466.2500
C6.7500,-4465.0095 7.7572,-4464.0000 9.0000,-4464.0000
C8.1727,-4464.0000 7.5000,-4464.6735 7.5000,-4465.5000
C7.5000,-4466.3287 8.1720,-4467.0000 9.0000,-4467.0000
C9.8280,-4467.0000 10.5000,-4466.3287 10.5000,-4465.5000
C10.5000,-4464.6735 9.8280,-4464.0000 9.0000,-4464.0000
C10.2427,-4464.0000 11.2500,-4465.0095 11.2500,-4466.2500
C11.2500,-4467.4935 10.2427,-4468.5000 9.0000,-4468.5000
Z" 
style="fill-rule: evenodd; fill: #010101; "/>
<text x="0.0000" y="-4457.2500">
<tspan font-family="Arial Narrow" font-weight="bold" font-size="12.0000" fill="#000000" fill-opacity="1.0000" stroke-opacity="1.0000" >
</tspan>
<tspan font-family="Arial Narrow" font-weight="bold" font-size="12.0000" fill="#000000" fill-opacity="1.0000" stroke-opacity="1.0000" >
License</tspan>
<tspan font-family="Arial Narrow" font-weight="bold" font-size="12.0000" fill="#000000" fill-opacity="1.0000" stroke-opacity="1.0000" >
Server</tspan>
</text>
</svg>
