<?xml version="1.0" encoding="UTF-8" standalone="no"?>
<svg version="1.1" xmlns="http://www.w3.org/2000/svg" xmlns:xlink="http://www.w3.org/1999/xlink" width="0.7188in" height="0.7188in" viewBox="0 0 51.7500 51.7500" >
<g id="Layer1099" >
<path d=" 
M49.5000,-4532.6356
C49.5000,-4533.3661 48.8835,-4533.9826 48.1530,-4533.9826
L3.5970,-4533.9826
C2.8665,-4533.9826 2.2500,-4533.3661 2.2500,-4532.6356
L2.2500,-4488.0804
C2.2500,-4487.3506 2.8665,-4486.7326 3.5970,-4486.7326
L48.1530,-4486.7326
C48.8835,-4486.7326 49.5000,-4487.3506 49.5000,-4488.0804
L49.5000,-4532.6356
Z" 
style="stroke-width: 0.7200; stroke-linecap: round; stroke-linejoin: round; fill-rule: evenodd; fill: #ffffff; "/>
<path d=" 
M49.5000,-4532.6356
C49.5000,-4533.3661 48.8835,-4533.9826 48.1530,-4533.9826
L3.5970,-4533.9826
C2.8665,-4533.9826 2.2500,-4533.3661 2.2500,-4532.6356
L2.2500,-4488.0804
C2.2500,-4487.3506 2.8665,-4486.7326 3.5970,-4486.7326
L48.1530,-4486.7326
C48.8835,-4486.7326 49.5000,-4487.3506 49.5000,-4488.0804
L49.5000,-4532.6356
Z" 
style="stroke-width: 0.7200; stroke: #ffffff; stroke-dasharray: none; stroke-linecap: round; stroke-linejoin: round; fill: none; "/>
</g>
<path d=" 
M48.1530,-4533.7500
C48.8835,-4533.7500 49.5000,-4533.1335 49.5000,-4532.4030
L49.5000,-4487.8477
C49.5000,-4487.1180 48.8835,-4486.5000 48.1530,-4486.5000
L3.5970,-4486.5000
C2.8665,-4486.5000 2.2500,-4487.1180 2.2500,-4487.8477
L2.2500,-4532.4030
C2.2500,-4533.1335 2.8665,-4533.7500 3.5970,-4533.7500
L48.1530,-4533.7500
Z
M48.1530,-4536.0000
L3.5970,-4536.0000
C1.6185,-4536.0000 0.0000,-4534.3815 0.0000,-4532.4030
L0.0000,-4487.8477
C0.0000,-4485.8700 1.6185,-4484.2500 3.5970,-4484.2500
L48.1530,-4484.2500
C50.1315,-4484.2500 51.7500,-4485.8700 51.7500,-4487.8477
L51.7500,-4532.4030
C51.7500,-4534.3815 50.1315,-4536.0000 48.1530,-4536.0000
Z" 
style="fill-rule: evenodd; fill: #000000; "/>
<path d=" 
M22.5000,-4522.5000
L29.2500,-4522.5000
L29.2500,-4529.2500
L22.5000,-4529.2500
L22.5000,-4522.5000
Z" 
style="fill-rule: evenodd; fill: #070808; "/>
<path d=" 
M38.2500,-4515.7500
L45.0000,-4515.7500
L45.0000,-4522.5000
L38.2500,-4522.5000
L38.2500,-4515.7500
Z" 
style="fill-rule: evenodd; fill: #070808; "/>
<path d=" 
M6.7500,-4515.7500
L13.5000,-4515.7500
L13.5000,-4522.5000
L6.7500,-4522.5000
L6.7500,-4515.7500
Z" 
style="fill-rule: evenodd; fill: #070808; "/>
<path d=" 
M32.2313,-4508.1412
L34.5458,-4510.4542
L36.0000,-4509.0000
L36.0000,-4513.5000
L31.5000,-4513.5000
L32.9543,-4512.0458
L30.6398,-4509.7328
C29.8477,-4508.9385 29.2500,-4507.4963 29.2500,-4506.3758
L29.2500,-4504.5000
L27.0000,-4504.5000
L27.0000,-4515.7500
L29.2500,-4515.7500
L25.8750,-4519.1250
L22.5000,-4515.7500
L24.7500,-4515.7500
L24.7500,-4504.5000
L22.5000,-4504.5000
L22.5000,-4506.3758
C22.5000,-4507.4963 21.9022,-4508.9385 21.1102,-4509.7328
L18.7957,-4512.0458
L20.2500,-4513.5000
L15.7500,-4513.5000
L15.7500,-4509.0000
L17.2042,-4510.4550
L19.5187,-4508.1420
C19.8952,-4507.7655 20.2500,-4506.9075 20.2500,-4506.3758
L20.2500,-4504.5000
L18.0000,-4504.5000
L18.0000,-4491.0000
L33.7500,-4491.0000
L33.7500,-4504.5000
L31.5000,-4504.5000
L31.5000,-4506.3758
C31.5000,-4506.9075 31.8548,-4507.7655 32.2313,-4508.1412
Z" 
style="fill-rule: evenodd; fill: #000000; "/>
<text x="0.0000" y="-4484.2500">
<tspan font-family="Arial Narrow" font-weight="bold" font-size="12.0000" fill="#000000" fill-opacity="1.0000" stroke-opacity="1.0000" >
Load Balancer</tspan>
</text>
</svg>
