<?xml version="1.0" encoding="UTF-8" standalone="no"?>
<svg version="1.1" xmlns="http://www.w3.org/2000/svg" xmlns:xlink="http://www.w3.org/1999/xlink" width="0.8438in" height="1.0938in" viewBox="0 0 60.7500 78.7500" >
<g id="Layer1037" >
<path d=" 
M6.0000,-4533.7499
C3.9322,-4533.7499 2.2500,-4532.0676 2.2500,-4529.9999
L2.2500,-4479.3749
C2.2500,-4476.2721 4.7737,-4473.7499 7.8750,-4473.7499
L52.8750,-4473.7499
C55.9762,-4473.7499 58.5000,-4476.2721 58.5000,-4479.3749
L58.5000,-4529.9999
C58.5000,-4532.0676 56.8185,-4533.7499 54.7500,-4533.7499
L6.0000,-4533.7499
Z
M54.7500,-4459.4999
C56.8185,-4459.4999 58.5000,-4461.1814 58.5000,-4463.2499
L58.5000,-4476.3809
C57.4260,-4474.3709 55.3080,-4472.9999 52.8750,-4472.9999
L7.8750,-4472.9999
C5.4412,-4472.9999 3.3240,-4474.3709 2.2500,-4476.3809
L2.2500,-4463.2499
C2.2500,-4461.1814 3.9322,-4459.4999 6.0000,-4459.4999
L54.7500,-4459.4999
Z" 
style="stroke-width: 0.7200; stroke-linecap: round; stroke-linejoin: round; fill-rule: evenodd; fill: #ffffff; "/>
<path d=" 
M6.0000,-4533.7499
C3.9322,-4533.7499 2.2500,-4532.0676 2.2500,-4529.9999
L2.2500,-4479.3749
C2.2500,-4476.2721 4.7737,-4473.7499 7.8750,-4473.7499
L52.8750,-4473.7499
C55.9762,-4473.7499 58.5000,-4476.2721 58.5000,-4479.3749
L58.5000,-4529.9999
C58.5000,-4532.0676 56.8185,-4533.7499 54.7500,-4533.7499
L6.0000,-4533.7499
Z
M54.7500,-4459.4999
C56.8185,-4459.4999 58.5000,-4461.1814 58.5000,-4463.2499
L58.5000,-4476.3809
C57.4260,-4474.3709 55.3080,-4472.9999 52.8750,-4472.9999
L7.8750,-4472.9999
C5.4412,-4472.9999 3.3240,-4474.3709 2.2500,-4476.3809
L2.2500,-4463.2499
C2.2500,-4461.1814 3.9322,-4459.4999 6.0000,-4459.4999
L54.7500,-4459.4999
Z" 
style="stroke-width: 0.7200; stroke: #ffffff; stroke-dasharray: none; stroke-linecap: round; stroke-linejoin: round; fill: none; "/>
</g>
<path d=" 
M54.7500,-4536.0000
L6.0000,-4536.0000
C2.7008,-4536.0000 0.0000,-4533.2993 0.0000,-4530.0000
L0.0000,-4463.2500
C0.0000,-4459.9507 2.7008,-4457.2500 6.0000,-4457.2500
L54.7500,-4457.2500
C58.0492,-4457.2500 60.7500,-4459.9507 60.7500,-4463.2500
L60.7500,-4530.0000
C60.7500,-4533.2993 58.0492,-4536.0000 54.7500,-4536.0000
Z
M2.2500,-4530.0000
C2.2500,-4532.0678 3.9322,-4533.7500 6.0000,-4533.7500
L54.7500,-4533.7500
C56.8185,-4533.7500 58.5000,-4532.0678 58.5000,-4530.0000
L58.5000,-4479.3750
C58.5000,-4476.2722 55.9763,-4473.7500 52.8750,-4473.7500
L7.8750,-4473.7500
C4.7737,-4473.7500 2.2500,-4476.2722 2.2500,-4479.3750
L2.2500,-4530.0000
Z
M54.7500,-4459.5000
L6.0000,-4459.5000
C3.9322,-4459.5000 2.2500,-4461.1815 2.2500,-4463.2500
L2.2500,-4476.3810
C3.3240,-4474.3710 5.4413,-4473.0000 7.8750,-4473.0000
L52.8750,-4473.0000
C55.3080,-4473.0000 57.4260,-4474.3710 58.5000,-4476.3810
L58.5000,-4463.2500
C58.5000,-4461.1815 56.8185,-4459.5000 54.7500,-4459.5000
Z" 
style="fill-rule: evenodd; fill: #000000; "/>
<path d=" 
M9.0000,-4468.5000
C7.7573,-4468.5000 6.7500,-4467.4920 6.7500,-4466.2500
C6.7500,-4465.0080 7.7573,-4464.0000 9.0000,-4464.0000
C8.1728,-4464.0000 7.5000,-4464.6720 7.5000,-4465.5000
C7.5000,-4466.3280 8.1720,-4467.0000 9.0000,-4467.0000
C9.8280,-4467.0000 10.5000,-4466.3280 10.5000,-4465.5000
C10.5000,-4464.6720 9.8280,-4464.0000 9.0000,-4464.0000
C10.2428,-4464.0000 11.2500,-4465.0080 11.2500,-4466.2500
C11.2500,-4467.4920 10.2428,-4468.5000 9.0000,-4468.5000
Z" 
style="fill-rule: evenodd; fill: #000000; "/>
<path d=" 
M47.2500,-4512.3750
C47.2500,-4513.8428 46.3080,-4515.0788 45.0000,-4515.5438
L45.0000,-4521.3750
C45.0000,-4521.9968 44.4967,-4522.5000 43.8750,-4522.5000
C43.2532,-4522.5000 42.7500,-4521.9968 42.7500,-4521.3750
L42.7500,-4515.5438
C41.4420,-4515.0788 40.5000,-4513.8428 40.5000,-4512.3750
C40.5000,-4510.9073 41.4420,-4509.6713 42.7500,-4509.2063
L42.7500,-4485.3750
C42.7500,-4484.7532 43.2532,-4484.2500 43.8750,-4484.2500
C44.4967,-4484.2500 45.0000,-4484.7532 45.0000,-4485.3750
L45.0000,-4509.2063
C46.3080,-4509.6713 47.2500,-4510.9073 47.2500,-4512.3750
Z
M43.8750,-4509.7500
C42.4275,-4509.7500 41.2500,-4510.9275 41.2500,-4512.3750
C41.2500,-4513.8225 42.4275,-4515.0000 43.8750,-4515.0000
C45.3225,-4515.0000 46.5000,-4513.8225 46.5000,-4512.3750
C46.5000,-4510.9275 45.3225,-4509.7500 43.8750,-4509.7500
Z" 
style="fill-rule: evenodd; fill: #000000; "/>
<path d=" 
M33.7500,-4496.6250
C33.7500,-4498.0927 32.8080,-4499.3288 31.5000,-4499.7938
L31.5000,-4521.3750
C31.5000,-4521.9968 30.9967,-4522.5000 30.3750,-4522.5000
C29.7533,-4522.5000 29.2500,-4521.9968 29.2500,-4521.3750
L29.2500,-4499.7938
C27.9420,-4499.3288 27.0000,-4498.0927 27.0000,-4496.6250
C27.0000,-4495.1573 27.9420,-4493.9213 29.2500,-4493.4563
L29.2500,-4485.3750
C29.2500,-4484.7532 29.7533,-4484.2500 30.3750,-4484.2500
C30.9967,-4484.2500 31.5000,-4484.7532 31.5000,-4485.3750
L31.5000,-4493.4563
C32.8080,-4493.9213 33.7500,-4495.1573 33.7500,-4496.6250
Z
M30.3750,-4494.0000
C28.9283,-4494.0000 27.7500,-4495.1775 27.7500,-4496.6250
C27.7500,-4498.0718 28.9275,-4499.2500 30.3750,-4499.2500
C31.8225,-4499.2500 33.0000,-4498.0725 33.0000,-4496.6250
C33.0000,-4495.1775 31.8225,-4494.0000 30.3750,-4494.0000
Z" 
style="fill-rule: evenodd; fill: #000000; "/>
<path d=" 
M20.2500,-4505.6250
C20.2500,-4507.0927 19.3080,-4508.3288 18.0000,-4508.7938
L18.0000,-4521.3750
C18.0000,-4521.9968 17.4968,-4522.5000 16.8750,-4522.5000
C16.2533,-4522.5000 15.7500,-4521.9968 15.7500,-4521.3750
L15.7500,-4508.7938
C14.4420,-4508.3288 13.5000,-4507.0927 13.5000,-4505.6250
C13.5000,-4504.1573 14.4420,-4502.9213 15.7500,-4502.4563
L15.7500,-4485.3750
C15.7500,-4484.7532 16.2533,-4484.2500 16.8750,-4484.2500
C17.4968,-4484.2500 18.0000,-4484.7532 18.0000,-4485.3750
L18.0000,-4502.4563
C19.3080,-4502.9213 20.2500,-4504.1573 20.2500,-4505.6250
Z
M16.8750,-4503.0000
C15.4283,-4503.0000 14.2500,-4504.1775 14.2500,-4505.6250
C14.2500,-4507.0725 15.4275,-4508.2500 16.8750,-4508.2500
C18.3225,-4508.2500 19.5000,-4507.0725 19.5000,-4505.6250
C19.5000,-4504.1775 18.3218,-4503.0000 16.8750,-4503.0000
Z" 
style="fill-rule: evenodd; fill: #000000; "/>
<text x="-6.7264" y="-4457.2500">
<tspan font-family="Arial Narrow" font-weight="bold" font-size="12.0000" fill="#000000" fill-opacity="1.0000" stroke-opacity="1.0000" >
Master Cluster Node</tspan>
</text>
</svg>
