<?xml version="1.0" encoding="UTF-8" standalone="no"?>
<svg version="1.1" xmlns="http://www.w3.org/2000/svg" xmlns:xlink="http://www.w3.org/1999/xlink" width="0.8438in" height="1.0938in" viewBox="0 0 60.7500 78.7500" >
<g id="Layer1036" >
<path d=" 
M6.0000,-4533.7499
C3.9322,-4533.7499 2.2500,-4532.0676 2.2500,-4529.9999
L2.2500,-4479.3749
C2.2500,-4476.2721 4.7737,-4473.7499 7.8750,-4473.7499
L52.8750,-4473.7499
C55.9762,-4473.7499 58.5000,-4476.2721 58.5000,-4479.3749
L58.5000,-4529.9999
C58.5000,-4532.0676 56.8185,-4533.7499 54.7500,-4533.7499
L6.0000,-4533.7499
Z
M54.7500,-4459.4999
C56.8185,-4459.4999 58.5000,-4461.1814 58.5000,-4463.2499
L58.5000,-4476.3809
C57.4260,-4474.3709 55.3080,-4472.9999 52.8750,-4472.9999
L7.8750,-4472.9999
C5.4412,-4472.9999 3.3240,-4474.3709 2.2500,-4476.3809
L2.2500,-4463.2499
C2.2500,-4461.1814 3.9322,-4459.4999 6.0000,-4459.4999
L54.7500,-4459.4999
Z" 
style="stroke-width: 0.7200; stroke-linecap: round; stroke-linejoin: round; fill-rule: evenodd; fill: #ffffff; "/>
<path d=" 
M6.0000,-4533.7499
C3.9322,-4533.7499 2.2500,-4532.0676 2.2500,-4529.9999
L2.2500,-4479.3749
C2.2500,-4476.2721 4.7737,-4473.7499 7.8750,-4473.7499
L52.8750,-4473.7499
C55.9762,-4473.7499 58.5000,-4476.2721 58.5000,-4479.3749
L58.5000,-4529.9999
C58.5000,-4532.0676 56.8185,-4533.7499 54.7500,-4533.7499
L6.0000,-4533.7499
Z
M54.7500,-4459.4999
C56.8185,-4459.4999 58.5000,-4461.1814 58.5000,-4463.2499
L58.5000,-4476.3809
C57.4260,-4474.3709 55.3080,-4472.9999 52.8750,-4472.9999
L7.8750,-4472.9999
C5.4412,-4472.9999 3.3240,-4474.3709 2.2500,-4476.3809
L2.2500,-4463.2499
C2.2500,-4461.1814 3.9322,-4459.4999 6.0000,-4459.4999
L54.7500,-4459.4999
Z" 
style="stroke-width: 0.7200; stroke: #ffffff; stroke-dasharray: none; stroke-linecap: round; stroke-linejoin: round; fill: none; "/>
</g>
<path d=" 
M22.5000,-4468.5000
L22.5000,-4470.7500
L15.7500,-4470.7500
L15.7500,-4468.5000
L13.5000,-4468.5000
L13.5000,-4461.7500
L24.7500,-4461.7500
L24.7500,-4468.5000
L22.5000,-4468.5000
Z" 
style="fill-rule: evenodd; fill: #000000; "/>
<path d=" 
M45.0000,-4468.5000
L45.0000,-4470.7500
L38.2500,-4470.7500
L38.2500,-4468.5000
L36.0000,-4468.5000
L36.0000,-4461.7500
L47.2500,-4461.7500
L47.2500,-4468.5000
L45.0000,-4468.5000
Z" 
style="fill-rule: evenodd; fill: #000000; "/>
<path d=" 
M54.7500,-4536.0000
L6.0000,-4536.0000
C2.7008,-4536.0000 0.0000,-4533.2993 0.0000,-4530.0000
L0.0000,-4463.2500
C0.0000,-4459.9507 2.7008,-4457.2500 6.0000,-4457.2500
L54.7500,-4457.2500
C58.0492,-4457.2500 60.7500,-4459.9507 60.7500,-4463.2500
L60.7500,-4530.0000
C60.7500,-4533.2993 58.0492,-4536.0000 54.7500,-4536.0000
Z
M2.2500,-4530.0000
C2.2500,-4532.0678 3.9322,-4533.7500 6.0000,-4533.7500
L54.7500,-4533.7500
C56.8185,-4533.7500 58.5000,-4532.0678 58.5000,-4530.0000
L58.5000,-4480.1250
C58.5000,-4477.0230 55.9763,-4474.5000 52.8750,-4474.5000
L7.8750,-4474.5000
C4.7737,-4474.5000 2.2500,-4477.0230 2.2500,-4480.1250
L2.2500,-4530.0000
Z
M54.7500,-4459.5000
L6.0000,-4459.5000
C3.9322,-4459.5000 2.2500,-4461.1815 2.2500,-4463.2500
L2.2500,-4477.1310
C3.3240,-4475.1218 5.4413,-4473.7500 7.8750,-4473.7500
L52.8750,-4473.7500
C55.3080,-4473.7500 57.4260,-4475.1218 58.5000,-4477.1310
L58.5000,-4463.2500
C58.5000,-4461.1815 56.8185,-4459.5000 54.7500,-4459.5000
Z" 
style="fill-rule: evenodd; fill: #000000; "/>
<path d=" 
M25.9665,-4513.2158
L18.4665,-4520.7165
L20.2500,-4522.5000
L13.5000,-4522.5000
L13.5000,-4515.7500
L15.2843,-4517.5343
L22.7835,-4510.0335
L25.9665,-4513.2158
Z" 
style="fill-rule: evenodd; fill: #000000; "/>
<path d=" 
M47.2500,-4522.5000
L40.5000,-4522.5000
L42.2843,-4520.7158
L34.7842,-4513.2158
L37.9657,-4510.0335
L45.4658,-4517.5343
L47.2500,-4515.7500
L47.2500,-4522.5000
Z" 
style="fill-rule: evenodd; fill: #000000; "/>
<path d=" 
M45.4665,-4491.4665
L37.9665,-4498.9665
L34.7842,-4495.7842
L42.2843,-4488.2842
L40.5000,-4486.5000
L47.2500,-4486.5000
L47.2500,-4493.2500
L45.4665,-4491.4665
Z" 
style="fill-rule: evenodd; fill: #000000; "/>
<path d=" 
M25.9665,-4495.7842
L22.7843,-4498.9665
L15.2843,-4491.4657
L13.5000,-4493.2500
L13.5000,-4486.5000
L20.2500,-4486.5000
L18.4658,-4488.2842
L25.9665,-4495.7842
Z" 
style="fill-rule: evenodd; fill: #000000; "/>
<text x="0.0000" y="-4457.2500">
<tspan font-family="Arial Narrow" font-weight="bold" font-size="12.0000" fill="#000000" fill-opacity="1.0000" stroke-opacity="1.0000" >
Router (physical)</tspan>
</text>
</svg>
