<?xml version="1.0" encoding="UTF-8" standalone="no"?>
<svg version="1.1" xmlns="http://www.w3.org/2000/svg" xmlns:xlink="http://www.w3.org/1999/xlink" width="0.7188in" height="0.7188in" viewBox="0 0 51.7500 51.7500" >
<g id="Layer1098" >
<path d=" 
M49.5000,-4532.1313
C49.5000,-4532.8618 48.8835,-4533.4783 48.1530,-4533.4783
L3.5970,-4533.4783
C2.8665,-4533.4783 2.2500,-4532.8618 2.2500,-4532.1313
L2.2500,-4487.5760
C2.2500,-4486.8463 2.8665,-4486.2283 3.5970,-4486.2283
L48.1530,-4486.2283
C48.8835,-4486.2283 49.5000,-4486.8463 49.5000,-4487.5760
L49.5000,-4532.1313
Z" 
style="stroke-width: 0.7200; stroke-linecap: round; stroke-linejoin: round; fill-rule: evenodd; fill: #ffffff; "/>
<path d=" 
M49.5000,-4532.1313
C49.5000,-4532.8618 48.8835,-4533.4783 48.1530,-4533.4783
L3.5970,-4533.4783
C2.8665,-4533.4783 2.2500,-4532.8618 2.2500,-4532.1313
L2.2500,-4487.5760
C2.2500,-4486.8463 2.8665,-4486.2283 3.5970,-4486.2283
L48.1530,-4486.2283
C48.8835,-4486.2283 49.5000,-4486.8463 49.5000,-4487.5760
L49.5000,-4532.1313
Z" 
style="stroke-width: 0.7200; stroke: #ffffff; stroke-dasharray: none; stroke-linecap: round; stroke-linejoin: round; fill: none; "/>
</g>
<path d=" 
M48.1530,-4533.7500
C48.8835,-4533.7500 49.5000,-4533.1335 49.5000,-4532.4030
L49.5000,-4487.8470
C49.5000,-4487.1165 48.8835,-4486.5000 48.1530,-4486.5000
L3.5970,-4486.5000
C2.8665,-4486.5000 2.2500,-4487.1165 2.2500,-4487.8470
L2.2500,-4532.4030
C2.2500,-4533.1335 2.8665,-4533.7500 3.5970,-4533.7500
L48.1530,-4533.7500
Z
M48.1530,-4536.0000
L3.5970,-4536.0000
C1.6185,-4536.0000 0.0000,-4534.3815 0.0000,-4532.4030
L0.0000,-4487.8470
C0.0000,-4485.8685 1.6185,-4484.2500 3.5970,-4484.2500
L48.1530,-4484.2500
C50.1315,-4484.2500 51.7500,-4485.8685 51.7500,-4487.8470
L51.7500,-4532.4030
C51.7500,-4534.3815 50.1315,-4536.0000 48.1530,-4536.0000
Z" 
style="fill-rule: evenodd; fill: #000000; "/>
<path d=" 
M32.4375,-4506.7500
L29.2500,-4503.5625
L40.0342,-4492.7843
L38.2500,-4491.0000
L45.0000,-4491.0000
L45.0000,-4497.7500
L43.2157,-4495.9658
L32.4375,-4506.7500
Z" 
style="fill-rule: evenodd; fill: #000000; "/>
<path d=" 
M19.3125,-4506.7500
L8.5335,-4495.9658
L6.7500,-4497.7500
L6.7500,-4491.0000
L13.5000,-4491.0000
L11.7165,-4492.7843
L22.5000,-4503.5625
L19.3125,-4506.7500
Z" 
style="fill-rule: evenodd; fill: #000000; "/>
<path d=" 
M13.5000,-4529.2500
L6.7500,-4529.2500
L6.7500,-4522.5000
L8.5335,-4524.2835
L19.3125,-4513.5000
L22.5000,-4516.6875
L11.7165,-4527.4665
L13.5000,-4529.2500
Z" 
style="fill-rule: evenodd; fill: #000000; "/>
<path d=" 
M38.2500,-4529.2500
L40.0342,-4527.4657
L29.2500,-4516.6875
L32.4375,-4513.5000
L43.2157,-4524.2842
L45.0000,-4522.5000
L45.0000,-4529.2500
L38.2500,-4529.2500
Z" 
style="fill-rule: evenodd; fill: #000000; "/>
<text x="-16.2621" y="-4484.2500">
<tspan font-family="Arial Narrow" font-weight="bold" font-size="12.0000" fill="#000000" fill-opacity="1.0000" stroke-opacity="1.0000" >
Router (abstract)</tspan>
</text>
</svg>
