<?xml version="1.0" encoding="UTF-8" standalone="no"?>
<svg version="1.1" xmlns="http://www.w3.org/2000/svg" xmlns:xlink="http://www.w3.org/1999/xlink" width="1.0938in" height="0.9688in" viewBox="0 0 78.7500 69.7500" >
<g id="Layer1130" >
<path d=" 
M2.2500,-4468.5001
L76.5000,-4468.5001
L76.5000,-4533.7501
L2.2500,-4533.7501
L2.2500,-4468.5001
Z" 
style="stroke-width: 0.7200; stroke-linecap: round; stroke-linejoin: round; fill-rule: evenodd; fill: #ffffff; "/>
<path d=" 
M2.2500,-4468.5001
L76.5000,-4468.5001
L76.5000,-4533.7501
L2.2500,-4533.7501
L2.2500,-4468.5001
Z" 
style="stroke-width: 0.7200; stroke: #ffffff; stroke-dasharray: none; stroke-linecap: round; stroke-linejoin: round; fill: none; "/>
</g>
<path d=" 
M76.5000,-4536.0000
L2.2500,-4536.0000
C1.0125,-4536.0000 0.0000,-4534.9875 0.0000,-4533.7500
L0.0000,-4524.7500
L0.0000,-4468.5000
C0.0000,-4467.2625 1.0125,-4466.2500 2.2500,-4466.2500
L76.5000,-4466.2500
C77.7375,-4466.2500 78.7500,-4467.2625 78.7500,-4468.5000
L78.7500,-4524.7500
L78.7500,-4533.7500
C78.7500,-4534.9875 77.7375,-4536.0000 76.5000,-4536.0000
Z
M11.2500,-4530.3750
C11.2500,-4529.7532 10.7468,-4529.2500 10.1250,-4529.2500
C9.5032,-4529.2500 9.0000,-4529.7532 9.0000,-4530.3750
C9.0000,-4530.9968 9.5032,-4531.5000 10.1250,-4531.5000
C10.7468,-4531.5000 11.2500,-4530.9968 11.2500,-4530.3750
Z
M6.7500,-4530.3750
C6.7500,-4529.7532 6.2468,-4529.2500 5.6250,-4529.2500
C5.0032,-4529.2500 4.5000,-4529.7532 4.5000,-4530.3750
C4.5000,-4530.9968 5.0032,-4531.5000 5.6250,-4531.5000
C6.2468,-4531.5000 6.7500,-4530.9968 6.7500,-4530.3750
Z
M76.5000,-4468.5000
L2.2500,-4468.5000
L2.2500,-4524.7500
L76.5000,-4524.7500
L76.5000,-4468.5000
Z
M74.2500,-4530.3750
C74.2500,-4529.7532 73.7460,-4529.2500 73.1250,-4529.2500
L16.8750,-4529.2500
C16.2533,-4529.2500 15.7500,-4529.7532 15.7500,-4530.3750
C15.7500,-4530.9968 16.2533,-4531.5000 16.8750,-4531.5000
L73.1250,-4531.5000
C73.7460,-4531.5000 74.2500,-4530.9968 74.2500,-4530.3750
Z
M48.7500,-4512.7500
L48.7500,-4471.5000
L5.2500,-4471.5000
L5.2500,-4512.7500
L48.7500,-4512.7500
Z
M49.5000,-4513.5000
L4.5000,-4513.5000
L4.5000,-4470.7500
L49.5000,-4470.7500
L49.5000,-4513.5000
Z
M73.5000,-4521.7500
L73.5000,-4516.5000
L5.2500,-4516.5000
L5.2500,-4521.7500
L73.5000,-4521.7500
Z
M74.2500,-4522.5000
L4.5000,-4522.5000
L4.5000,-4515.7500
L74.2500,-4515.7500
L74.2500,-4522.5000
Z
M73.5000,-4512.7500
L73.5000,-4500.7500
L52.5000,-4500.7500
L52.5000,-4512.7500
L73.5000,-4512.7500
Z
M74.2500,-4513.5000
L51.7500,-4513.5000
L51.7500,-4500.0000
L74.2500,-4500.0000
L74.2500,-4513.5000
Z
M73.5000,-4497.0000
L73.5000,-4471.5000
L52.5000,-4471.5000
L52.5000,-4497.0000
L73.5000,-4497.0000
Z
M74.2500,-4497.7500
L51.7500,-4497.7500
L51.7500,-4470.7500
L74.2500,-4470.7500
L74.2500,-4497.7500
Z" 
style="fill-rule: evenodd; fill: #010101; "/>
<text x="0.0000" y="-4466.2500">
<tspan font-family="Arial Narrow" font-weight="bold" font-size="12.0000" fill="#000000" fill-opacity="1.0000" stroke-opacity="1.0000" >
</tspan>
<tspan font-family="Arial Narrow" font-weight="bold" font-size="12.0000" fill="#000000" fill-opacity="1.0000" stroke-opacity="1.0000" >
Web Interface</tspan>
</text>
</svg>
