<?xml version="1.0" encoding="UTF-8" standalone="no"?>
<svg version="1.1" xmlns="http://www.w3.org/2000/svg" xmlns:xlink="http://www.w3.org/1999/xlink" width="1.2303in" height="1.0938in" viewBox="0 0 88.5840 78.7500" >
<g id="Layer1110" >
<path d=" 
M31.8717,-4459.5001
C36.9732,-4459.5001 51.0124,-4469.2359 62.5377,-4480.7596
C68.6599,-4486.8766 74.7379,-4494.2401 78.7947,-4500.4546
C84.0342,-4508.4736 84.0019,-4511.6139 83.7072,-4512.0166
C83.6809,-4512.0331 83.5002,-4512.1036 83.1214,-4512.1036
C78.0259,-4512.1036 63.9814,-4502.3664 52.4562,-4490.8411
C49.3759,-4487.7586 46.3039,-4484.3604 43.4937,-4480.9516
C44.7777,-4479.3984 45.5532,-4477.4184 45.5532,-4475.2501
C45.5532,-4470.2874 41.5167,-4466.2501 36.5592,-4466.2501
C35.5122,-4466.2501 34.5147,-4466.4346 33.5779,-4466.7624
C30.9994,-4461.9549 31.0527,-4459.9066 31.2867,-4459.5864
C31.3114,-4459.5706 31.4922,-4459.5001 31.8717,-4459.5001
Z" 
style="stroke-width: 0.7200; stroke-linecap: round; stroke-linejoin: round; fill-rule: evenodd; fill: #ffffff; "/>
<path d=" 
M31.8717,-4459.5001
C36.9732,-4459.5001 51.0124,-4469.2359 62.5377,-4480.7596
C68.6599,-4486.8766 74.7379,-4494.2401 78.7947,-4500.4546
C84.0342,-4508.4736 84.0019,-4511.6139 83.7072,-4512.0166
C83.6809,-4512.0331 83.5002,-4512.1036 83.1214,-4512.1036
C78.0259,-4512.1036 63.9814,-4502.3664 52.4562,-4490.8411
C49.3759,-4487.7586 46.3039,-4484.3604 43.4937,-4480.9516
C44.7777,-4479.3984 45.5532,-4477.4184 45.5532,-4475.2501
C45.5532,-4470.2874 41.5167,-4466.2501 36.5592,-4466.2501
C35.5122,-4466.2501 34.5147,-4466.4346 33.5779,-4466.7624
C30.9994,-4461.9549 31.0527,-4459.9066 31.2867,-4459.5864
C31.3114,-4459.5706 31.4922,-4459.5001 31.8717,-4459.5001
Z" 
style="stroke-width: 0.7200; stroke: #ffffff; stroke-dasharray: none; stroke-linecap: round; stroke-linejoin: round; fill: none; "/>
</g>
<g id="Layer1111" >
<path d=" 
M34.7134,-4468.7626
C35.2992,-4468.5946 35.9172,-4468.5001 36.5592,-4468.5001
C40.2762,-4468.5001 43.3047,-4471.5279 43.3047,-4475.2501
C43.3047,-4476.7089 42.8344,-4478.0559 42.0477,-4479.1599
C39.8532,-4476.4104 37.8627,-4473.6886 36.2119,-4471.1574
C35.6487,-4470.3009 35.1604,-4469.5111 34.7134,-4468.7626
Z" 
style="stroke-width: 0.7200; stroke-linecap: round; stroke-linejoin: round; fill-rule: evenodd; fill: #ffffff; "/>
<path d=" 
M34.7134,-4468.7626
C35.2992,-4468.5946 35.9172,-4468.5001 36.5592,-4468.5001
C40.2762,-4468.5001 43.3047,-4471.5279 43.3047,-4475.2501
C43.3047,-4476.7089 42.8344,-4478.0559 42.0477,-4479.1599
C39.8532,-4476.4104 37.8627,-4473.6886 36.2119,-4471.1574
C35.6487,-4470.3009 35.1604,-4469.5111 34.7134,-4468.7626
Z" 
style="stroke-width: 0.7200; stroke: #ffffff; stroke-dasharray: none; stroke-linecap: round; stroke-linejoin: round; fill: none; "/>
</g>
<g id="Layer1112" >
<path d=" 
M28.5147,-4480.1401
C28.8814,-4476.5919 28.7007,-4473.5904 28.5439,-4470.9421
C28.3324,-4467.4036 28.1847,-4464.8461 29.2939,-4462.4401
C29.7109,-4463.9739 30.4962,-4465.7821 31.5604,-4467.7674
C31.5604,-4467.7674 32.1154,-4468.7761 32.1289,-4468.8009
C36.1789,-4475.9326 43.5102,-4485.0751 50.8654,-4492.4304
C60.7047,-4502.2696 73.7524,-4512.0766 80.8932,-4514.0049
C79.3437,-4514.7189 77.7514,-4514.9146 75.9319,-4514.9146
C74.8309,-4514.9146 73.6414,-4514.8434 72.3784,-4514.7676
C70.9182,-4514.6799 69.2652,-4514.5809 67.4974,-4514.5809
C65.9884,-4514.5809 64.5754,-4514.6514 63.1722,-4514.7961
C59.6134,-4515.1644 55.2064,-4518.0714 49.6347,-4521.7516
C42.2937,-4526.5959 33.1497,-4532.6251 25.1494,-4532.6251
C21.2554,-4532.6251 17.9329,-4531.2069 15.0177,-4528.2879
C10.6617,-4523.9386 9.6147,-4518.7389 11.7169,-4511.9229
C13.6332,-4505.6851 17.8369,-4499.3094 21.5569,-4493.6836
C22.9137,-4491.6264 24.1632,-4489.7289 25.2214,-4487.9731
C27.5839,-4493.3146 33.6994,-4500.9879 39.1339,-4506.4216
C39.5704,-4506.8611 40.2837,-4506.8611 40.7232,-4506.4216
C41.1627,-4505.9821 41.1627,-4505.2704 40.7232,-4504.8309
C33.9537,-4498.0599 27.9184,-4489.7386 26.6824,-4485.4749
C26.6787,-4485.4591 26.6674,-4485.4486 26.6629,-4485.4329
C27.6784,-4483.4829 28.3512,-4481.7279 28.5147,-4480.1401
Z" 
style="stroke-width: 0.7200; stroke-linecap: round; stroke-linejoin: round; fill-rule: evenodd; fill: #ffffff; "/>
<path d=" 
M28.5147,-4480.1401
C28.8814,-4476.5919 28.7007,-4473.5904 28.5439,-4470.9421
C28.3324,-4467.4036 28.1847,-4464.8461 29.2939,-4462.4401
C29.7109,-4463.9739 30.4962,-4465.7821 31.5604,-4467.7674
C31.5604,-4467.7674 32.1154,-4468.7761 32.1289,-4468.8009
C36.1789,-4475.9326 43.5102,-4485.0751 50.8654,-4492.4304
C60.7047,-4502.2696 73.7524,-4512.0766 80.8932,-4514.0049
C79.3437,-4514.7189 77.7514,-4514.9146 75.9319,-4514.9146
C74.8309,-4514.9146 73.6414,-4514.8434 72.3784,-4514.7676
C70.9182,-4514.6799 69.2652,-4514.5809 67.4974,-4514.5809
C65.9884,-4514.5809 64.5754,-4514.6514 63.1722,-4514.7961
C59.6134,-4515.1644 55.2064,-4518.0714 49.6347,-4521.7516
C42.2937,-4526.5959 33.1497,-4532.6251 25.1494,-4532.6251
C21.2554,-4532.6251 17.9329,-4531.2069 15.0177,-4528.2879
C10.6617,-4523.9386 9.6147,-4518.7389 11.7169,-4511.9229
C13.6332,-4505.6851 17.8369,-4499.3094 21.5569,-4493.6836
C22.9137,-4491.6264 24.1632,-4489.7289 25.2214,-4487.9731
C27.5839,-4493.3146 33.6994,-4500.9879 39.1339,-4506.4216
C39.5704,-4506.8611 40.2837,-4506.8611 40.7232,-4506.4216
C41.1627,-4505.9821 41.1627,-4505.2704 40.7232,-4504.8309
C33.9537,-4498.0599 27.9184,-4489.7386 26.6824,-4485.4749
C26.6787,-4485.4591 26.6674,-4485.4486 26.6629,-4485.4329
C27.6784,-4483.4829 28.3512,-4481.7279 28.5147,-4480.1401
Z" 
style="stroke-width: 0.7200; stroke: #ffffff; stroke-dasharray: none; stroke-linecap: round; stroke-linejoin: round; fill: none; "/>
</g>
<g id="Layer1113" >
<path d=" 
M13.1854,-4533.1284
C12.7849,-4533.5296 12.2509,-4533.7501 11.6824,-4533.7501
C11.1132,-4533.7501 10.5747,-4533.5296 10.1712,-4533.1284
C9.3477,-4532.2996 9.3477,-4530.9511 10.1712,-4530.1224
C10.5739,-4529.7211 11.1124,-4529.5006 11.6824,-4529.5006
C12.2509,-4529.5006 12.7849,-4529.7211 13.1854,-4530.1224
C14.0127,-4530.9511 14.0127,-4532.3004 13.1854,-4533.1284
Z" 
style="stroke-width: 0.7200; stroke-linecap: round; stroke-linejoin: round; fill-rule: evenodd; fill: #ffffff; "/>
<path d=" 
M13.1854,-4533.1284
C12.7849,-4533.5296 12.2509,-4533.7501 11.6824,-4533.7501
C11.1132,-4533.7501 10.5747,-4533.5296 10.1712,-4533.1284
C9.3477,-4532.2996 9.3477,-4530.9511 10.1712,-4530.1224
C10.5739,-4529.7211 11.1124,-4529.5006 11.6824,-4529.5006
C12.2509,-4529.5006 12.7849,-4529.7211 13.1854,-4530.1224
C14.0127,-4530.9511 14.0127,-4532.3004 13.1854,-4533.1284
Z" 
style="stroke-width: 0.7200; stroke: #ffffff; stroke-dasharray: none; stroke-linecap: round; stroke-linejoin: round; fill: none; "/>
</g>
<path d=" 
M85.3650,-4513.3223
C82.2247,-4516.4633 79.2622,-4517.1653 75.7725,-4517.1653
C73.2825,-4517.1653 70.5420,-4516.8315 67.3395,-4516.8315
C66.0578,-4516.8315 64.6995,-4516.8855 63.2497,-4517.0348
C55.6950,-4517.8155 39.4357,-4534.8750 24.9915,-4534.8750
C21.8258,-4534.8750 18.7432,-4534.0477 15.8565,-4532.0482
C15.7642,-4533.0225 15.3600,-4533.9727 14.6167,-4534.7190
C13.7625,-4535.5725 12.6458,-4536.0000 11.5245,-4536.0000
C10.3987,-4536.0000 9.2805,-4535.5725 8.4262,-4534.7190
C6.7215,-4533.0097 6.7215,-4530.2400 8.4262,-4528.5315
C9.1732,-4527.7852 10.1198,-4527.3848 11.0985,-4527.2910
C0.0000,-4511.2778 25.1617,-4489.1213 26.1180,-4479.9083
C27.1463,-4469.9618 23.6310,-4464.2288 29.4757,-4458.0720
C29.4975,-4458.0487 29.8162,-4457.7802 29.8162,-4457.7802
C30.3030,-4457.4277 30.9383,-4457.2500 31.7130,-4457.2500
C38.0182,-4457.2500 52.9927,-4468.1880 63.9713,-4479.1680
C76.3087,-4491.5010 88.5840,-4508.8583 85.3650,-4513.3223
Z
M10.0132,-4533.1282
C10.4168,-4533.5295 10.9553,-4533.7500 11.5245,-4533.7500
C12.0930,-4533.7500 12.6270,-4533.5295 13.0275,-4533.1282
C13.8547,-4532.3003 13.8547,-4530.9510 13.0275,-4530.1222
C12.6270,-4529.7210 12.0930,-4529.5005 11.5245,-4529.5005
C10.9545,-4529.5005 10.4160,-4529.7210 10.0132,-4530.1222
C9.1898,-4530.9510 9.1898,-4532.2995 10.0132,-4533.1282
Z
M29.1360,-4462.4400
C28.0268,-4464.8460 28.1745,-4467.4035 28.3860,-4470.9420
C28.5427,-4473.5903 28.7235,-4476.5917 28.3568,-4480.1400
C28.1932,-4481.7278 27.5205,-4483.4828 26.5050,-4485.4327
C26.5095,-4485.4485 26.5207,-4485.4590 26.5245,-4485.4747
C27.7605,-4489.7385 33.7958,-4498.0598 40.5653,-4504.8308
C41.0047,-4505.2702 41.0047,-4505.9820 40.5653,-4506.4215
C40.1258,-4506.8610 39.4125,-4506.8610 38.9760,-4506.4215
C33.5415,-4500.9878 27.4260,-4493.3145 25.0635,-4487.9730
C24.0053,-4489.7288 22.7558,-4491.6263 21.3990,-4493.6835
C17.6790,-4499.3092 13.4753,-4505.6850 11.5590,-4511.9227
C9.4568,-4518.7387 10.5037,-4523.9385 14.8597,-4528.2878
C17.7750,-4531.2067 21.0975,-4532.6250 24.9915,-4532.6250
C32.9917,-4532.6250 42.1358,-4526.5958 49.4767,-4521.7515
C55.0485,-4518.0712 59.4555,-4515.1643 63.0143,-4514.7960
C64.4175,-4514.6512 65.8305,-4514.5808 67.3395,-4514.5808
C69.1072,-4514.5808 70.7602,-4514.6798 72.2205,-4514.7675
C73.4835,-4514.8433 74.6730,-4514.9145 75.7740,-4514.9145
C77.5935,-4514.9145 79.1858,-4514.7188 80.7352,-4514.0048
C73.5945,-4512.0765 60.5467,-4502.2695 50.7075,-4492.4302
C43.3522,-4485.0750 36.0210,-4475.9325 31.9710,-4468.8008
C31.9575,-4468.7760 31.4025,-4467.7672 31.4025,-4467.7672
C30.3382,-4465.7820 29.5530,-4463.9738 29.1360,-4462.4400
Z
M43.1467,-4475.2500
C43.1467,-4471.5278 40.1183,-4468.5000 36.4013,-4468.5000
C35.7593,-4468.5000 35.1413,-4468.5945 34.5555,-4468.7625
C35.0025,-4469.5110 35.4907,-4470.3008 36.0540,-4471.1573
C37.7048,-4473.6885 39.6953,-4476.4102 41.8897,-4479.1597
C42.6765,-4478.0558 43.1467,-4476.7087 43.1467,-4475.2500
Z
M78.6367,-4500.4545
C74.5800,-4494.2400 68.5020,-4486.8765 62.3797,-4480.7595
C50.8545,-4469.2357 36.8152,-4459.5000 31.7137,-4459.5000
C31.3342,-4459.5000 31.1535,-4459.5705 31.1287,-4459.5863
C30.8948,-4459.9065 30.8415,-4461.9547 33.4200,-4466.7623
C34.3567,-4466.4345 35.3543,-4466.2500 36.4013,-4466.2500
C41.3587,-4466.2500 45.3952,-4470.2872 45.3952,-4475.2500
C45.3952,-4477.4182 44.6197,-4479.3983 43.3358,-4480.9515
C46.1460,-4484.3602 49.2180,-4487.7585 52.2983,-4490.8410
C63.8235,-4502.3663 77.8680,-4512.1035 82.9635,-4512.1035
C83.3423,-4512.1035 83.5230,-4512.0330 83.5492,-4512.0165
C83.8440,-4511.6137 83.8762,-4508.4735 78.6367,-4500.4545
Z" 
style="fill-rule: evenodd; fill: #010101; "/>
<text x="0.0000" y="-4457.2500">
<tspan font-family="Arial Narrow" font-weight="bold" font-size="12.0000" fill="#000000" fill-opacity="1.0000" stroke-opacity="1.0000" >
</tspan>
<tspan font-family="Arial Narrow" font-weight="bold" font-size="12.0000" fill="#000000" fill-opacity="1.0000" stroke-opacity="1.0000" >
Alert</tspan>
</text>
</svg>
