<?xml version="1.0" encoding="UTF-8" standalone="no"?>
<svg version="1.1" xmlns="http://www.w3.org/2000/svg" xmlns:xlink="http://www.w3.org/1999/xlink" width="1.0312in" height="0.8125in" viewBox="0 0 74.2500 58.5000" >
<path d=" 
M45.0000,-4493.2500
L69.7500,-4493.2500
L69.7500,-4497.7500
L45.0000,-4497.7500
L45.0000,-4493.2500
Z" 
style="fill-rule: evenodd; fill: #000000; "/>
<path d=" 
M27.0000,-4493.2500
L38.2500,-4493.2500
L38.2500,-4497.7500
L27.0000,-4497.7500
L27.0000,-4493.2500
Z" 
style="fill-rule: evenodd; fill: #000000; "/>
<path d=" 
M4.5000,-4493.2500
L20.2500,-4493.2500
L20.2500,-4497.7500
L4.5000,-4497.7500
L4.5000,-4493.2500
Z" 
style="fill-rule: evenodd; fill: #000000; "/>
<path d=" 
M4.5000,-4515.7500
L13.5000,-4515.7500
L13.5000,-4520.2500
L4.5000,-4520.2500
L4.5000,-4515.7500
Z" 
style="fill-rule: evenodd; fill: #000000; "/>
<path d=" 
M4.5000,-4527.0000
L29.2500,-4527.0000
L29.2500,-4531.5000
L4.5000,-4531.5000
L4.5000,-4527.0000
Z" 
style="fill-rule: evenodd; fill: #000000; "/>
<path d=" 
M36.0000,-4527.0000
L47.2500,-4527.0000
L47.2500,-4531.5000
L36.0000,-4531.5000
L36.0000,-4527.0000
Z" 
style="fill-rule: evenodd; fill: #000000; "/>
<path d=" 
M54.0000,-4527.0000
L69.7500,-4527.0000
L69.7500,-4531.5000
L54.0000,-4531.5000
L54.0000,-4527.0000
Z" 
style="fill-rule: evenodd; fill: #000000; "/>
<path d=" 
M4.5000,-4482.0000
L47.2500,-4482.0000
L47.2500,-4486.5000
L4.5000,-4486.5000
L4.5000,-4482.0000
Z" 
style="fill-rule: evenodd; fill: #000000; "/>
<path d=" 
M54.0000,-4482.0000
L69.7500,-4482.0000
L69.7500,-4486.5000
L54.0000,-4486.5000
L54.0000,-4482.0000
Z" 
style="fill-rule: evenodd; fill: #000000; "/>
<path d=" 
M40.5000,-4515.7500
L51.7500,-4515.7500
L51.7500,-4520.2500
L40.5000,-4520.2500
L40.5000,-4515.7500
Z" 
style="fill-rule: evenodd; fill: #000000; "/>
<path d=" 
M58.5000,-4515.7500
L69.7500,-4515.7500
L69.7500,-4520.2500
L58.5000,-4520.2500
L58.5000,-4515.7500
Z" 
style="fill-rule: evenodd; fill: #000000; "/>
<path d=" 
M63.0000,-4504.5000
L69.7500,-4504.5000
L69.7500,-4509.0000
L63.0000,-4509.0000
L63.0000,-4504.5000
Z" 
style="fill-rule: evenodd; fill: #000000; "/>
<path d=" 
M29.2500,-4504.5000
L56.2500,-4504.5000
L56.2500,-4509.0000
L29.2500,-4509.0000
L29.2500,-4504.5000
Z" 
style="fill-rule: evenodd; fill: #000000; "/>
<path d=" 
M15.7500,-4504.5000
L22.5000,-4504.5000
L22.5000,-4509.0000
L15.7500,-4509.0000
L15.7500,-4504.5000
Z" 
style="fill-rule: evenodd; fill: #000000; "/>
<path d=" 
M4.5000,-4504.5000
L9.0000,-4504.5000
L9.0000,-4509.0000
L4.5000,-4509.0000
L4.5000,-4504.5000
Z" 
style="fill-rule: evenodd; fill: #000000; "/>
<path d=" 
M20.2500,-4515.7500
L33.7500,-4515.7500
L33.7500,-4520.2500
L20.2500,-4520.2500
L20.2500,-4515.7500
Z" 
style="fill-rule: evenodd; fill: #000000; "/>
<path d=" 
M71.6250,-4522.5000
L67.5000,-4522.5000
L67.5000,-4524.7500
L71.6250,-4524.7500
C71.8282,-4524.7500 72.0000,-4524.9217 72.0000,-4525.1250
L72.0000,-4533.3750
C72.0000,-4533.5782 71.8282,-4533.7500 71.6250,-4533.7500
L67.5000,-4533.7500
L67.5000,-4536.0000
L71.6250,-4536.0000
C73.0725,-4536.0000 74.2500,-4534.8225 74.2500,-4533.3750
L74.2500,-4525.1250
C74.2500,-4523.6775 73.0725,-4522.5000 71.6250,-4522.5000
Z" 
style="fill-rule: evenodd; fill: #000000; "/>
<path d=" 
M71.6250,-4477.5000
L67.5000,-4477.5000
L67.5000,-4479.7500
L71.6250,-4479.7500
C71.8282,-4479.7500 72.0000,-4479.9218 72.0000,-4480.1250
L72.0000,-4488.3750
C72.0000,-4488.5783 71.8282,-4488.7500 71.6250,-4488.7500
L67.5000,-4488.7500
L67.5000,-4491.0000
L71.6250,-4491.0000
C73.0725,-4491.0000 74.2500,-4489.8225 74.2500,-4488.3750
L74.2500,-4480.1250
C74.2500,-4478.6775 73.0725,-4477.5000 71.6250,-4477.5000
Z" 
style="fill-rule: evenodd; fill: #000000; "/>
<path d=" 
M6.7500,-4477.5000
L2.6250,-4477.5000
C1.1775,-4477.5000 0.0000,-4478.6775 0.0000,-4480.1250
L0.0000,-4488.3750
C0.0000,-4489.8225 1.1775,-4491.0000 2.6250,-4491.0000
L6.7500,-4491.0000
L6.7500,-4488.7500
L2.6250,-4488.7500
C2.4217,-4488.7500 2.2500,-4488.5783 2.2500,-4488.3750
L2.2500,-4480.1250
C2.2500,-4479.9218 2.4217,-4479.7500 2.6250,-4479.7500
L6.7500,-4479.7500
L6.7500,-4477.5000
Z" 
style="fill-rule: evenodd; fill: #000000; "/>
<path d=" 
M6.7500,-4522.5000
L2.6250,-4522.5000
C1.1775,-4522.5000 0.0000,-4523.6775 0.0000,-4525.1250
L0.0000,-4533.3750
C0.0000,-4534.8225 1.1775,-4536.0000 2.6250,-4536.0000
L6.7500,-4536.0000
L6.7500,-4533.7500
L2.6250,-4533.7500
C2.4217,-4533.7500 2.2500,-4533.5782 2.2500,-4533.3750
L2.2500,-4525.1250
C2.2500,-4524.9217 2.4217,-4524.7500 2.6250,-4524.7500
L6.7500,-4524.7500
L6.7500,-4522.5000
Z" 
style="fill-rule: evenodd; fill: #000000; "/>
<text x="0.0000" y="-4477.5000">
<tspan font-family="Arial Narrow" font-weight="bold" font-size="12.0000" fill="#000000" fill-opacity="1.0000" stroke-opacity="1.0000" >
Event Types (small)</tspan>
</text>
</svg>
