<?xml version="1.0" encoding="UTF-8" standalone="no"?>
<svg version="1.1" xmlns="http://www.w3.org/2000/svg" xmlns:xlink="http://www.w3.org/1999/xlink" width="1.0104in" height="0.6354in" viewBox="0 0 72.7500 45.7500" >
<path d=" 
M44.2493,-4503.0008
L68.9993,-4503.0008
L68.9993,-4505.2508
L44.2493,-4505.2508
L44.2493,-4503.0008
Z" 
style="fill-rule: evenodd; fill: #000000; "/>
<path d=" 
M26.2500,-4503.0008
L37.5000,-4503.0008
L37.5000,-4505.2508
L26.2500,-4505.2508
L26.2500,-4503.0008
Z" 
style="fill-rule: evenodd; fill: #000000; "/>
<path d=" 
M3.7500,-4503.0008
L19.5000,-4503.0008
L19.5000,-4505.2508
L3.7500,-4505.2508
L3.7500,-4503.0008
Z" 
style="fill-rule: evenodd; fill: #000000; "/>
<path d=" 
M3.7500,-4521.0000
L12.7500,-4521.0000
L12.7500,-4523.2500
L3.7500,-4523.2500
L3.7500,-4521.0000
Z" 
style="fill-rule: evenodd; fill: #000000; "/>
<path d=" 
M3.7500,-4530.0000
L28.5000,-4530.0000
L28.5000,-4532.2500
L3.7500,-4532.2500
L3.7500,-4530.0000
Z" 
style="fill-rule: evenodd; fill: #000000; "/>
<path d=" 
M35.2500,-4530.0000
L46.5000,-4530.0000
L46.5000,-4532.2500
L35.2500,-4532.2500
L35.2500,-4530.0000
Z" 
style="fill-rule: evenodd; fill: #000000; "/>
<path d=" 
M53.2493,-4530.0000
L68.9992,-4530.0000
L68.9992,-4532.2500
L53.2493,-4532.2500
L53.2493,-4530.0000
Z" 
style="fill-rule: evenodd; fill: #000000; "/>
<path d=" 
M3.7500,-4494.0008
L46.5000,-4494.0008
L46.5000,-4496.2508
L3.7500,-4496.2508
L3.7500,-4494.0008
Z" 
style="fill-rule: evenodd; fill: #000000; "/>
<path d=" 
M53.2493,-4494.0008
L68.9992,-4494.0008
L68.9992,-4496.2508
L53.2493,-4496.2508
L53.2493,-4494.0008
Z" 
style="fill-rule: evenodd; fill: #000000; "/>
<path d=" 
M39.7493,-4521.0000
L50.9993,-4521.0000
L50.9993,-4523.2500
L39.7493,-4523.2500
L39.7493,-4521.0000
Z" 
style="fill-rule: evenodd; fill: #000000; "/>
<path d=" 
M57.7493,-4521.0000
L68.9993,-4521.0000
L68.9993,-4523.2500
L57.7493,-4523.2500
L57.7493,-4521.0000
Z" 
style="fill-rule: evenodd; fill: #000000; "/>
<path d=" 
M62.2492,-4512.0000
L68.9992,-4512.0000
L68.9992,-4514.2500
L62.2492,-4514.2500
L62.2492,-4512.0000
Z" 
style="fill-rule: evenodd; fill: #000000; "/>
<path d=" 
M28.5000,-4512.0000
L55.5000,-4512.0000
L55.5000,-4514.2500
L28.5000,-4514.2500
L28.5000,-4512.0000
Z" 
style="fill-rule: evenodd; fill: #000000; "/>
<path d=" 
M15.0000,-4512.0000
L21.7500,-4512.0000
L21.7500,-4514.2500
L15.0000,-4514.2500
L15.0000,-4512.0000
Z" 
style="fill-rule: evenodd; fill: #000000; "/>
<path d=" 
M3.7500,-4512.0000
L8.2500,-4512.0000
L8.2500,-4514.2500
L3.7500,-4514.2500
L3.7500,-4512.0000
Z" 
style="fill-rule: evenodd; fill: #000000; "/>
<path d=" 
M19.5000,-4521.0000
L33.0000,-4521.0000
L33.0000,-4523.2500
L19.5000,-4523.2500
L19.5000,-4521.0000
Z" 
style="fill-rule: evenodd; fill: #000000; "/>
<path d=" 
M6.7500,-4526.2500
L1.1250,-4526.2500
C0.5040,-4526.2500 0.0000,-4526.7548 0.0000,-4527.3750
L0.0000,-4534.8750
C0.0000,-4535.4960 0.5040,-4536.0000 1.1250,-4536.0000
L6.7500,-4536.0000
L6.7500,-4535.2500
L1.1250,-4535.2500
C0.9188,-4535.2500 0.7500,-4535.0813 0.7500,-4534.8750
L0.7500,-4527.3750
C0.7500,-4527.1680 0.9188,-4527.0000 1.1250,-4527.0000
L6.7500,-4527.0000
L6.7500,-4526.2500
Z" 
style="fill-rule: evenodd; fill: #000000; "/>
<path d=" 
M6.7500,-4490.2500
L1.1250,-4490.2500
C0.5040,-4490.2500 0.0000,-4490.7555 0.0000,-4491.3750
L0.0000,-4498.8750
C0.0000,-4499.4960 0.5040,-4500.0000 1.1250,-4500.0000
L6.7500,-4500.0000
L6.7500,-4499.2500
L1.1250,-4499.2500
C0.9188,-4499.2500 0.7500,-4499.0813 0.7500,-4498.8750
L0.7500,-4491.3750
C0.7500,-4491.1688 0.9188,-4491.0000 1.1250,-4491.0000
L6.7500,-4491.0000
L6.7500,-4490.2500
Z" 
style="fill-rule: evenodd; fill: #000000; "/>
<path d=" 
M71.6250,-4490.2500
L66.0000,-4490.2500
L66.0000,-4491.0000
L71.6250,-4491.0000
C71.8313,-4491.0000 72.0000,-4491.1688 72.0000,-4491.3750
L72.0000,-4498.8750
C72.0000,-4499.0813 71.8313,-4499.2500 71.6250,-4499.2500
L66.0000,-4499.2500
L66.0000,-4500.0000
L71.6250,-4500.0000
C72.2445,-4500.0000 72.7500,-4499.4960 72.7500,-4498.8750
L72.7500,-4491.3750
C72.7500,-4490.7555 72.2445,-4490.2500 71.6250,-4490.2500
Z" 
style="fill-rule: evenodd; fill: #000000; "/>
<path d=" 
M71.6250,-4526.2500
L66.0000,-4526.2500
L66.0000,-4527.0000
L71.6250,-4527.0000
C71.8313,-4527.0000 72.0000,-4527.1680 72.0000,-4527.3750
L72.0000,-4534.8750
C72.0000,-4535.0813 71.8313,-4535.2500 71.6250,-4535.2500
L66.0000,-4535.2500
L66.0000,-4536.0000
L71.6250,-4536.0000
C72.2445,-4536.0000 72.7500,-4535.4960 72.7500,-4534.8750
L72.7500,-4527.3750
C72.7500,-4526.7548 72.2445,-4526.2500 71.6250,-4526.2500
Z" 
style="fill-rule: evenodd; fill: #000000; "/>
<text x="0.0000" y="-4490.2500">
<tspan font-family="Arial Narrow" font-weight="bold" font-size="12.0000" fill="#000000" fill-opacity="1.0000" stroke-opacity="1.0000" >
Event Types</tspan>
</text>
</svg>
