<?xml version="1.0" encoding="UTF-8" standalone="no"?>
<svg version="1.1" xmlns="http://www.w3.org/2000/svg" xmlns:xlink="http://www.w3.org/1999/xlink" width="0.9688in" height="0.7500in" viewBox="0 0 69.7500 54.0000" >
<path d=" 
M45.0000,-4493.2500
L69.7500,-4493.2500
L69.7500,-4497.7500
L45.0000,-4497.7500
L45.0000,-4493.2500
Z" 
style="fill-rule: evenodd; fill: #000000; "/>
<path d=" 
M27.0000,-4493.2500
L38.2500,-4493.2500
L38.2500,-4497.7500
L27.0000,-4497.7500
L27.0000,-4493.2500
Z" 
style="fill-rule: evenodd; fill: #000000; "/>
<path d=" 
M4.5000,-4493.2500
L20.2500,-4493.2500
L20.2500,-4497.7500
L4.5000,-4497.7500
L4.5000,-4493.2500
Z" 
style="fill-rule: evenodd; fill: #000000; "/>
<path d=" 
M4.5000,-4515.7500
L15.7500,-4515.7500
L15.7500,-4520.2500
L4.5000,-4520.2500
L4.5000,-4515.7500
Z" 
style="fill-rule: evenodd; fill: #000000; "/>
<path d=" 
M4.5000,-4527.0000
L29.2500,-4527.0000
L29.2500,-4531.5000
L4.5000,-4531.5000
L4.5000,-4527.0000
Z" 
style="fill-rule: evenodd; fill: #000000; "/>
<path d=" 
M36.0000,-4527.0000
L47.2500,-4527.0000
L47.2500,-4531.5000
L36.0000,-4531.5000
L36.0000,-4527.0000
Z" 
style="fill-rule: evenodd; fill: #000000; "/>
<path d=" 
M54.0000,-4527.0000
L69.7500,-4527.0000
L69.7500,-4531.5000
L54.0000,-4531.5000
L54.0000,-4527.0000
Z" 
style="fill-rule: evenodd; fill: #000000; "/>
<path d=" 
M4.5000,-4482.0000
L47.2500,-4482.0000
L47.2500,-4486.5000
L4.5000,-4486.5000
L4.5000,-4482.0000
Z" 
style="fill-rule: evenodd; fill: #000000; "/>
<path d=" 
M54.0000,-4482.0000
L69.7500,-4482.0000
L69.7500,-4486.5000
L54.0000,-4486.5000
L54.0000,-4482.0000
Z" 
style="fill-rule: evenodd; fill: #000000; "/>
<path d=" 
M36.0000,-4515.7500
L51.7500,-4515.7500
L51.7500,-4520.2500
L36.0000,-4520.2500
L36.0000,-4515.7500
Z" 
style="fill-rule: evenodd; fill: #000000; "/>
<path d=" 
M58.5000,-4515.7500
L69.7500,-4515.7500
L69.7500,-4520.2500
L58.5000,-4520.2500
L58.5000,-4515.7500
Z" 
style="fill-rule: evenodd; fill: #000000; "/>
<path d=" 
M63.0000,-4504.5000
L69.7500,-4504.5000
L69.7500,-4509.0000
L63.0000,-4509.0000
L63.0000,-4504.5000
Z" 
style="fill-rule: evenodd; fill: #000000; "/>
<path d=" 
M29.2500,-4504.5000
L56.2500,-4504.5000
L56.2500,-4509.0000
L29.2500,-4509.0000
L29.2500,-4504.5000
Z" 
style="fill-rule: evenodd; fill: #000000; "/>
<path d=" 
M15.7500,-4504.5000
L22.5000,-4504.5000
L22.5000,-4509.0000
L15.7500,-4509.0000
L15.7500,-4504.5000
Z" 
style="fill-rule: evenodd; fill: #000000; "/>
<path d=" 
M4.5000,-4504.5000
L9.0000,-4504.5000
L9.0000,-4509.0000
L4.5000,-4509.0000
L4.5000,-4504.5000
Z" 
style="fill-rule: evenodd; fill: #000000; "/>
<path d=" 
M22.5000,-4515.7500
L29.2500,-4515.7500
L29.2500,-4520.2500
L22.5000,-4520.2500
L22.5000,-4515.7500
Z" 
style="fill-rule: evenodd; fill: #000000; "/>
<path d=" 
M51.7500,-4531.5000
L49.5000,-4531.5000
L49.5000,-4533.3750
C49.5000,-4533.5782 49.3283,-4533.7500 49.1250,-4533.7500
L34.1250,-4533.7500
C33.9218,-4533.7500 33.7500,-4533.5782 33.7500,-4533.3750
L33.7500,-4531.5000
L31.5000,-4531.5000
L31.5000,-4533.3750
C31.5000,-4534.8225 32.6775,-4536.0000 34.1250,-4536.0000
L49.1250,-4536.0000
C50.5725,-4536.0000 51.7500,-4534.8225 51.7500,-4533.3750
L51.7500,-4531.5000
Z" 
style="fill-rule: evenodd; fill: #000000; "/>
<path d=" 
M51.7500,-4531.5000
L49.5000,-4531.5000
L49.5000,-4533.3750
C49.5000,-4533.5782 49.3283,-4533.7500 49.1250,-4533.7500
L34.1250,-4533.7500
C33.9218,-4533.7500 33.7500,-4533.5782 33.7500,-4533.3750
L33.7500,-4531.5000
L31.5000,-4531.5000
L31.5000,-4533.3750
C31.5000,-4534.8225 32.6775,-4536.0000 34.1250,-4536.0000
L49.1250,-4536.0000
C50.5725,-4536.0000 51.7500,-4534.8225 51.7500,-4533.3750
L51.7500,-4531.5000
Z" 
style="fill-rule: evenodd; fill: #000000; "/>
<path d=" 
M49.1250,-4522.5000
L34.1250,-4522.5000
C32.6783,-4522.5000 31.5000,-4523.6775 31.5000,-4525.1250
L31.5000,-4527.0000
L33.7500,-4527.0000
L33.7500,-4525.1250
C33.7500,-4524.9218 33.9218,-4524.7500 34.1250,-4524.7500
L49.1250,-4524.7500
C49.3283,-4524.7500 49.5000,-4524.9218 49.5000,-4525.1250
L49.5000,-4527.0000
L51.7500,-4527.0000
L51.7500,-4525.1250
C51.7500,-4523.6775 50.5725,-4522.5000 49.1250,-4522.5000
Z" 
style="fill-rule: evenodd; fill: #000000; "/>
<path d=" 
M20.2500,-4520.2500
L18.0000,-4520.2500
L18.0000,-4522.1250
C18.0000,-4522.3282 17.8282,-4522.5000 17.6250,-4522.5000
L2.6250,-4522.5000
C2.4217,-4522.5000 2.2500,-4522.3282 2.2500,-4522.1250
L2.2500,-4520.2500
L0.0000,-4520.2500
L0.0000,-4522.1250
C0.0000,-4523.5725 1.1775,-4524.7500 2.6250,-4524.7500
L17.6250,-4524.7500
C19.0717,-4524.7500 20.2500,-4523.5725 20.2500,-4522.1250
L20.2500,-4520.2500
Z" 
style="fill-rule: evenodd; fill: #000000; "/>
<path d=" 
M17.6250,-4511.2500
L2.6250,-4511.2500
C1.1775,-4511.2500 0.0000,-4512.4275 0.0000,-4513.8750
L0.0000,-4515.7500
L2.2500,-4515.7500
L2.2500,-4513.8750
C2.2500,-4513.6717 2.4217,-4513.5000 2.6250,-4513.5000
L17.6250,-4513.5000
C17.8282,-4513.5000 18.0000,-4513.6717 18.0000,-4513.8750
L18.0000,-4515.7500
L20.2500,-4515.7500
L20.2500,-4513.8750
C20.2500,-4512.4275 19.0725,-4511.2500 17.6250,-4511.2500
Z" 
style="fill-rule: evenodd; fill: #000000; "/>
<path d=" 
M42.7500,-4497.7500
L40.5000,-4497.7500
L40.5000,-4499.6250
C40.5000,-4499.8282 40.3282,-4500.0000 40.1250,-4500.0000
L25.1250,-4500.0000
C24.9217,-4500.0000 24.7500,-4499.8282 24.7500,-4499.6250
L24.7500,-4497.7500
L22.5000,-4497.7500
L22.5000,-4499.6250
C22.5000,-4501.0725 23.6775,-4502.2500 25.1250,-4502.2500
L40.1250,-4502.2500
C41.5725,-4502.2500 42.7500,-4501.0725 42.7500,-4499.6250
L42.7500,-4497.7500
Z" 
style="fill-rule: evenodd; fill: #000000; "/>
<path d=" 
M40.1250,-4488.7500
L25.1250,-4488.7500
C23.6782,-4488.7500 22.5000,-4489.9275 22.5000,-4491.3750
L22.5000,-4493.2500
L24.7500,-4493.2500
L24.7500,-4491.3750
C24.7500,-4491.1718 24.9217,-4491.0000 25.1250,-4491.0000
L40.1250,-4491.0000
C40.3282,-4491.0000 40.5000,-4491.1718 40.5000,-4491.3750
L40.5000,-4493.2500
L42.7500,-4493.2500
L42.7500,-4491.3750
C42.7500,-4489.9275 41.5725,-4488.7500 40.1250,-4488.7500
Z" 
style="fill-rule: evenodd; fill: #000000; "/>
<text x="0.0000" y="-4482.0000">
<tspan font-family="Arial Narrow" font-weight="bold" font-size="12.0000" fill="#000000" fill-opacity="1.0000" stroke-opacity="1.0000" >
Fields (small)</tspan>
</text>
</svg>
