<?xml version="1.0" encoding="UTF-8" standalone="no"?>
<svg version="1.1" xmlns="http://www.w3.org/2000/svg" xmlns:xlink="http://www.w3.org/1999/xlink" width="0.9479in" height="0.5729in" viewBox="0 0 68.2500 41.2500" >
<path d=" 
M43.5000,-4503.7500
L68.2500,-4503.7500
L68.2500,-4506.0000
L43.5000,-4506.0000
L43.5000,-4503.7500
Z" 
style="fill-rule: evenodd; fill: #000000; "/>
<path d=" 
M25.5000,-4503.7500
L36.7500,-4503.7500
L36.7500,-4506.0000
L25.5000,-4506.0000
L25.5000,-4503.7500
Z" 
style="fill-rule: evenodd; fill: #000000; "/>
<path d=" 
M3.0000,-4503.7500
L18.7500,-4503.7500
L18.7500,-4506.0000
L3.0000,-4506.0000
L3.0000,-4503.7500
Z" 
style="fill-rule: evenodd; fill: #000000; "/>
<path d=" 
M3.0000,-4521.7500
L14.2500,-4521.7500
L14.2500,-4524.0000
L3.0000,-4524.0000
L3.0000,-4521.7500
Z" 
style="fill-rule: evenodd; fill: #000000; "/>
<path d=" 
M3.0000,-4530.7500
L27.7500,-4530.7500
L27.7500,-4533.0000
L3.0000,-4533.0000
L3.0000,-4530.7500
Z" 
style="fill-rule: evenodd; fill: #000000; "/>
<path d=" 
M34.5000,-4530.7500
L45.7500,-4530.7500
L45.7500,-4533.0000
L34.5000,-4533.0000
L34.5000,-4530.7500
Z" 
style="fill-rule: evenodd; fill: #000000; "/>
<path d=" 
M52.5000,-4530.7500
L68.2500,-4530.7500
L68.2500,-4533.0000
L52.5000,-4533.0000
L52.5000,-4530.7500
Z" 
style="fill-rule: evenodd; fill: #000000; "/>
<path d=" 
M3.0000,-4494.7500
L45.7500,-4494.7500
L45.7500,-4497.0000
L3.0000,-4497.0000
L3.0000,-4494.7500
Z" 
style="fill-rule: evenodd; fill: #000000; "/>
<path d=" 
M52.5000,-4494.7500
L68.2500,-4494.7500
L68.2500,-4497.0000
L52.5000,-4497.0000
L52.5000,-4494.7500
Z" 
style="fill-rule: evenodd; fill: #000000; "/>
<path d=" 
M34.5000,-4521.7500
L50.2500,-4521.7500
L50.2500,-4524.0000
L34.5000,-4524.0000
L34.5000,-4521.7500
Z" 
style="fill-rule: evenodd; fill: #000000; "/>
<path d=" 
M57.0000,-4521.7500
L68.2500,-4521.7500
L68.2500,-4524.0000
L57.0000,-4524.0000
L57.0000,-4521.7500
Z" 
style="fill-rule: evenodd; fill: #000000; "/>
<path d=" 
M61.5000,-4512.7500
L68.2500,-4512.7500
L68.2500,-4515.0000
L61.5000,-4515.0000
L61.5000,-4512.7500
Z" 
style="fill-rule: evenodd; fill: #000000; "/>
<path d=" 
M27.7500,-4512.7500
L54.7500,-4512.7500
L54.7500,-4515.0000
L27.7500,-4515.0000
L27.7500,-4512.7500
Z" 
style="fill-rule: evenodd; fill: #000000; "/>
<path d=" 
M14.2500,-4512.7500
L21.0000,-4512.7500
L21.0000,-4515.0000
L14.2500,-4515.0000
L14.2500,-4512.7500
Z" 
style="fill-rule: evenodd; fill: #000000; "/>
<path d=" 
M3.0000,-4512.7500
L7.5000,-4512.7500
L7.5000,-4515.0000
L3.0000,-4515.0000
L3.0000,-4512.7500
Z" 
style="fill-rule: evenodd; fill: #000000; "/>
<path d=" 
M21.0000,-4521.7500
L27.7500,-4521.7500
L27.7500,-4524.0000
L21.0000,-4524.0000
L21.0000,-4521.7500
Z" 
style="fill-rule: evenodd; fill: #000000; "/>
<path d=" 
M48.7492,-4533.0000
L48.0000,-4533.0000
L48.0000,-4534.8750
C48.0000,-4535.0813 47.8312,-4535.2500 47.6242,-4535.2500
L32.6250,-4535.2500
C32.4187,-4535.2500 32.2500,-4535.0813 32.2500,-4534.8750
L32.2500,-4533.0000
L31.5000,-4533.0000
L31.5000,-4534.8750
C31.5000,-4535.4960 32.0040,-4536.0000 32.6250,-4536.0000
L47.6242,-4536.0000
C48.2445,-4536.0000 48.7492,-4535.4960 48.7492,-4534.8750
L48.7492,-4533.0000
Z" 
style="fill-rule: evenodd; fill: #000000; "/>
<path d=" 
M47.6242,-4527.7500
L32.6250,-4527.7500
C32.0040,-4527.7500 31.5000,-4528.2540 31.5000,-4528.8750
L31.5000,-4530.7500
L32.2500,-4530.7500
L32.2500,-4528.8750
C32.2500,-4528.6680 32.4187,-4528.5000 32.6250,-4528.5000
L47.6242,-4528.5000
C47.8312,-4528.5000 48.0000,-4528.6680 48.0000,-4528.8750
L48.0000,-4530.7500
L48.7492,-4530.7500
L48.7492,-4528.8750
C48.7492,-4528.2548 48.2445,-4527.7500 47.6242,-4527.7500
Z" 
style="fill-rule: evenodd; fill: #000000; "/>
<path d=" 
M17.2500,-4524.0000
L16.5000,-4524.0000
L16.5000,-4525.8750
C16.5000,-4526.0813 16.3320,-4526.2500 16.1243,-4526.2500
L1.1243,-4526.2500
C0.9188,-4526.2500 0.7500,-4526.0813 0.7500,-4525.8750
L0.7500,-4524.0000
L0.0000,-4524.0000
L0.0000,-4525.8750
C0.0000,-4526.4960 0.5040,-4527.0000 1.1250,-4527.0000
L16.1250,-4527.0000
C16.7460,-4527.0000 17.2500,-4526.4960 17.2500,-4525.8750
L17.2500,-4524.0000
Z" 
style="fill-rule: evenodd; fill: #000000; "/>
<path d=" 
M16.1250,-4518.7500
L1.1250,-4518.7500
C0.5040,-4518.7500 0.0000,-4519.2548 0.0000,-4519.8750
L0.0000,-4521.7500
L0.7500,-4521.7500
L0.7500,-4519.8750
C0.7500,-4519.6680 0.9188,-4519.5000 1.1250,-4519.5000
L16.1250,-4519.5000
C16.3320,-4519.5000 16.5000,-4519.6680 16.5000,-4519.8750
L16.5000,-4521.7500
L17.2500,-4521.7500
L17.2500,-4519.8750
C17.2500,-4519.2548 16.7453,-4518.7500 16.1250,-4518.7500
Z" 
style="fill-rule: evenodd; fill: #000000; "/>
<path d=" 
M39.7492,-4506.0000
L39.0000,-4506.0000
L39.0000,-4507.8750
C39.0000,-4508.0813 38.8312,-4508.2500 38.6242,-4508.2500
L23.6250,-4508.2500
C23.4187,-4508.2500 23.2500,-4508.0813 23.2500,-4507.8750
L23.2500,-4506.0000
L22.5000,-4506.0000
L22.5000,-4507.8750
C22.5000,-4508.4960 23.0040,-4509.0000 23.6250,-4509.0000
L38.6242,-4509.0000
C39.2445,-4509.0000 39.7492,-4508.4960 39.7492,-4507.8750
L39.7492,-4506.0000
Z" 
style="fill-rule: evenodd; fill: #000000; "/>
<path d=" 
M38.6242,-4500.7508
L23.6250,-4500.7508
C23.0040,-4500.7508 22.5000,-4501.2555 22.5000,-4501.8758
L22.5000,-4503.7500
L23.2500,-4503.7500
L23.2500,-4501.8758
C23.2500,-4501.6688 23.4187,-4501.5000 23.6250,-4501.5000
L38.6242,-4501.5000
C38.8312,-4501.5000 39.0000,-4501.6688 39.0000,-4501.8758
L39.0000,-4503.7500
L39.7492,-4503.7500
L39.7492,-4501.8758
C39.7492,-4501.2555 39.2445,-4500.7508 38.6242,-4500.7508
Z" 
style="fill-rule: evenodd; fill: #000000; "/>
<text x="0.0000" y="-4494.7500">
<tspan font-family="Arial Narrow" font-weight="bold" font-size="12.0000" fill="#000000" fill-opacity="1.0000" stroke-opacity="1.0000" >
Fields</tspan>
</text>
</svg>
