<?xml version="1.0" encoding="UTF-8" standalone="no"?>
<svg version="1.1" xmlns="http://www.w3.org/2000/svg" xmlns:xlink="http://www.w3.org/1999/xlink" width="1.0938in" height="1.0756in" viewBox="0 0 78.7500 77.4405" >
<g id="Layer1126" >
<path d=" 
M2.2500,-4519.3096
L39.6563,-4535.0596
L76.5000,-4519.3096
L76.0776,-4475.4821
L39.3750,-4459.6846
L1.2656,-4475.4346
L2.2500,-4519.3096
Z" 
style="stroke-width: 0.7200; stroke-linecap: round; stroke-linejoin: round; fill-rule: evenodd; fill: #ffffff; "/>
<path d=" 
M2.2500,-4519.3096
L39.6563,-4535.0596
L76.5000,-4519.3096
L76.0776,-4475.4821
L39.3750,-4459.6846
L1.2656,-4475.4346
L2.2500,-4519.3096
Z" 
style="stroke-width: 0.7200; stroke: #ffffff; stroke-dasharray: none; stroke-linecap: round; stroke-linejoin: round; fill: none; "/>
</g>
<path d=" 
M75.9653,-4522.0185
L42.1597,-4535.5410
C41.3940,-4535.8462 40.3845,-4536.0000 39.3750,-4536.0000
C38.3655,-4536.0000 37.3560,-4535.8462 36.5903,-4535.5410
L2.7848,-4522.0185
C1.2533,-4521.4073 0.0000,-4519.5548 0.0000,-4517.9048
L0.0000,-4476.6540
C0.0000,-4475.0040 1.2533,-4473.1523 2.7848,-4472.5403
L36.5895,-4459.0193
C37.3552,-4458.7133 38.3648,-4458.5595 39.3743,-4458.5595
C40.3837,-4458.5595 41.3932,-4458.7133 42.1590,-4459.0193
L75.9645,-4472.5403
C77.4953,-4473.1523 78.7493,-4475.0040 78.7493,-4476.6540
L78.7493,-4517.9048
C78.7500,-4519.5548 77.4960,-4521.4073 75.9653,-4522.0185
Z
M39.3750,-4505.4968
L31.6515,-4508.6775
L66.9375,-4523.2058
L74.7712,-4520.0715
L39.3750,-4505.4968
Z
M22.2233,-4512.5662
L57.3720,-4527.0315
L63.9390,-4524.4050
L28.6972,-4509.9015
L22.2233,-4512.5662
Z
M12.7950,-4516.4407
L47.8065,-4530.8588
L54.3750,-4528.2323
L19.2675,-4513.7760
L12.7950,-4516.4407
Z
M37.4250,-4533.4515
C37.8930,-4533.6382 38.6212,-4533.7500 39.3750,-4533.7500
C40.1288,-4533.7500 40.8577,-4533.6390 41.3250,-4533.4523
L44.8095,-4532.0573
L9.8393,-4517.6580
L3.9780,-4520.0715
L37.4250,-4533.4515
Z
M3.6210,-4474.6290
C2.9423,-4474.9005 2.2500,-4475.9235 2.2500,-4476.6540
L2.2500,-4484.1683
L11.9573,-4480.2848
C12.0945,-4480.2308 12.2362,-4480.2045 12.3750,-4480.2045
C12.8220,-4480.2045 13.2442,-4480.4723 13.4197,-4480.9118
C13.6508,-4481.4945 13.3702,-4482.1448 12.7935,-4482.3735
L2.2500,-4486.5908
L2.2500,-4495.4198
L2.9550,-4495.1460
C3.0923,-4495.0823 3.2340,-4495.0553 3.3727,-4495.0553
C3.8198,-4495.0553 4.2420,-4495.3230 4.4175,-4495.7625
C4.6485,-4496.3400 4.3680,-4496.9947 3.7912,-4497.2258
L2.2500,-4497.8415
L2.2500,-4506.6690
L5.2095,-4505.4848
C5.3467,-4505.4300 5.4877,-4505.4030 5.6273,-4505.4030
C6.0735,-4505.4030 6.4965,-4505.6760 6.6720,-4506.1102
C6.9030,-4506.6878 6.6225,-4507.3425 6.0458,-4507.5735
L2.2500,-4509.0923
L2.2500,-4517.9048
C2.2500,-4518.0353 2.2785,-4518.1770 2.3190,-4518.3210
L28.6140,-4507.4963
L28.6380,-4507.4355
L28.6972,-4507.4595
L38.2500,-4503.5302
L38.2500,-4483.4453
L30.7935,-4486.4340
C30.2167,-4486.6552 29.5620,-4486.3755 29.3310,-4485.7980
C29.1000,-4485.2205 29.3805,-4484.5658 29.9572,-4484.3347
L38.2500,-4481.0168
L38.2500,-4472.1990
L35.2927,-4473.3750
C34.7168,-4473.6053 34.0613,-4473.3255 33.8303,-4472.7480
C33.5992,-4472.1713 33.8798,-4471.5165 34.4565,-4471.2893
L38.2500,-4469.7675
L38.2500,-4460.8965
C37.9335,-4460.9490 37.6478,-4461.0188 37.4250,-4461.1065
L3.6210,-4474.6290
Z
M75.1290,-4474.6290
L41.3250,-4461.1073
C41.1022,-4461.0195 40.8165,-4460.9497 40.5000,-4460.8972
L40.5000,-4469.7675
L49.5000,-4473.3690
L49.5000,-4475.7915
L40.5000,-4472.1990
L40.5000,-4481.0168
L51.7500,-4485.5243
L51.7500,-4487.9415
L40.5000,-4483.4453
L40.5000,-4492.2668
L45.0000,-4494.0683
L45.0000,-4496.4900
L40.5000,-4494.6915
L40.5000,-4503.5302
L76.4310,-4518.3210
C76.4715,-4518.1778 76.5000,-4518.0360 76.5000,-4517.9048
L76.5000,-4509.0923
L76.5000,-4506.6690
L76.5000,-4497.8423
L74.2500,-4496.9415
L74.2500,-4494.5190
L76.5000,-4495.4198
L76.5000,-4486.5923
L69.7500,-4483.8998
L69.7500,-4481.4683
L76.5000,-4484.1698
L76.5000,-4476.6540
C76.5000,-4475.9235 75.8078,-4474.9005 75.1290,-4474.6290
Z
M29.1712,-4474.6110
C28.9958,-4474.1708 28.5735,-4473.9038 28.1265,-4473.9038
C27.9877,-4473.9038 27.8460,-4473.9293 27.7087,-4473.9840
L18.7095,-4477.5945
C18.1327,-4477.8143 17.8515,-4478.4690 18.0825,-4479.0465
C18.3135,-4479.6240 18.9690,-4479.9038 19.5450,-4479.6743
L28.5450,-4476.0728
C29.1218,-4475.8425 29.4015,-4475.1885 29.1712,-4474.6110
Z
M24.0427,-4489.1250
C24.6195,-4488.9045 24.9008,-4488.2385 24.6698,-4487.6708
C24.4943,-4487.2238 24.0713,-4486.9560 23.6250,-4486.9560
C23.4855,-4486.9560 23.3445,-4486.9815 23.2073,-4487.0355
L20.9602,-4487.9340
C20.3820,-4488.1643 20.1023,-4488.8190 20.3333,-4489.3958
C20.5642,-4489.9740 21.2190,-4490.2530 21.7958,-4490.0235
L24.0427,-4489.1250
Z
M15.6720,-4491.2610
C15.4965,-4490.8215 15.0743,-4490.5538 14.6273,-4490.5538
C14.4885,-4490.5538 14.3467,-4490.5793 14.2095,-4490.6340
L9.7095,-4492.4355
C9.1328,-4492.6755 8.8515,-4493.3250 9.0825,-4493.8965
C9.3135,-4494.4733 9.9682,-4494.7560 10.5450,-4494.5228
L15.0457,-4492.7228
C15.6225,-4492.4925 15.9030,-4491.8378 15.6720,-4491.2610
Z
M11.3302,-4504.2488
C11.5612,-4504.8308 12.2167,-4505.1068 12.7928,-4504.8743
L33.0428,-4496.7743
C33.6195,-4496.5433 33.9007,-4495.8885 33.6697,-4495.3125
C33.4943,-4494.8723 33.0712,-4494.6045 32.6250,-4494.6045
C32.4855,-4494.6045 32.3438,-4494.6315 32.2072,-4494.6908
L11.9573,-4502.7847
C11.3805,-4503.0172 11.0993,-4503.6720 11.3302,-4504.2488
Z
M72.0000,-4493.6190
L67.5000,-4491.8288
L67.5000,-4494.2423
L72.0000,-4496.0408
L72.0000,-4493.6190
Z
M54.0000,-4488.8415
L65.2500,-4493.3415
L65.2500,-4490.9198
L54.0000,-4486.4175
L54.0000,-4488.8415
Z
M60.7500,-4480.2923
L67.5000,-4482.9930
L67.5000,-4480.5690
L60.7500,-4477.8690
L60.7500,-4480.2923
Z
M51.7500,-4476.6915
L58.5000,-4479.3923
L58.5000,-4476.9690
L51.7500,-4474.2795
L51.7500,-4476.6915
Z
M74.2500,-4505.7690
L56.2500,-4498.5683
L56.2500,-4500.9953
L74.2500,-4508.1908
L74.2500,-4505.7690
Z
M54.0000,-4497.6683
L47.2500,-4494.9682
L47.2500,-4497.3915
L54.0000,-4500.0915
L54.0000,-4497.6683
Z" 
style="fill-rule: evenodd; fill: #010101; "/>
<text x="0.0000" y="-4458.5595">
<tspan font-family="Arial Narrow" font-weight="bold" font-size="12.0000" fill="#000000" fill-opacity="1.0000" stroke-opacity="1.0000" >
</tspan>
<tspan font-family="Arial Narrow" font-weight="bold" font-size="12.0000" fill="#000000" fill-opacity="1.0000" stroke-opacity="1.0000" >
Knowledge Object</tspan>
</text>
</svg>
