<?xml version="1.0" encoding="UTF-8" standalone="no"?>
<svg version="1.1" xmlns="http://www.w3.org/2000/svg" xmlns:xlink="http://www.w3.org/1999/xlink" width="1.0938in" height="1.0938in" viewBox="0 0 78.7500 78.7500" >
<g id="Layer1125" >
<path d=" 
M23.6250,-4460.6251
L29.2500,-4460.6251
L29.2500,-4533.7501
L23.6250,-4533.7501
L23.6250,-4460.6251
Z" 
style="stroke-width: 0.7200; stroke-linecap: round; stroke-linejoin: round; fill-rule: evenodd; fill: #ffffff; "/>
<path d=" 
M23.6250,-4460.6251
L29.2500,-4460.6251
L29.2500,-4533.7501
L23.6250,-4533.7501
L23.6250,-4460.6251
Z" 
style="stroke-width: 0.7200; stroke: #ffffff; stroke-dasharray: none; stroke-linecap: round; stroke-linejoin: round; fill: none; "/>
</g>
<path d=" 
M47.2500,-4522.5000
L33.7500,-4522.5000
L33.7500,-4524.7500
L47.2500,-4524.7500
L47.2500,-4522.5000
Z
M72.0000,-4524.7500
L49.5000,-4524.7500
L49.5000,-4522.5000
L72.0000,-4522.5000
L72.0000,-4524.7500
Z
M40.5000,-4515.7500
L33.7500,-4515.7500
L33.7500,-4513.5000
L40.5000,-4513.5000
L40.5000,-4515.7500
Z
M56.2500,-4515.7500
L42.7500,-4515.7500
L42.7500,-4513.5000
L56.2500,-4513.5000
L56.2500,-4515.7500
Z
M74.2500,-4515.7500
L58.5000,-4515.7500
L58.5000,-4513.5000
L74.2500,-4513.5000
L74.2500,-4515.7500
Z
M45.0000,-4506.7500
L33.7500,-4506.7500
L33.7500,-4504.5000
L45.0000,-4504.5000
L45.0000,-4506.7500
Z
M51.7500,-4506.7500
L47.2500,-4506.7500
L47.2500,-4504.5000
L51.7500,-4504.5000
L51.7500,-4506.7500
Z
M76.5000,-4506.7500
L69.7500,-4506.7500
L69.7500,-4504.5000
L76.5000,-4504.5000
L76.5000,-4506.7500
Z
M67.5000,-4506.7500
L54.0000,-4506.7500
L54.0000,-4504.5000
L67.5000,-4504.5000
L67.5000,-4506.7500
Z
M60.7500,-4497.7500
L40.5000,-4497.7500
L40.5000,-4495.5000
L60.7500,-4495.5000
L60.7500,-4497.7500
Z
M38.2500,-4497.7500
L33.7500,-4497.7500
L33.7500,-4495.5000
L38.2500,-4495.5000
L38.2500,-4497.7500
Z
M78.7500,-4497.7500
L63.0000,-4497.7500
L63.0000,-4495.5000
L78.7500,-4495.5000
L78.7500,-4497.7500
Z
M63.0000,-4488.7500
L33.7500,-4488.7500
L33.7500,-4486.5000
L63.0000,-4486.5000
L63.0000,-4488.7500
Z
M76.5000,-4488.7500
L65.2500,-4488.7500
L65.2500,-4486.5000
L76.5000,-4486.5000
L76.5000,-4488.7500
Z
M49.5000,-4479.7500
L33.7500,-4479.7500
L33.7500,-4477.5000
L49.5000,-4477.5000
L49.5000,-4479.7500
Z
M56.2500,-4479.7500
L51.7500,-4479.7500
L51.7500,-4477.5000
L56.2500,-4477.5000
L56.2500,-4479.7500
Z
M74.2500,-4479.7500
L58.5000,-4479.7500
L58.5000,-4477.5000
L74.2500,-4477.5000
L74.2500,-4479.7500
Z
M63.0000,-4470.7500
L54.0000,-4470.7500
L54.0000,-4468.5000
L63.0000,-4468.5000
L63.0000,-4470.7500
Z
M72.0000,-4470.7500
L65.2500,-4470.7500
L65.2500,-4468.5000
L72.0000,-4468.5000
L72.0000,-4470.7500
Z
M51.7500,-4470.7500
L33.7500,-4470.7500
L33.7500,-4468.5000
L51.7500,-4468.5000
L51.7500,-4470.7500
Z
M22.5000,-4491.0000
L24.7500,-4491.0000
L24.7500,-4493.2500
L22.5000,-4493.2500
L22.5000,-4491.0000
Z
M22.5000,-4500.0000
L24.7500,-4500.0000
L24.7500,-4502.2500
L22.5000,-4502.2500
L22.5000,-4500.0000
Z
M29.2500,-4536.0000
L24.7500,-4536.0000
C23.5132,-4536.0000 22.5000,-4534.9867 22.5000,-4533.7500
L22.5000,-4509.0000
L24.7500,-4509.0000
L24.7500,-4533.7500
L29.2500,-4533.7500
L29.2500,-4506.7500
L0.0000,-4506.7500
L2.2500,-4504.5000
L29.2500,-4504.5000
L29.2500,-4497.7500
L0.0000,-4497.7500
L2.2500,-4495.5000
L29.2500,-4495.5000
L29.2500,-4488.7500
L0.0000,-4488.7500
L2.2500,-4486.5000
L29.2500,-4486.5000
L29.2500,-4459.5000
L24.7500,-4459.5000
L24.7500,-4484.2500
L22.5000,-4484.2500
L22.5000,-4459.5000
C22.5000,-4458.2632 23.5132,-4457.2500 24.7500,-4457.2500
L29.2500,-4457.2500
C30.4867,-4457.2500 31.5000,-4458.2632 31.5000,-4459.5000
L31.5000,-4533.7500
C31.5000,-4534.9867 30.4867,-4536.0000 29.2500,-4536.0000
Z" 
style="fill-rule: evenodd; fill: #010101; "/>
<text x="0.0000" y="-4457.2500">
<tspan font-family="Arial Narrow" font-weight="bold" font-size="12.0000" fill="#000000" fill-opacity="1.0000" stroke-opacity="1.0000" >
</tspan>
<tspan font-family="Arial Narrow" font-weight="bold" font-size="12.0000" fill="#000000" fill-opacity="1.0000" stroke-opacity="1.0000" >
Parsing Queue</tspan>
</text>
</svg>
