<?xml version="1.0" encoding="UTF-8" standalone="no"?>
<svg version="1.1" xmlns="http://www.w3.org/2000/svg" xmlns:xlink="http://www.w3.org/1999/xlink" width="0.8750in" height="0.8750in" viewBox="0 0 63.0000 63.0000" >
<g id="Layer1124" >
<path d=" 
M61.2422,-4504.5001
A29.7422,29.7422 180.0000 1,1 31.5000,-4534.2423
A29.7422,29.7422 180.0000 0,1 61.2422,-4504.5001
Z" 
style="stroke-width: 0.7200; stroke-linecap: round; stroke-linejoin: round; fill-rule: evenodd; fill: #ffffff; "/>
<path d=" 
M61.2422,-4504.5001
A29.7422,29.7422 180.0000 1,1 31.5000,-4534.2423
A29.7422,29.7422 180.0000 0,1 61.2422,-4504.5001
Z" 
style="stroke-width: 0.7200; stroke: #ffffff; stroke-dasharray: none; stroke-linecap: round; stroke-linejoin: round; fill: none; "/>
</g>
<path d=" 
M31.5000,-4533.7500
C47.6295,-4533.7500 60.7500,-4520.6287 60.7500,-4504.5000
C60.7500,-4488.3705 47.6295,-4475.2500 31.5000,-4475.2500
C15.3713,-4475.2500 2.2500,-4488.3705 2.2500,-4504.5000
C2.2500,-4520.6287 15.3713,-4533.7500 31.5000,-4533.7500
Z
M31.5000,-4536.0000
C14.1030,-4536.0000 0.0000,-4521.8970 0.0000,-4504.5000
C0.0000,-4487.1038 14.1030,-4473.0000 31.5000,-4473.0000
C48.8962,-4473.0000 63.0000,-4487.1038 63.0000,-4504.5000
C63.0000,-4521.8970 48.8962,-4536.0000 31.5000,-4536.0000
Z
M50.1023,-4509.6023
L34.3523,-4525.3523
C32.1848,-4527.5198 28.5660,-4527.5198 26.3985,-4525.3523
C24.2295,-4523.1847 24.2295,-4519.5660 26.3985,-4517.3985
L32.5447,-4511.2500
L16.8750,-4511.2500
C11.9715,-4511.2500 9.4260,-4505.1188 12.8977,-4501.6478
L30.8978,-4483.6477
C33.0675,-4481.4780 36.7642,-4481.4705 38.8988,-4483.6988
C41.0167,-4485.8647 40.9965,-4489.4572 38.8522,-4491.6015
L37.0373,-4493.4165
C37.0267,-4493.4277 37.0252,-4493.4412 37.0140,-4493.4517
L30.4665,-4500.0000
L46.1250,-4500.0000
C51.0278,-4500.0000 53.5740,-4506.1313 50.1023,-4509.6023
Z
M37.4445,-4489.7873
C38.6460,-4488.3533 38.4465,-4486.2075 36.9952,-4485.0217
C35.5575,-4483.8562 33.4537,-4484.0745 32.2733,-4485.4987
C31.1063,-4486.9050 31.3095,-4489.0320 32.7015,-4490.2065
C34.1130,-4491.3967 36.2572,-4491.1965 37.4445,-4489.7873
Z
M49.2427,-4504.3328
C48.7208,-4503.0720 47.4900,-4502.2500 46.1250,-4502.2500
L28.2165,-4502.2500
L26.2958,-4504.1708
C25.2697,-4505.1968 23.6790,-4503.6052 24.7050,-4502.5800
L25.0343,-4502.2500
L25.0222,-4502.2500
L34.0852,-4493.1885
C31.6118,-4492.8390 29.6595,-4490.8875 29.3115,-4488.4147
L14.4885,-4503.2385
C12.4058,-4505.3220 13.9342,-4509.0000 16.8750,-4509.0000
L39.3750,-4509.0000
C40.8270,-4509.0000 40.8270,-4511.2500 39.3750,-4511.2500
L35.7277,-4511.2500
L27.9885,-4518.9885
C26.6880,-4520.2882 26.6880,-4522.4610 27.9885,-4523.7608
C29.2890,-4525.0612 31.4603,-4525.0612 32.7607,-4523.7608
L48.5107,-4508.0108
C49.4768,-4507.0470 49.7655,-4505.5943 49.2427,-4504.3328
Z" 
style="fill-rule: evenodd; fill: #010101; "/>
<text x="0.0000" y="-4473.0000">
<tspan font-family="Arial Narrow" font-weight="bold" font-size="12.0000" fill="#000000" fill-opacity="1.0000" stroke-opacity="1.0000" >
</tspan>
<tspan font-family="Arial Narrow" font-weight="bold" font-size="12.0000" fill="#000000" fill-opacity="1.0000" stroke-opacity="1.0000" >
Pipeline</tspan>
</text>
</svg>
