<?xml version="1.0" encoding="UTF-8" standalone="no"?>
<svg version="1.1" xmlns="http://www.w3.org/2000/svg" xmlns:xlink="http://www.w3.org/1999/xlink" width="0.9688in" height="1.3125in" viewBox="0 0 69.7500 94.5000" >
<g id="Layer1123" >
<path d=" 
M57.0000,-4452.7501
C59.0685,-4452.7501 60.7500,-4454.4316 60.7500,-4456.5001
L60.7500,-4459.5001
L63.7500,-4459.5001
C65.8185,-4459.5001 67.5000,-4461.1816 67.5000,-4463.2501
L67.5000,-4476.3811
C66.4260,-4474.3711 64.3080,-4473.0001 61.8750,-4473.0001
L60.7500,-4473.0001
L60.7500,-4473.7501
L61.8750,-4473.7501
C64.9763,-4473.7501 67.5000,-4476.2724 67.5000,-4479.3751
L67.5000,-4530.0001
C67.5000,-4532.0679 65.8185,-4533.7501 63.7500,-4533.7501
L15.0000,-4533.7501
C12.9323,-4533.7501 11.2500,-4532.0679 11.2500,-4530.0001
L11.2500,-4527.0001
L8.2500,-4527.0001
C6.1823,-4527.0001 4.5000,-4525.3179 4.5000,-4523.2501
L4.5000,-4472.6251
C4.5000,-4469.5224 7.0238,-4467.0001 10.1250,-4467.0001
L11.2500,-4467.0001
L11.2500,-4466.2501
L10.1250,-4466.2501
C7.6913,-4466.2501 5.5740,-4467.6211 4.5000,-4469.6311
L4.5000,-4465.4064
L1.5469,-4465.4064
L1.5469,-4443.7501
L33.7500,-4443.7501
L33.7500,-4452.7501
L57.0000,-4452.7501
Z" 
style="stroke-width: 0.7200; stroke-linecap: round; stroke-linejoin: round; fill-rule: evenodd; fill: #ffffff; "/>
<path d=" 
M57.0000,-4452.7501
C59.0685,-4452.7501 60.7500,-4454.4316 60.7500,-4456.5001
L60.7500,-4459.5001
L63.7500,-4459.5001
C65.8185,-4459.5001 67.5000,-4461.1816 67.5000,-4463.2501
L67.5000,-4476.3811
C66.4260,-4474.3711 64.3080,-4473.0001 61.8750,-4473.0001
L60.7500,-4473.0001
L60.7500,-4473.7501
L61.8750,-4473.7501
C64.9763,-4473.7501 67.5000,-4476.2724 67.5000,-4479.3751
L67.5000,-4530.0001
C67.5000,-4532.0679 65.8185,-4533.7501 63.7500,-4533.7501
L15.0000,-4533.7501
C12.9323,-4533.7501 11.2500,-4532.0679 11.2500,-4530.0001
L11.2500,-4527.0001
L8.2500,-4527.0001
C6.1823,-4527.0001 4.5000,-4525.3179 4.5000,-4523.2501
L4.5000,-4472.6251
C4.5000,-4469.5224 7.0238,-4467.0001 10.1250,-4467.0001
L11.2500,-4467.0001
L11.2500,-4466.2501
L10.1250,-4466.2501
C7.6913,-4466.2501 5.5740,-4467.6211 4.5000,-4469.6311
L4.5000,-4465.4064
L1.5469,-4465.4064
L1.5469,-4443.7501
L33.7500,-4443.7501
L33.7500,-4452.7501
L57.0000,-4452.7501
Z" 
style="stroke-width: 0.7200; stroke: #ffffff; stroke-dasharray: none; stroke-linecap: round; stroke-linejoin: round; fill: none; "/>
</g>
<path d=" 
M24.7500,-4504.5000
L20.2500,-4504.5000
L20.2500,-4506.7500
L24.7500,-4506.7500
L24.7500,-4504.5000
Z
M33.7500,-4506.7500
L27.0000,-4506.7500
L27.0000,-4504.5000
L33.7500,-4504.5000
L33.7500,-4506.7500
Z
M45.0000,-4506.7500
L36.0000,-4506.7500
L36.0000,-4504.5000
L45.0000,-4504.5000
L45.0000,-4506.7500
Z
M51.7500,-4509.7500
L51.7500,-4483.5000
C51.7500,-4482.1732 50.7953,-4480.8735 49.5285,-4480.4782
L34.3928,-4475.7488
C33.9060,-4475.5972 33.2775,-4475.5125 32.6250,-4475.5125
C31.9725,-4475.5125 31.3440,-4475.5972 30.8573,-4475.7488
L15.7215,-4480.4782
C14.4547,-4480.8735 13.5000,-4482.1732 13.5000,-4483.5000
L13.5000,-4509.7500
C13.5000,-4511.0760 14.4547,-4512.3758 15.7215,-4512.7710
L30.8573,-4517.5005
C31.8308,-4517.8050 33.4192,-4517.8050 34.3928,-4517.5005
L49.5285,-4512.7710
C50.7953,-4512.3758 51.7500,-4511.0767 51.7500,-4509.7500
Z
M15.7500,-4509.7500
L15.7500,-4501.5000
L49.5000,-4501.5000
L49.5000,-4509.7500
C49.5000,-4510.0830 49.1760,-4510.5233 48.8573,-4510.6237
L33.7215,-4515.3533
C33.4545,-4515.4365 33.0450,-4515.4875 32.6250,-4515.4875
C32.2050,-4515.4875 31.7955,-4515.4372 31.5285,-4515.3533
L16.3927,-4510.6237
C16.0740,-4510.5240 15.7500,-4510.0830 15.7500,-4509.7500
Z
M15.7500,-4500.7500
L15.7500,-4492.5000
L49.5000,-4492.5000
L49.5000,-4500.7500
L15.7500,-4500.7500
Z
M49.5000,-4483.5000
L49.5000,-4491.7500
L15.7500,-4491.7500
L15.7500,-4483.5000
C15.7500,-4483.1670 16.0740,-4482.7267 16.3927,-4482.6262
L31.5285,-4477.8967
C32.0632,-4477.7295 33.1860,-4477.7295 33.7215,-4477.8967
L48.8573,-4482.6262
C49.1760,-4482.7267 49.5000,-4483.1670 49.5000,-4483.5000
Z
M36.0000,-4497.7500
L20.2500,-4497.7500
L20.2500,-4495.5000
L36.0000,-4495.5000
L36.0000,-4497.7500
Z
M45.0000,-4497.7500
L38.2500,-4497.7500
L38.2500,-4495.5000
L45.0000,-4495.5000
L45.0000,-4497.7500
Z
M27.0000,-4488.7500
L20.2500,-4488.7500
L20.2500,-4486.5000
L27.0000,-4486.5000
L27.0000,-4488.7500
Z
M31.5000,-4488.7500
L29.2500,-4488.7500
L29.2500,-4486.5000
L31.5000,-4486.5000
L31.5000,-4488.7500
Z
M45.0000,-4488.7500
L33.7500,-4488.7500
L33.7500,-4486.5000
L45.0000,-4486.5000
L45.0000,-4488.7500
Z
M69.7500,-4530.0000
L69.7500,-4463.2500
C69.7500,-4459.9507 67.0492,-4457.2500 63.7500,-4457.2500
L63.0000,-4457.2500
L63.0000,-4456.5000
C63.0000,-4453.2007 60.2993,-4450.5000 57.0000,-4450.5000
L37.1250,-4450.5000
L37.1250,-4444.8750
C37.1250,-4443.0105 35.6145,-4441.5000 33.7500,-4441.5000
L31.8285,-4441.5000
L31.8285,-4441.5330
C31.7198,-4441.5172 31.6117,-4441.5000 31.5000,-4441.5000
L3.3750,-4441.5000
C1.5105,-4441.5000 0.0000,-4443.0105 0.0000,-4444.8750
L0.0000,-4470.7500
C0.0000,-4471.9868 1.0132,-4473.0000 2.2500,-4473.0000
L2.2500,-4523.2500
C2.2500,-4526.5492 4.9508,-4529.2500 8.2500,-4529.2500
L9.0000,-4529.2500
L9.0000,-4530.0000
C9.0000,-4533.2992 11.7007,-4536.0000 15.0000,-4536.0000
L63.7500,-4536.0000
C67.0492,-4536.0000 69.7500,-4533.2992 69.7500,-4530.0000
Z
M4.5000,-4466.2500
L24.7500,-4466.2500
L24.7500,-4468.5000
L4.5000,-4468.5000
L4.5000,-4466.2500
Z
M31.5000,-4461.7500
L2.2500,-4461.7500
L2.2500,-4444.8750
C2.2500,-4444.2540 2.7540,-4443.7500 3.3750,-4443.7500
L31.5000,-4443.7500
L31.5000,-4461.7500
Z
M60.7500,-4469.6318
C59.6760,-4467.6210 57.5580,-4466.2500 55.1250,-4466.2500
L33.7500,-4466.2500
L33.7500,-4452.7500
L57.0000,-4452.7500
C59.0685,-4452.7500 60.7500,-4454.4315 60.7500,-4456.5000
L60.7500,-4469.6318
Z
M60.7500,-4523.2500
C60.7500,-4525.3178 59.0685,-4527.0000 57.0000,-4527.0000
L8.2500,-4527.0000
C6.1823,-4527.0000 4.5000,-4525.3178 4.5000,-4523.2500
L4.5000,-4473.0000
L31.5000,-4473.0000
C32.7368,-4473.0000 33.7500,-4471.9868 33.7500,-4470.7500
L33.7500,-4467.0000
L55.1250,-4467.0000
C58.2263,-4467.0000 60.7500,-4469.5223 60.7500,-4472.6250
L60.7500,-4523.2500
Z
M67.5000,-4476.3818
C66.5963,-4474.6890 64.9500,-4473.4552 63.0000,-4473.1057
L63.0000,-4459.5000
L63.7500,-4459.5000
C65.8185,-4459.5000 67.5000,-4461.1815 67.5000,-4463.2500
L67.5000,-4476.3818
Z
M67.5000,-4530.0000
C67.5000,-4532.0678 65.8185,-4533.7500 63.7500,-4533.7500
L15.0000,-4533.7500
C12.9323,-4533.7500 11.2500,-4532.0678 11.2500,-4530.0000
L11.2500,-4529.2500
L57.0000,-4529.2500
C60.2993,-4529.2500 63.0000,-4526.5492 63.0000,-4523.2500
L63.0000,-4473.8633
C65.5643,-4474.3860 67.5000,-4476.6585 67.5000,-4479.3750
L67.5000,-4530.0000
Z
M18.0000,-4457.2500
L4.5000,-4457.2500
L4.5000,-4455.0000
L18.0000,-4455.0000
L18.0000,-4457.2500
Z
M18.0000,-4450.5000
L4.5000,-4450.5000
L4.5000,-4448.2500
L18.0000,-4448.2500
L18.0000,-4450.5000
Z
M21.0907,-4452.4778
L20.3730,-4451.6723
L21.3885,-4451.3070
L20.9707,-4450.3117
L22.0485,-4450.2960
L21.9757,-4449.2190
L23.0018,-4449.5527
L23.2830,-4448.5110
L24.1455,-4449.1597
L24.7500,-4448.2658
L25.3553,-4449.1597
L26.2162,-4448.5110
L26.4975,-4449.5527
L27.5235,-4449.2190
L27.4522,-4450.2960
L28.5300,-4450.3117
L28.1123,-4451.3070
L29.1277,-4451.6723
L28.4093,-4452.4778
L29.2500,-4453.1527
L28.3095,-4453.6830
L28.8855,-4454.5943
L27.8242,-4454.7892
L28.0725,-4455.8377
L27.0060,-4455.6788
L26.9003,-4456.7520
L25.9425,-4456.2548
L25.4940,-4457.2350
L24.7500,-4456.4528
L24.0075,-4457.2350
L23.5582,-4456.2548
L22.6013,-4456.7520
L22.4948,-4455.6788
L21.4290,-4455.8377
L21.6765,-4454.7892
L20.6153,-4454.5943
L21.1920,-4453.6830
L20.2500,-4453.1527
L21.0907,-4452.4778
Z" 
style="fill-rule: evenodd; fill: #010101; "/>
<text x="0.0000" y="-4441.5000">
<tspan font-family="Arial Narrow" font-weight="bold" font-size="12.0000" fill="#000000" fill-opacity="1.0000" stroke-opacity="1.0000" >
</tspan>
<tspan font-family="Arial Narrow" font-weight="bold" font-size="12.0000" fill="#000000" fill-opacity="1.0000" stroke-opacity="1.0000" >
Pool</tspan>
</text>
</svg>
