<?xml version="1.0" encoding="UTF-8" standalone="no"?>
<svg version="1.1" xmlns="http://www.w3.org/2000/svg" xmlns:xlink="http://www.w3.org/1999/xlink" width="0.8750in" height="0.8750in" viewBox="0 0 63.0000 63.0000" >
<g id="Layer1122" >
<path d=" 
M61.1016,-4504.4999
A29.6016,29.6016 180.0000 1,1 31.5000,-4534.1014
A29.6016,29.6016 180.0000 0,1 61.1016,-4504.4999
Z" 
style="stroke-width: 0.7200; stroke-linecap: round; stroke-linejoin: round; fill-rule: evenodd; fill: #ffffff; "/>
<path d=" 
M61.1016,-4504.4999
A29.6016,29.6016 180.0000 1,1 31.5000,-4534.1014
A29.6016,29.6016 180.0000 0,1 61.1016,-4504.4999
Z" 
style="stroke-width: 0.7200; stroke: #ffffff; stroke-dasharray: none; stroke-linecap: round; stroke-linejoin: round; fill: none; "/>
</g>
<path d=" 
M31.5000,-4533.7500
C47.6295,-4533.7500 60.7500,-4520.6287 60.7500,-4504.5000
C60.7500,-4488.3705 47.6295,-4475.2500 31.5000,-4475.2500
C15.3713,-4475.2500 2.2500,-4488.3705 2.2500,-4504.5000
C2.2500,-4520.6287 15.3713,-4533.7500 31.5000,-4533.7500
Z
M31.5000,-4536.0000
C14.1030,-4536.0000 0.0000,-4521.8970 0.0000,-4504.5000
C0.0000,-4487.1038 14.1030,-4473.0000 31.5000,-4473.0000
C48.8962,-4473.0000 63.0000,-4487.1038 63.0000,-4504.5000
C63.0000,-4521.8970 48.8962,-4536.0000 31.5000,-4536.0000
Z
M46.9208,-4524.7500
L26.5350,-4524.7500
L28.1228,-4520.2500
L15.6600,-4520.2500
L17.2485,-4515.7500
L8.9048,-4515.7500
L12.8805,-4504.6095
L8.9152,-4493.2500
L17.2485,-4493.2500
L15.6600,-4488.7500
L28.1228,-4488.7500
L26.5350,-4484.2500
L46.9200,-4484.2500
L54.0675,-4504.5000
L46.9208,-4524.7500
Z
M12.0840,-4495.5000
L15.2670,-4504.6178
L12.0960,-4513.5000
L18.0420,-4513.5000
L21.2190,-4504.5000
L18.0420,-4495.5000
L12.0840,-4495.5000
Z
M18.8407,-4491.0000
L23.6055,-4504.5000
L18.8407,-4518.0000
L28.9177,-4518.0000
L33.6825,-4504.5000
L28.9177,-4491.0000
L18.8407,-4491.0000
Z
M45.3292,-4486.5000
L29.7150,-4486.5000
L36.0682,-4504.5000
L29.7150,-4522.5000
L45.3300,-4522.5000
L51.6825,-4504.5000
L45.3292,-4486.5000
Z" 
style="fill-rule: evenodd; fill: #010101; "/>
<text x="0.0000" y="-4473.0000">
<tspan font-family="Arial Narrow" font-weight="bold" font-size="12.0000" fill="#000000" fill-opacity="1.0000" stroke-opacity="1.0000" >
</tspan>
<tspan font-family="Arial Narrow" font-weight="bold" font-size="12.0000" fill="#000000" fill-opacity="1.0000" stroke-opacity="1.0000" >
Queue</tspan>
</text>
</svg>
