<?xml version="1.0" encoding="UTF-8" standalone="no"?>
<svg version="1.1" xmlns="http://www.w3.org/2000/svg" xmlns:xlink="http://www.w3.org/1999/xlink" width="0.7500in" height="0.9375in" viewBox="0 0 54.0000 67.5000" >
<g id="Layer1009" >
<path d=" 
M51.7500,-4533.7501
L2.2500,-4533.7501
L2.2500,-4470.7501
L51.7500,-4470.7501
L51.7500,-4533.7501
Z" 
style="stroke-width: 0.7200; stroke-linecap: round; stroke-linejoin: round; fill-rule: evenodd; fill: #ffffff; "/>
<path d=" 
M51.7500,-4533.7501
L2.2500,-4533.7501
L2.2500,-4470.7501
L51.7500,-4470.7501
L51.7500,-4533.7501
Z" 
style="stroke-width: 0.7200; stroke: #ffffff; stroke-dasharray: none; stroke-linecap: round; stroke-linejoin: round; fill: none; "/>
</g>
<path d=" 
M51.7500,-4533.7500
L51.7500,-4470.7500
L2.2500,-4470.7500
L2.2500,-4533.7500
L51.7500,-4533.7500
Z
M51.7500,-4536.0000
L2.2500,-4536.0000
C1.0133,-4536.0000 0.0000,-4534.9868 0.0000,-4533.7500
L0.0000,-4470.7500
C0.0000,-4469.5132 1.0133,-4468.5000 2.2500,-4468.5000
L51.7500,-4468.5000
C52.9867,-4468.5000 54.0000,-4469.5132 54.0000,-4470.7500
L54.0000,-4533.7500
C54.0000,-4534.9868 52.9867,-4536.0000 51.7500,-4536.0000
Z" 
style="fill-rule: evenodd; fill: #000000; "/>
<path d=" 
M11.2500,-4520.2500
A2.2500,2.2500 180.0000 1,1 9.0000,-4522.5000
A2.2500,2.2500 180.0000 0,1 11.2500,-4520.2500
Z" 
style="fill-rule: evenodd; fill: #000000; "/>
<path d=" 
M21.7500,-4513.5000
A1.5000,1.5000 180.0000 1,1 20.2500,-4515.0000
A1.5000,1.5000 180.0000 0,1 21.7500,-4513.5000
Z" 
style="fill-rule: evenodd; fill: #000000; "/>
<path d=" 
M36.7500,-4522.5000
A3.0000,3.0000 180.0000 1,1 33.7500,-4525.5000
A3.0000,3.0000 180.0000 0,1 36.7500,-4522.5000
Z" 
style="fill-rule: evenodd; fill: #000000; "/>
<path d=" 
M46.8750,-4527.0000
A1.8750,1.8750 180.0000 1,1 45.0000,-4528.8750
A1.8750,1.8750 180.0000 0,1 46.8750,-4527.0000
Z" 
style="fill-rule: evenodd; fill: #000000; "/>
<path d=" 
M20.2613,-4513.0560
L8.8065,-4519.9283
L9.1935,-4520.5718
L20.2387,-4513.9440
L33.6105,-4522.8480
L44.8605,-4527.3480
L45.1395,-4526.6520
L33.9255,-4522.1663
L20.2613,-4513.0560
Z" 
style="fill-rule: evenodd; fill: #000000; "/>
<path d=" 
M46.5000,-4502.2500
L21.0000,-4502.2500
L19.5000,-4502.2500
L7.5000,-4502.2500
L6.7500,-4502.2500
L6.7500,-4501.5000
L6.7500,-4495.5000
L6.7500,-4476.0000
C6.7500,-4475.5868 7.0875,-4475.2500 7.5000,-4475.2500
L46.5000,-4475.2500
C46.9133,-4475.2500 47.2500,-4475.5868 47.2500,-4476.0000
L47.2500,-4495.5000
L47.2500,-4501.5000
L47.2500,-4502.2500
L46.5000,-4502.2500
Z
M21.0000,-4495.5000
L33.0000,-4495.5000
L33.0000,-4476.7500
L21.0000,-4476.7500
L21.0000,-4495.5000
Z
M8.2500,-4495.5000
L19.5000,-4495.5000
L19.5000,-4476.7500
L8.2500,-4476.7500
L8.2500,-4495.5000
Z
M45.7500,-4476.7500
L34.5000,-4476.7500
L34.5000,-4495.5000
L45.7500,-4495.5000
L45.7500,-4476.7500
Z" 
style="fill-rule: evenodd; fill: #000000; "/>
<path d=" 
M6.7500,-4508.2500
L47.2500,-4508.2500
L47.2500,-4509.0000
L6.7500,-4509.0000
L6.7500,-4508.2500
Z" 
style="fill-rule: evenodd; fill: #000000; "/>
<text x="0.0000" y="-4468.5000">
<tspan font-family="Arial Narrow" font-weight="bold" font-size="12.0000" fill="#000000" fill-opacity="1.0000" stroke-opacity="1.0000" >
Report</tspan>
</text>
</svg>
