<?xml version="1.0" encoding="UTF-8" standalone="no"?>
<svg version="1.1" xmlns="http://www.w3.org/2000/svg" xmlns:xlink="http://www.w3.org/1999/xlink" width="0.8125in" height="1.0000in" viewBox="0 0 58.5000 72.0000" >
<g id="Layer1010" >
<path d=" 
M51.7500,-4470.7501
L56.2500,-4470.7501
L56.2500,-4533.7501
L6.7500,-4533.7501
L6.7500,-4529.2501
L2.2500,-4529.2501
L2.2500,-4466.2501
L51.7500,-4466.2501
L51.7500,-4470.7501
Z" 
style="stroke-width: 0.7200; stroke-linecap: round; stroke-linejoin: round; fill-rule: evenodd; fill: #ffffff; "/>
<path d=" 
M51.7500,-4470.7501
L56.2500,-4470.7501
L56.2500,-4533.7501
L6.7500,-4533.7501
L6.7500,-4529.2501
L2.2500,-4529.2501
L2.2500,-4466.2501
L51.7500,-4466.2501
L51.7500,-4470.7501
Z" 
style="stroke-width: 0.7200; stroke: #ffffff; stroke-dasharray: none; stroke-linecap: round; stroke-linejoin: round; fill: none; "/>
</g>
<path d=" 
M56.2500,-4536.0000
L6.7500,-4536.0000
C5.5133,-4536.0000 4.5000,-4534.9868 4.5000,-4533.7500
L4.5000,-4531.5000
L2.2500,-4531.5000
C1.0133,-4531.5000 0.0000,-4530.4868 0.0000,-4529.2500
L0.0000,-4466.2500
C0.0000,-4465.0132 1.0133,-4464.0000 2.2500,-4464.0000
L51.7500,-4464.0000
C52.9867,-4464.0000 54.0000,-4465.0132 54.0000,-4466.2500
L54.0000,-4468.5000
L56.2500,-4468.5000
C57.4868,-4468.5000 58.5000,-4469.5132 58.5000,-4470.7500
L58.5000,-4533.7500
C58.5000,-4534.9868 57.4868,-4536.0000 56.2500,-4536.0000
Z
M51.7500,-4466.2500
L2.2500,-4466.2500
L2.2500,-4529.2500
L51.7500,-4529.2500
L51.7500,-4466.2500
Z
M56.2500,-4470.7500
L54.0000,-4470.7500
L54.0000,-4529.2500
C54.0000,-4530.4868 52.9867,-4531.5000 51.7500,-4531.5000
L6.7500,-4531.5000
L6.7500,-4533.7500
L56.2500,-4533.7500
L56.2500,-4470.7500
Z" 
style="fill-rule: evenodd; fill: #000000; "/>
<path d=" 
M11.2500,-4515.7500
A2.2500,2.2500 180.0000 1,1 9.0000,-4518.0000
A2.2500,2.2500 180.0000 0,1 11.2500,-4515.7500
Z" 
style="fill-rule: evenodd; fill: #000000; "/>
<path d=" 
M21.7500,-4509.0000
A1.5000,1.5000 180.0000 1,1 20.2500,-4510.5000
A1.5000,1.5000 180.0000 0,1 21.7500,-4509.0000
Z" 
style="fill-rule: evenodd; fill: #000000; "/>
<path d=" 
M36.7500,-4518.0000
A3.0000,3.0000 180.0000 1,1 33.7500,-4521.0000
A3.0000,3.0000 180.0000 0,1 36.7500,-4518.0000
Z" 
style="fill-rule: evenodd; fill: #000000; "/>
<path d=" 
M46.8750,-4522.5000
A1.8750,1.8750 180.0000 1,1 45.0000,-4524.3750
A1.8750,1.8750 180.0000 0,1 46.8750,-4522.5000
Z" 
style="fill-rule: evenodd; fill: #000000; "/>
<path d=" 
M20.2612,-4508.5560
L8.8065,-4515.4282
L9.1935,-4516.0717
L20.2387,-4509.4440
L33.6105,-4518.3480
L44.8605,-4522.8480
L45.1395,-4522.1520
L33.9255,-4517.6662
L20.2612,-4508.5560
Z" 
style="fill-rule: evenodd; fill: #000000; "/>
<path d=" 
M46.5000,-4497.7500
L21.0000,-4497.7500
L19.5000,-4497.7500
L7.5000,-4497.7500
L6.7500,-4497.7500
L6.7500,-4497.0000
L6.7500,-4491.0000
L6.7500,-4471.5000
C6.7500,-4471.0868 7.0875,-4470.7500 7.5000,-4470.7500
L46.5000,-4470.7500
C46.9133,-4470.7500 47.2500,-4471.0868 47.2500,-4471.5000
L47.2500,-4491.0000
L47.2500,-4497.0000
L47.2500,-4497.7500
L46.5000,-4497.7500
Z
M21.0000,-4491.0000
L33.0000,-4491.0000
L33.0000,-4472.2500
L21.0000,-4472.2500
L21.0000,-4491.0000
Z
M8.2500,-4491.0000
L19.5000,-4491.0000
L19.5000,-4472.2500
L8.2500,-4472.2500
L8.2500,-4491.0000
Z
M45.7500,-4472.2500
L34.5000,-4472.2500
L34.5000,-4491.0000
L45.7500,-4491.0000
L45.7500,-4472.2500
Z" 
style="fill-rule: evenodd; fill: #000000; "/>
<path d=" 
M6.7500,-4503.7500
L47.2500,-4503.7500
L47.2500,-4504.5000
L6.7500,-4504.5000
L6.7500,-4503.7500
Z" 
style="fill-rule: evenodd; fill: #000000; "/>
<text x="0.0000" y="-4464.0000">
<tspan font-family="Arial Narrow" font-weight="bold" font-size="12.0000" fill="#000000" fill-opacity="1.0000" stroke-opacity="1.0000" >
Reports</tspan>
</text>
</svg>
