<?xml version="1.0" encoding="UTF-8" standalone="no"?>
<svg version="1.1" xmlns="http://www.w3.org/2000/svg" xmlns:xlink="http://www.w3.org/1999/xlink" width="0.9375in" height="1.0938in" viewBox="0 0 67.5000 78.7500" >
<g id="Layer1020" >
<path d=" 
M66.6563,-4515.7501
A5.9063,5.9063 180.0000 1,1 60.7500,-4521.6564
A5.9063,5.9063 180.0000 0,1 66.6563,-4515.7501
Z" 
style="stroke-width: 0.7200; stroke-linecap: round; stroke-linejoin: round; fill-rule: evenodd; fill: #ffffff; "/>
<path d=" 
M66.6563,-4515.7501
A5.9063,5.9063 180.0000 1,1 60.7500,-4521.6564
A5.9063,5.9063 180.0000 0,1 66.6563,-4515.7501
Z" 
style="stroke-width: 0.7200; stroke: #ffffff; stroke-dasharray: none; stroke-linecap: round; stroke-linejoin: round; fill: none; "/>
</g>
<g id="Layer1021" >
<path d=" 
M39.6563,-4484.2501
A5.9063,5.9063 180.0000 1,1 33.7500,-4490.1564
A5.9063,5.9063 180.0000 0,1 39.6563,-4484.2501
Z" 
style="stroke-width: 0.7200; stroke-linecap: round; stroke-linejoin: round; fill-rule: evenodd; fill: #ffffff; "/>
<path d=" 
M39.6563,-4484.2501
A5.9063,5.9063 180.0000 1,1 33.7500,-4490.1564
A5.9063,5.9063 180.0000 0,1 39.6563,-4484.2501
Z" 
style="stroke-width: 0.7200; stroke: #ffffff; stroke-dasharray: none; stroke-linecap: round; stroke-linejoin: round; fill: none; "/>
</g>
<g id="Layer1022" >
<path d=" 
M12.6563,-4502.2501
A5.9063,5.9063 180.0000 1,1 6.7500,-4508.1564
A5.9063,5.9063 180.0000 0,1 12.6563,-4502.2501
Z" 
style="stroke-width: 0.7200; stroke-linecap: round; stroke-linejoin: round; fill-rule: evenodd; fill: #ffffff; "/>
<path d=" 
M12.6563,-4502.2501
A5.9063,5.9063 180.0000 1,1 6.7500,-4508.1564
A5.9063,5.9063 180.0000 0,1 12.6563,-4502.2501
Z" 
style="stroke-width: 0.7200; stroke: #ffffff; stroke-dasharray: none; stroke-linecap: round; stroke-linejoin: round; fill: none; "/>
</g>
<path d=" 
M67.5000,-4515.7500
C67.5000,-4518.6892 65.6205,-4521.1808 63.0000,-4522.1085
L63.0000,-4533.7500
C63.0000,-4534.9927 61.9920,-4536.0000 60.7500,-4536.0000
C59.5080,-4536.0000 58.5000,-4534.9927 58.5000,-4533.7500
L58.5000,-4522.1085
C55.8795,-4521.1815 54.0000,-4518.6892 54.0000,-4515.7500
C54.0000,-4512.8107 55.8795,-4510.3193 58.5000,-4509.3915
L58.5000,-4459.5000
C58.5000,-4458.2580 59.5080,-4457.2500 60.7500,-4457.2500
C61.9920,-4457.2500 63.0000,-4458.2580 63.0000,-4459.5000
L63.0000,-4509.3915
C65.6205,-4510.3193 67.5000,-4512.8107 67.5000,-4515.7500
Z
M60.7500,-4510.5000
C57.8557,-4510.5000 55.5000,-4512.8557 55.5000,-4515.7500
C55.5000,-4518.6442 57.8557,-4521.0000 60.7500,-4521.0000
C63.6443,-4521.0000 66.0000,-4518.6442 66.0000,-4515.7500
C66.0000,-4512.8557 63.6443,-4510.5000 60.7500,-4510.5000
Z" 
style="fill-rule: evenodd; fill: #000000; "/>
<path d=" 
M40.5000,-4484.2500
C40.5000,-4487.1892 38.6205,-4489.6808 36.0000,-4490.6085
L36.0000,-4533.7500
C36.0000,-4534.9927 34.9920,-4536.0000 33.7500,-4536.0000
C32.5072,-4536.0000 31.5000,-4534.9927 31.5000,-4533.7500
L31.5000,-4490.6085
C28.8795,-4489.6815 27.0000,-4487.1892 27.0000,-4484.2500
C27.0000,-4481.3107 28.8795,-4478.8193 31.5000,-4477.8915
L31.5000,-4459.5000
C31.5000,-4458.2580 32.5072,-4457.2500 33.7500,-4457.2500
C34.9920,-4457.2500 36.0000,-4458.2580 36.0000,-4459.5000
L36.0000,-4477.8915
C38.6205,-4478.8193 40.5000,-4481.3107 40.5000,-4484.2500
Z
M33.7500,-4479.0000
C30.8550,-4479.0000 28.5000,-4481.3557 28.5000,-4484.2500
C28.5000,-4487.1442 30.8557,-4489.5000 33.7500,-4489.5000
C36.6443,-4489.5000 39.0000,-4487.1442 39.0000,-4484.2500
C39.0000,-4481.3557 36.6443,-4479.0000 33.7500,-4479.0000
Z" 
style="fill-rule: evenodd; fill: #000000; "/>
<path d=" 
M13.5000,-4502.2500
C13.5000,-4505.1878 11.6205,-4507.6800 9.0000,-4508.6077
L9.0000,-4533.7500
C9.0000,-4534.9927 7.9928,-4536.0000 6.7500,-4536.0000
C5.5072,-4536.0000 4.5000,-4534.9927 4.5000,-4533.7500
L4.5000,-4508.6077
C1.8795,-4507.6800 0.0000,-4505.1878 0.0000,-4502.2500
C0.0000,-4499.3107 1.8795,-4496.8193 4.5000,-4495.8915
L4.5000,-4459.5000
C4.5000,-4458.2580 5.5072,-4457.2500 6.7500,-4457.2500
C7.9928,-4457.2500 9.0000,-4458.2580 9.0000,-4459.5000
L9.0000,-4495.8915
C11.6205,-4496.8193 13.5000,-4499.3107 13.5000,-4502.2500
Z
M6.7500,-4497.0000
C3.8550,-4497.0000 1.5000,-4499.3557 1.5000,-4502.2500
C1.5000,-4505.1442 3.8557,-4507.5000 6.7500,-4507.5000
C9.6443,-4507.5000 12.0000,-4505.1442 12.0000,-4502.2500
C12.0000,-4499.3557 9.6450,-4497.0000 6.7500,-4497.0000
Z" 
style="fill-rule: evenodd; fill: #000000; "/>
<text x="0.0000" y="-4457.2500">
<tspan font-family="Arial Narrow" font-weight="bold" font-size="12.0000" fill="#000000" fill-opacity="1.0000" stroke-opacity="1.0000" >
Settings</tspan>
</text>
</svg>
