<?xml version="1.0" encoding="UTF-8" standalone="no"?>
<svg version="1.1" xmlns="http://www.w3.org/2000/svg" xmlns:xlink="http://www.w3.org/1999/xlink" width="0.7500in" height="0.9572in" viewBox="0 0 54.0000 68.9152" >
<g id="Layer1007" >
<path d=" 
M2.2500,-4525.5845
L27.0000,-4534.1667
L51.7500,-4525.5845
L51.7500,-4478.3345
L27.0000,-4469.7530
L2.8463,-4477.5080
L2.2500,-4525.5845
Z" 
style="stroke-width: 1.5000; stroke-linecap: round; stroke-linejoin: round; fill-rule: evenodd; fill: #ffffff; "/>
<path d=" 
M2.2500,-4525.5845
L27.0000,-4534.1667
L51.7500,-4525.5845
L51.7500,-4478.3345
L27.0000,-4469.7530
L2.8463,-4477.5080
L2.2500,-4525.5845
Z" 
style="stroke-width: 1.5000; stroke: #ffffff; stroke-dasharray: none; stroke-linecap: round; stroke-linejoin: round; fill: none; "/>
</g>
<path d=" 
M31.5000,-4525.1678
L19.1250,-4499.2928
L24.7500,-4500.4178
L20.2500,-4477.9178
L32.6250,-4506.0428
L27.0000,-4504.9178
L31.5000,-4525.1678
Z" 
style="fill-rule: evenodd; fill: #020202; "/>
<path d=" 
M1.1250,-4515.4170
L1.1250,-4514.6678
L23.9843,-4514.6678
L24.3428,-4515.4170
L1.1250,-4515.4170
Z" 
style="fill-rule: evenodd; fill: #000000; "/>
<path d=" 
M6.7500,-4520.6678
L13.5000,-4520.6678
L13.5000,-4522.9178
L6.7500,-4522.9178
L6.7500,-4520.6678
Z" 
style="fill-rule: evenodd; fill: #000000; "/>
<path d=" 
M15.7500,-4520.6678
L26.8530,-4520.6678
L27.9285,-4522.9178
L15.7500,-4522.9178
L15.7500,-4520.6678
Z" 
style="fill-rule: evenodd; fill: #000000; "/>
<path d=" 
M36.0000,-4520.6678
L36.0000,-4522.9178
L33.3053,-4522.9178
L32.8065,-4520.6678
L36.0000,-4520.6678
Z" 
style="fill-rule: evenodd; fill: #000000; "/>
<path d=" 
M38.2500,-4520.6678
L47.2500,-4520.6678
L47.2500,-4522.9178
L38.2500,-4522.9178
L38.2500,-4520.6678
Z" 
style="fill-rule: evenodd; fill: #000000; "/>
<path d=" 
M17.8860,-4501.9170
L1.1250,-4501.9170
L1.1250,-4501.1677
L17.5275,-4501.1677
L17.8860,-4501.9170
Z" 
style="fill-rule: evenodd; fill: #000000; "/>
<path d=" 
M29.8125,-4507.1678
L35.5785,-4507.1678
L40.5000,-4507.1678
L40.5000,-4509.4178
L30.3113,-4509.4178
L29.8125,-4507.1678
Z" 
style="fill-rule: evenodd; fill: #000000; "/>
<path d=" 
M6.7500,-4507.1678
L20.3970,-4507.1678
L21.4733,-4509.4178
L6.7500,-4509.4178
L6.7500,-4507.1678
Z" 
style="fill-rule: evenodd; fill: #000000; "/>
<path d=" 
M42.7500,-4507.1678
L47.2500,-4507.1678
L47.2500,-4509.4178
L42.7500,-4509.4178
L42.7500,-4507.1678
Z" 
style="fill-rule: evenodd; fill: #000000; "/>
<path d=" 
M51.8655,-4528.1295
L29.1345,-4535.7052
C28.5480,-4535.9010 27.7733,-4536.0000 27.0000,-4536.0000
C26.2268,-4536.0000 25.4520,-4535.9010 24.8655,-4535.7052
L2.1345,-4528.1295
C0.9600,-4527.7373 0.0000,-4526.4045 0.0000,-4525.1678
L0.0000,-4477.9178
C0.0000,-4476.6810 0.9600,-4475.3483 2.1345,-4474.9560
L24.8655,-4467.3795
C25.4520,-4467.1838 26.2268,-4467.0847 27.0000,-4467.0847
C27.7733,-4467.0847 28.5480,-4467.1838 29.1345,-4467.3795
L51.8663,-4474.9560
C53.0400,-4475.3483 54.0000,-4476.6803 54.0000,-4477.9178
L54.0000,-4525.1678
C54.0000,-4526.4045 53.0400,-4527.7373 51.8655,-4528.1295
Z
M51.1538,-4477.0898
L28.4220,-4469.5140
C28.1640,-4469.4277 27.6555,-4469.3355 27.0000,-4469.3355
C26.3445,-4469.3355 25.8353,-4469.4277 25.5773,-4469.5140
L2.8463,-4477.0898
C2.5898,-4477.1760 2.2500,-4477.6470 2.2500,-4477.9178
L2.2500,-4525.1678
C2.2500,-4525.4378 2.5898,-4525.9095 2.8463,-4525.9950
L25.5773,-4533.5708
C25.8353,-4533.6578 26.3438,-4533.7500 27.0000,-4533.7500
C27.6563,-4533.7500 28.1648,-4533.6578 28.4220,-4533.5708
L51.1538,-4525.9950
C51.4103,-4525.9087 51.7500,-4525.4378 51.7500,-4525.1678
L51.7500,-4515.4177
L31.6418,-4515.4177
L31.4753,-4514.6685
L51.7500,-4514.6685
L51.7500,-4501.9178
L33.2678,-4501.9178
L32.9385,-4501.1677
L51.7500,-4501.1677
L51.7500,-4488.4177
L27.3285,-4488.4177
L26.9985,-4487.6677
L51.7500,-4487.6677
L51.7500,-4477.9178
C51.7500,-4477.6470 51.4103,-4477.1760 51.1538,-4477.0898
Z" 
style="fill-rule: evenodd; fill: #000000; "/>
<path d=" 
M20.0550,-4488.4177
L1.1250,-4488.4177
L1.1250,-4487.6677
L19.9058,-4487.6677
L20.0550,-4488.4177
Z" 
style="fill-rule: evenodd; fill: #000000; "/>
<path d=" 
M6.7500,-4493.6678
L15.7500,-4493.6678
L15.7500,-4495.9178
L6.7500,-4495.9178
L6.7500,-4493.6678
Z" 
style="fill-rule: evenodd; fill: #000000; "/>
<path d=" 
M21.5550,-4495.9178
L18.0000,-4495.9178
L18.0000,-4493.6678
L21.1058,-4493.6678
L21.5550,-4495.9178
Z" 
style="fill-rule: evenodd; fill: #000000; "/>
<path d=" 
M47.2500,-4495.9178
L30.6285,-4495.9178
L29.6385,-4493.6678
L47.2500,-4493.6678
L47.2500,-4495.9178
Z" 
style="fill-rule: evenodd; fill: #000000; "/>
<path d=" 
M6.7500,-4480.1678
L18.4058,-4480.1678
L18.8558,-4482.4178
L6.7500,-4482.4178
L6.7500,-4480.1678
Z" 
style="fill-rule: evenodd; fill: #000000; "/>
<path d=" 
M47.2500,-4482.4178
L24.6885,-4482.4178
L23.6985,-4480.1678
L47.2500,-4480.1678
L47.2500,-4482.4178
Z" 
style="fill-rule: evenodd; fill: #000000; "/>
<text x="0.0000" y="-4467.0847">
<tspan font-family="Arial Narrow" font-weight="bold" font-size="12.0000" fill="#000000" fill-opacity="1.0000" stroke-opacity="1.0000" >
Summary</tspan>
</text>
</svg>
